<svg xmlns="http://www.w3.org/2000/svg" fill="none" viewBox="-1.5 0 24 18"><path fill="#e31e24" d="M0 .844C0 .376.376 0 .844 0h1.6c.773 0 1.458.45 1.778 1.125h14.45c.924 0 1.6.879 1.357 1.772L18.587 8.25a2.535 2.535 0 0 1-2.443 1.874H6l.19 1.002a.85.85 0 0 0 .83.685h10.135c.468 0 .844.377.844.844a.84.84 0 0 1-.844.844H7.021a2.53 2.53 0 0 1-2.486-2.057L2.721 1.916a.28.28 0 0 0-.278-.228h-1.6A.84.84 0 0 1 0 .844m4.5 15.469a1.688 1.688 0 1 1 3.376 0 1.688 1.688 0 0 1-3.376 0m11.813-1.688a1.687 1.687 0 1 1 0 3.374 1.687 1.687 0 0 1 0-3.374"/></svg>