<svg xmlns="http://www.w3.org/2000/svg" fill="none" viewBox="-3 -3 24 24"><g clip-path="url(#a)"><path fill="#e31e24" fill-rule="evenodd" d="M16.54.728a.964.964 0 0 1-.48 1.277l-.955.435 2.654 6.18c.052.12.078.25.078.38a3.992 3.992 0 1 1-7.984 0c0-.13.026-.26.078-.38l2.043-4.757-2.556 1.162-.039.017-3.984 1.811 2.682 6.63q.07.174.07.362a3.992 3.992 0 1 1-7.984 0q0-.188.07-.362l2.16-5.337a.965.965 0 0 1-.453-1.84l6.096-2.771V1.127a.964.964 0 0 1 1.928 0v1.53l3.426-1.556a1 1 0 0 1 .114-.052l1.759-.8a.964.964 0 0 1 1.277.48m-.888 7.874-1.807-4.208-1.807 4.208zm-11.497.33L2.35 13.394H5.96z" clip-rule="evenodd"/></g><defs><clipPath id="a"><path fill="#fff" d="M0 0h18v18H0z"/></clipPath></defs></svg>