<svg xmlns="http://www.w3.org/2000/svg" fill="none" viewBox="-6 0 24 14"><path fill="#e31e24" fill-rule="evenodd" d="M.44.44A1.5 1.5 0 0 1 1.5 0h6a.5.5 0 0 1 .354.146l4 4A.5.5 0 0 1 12 4.5v8a1.5 1.5 0 0 1-1.5 1.5h-9A1.5 1.5 0 0 1 0 12.5v-11C0 1.102.158.72.44.44m5.747 10.502.104-.104c.116-.076.216-.176.292-.292l1.854-1.854a.625.625 0 0 0-.442-1.067h-1.25V4a1 1 0 0 0-2 0v3.625h-1.25a.625.625 0 0 0-.442 1.067l1.854 1.854c.076.116.176.216.292.292l.104.104a.625.625 0 0 0 .884 0" clip-rule="evenodd"/></svg>