<svg xmlns="http://www.w3.org/2000/svg" fill="none" viewBox="0 0 24 24"><path fill="#e31e24" fill-rule="evenodd" d="M22.892 5.704c1.259.704 1.259 2.288 0 2.992l-1.616.904 1.616.904c1.259.704 1.259 2.288 0 2.992l-1.616.904 1.616.904c1.259.704 1.259 2.288 0 2.992l-9.596 5.368c-.801.448-1.955.448-2.756 0L.944 18.296c-1.259-.704-1.259-2.288 0-2.992L2.56 14.4l-1.616-.904c-1.259-.704-1.259-2.288 0-2.992L2.56 9.6.944 8.696c-1.259-.704-1.259-2.288 0-2.992L10.54.336c.801-.448 1.955-.448 2.756 0zm-9.596 8.36 5.526-3.091L20.658 12l-1.836 1.027-2.454 1.373-4.23 2.366c-.081.045-.36.045-.44 0L7.467 14.4l-2.454-1.373L3.177 12l1.837-1.027 5.526 3.09c.801.45 1.955.45 2.756 0m-8.282 1.709L3.177 16.8l8.52 4.766c.082.045.36.045.442 0l8.52-4.766-1.837-1.027-5.526 3.09c-.801.45-1.955.45-2.756 0zm6.683-13.339c.082-.045.36-.045.442 0l8.52 4.766-8.52 4.766c-.082.045-.36.045-.442 0L3.177 7.2z" clip-rule="evenodd"/></svg>