<svg xmlns="http://www.w3.org/2000/svg" fill="none" viewBox="-2 -2 24 24"><g clip-path="url(#a)"><path fill="#e31e24" fill-rule="evenodd" d="M20 10a9.97 9.97 0 0 1-2.773 6.912A9.97 9.97 0 0 1 10.03 20h-.06a9.97 9.97 0 0 1-7.197-3.088A9.97 9.97 0 0 1 0 10C0 4.477 4.477 0 10 0s10 4.477 10 10m-3.939 5A7.84 7.84 0 0 0 10 12.143 7.84 7.84 0 0 0 3.939 15 7.84 7.84 0 0 0 10 17.857 7.84 7.84 0 0 0 16.061 15m-6.06-4.286a3.571 3.571 0 1 0 0-7.143 3.571 3.571 0 0 0 0 7.143" clip-rule="evenodd"/></g><defs><clipPath id="a"><path fill="#fff" d="M0 0h20v20H0z"/></clipPath></defs></svg>