<svg xmlns="http://www.w3.org/2000/svg" fill="none" viewBox="-2 -2 24 24"><path fill="#e31e24" fill-rule="evenodd" d="M6.428 0a1.071 1.071 0 0 0 0 2.143h9.286c.197 0 .357.16.357.357v13.571a1.072 1.072 0 0 0 2.143 0V2.5a2.5 2.5 0 0 0-2.5-2.5zM2.143 5.714c0-1.183.959-2.143 2.142-2.143h7.858c1.183 0 2.142.96 2.142 2.143v12.143c0 1.184-.959 2.143-2.142 2.143H4.285a2.143 2.143 0 0 1-2.142-2.143zm2.32 1.429c0-.493.4-.893.893-.893h5.715a.893.893 0 1 1 0 1.786H5.356a.893.893 0 0 1-.892-.893m.894 2.678a.893.893 0 0 0 0 1.786h5.714a.893.893 0 1 0 0-1.786zm-.894 4.465c0-.493.4-.893.893-.893h2.857a.893.893 0 1 1 0 1.786H5.356a.893.893 0 0 1-.893-.893" clip-rule="evenodd"/></svg>