<svg xmlns="http://www.w3.org/2000/svg" fill="none" viewBox="-2 -2 24 24"><g clip-path="url(#a)"><path fill="#e31e24" fill-rule="evenodd" d="M18.377.81a1.07 1.07 0 0 1-.532 1.418l-1.063.483 2.95 6.866c.057.134.087.278.087.423a4.436 4.436 0 1 1-8.872 0c0-.145.03-.289.087-.423l2.27-5.285-2.84 1.291-.043.02-4.427 2.012 2.98 7.367c.052.127.078.264.078.401a4.436 4.436 0 1 1-8.871 0c0-.137.026-.274.078-.401l2.399-5.93a1.072 1.072 0 0 1-.503-2.046l6.773-3.079V1.253a1.071 1.071 0 0 1 2.143 0v1.7l3.806-1.73q.06-.032.127-.057l1.954-.889a1.07 1.07 0 0 1 1.419.532m-.986 8.747-2.008-4.674-2.008 4.674zm-12.774.367-2.007 4.96h4.013z" clip-rule="evenodd"/></g><defs><clipPath id="a"><path fill="#fff" d="M0 0h20v20H0z"/></clipPath></defs></svg>