<svg xmlns="http://www.w3.org/2000/svg" fill="none" viewBox="-4 0 24 14"><path fill="#e31e24" fill-rule="evenodd" d="M8 0c2.622 0 4.806 2.185 4.806 4.806 0 .856-.294 1.7-.705 2.464-.413.767-.959 1.484-1.501 2.094a16 16 0 0 1-1.521 1.49c-.214.181-.401.328-.546.432a3 3 0 0 1-.195.132 1 1 0 0 1-.174.082.54.54 0 0 1-.405-.03 1 1 0 0 1-.098-.054 3 3 0 0 1-.196-.132 9 9 0 0 1-.545-.436A16 16 0 0 1 5.4 9.352c-.542-.611-1.088-1.329-1.5-2.094-.411-.763-.706-1.603-.706-2.452C3.194 2.185 5.379 0 8 0m0 6.241a1.435 1.435 0 1 1 0-2.87 1.435 1.435 0 0 1 0 2.87m3.1 3.916q.276-.312.55-.65h1.343c.2 0 .38.119.46.303l1.497 3.495a.5.5 0 0 1-.46.696H1.51a.5.5 0 0 1-.46-.696L2.548 9.81a.5.5 0 0 1 .46-.303h1.355q.266.33.537.636c.662.746 1.33 1.376 1.85 1.82.26.223.488.403.661.529q.13.094.232.156.049.031.11.06.03.015.08.032a.55.55 0 0 0 .413-.031q.06-.029.11-.06.102-.061.232-.155c.173-.125.4-.303.66-.524.52-.442 1.19-1.069 1.851-1.813" clip-rule="evenodd"/></svg>