<svg xmlns="http://www.w3.org/2000/svg" fill="none" viewBox="-3 -3 24 24"><g clip-path="url(#a)"><path fill="#e31e24" fill-rule="evenodd" d="M10.286 3.857a3.857 3.857 0 1 1-7.715 0 3.857 3.857 0 0 1 7.715 0M7.78 16.071H.643A.643.643 0 0 1 0 15.43a6.429 6.429 0 0 1 12.503-2.11l-.098.143-.772-.52a2.571 2.571 0 0 0-3.853 3.13m10.027-4.243a.964.964 0 0 0-1.543-1.156l-3.433 5.014-2.121-1.428a.964.964 0 1 0-1.157 1.544l2.893 2.006a.963.963 0 0 0 1.35-.194z" clip-rule="evenodd"/></g><defs><clipPath id="a"><path fill="#fff" d="M0 0h18v18H0z"/></clipPath></defs></svg>