<svg xmlns="http://www.w3.org/2000/svg" fill="none" viewBox="0 0 32 32"><mask id="a" width="32" height="32" x="0" y="0" maskUnits="userSpaceOnUse" style="mask-type:alpha"><path fill="#d9d9d9" d="M0 0h32v32H0z"/></mask><g mask="url(#a)"><path fill="#e31e24" d="M7.23 98.642c2.23-.008 3.633.089 4.49.314.683.18 1.754.584 2.38.902.623.316 1.6 1.023 3.206 2.559l-.01-1.46c-.006-1.248.058-1.491.428-1.677.238-.119 1.114-.216 1.946-.216 1.163 0 1.594.088 1.86.378.268.292.329.706.262 1.785-.048.774-.132 1.553-.186 1.731-.071.238.107.344.66.398.416.039.883.186 1.037.324.214.193.278 1.483.274 5.551-.004 3.863-.078 5.374-.27 5.571-.146.149-.585.271-.976.271-.393 0-.774.123-.846.27-.07.15-.021.368.113.487.145.13.24.978.236 4.002l-.812.348c-.51.221-1.22.32-1.912.271-.603-.041-1.266-.223-1.47-.403-.255-.222-.367-.643-.36-1.352.006-.563-.04-1.025-.097-1.027-.061 0-.427.3-.812.666a11 11 0 0 1-1.568 1.179c-.476.286-1.45.716-2.163.958-1.078.364-1.911.446-4.869.474-3.002.028-3.76-.033-4.763-.379-.658-.225-1.765-.751-2.464-1.168-.699-.415-1.722-1.292-2.275-1.947-.554-.654-1.368-1.918-1.807-2.812-.506-1.027-.892-2.215-1.054-3.245-.192-1.244-.193-2.025.004-3.353a12 12 0 0 1 1.032-3.354A11.7 11.7 0 0 1-1.56 101.8c.671-.696 1.657-1.52 2.194-1.83.534-.31 1.507-.734 2.163-.94.898-.282 1.984-.377 4.434-.388m-.653.878c-2.18.02-3.056.1-3.352.19-.299.091-1.078.44-1.73.773-.656.335-1.702 1.127-2.327 1.763-.686.698-1.434 1.778-1.889 2.723a11.3 11.3 0 0 0-.98 3.192c-.125.893-.166 2.061-.095 2.595.071.537.316 1.558.541 2.272s.783 1.882 1.24 2.596c.458.713 1.312 1.726 1.899 2.248.588.521 1.555 1.166 2.15 1.432a13.5 13.5 0 0 0 2.218.727c.625.134 1.378.244 1.677.244.296 0 .538-.071.534-.162-.003-.089-.416-.355-.92-.591-.5-.234-1.496-.98-2.21-1.652-.714-.675-1.612-1.749-1.997-2.387-.383-.636-.896-1.936-1.138-2.888s-.438-2.265-.435-2.921c.004-.653.156-1.821.34-2.595.183-.773.644-1.986 1.025-2.698.378-.709 1.179-1.78 1.778-2.379.6-.598 1.67-1.403 2.38-1.786zm1.515.43c-.238-.001-1.115.328-1.948.732a9.3 9.3 0 0 0-2.615 1.888c-.605.636-1.35 1.642-1.652 2.237-.303.595-.71 1.618-.902 2.272-.193.655-.351 1.823-.35 2.595 0 .775.149 1.967.328 2.651.177.685.56 1.707.848 2.271.287.567 1.04 1.6 1.676 2.296a8.4 8.4 0 0 0 2.667 2.005c.833.407 1.686.738 1.894.735s.939-.266 1.622-.586c.74-.344 1.78-1.111 2.564-1.892.726-.723 1.577-1.824 1.893-2.449.316-.623.664-1.55.776-2.056.113-.504.258-1.38.325-1.946.108-.922.071-1.046-.366-1.212-.337-.13-.58-.511-.792-1.244-.188-.658-.264-1.595-.199-2.466.095-1.27.05-1.478-.466-2.163-.314-.416-.966-1.097-1.446-1.515-.48-.415-1.447-1.07-2.148-1.451-.703-.383-1.471-.699-1.71-.701m8.071 15.241c-.986-.698-1.004-.683-1.743.621-.459.813-1.245 1.742-2.025 2.398-.7.587-1.34 1.123-1.421 1.189-.083.065.357.087.973.048.617-.037 1.413-.176 1.77-.306s1.081-.586 1.611-1.012c.528-.426 1.232-1.213 1.563-1.748.328-.536.538-1.071.466-1.19-.073-.123-.211-.051-.317.163-.13.266-.442.378-1.052.378-.475 0-.864-.097-.865-.216 0-.119.233-.24.519-.27zm1.773 2.488c0 .714.096 1.346.215 1.406.132.065.217-.361.217-1.082 0-.654.097-1.188.216-1.189.119 0 .24.496.27 1.099l.055 1.101 2.272.18v-2.813h-3.245zm-3.19.027c.089-.02.162.108.162.288 0 .239-.254.324-.973.324-.536 0-.972-.097-.974-.216 0-.119.366-.249.811-.288s.884-.089.974-.108m.837-.866c.073-.019.114.085.09.234-.024.155-.424.295-.944.325-.494.03-.9-.044-.902-.162 0-.119.365-.249.81-.288s.87-.089.946-.109m-.134-.685c.534 0 .974.098.974.217-.002.118-.44.215-.974.215-.535 0-.971-.097-.973-.215 0-.119.437-.217.973-.217m4.109-1.071c-.913 0-1.19.075-1.19.324 0 .253.244.311 1.118.27.674-.032 1.146-.162 1.19-.324.051-.192-.273-.27-1.118-.27m3.136-10.818c-3.938.035-5.423.128-5.84.232-.416.101-.831.264-.922.357-.09.094-.005.606.192 1.142.234.638.366 1.718.38 3.137.018 1.575-.08 2.458-.36 3.245-.212.595-.334 1.253-.271 1.46.078.26.336.379.818.379h.704c-.09-7.824-.03-9.519.108-9.519.138.004.216 1.735.216 4.76v4.759h4.975zm-7.77 1.225c-.078-.1-.213-.076-.297.053-.084.13-.097.7-.027 1.264s.163 1.173.207 1.353c.043.177.279.397.523.486.361.132.442.074.444-.324.003-.269-.158-.974-.353-1.569-.197-.594-.42-1.164-.497-1.263m-3.803-5.104.649.466c.356.258 1.072.91 1.59 1.453.519.543 1.086 1.279 1.26 1.636l.317.649c.677-.789 1.08-.973 1.484-.973.357 0 .65-.098.65-.217-.002-.12-.562-.699-1.245-1.287-1.237-1.067-1.248-1.071-2.382-.919-.847.112-1.137.082-1.136-.119.003-.165.299-.271.76-.271.432 0 .712-.093.649-.217-.06-.118-.67-.212-1.353-.21zm8.378 2.408c-.88-.051-1.11.003-1.12.271-.009.264.245.335 1.205.335.878 0 1.187-.076 1.118-.271-.057-.155-.567-.298-1.203-.335m-4.09-.018c.378.024.786.095.905.162.12.067-.222.184-.756.26-.536.075-.997.101-1.029.055-.03-.043.001-.177.068-.297.067-.122.433-.202.811-.18m2.753-2.911c-.23.08-.303.424-.27 1.283.032.878.123 1.17.368 1.17.25 0 .324-.288.324-1.298 0-.711-.024-1.285-.054-1.28zm.855 2.453 1.947-.108v-2.38l-1.93-.125zm-4.76-.619c.52.039.973.189 1.013.339.045.172-.18.275-.632.279-.387.006-.842-.148-1.013-.338-.28-.315-.22-.341.632-.28m-42.83-49.677c.535.06 1.355.327 1.82.59.465.265 1.146.854 1.514 1.31.66.822.668.863.733 3.677.046 2-.017 3.035-.216 3.477-.155.344-.647.952-1.092 1.352-.448.398-.959.723-1.136.723-.18 0-.366.073-.418.162-.05.092.098.844.327 1.677.23.832.415 1.684.415 1.892 0 .21-.441 1.037-.98 1.84-.876 1.304-1.24 1.62-5.834 4.443l-1.19-.236c-1.03-.205-1.253-.188-1.64.13-.246.203-.956.952-1.575 1.666-.618.714-1.122 1.37-1.118 1.46.002.09-.141.162-.318.162-.18 0-.324.098-.325.217 0 .12-.513.757-1.135 1.414-1.073 1.13-1.195 1.197-2.164 1.19-.567-.004-1.346-.143-1.73-.307-.388-.165-1.065-.675-1.502-1.136-.439-.46-.903-1.103-1.028-1.431a4.1 4.1 0 0 1-.229-1.245c0-.48.426-1.19 1.663-2.758.916-1.16 1.98-2.45 2.368-2.867.475-.51.737-1.036.806-1.622.078-.664-.045-1.153-1.159-3.353l.582-.812c.32-.446 1.17-1.54 1.888-2.433.72-.892 1.554-2.11 2.397-3.786l1.298-.108c1.19-.097 1.302-.152 1.359-.65.034-.296.199-.93.368-1.406.235-.657.504-.952 1.129-1.235.452-.206 1.795-.763 2.985-1.241 1.77-.712 2.34-.849 3.138-.756m-56.287-.266c1.243-1.17 1.352-1.16 2.204-1.057.535.065 2.036.435 5.693 1.527l.935 1.298c.512.714 1.566 2.297 3.756 5.732l-1.102 2.76c-.603 1.516-1.163 2.853-1.243 2.974-.078.119-3.211 3.256-13.773 13.724l-1.082.008c-.595.005-1.86-.104-2.811-.242-1.729-.249-1.733-.25-3.206-1.676a43 43 0 0 1-2.705-2.926c-1.025-1.247-1.233-1.643-1.254-2.379-.013-.486-.094-1.808-.33-4.995l6.235-6.207c3.429-3.416 7.062-6.999 8.074-7.964zm249.88-1.153c.486 0 .828.184 1.217.65.297.356.662 1.042.812 1.52.147.478.368.872.487.874s.361-.15.54-.34c.178-.188.617-.34.974-.339.519.005.981.34 2.315 1.687 1.175 1.183 1.668 1.842 1.672 2.223.002.298-.188.76-.424 1.027-.233.268-.379.584-.318.703.058.119.472.327.92.46.445.135.993.394 1.216.576.272.223.397.584.378 1.107-.026.725-.616 1.368-8.519 9.271-5.495 5.495-8.64 8.489-8.922 8.491-.238.002-.654-.145-.92-.325-.268-.18-.633-.619-.81-.976-.18-.356-.325-.842-.326-1.08 0-.238-.097-.48-.215-.542-.119-.058-.485.135-.812.431-.329.294-.839.536-1.136.538-.391.002-1.038-.493-2.328-1.78-1.276-1.274-1.786-1.938-1.791-2.325-.002-.297.24-.784.536-1.082.299-.297.496-.613.44-.704-.057-.088-.541-.356-1.075-.594-.537-.238-1.144-.686-1.352-.995-.29-.433-.329-.682-.162-1.065.121-.276 3.977-4.304 8.57-8.954 7.452-7.538 8.431-8.457 9.033-8.457m-43.131-1.834c.504-.188 1.179-.273 1.623-.201a5.1 5.1 0 0 1 1.406.488c.357.204.867.805 1.136 1.337.27.532.486 1.31.484 1.725-.002.417-.223 1.183-.489 1.705-.266.52-.774 1.127-1.131 1.346-.357.218-1.064.401-1.568.404-.842.006-1.02.114-2.056 1.248-.625.683-1.818 1.952-2.65 2.82-1.281 1.331-1.625 1.575-2.92 1.563v5.408c0 4.376-.064 5.534-.326 6.057-.179.357-.642.833-1.027 1.056a8.7 8.7 0 0 1-1.46.643c-.601.188-.792.383-.924.945-.091.392-.162 1.125-.162 1.629.002.846-.057.948-.753 1.244-.417.18-1.001.324-1.298.324s-.883-.144-2.055-.648v-3.245l-.812-.123c-.448-.07-1.226-.362-1.73-.65-.506-.287-1.06-.791-1.229-1.12-.251-.482-.313-2.17-.335-8.925-.021-7.181.021-8.393.309-8.815.184-.266.846-.73 1.472-1.026.623-.296 1.816-.646 2.649-.778a9.5 9.5 0 0 1 2.921-.035c.772.115 1.964.466 2.65.78.736.339 1.397.823 1.622 1.187.223.363.511.573.703.516.178-.054 1.031-.793 1.896-1.641 1.168-1.149 1.602-1.737 1.704-2.302.074-.415.258-1 .409-1.298.15-.296.452-.71.673-.918.221-.207.792-.52 1.268-.7M-45.414 73.546c-.1 0-.411.226-.69.502-.323.314-.496.717-.47 1.082.021.318.186.872.366 1.229.177.357.64.891 1.027 1.186s1.07.635 1.515.756c.558.154.994.152 1.405-.006.472-.181.528-.266.27-.409-.179-.1-.25-.288-.161-.422.088-.131.357-.24.594-.24.238 0 .48-.097.541-.216.059-.118-.136-.216-.432-.216-.299 0-.906-.182-1.352-.405-.445-.223-1.11-.733-1.475-1.136-.364-.402-.73-.949-.812-1.217-.08-.266-.229-.487-.326-.488m-93.706-20.534c.653-.01 1.302.052 1.44.139.141.087.383.618.541 1.182.197.7.427 1.059.723 1.132.238.06.577.115.757.121.177.007.591-.38.92-.86.534-.788.664-.864 1.298-.76.385.065 1.385.448 2.217.853.863.42 1.956 1.181 3.58 2.816l-.835 1.948.465.579c.407.504.55.552 1.116.377.357-.108.916-.2 1.245-.2.471 0 .703.191 1.125.92.292.507.684 1.359.872 1.893.188.536.434 1.534.55 2.218.199 1.187.176 1.313-.546 2.757-.63 1.26-.718 1.6-.524 2.002.204.423.03.82-1.352 3.063-.872 1.416-1.733 2.623-1.911 2.685-.179.06-.958.526-1.73 1.034-1.317.865-1.517.93-4.844 1.06l-.445-.822c-.402-.742-.544-.831-1.472-.92-.96-.09-1.053-.051-1.406.557-.225.382-.558.648-.811.648-.237-.002-1.043-.296-1.785-.653-.744-.357-1.426-.794-1.514-.976-.091-.18-.091-.374 0-.432.089-.056.794.186 1.568.543.772.356 1.504.601 1.623.54.119-.059.619-.814 1.112-1.676.491-.861 1.028-1.738 1.19-1.947.266-.342.164-.442-1.058-1.054a35 35 0 0 1-2.759-1.588c-.774-.502-1.724-1.217-2.812-2.28l-.8 1.244a41 41 0 0 1-1.406 2.055c-.333.448-.558.909-.498 1.028.058.119.79.753 1.623 1.406.832.655 1.48 1.312 1.44 1.46-.039.15-.21.298-.379.333-.169.034-1.066-.647-1.996-1.514s-1.647-1.675-1.591-1.794c.056-.12-.077-.75-.297-1.406-.359-1.062-.496-1.222-1.282-1.513-.484-.178-.979-.47-1.098-.65-.128-.184-.197-1.385-.162-2.812.03-1.367-.011-2.585-.093-2.705-.082-.119.44-1.384 1.163-2.812.722-1.428 1.424-2.721 1.56-2.875.135-.153.466-.275.734-.27.378.006.623-.265 1.111-1.236.346-.683.955-1.48 1.353-1.77.4-.29 1.214-.644 1.808-.786s1.616-.27 2.272-.282m41.91 12.323c-.033.006-.421.321-.865.703l-.81.694c.332 3.52.379 4.69.319 4.868-.068.2.63 1.16 1.808 2.487 1.056 1.19 2.153 2.375 2.439 2.635.337.307 1.155.597 2.355.835 1.034.208 2.17.308 2.597.23.415-.076.882-.258 1.036-.405.153-.145.277-.484.27-.753-.004-.266.225-1.142.513-1.947l.52-1.46c-2.354-3.184-3.32-4.62-3.661-5.246-.344-.622-.699-1.09-.788-1.034-.088.054-1.404-.287-2.92-.757-1.514-.47-2.778-.853-2.813-.85M165.322 51.53c-.389-.25-1.119.428-8.789 8.167-5.449 5.498-8.345 8.573-8.311 8.82.03.217.538.608 1.189.92.625.295 1.232.685 1.35.864.117.178.214.447.215.596.001.147-.235.537-.527.865l-.527.595 3.394 3.46c.839-.992 1.225-1.197 1.612-1.195.372.004.716.188.922.493.179.266.324.753.324 1.082-.002.344.203.779.484 1.032.268.24.584.436.703.439.123-.002 3.945-3.773 8.496-8.387 7.596-7.7 8.26-8.432 8.059-8.877-.134-.296-.414-.486-.708-.488-.268 0-.802-.195-1.189-.433-.513-.314-.706-.593-.71-1.025-.005-.33.19-.79.43-1.029l.437-.432c-3.344-3.346-3.351-3.351-3.781-2.925-.238.236-.628.428-.866.428s-.549-.069-.694-.158c-.143-.086-.448-.694-.675-1.347-.227-.656-.604-1.314-.838-1.465m-56.468 24.745c-.432-.154-.478-.106-.432.438.034.43.208.67.591.808.296.106.906.132 1.351.059.727-.124.812-.207.812-.788 0-.573-.056-.632-.487-.498a3.7 3.7 0 0 1-.919.152c-.238 0-.652-.076-.916-.171M21.401 51.909c.179-.004.836.137 1.46.318.736.212 1.488.65 2.144 1.244.554.507 1.285 1.359 1.625 1.893.504.796.617 1.211.612 2.271-.002.872-.128 1.484-.38 1.859-.209.307-4.077 4.374-8.598 9.038-6.269 6.465-8.402 8.536-8.978 8.719-.417.13-1.147.192-1.623.138-.476-.056-1.34-.335-1.918-.623-.58-.29-1.402-.916-1.826-1.392s-.946-1.254-1.16-1.73c-.212-.476-.39-1.279-.392-1.785-.002-.504.102-1.185.23-1.514.13-.327 2.249-2.681 4.706-5.231 2.46-2.55 6.223-6.417 8.365-8.591 2.278-2.31 4.208-4.086 4.651-4.276.416-.18.903-.332 1.082-.338M-131.77 70.95c-.062.012-.682 1.06-1.378 2.334l-1.271 2.317c.627 1.092.858 1.408.919 1.408.059-.003.613-.806 1.228-1.787.617-.982 1.189-1.98 1.271-2.218.09-.261-.012-.755-.256-1.25-.222-.449-.454-.81-.513-.804m6.071.666c-.069.01-.609.31-1.202.669-.753.452-1.446.676-2.272.739-.655.047-1.259.16-1.342.25-.082.09-.642.968-1.244 1.948l-1.092 1.785c1.748 0 2.268-.197 3.516-.967 1.36-.842 1.711-1.197 2.663-2.704.601-.956 1.037-1.728.973-1.72m186.58-21.54c.57-.219 1.347-.305 2.272-.251.773.045 2.088.307 2.921.586.833.277 2.341 1.054 3.354 1.724 1.01.673 2.4 1.843 3.089 2.605.705.776 1.66 2.184 2.185 3.218.513 1.013 1.005 2.326 1.092 2.921.09.632.06 1.467-.075 2.001-.13.507-.708 1.53-1.285 2.272-.6.774-1.412 1.534-1.894 1.776-.528.266-1.41.45-3.87.567l-1.73 1.992a474 474 0 0 0-3.787 4.433c-1.13 1.339-2.299 2.524-2.595 2.63-.299.106-.86.251-1.245.32-.387.07-1.262.022-1.946-.108-.686-.13-1.825-.542-2.534-.919-.707-.376-1.808-1.22-2.446-1.876-.636-.653-1.415-1.724-1.729-2.38-.316-.653-.614-1.626-.666-2.163-.05-.534-.03-1.336.045-1.784.106-.632.673-1.42 2.57-3.57 1.337-1.517 2.988-3.44 3.667-4.273 1.222-1.496 1.234-1.523 1.004-2.38-.125-.475-.194-1.405-.151-2.067.065-1.004.244-1.455 1.081-2.705.553-.824 1.185-1.664 1.406-1.868.22-.201.792-.517 1.268-.701M19.676 54.43c-.132-.599-.265-.486-4.347 3.69a1855 1855 0 0 0-8.05 8.297c-3.361 3.494-3.857 4.1-3.976 4.857-.08.508-.017 1.222.15 1.73.155.476.63 1.243 1.055 1.704s1.233 1.068 1.798 1.351c.564.284 1.296.516 1.623.518.489.004 1.38-.794 5.029-4.49 2.438-2.47 5.97-6.075 7.843-8.006 1.873-1.934 3.455-3.515 3.515-3.515.058 0 .043.122-.035.27-.08.147.12.026.438-.27.32-.298.578-.614.577-.703-.005-.091-.42-.258-.926-.372-.53-.121-1.445-.626-2.163-1.19-.826-.652-1.436-1.361-1.82-2.116-.317-.625-.638-1.415-.711-1.755M-74.13 61.08c-.015-.032-2.755 2.686-6.092 6.04-5.946 5.981-6.077 6.13-6.529 7.508-.25.775-.458 1.48-.456 1.569 0 .09 2.702-2.538 5.999-5.841l5.999-6.004c.852-2.481 1.09-3.234 1.079-3.272m29.826 10.953a.73.73 0 0 0-.391.144c-.1.08-.164.373-.145.65s.173.772.34 1.098c.169.329.532.803.81 1.058.28.253.825.619 1.212.811.388.193.996.35 1.353.35s.793-.049.973-.11c.177-.058.324-.205.325-.324 0-.118-.245-.216-.541-.216-.299 0-.907-.184-1.353-.41s-1.086-.685-1.419-1.027c-.333-.34-.685-.934-.778-1.321-.095-.385-.269-.703-.386-.703m154.073 2.811c-1.356 0-1.407.02-1.407.541 0 .44.133.567.703.675.388.072.996.041 1.353-.071.426-.134.666-.366.703-.675.05-.439-.038-.47-1.352-.47M57.893 59.271c-.076 0-.24.195-.362.433-.123.238-.188.553-.145.703s-.004.44-.108.648c-.117.24-.106.34.03.27.12-.06.216-.01.216.11 0 .118-.147.215-.324.215-.18 0-.322.074-.318.163 0 .09-.485.724-1.081 1.406-.699.798-1.137 1.146-1.221.973-.07-.15.157-.562.509-.919.35-.357.97-1.112 1.374-1.677.404-.564.663-1.074.575-1.135-.089-.059-.478.305-.865.81-.388.501-1.751 2.108-3.03 3.568-2.32 2.646-2.325 2.655-2.33 3.788-.004.827.17 1.489.635 2.434.364.74 1.134 1.772 1.79 2.4.631.605 1.66 1.36 2.285 1.676s1.599.68 2.163.807c.708.158 1.297.162 1.894.01.764-.194 1.22-.647 3.892-3.855 1.665-1.999 3.32-3.898 3.677-4.223.491-.443.571-.61.328-.68-.18-.049-.812-.259-1.407-.464s-1.763-.791-2.596-1.302c-.833-.51-2.11-1.547-2.834-2.3-.725-.755-1.61-1.932-1.962-2.616-.355-.682-.707-1.242-.785-1.243m-152.56 8.855c.239-.002.92.234 1.516.524.594.288 1.414.897 1.82 1.353.408.457.919 1.219 1.133 1.695s.393 1.231.395 1.677c.004.633-.149.962-.698 1.499-.612.596-.816.672-1.568.582-.476-.059-1.305-.356-1.84-.66-.572-.327-1.311-1.035-1.791-1.718-.586-.83-.832-1.424-.87-2.07-.025-.498-.023-1.155.01-1.46.036-.357.306-.708.758-.987.387-.236.898-.432 1.136-.435m-39.577 2.467c-.242-.11-.289.01-.216.541.074.526-.13 1.055-.879 2.305-.535.892-.972 1.717-.974 1.838 0 .119.261.193.579.163.477-.043.794-.41 1.823-2.11.686-1.129 1.253-2.176 1.262-2.326.008-.16-.252-.27-.634-.27-.357 0-.79-.063-.961-.14m90.4.726c-.09.076-.152.39-.136.696.017.307.325.974.686 1.478.446.625.95 1.027 1.574 1.257.506.186 1.3.307 1.768.27s.88-.189.92-.338c.038-.15-.048-.213-.2-.142-.149.069-.612.023-1.027-.102-.417-.125-1.147-.502-1.623-.84s-1.074-1.018-1.332-1.515c-.255-.495-.54-.84-.63-.764m-51.32-2.325c-.094 0-.31.117-.476.26s-.285.508-.263.81.151.894.29 1.31c.136.415.55 1.081.92 1.48.373.395.968.922 1.325 1.169.614.424.606.403-.134-.397a12.3 12.3 0 0 1-1.348-1.82c-.309-.536-.566-1.094-.569-1.244-.002-.149.07-.272.158-.272.089-.002.277.313.417.703.141.387.628 1.081 1.082 1.54.454.458 1.142.969 1.53 1.135.386.165.897.301 1.135.301.24 0 .432-.145.433-.324 0-.18-.17-.326-.378-.331-.337-.006-.333-.044.054-.342.43-.333.428-.338-.068-.697a33 33 0 0 1-1.08-.828c-.32-.26-.534-.528-.474-.6.059-.07.377.068.703.308.326.237.593.36.594.272-.002-.089-.251-.454-.556-.811-.348-.411-.586-.549-.647-.378-.052.149-.192.27-.311.27-.12 0-.314-.293-.433-.65-.14-.423-.362-.648-.638-.648-.348 0-.398.105-.288.595.121.547.104.569-.24.27-.205-.179-.415-.495-.47-.702-.051-.208-.172-.379-.267-.38m53.003.57c-.12-.064-.39.058-.604.274-.212.215-.364.626-.339.913s.262.858.526 1.264c.264.405.967 1.012 1.561 1.35.595.335 1.422.616 1.84.623.423.006.9-.14 1.081-.333.292-.31.25-.344-.432-.342-.418 0-1.1-.186-1.515-.415-.418-.227-.709-.418-.648-.42s.596.14 1.189.318c.595.178 1.323.317 1.622.309q.543-.013-.865-.54c-.928-.348-1.72-.842-2.33-1.45-.506-.506-.91-1.036-.896-1.179a.41.41 0 0 0-.19-.372m146.581-3.483c.056 4.17.158 5.968.35 6.278.148.238.749.673 1.337.965.831.415 1.496.552 3.014.619 1.337.058 2.319-.022 3.137-.254.683-.193 1.488-.617 1.892-.995l.703-.66c0-9.014-.023-11.661-.053-11.688-.03-.002-.591.235-1.244.53-.656.294-1.824.636-2.596.76a8.9 8.9 0 0 1-2.813.006c-.774-.119-1.947-.483-2.607-.81l-1.2-.594zm62.447-9.86c.247-.004.872.362 1.385.812.716.625.919.947.865 1.36-.048.374-.219.558-.556.595-.269.03-.593.273-.72.54-.169.351-.169.548.002.704.132.119.237.387.235.595s-.394.67-.869 1.027-.938.646-1.027.643-.311-.147-.488-.32c-.285-.279-.434-.208-1.25.599-.806.798-.926 1.036-.92 1.837.005.746-.118 1.04-.659 1.568-.545.532-.846.65-1.673.65-.925 0-1.084.084-1.949 1.027-.936 1.023-.941 1.032-.653 1.839.27.757.257.846-.203 1.298-.383.38-.741.486-1.623.486-1.059 0-1.129.033-1.129.541 0 .298-.074.662-.162.811s-.334.27-.541.27c-.208-.004-.842-.538-1.407-1.191-.927-1.073-.994-1.22-.687-1.512.188-.18.479-.324.648-.324.171 0 .408-.195.527-.433.151-.303.135-.593-.055-.97-.234-.462-.212-.597.162-.99.238-.252.773-.656 1.191-.9.642-.377.839-.403 1.297-.18.498.242.604.192 1.352-.621.664-.722.788-.991.676-1.478q-.136-.595.27-1.297c.223-.385.699-.861 1.056-1.056s.916-.316 1.243-.27c.461.064.79-.111 1.478-.784.811-.791.863-.91.629-1.406-.142-.296-.199-.76-.127-1.027.071-.269.372-.632.67-.812.394-.236.661-.266.974-.108a.92.92 0 0 0 .865 0 .72.72 0 0 0 .397-.606v-.322c.014-.203.07-.383.144-.442.1-.08.384-.148.632-.153m.517.63c-.29-.16-.37-.113-.379.236-.007.242-.329.694-.716 1.003-.486.39-.87.528-1.244.45a1.03 1.03 0 0 0-.915.249c-.357.341-.357.392 0 .934.37.565.363.587-.383 1.491-.417.506-1.002 1.092-1.298 1.302-.378.266-.656.323-.92.185-.223-.115-.58-.118-.865-.005-.268.104-.681.403-.919.662-.341.374-.403.64-.286 1.27.136.75.076.868-1.081 2.053-1.163 1.192-1.281 1.257-2.202 1.216-.534-.024-1.095-.03-1.244-.014-.188.02-.234.276-.148.84.084.554.016.965-.216 1.298-.186.268-.608.587-.934.71l-.595.22c1.169 1.168 1.586 1.509 1.676 1.509.088-.003.16-.224.156-.492s.167-.651.379-.85c.225-.214.83-.394 1.466-.433.813-.052 1.07-.15 1.034-.394-.026-.179-.108-.616-.184-.973-.121-.584.001-.781 1.238-1.983 1.267-1.233 1.432-1.328 2.131-1.218.664.104.833.027 1.374-.61.512-.61.59-.858.475-1.489-.127-.686-.046-.853.849-1.785.744-.776 1.144-1.027 1.633-1.027.354 0 .691.097.753.215.06.12.181.214.27.21s.381-.199.649-.432c.415-.366.448-.487.216-.853-.196-.309-.21-.586-.048-1.027.139-.374.464-.679.867-.809.351-.114.687-.235.75-.27.06-.037-.137-.316-.433-.625-.298-.307-.705-.651-.906-.764m-305.539-2.883c-1.843-.069-2.817.046-3.352.21-.536.162-1.093.45-1.243.638-.225.283-.161.488.378 1.208l.649.865c-.92 1.496-1.287 1.937-1.406 1.944s-.727-.21-1.352-.48c-.624-.27-1.177-.442-1.231-.383-.052.059-.709 1.228-1.46 2.597l-1.365 2.487c.084 3.27.182 4.215.27 4.208.091-.01.717-.909 1.393-2 1.112-1.798 1.218-2.071 1.082-2.806-.091-.5-.065-.817.067-.819.12 0 .388.39.595.87.355.816.439.872 1.298.894.506.01 1.135.084 1.399.162.279.08.806.684 1.251 1.438.424.713.767 1.368.764 1.46-.004.09-.373.316-.818.504l-.811.342a17.4 17.4 0 0 0 2.704 2.229c.772.51 1.796 1.123 2.272 1.361.475.236 1.083.49 1.351.566.446.124.488.063.488-.73 0-.475.073-.898.162-.942.089-.04.985.03 1.988.163l1.825.24.892 2.083c1.949-.216 2.868-.535 3.731-1.013.744-.41 1.353-.844 1.353-.963-.002-.12-.488-.558-1.082-.973-.595-.418-1.086-.83-1.09-.92-.007-.09.14-.308.326-.486.186-.18.385-.69.441-1.135l.107-.812 2.656.324c-.253-1.845-.608-2.99-.952-3.731-.417-.908-.748-1.352-1.001-1.353-.208.002-.768.105-1.244.228l-.865.227-2.004-2.294c.964-1.09 1.246-1.456 1.246-1.514-.003-.063-.367-.458-.811-.88-.445-.426-1.395-1.052-2.109-1.394-.714-.34-1.48-.648-1.703-.687-.236-.039-.593.173-.865.516-.379.48-.414.646-.191.92.216.269.216.357 0 .448-.149.062-.709-.035-1.243-.221-.536-.184-1.168-.33-1.406-.328-.338.004-.505-.245-.758-1.132zm100.47 13.828c-.235-.067-.599.286-1.135 1.095-.435.657-.79 1.244-.79 1.303.003.061.757.39 1.676.733.922.342 2.238.78 2.921.973.684.192 1.268.353 1.298.357.032.004.332-.41.671-.92.34-.51 1.02-1.289 1.514-1.73l.898-.803c-2.278.011-2.343.037-1.947.32.237.169.358.381.268.472-.088.091-.82-.145-1.623-.521-.802-.379-1.897-.798-2.431-.932a57 57 0 0 1-1.32-.347m-2.737 2.934c-.03.003-.053.054-.054.112 0 .06.414.343.92.628.506.288 1.259.582 1.676.657.556.1.325-.067-.865-.633-.892-.421-1.644-.765-1.677-.764m-36.67-17.077c-.051.026-3.085 2.976-6.76 6.572l-6.708 6.564c1.31 1.968 2.129 3.124 2.665 3.837a66 66 0 0 0 1.16 1.514c.117.134 2.698-2.304 6.758-6.382l6.573-6.597a70 70 0 0 0-2.468-3.84c-.641-.922-1.189-1.67-1.22-1.668M64.682 67.799c.108.06.13.234.047.383-.085.15-.742.981-1.46 1.848-.72.867-1.383 1.55-1.471 1.514-.089-.034-.158-.16-.152-.279s.648-.974 1.424-1.897c.776-.925 1.5-1.63 1.612-1.569m1.146.33c.162 0-.35.778-1.138 1.728-.786.95-1.454 1.68-1.486 1.622-.028-.06.484-.837 1.138-1.728.652-.89 1.323-1.62 1.486-1.623m-94.045-.088c-.041-.053-.763.336-1.605.865-.844.53-1.787 1.278-2.094 1.666-.307.386-.558.775-.559.865 0 .09.742-.298 1.647-.865.904-.565 1.878-1.343 2.164-1.73.285-.386.486-.747.447-.801m91.344-.103c.24-.512.406-.662.56-.498.15.162.026.492-.407 1.059a26 26 0 0 1-1.514 1.74c-.489.508-.96.92-1.05.92-.087-.002.341-.564.955-1.246.612-.684 1.267-1.572 1.456-1.975m-.69-1.107c.153 0 .326.073.382.162.053.09-.247.504-.666.919-.422.415-1.101 1.22-1.508 1.785-.406.564-.886 1.027-1.064 1.027s-.324-.048-.325-.108c.002-.061.536-.741 1.19-1.514.653-.774 1.306-1.6 1.45-1.839.142-.238.385-.432.54-.432m-204.591-1.936c-.061.01-.901 1.208-1.868 2.66-1.267 1.905-1.704 2.73-1.568 2.963.119.203.251.244.353.108.091-.12.723-1.067 1.406-2.109.683-1.04 1.365-1.893 1.515-1.895s.415-.091.594-.2c.288-.172.288-.27 0-.869-.179-.371-.374-.668-.432-.658m203.619 1.286c.095 0 .173.074.178.162 0 .09-.254.408-.572.703-.316.3-1.047 1.102-1.627 1.786-.579.682-1.103 1.145-1.162 1.027-.06-.12.11-.485.373-.812.267-.326.967-1.105 1.562-1.73.591-.624 1.153-1.134 1.248-1.136M-39.83 61.997c-.134-1.242-.147-1.264-.5-.812-.334.426-.32.543.578 2.342q.11.21.223.436c.519 1.04 1.006 2.112 1.082 2.38.044.16.05.3.022.389-.018.068-.053.108-.104.108-.12 0-.219-.12-.223-.27-.002-.091-.182-.536-.45-1.14-.15-.329-.327-.704-.518-1.088-.4-.804-.745-1.541-.892-1.895l-.189-.392c-1.198 1.445-1.612 1.988-1.692 2.135-.082.15.288 1.27.822 2.488.532 1.22 1.103 2.41 1.266 2.65.283.41.344.368 1.205-.866l.909-1.297c1.743.41 2.267.508 2.29.482.016-.031-.517-.498-1.19-1.04-.763-.612-1.473-1.435-1.867-2.164a7.1 7.1 0 0 1-.772-2.446m-97.13-3.97c1.661.06 1.994.148 3.452.918.887.47 2.085 1.341 2.665 1.936s1.297 1.569 1.593 2.163c.448.896.53 1.332.472 2.53-.063 1.316-.138 1.516-.828 2.227-.51.526-1.146.892-1.946 1.121-.785.227-1.558.296-2.271.207-.595-.075-1.666-.412-2.38-.752-.714-.337-1.835-1.05-2.488-1.58-.656-.532-1.544-1.544-1.977-2.252s-.855-1.674-.938-2.15a5 5 0 0 1 .079-1.73c.123-.478.541-1.175.934-1.556.392-.38.954-.793 1.253-.919.297-.125 1.368-.199 2.38-.162m-11.035 10.111c1.761.822 2.276 1.043 2.282 1.019.015-.04.674-1.074 1.469-2.317.799-1.247 1.45-2.34 1.447-2.433-.005-.089-.275-.162-.602-.162-.326.002-.91-.088-1.295-.196l-.702-.194zm208.34-2.822c.114 0 .244.121.287.27s-.663 1.023-1.569 1.939c-.904.915-1.72 1.622-1.808 1.568s.407-.708 1.101-1.452 1.378-1.57 1.519-1.839c.143-.268.353-.486.47-.486m-185.372 1.514c-.924-.12-.937-.11-1.131.648-.173.669-.137.818.285 1.143.266.205.559.376.647.379.09 0 .37-.41.627-.915.256-.504.474-.968.487-1.029.008-.058-.402-.162-.915-.226m87.906-8.858c-.768 0-1.034.1-1.28.487-.171.267-.474 1.072-.671 1.786-.292 1.049-.317 1.492-.126 2.325.127.564.367 1.293.532 1.622.164.327.877 1.13 1.582 1.785.705.653 1.763 1.43 2.352 1.725.767.385 1.527.56 2.69.623 1.55.084 1.692.05 3.172-.751l1.547-.84c-.638-1.928-.922-2.439-1.041-2.379-.12.06-.411.498-.649.973s-.748 1.08-1.136 1.341c-.384.262-1.14.518-1.676.57-.558.054-1.435-.055-2.056-.254-.686-.22-1.555-.77-2.379-1.506-.714-.636-1.435-1.49-1.603-1.9-.206-.497-.26-1.094-.166-1.82.1-.766.395-1.448 1.007-2.326.479-.686.87-1.294.87-1.352-.002-.06-.436-.109-.97-.109m-102.327 4.558a6 6 0 0 0-.864.123c-.237.054-.407.188-.378.299.03.11.563.233 1.187.272.634.04 1.662.318 2.326.63.653.306 1.655 1.03 2.224 1.605.571.575 1.203 1.46 1.406 1.966.205.503.445.916.534.92.089 0 .21-.098.271-.216.058-.12.017-.583-.093-1.028-.113-.445-.632-1.299-1.155-1.893-.548-.623-1.45-1.326-2.122-1.66-.645-.316-1.563-.682-2.038-.81-.476-.127-1.06-.221-1.298-.208m.041 1.49c-.513-.002-.576.056-.401.376.113.208.701.842 1.309 1.406.608.565 1.714 1.32 2.458 1.677.743.356 1.471.649 1.622.65.149 0 .27-.05.27-.109s-.137-.376-.306-.703-.679-.954-1.136-1.394-1.365-1.046-2.018-1.35c-.656-.302-1.463-.55-1.798-.553m1.04-2.665c-.595-.067-1.419-.029-1.83.086s-.727.303-.703.42c.027.114.654.193 1.397.169 1.112-.033 1.604.078 2.759.623.85.4 1.865 1.123 2.561 1.826.636.638 1.344 1.527 1.569 1.973.227.445.413 1.006.413 1.244q0 .432.379.376c.237-.035.398-.275.432-.649.031-.326-.104-.908-.297-1.296-.194-.387-.705-1.17-1.135-1.744-.433-.57-1.225-1.322-1.759-1.666-.537-.344-1.363-.763-1.839-.931s-1.352-.364-1.947-.431m197.57 2.886a.253.253 0 0 1 .26.263c-.003.15-.556.904-1.226 1.677-.672.775-1.326 1.525-1.454 1.668-.128.145-.361.195-.521.109-.214-.115-.088-.376.496-1.02a33 33 0 0 0 1.477-1.778c.383-.502.818-.914.967-.92m-195.947-5.519q-1.19-.12-2.056.207c-.475.182-.925.41-1.001.509-.074.1.412.136 1.081.082.671-.054 1.705.011 2.3.147s1.398.44 1.785.675c.387.238.679.482.649.545-.034.062-.69-.09-1.46-.34-.775-.25-1.943-.458-2.596-.464-.677-.005-1.493.142-1.894.341-.386.19-.702.372-.703.403.007.03.76.054 1.677.056 1.426 0 1.889.1 3.083.668.772.368 1.93 1.148 2.57 1.732.686.623 1.421 1.572 1.785 2.303.341.684.627 1.415.636 1.623.013.323.044.315.201-.054.102-.238.19-.725.197-1.082.004-.357-.182-1.062-.417-1.569q-.43-.92-.158-.847c.149.039.489.452.752.919.266.465.489 1.14.494 1.497.01.592.032.612.251.217.131-.238.192-.776.136-1.19-.058-.416-.34-1.232-.626-1.81-.288-.577-1.032-1.524-1.657-2.108-.625-.582-1.743-1.348-2.487-1.701s-1.889-.694-2.542-.759M58.411 63.37c.076 0 .128.093.115.206-.017.115-.588.893-1.27 1.73-.683.838-1.364 1.528-1.514 1.533-.148.004.197-.506.77-1.135.57-.63 1.2-1.413 1.397-1.74.199-.325.424-.593.502-.594m-.054-9.433c-.075-.047-.21.279-.298.729-.09.45-.119 1.255-.067 1.792.052.534.455 1.725.894 2.649.616 1.294 1.209 2.088 2.585 3.473 1.287 1.298 2.237 2.031 3.407 2.633.891.46 2.11.965 2.704 1.123.595.155 1.666.28 2.38.276.86-.005 1.553-.145 2.055-.42l.757-.415c-2.011-.007-3.277-.216-4.11-.472-.833-.253-1.954-.68-2.488-.949-.537-.268-1.73-1.086-2.65-1.815-.948-.749-2.092-1.913-2.635-2.676-.526-.744-1.201-1.889-1.497-2.542-.299-.656-.623-1.665-.72-2.244s-.24-1.094-.317-1.142m-94.553 5.821a19 19 0 0 0-.944 1.4c-.378.63-.389.784-.123 1.623.184.58.669 1.282 1.298 1.884.552.527 1.49 1.183 2.085 1.456.809.37 1.3.46 1.947.363.476-.071.96-.214 1.072-.317.12-.11-.081-.189-.488-.189-.38 0-1.203-.19-1.828-.42-.623-.231-1.28-.581-1.46-.78-.27-.3-.136-.286.812.095.625.25 1.696.506 2.38.569l1.243.114 1.515-2.104c-1.677-.245-2.553-.492-3.029-.706a11.7 11.7 0 0 1-1.73-1.028c-.476-.348-1.171-1.09-1.545-1.648l-.68-1.015zm-46.871-8.277c-.165 0-2.21 1.872-4.543 4.16a3583 3583 0 0 1-6.736 6.581l-2.487 2.417c3.352 1.008 4.642 1.357 5.03 1.426.674.121.882-.049 5.192-4.254 2.468-2.408 5.488-5.354 6.71-6.544 1.223-1.19 2.22-2.213 2.22-2.271-.005-.062-1.15-.425-2.547-.812-1.398-.385-2.675-.7-2.84-.703M57.81 62.333c.116.034.248.183.29.333.04.15-.607 1.003-1.439 1.893-.83.891-1.56 1.522-1.622 1.406-.06-.119.441-.874 1.11-1.676s1.27-1.584 1.332-1.74c.063-.153.212-.25.328-.216m4.905-11.72c-.576 0-1.366.201-1.935.49-.744.375-1.055.706-1.38 1.459-.311.727-.383 1.22-.277 1.947.08.535.472 1.655.872 2.488s1.249 2.133 1.887 2.888c.636.757 1.741 1.815 2.455 2.352.714.534 1.833 1.246 2.488 1.577.653.33 1.774.757 2.487.945.714.189 1.689.342 2.165.342.475-.002 1.278-.195 1.784-.429.506-.235 1.032-.649 1.17-.915.141-.268.33-.829.422-1.244.096-.428.067-1.227-.063-1.839-.128-.595-.571-1.763-.986-2.595-.55-1.106-1.233-1.982-2.527-3.245-1.23-1.201-2.3-2.008-3.492-2.631-.945-.494-2.254-1.054-2.907-1.246-.655-.19-1.629-.346-2.163-.344m-93.836 2.827c-.089.009-.357.105-.595.213-.238.11-.993.395-1.677.636-1.131.395-1.285.53-1.705 1.465-.439.977-.445 1.077-.123 2.108.2.636.734 1.528 1.296 2.164.526.595 1.435 1.344 2.017 1.666s1.545.68 2.14.794c.622.12 1.494.132 2.054.03.744-.138 1.14-.377 1.684-1.01.668-.785.706-.925.702-2.507-.007-1.642-.018-1.675-.493-1.517-.269.089-.828.153-1.243.145-.418-.01-1.221-.277-1.786-.593-.564-.318-1.239-.895-1.499-1.28-.257-.388-.502-1.07-.54-1.515-.04-.448-.143-.805-.232-.799m96.04-.023c.835 0 1.525.18 2.505.649.744.357 1.802 1.112 2.353 1.677.55.564 1.22 1.466 1.487 2 .268.537.554 1.267.638 1.624.095.413.026.943-.19 1.46-.212.506-.563.9-.935 1.047-.326.127-.985.197-1.46.149-.477-.048-1.446-.372-2.155-.723-.71-.35-1.804-1.146-2.434-1.771-.629-.625-1.389-1.623-1.685-2.218-.298-.594-.534-1.43-.523-1.855.01-.543.199-.961.631-1.407.528-.543.78-.632 1.768-.632m39.508 4.38c-.08-.047-.13.386-.109.963.041 1.026.069 1.065 1.122 1.636.619.335 1.78.694 2.705.84 1.374.22 1.889.204 3.353-.099.978-.201 2.086-.59 2.542-.895.737-.491.812-.627.812-1.512 0-.536-.072-.944-.163-.911-.088.037-.747.353-1.461.703-1.198.59-1.479.64-3.676.64s-2.478-.05-3.678-.64a65 65 0 0 1-1.447-.725m-39.437-3.85c-.687-.107-.952-.052-1.283.28-.261.259-.403.67-.379 1.1.022.377.137.686.256.686s.168.145.107.324c-.06.18.17.739.507 1.245.338.506 1.043 1.276 1.569 1.713.525.437 1.488 1.045 2.143 1.35.655.307 1.458.556 1.785.559.327.002.842-.12 1.143-.269.432-.214.544-.429.538-1.027-.004-.424-.281-1.233-.627-1.84-.342-.594-1.095-1.514-1.675-2.044-.582-.53-1.543-1.183-2.138-1.45-.594-.267-1.47-.548-1.946-.626m53.321 4.687c-.06.007-.572.373-1.14.812-.571.439-.911.83-.758.874.152.04.667-.325 1.141-.812.473-.488.814-.882.757-.874m-2.166-2.392c-.242 0-.493.13-.558.29-.065.162-.089.96-.05 1.778l.071 1.486 1.463-1.283c-.441-2.052-.573-2.271-.926-2.271m-94.426-3.42c-.643-.065-.965.015-1.246.311-.21.221-.331.572-.27.782.06.207.207.328.326.27.12-.06.31.305.422.81.15.66.502 1.206 1.244 1.935.571.558 1.306 1.118 1.633 1.243.327.126.91.234 1.298.239.387.006.848-.15 1.027-.346.234-.258.28-.56.163-1.09-.088-.405-.478-1.182-.865-1.727-.387-.543-1.19-1.293-1.785-1.666-.595-.37-1.471-.713-1.947-.761m97.892.634c-.06.01-.662.618-1.341 1.347l-1.234 1.328.548 2.164c2.106-2.01 2.808-2.766 2.914-2.974.138-.27.054-.596-.292-1.134-.267-.414-.535-.742-.595-.731m-9.519.512c-.775-.054-1.943.022-2.596.171-.655.147-1.518.46-1.923.697-.402.235-.868.625-1.037.863-.272.387-.242.507.301 1.15.37.438 1.021.855 1.685 1.08.745.251 1.723.357 3.137.34 1.341-.015 2.393-.152 3.029-.39.535-.2 1.195-.577 1.467-.838.27-.262.488-.647.487-.855-.005-.21-.275-.625-.602-.926-.327-.303-1.034-.692-1.568-.87-.537-.177-1.608-.368-2.38-.422m-254.123 2.527-.472.934c1.103.541 1.193.522 1.532.068.205-.274.373-.549.376-.608.002-.06-.214-.384-.482-.719l-.485-.612zm115.052-3.716c-.34 0-.797.177-1.013.395-.218.216-.38.485-.362.595.02.108.154.076.3-.071.144-.15.342-.27.437-.27s.122.195.064.432c-.06.238.038.675.217.974.177.296.64.735 1.027.971.387.238.922.433 1.19.433.268.002.64-.219.826-.484l.34-.488c-.11.843-.365 1.186-.679 1.344l-.54.272c.836.016 1.258-.153 1.477-.365.276-.27.359-.565.27-.98-.07-.33-.442-.952-.829-1.387s-1.019-.922-1.406-1.082-.98-.29-1.32-.29m152.406-3.245c-.513 0-.892.175-1.285.595-.307.326-.656.837-.775 1.135-.119.296-.224.393-.235.216-.011-.18.21-.69.489-1.136.281-.447.449-.81.374-.81s-.472.346-.883.767c-.659.684-.744.903-.744 1.932 0 .842.125 1.329.454 1.772.251.338.688.647.974.69.48.073.495.05.194-.32-.313-.387-.304-.387.271-.026.326.208.863.379 1.19.383s.863-.19 1.19-.433c.326-.242.702-.805.837-1.25.134-.449.181-1.177.108-1.623-.089-.532-.359-1-.783-1.352-.409-.342-.918-.54-1.376-.54m-1.303 1.064c.229-.318.413-.423.452-.264.037.15-.03.466-.148.704a2.4 2.4 0 0 0-.215.92c0 .268.146.754.325 1.08.285.528.285.595-.003.595-.179 0-.422-.242-.541-.54-.119-.296-.224-.86-.237-1.25-.011-.39.153-.95.367-1.245M157.948 3.23c.902 0 1.018.085 5.907 5l1.12.04c.856.033 1.252.167 1.696.582.32.296.716.81.885 1.136.166.326.302.911.299 1.299.001.612.352 1.054 2.707 3.407 2.271 2.268 2.707 2.807 2.703 3.352-.003.357-.077.764-.165.905-.087.14-2.25 2.382-4.809 4.978-2.557 2.598-5.99 6.109-7.626 7.803-2.782 2.881-3.027 3.08-3.786 3.085-.753.002-1.013-.199-3.623-2.81-2.075-2.074-2.984-2.84-3.462-2.914-.396-.06-.965-.442-1.46-.976-.446-.483-.881-1.144-.965-1.47-.093-.36-1.251-1.667-2.923-3.3-2.087-2.04-2.766-2.836-2.766-3.245 0-.299.359-1.077.796-1.73.437-.654 3.467-3.917 6.736-7.248s6.362-6.47 6.873-6.977c.805-.796 1.056-.92 1.863-.917m-5.475 24.885c-.072 0-.31.18-.527.398-.218.216-.38.485-.363.595.017.108 1.156 1.294 2.527 2.633 1.372 1.337 2.568 2.433 2.657 2.433.088.002.392-.168.67-.378l.508-.379c-4.131-4.1-5.396-5.297-5.472-5.302m15.008-15.078c-.091-.025-.946.777-1.897 1.782-.952 1.006-4.164 4.316-7.139 7.357l-5.408 5.53c2.514 2.523 3.715 3.66 4.29 4.158l1.045.902c10.86-10.896 14.057-14.207 14.111-14.387.057-.2-.852-1.279-2.369-2.811-1.356-1.367-2.541-2.507-2.633-2.531m-299.462-7.578c1.077.034 1.733.205 2.812.728.876.428 1.924 1.201 2.78 2.056.913.908 1.595 1.839 2.03 2.773.359.775.743 1.99.851 2.704q.2 1.3-.038 2.38c-.132.595-.424 1.374-.649 1.73-.226.358-3.116 3.345-6.423 6.637-5.895 5.865-6.041 5.993-7.313 6.35-.969.273-1.629.322-2.595.2-.751-.096-1.893-.461-2.705-.868-.936-.467-1.837-1.164-2.689-2.075-.748-.803-1.551-1.957-1.932-2.78-.491-1.053-.675-1.81-.742-3.029-.067-1.224.006-1.86.305-2.595.264-.654 1.07-1.651 2.454-3.036a1010 1010 0 0 1 6.498-6.395c3.046-2.972 4.671-4.406 5.192-4.577.416-.137 1.389-.227 2.164-.203m194.213.797c.284.81.528 1.134.974 1.298.54.197.645.147 1.136-.54.348-.487.714-.755 1.027-.75.269.002 1.072.32 3.083 1.399v1.153c0 1.01.073 1.203.595 1.568.482.336.78.385 1.568.253.87-.145 1.03-.103 1.492.38.286.296.776.93 1.09 1.405.313.476.566 1.036.562 1.244-.005.207-.245.647-.537.973-.463.517-.495.652-.248 1.028.156.239.746.578 1.312.757.569.178 1.11.422 1.203.541s.203 1.009.244 1.977c.072 1.694.046 1.8-.629 2.759-.698.99-.701 1.002-.325 1.648.374.647.37.667-.352 2.001-.402.741-.888 1.526-1.081 1.741-.23.258-.522.35-.838.27-.404-.098-.578.045-1.028.853-.311.563-.84 1.126-1.244 1.331-.674.344-.729.34-1.351-.115-.357-.26-.723-.469-.812-.465-.088.003-.478.45-1.568 1.978l-4.11-.133-.344-1.08c-.27-.847-.473-1.117-.92-1.245-.487-.136-.684-.043-1.982 1.387l-1.623-.74c-.89-.405-1.743-.9-1.892-1.097-.13-.174-.201-.395-.178-.527l.035-.114c.038-.192.02-.711-.128-1.884h-3.028l-.974-1.46c-.536-.802-.973-1.63-.973-1.838s.24-.745.534-1.19c.318-.485.456-.899.344-1.028-.105-.12-.563-.35-1.02-.515-.457-.162-.958-.407-1.111-.541-.186-.16-.277-.805-.27-1.919.006-1.304.103-1.821.44-2.325.308-.46.397-.855.31-1.353-.09-.525.005-.876.38-1.393.276-.381.89-1.253 1.366-1.94.476-.686 1.387-1.764 2.025-2.393.638-.627 1.296-1.142 1.46-1.142.168 0 .618.195 1.005.433.386.235.75.433.81.438.061.004.422-.482.805-1.079l.695-1.09h3.692zM-73.96 2.796c.392.003 1.147.22 1.677.487a3.94 3.94 0 0 1 1.572 1.458c.443.713.604 1.248.602 2-.003.805-.109 1.113-.489 1.418-.268.212-1.85 1.77-6.545 6.527l.593 1.138c.325.627.68 1.627.785 2.221.113.63.116 1.377.003 1.786-.104.387-.483.945-.84 1.244-.356.296-.917.551-1.244.564-.326.011-.886.004-1.243-.015-.357-.02-1.281-.33-2.056-.69-.772-.359-1.674-.84-2.595-1.482l-.703.571c-.388.316-3.017 2.797-5.842 5.517-3.208 3.088-5.3 4.944-5.57 4.945-.238 0-.651-.11-.92-.242-.268-.134-.707-.452-.98-.703-.359-.338-.486-.693-.476-1.327.013-.84.17-1.018 11.461-12.006l-.445-.703a16 16 0 0 1-.878-1.676c-.238-.537-.522-1.363-.63-1.84-.117-.518-.117-1.168 0-1.622.108-.418.374-.98.588-1.255.217-.273.734-.58 1.15-.679.43-.104 1.176-.098 1.73.017.537.11 1.489.465 3.263 1.376l2.533-2.498c1.393-1.376 3.04-2.958 3.66-3.516.863-.78 1.292-1.017 1.839-1.015m182.968-.779c.262-.27.602-.316 1.63-.21.713.074 1.36.254 1.438.399s.197 2.261.266 4.699c.069 2.428.153 4.434.183 4.467.036.018 2.203.39 4.819.826 2.616.437 5.002.91 5.3 1.051.512.245.542.362.664 4.364l-4.497 4.667c-2.473 2.565-5.177 5.416-6.01 6.336-1.352 1.492-1.595 1.67-2.272 1.657-.415-.009-1.194-.117-1.73-.24-.535-.126-2.775-.562-4.977-.971-2.2-.409-4.021-.769-4.043-.797-.024-.032-.122-.857-.391-3.597l-1.407-.26c-.771-.143-1.475-.367-1.563-.5-.089-.13-.16-2.722-.16-11.27l5.285-5.138c5.228-5.085 5.291-5.138 6.208-5.138.564 0 1.058-.135 1.257-.345m-91.558.148c.625-.011 1.646.09 2.272.224s1.672.48 2.326.77 1.71.935 2.347 1.432c.637.5 1.523 1.394 1.968 1.989.446.594.984 1.42 1.197 1.838.214.416.519 1.195.681 1.732.16.537.349 1.702.418 2.596.1 1.27.028 1.999-.33 3.353-.254.952-.79 2.267-1.195 2.92-.403.653-1.25 1.69-1.882 2.3-.632.608-1.586 1.354-2.122 1.657-.534.3-1.363.651-1.839.774a33 33 0 0 1-1.461.342c-.331.067-.537.213-.583.41l-.015.132c-.046.239-.438.787-.914 1.269-.904.917-.95.935-2.436.96-.984.018-1.954-.12-4.026-.813l-3.96 4.11-1.2.072c-1.064.065-1.315-.01-2.247-.65-.72-.493-1.216-1.06-1.58-1.801-.42-.857-.497-1.262-.38-1.947.124-.703.505-1.232 3.926-4.76l-.508-1.081c-.277-.595-.569-1.518-.644-2.055-.078-.537-.033-1.314.096-1.731.132-.418.583-1.123 1-1.569.662-.705.761-.954.761-1.892 0-.595.111-1.593.245-2.218.132-.625.537-1.72.896-2.434S9.509 6.18 10.235 5.43c.814-.846 1.818-1.614 2.619-2.008.713-.352 1.785-.774 2.38-.938a10.7 10.7 0 0 1 2.216-.318m-154.537 7.128c-.027.005-2.301 2.216-5.056 4.921-4.116 4.041-5.074 5.095-5.36 5.896-.253.707-.314 1.356-.217 2.379.087.915.364 1.876.794 2.759.381.778 1.143 1.815 1.798 2.449.625.603 1.623 1.332 2.218 1.622.595.288 1.616.639 2.271.78 1.038.22 1.351.2 2.441-.164 1.161-.387 1.597-.76 6.007-5.174 2.604-2.607 4.736-4.742 4.751-4.76l-1.357-.023c-.882-.013-1.724-.186-2.432-.5-.594-.262-1.603-.885-2.241-1.385-.638-.497-1.542-1.488-2.008-2.202-.467-.714-1.052-1.98-1.303-2.812-.31-1.03-.425-1.88-.36-2.65.052-.624.078-1.134.054-1.136M65.41 27.502c-.143-.121-.554.31-1.136 1.185l-.91 1.376 2.703-.032 1.84-2.348c-1.761.005-2.373-.078-2.497-.181m-95.013-22.53c.327-.008 1.156.158 1.84.37.683.212 1.769.723 2.411 1.136s1.532 1.188 1.973 1.725c.441.536 1.075 1.51 1.406 2.163.403.798.637 1.652.708 2.595.056.773-.002 1.747-.131 2.165-.174.56-1.983 2.498-6.959 7.462-3.947 3.941-7.052 6.864-7.526 7.092-.599.284-1.224.368-2.429.323-1.24-.046-1.904-.198-2.812-.643-.653-.322-1.712-1.101-2.348-1.73-.679-.675-1.437-1.727-1.837-2.553-.49-1.02-.698-1.794-.755-2.813-.043-.774.04-1.843.185-2.38.236-.867.992-1.7 6.944-7.626 5.943-5.918 6.793-6.686 7.708-6.96.565-.171 1.296-.317 1.622-.326m93.886 20.769c-.088.002-.515.563-.945 1.244-.708 1.123-.762 1.311-.563 1.997l.218.757c1.821-2.406 1.87-2.54 1.668-3.245-.119-.417-.29-.755-.378-.753m-156.095-3.405c-3.638 3.556-5.578 5.605-5.577 5.886.002.238.175.593.389.787.212.193.58.41.818.479.347.1 1.566-.976 6.057-5.348l5.625-5.474-1.73-1.785zM3.66 25.304c-.119 0-.272.266-.346.595-.09.409.028.896.387 1.568.327.61.838 1.154 1.374 1.456.47.266 1.144.487 1.501.492.357.004.827-.118 1.043-.269.357-.247.305-.303-.54-.575-.54-.173-1.372-.724-1.965-1.299-.566-.547-1.077-1.215-1.136-1.481-.058-.268-.201-.487-.318-.487m113.122-4.54c-3.253 3.367-5.749 5.779-6.057 5.85-.289.07-1.837-.097-3.442-.37a142 142 0 0 1-4.543-.841 109 109 0 0 1-2.002-.44c-.335-.083-.372.067-.324 1.258l.055 1.35c7.54 1.418 9.89 1.809 10.085 1.783.193-.029 1.694-1.462 3.336-3.187a514 514 0 0 1 5.763-5.95l2.78-2.811-.115-2.371zm-156.012-7c-4.367 4.419-5.577 5.765-5.791 6.451-.158.502-.228 1.409-.166 2.163.065.766.332 1.74.652 2.38.298.595.995 1.543 1.545 2.11.551.564 1.511 1.283 2.136 1.596.71.357 1.624.609 2.435.67.878.066 1.542-.01 2.055-.235.448-.195 2.955-2.536 6.159-5.75 4.913-4.933 5.343-5.42 4.76-5.419-.355 0-1.18-.153-1.833-.344-.656-.19-1.63-.621-2.163-.957-.537-.335-1.346-1.034-1.798-1.549-.455-.517-1.125-1.522-1.49-2.236-.47-.915-.714-1.768-.825-2.882l-.158-1.586zM69.9 25.087c-.09 0-.344.122-.558.27-.333.23-.359.386-.175 1.028.169.58.147.87-.089 1.244-.272.43-.264.524.071.805.208.173.453.32.541.324.09.002.31-.164.492-.372.18-.21.614-.72.966-1.136l.641-.756c-1.331-1.09-1.795-1.406-1.889-1.407m-11.517-.003c-.06.002-.525.538-1.029 1.193-.504.653-.89 1.227-.86 1.272.031.046.565.338 1.19.65.625.311 1.233.516 1.352.458.12-.062.615-.622 1.104-1.244l.884-1.136c-1.955-.926-2.576-1.194-2.641-1.194m52.361 2.157c.119 0 .217.341.217.757 0 .432-.094.712-.217.649-.119-.058-.216-.4-.216-.757 0-.356.097-.649.216-.65m48.081-1.733c.208.003.671.197 1.027.435.357.238.697.627.757.865.059.238-.004.651-.14.92-.137.267-.355.558-.487.645-.13.088-.483.164-.779.17-.299.007-.809-.188-1.136-.43-.432-.318-.603-.643-.623-1.184-.023-.566.096-.826.488-1.084.283-.186.685-.336.893-.337m-9.367-1.175c-.383-.096-.674-.011-.959.272-.27.268-.396.66-.363 1.148.023.407.164.959.309 1.225.143.268.554.682.911.92s.946.433 1.309.433.779-.122.924-.269c.145-.15.259-.562.257-.919s-.199-.967-.435-1.352c-.238-.387-.651-.844-.919-1.015a4.2 4.2 0 0 0-1.034-.443m-144.515.7c-.203-.445-.445-.745-.54-.666s-.159.394-.14.7c.018.308.282.9.585 1.318.305.416.965.972 1.464 1.234.502.261 1.277.482 1.723.486.445.006.81-.086.81-.205s-.073-.175-.161-.123c-.09.05-.552-.08-1.028-.292a8 8 0 0 1-1.605-1.013c-.407-.346-.906-.993-1.108-1.438m153.7 1.775c-.404 0-.541.098-.487.355.041.196.218.454.398.573.177.12.495.155.703.078.298-.11.334-.234.163-.573-.132-.266-.434-.433-.777-.433M62.877 25.09c-.208-.002-.376.12-.372.269.002.147-.29.683-.65 1.19-.36.502-.63.955-.601 1.005.03.048.242.122.471.163.303.054.648-.253 1.247-1.114.605-.871.755-1.234.556-1.35a1.6 1.6 0 0 0-.651-.163m96.219.875c-.3.01-.332.048-.108.125.178.063.543.371.811.687q.486.576.493.248c.004-.178-.166-.493-.378-.696-.212-.206-.58-.37-.818-.364m-153.3-2.283c-.334-.575-.389-.598-.462-.216-.045.238-.003.725.097 1.081.1.357.398.877.662 1.156.266.279.775.66 1.132.845.357.186.988.412 1.406.5.543.117.832.076 1.027-.142.225-.253.153-.32-.432-.402-.442-.061-1.14-.485-1.876-1.136-.645-.57-1.343-1.329-1.553-1.686M58.7 7.061l.137 1.037-1.853.742-2.08-1.607C53.67 8.404 53.26 8.769 53.2 8.795c-.06.029.256.49.701 1.028.796.96.806.998.54 1.865l-.27.887c-2.46-.255-2.487-.247-2.487.283 0 .383-.093.508-.325.433q-.324-.108-.973.973c-.496.827-.652 1.348-.659 2.218l-.005 1.136c1.447-1.822 1.68-2.303 1.6-2.597-.065-.238-.01-.506.121-.595.154-.103.239.014.237.325-.005.417.183.532 1.328.811 1.081.264 1.367.426 1.518.865.102.297.297.736.431.974.205.368.149.504-.379.917-.344.268-.696.487-.785.487s-.162.1-.162.219c0 .12.365.73.81 1.356l.812 1.14c2.128-.314 2.354-.273 2.925.153.618.459.649.553.54 1.623l-.112 1.136c2.01 1.005 2.668 1.26 2.758 1.218.089-.044.308-.39.488-.766.177-.378.422-.681.54-.675.12.007.654.143 1.19.303.887.264 1.013.39 1.406 1.404l.433 1.112h2.92l-.108-2.198 1.84-.615 2.054 1.68 2.164-1.892-2.056-1.95.58-1.84 2.016.109v-2.813c-2.336-.73-2.446-.829-2.831-1.785l-.413-1.027 1.406-1.049c-1.006-1.404-1.42-1.9-1.57-2.006-.157-.11-.653-.108-1.189.007-.871.188-.967.158-1.84-.595-.89-.766-.918-.827-.812-1.82l.11-1.027-2.271-1.134-1.298 1.538c-2.012-.491-2.13-.595-2.483-1.485l-.383-.974-2.694-.132zm95.723 12.33c-.493-.117-.842.152-2.921 2.241-1.893 1.904-2.263 2.373-1.873 2.373.268-.001.844.315 1.278.702.437.387.948 1.064 1.136 1.505l.344.805 4.705-4.636c-.796-1.646-1.27-2.289-1.569-2.49a4 4 0 0 0-1.1-.5m-96.355 3.966c-.034.003-.434.456-.886 1.008-.578.707-.812 1.192-.784 1.623l.043.614c1.112-1.425 1.494-2.157 1.563-2.542.069-.386.099-.702.064-.703m48.377-5.26c-3.169 3.254-5.713 5.956-5.652 6.004.062.046 1.571.374 3.353.727 1.785.35 3.953.772 4.816.934l1.572.297c8.964-9.184 11.593-11.91 11.626-11.985.03-.072-.359-.202-.865-.29-.509-.087-2.761-.484-5.006-.88l-4.082-.726zm-96.124-3.4c-.084.002-.426.298-.757.657-.332.361-.776.653-.984.65s-.555-.307-.767-.677c-.356-.621-.404-.643-.623-.27-.149.255-.18.839-.08 1.591.087.656.442 1.727.786 2.38.347.653 1.287 1.848 2.09 2.65 1.126 1.127 1.917 1.68 3.461 2.427 1.101.532 1.806.967 1.569.97-.238 0-1.115-.33-1.948-.734-.832-.404-2.137-1.302-2.898-1.997-.762-.692-1.647-1.65-1.969-2.127s-.794-1.422-1.05-2.108c-.255-.683-.466-1.51-.47-1.839-.007-.577-.018-.582-.342-.163-.249.324-.3.704-.194 1.515.078.595.399 1.618.712 2.271.314.656 1.169 1.823 1.898 2.596.947 1.008 1.841 1.68 3.143 2.365 1.58.833 2.034.971 3.442 1.049l1.623.089 1.73-1.779c-1.256.007-1.84-.075-2.109-.174-.268-.102-.553-.321-.638-.488-.086-.177.119-.735.487-1.332.35-.563.637-1.073.638-1.136 0-.058-.22-.11-.487-.113-.268-.002-.876-.18-1.352-.4-.476-.218-1.352-.832-1.947-1.364-.595-.535-1.396-1.45-1.776-2.035-.383-.586-.772-1.382-.865-1.771-.096-.389-.24-.705-.323-.703m-3.585 8.119c-.196-.588-.233-.61-.386-.217-.113.286-.029.69.244 1.19.23.416.902 1.078 1.497 1.467.748.494 1.315.703 1.839.686.69-.024.708-.041.216-.19a8.6 8.6 0 0 1-1.19-.504c-.357-.189-.954-.665-1.326-1.063-.372-.396-.775-1.012-.894-1.369m50.95-.751c-.15.003-.684.587-1.19 1.298-.505.709-.87 1.387-.811 1.508.058.119.23.214.379.21.15-.004.683-.587 1.189-1.298.506-.71.87-1.39.811-1.508a.44.44 0 0 0-.379-.21m85.474-3.26c-.078.005-.272.305-.432.668l-.292.66c3.685 3.668 4.807 4.732 4.867 4.73.061-.005.274-.224.475-.488.361-.47.329-.52-2.054-3.028-1.331-1.4-2.483-2.543-2.564-2.542M8.375 23.465c-1.028-1.001-1.079-1.027-.698-.348.227.404.68.94 1.004 1.19s.64.406.698.348c.057-.062-.395-.595-1.004-1.19m154.615-1.632c.119-.01.485.183.812.425.402.297.592.632.588 1.035-.003.326-.173.768-.378.98-.204.212-.567.387-.805.387s-.702-.2-1.028-.442c-.346-.255-.592-.642-.59-.925 0-.268.077-.584.168-.706.091-.12.357-.337.591-.48.233-.145.523-.268.642-.274m-107.018.226c-.732 0-.899.12-1.792 1.298l-.985 1.298c1.523.017 1.728-.108 2.474-1.019.467-.568.907-1.159.98-1.306.09-.193-.109-.27-.677-.27m-3.826-1.294-.897 1.291 1.406 2.406c.794-.94 1.305-1.531 1.649-1.918.341-.388.525-.753.406-.812-.12-.061-.543-.593-.94-1.184l-.726-1.077zm55.624.86c.446-.005 1.08.123 1.407.286s.669.478.759.703c.104.253.043.593-.163.895-.199.296-.642.538-1.137.62-.446.074-1.103.07-1.46-.01-.357-.078-.822-.307-1.034-.51s-.401-.587-.418-.85c-.022-.332.165-.58.601-.803.348-.178 1-.327 1.445-.331m54.87 1.505c-.275 0-.418.109-.355.27.057.15.258.368.445.487.191.12.425.145.52.057.095-.089.099-.308.011-.487-.089-.18-.368-.327-.621-.327M110.196 2.582c-.666 0-1.06.273-3.083 2.14-1.276 1.176-2.66 2.493-3.076 2.924-.417.432-.877.782-1.027.781s-.271-.051-.271-.112c.001-.06.511-.57 1.136-1.134a133 133 0 0 0 2.485-2.325c.742-.716 1.351-1.374 1.353-1.463 0-.088-.133-.138-.299-.108-.164.03-2.549 2.27-5.301 4.976l-4.999 4.921.109 10.244 2.254.465c.123-9.98.11-10.176-.308-10.388-.238-.124-.462-.415-.5-.649-.038-.247.308-.911.811-1.564.541-.7 1.046-1.136 1.312-1.136.238 0 .428.073.426.162-.005.089-.467.639-1.028 1.22-1.001 1.037-1.012 1.06-.54 1.299.436.218.699.031 2.92-2.093a553 553 0 0 1 5.417-5.083c1.636-1.51 2.973-2.822 2.975-2.914 0-.089-.346-.163-.766-.163m-2.324 19.466c-.389 0-.855.148-1.032.326-.237.237-.25.324-.05.324.154 0 .253.121.223.27-.034.175.268.29.866.325.557.032.875-.03.81-.163-.06-.118.088-.216.326-.216.237 0 .432-.098.432-.216 0-.12-.195-.314-.432-.433-.238-.119-.751-.217-1.143-.217m50.137-18.172c-.286.002-2.876 2.486-7.464 7.16l-7.026 7.157 5.111 5.049c11.212-11.234 14.464-14.544 14.46-14.603-.009-.064-1.054-1.16-2.325-2.437-1.44-1.447-2.485-2.327-2.756-2.326m-140.506-.84c-.418.016-1.197.113-1.732.216-.536.104-1.606.5-2.379.881-.778.383-1.891 1.18-2.495 1.787-.597.604-1.4 1.731-1.786 2.503-.385.775-.803 2.04-.928 2.813-.126.774-.162 1.748-.082 2.163.08.417.235 1.001.343 1.298l.201.54c1.716-1.76 1.924-1.864 2.635-1.8l.812.07c-.009-1.626.19-2.337.603-3.137.379-.734.983-1.465 1.576-1.91.527-.396 1.494-.87 2.15-1.051.973-.273 1.404-.289 2.38-.085.653.136 1.626.528 2.163.87.534.342 1.227.948 1.536 1.346.31.398.744 1.064.963 1.48.287.542.4 1.217.4 2.379 0 1.218-.113 1.839-.45 2.487a10.4 10.4 0 0 1-.982 1.515c-.295.357-1.06.915-1.706 1.237-.642.325-1.533.64-1.979.703-.783.11-.809.144-.766.926.03.571-.144 1.128-.594 1.876l-.64 1.066c3.98-.192 4.534-.308 5.624-.838.714-.346 1.808-1.145 2.434-1.773.679-.683 1.442-1.769 1.901-2.71.44-.895.872-2.218 1.013-3.083.186-1.138.184-1.863-.004-2.92-.139-.773-.61-2.136-1.05-3.029-.506-1.025-1.243-2.067-2.007-2.828-.703-.703-1.791-1.49-2.611-1.89-.775-.38-1.944-.786-2.597-.907-.655-.121-1.53-.21-1.946-.194M163.152 22.26c-.149.003-.268.079-.263.167.005.09.247.334.541.541.371.264.535.296.538.109.002-.15-.122-.395-.271-.546-.151-.15-.395-.273-.545-.27M105.778 8.356l-5.445 5.367.135 9.216 11.14-11.487-.386-8.463zm-43.925 2.281c1.04.048 1.785.247 2.867.764.802.383 1.957 1.159 2.567 1.723.608.565 1.387 1.588 1.731 2.272.342.684.682 1.61.753 2.056s.022 1.224-.108 1.73c-.132.506-.554 1.269-.941 1.695-.493.544-1.058.875-1.893 1.11-1.003.284-1.408.295-2.596.072-.774-.147-1.845-.488-2.38-.76-.536-.273-1.492-.972-2.128-1.55-.718-.653-1.396-1.546-1.788-2.351-.346-.714-.69-1.688-.761-2.164-.078-.504-.012-1.227.154-1.73.158-.476.534-1.15.837-1.498.3-.348.94-.813 1.415-1.034.632-.294 1.244-.384 2.271-.335m97.995 2.77c-.061-.001-1.375 1.264-2.921 2.81-2.222 2.226-2.707 2.813-2.322 2.813.269 0 .883.364 1.368.81.482.447.995 1.129 1.135 1.518l.255.705c4.311-4.315 5.301-5.466 5.294-5.74-.004-.237-.222-.802-.486-1.254a3.4 3.4 0 0 0-1.346-1.24c-.474-.23-.912-.418-.977-.421M73.866 20.76c-.363 0-.57.152-.664.488-.076.265-.034.584.09.703.154.145.373.075.674-.217.244-.238.442-.556.437-.703-.005-.15-.245-.27-.537-.27m-12.482-7.096c-.556-.098-1.433-.115-1.947-.041-.515.075-1.058.201-1.208.279s-.27.388-.27.684c0 .299.189 1.05.418 1.675.249.682.878 1.642 1.568 2.402.736.809 1.618 1.495 2.449 1.904 1.031.51 1.62.649 2.875.683 1.192.03 1.628-.037 1.795-.283.122-.177.18-.811.13-1.406-.052-.636-.346-1.562-.714-2.248-.344-.642-.977-1.471-1.41-1.839-.43-.37-1.21-.89-1.731-1.153a8.5 8.5 0 0 0-1.955-.657M-86.198 9.293c-.683 0-1.056.123-1.352.454-.298.328-.4.734-.368 1.46.028.65.312 1.543.8 2.521.418.833 1.163 2.001 1.658 2.596.493.595 1.447 1.549 2.117 2.12.673.571 1.807 1.324 2.52 1.67.81.393 1.664.635 2.272.646.621.009 1.16-.125 1.489-.372.41-.31.513-.586.508-1.36-.002-.537-.166-1.363-.363-1.839s-.5-1.087-.67-1.353l-.314-.486c-.922 1.053-1.385 1.436-1.624 1.53-.237.095-.822.07-1.297-.052-.587-.15-1.216-.582-1.951-1.337-.595-.615-1.216-1.504-1.378-1.98-.163-.476-.234-1.133-.16-1.46.075-.328.307-.649.514-.712.208-.065.5-.307.65-.54.246-.39.17-.47-.92-.965-.686-.314-1.588-.541-2.131-.541m252.382 8.431c.251-.093.726-.058 1.077.078.344.134.789.506.988.826.307.49.323.671.096 1.136-.15.305-.524.675-.831.824-.48.232-.677.208-1.352-.162-.649-.354-.803-.57-.851-1.19-.032-.415.051-.888.18-1.05.132-.163.444-.37.693-.462M13.775 13.74c-.776-.329-.807-.325-.811.095-.002.24-.175.497-.383.57-.208.074-.597.027-.865-.108-.433-.216-.488-.19-.486.243 0 .268.23.973.51 1.568.278.595.934 1.508 1.457 2.027.524.52 1.342 1.17 1.818 1.446.476.274 1.148.579 1.497.676.599.17.625.15.473-.363-.116-.39-.052-.647.232-.926.216-.212.565-.383.772-.379s.38-.064.381-.155c.002-.089-.282-.6-.63-1.136-.346-.534-.858-1.228-1.137-1.54a10 10 0 0 0-1.264-1.123 9.5 9.5 0 0 0-1.564-.895m97.62 3.992c.241.004.213.086-.109.326-.237.177-.506.32-.595.319s-.162.093-.162.211c.001.12.145.216.324.216.193 0 .281.133.216.325-.083.253.086.325.758.325.701 0 .835-.064.703-.33-.127-.257-.056-.304.324-.215.268.062.488.038.492-.05.002-.089-.122-.286-.271-.438-.151-.149-.177-.272-.058-.272s.339.123.491.272c.149.152.272.494.27.762-.002.296-.238.63-.599.85-.409.25-.907.334-1.597.271-.597-.056-1.188-.269-1.467-.526-.255-.238-.475-.604-.488-.814-.011-.22.293-.564.712-.81.402-.236.876-.426 1.056-.422m-49.217-6.367c-.798-.076-1.563-.02-1.987.142-.378.147-.735.33-.794.406-.055.074.301.044.796-.068.5-.114 1.22-.127 1.619-.03.393.097.686.273.649.392-.038.118-.313.227-.608.242-.3.013-.93.05-1.406.08-.752.047-.684.08.54.249.831.115 1.974.48 2.791.893a8.6 8.6 0 0 1 2.45 1.888c.6.67 1.247 1.686 1.48 2.326.23.625.428 1.452.436 1.84.018.693.024.688.53-.38.344-.726.471-1.293.39-1.73-.065-.357-.336-1.136-.597-1.73-.264-.596-.97-1.57-1.569-2.165-.601-.595-1.616-1.34-2.256-1.659a8 8 0 0 0-2.464-.696M166.3 18.795c-.085.005-.206.106-.271.225-.064.12.053.413.26.655s.5.437.649.433.335-.128.414-.276c.08-.154-.083-.438-.379-.659-.288-.214-.591-.384-.673-.378m.649-.866c-.084.005-.195.083-.247.171-.053.09.187.432.53.758.558.53.64.553.768.216.095-.258-.026-.504-.378-.766-.287-.214-.59-.385-.673-.379m-113.05-1.055c-.09.005-.48.443-.866.972-.387.53-.769 1.136-.851 1.344-.083.208.185.036.596-.379.411-.417.922-.853 1.138-.973.242-.134.344-.36.269-.595-.068-.208-.198-.373-.287-.37M-131.878 6.366c-.714-.054-1.59.01-1.947.142s-.92.495-1.251.807c-.331.311-.755.959-.941 1.435-.248.63-.309 1.302-.227 2.488.088 1.267.277 1.951.865 3.137a8.7 8.7 0 0 0 1.908 2.574c.638.582 1.647 1.287 2.241 1.562.595.277 1.52.567 2.056.645.534.078 1.339.08 1.784.006.476-.08 1.147-.44 1.623-.866.446-.4.944-1.105 1.106-1.568.19-.537.263-1.426.205-2.462-.067-1.224-.245-1.942-.721-2.92-.348-.718-1.165-1.835-1.827-2.497-.658-.657-1.733-1.464-2.387-1.793a6.9 6.9 0 0 0-2.487-.69M52.088 16.09c-.234-.069-.664.275-1.27 1.012-.503.614-.905 1.202-.891 1.305.013.104.244.232.512.286.269.054.632.155.812.226.22.089.653-.29 1.352-1.178l1.028-1.309c-.922-.184-1.348-.283-1.543-.342m97.396-.53c.388 0 .844.208 1.175.54.297.298.541.76.543 1.027 0 .269-.145.705-.324.973-.236.35-.539.487-1.084.487-.519 0-.928-.17-1.298-.54-.298-.297-.551-.723-.562-.946-.013-.22.188-.66.445-.973q.47-.57 1.105-.569M17.61 8.214c-.741.007-1.576.158-1.946.353-.357.188-.926.6-1.264.911-.34.314-.8.934-1.027 1.382-.227.445-.416.98-.418 1.19-.004.258.394.546 1.244.903.88.37 1.699.975 2.774 2.054.839.842 1.704 1.922 1.922 2.398.217.475.407.893.42.928.016.034.366-.072.784-.239.415-.164 1.122-.705 1.568-1.198a5.5 5.5 0 0 0 1.162-2.142c.303-1.075.313-1.408.071-2.433-.155-.656-.582-1.58-.948-2.056-.383-.497-1.174-1.123-1.855-1.465-.918-.463-1.483-.594-2.487-.586m131.666 8.425c-.106 0-.301.147-.432.324-.177.24-.171.412.03.659.149.183.489.33.757.324.268-.005.534-.106.596-.225.06-.119-.088-.411-.326-.65-.238-.237-.519-.432-.625-.432M-29.565 6.037c-1.002.004-1.49.123-2.056.502-.409.272-.867.735-1.02 1.027-.174.33-.254 1.104-.213 2.047.048 1.053.227 1.843.59 2.596.29.595 1.03 1.617 1.647 2.272a8.2 8.2 0 0 0 2.499 1.827c.988.459 1.718.641 2.57.646.854.006 1.42-.129 2.001-.477.605-.361.902-.744 1.172-1.51a4.25 4.25 0 0 0 .217-2.11c-.078-.594-.38-1.567-.67-2.162s-.948-1.555-1.461-2.133c-.61-.684-1.46-1.308-2.45-1.79-1.226-.6-1.765-.74-2.826-.735m179.251 9.952c-.201.002-.078.202.324.526.412.333.679.43.731.27.043-.138-.101-.376-.324-.528-.225-.149-.554-.27-.731-.268m-281.16-7.139c.87-.004 1.337.139 2.14.65.565.357 1.365 1.114 1.778 1.678.411.565.862 1.514 1.002 2.109.188.81.191 1.285.007 1.893-.158.524-.494.97-.948 1.257-.528.333-.971.424-1.784.368-.747-.052-1.379-.273-2.045-.715-.528-.352-1.266-1.029-1.638-1.505-.376-.48-.802-1.395-.96-2.055-.164-.692-.216-1.462-.123-1.839.089-.357.454-.918.811-1.244.529-.487.852-.595 1.76-.597m246.903 5.195c.411 0 .676.092.616.215-.061.119-.303.217-.54.217s-.581.05-.758.108c-.179.061-.324.206-.324.325 0 .118.219.224.486.233.268.009.366.059.217.108-.149.05-.271.19-.271.308.002.119.341.216.757.216.528 0 .758-.098.758-.324q.002-.322.378-.196c.309.104.349.044.217-.324-.128-.359-.082-.443.216-.398.257.037.396.282.433.758.048.624-.035.737-.758 1.044-.532.225-1.071.295-1.568.202-.417-.08-.976-.284-1.244-.453s-.495-.498-.508-.727c-.01-.23.249-.619.575-.865.327-.247.92-.447 1.318-.448m49.455-5.068c-.411-.13-.823.175-2.651 1.973l-2.163 2.129c1.254.523 1.83.96 2.087 1.31.258.348.573.903.703 1.232l.237.594c3.393-3.49 4.103-4.387 4.105-4.705.002-.268-.142-.779-.319-1.136-.18-.356-.594-.782-.92-.947a9 9 0 0 0-1.079-.45M-78.679 7.733c-1.298 1.28-2.944 2.845-3.658 3.477l-1.298 1.148c.396 1.224.883 1.976 1.337 2.456s1.169.99 1.584 1.136l.757.26 7.012-7.03c-1.41-.852-2.075-1.436-2.386-1.847-.312-.414-.663-1.015-.777-1.34l-.21-.588zm-53.701 2.634c-.337 0-.694.064-.794.144-.099.078-.164.226-.144.325.02.1.256.182.523.184.268.002.876.234 1.352.515.475.279 1.118.837 1.427 1.237.31.402.726 1.047.92 1.435.197.387.357.947.357 1.244s.079.54.174.54.291-.121.436-.27.26-.465.258-.703c-.004-.238-.234-.92-.511-1.514-.279-.595-.911-1.447-1.404-1.893-.496-.446-1.144-.91-1.441-1.028a3.7 3.7 0 0 0-1.153-.216m-.415 1.29c-.268.005-.487.105-.487.224.002.12.413.435.911.703.502.268 1.14.826 1.419 1.244.277.417.564 1.001.636 1.298.071.298.236.612.366.699.132.088.311.162.4.162.089.002.162-.191.162-.429s-.219-.889-.487-1.444c-.294-.612-.872-1.3-1.46-1.738-.536-.397-1.192-.722-1.46-.718m234.974.916c.328.047.469.245.512.714.035.367-.13.954-.379 1.352-.257.413-.617.703-.87.703-.337 0-.432-.146-.432-.65 0-.356.16-.994.357-1.416.268-.573.474-.753.812-.703m-234.338.818c-.394-.227-.709-.32-.703-.206.007.118.442.674.964 1.237.523.564 1.009.953 1.083.867.071-.09-.042-.46-.249-.823-.208-.363-.702-.845-1.095-1.075m103.313-5.607c.387-.007 1.07.138 1.515.322.446.184 1.229.744 1.737 1.244.552.54 1.099 1.37 1.352 2.044.233.625.427 1.38.427 1.677s-.122.787-.271 1.09c-.15.3-.613.701-1.028.89q-.758.338-1.514.192c-.418-.083-1.147-.372-1.623-.645-.476-.272-1.145-.824-1.486-1.226a9.5 9.5 0 0 1-1.028-1.545c-.225-.446-.407-1.225-.409-1.73 0-.507.157-1.145.347-1.423.192-.276.558-.585.813-.69.255-.1.781-.192 1.168-.2m182.642 4.313c.238 0 .675.245.974.541.296.299.538.711.534.92-.003.207-.174.551-.379.763-.204.212-.641.383-.967.379-.327-.005-.79-.202-1.027-.44-.238-.237-.433-.627-.433-.865s.195-.627.433-.865c.237-.238.627-.433.865-.433M-131.173 9.5c-.325 0-.593.052-.595.11.003.06.465.34 1.028.621.564.281 1.343.865 1.73 1.298s.899 1.175 1.137 1.651.43 1.035.428 1.243c-.002.303.052.325.27.109.223-.219.219-.448-.013-1.19a8.5 8.5 0 0 0-.811-1.73c-.288-.446-.986-1.106-1.551-1.463-.564-.36-1.296-.652-1.623-.65m101.592-.102c-.49-.106-.689-.067-.708.14-.014.159.34.499.79.754.448.255 1.136.792 1.527 1.19.39.398.889 1.21 1.11 1.806.29.784.524 1.096.857 1.135.376.046.458-.06.458-.594 0-.357-.16-.965-.356-1.352-.2-.387-.563-.98-.812-1.32-.25-.338-.843-.839-1.32-1.114-.475-.274-1.172-.565-1.546-.645m-.413 1.618c-.283 0-.294.077-.07.487.148.27.715.952 1.257 1.523.543.568 1.11 1.032 1.26 1.028.192-.006.155-.24-.135-.82-.223-.446-.76-1.127-1.19-1.515-.432-.386-.936-.702-1.122-.703m183.556 2.16c-.069.002-.19.078-.27.166-.077.09-.022.288.127.442.147.155.39.277.539.27.149-.004.271-.082.274-.17.003-.09-.121-.287-.27-.438-.151-.149-.33-.272-.4-.27M-28.616 8.486c-.718-.093-.987-.059-.92.116.052.136.266.247.474.247.207-.002.818.273 1.352.61.537.338 1.262.995 1.614 1.462.353.468.8 1.288.995 1.825.257.708.4.883.524.648.093-.178.107-.617.034-.974-.072-.357-.426-1.112-.783-1.676-.36-.565-1.02-1.274-1.465-1.576s-1.267-.61-1.825-.682m133.661 1.23c.16 0 .352.22.428.488.084.3-.024.776-.284 1.243-.255.462-.581.757-.838.758-.35 0-.412-.135-.367-.816.031-.45.215-1.01.411-1.244.195-.236.488-.428.65-.429m-51.886.095c-.342-.448-.353-.443-.898.433-.305.486-.486.953-.403 1.036s.54.219 1.015.299c.779.134.883.097 1.052-.369.132-.365.099-.575-.12-.728-.166-.119-.458-.422-.646-.671m103.806-2.041c.16 0 .34.097.4.216.058.119-.038.217-.216.217-.179 0-.326.073-.331.162 0 .089.265.305.595.477.331.173.746.321.924.325.175.005.346.18.379.387.03.208-.189.624-.486.92-.408.408-.686.51-1.135.417-.327-.07-.816-.337-1.088-.595-.27-.26-.497-.731-.506-1.051-.011-.39.179-.725.579-1.028.326-.246.724-.446.885-.447m-.292 1.291c-.143.005-.329.128-.413.277-.09.16.061.426.368.65.421.31.575.332.796.11.225-.221.203-.347-.109-.658-.209-.212-.499-.383-.642-.379m-48.874-2.097c.134.046.272.414.311.823.043.469-.073.93-.324 1.261-.266.35-.517.473-.772.378-.232-.086-.388-.385-.401-.763-.013-.35.187-.87.461-1.199.266-.32.593-.545.725-.5M-75.104 5.827c-.219-.417-.402-.636-.407-.487-.006.15.123.539.287.866s.626.893 1.029 1.256c.4.366.973.736 1.27.827.298.088.581.106.631.039.049-.067-.074-.121-.27-.121-.2 0-.762-.366-1.253-.812s-1.071-1.153-1.288-1.568m1.302-2.163c-.302 0-.687.117-.854.26-.167.142-.284.458-.258.703.024.244.262.8.53 1.237.266.437.73.991 1.026 1.231.298.24.863.514 1.258.61.545.134.764.1.915-.147.11-.18.201-.617.202-.973.002-.357-.19-.966-.428-1.353s-.749-.898-1.136-1.136-.952-.432-1.255-.432M110.15 4.749c.208-.005.426.188.487.425.058.238-.026.701-.191 1.028-.164.326-.456.717-.648.866-.242.186-.45.203-.675.054s-.282-.399-.183-.812c.078-.326.297-.811.488-1.075.188-.264.515-.482.722-.486M-79.847-45.103c.43-.303.83-.356 1.947-.268a7.3 7.3 0 0 1 2.705.757c.887.44 1.81 1.184 2.92 2.35.894.939 1.939 2.237 2.324 2.884.385.649.91 2.005 1.17 3.017.422 1.65.44 1.915.165 2.583-.175.426-1.225 1.599-2.469 2.756-1.8 1.676-2.308 2.034-3.028 2.134-.476.065-1.353-.016-3.03-.475l-2.92 2.681a5060 5060 0 0 0-6.02 5.532c-1.706 1.568-3.36 3.023-3.678 3.23-.32.21-.989.378-1.497.379-.506.002-1.286-.152-1.731-.34a8.2 8.2 0 0 1-1.569-.942c-.415-.329-1.065-1.075-1.444-1.659-.379-.582-.806-1.546-.948-2.141-.206-.855-.203-1.264.013-1.948.197-.625.755-1.315 2.014-2.487.958-.891 2.061-1.914 2.453-2.271.392-.358 1.311-1.184 2.042-1.84.734-.655 1.88-1.687 2.549-2.295.67-.61 1.802-1.63 3.814-3.422l-.08-1.848c-.059-1.332.011-2.025.243-2.494.177-.357 1.04-1.29 1.919-2.073.878-.781 1.84-1.592 2.136-1.8m-50.298-.278c.779.034 1.688.241 2.272.52.536.255 1.746 1.13 2.691 1.939.978.841 2.157 2.127 2.743 2.99.604.887 1.304 2.32 1.694 3.46.365 1.07.664 2.165.662 2.434 0 .269-.136.756-.298 1.082s-1.26 1.507-2.434 2.62-2.331 2.164-2.57 2.336c-.35.254-.658.269-1.623.08-.653-.125-1.482-.376-1.839-.553-.607-.305-.683-.294-1.189.165-.297.27-.835.783-1.195 1.14-.359.357-1.763 1.67-3.122 2.92s-3.206 2.947-4.108 3.771c-.9.824-1.927 1.775-2.284 2.115s-.941.673-1.298.74-.989.054-1.406-.028-1-.277-1.298-.43c-.297-.154-1.069-.803-1.716-1.439-.686-.677-1.395-1.655-1.707-2.35-.409-.91-.512-1.456-.447-2.323.08-1.064.166-1.214 1.386-2.38a165 165 0 0 1 3.113-2.868c.995-.893 2.127-1.915 2.514-2.271.388-.358 1.275-1.156 1.971-1.777.697-.618 1.735-1.545 3.342-2.983l-.253-1.19c-.138-.655-.192-1.653-.116-2.217q.133-1.028.837-1.934c.387-.498 1.036-1.205 1.445-1.568a18 18 0 0 1 1.577-1.223c.459-.307.954-.623 1.097-.696.145-.076.846-.113 1.559-.082M71.859-44.36c.582-.004 1.425.176 1.947.416.506.234 1.39.891 1.963 1.46.663.66 1.193 1.45 1.46 2.172.229.625.42 1.404.42 1.73.002.327-.17 1.078-.38 1.668-.34.957-1.365 2.041-9.423 9.953-6.571 6.454-9.258 8.955-9.843 9.166-.452.162-1.27.242-1.882.188-.595-.054-1.471-.294-1.947-.532-.476-.24-1.262-.86-1.746-1.38-.485-.518-1.015-1.334-1.177-1.81s-.292-1.352-.288-1.947c.006-.6.184-1.42.398-1.839.218-.42 4.392-4.787 9.28-9.706 4.89-4.923 9.185-9.082 9.542-9.24.357-.16 1.112-.294 1.676-.299m38.67 1.093c.418-.009 1.391.086 2.163.212.775.125 2.137.472 3.029.768.893.297 2.257.913 3.029 1.37a25 25 0 0 1 2.676 1.88c.696.577 1.785 1.685 2.417 2.457.629.773 1.542 2.232 2.026 3.245.487 1.012.991 2.423 1.123 3.137s.197 1.979.145 2.812c-.054.833-.288 1.952-.524 2.488-.233.534-.979 1.729-1.656 2.65-.677.922-1.694 2.012-2.259 2.423-.564.41-1.709.965-2.542 1.234-1.17.376-1.982.482-3.569.463-1.276-.015-2.67-.187-3.678-.45-.891-.234-2.255-.742-3.029-1.128a25 25 0 0 1-2.704-1.616c-.714-.502-1.958-1.635-2.765-2.515-.835-.913-1.822-2.298-2.298-3.224-.458-.893-1.011-2.16-1.232-2.812-.277-.823-.398-1.792-.39-3.137.009-1.696.095-2.13.662-3.354.359-.772.996-1.942 1.415-2.596s1.19-1.573 1.711-2.042c.524-.47 1.389-1.04 1.923-1.272.537-.231 1.558-.548 2.272-.7.714-.153 1.64-.284 2.055-.293m-256.228 17.244c-.485-.09-.79.029-1.359.528-.566.5-.73.814-.726 1.382.004.403.213 1.147.467 1.653.255.507.822 1.359 1.263 1.893.45.547 1.311 1.235 1.971 1.57.645.33 1.367.602 1.605.604.239.002.701-.192 1.028-.435.506-.374.595-.595.591-1.468-.005-.755-.198-1.37-.73-2.326-.398-.714-1.103-1.594-1.563-1.958a20 20 0 0 0-1.381-.993 4 4 0 0 0-1.166-.45m198.271.913c-.125 0-.337.189-.469.42-.134.23-.233.91-.222 1.514.01.614.201 1.45.432 1.906.228.446.74 1.123 1.136 1.504.398.38 1.088.843 1.533 1.027.446.184 1.226.335 1.732.335.57 0 1.206-.181 1.676-.475l.757-.474c-1.845-.281-2.769-.591-3.245-.87-.476-.277-1.18-.859-1.568-1.29-.387-.432-.84-1.052-1.006-1.38-.167-.326-.355-.96-.416-1.405-.063-.446-.214-.811-.34-.812m-147.066-.865a.47.47 0 0 0-.38.216c-.064.119.124.216.423.216.296 0 .809.137 1.135.303.327.165 1.106.847 1.731 1.515.625.666 1.135 1.332 1.136 1.481.002.15-.46-.257-1.028-.902-.564-.644-1.416-1.349-1.892-1.564-.476-.214-1.201-.392-1.612-.396-.44-.002-.837.134-.967.331-.121.184-.2.721-.173 1.19.026.47.242 1.244.48 1.72.237.476.798 1.27 1.244 1.765.445.493 1.2 1.075 1.676 1.294.476.216 1.231.396 1.677.398.528.002.963-.147 1.244-.428.348-.348.406-.61.305-1.352-.072-.506-.361-1.406-.645-2.001s-.932-1.486-1.44-1.98c-.508-.495-1.313-1.103-1.79-1.352-.474-.25-.98-.454-1.124-.454m58.672-18.577c.714-.017 2.856.11 4.76.283s3.671.392 3.926.487 1.118.9 1.918 1.793a73 73 0 0 1 2.804 3.354c.74.952 1.606 2.12 2.497 3.46l-.233 3.03c-.13 1.666-.301 3.92-.381 5.008-.117 1.56-.243 2.088-.595 2.488-.249.28-1.26 1.434-2.25 2.564a361 361 0 0 0-1.933 2.214c-.071.09-1.2.308-2.508.483-1.31.177-3.72.399-8.33.656l-8.872-8.87.02-4.002c.01-2.202.084-4.456.164-5.013.132-.936.374-1.253 3.325-4.368 2.337-2.464 3.345-3.381 3.786-3.446.334-.05 1.188-.104 1.902-.121m137.189 10.57c-.082.653-.054 1.724.061 2.38.114.653.296 1.482.402 1.839s.461 1.183.79 1.839c.329.653.867 1.578 1.2 2.054.331.476 1.271 1.509 2.086 2.294.818.786 2.069 1.8 2.782 2.256.714.454 2.029 1.093 2.92 1.417.894.325 2.379.697 3.3.826 1.131.16 2.153.171 3.137.03.805-.114 1.899-.363 2.433-.553.537-.19 1.292-.534 1.677-.766.387-.231.679-.47.649-.528-.031-.06-.445.048-.919.24-.476.193-1.449.434-2.163.535-.764.11-2.075.1-3.192-.024-1.146-.128-2.637-.487-3.788-.913-1.042-.387-2.468-1.045-3.169-1.46-.699-.418-1.973-1.439-2.828-2.272-.857-.832-1.979-2.148-2.496-2.92-.517-.775-1.181-1.943-1.476-2.596-.294-.656-.696-2.018-.895-3.028l-.361-1.84zm65.409-11.886c.18-.006.667.078 1.082.189.418.11 1.268.597 1.893 1.082.64.495 1.337 1.278 1.599 1.798.255.506.467 1.26.471 1.675.005.442-.201 1.074-.993 2.272l1.141 2.705-.449.595c-.389.517-.417.71-.222 1.46.177.68.16.958-.082 1.298-.171.237-1.264 1.443-4.548 4.923l-4.976.167-1.568 1.512c-.861.829-1.565 1.555-1.568 1.618 0 .06-.609.72-1.353 1.467a69 69 0 0 0-2.48 2.65c-1.104 1.262-1.158 1.294-2.38 1.376-.987.067-1.502-.028-2.441-.445-.655-.292-1.607-.963-2.12-1.491-.655-.68-1.026-1.309-1.262-2.15-.198-.714-.269-1.45-.178-1.84.085-.357.765-1.33 1.515-2.162a186 186 0 0 1 3.443-3.678c1.144-1.19 2.382-2.553 3.427-3.894l-.931-3.353.747-.92c.411-.507 1.385-1.577 2.163-2.38.779-.802 1.49-1.412 1.579-1.355.09.057.673-.48 1.298-1.19.625-.713 1.307-1.295 1.515-1.295s.889.195 1.514.433c.625.237 1.306.435 1.514.44.208.001.609-.256.888-.574.281-.318.717-.655.972-.748.256-.095.613-.178.79-.185m-149.11.206c.507-.002 1.43.107 2.056.24.625.135 1.817.584 2.65 1.002 1.058.53 2.006 1.257 3.142 2.406.895.906 1.888 2.134 2.21 2.73.32.594.727 1.763.905 2.596.231 1.096.264 1.782.119 2.487-.119.571-.548 1.422-1.04 2.056-.46.595-1.167 1.229-1.571 1.406-.427.188-1.284.312-2.035.292-.713-.017-1.687-.173-2.163-.346-.828-.301-.9-.29-1.702.249-.46.309-.973.83-1.135 1.157-.165.326-.641.766-1.061.973-.42.208-.758.476-.757.595.002.12-.946 1.142-2.105 2.272-1.16 1.128-2.28 2.323-2.488 2.65-.207.327-.647.688-.973.803-.327.112-.766.454-.974.757-.208.302-.695.707-1.082.9-.387.195-1.287.374-2 .4-.715.026-2.07.134-4.724.439l.174-1.405a35 35 0 0 0 .205-2.921c.024-1.06.154-1.71.437-2.163.223-.357.537-.723.697-.812s.441-.528.627-.974c.184-.445.55-1.032.812-1.304.26-.27.571-.487.69-.48.12.005.46-.353.757-.8.298-.448.844-1.011 1.214-1.251s.774-.68.902-.978c.126-.296.521-.736.878-.974.36-.238.95-.845 1.315-1.351.368-.506.911-1.017 1.207-1.136.44-.175.565-.407.663-1.244.069-.573.012-1.313-.128-1.677-.137-.357-.255-1.183-.264-1.839-.009-.672.13-1.473.317-1.839.184-.357.613-.982.954-1.388.342-.407 1.01-.918 1.487-1.132.476-.214 1.279-.393 1.785-.396M-22.37-24.676c-1.709.054-2.547.101-2.962.14-.418.04-1.973.178-3.457.305l-2.7.235c-1.177 1.401-2.006 2.32-2.603 2.946s-1.003 1.21-.906 1.298 1.703.03 3.57-.128c1.864-.158 3.854-.379 4.42-.487.843-.162 1.213-.4 2.07-1.335a65 65 0 0 0 1.806-2.055zm172.324-3.44c-.089.014-.771.694-1.515 1.514-.973 1.075-1.351 1.66-1.349 2.088 0 .326.227 1.082.504 1.677.274.595.835 1.365 1.242 1.709.407.346 1.055.76 1.442.92.388.16 1.167.291 1.732.293.99.003 1.077-.052 2.396-1.46l1.367-1.462c-1.282-.189-1.996-.424-2.412-.647-.417-.223-1.185-.848-1.711-1.393-.523-.543-1.084-1.305-1.244-1.692s-.29-.897-.29-1.136c0-.237-.073-.421-.162-.41m-189.566-3.912c-.059.009-1.009.985-2.11 2.17-1.098 1.183-1.995 2.224-1.992 2.316.007.09 1.247 1.41 2.758 2.928 1.512 1.523 3.263 3.205 3.886 3.733l1.135.965 3.678-4.328c-4.441-4.612-6.073-6.366-6.49-6.875-.415-.51-.804-.918-.865-.909m93.708 5.189c-.102 0-.364.177-.58.395-.243.242-.38.665-.357 1.082.022.377.19 1.052.379 1.497.186.446.653 1.201 1.04 1.677s1.233 1.133 1.88 1.462c.768.392 1.512.597 2.148.597.535 0 1.192-.147 1.46-.326s.487-.401.485-.49-.44-.185-.973-.216c-.534-.03-1.434-.284-1.999-.567-.565-.281-1.344-.865-1.731-1.298a9 9 0 0 1-1.136-1.65c-.238-.476-.433-1.158-.433-1.515s-.082-.648-.183-.648m-146.743.025c-.442-.102-.946-.099-1.136.005-.272.147-.107.311.781.78.619.327 1.596 1.082 2.172 1.677.575.595 1.288 1.57 1.582 2.164s.534 1.3.532 1.568c-.002.286.11.456.268.415.149-.039.36-.307.47-.594.142-.379.084-.825-.21-1.606-.223-.595-.775-1.544-1.227-2.11-.45-.564-1.183-1.27-1.629-1.57s-1.169-.627-1.603-.729m-52.173-.242c-.279 0-.572.05-.65.108-.08.06.345.377.942.703.597.327 1.497.998 2.001 1.489.504.49 1.228 1.464 1.611 2.163s.699 1.488.703 1.757c.002.268.104.487.223.487s.313-.196.432-.434.154-.7.078-1.027c-.078-.327-.359-1.032-.625-1.568-.266-.535-.982-1.437-1.592-2.001-.608-.565-1.447-1.173-1.863-1.353-.417-.177-.983-.324-1.26-.324M4.823-21.648c-.638-.644-.748-.692-.744-.324.002.238-.043.652-.1.92-.095.432-.02.486.652.486.415 0 .797-.073.85-.162.05-.089-.245-.503-.658-.92m.171-4.759c-.1 0-.342.292-.54.649-.202.357-.364.894-.364 1.19 0 .299.138.81.306 1.136.17.327.68.952 1.136 1.387.454.437 1.219.912 1.695 1.06.709.22.997.214 1.596-.035.403-.167.814-.4.913-.52.112-.134-.2-.34-.824-.54-.554-.178-1.44-.714-1.97-1.19s-1.145-1.231-1.368-1.677c-.22-.445-.403-.956-.403-1.136 0-.177-.08-.323-.177-.324M111.61-42.27a12.7 12.7 0 0 0-2.379.07c-.655.092-1.629.33-2.164.528-.536.197-1.315.618-1.73.936-.418.318-.932.775-1.149 1.015-.216.242-.629.926-.921 1.52-.29.595-.591 1.616-.666 2.272-.078.662-.024 1.815.121 2.596.149.804.694 2.282 1.276 3.453.736 1.484 1.432 2.49 2.529 3.654.833.885 2.098 2.003 2.812 2.485.714.48 2.004 1.197 2.867 1.59.954.435 2.395.857 3.678 1.075 1.726.295 2.403.319 3.731.126.892-.13 2.086-.44 2.651-.686.564-.247 1.43-.814 1.919-1.259.491-.446 1.135-1.298 1.431-1.892.357-.717.578-1.596.652-2.597.082-1.131-.01-1.98-.358-3.353a11.9 11.9 0 0 0-1.41-3.353c-.517-.833-1.462-2.087-2.103-2.788-.638-.701-1.744-1.689-2.458-2.193a24 24 0 0 0-2.649-1.591c-.744-.373-2.058-.861-2.921-1.09s-2.105-.462-2.759-.518M-91.98-27.925c-.426.002-.842.077-.92.166-.08.088.341.381.936.65.595.268 1.623.996 2.285 1.621s1.443 1.623 1.733 2.218c.292.595.525 1.325.52 1.622-.012.487.02.509.33.217.188-.178.338-.617.33-.974-.007-.357-.189-1.038-.403-1.514-.212-.476-.771-1.29-1.238-1.806-.47-.517-1.291-1.227-1.826-1.573-.622-.405-1.252-.63-1.748-.627m-51.61-.425c-.253-.002-.571.143-.703.32-.188.253-.158.35.139.444.207.067.806.336 1.33.595.523.262 1.439 1.012 2.034 1.665.595.656 1.261 1.603 1.481 2.11s.401 1.114.401 1.352.097.432.216.433c.118 0 .264-.145.325-.324.058-.178.107-.594.105-.92s-.231-1.082-.512-1.677c-.284-.595-.987-1.555-1.569-2.135-.58-.58-1.443-1.235-1.919-1.456s-1.073-.403-1.328-.407m198.939.059c-.379.38-.492.716-.457 1.356.025.47.22 1.242.435 1.718.214.476.722 1.207 1.131 1.625s1.18.975 1.716 1.241a4.95 4.95 0 0 0 2.054.485c.612.003 1.294-.136 1.569-.32.268-.18.487-.4.487-.49 0-.088-.364-.183-.811-.21-.446-.025-1.177-.195-1.623-.377s-1.21-.697-1.698-1.143c-.488-.445-1.066-1.103-1.287-1.46-.218-.357-.537-1.161-.708-1.789l-.306-1.142zm-146.194-.712c-.337 0-.694.065-.794.143-.1.08-.165.227-.145.324.02.1.182.182.361.182.178 0 .641.16 1.028.36.388.197 1.272.902 1.968 1.568.697.664 1.418 1.501 1.602 1.858s.441 1.006.571 1.443c.24.79.242.792.593.325.326-.437.32-.553-.1-1.66-.288-.76-.886-1.651-1.651-2.462-.66-.699-1.564-1.453-2.01-1.676s-1.087-.405-1.423-.405m-51.351-.221c-.441.002-.855.102-.92.22-.065.12.075.217.313.217s.994.425 1.677.942c.684.519 1.633 1.466 2.109 2.106s1.026 1.653 1.218 2.25c.333 1.015.371 1.054.596.598.134-.268.242-.682.242-.92s-.158-.749-.351-1.136-.71-1.19-1.149-1.785c-.441-.595-1.283-1.4-1.869-1.789-.731-.484-1.319-.707-1.866-.703m149.134.437c-.1.001-.408.226-.689.5-.385.379-.502.712-.474 1.352.024.523.29 1.248.692 1.88.357.564 1.04 1.27 1.516 1.568.476.297 1.231.628 1.677.736.638.154.95.114 1.461-.182.357-.206.793-.543.973-.744.296-.338.272-.37-.27-.361-.328.006-1.05-.208-1.603-.476-.554-.268-1.286-.802-1.623-1.19a9 9 0 0 1-1.047-1.568c-.238-.476-.433-1.013-.433-1.19 0-.18-.08-.324-.18-.325M57.58-30.51c-.089.004-.333.247-.541.54-.208.295-.376.85-.374 1.238.002.387.18 1.093.394 1.569.212.475.733 1.255 1.157 1.73.426.477 1.246 1.102 1.826 1.393.647.323 1.447.533 2.074.541.783.01 1.136-.101 1.508-.473l.487-.487a6.4 6.4 0 0 1-2.043-.314c-.536-.175-1.46-.742-2.054-1.26-.606-.529-1.346-1.461-1.68-2.119-.328-.647-.596-1.443-.594-1.77 0-.325-.072-.591-.16-.588m93.066 1.655c-.093.078-.155.441-.135.807.017.367.305 1.106.64 1.642.334.535.944 1.229 1.355 1.542.411.314 1.088.74 1.506.95.415.21 1.129.381 1.581.381.454-.002.937-.112 1.071-.249.184-.181.084-.244-.392-.242-.35.002-1.124-.234-1.719-.523s-1.465-.95-1.935-1.465c-.467-.515-1.066-1.396-1.328-1.958-.264-.562-.553-.96-.644-.885M-89.817-30.08c-.308-.003-.64.06-.74.138-.1.08-.164.227-.145.324.02.1.182.182.361.182.178 0 .69.189 1.136.42s1.224.79 1.728 1.244c.504.452 1.26 1.408 1.68 2.122.418.714.756 1.492.75 1.73-.01.388.024.399.331.109.188-.18.338-.57.331-.865-.004-.299-.292-1.028-.638-1.623-.345-.595-1.05-1.515-1.567-2.042s-1.328-1.134-1.804-1.346c-.475-.214-1.116-.391-1.423-.393m-50.77-.184c-.713-.158-.984-.137-1.196.095-.221.242-.219.3.002.3.154 0 .731.269 1.287.595.556.327 1.456 1.083 2.001 1.68s1.209 1.522 1.475 2.055.48 1.214.476 1.512c-.006.486.029.508.338.216.188-.18.339-.64.333-1.027-.004-.387-.143-1.02-.305-1.407-.164-.387-.613-1.092-1-1.568a11.4 11.4 0 0 0-1.597-1.556c-.491-.38-1.308-.783-1.814-.895m52.19-.753c-.356-.067-.788-.071-.961-.009-.171.06-.295.202-.271.31s.214.203.422.208c.21.004.69.174 1.07.378.381.203 1.197.857 1.816 1.452.616.595 1.4 1.568 1.739 2.163s.614 1.323.61 1.622c-.006.485.028.509.335.217.19-.18.34-.57.333-.866-.006-.298-.24-1.028-.518-1.622-.28-.595-.983-1.528-1.567-2.073-.582-.545-1.352-1.142-1.709-1.326a5.7 5.7 0 0 0-1.299-.454m96.791.62c-.395.425-.507.763-.466 1.41.03.466.188 1.116.35 1.445.163.326.772 1.012 1.352 1.524.582.51 1.398 1.021 1.813 1.134.418.112.928.206 1.136.206.21 0 .67-.243 1.027-.54s.652-.614.654-.702c.001-.091-.362-.233-.812-.318-.448-.086-1.252-.43-1.789-.768-.534-.336-1.212-.948-1.506-1.359a9 9 0 0 1-.886-1.67l-.353-.924zm143.561.096c-.227 0-.324.228-.324.758 0 .415.181 1.122.404 1.568s.76 1.126 1.191 1.514c.432.387 1.15.885 1.595 1.11.446.223 1.104.469 1.461.549s.918.043 1.244-.082c.326-.123.596-.298.599-.387.002-.089-.364-.232-.812-.316-.448-.085-1.399-.528-2.113-.985l-.083-.056c-.145-.044-.451-.232-.776-.486-.345-.27-.695-.645-.863-.912a4 4 0 0 1-.288-.34c-.391-.528-.757-1.18-.811-1.448s-.247-.487-.424-.487M-35.108-43.5c-1.51-.003-2.785.073-2.836.166s-.243 1.577-.433 3.3c-.188 1.721-.41 3.956-.49 4.968-.116 1.478-.077 1.977.207 2.542.192.387 1.884 2.272 3.758 4.189l3.407 3.487c2.012-.208 4.2-.377 6.165-.509 2.191-.147 3.626-.335 3.713-.486.08-.135.201-.975.27-1.867l.344-4.381.216-2.758c-1.735-2.432-2.667-3.672-3.193-4.327a44 44 0 0 0-2.207-2.488l-1.255-1.298c-3.811-.418-6.156-.538-7.666-.538m-104.74 12.117c-.395 0-.785.071-.865.162-.079.089.367.409.991.709.625.3 1.575 1.021 2.11 1.596.536.578 1.209 1.403 1.497 1.834.285.43.577 1.142.648 1.58.102.64.182.747.407.542a.97.97 0 0 0 .271-.637c-.007-.21-.16-.744-.344-1.19-.186-.447-.66-1.153-1.054-1.568-.395-.418-.805-.918-.911-1.112-.104-.195-.603-.706-1.109-1.136-.656-.558-1.126-.78-1.641-.78m198.693-.397c-.411.424-.468.654-.358 1.476.072.534.418 1.484.773 2.11.355.624.96 1.366 1.347 1.65.388.283 1.043.685 1.46.895.463.232 1.177.366 1.84.347.696-.022 1.217-.167 1.466-.41.212-.205.383-.423.379-.482-.005-.06-.373-.136-.817-.17-.446-.035-1.201-.234-1.677-.444s-1.28-.79-1.785-1.29c-.507-.499-1.114-1.298-1.352-1.774s-.513-1.213-.61-1.637l-.178-.775zm-145.227-1.125c-.441.002-.855.102-.92.22-.065.12.1.215.368.213.269-.002.681.14.92.318.237.177.335.322.216.322-.119.003-.606-.086-1.082-.192-.569-.13-1.014-.117-1.298.034-.387.206-.32.271.65.617.698.251 1.52.814 2.325 1.594.683.662 1.486 1.692 1.785 2.287.296.595.54 1.277.541 1.515 0 .24.121.4.27.361s.303-.308.344-.595c.039-.289-.227-1.23-.594-2.092-.368-.863-.622-1.569-.561-1.569.06.002.4.512.755 1.136.355.625.643 1.428.64 1.785-.008.584.026.616.335.325.189-.18.34-.64.334-1.028-.005-.387-.167-1.019-.362-1.406-.192-.387-.662-1.092-1.043-1.568-.383-.476-1.172-1.184-1.759-1.574-.728-.484-1.317-.707-1.864-.703m-52.33 1.09c-.14 0-.162.116-.054.293.1.162.667.716 1.262 1.23.595.515 1.491 1.478 1.99 2.14.5.66.986 1.515 1.081 1.896.139.555.23.642.455.432.154-.143.274-.48.27-.746a2.7 2.7 0 0 0-.257-.973c-.136-.269-.745-1.11-1.352-1.87-.725-.908-1.458-1.56-2.133-1.893-.565-.281-1.132-.51-1.262-.51m292.23 1.457c-.448-.852-.581-.971-.782-.703-.17.23-.177.58-.026 1.191.119.476.496 1.181.838 1.569l.052.055q.216.155.653.556c.173.16.332.316.47.456q.15.116.285.21c.463.315 1.352.68 1.975.81.679.143 1.333.163 1.622.05.452-.172.435-.199-.27-.35-.415-.091-1.194-.387-1.731-.66-.534-.272-1.326-.87-1.758-1.326a9.8 9.8 0 0 1-1.328-1.858m-291.669-2.531c-.407-.002-.848.197-1.181.534-.387.387-.444.536-.206.536.179 0 .44-.121.578-.27.199-.214.49-.153 1.396.295.629.31 1.611 1.04 2.182 1.622s1.227 1.447 1.458 1.924c.229.475.415 1.106.411 1.405-.006.489.029.51.351.216.266-.242.324-.534.226-1.135-.073-.446-.278-1.103-.456-1.46-.179-.357-.69-1.05-1.135-1.536-.446-.487-1.299-1.166-1.894-1.508s-1.373-.623-1.73-.623m249.437-3.584c.55-.208 1.262-.29 1.947-.223.6.06 1.757.435 2.596.844.943.46 1.828 1.094 2.345 1.683.456.519 1.065 1.406 1.352 1.97a4.75 4.75 0 0 1 .528 2.164c.004.923-.117 1.307-.649 2.055-.447.63-.911.997-1.467 1.166-.467.14-1.361.19-2.109.114a7.9 7.9 0 0 1-2.488-.728c-.656-.33-1.629-1.04-2.163-1.58-.537-.538-1.242-1.514-1.571-2.165-.339-.673-.596-1.54-.594-2 0-.445.134-1.126.296-1.513s.478-.872.703-1.08.798-.525 1.274-.707m-100.26 3.356c-.111 0-.414.256-.672.57-.291.356-.46.845-.447 1.297.013.4.205 1.095.428 1.54s.783 1.146 1.244 1.552 1.156.87 1.543 1.028 1.02.29 1.406.292c.5.004.89-.184 1.352-.654.625-.633.631-.657.162-.653-.268.002-.95-.228-1.514-.51s-1.393-.916-1.839-1.407c-.445-.49-.958-1.183-1.135-1.54-.18-.357-.325-.844-.325-1.082s-.091-.432-.204-.433m50.034-.858c-.1.004-.353.246-.561.54s-.376.753-.374 1.021c.002.269.123.87.27 1.34.145.469.703 1.336 1.24 1.929.54.6 1.454 1.299 2.055 1.58.608.281 1.508.505 2.055.51.66.006 1.095-.115 1.346-.376.205-.212.376-.435.38-.493.002-.06-.31-.139-.698-.173-.387-.035-1.092-.239-1.568-.448-.476-.212-1.242-.718-1.701-1.127a10 10 0 0 1-1.458-1.714c-.344-.537-.666-1.339-.716-1.784s-.171-.809-.27-.805m93.221 1.29c-.145 0-.325.27-.398.596-.098.426.041.929.482 1.77.465.883.954 1.406 1.971 2.109.744.514 1.668.995 2.056 1.069.387.073.971.073 1.297 0 .327-.074.595-.232.595-.35 0-.12-.218-.217-.486-.215s-1.018-.266-1.662-.595c-.651-.331-1.601-1.08-2.126-1.679-.522-.595-1.064-1.447-1.207-1.893-.141-.445-.377-.81-.522-.811m-291.313-1.297c-.398 0-.802.065-.903.145-.099.078-.165.225-.145.325.02.097.255.177.523.175.269-.002.925.28 1.461.627.535.349 1.387 1.083 1.893 1.628.506.547 1.114 1.384 1.352 1.86s.433 1.06.433 1.298.073.432.162.432.284-.195.433-.432c.199-.318.212-.62.05-1.136-.124-.387-.463-1.117-.757-1.623-.297-.506-.903-1.27-1.349-1.698-.446-.429-1.176-.965-1.622-1.19-.445-.227-1.135-.41-1.531-.41m248.967-.415c-.357.013-.978.137-1.378.273-.714.243-.727.27-.606 1.222.078.601.417 1.407.891 2.11.422.625 1.214 1.451 1.76 1.838.545.388 1.397.868 1.892 1.069.495.203 1.365.372 1.93.379.563.006 1.171-.035 1.351-.095.221-.074.326-.401.324-1.028-.003-.507-.231-1.407-.505-2.001-.301-.645-.976-1.504-1.674-2.124-.764-.68-1.55-1.151-2.255-1.355-.595-.17-1.374-.3-1.73-.288m-197.21.203c-.306-.002-.64.06-.74.14-.099.079-.166.2-.146.271.018.07.35.242.74.385.386.143 1.142.59 1.679.99.534.4 1.39 1.354 1.901 2.12.51.765.971 1.706 1.027 2.093.085.601.148.664.433.433.184-.15.33-.563.32-.92-.006-.357-.205-1.062-.441-1.569s-.892-1.42-1.456-2.033c-.564-.612-1.417-1.29-1.893-1.51-.475-.216-1.116-.398-1.424-.4m240.411.753c-.121-.076-.228.13-.245.474-.016.359.225.963.59 1.473.34.476.977 1.181 1.414 1.569s1.062.836 1.388 1c.327.165.934.364 1.352.444l.758.144a97 97 0 0 1-2.811-2.248c-.835-.69-1.686-1.395-1.895-1.569-.207-.173-.368-.502-.357-.733.013-.231-.076-.48-.194-.554m-186.2-7.155c.602.039 1.587.324 2.218.637.625.312 1.582.98 2.13 1.487.544.506 1.267 1.358 1.605 1.892.335.537.776 1.558.98 2.272.248.874.322 1.616.225 2.271-.08.537-.339 1.317-.577 1.732-.238.417-.787 1.002-1.22 1.298-.667.46-1.032.54-2.424.54-1.393 0-1.829-.097-2.912-.649-.72-.367-1.754-1.164-2.384-1.839-.61-.653-1.372-1.724-1.692-2.38-.32-.653-.644-1.676-.72-2.27-.076-.596-.033-1.496.099-2.002.142-.551.563-1.248 1.05-1.743.454-.46 1.192-.933 1.676-1.071.476-.137 1.352-.216 1.946-.175m-7.995-1.559c-.026-.03-1.107 1.073-2.405 2.453-1.3 1.378-2.423 2.767-2.499 3.085s-.15 2.28-.167 4.364l-.027 3.786 4.298-4.543c.385-4.861.575-6.906.67-7.68s.154-1.43.13-1.465m208.7 9.506c-.09.022-.914.093-1.832.162-1.649.126-1.682.14-2.776 1.21-.608.594-1.415 1.462-1.792 1.927l-.685.846c3.766-.221 3.927-.269 4.407-.853a52 52 0 0 1 1.676-1.866c.64-.684 1.163-1.294 1.164-1.353 0-.06-.074-.092-.162-.073m-305.564-2.41c-.32-.002-.629.07-.687.158-.056.089.395.405 1.003.703.61.297 1.551.937 2.094 1.421.543.483 1.257 1.408 1.586 2.055.327.644.595 1.394.595 1.662-.002.268.074.486.169.486s.292-.121.436-.27.263-.418.258-.595c-.002-.18-.249-.835-.546-1.46-.296-.625-.998-1.638-1.565-2.25-.565-.612-1.418-1.291-1.894-1.51-.476-.216-1.126-.398-1.449-.4m295.828-1.3c-.09.001-.916.83-1.839 1.838-.92 1.009-1.647 1.867-1.622 1.908.031.041.834.701 1.785 1.469.952.766 2.072 1.654 2.488 1.972l.757.575c2.366-2.579 3.12-3.45 3.204-3.6.092-.166-.238-.628-.85-1.19a37 37 0 0 0-2.38-1.947c-.759-.565-1.451-1.027-1.543-1.026M-83.747-35.19c-.556-.095-.849-.037-1.082.225-.286.315-.274.353.113.346.238-.004.92.275 1.514.618.595.344 1.39.952 1.767 1.35.379.398.94 1.212 1.251 1.807s.56 1.35.558 1.677c-.004.432.083.564.318.486.18-.061.385-.376.456-.702.08-.362-.023-.981-.261-1.57-.219-.536-.764-1.436-1.214-2s-1.233-1.27-1.74-1.567c-.504-.296-1.26-.598-1.68-.67m-50.821-6.581c-.115 0-.462.316-.769.703-.521.651-.554.818-.443 2.272.065.863.217 1.616.336 1.676s.337-.044.486-.225c.149-.184.513-.33.811-.32.297.006.931.188 1.407.398.476.212 1.285.723 1.8 1.132.514.41 1.271 1.233 1.684 1.828.415.595.892 1.616 1.063 2.271.287 1.11.278 1.238-.12 1.893-.232.386-.401.744-.372.798.031.052.639.245 1.353.428 1.205.31 1.326.308 1.689-.04.215-.206.496-.715.623-1.132.201-.655.156-.93-.352-2.055-.322-.714-1.032-2.03-1.579-2.92-.548-.894-1.391-2.043-1.878-2.556-.485-.512-1.224-1.137-1.64-1.386-.417-.25-1.464-.9-2.332-1.448-.865-.545-1.57-1.066-1.568-1.155.004-.088-.087-.162-.199-.162M62.42-35.352c-.51.534-.566.727-.439 1.48.08.475.363 1.302.627 1.838.264.535.86 1.281 1.323 1.658.463.378 1.28.886 1.814 1.13.537.247 1.34.45 1.785.453a2.06 2.06 0 0 0 1.406-.506l.595-.511c-1.676-.225-2.552-.52-3.028-.8s-1.279-.96-1.785-1.509c-.504-.547-1.03-1.265-1.166-1.591-.139-.327-.316-.97-.399-1.426l-.146-.831zm-49.463.289c-.12 0-.41.316-.647.703s-.43.849-.428 1.029c0 .177.227.811.502 1.406.277.595.835 1.363 1.242 1.709s1.057.759 1.442.919c.388.16 1.07.294 1.515.297.59.004.961-.146 1.353-.546l.54-.552c-.753.008-1.434-.207-1.997-.476-.564-.268-1.343-.802-1.73-1.19a8.3 8.3 0 0 1-1.178-1.56c-.26-.471-.454-1.055-.432-1.297.021-.242-.061-.442-.182-.442m-44.129-4.7a3.66 3.66 0 0 0-1.838.33c-.476.224-1.01.572-1.19.775-.29.328-.285.366.053.358.208-.005.38.089.38.208-.002.119-.196.264-.433.324-.238.06-.53.303-.649.541-.203.406-.162.423.702.298.602-.089 1.37-.005 2.218.242 1.04.303 1.54.619 2.52 1.597.671.668 1.424 1.655 1.67 2.19.28.6.447 1.386.438 2.055l-.016 1.08c-.586-1.844-.967-2.792-1.224-3.298-.258-.506-.833-1.274-1.278-1.707s-1.201-.96-1.677-1.172a8.5 8.5 0 0 0-1.722-.526c-.474-.076-1.078-.037-1.352.09-.272.128-.496.305-.5.394.002.089.462.241 1.028.334.569.095 1.324.311 1.68.484.358.174.992.591 1.407.933.415.34 1.066 1.192 1.447 1.895.379.7.768 1.692.865 2.2.152.795.25.921.716.915.296-.004.649-.078.781-.166.132-.087.414-.498.624-.915.274-.547.344-1.013.247-1.677-.076-.506-.382-1.406-.678-2-.299-.596-.82-1.399-1.16-1.786s-1.191-1.016-1.892-1.4c-.7-.382-1.493-.698-1.762-.703-.267-.004-.535-.104-.594-.222-.06-.12.037-.265.216-.325.18-.06.543-.106.811-.102s1.063.32 1.766.703c.7.383 1.611 1.087 2.018 1.563.409.476.998 1.351 1.307 1.946.437.84.564 1.409.575 2.54.006.8.06 1.46.121 1.469.059.004.29-.362.51-.812.312-.633.373-1.086.27-2.007-.074-.655-.36-1.676-.637-2.271-.275-.595-.98-1.574-1.566-2.175-.584-.6-1.551-1.324-2.146-1.61-.595-.283-1.522-.549-2.056-.59m144.297 3.932c-.534-.04-1.168-.019-1.406.048a3.5 3.5 0 0 0-.866.422c-.386.268-.287.3.973.295.774-.004 1.846.147 2.38.337.534.188 1.322.604 1.748.924.426.318 1.108.965 1.515 1.436.406.472.947 1.396 1.198 2.056.281.73.506 1.072.578.874.063-.177.021-.764-.096-1.298-.116-.534-.391-1.266-.61-1.623s-.869-1.081-1.444-1.611c-.578-.53-1.489-1.149-2.024-1.376-.534-.23-1.412-.445-1.946-.484m-147.379.988c-.207-.002-.379.116-.379.265-.002.15.204.66.452 1.136.251.476.86 1.288 1.355 1.805.493.517 1.384 1.222 1.98 1.566.593.346 1.154.629 1.243.63.089 0 .101-.315.028-.701-.076-.387-.357-1.14-.63-1.677-.272-.534-.77-1.235-1.11-1.555-.337-.32-1.053-.782-1.587-1.024-.537-.242-1.144-.443-1.352-.445m-100.33-1.187c-.415-.08-.846-.073-.954.016-.108.086-.181.24-.16.339.019.097.255.182.521.184.269.005.968.32 1.552.703.584.386 1.363 1.05 1.73 1.478.368.43.879 1.21 1.136 1.73.26.524.56 1.195.668 1.494l.201.54c.446-.868.431-1.21.176-2.055-.221-.738-.683-1.47-1.46-2.3-.623-.668-1.476-1.388-1.893-1.6a7 7 0 0 0-1.517-.529m56.567-8.497c-1.031-.102-1.148-.058-2.163.798-.59.5-1.537 1.363-2.104 1.919l-1.032 1.013c.006 2.43.105 3.184.224 3.245s.29 0 .38-.135c.101-.151.44-.186.918-.09.415.081 1.147.374 1.623.649.476.277 1.328 1 1.893 1.607.564.608 1.27 1.616 1.566 2.241s.539 1.404.541 1.73-.095.79-.214 1.028c-.19.383-.121.457.595.637.446.112 1.14.136 1.54.054.402-.083.826-.345.947-.582.121-.239.178-.873.124-1.407-.063-.65-.478-1.655-1.25-3.028-.635-1.13-1.504-2.432-1.934-2.89-.429-.462-1.558-1.353-2.51-1.982-.952-.63-2.023-1.39-2.38-1.688-.357-.296-.575-.6-.486-.669.09-.067.868.294 1.73.806.863.513 2.079 1.146 2.704 1.405s1.257.475 1.407.475.854-.535 1.568-1.19l1.298-1.188c-1.51-1.39-2.386-1.988-2.92-2.224-.537-.235-1.465-.475-2.065-.534m-4.904 8.387c-.438-.002-.853.093-.919.212-.065.119.052.217.26.217.21-.002.767.203 1.243.452.476.25 1.288.859 1.803 1.354.515.494 1.164 1.287 1.438 1.763.277.476.563 1.181.634 1.568.076.414.24.673.398.632.15-.04.303-.355.34-.703.036-.348-.102-1.071-.31-1.606-.21-.536-.824-1.449-1.366-2.033-.543-.582-1.379-1.237-1.855-1.456-.476-.216-1.225-.398-1.666-.4m-47.548-8.447c-.744.002-1.229.174-2.055.732-.595.402-1.255.914-1.467 1.137-.37.391-.361.422.217.826.331.232 1.135.725 1.791 1.097.653.372 1.774.891 2.488 1.153 1.243.456 1.32.46 1.839.102.523-.366.534-.363.354.047-.104.236-.236.573-.297.75-.058.178.155.91.475 1.623.32.714 1.108 2.077 1.75 3.029.64.952 1.315 1.95 1.497 2.218.181.268.281.584.223.703-.063.125-.293.058-.548-.162-.422-.364-.439-.362-.43.053.007.238.093.58.194.757.148.257.504.013 1.74-1.19.854-.832 1.598-1.685 1.65-1.893.054-.209-.063-.987-.26-1.73-.197-.745-.581-1.84-.858-2.434-.275-.595-.991-1.69-1.59-2.434-.995-1.234-1.121-1.323-1.467-1.034-.207.177-.475.326-.594.333s-.023-.192.215-.443l.433-.454c-1.341-1.144-2.314-1.772-3.028-2.133-.881-.446-1.612-.655-2.272-.653M64.134-37.1c-.182.288-.333.863-.333 1.278 0 .418.127 1.075.285 1.46.156.387.668 1.13 1.136 1.65s1.313 1.178 1.878 1.462c.564.283 1.44.574 1.947.648.776.115 1.019.052 1.568-.402l.65-.538c-1.593-.215-2.445-.472-2.921-.71s-1.266-.847-1.755-1.353c-.489-.504-1.041-1.211-1.225-1.568a11.4 11.4 0 0 1-.616-1.55l-.28-.898zm-50.08 1c-.14.511-.201 1.171-.134 1.468.067.298.37.93.675 1.406.303.476.863 1.086 1.244 1.352.38.269 1.105.634 1.61.811.594.21 1.16.27 1.594.163.372-.088.761-.283.865-.433.132-.185.007-.362-.404-.567-.327-.162-1.18-.777-1.894-1.365-.714-.586-1.747-1.674-2.297-2.414l-1.001-1.348zm-96.12-.898c-.342.008-.164.157.595.498.595.269 1.507.873 2.029 1.342.519.468 1.196 1.29 1.503 1.824.308.536.628 1.266.71 1.623l.15.648c.034-.921-.168-1.602-.425-2.108-.257-.504-.915-1.392-1.46-1.972-.545-.577-1.356-1.235-1.804-1.46-.445-.225-1.03-.402-1.299-.395m-51.278.283c-.447-.136-.856-.186-.911-.109-.054.076.361.353.924.62.562.263 1.402.797 1.867 1.189.465.39 1.14 1.146 1.499 1.68.359.537.783 1.317.941 1.732.263.69.279.698.165.107-.07-.357-.341-1.072-.598-1.593-.26-.522-1.057-1.496-1.774-2.164-.73-.684-1.656-1.324-2.113-1.462m147.657-3.001c-.35-.92-.455-1.077-.367-.54.07.417.407 1.34.748 2.054.342.714 1.082 1.833 1.645 2.489.56.655 1.467 1.56 2.012 2.011.547.455 1.674 1.151 2.506 1.55.833.397 1.952.78 2.489.847l.973.124c-1.845-.601-3.01-1.11-3.781-1.52-.772-.406-2.071-1.375-2.887-2.147s-1.788-1.894-2.165-2.488c-.374-.595-.902-1.666-1.173-2.38m-86.797-1.407c-.117 0-.796.561-1.51 1.245l-1.301 1.244c.6 1.676 1.248 2.941 1.828 3.893.578.952 1.18 1.879 1.333 2.056.156.177.283.445.285.595.005.149-.14.222-.318.162q-.324-.107-.324.325c0 .238.089.408.197.378.11-.032.74-.565 1.406-1.19.664-.625 1.3-1.306 1.412-1.514.13-.245.102-.874-.082-1.784-.155-.773-.552-1.942-.88-2.597s-.875-1.555-1.216-2.001c-.342-.445-.715-.81-.83-.812m90.205-3.68c-.537 0-1.3.172-1.7.382-.4.207-.917.72-1.149 1.135-.325.58-.396 1.01-.308 1.84.068.631.455 1.75.933 2.689.547 1.077 1.32 2.115 2.334 3.136 1.058 1.069 2.036 1.8 3.245 2.425.95.493 2.24 1.004 2.864 1.136.783.167 1.404.174 2.001.024.517-.13 1.084-.479 1.407-.866.296-.357.605-1.014.683-1.46.091-.51.007-1.335-.223-2.218-.203-.772-.681-1.923-1.062-2.554-.383-.63-1.235-1.701-1.894-2.38-.66-.677-1.781-1.538-2.489-1.912-.71-.377-1.825-.84-2.478-1.03-.656-.192-1.63-.348-2.164-.346m48.675 5.628c-.084 0-.33.178-.546.396-.26.26-.384.668-.358 1.19.022.437.166 1.11.324 1.497.156.387.669 1.129 1.136 1.648.467.522 1.338 1.192 1.933 1.489.649.326 1.49.554 2.102.569.757.02 1.136-.087 1.46-.407l.44-.433c-1.761-.255-2.661-.558-3.137-.837-.476-.277-1.218-.935-1.65-1.456-.43-.523-.941-1.268-1.136-1.655-.193-.387-.367-.995-.384-1.352-.017-.356-.1-.649-.184-.65m94.736-5.195c-.07.002-.362.316-.649.698-.285.38-.64.89-.783 1.135a2.4 2.4 0 0 0-.277.982c-.007.298.18 1.173.416 1.947.233.772.722 1.82 1.086 2.326.363.506 1.364 1.45 2.227 2.098s2.006 1.334 2.542 1.527c.762.273 1.396.319 2.921.206l1.947-.145c-.112-1.222-.034-1.819.1-2.117.195-.433.164-.734-.158-1.515l-.401-.974c-1.425 2.011-2.052 2.715-2.312 2.858-.262.145-.79.268-1.177.27-.387.005-1.044-.138-1.46-.315-.417-.177-1.26-.788-1.872-1.353-.612-.564-1.291-1.416-1.508-1.892s-.4-1.231-.402-1.677c-.004-.645.195-1.056.97-2.001.534-.655.973-1.236.973-1.298 0-.06-.464-.255-1.028-.434-.564-.18-1.083-.328-1.155-.326m-2.95 2.815c-.115 0-.939.803-1.83 1.785l-1.625 1.785c.808 3.017 1.112 4.024 1.192 4.182.104.2.636-.228 1.743-1.406 1.581-1.681 1.594-1.704 1.478-2.668a28 28 0 0 0-.435-2.326c-.175-.743-.411-1.35-.523-1.352m-90 .44c-.09.004-.334.246-.541.54s-.38.876-.38 1.291c0 .418.154 1.123.343 1.569.188.445.648 1.186 1.027 1.644.387.472 1.25 1.108 1.984 1.465.742.361 1.647.63 2.11.627.553-.002 1-.172 1.406-.538l.594-.535c-1.425-.011-2.18-.16-2.595-.337-.418-.177-1.248-.788-1.85-1.353-.601-.564-1.283-1.44-1.514-1.946s-.422-1.26-.422-1.677c0-.414-.074-.754-.162-.75m3.569-2.39c-.874.003-1.155.12-1.893.787-.748.675-.865.904-.861 1.676.002.49.181 1.282.395 1.758s.726 1.245 1.132 1.705c.407.461 1.177 1.063 1.713 1.335.535.273 1.363.52 1.84.55.475.028 1.083-.014 1.352-.094.268-.078.584-.337.703-.575.18-.36.153-.415-.162-.322-.208.058-.736.132-1.173.162-.437.028-.876-.024-.974-.117s.187-.164.632-.162c.445.004 1.103-.14 1.46-.318.357-.177.708-.543.777-.811.072-.269.054-.877-.037-1.353-.093-.476-.473-1.304-.847-1.839-.386-.549-1.195-1.28-1.857-1.678-.889-.535-1.421-.706-2.2-.703m91.78 5.918c.416.454 1.049.98 1.406 1.166s.918.421 1.245.523c.374.117.594.104.594-.032 0-.119-.147-.216-.324-.216-.179 0-.738-.206-1.244-.457a9 9 0 0 1-1.677-1.136l-.757-.68zM19.985-41.9c.387-.279.5-.23 1.3.575.812.824.932.877 1.79.76.788-.106.966-.054 1.252.363.316.459.3.517-.981 1.569l.642.865c.355.476.65.963.66 1.082.007.12-.142.363-.332.54-.309.292-.44.216-1.276-.757-.884-1.027-.96-1.069-1.503-.811-.313.149-.718.27-.895.27-.18 0-.447-.249-.596-.552-.247-.505-.215-.594 1.028-1.543l-.758-1.029c-.737-.998-.745-1.034-.33-1.332m144.132-1.098c-.06-.56-.071-.566-.417-.162-.194.23-.458.684-.586 1.01-.127.327-.168.864-.091 1.19.078.327.268.79.426 1.028q.286.432.076.703c-.147.19-.002.5.494 1.045.387.426 1.092.96 1.568 1.185.476.227 1.205.415 1.622.42.599.004.833-.122 1.118-.593a8 8 0 0 1 .812-1.083l.45-.488c-1.434-.311-2.339-.785-2.975-1.28-.625-.484-1.33-1.224-1.568-1.64s-.53-.757-.65-.757c-.118 0-.244-.26-.279-.578M21.805-40.01c-.262-.253-.314-.214-.357.27a3.4 3.4 0 0 1-.266 1c-.119.236-.166.43-.109.432.059 0 .377-.1.703-.223.446-.166.641-.154.778.054q.183.274.053-.102c-.082-.242.029-.475.305-.648.24-.149.435-.345.434-.434-.001-.088-.278-.137-.62-.107-.339.03-.755-.08-.921-.242M164.4-41.5c.005-.245.167-.111.459.378.251.417.803 1.049 1.229 1.406.424.357 1.264.816 1.865 1.021.634.214.889.374.608.378-.269.004-.95-.225-1.514-.508-.565-.28-1.393-.915-1.839-1.406-.445-.488-.809-1.061-.808-1.27m-94.847-.271c.136-.247.212-.167.31.324.073.357.297.991.498 1.407.204.417.373.806.377.865.002.06-.152-.038-.342-.217-.19-.178-.5-.714-.685-1.19-.201-.518-.266-.994-.158-1.189m92.798.786c-.104.082-.171.403-.15.71s.123.706.227.883c.103.177.298.25.43.162.132-.089.236-.333.232-.541-.002-.208-.13-.602-.279-.872-.15-.272-.357-.425-.46-.342m4.408-4.032c-.247 0-.733.292-1.081.648-.571.587-.611.72-.409 1.353.123.387.337.847.475 1.027.141.18.502.602.805.94s.917.8 1.363 1.027 1.128.416 1.515.42c.398.004.865-.16 1.075-.379.205-.212.376-.7.378-1.088a3.3 3.3 0 0 0-.298-1.298c-.169-.326-.632-.906-1.028-1.287-.398-.38-1.088-.844-1.534-1.028s-1.012-.335-1.261-.335"/></g></svg>