<svg xmlns="http://www.w3.org/2000/svg" fill="none" viewBox="0 0 32 32"><mask id="a" width="32" height="32" x="0" y="0" maskUnits="userSpaceOnUse" style="mask-type:alpha"><path fill="#d9d9d9" d="M0 0h32v32H0z"/></mask><g mask="url(#a)"><path fill="#e31e24" d="M-234.027 54.425c.52-.09 2.169-.125 3.661-.074 1.491.049 3.2.209 3.797.355.596.147 1.482.485 1.97.754.487.268 1.241.793 2.459 1.843l-.008-1.04c-.003-.835.072-1.111.384-1.4.329-.31.637-.363 2.077-.363 1.381 0 1.75.06 2.014.323.271.27.317.59.275 1.988-.025.916-.129 1.748-.228 1.848a.67.67 0 0 0-.179.407c.002.148.359.24 2.083.316l.04 5.876c.033 4.441-.013 5.931-.181 6.109-.123.13-.602.23-1.079.225-.474-.003-.9.075-.95.174-.05.1.035.282.189.407.222.18.278.628.27 2.17-.007 1.904-.017 1.95-.504 2.31-.395.293-.766.367-1.807.362-1.211-.005-1.353-.047-1.854-.548-.47-.468-.53-.64-.452-1.265.049-.398.049-.724 0-.724-.052.001-.601.41-1.22.908-.621.5-1.699 1.144-2.395 1.434-.696.289-1.796.613-2.441.718-.648.106-2.112.19-3.254.19-1.244 0-2.553-.113-3.254-.281-.648-.154-1.705-.557-2.351-.897a13.4 13.4 0 0 1-2.17-1.492c-.548-.481-1.37-1.439-1.829-2.129-.459-.689-1.041-1.783-1.296-2.429-.253-.647-.55-1.663-.658-2.26a15 15 0 0 1-.195-2.214c0-.622.13-1.76.289-2.53.157-.77.551-1.971.875-2.668a15.7 15.7 0 0 1 1.412-2.35c.452-.597 1.137-1.336 1.518-1.644a19 19 0 0 1 1.466-1.039 13 13 0 0 1 1.673-.842c.497-.2 1.33-.436 1.853-.528m10.429 16.714c-.247-.227-.341-.14-.805.772-.317.621-1.101 1.605-1.98 2.482-.808.808-1.937 1.716-2.539 2.047q-1.082.593-.542.463c.298-.07.868-.189 1.266-.261.397-.072.58-.14.406-.153-.175-.013-.276-.104-.226-.203s.558-.18 1.13-.18c.6.003 1.192-.102 1.402-.248.334-.233.305-.25-.362-.229-.397.013-.745-.058-.772-.157-.026-.1.299-.204.723-.233.43-.029.73.018.847.129l.078.103c.111.092.358-.019.865-.38.433-.309 1.054-.859 1.377-1.22.322-.362.584-.84.581-1.065-.002-.224.159-.57.358-.769.2-.198.325-.422.278-.497-.049-.074-.474-.138-.945-.141-.485-.002-.982-.115-1.14-.26m-9.256-15.987c-.522.009-1.275.093-1.672.19-.398.093-1.254.43-1.899.747-.685.338-1.703 1.082-2.44 1.782-.895.847-1.488 1.616-2.02 2.62-.416.782-.898 1.95-1.073 2.597q-.318 1.173-.312 3.074c.006 1.502.101 2.18.446 3.253.242.745.813 1.966 1.268 2.712.458.745 1.268 1.746 1.803 2.223s1.582 1.176 2.328 1.556c.924.47 1.729.734 2.531.83.646.076 1.42.083 1.718.014.541-.123.539-.124-.452-.578-.548-.25-1.43-.794-1.963-1.21s-1.278-1.162-1.658-1.659-.974-1.474-1.321-2.17-.76-1.855-.919-2.576c-.158-.721-.285-1.86-.284-2.531.002-.67.123-1.79.268-2.486s.633-2.018 1.081-2.938c.622-1.27 1.112-1.967 2.039-2.9.723-.726 1.68-1.463 2.351-1.808.618-.32 1.127-.62 1.13-.67-.002-.05-.43-.083-.95-.072m2.666.623c-.316-.056-.882.038-1.355.226-.448.18-1.297.645-1.888 1.038-.589.393-1.362 1.063-1.717 1.488-.354.425-.949 1.278-1.322 1.898-.372.619-.855 1.777-1.072 2.573-.286 1.044-.392 1.923-.381 3.164.011 1.317.121 2.054.476 3.164.255.795.779 1.934 1.164 2.53.385.597 1.224 1.575 1.862 2.174.85.799 1.535 1.245 2.562 1.672l1.401.584c1.784-.928 2.795-1.705 3.536-2.44.898-.892 1.477-1.668 1.952-2.622.564-1.132.711-1.676.894-3.285l.217-1.93c-.853-.644-1.047-1.01-1.175-1.655-.1-.497-.181-1.393-.181-1.99 0-.596.101-1.285.226-1.529.198-.394.164-.534-.304-1.22-.291-.427-.942-1.182-1.446-1.681-.505-.497-1.365-1.164-1.911-1.482-.548-.319-1.239-.623-1.538-.677m12.024 16.895c-2.335 0-3.082.054-3.164.12s-.138.717-.121 1.446c.025 1.131.076 1.327.346 1.327.275 0 .31-.163.272-1.266-.038-1.024.005-1.265.225-1.265.219 0 .263.24.227 1.265l-.046 1.266h2.261zm-6.778 1.627c.562 0 .795.071.753.227-.033.124-.396.245-.813.27-.569.035-.754-.021-.754-.225 0-.2.212-.272.814-.272m1.319-.648c.13.009.234.097.23.196-.005.1-.416.201-.915.227-.513.025-.905-.033-.906-.136 0-.1.306-.208.679-.242.372-.035.783-.054.912-.045m.669-.892c.099.018.181.148.181.29 0 .185-.239.256-.859.256-.471 0-.86-.081-.864-.18-.004-.1.302-.23.678-.29.375-.06.764-.094.864-.076m.11-.991c.505 0 .703.076.703.271 0 .206-.229.273-.948.279-.842.007-.923-.024-.704-.272.143-.16.543-.278.949-.278m3.211-.325c-.544-.029-1.058.006-1.145.076s-.145.197-.129.278c.017.083.559.152 1.206.152.849 0 1.158-.063 1.115-.226-.037-.137-.449-.248-1.047-.28m3.277-11.245c-5.75 0-6.708.06-6.862.225-.117.125-.171.47-.119.769.051.298.226 1.112.389 1.808.211.905.271 1.752.206 2.983-.051.943-.224 2.205-.387 2.802-.163.596-.251 1.267-.197 1.492.097.403.122.406 3.534.406h3.436zm-5.345.237c.13.043.193 1.67.193 5.019 0 4.579-.023 4.956-.316 5.002-.294.042-.318-.303-.347-4.894-.016-2.718.04-4.997.125-5.066a.41.41 0 0 1 .345-.061m-2.592.927c-.09-.056-.165.37-.167.949-.002.577.091 1.416.208 1.862.148.57.318.833.573.884.336.067.351.013.215-.811a21 21 0 0 0-.406-1.833c-.143-.522-.334-.995-.423-1.051m-4.99-6.149c.198.16.421.287.497.285.074-.001.52.26.994.578.472.32 1.251.95 1.732 1.4.481.452 1.127 1.23 1.436 1.727l.622.995c.033.048.181-.095.327-.317.212-.323.436-.407 1.081-.407.447 0 .854-.081.904-.18.048-.101-.48-.752-1.175-1.447s-1.347-1.265-1.447-1.265c-.099 0-.14.08-.089.18.048.1-.095.23-.317.29-.224.059-.673.059-.995 0-.323-.06-.587-.19-.587-.29.001-.099.386-.177.859-.174.773.008.831-.02.587-.274-.186-.192-.669-.294-1.522-.323-.818-.027-1.272-.122-1.311-.268-.035-.137.138-.237.438-.255.273-.014.009-.081-.588-.148s-1.247-.185-1.446-.259l-.362-.138zm9.48 3.538c-1.219 0-1.266.017-1.084.362.163.305.349.354 1.229.316.827-.036 1.047-.108 1.085-.361.039-.277-.118-.317-1.23-.317m-3.534-.142c.512.029.931.15.978.278.057.163-.201.226-.935.226-.558 0-1.054-.062-1.103-.136-.046-.074-.03-.2.039-.278.069-.08.528-.12 1.021-.09m5.173-3.293c-2.333 0-3.081.054-3.164.119-.083.067-.138.679-.121 1.356.016.68.09 1.27.166 1.315.074.043.217.023.316-.046.099-.068.181-.63.181-1.252 0-.633.079-1.13.18-1.129.102 0 .181.514.181 1.176v1.173h2.261zm-6.077 2.208c.511.029.931.15.978.278.058.163-.201.226-.934.226-.559 0-1.055-.06-1.104-.135-.047-.074-.03-.2.038-.278.069-.08.528-.122 1.022-.091m5.536-2.026c.101 0 .181.482.181 1.084 0 .601-.08 1.084-.181 1.084s-.181-.483-.181-1.084.08-1.084.181-1.084m-8.09-51.888c.174 0 .724.203 2.124.904v10.486l.542.271c.298.148.695.577.881.95.3.6.607.806 2.666 1.793 1.282.615 2.716 1.285 4.047 1.867v2.712l-.769.622c-.423.342-2.03 1.665-3.57 2.94a4914 4914 0 0 0-7.097 5.888c-2.361 1.962-4.437 3.57-4.61 3.573-.177.002-2.068-.988-4.203-2.2l-6.327-3.591.019-12.798 3.74-3.162c2.06-1.74 5.654-4.759 7.992-6.71 2.335-1.948 4.391-3.545 4.565-3.545m9.489 17.361c-.025.006-.655.52-1.401 1.145-.745.625-3.105 2.583-5.243 4.351-2.137 1.768-4.881 4.04-6.096 5.048-2.037 1.69-2.211 1.884-2.224 2.466-.01.586.011.613.304.361.176-.15 2.517-2.104 5.205-4.34 2.69-2.239 5.931-4.923 7.202-5.966 2.112-1.73 2.313-1.948 2.306-2.485-.004-.321-.027-.583-.053-.58m-20.655 9.816c-.099-.018-.405.063-.678.18-.484.208-.429.252 2.35 1.841 1.565.895 2.949 1.646 3.074 1.672.143.028.224-.169.222-.542-.004-.57-.082-.63-2.396-1.854-1.315-.695-2.472-1.279-2.572-1.297m15.096-12.891c-.05.01-.343.275-.648.593s-.786.781-1.068 1.029c-.282.25-.804.68-1.16.958-.358.277-.893.709-1.192.958-.298.25-1.518 1.264-2.712 2.256-1.193.992-2.535 2.12-2.983 2.508s-1.221 1.041-1.718 1.452a84 84 0 0 0-1.559 1.325c-.362.318-.85.705-1.085.862-.427.284-.42.292 1.198 1.158.895.479 1.953 1.06 2.351 1.293l.723.423c4.064-3.396 6.495-5.408 8.027-6.663s3.748-3.074 4.926-4.045l2.143-1.762a1425 1425 0 0 0-3.706-1.7c-.796-.363-1.487-.652-1.537-.645m97.629-14.18a6.2 6.2 0 0 1 2.125-.194c.621.049 1.331.17 1.581.268.247.1.513.307.588.459.099.2-.395.805-1.812 2.214-1.811 1.804-1.938 1.977-1.826 2.48.065.299.186.705.266.904s.293.547.47.773c.192.238.736.519 2.314.938l1.898-1.91c1.327-1.331 2.004-1.888 2.248-1.847.249.042.421.32.596.961.144.533.215 1.424.17 2.17a6.5 6.5 0 0 1-.595 2.419 6.2 6.2 0 0 1-1.47 2.034c-.522.485-1.335 1.06-1.807 1.279-.671.312-1.273.412-4.656.522l-2.35 2.646a4061 4061 0 0 1-3.893 4.376 366 366 0 0 0-4.08 4.712c-1.994 2.343-2.701 3.052-3.294 3.3-.415.174-.937.316-1.162.315-.224 0-.712-.082-1.085-.181-.372-.098-.936-.403-1.251-.676-.316-.273-.721-.823-.9-1.22a4.5 4.5 0 0 1-.326-1.538c0-.448.141-1.113.313-1.48.172-.369 2.434-2.971 5.026-5.785s5.44-5.92 6.328-6.9c.887-.977 1.679-1.953 1.758-2.169.082-.213.065-.837-.036-1.382a6.8 6.8 0 0 1-.032-1.99c.081-.546.306-1.36.497-1.807.19-.449.709-1.206 1.152-1.687.442-.48 1.13-1.065 1.528-1.299s1.169-.55 1.717-.706m104.046.57c.198-.052.605-.054.903-.001.298.05.787.213 1.085.361s.814.526 1.146.837c.331.313.771.893.976 1.29.206.399.381 1.066.39 1.483.015.637-.086.872-.63 1.447-.638.674-.647.7-.421 1.41a6 6 0 0 1 .246 1.356c.014.497-.12.769-.622 1.266-.35.347-.636.795-.631.994.003.22-.58.94-2.985 3.309l-1.537.146c-1.448.137-1.571.182-2.123.786-.32.352-.584.72-.586.82 0 .1-.657.833-1.46 1.628-.802.796-2.858 2.936-4.567 4.756-3.059 3.261-3.117 3.311-3.789 3.255-.649-.052-.75.018-3.517 3.017l-.972-.013c-.537-.007-1.24-.147-1.563-.315-.323-.167-.934-.65-1.36-1.073-.424-.423-.962-1.175-1.195-1.672-.319-.68-.406-1.138-.357-1.848.063-.915.113-.99 1.646-2.531 1.335-1.341 1.582-1.678 1.582-2.175.002-.519.488-1.097 4.195-4.972 2.307-2.412 4.748-4.914 6.653-6.734l.002-2.35 1.671-1.673c1.228-1.229 1.79-1.67 2.124-1.669.248.002.777-.238 1.175-.537.398-.298.845-.545.995-.55.149-.006.66.195 1.988.903l.588-.428c.324-.237.75-.472.95-.522m-57.323.5.216.813c.117.448.256 1.016.31 1.266.08.375.287.506 2.378 1.096l.874-.818c.478-.451.965-.816 1.084-.815.115.003.924.533 1.793 1.174.87.643 1.581 1.23 1.583 1.306-.001.075-.215.626-.952 2.305l1.223 1.934 1.31-.108c1.134-.094 1.333-.065 1.474.208.089.174.363 1.049.61 1.943.436 1.58.44 1.646.132 2.26-.231.465-.56.742-1.24 1.04-.896.392-.93.432-.93 1.13 0 .687.052.755 1.082 1.4.65.407 1.085.806 1.085.995.002.175-.19.825-.424 1.447a29 29 0 0 1-.995 2.26c-.375.744-.676 1.127-.884 1.125-.174-.001-.805-.126-1.402-.276-.97-.246-1.126-.244-1.49.004-.225.152-.409.377-.409.502-.002.125.123.592.274 1.04.235.69.243.924.042 1.536-.222.682-.35.778-4.202 2.65l-.417-.42a8.6 8.6 0 0 1-.814-1.007c-.378-.56-.45-.588-2.746-.597l-.542 1.09c-.299.6-.624 1.123-.724 1.163-.102.037-1.077-.218-2.169-.566-1.094-.351-2.097-.73-2.23-.841-.163-.143-.203-.432-.123-.929.061-.398.15-.928.198-1.176.072-.377-.07-.566-1.822-1.863l-1.266.403c-.696.223-1.366.356-1.491.3-.125-.058-.715-.857-1.313-1.777-.596-.92-1.084-1.793-1.083-1.944.002-.15.125-.596.275-.994.164-.432.491-.85.813-1.04.5-.293.532-.372.427-1.085-.06-.422-.13-.81-.155-.858-.027-.05-.558-.295-1.18-.542-.62-.25-1.176-.533-1.234-.633-.055-.1-.085-.547-.063-.995.022-.449.139-1.538.262-2.424.173-1.261.3-1.66.584-1.839.2-.126.883-.224 1.537-.216 1.079.009 1.187-.024 1.33-.421.121-.338.034-.628-.4-1.336-.486-.792-.54-1.004-.426-1.707.115-.72.277-.928 1.575-2.04.795-.679 1.546-1.234 1.672-1.23.125.003.673.33 1.22.728.752.546 1.116.7 1.492.637.273-.047.584-.19.69-.316.109-.127.3-.597.427-1.045a15 15 0 0 1 .481-1.406l.251-.593zm-95.477.157c.341-.15.866-.212 1.297-.154.397.054 1.169.32 1.716.59.588.29 1.548 1.044 2.351 1.847.744.745 1.538 1.72 1.761 2.169.222.448.457 1.097.524 1.446.071.373.03.858-.102 1.176-.123.298-.583.847-1.022 1.22-.573.486-.965.676-1.387.673-.323-.004-1.036-.165-1.582-.357-.547-.191-1.055-.351-1.13-.355-.075-.003-1.989 2.171-4.253 4.83-2.266 2.66-5.39 6.342-9.767 11.525l-2.368 1.312c-1.304.721-2.451 1.268-2.55 1.22-.099-.05-.181-.212-.181-.362.001-.151.46-1.432 2.041-5.424l2.378-2.802c1.309-1.54 4.05-4.795 6.091-7.232 2.043-2.437 4.073-4.878 5.31-6.418l-.349-.723a5.2 5.2 0 0 1-.422-1.537c-.061-.688.017-.935.499-1.603.315-.436.83-.904 1.145-1.041m131.263 20.71c-1.234 1.25-1.397 1.489-1.365 2.025.02.335.183.934.361 1.331.18.398.625 1.03.992 1.402.365.373.889.789 1.162.926.273.138.783.308 1.13.378.605.123.68.076 1.78-1.108l1.15-1.236c-1.08-.31-1.637-.522-1.935-.674s-.849-.611-1.22-1.022c-.373-.408-.677-.845-.676-.97.002-.123.21-.43.461-.68l.46-.451-.897-1.337zM-123.52 4.337c-.831.01-1.607.147-2.259.4-.629.244-1.336.723-1.92 1.302-.651.641-1.047 1.238-1.331 2-.354.954-.388 1.29-.285 2.801.068.985.042 1.911-.057 2.17-.097.25-.893 1.228-1.772 2.177-.878.947-3.223 3.509-5.211 5.692a556 556 0 0 1-4.904 5.326c-1.068 1.127-1.312 1.498-1.426 2.172-.113.673-.063.968.292 1.696.239.484.677 1.03.975 1.215.311.19.89.335 1.356.338.474.002 1.016-.129 1.3-.311.269-.175 1.854-1.895 3.526-3.821 1.67-1.93 3.404-3.935 3.852-4.455.447-.523 1.891-2.179 3.209-3.681s2.579-2.787 2.803-2.856c.225-.067 1.179-.132 2.124-.144 1.468-.018 1.848-.088 2.621-.487.497-.259 1.277-.865 1.73-1.348.519-.551.957-1.25 1.172-1.874.214-.611.347-1.494.349-2.29.002-.711-.06-1.362-.138-1.445s-.933.641-1.898 1.61c-1.313 1.314-1.871 1.759-2.209 1.75-.25-.006-.868-.146-1.374-.315-.588-.193-1.123-.535-1.472-.938-.3-.347-.638-.958-.748-1.356-.11-.397-.201-.905-.203-1.13 0-.269.577-.998 1.716-2.17.945-.968 1.656-1.825 1.582-1.903-.075-.076-.704-.134-1.4-.125M-84.591 30c-.065.003-.168.126-.226.276-.057.148-.045.305.03.347s.828.29 1.674.554c1.226.383 1.56.43 1.668.241.072-.131.135-.28.14-.329.003-.05-.707-.317-1.579-.591-.873-.275-1.64-.498-1.707-.498M18.041 5.617c.696-.013 1.956.096 2.802.244.844.146 2.106.464 2.802.705.697.242 2.16.84 3.254 1.332 1.094.49 2.212.947 2.487 1.013.273.067.825.426 1.23.798.403.373.87 1.044 1.04 1.493.217.576.302 1.338.293 2.62-.01 1.295-.129 2.219-.422 3.255-.224.795-.786 2.179-1.249 3.074-.578 1.119-1.211 2-2.021 2.827-.95.967-1.37 1.26-2.171 1.502-.754.228-1.148.258-1.627.123-.35-.098-1.326-.485-2.17-.862-1.23-.55-1.753-.685-2.621-.683-.75.002-1.307.119-1.808.383-.397.21-.898.571-1.11.805-.213.233-.651.952-.975 1.6-.321.645-.804 1.5-1.072 1.898-.266.397-.58.967-.695 1.265-.116.298-.436.761-.711 1.03a4.5 4.5 0 0 1-1.177.769 4.6 4.6 0 0 1-1.446.278c-.423-.002-1.176-.112-1.673-.244s-1.434-.502-2.08-.824a15.5 15.5 0 0 1-2.15-1.338 14 14 0 0 1-1.742-1.66 17 17 0 0 1-1.313-1.808 10 10 0 0 1-.858-1.988c-.206-.727-.269-1.352-.19-1.898.068-.465.476-1.434.953-2.26.461-.796 1.034-1.977 1.278-2.622.243-.647.648-1.582.9-2.08.254-.497.805-1.391 1.226-1.988.423-.596 1.376-1.654 2.12-2.35S9.137 8.383 9.922 7.92a21 21 0 0 1 3.01-1.401c.87-.31 2.09-.633 2.712-.72.62-.087 1.7-.168 2.396-.182m-91.03 24.225c-.15.002-.756.212-1.347.467-.592.255-1.059.533-1.04.62.02.087.096.154.172.15.074-.005.663-.285 1.31-.623.646-.34 1.053-.616.905-.614m-4.167-1.431c-.045.018-.534.063-1.085.1-.622.04-1.12.182-1.313.373-.171.168-.31.366-.31.442.004.074.595.131 1.315.127l1.31-.006c.841 1.142 1.145 1.47 1.221 1.468.075-.006.175-.13.226-.279.049-.15-.218-.72-.596-1.265-.377-.547-.724-.978-.768-.96M-225.08 15.726c-.224.004-.538.09-.699.195s-.383.388-.497.628c-.116.248-.361.438-.567.438-.198 0-.357.1-.353.225.003.125.145.33.315.456.25.185.216.185-.177 0-.414-.195-.555-.183-.949.086-.255.174-.462.399-.463.498 0 .1.082.22.181.27s.18.173.181.272c-.001.103-.214.134-.498.07-.373-.082-.632.005-1.039.348l-.543.46c.77.3 1.034.47 1.085.569.049.1-.187.037-.527-.136-.596-.304-.64-.303-1.13.031-.289.197-.414.374-.286.406.125.033.226.122.227.196 0 .074-.238.135-.529.136-.318 0-.712.179-.992.452l-.465.452c1.116.91 1.442 1.255 1.443 1.355 0 .1-.265-.02-.588-.265-.324-.246-.832-.452-1.13-.46-.304-.005-.777.172-1.077.402l-.533.414c.662.14.903.298.961.44.087.214-.026.238-.617.131-.526-.095-.835-.056-1.13.147-.364.247-.379.309-.14.593.148.173.269.377.271.452.003.073-.239.053-.537-.046-.432-.145-.633-.116-.989.136-.246.173-.448.377-.452.452-.004.074.177.305.401.511.371.344.375.366.046.248a9 9 0 0 0-.724-.215c-.199-.049-.544.002-.768.114-.224.11-.449.383-.499.607-.049.214-.235.41-.479.516l-.217.078a2.9 2.9 0 0 0-.799.504 1.33 1.33 0 0 0-.407.982c.004.323.087.75.186.949s.425.442.724.542q.541.18.994 0c.247-.1.676-.467.949-.814.273-.349.618-.63.768-.627.149.004.413-.14.583-.316.171-.177.314-.423.316-.548.004-.125.29-.349.639-.497.346-.15.722-.454.831-.678.11-.224.148-.612.087-.86l-.115-.451.709.904c.728-.7.974-1.026 1.018-1.175.042-.15.324-.333.626-.407.331-.082.676-.35.866-.676.174-.298.459-.543.633-.543.174-.002.504-.226.733-.499.23-.273.577-.584.769-.692s.493-.453.667-.769c.173-.314.356-.49.407-.391q.09.18.452 0c.199-.1.443-.386.542-.633.109-.271.325-.452.542-.452.199 0 .525-.205.724-.453s.401-.451.452-.452c.049 0 .254-.204.452-.45.199-.25.462-.451.587-.448s.367-.14.537-.316c.172-.178.315-.586.317-.91q.003-.587-.447-1.039c-.249-.25-.635-.45-.859-.447m85.26 11.38c.554-.002.852.104 1.134.406.21.228.429.617.487.864.058.25-.013.717-.156 1.04-.142.324-.423.669-.622.768-.198.1-.605.182-.903.182q-.542 0-1.085-.543c-.334-.335-.55-.745-.564-1.07-.013-.339.156-.731.468-1.086.396-.451.63-.556 1.241-.561m-34.595-16.416c-.083-.034-.217.07-.3.231a.42.42 0 0 0 .077.513c.127.12.228.32.227.445 0 .125-.125.226-.274.226s-.332-.125-.406-.278c-.103-.21-.513.174-1.685 1.582-.854 1.023-2.678 3.202-4.055 4.843-1.378 1.64-3.562 4.243-4.851 5.786-2.331 2.783-2.344 2.805-2.136 3.39.151.43.153.622.006.722-.112.074-.269.013-.352-.135-.083-.15-.181-.231-.219-.182-.036.05-.286.6-.552 1.221s-.485 1.19-.487 1.266c-.002.074.262-.118.587-.427.325-.307.735-.613.908-.678.174-.063.314-.217.313-.341s.099-.322.225-.438c.176-.163.377-.147.863.066l.632.278c.841-1.062 2.259-2.76 3.695-4.46 1.435-1.697 3.794-4.463 5.242-6.148a852 852 0 0 0 3.674-4.294l1.04-1.23c-1.568-1.472-2.091-1.926-2.172-1.958M4.765 19.2c-1.088-.038-1.51.027-2.048.316-.373.199-.788.586-.924.858a6 6 0 0 0-.357.95c-.064.25.01.94.164 1.537.151.596.49 1.45.75 1.897s1.008 1.37 1.663 2.047c.654.676 1.677 1.548 2.274 1.937.597.386 1.573.878 2.17 1.091.597.214 1.533.395 2.08.402.68.009 1.178-.096 1.577-.335.322-.194.762-.676.979-1.073.323-.595.372-.898.278-1.718-.067-.568-.394-1.574-.767-2.35-.48-.998-.994-1.692-1.949-2.63-.961-.948-1.71-1.483-2.907-2.08-1.424-.708-1.775-.81-2.982-.85M-82.39 7.947c-1.05.434-1.732.7-2.19.868l-.832.306c-1.368-1.177-1.85-1.523-1.954-1.529-.102-.003-.692.4-1.312.898l-1.124.903 1.486 2.26-1.33 2.531-2.778.18c-.356 2.364-.356 2.749-.204 2.85.112.076.733.3 1.38.5l1.175.36c.462 1.889.647 2.58.705 2.754.074.216-.082.486-.479.842-.323.29-.776.677-1.006.86l-.417.332 1.851 2.712 2.419-1.033 2.983 2.208c-.197 1.33-.256 1.91-.261 2.148-.01.381.15.475 1.436.858.796.237 1.548.43 1.673.431.125 0 .401-.47.616-1.041.213-.57.437-1.088.497-1.153.059-.062.82-.166 1.689-.227l1.582-.112c1.19 1.69 1.637 2.18 1.763 2.177.124-.004.754-.252 1.4-.55s1.178-.604 1.178-.678c0-.076-.163-.625-.364-1.22l-.369-1.085 2.268-2.3c1.96.577 2.541.727 2.556.71.014-.023.277-.629.587-1.348.53-1.233.545-1.325.246-1.558a15 15 0 0 0-1.085-.723l-.767-.476.09-2.967c1.677-.696 2.19-.903 2.223-.909.03-.005-.114-.681-.316-1.502l-.37-1.492h-2.712l-1.669-2.44c.618-1.402.831-1.93.873-2.08.047-.17-.34-.573-1.043-1.085-.615-.446-1.204-.84-1.312-.875-.107-.034-.577.332-1.045.814l-.854.875c-1.621-.61-2.316-.833-2.589-.889-.443-.092-.518-.22-.688-1.144-.105-.571-.228-1.14-.272-1.266-.056-.157-.568-.227-1.707-.227h-1.627zm-104.652 21.152c-.184 0-.455.141-.604.316-.15.174-.323.419-.388.543-.065.123.206.042.603-.18.396-.224.721-.47.723-.543-.001-.076-.15-.136-.334-.136m-55.346-5.474-.012 5.746c.817.403.826.385.96-.971.075-.76.139-3.31.144-5.668l.006-4.29-1.085-.56zm102.626 4.21c-.235 0-.565.14-.735.316a.76.76 0 0 0-.207.723c.056.222.264.488.463.587.199.1.525.14.723.091.199-.05.443-.253.542-.452.132-.264.107-.487-.089-.814-.167-.278-.436-.452-.697-.452m108.368-9.037c-.242.09-.417.251-.392.358.027.106-1.14 1.45-2.589 2.988-2.601 2.759-2.636 2.807-2.59 3.56.043.729.083.78.858 1.063.447.166.813.412.814.548 0 .135-.163.27-.362.297-.2.028-.727-.135-1.175-.363-.665-.336-.83-.518-.904-1.006l-.09-.597-1.99 1.97c.841.51 1.411.718 1.81.79.397.075 1.149.139 1.671.142l.95.007a338 338 0 0 1 5.281-5.514l2.311-2.35c-1.471-.613-2.162-1.081-2.485-1.434-.324-.354-.608-.64-.633-.633-.026.006-.242.086-.485.174m37.01 2.168c.533.002 1.211.171 1.804.451.522.248 1.405.877 1.964 1.4.557.522 1.204 1.275 1.437 1.673.232.397.479 1.048.55 1.446.082.477.041.925-.127 1.32-.16.379-.484.701-.886.882-.38.172-.922.255-1.356.206-.398-.043-1.211-.316-1.808-.607-.596-.291-1.45-.899-1.898-1.349s-1.016-1.224-1.264-1.72c-.293-.585-.452-1.207-.452-1.775-.002-.76.077-.944.59-1.401.477-.427.754-.528 1.446-.526m-92.842 4.52c-.076 0-.543.187-1.04.417-.496.228-.964.553-1.039.721-.076.169-.076.307 0 .309.074.002.542-.168 1.04-.379l.904-.382c1.4 1.037 1.948 1.412 2.124 1.501.24.123.336.076.407-.2.07-.286-.162-.536-1.085-1.176-.647-.448-1.236-.813-1.31-.811M4.292 22.17c-.078.066-.127.37-.11.676.019.307.212.924.43 1.372.218.447.766 1.186 1.218 1.642s1.146.996 1.544 1.202 1.008.432 1.355.503c.35.072.858.079 1.131.017.273-.061.497-.191.497-.29 0-.1-.102-.138-.226-.084s-.673-.068-1.22-.272a9.3 9.3 0 0 1-1.853-1.004c-.472-.347-1.06-.895-1.307-1.217s-.644-1.055-.883-1.625c-.24-.57-.498-.984-.576-.92M17.858 6.343c-.397.011-1.212.092-1.808.179s-1.533.29-2.08.447c-.547.16-1.604.571-2.349.916-.747.345-1.844.979-2.44 1.405-.597.425-1.616 1.345-2.261 2.044-.647.698-1.439 1.707-1.76 2.24-.323.536-.874 1.664-1.226 2.508-.353.846-.745 1.74-.872 1.989l-.229.452c2.332-.12 3.022-.046 3.726.178.545.173 1.522.606 2.17.962.648.358 1.742 1.218 2.447 1.924.7.702 1.551 1.763 1.891 2.36.34.596.75 1.573.912 2.17l.292 1.084c1.329-2.672 1.84-3.419 2.322-3.824.397-.336 1.087-.733 1.536-.881.446-.149 1.14-.267 1.537-.263.398.005 1.17.162 1.718.35.543.188 1.01.327 1.039.312.025-.019-.068-.317-.21-.666-.14-.347-.312-1.12-.381-1.717-.072-.624-.031-1.7.094-2.531.12-.796.423-2.016.673-2.712a22 22 0 0 1 1.02-2.343c.312-.593.981-1.527 1.485-2.079.505-.551 1.278-1.18 1.717-1.401l.8-.402c-1.961-.867-3.224-1.364-4.068-1.66-.847-.3-2.31-.662-3.254-.803-.945-.142-2.043-.249-2.44-.238m-48.54 6.342c-.12-.41-.126-.408-.731.19-.457.45-.602.738-.571 1.137.023.293.204.899.405 1.347.198.446.358.934.354 1.085-.005.148-.231.497-.503.772-.27.277-.636.499-.81.497-.173-.002-.412.18-.528.404s-1.234 1.488-2.485 2.81c-1.764 1.861-2.365 2.389-2.678 2.349-.345-.045-.405.033-.407.535-.003.437-.234.867-.907 1.673-.497.596-.904 1.165-.904 1.265s.062.184.135.188c.075.003 1.824-1.705 3.887-3.797s3.874-4.047 4.024-4.346c.2-.4.471-.595 1.039-.745.423-.112.89-.29 1.04-.392.2-.137.412-.09.813.188.298.208.907.544 1.356.748.446.206.956.376 1.13.378s.54-.186.813-.417l.497-.422a11.7 11.7 0 0 1-2.366-1.905c-.604-.626-1.41-1.587-1.792-2.133-.382-.548-.747-1.181-.812-1.409m-194.849-6.892c-.075.008-1.236.947-2.577 2.085-1.344 1.14-4.694 3.96-7.447 6.268l-5.006 4.196c-.018 7.043.044 8.588.16 8.588.1 0 .567-.33 1.039-.73.472-.402 1.712-1.441 2.756-2.31 1.044-.87 2.183-1.78 2.532-2.02.347-.243.843-.646 1.099-.899.257-.253 1.092-.947 1.855-1.544.765-.596 1.755-1.43 2.2-1.853.447-.423 1.037-.879 1.31-1.016a2.4 2.4 0 0 0 .782-.678c.157-.237.546-.552.866-.702l.58-.27c-.011-7.063-.075-9.116-.149-9.115M5.423 21.506c-.062 0-.155.082-.21.18-.053.1-.02.486.073.86.094.373.461 1.063.814 1.536.352.472.987 1.093 1.41 1.38s1.093.653 1.49.818c.399.162.949.294 1.222.293.272-.002.476-.096.452-.208-.025-.112-.413-.298-.86-.412-.446-.116-1.18-.46-1.627-.766-.446-.304-1.05-.83-1.34-1.167-.289-.338-.702-1.044-.92-1.564-.216-.523-.443-.95-.504-.95m-97.124 2.168c-.049 0-.089.061-.085.135.003.076.268.613.588 1.195.32.584.726 1.194.903 1.357.275.253.322.256.318.025-.004-.149-.372-.82-.82-1.492-.446-.67-.854-1.22-.904-1.22m21.15 1.152c-.1-.038-.285.094-.408.293-.21.343-.159.377.864.59.599.123 1.13.185 1.18.136.051-.05.09-.179.086-.289-.004-.108-.354-.3-.775-.429-.42-.126-.846-.261-.948-.301M6.751 21.86c-.242-.128-.354-.128-.361 0-.006.103.132.484.305.847.174.362.684.99 1.13 1.393.447.401 1.16.879 1.582 1.058.423.178.81.303.86.28.051-.025.031-.2-.044-.386-.076-.188-.382-.437-.68-.555-.298-.117-.9-.535-1.335-.925-.436-.39-.862-.895-.95-1.117-.086-.225-.314-.492-.507-.595m-41.238-5.904a229 229 0 0 1-4.001 4.239c-1.833 1.89-2.321 2.5-2.322 2.892 0 .273.163.762.362 1.085s.422.59.497.595c.074.005.226-.096.337-.227.11-.128.191-.49.18-.802a1.4 1.4 0 0 1 .342-.954c.199-.212.524-.387.723-.387.226 0 1.136-.814 2.441-2.187 1.143-1.204 2.222-2.42 2.396-2.706.173-.285.459-.517.633-.513.173.003.458-.16.631-.362.257-.298.278-.443.11-.773a10 10 0 0 1-.43-1.074l-.222-.667zm63.463-6.254c-.25-.05-.67-.03-.94.044a5.5 5.5 0 0 0-.995.413c-.279.153-.91.714-1.404 1.248-.557.602-1.188 1.587-1.664 2.595-.42.895-.89 2.156-1.043 2.803-.152.645-.278 1.865-.282 2.711-.001.873.11 1.888.26 2.35.146.447.514 1.078.816 1.402.455.486.683.588 1.32.584a3.2 3.2 0 0 0 1.491-.427c.398-.233 1.11-.862 1.582-1.397.472-.537 1.117-1.463 1.432-2.06a19 19 0 0 0 .994-2.35c.231-.695.51-1.877.618-2.621.143-.987.141-1.651-.007-2.441-.11-.597-.342-1.32-.512-1.61a3.3 3.3 0 0 0-.762-.84c-.25-.174-.657-.356-.904-.404m-108.88 2.417c.124-.008.653.078 1.175.188a9.2 9.2 0 0 1 1.808.633c.472.237 1.19.775 1.595 1.198s.891 1.094 1.083 1.491c.191.398.423 1.172.513 1.718.102.602.1 1.335.001 1.854-.09.471-.357 1.246-.592 1.717-.236.472-.745 1.137-1.13 1.479a7.5 7.5 0 0 1-1.515.992c-.618.282-1.184.372-2.35.374-1.288.002-1.698-.074-2.532-.474-.546-.26-1.348-.788-1.782-1.174-.443-.393-1.02-1.175-1.316-1.785-.291-.596-.576-1.533-.636-2.079a5.3 5.3 0 0 1 .17-1.989c.154-.546.556-1.36.894-1.808s1.01-1.057 1.495-1.355a7.2 7.2 0 0 1 1.888-.754c.552-.115 1.105-.217 1.23-.226m-.045 2.768c-.506-.038-1.262.05-1.717.2a7 7 0 0 0-1.514.767c-.385.275-.892.825-1.126 1.223-.235.397-.426.966-.426 1.264s.167.908.373 1.357c.205.446.63 1.126.944 1.51.347.422 1.038.921 1.749 1.261.947.454 1.403.563 2.35.56.858-.001 1.437-.122 2.15-.446.538-.245 1.25-.75 1.583-1.123.457-.513.605-.844.607-1.356.002-.374-.116-1.084-.258-1.581-.161-.562-.562-1.248-1.056-1.809-.515-.585-1.143-1.055-1.775-1.332-.54-.235-1.387-.457-1.884-.495m107.977-2.783c.412 0 .749.161 1.13.543.394.394.557.744.595 1.281.029.407.02 1.2-.02 1.763s-.27 1.554-.511 2.199c-.243.645-.722 1.562-1.066 2.033-.343.472-.89 1.022-1.213 1.22s-.851.36-1.174.362c-.364 0-.751-.155-1.013-.406-.235-.224-.52-.732-.633-1.13a6.3 6.3 0 0 1-.204-1.446c.002-.398.123-1.232.27-1.854s.431-1.455.63-1.853a7.8 7.8 0 0 1 .95-1.387c.323-.363.831-.811 1.13-.992.298-.183.806-.331 1.13-.333m.165.726c-.085-.002-.085.18 0 .405.083.223.143 1.016.132 1.762-.014 1.052-.136 1.636-.543 2.618-.309.748-.871 1.649-1.38 2.215-.787.872-.825.953-.438.953.24 0 .69-.268 1.039-.619.34-.34.837-1.052 1.106-1.582.268-.53.615-1.452.769-2.048s.282-1.39.282-1.763c-.002-.374-.089-.902-.197-1.175-.107-.274-.289-.556-.406-.63a.9.9 0 0 0-.364-.136m-.842.178c-.1 0-.192.06-.203.136-.012.074-.004.542.018 1.039.023.497-.096 1.393-.268 1.99-.17.596-.472 1.41-.67 1.807a6.4 6.4 0 0 1-.931 1.31c-.383.396-.508.65-.387.777.123.125.438-.091.985-.68.443-.475 1.007-1.313 1.253-1.86.284-.632.477-1.457.532-2.259.047-.696.031-1.49-.034-1.763-.063-.274-.196-.497-.295-.497m-57.154 5.422c-.11 0-.166.103-.123.226s.481.448.97.72c.49.27 1.156.494 1.48.497.323.001.587-.056.587-.132 0-.074-.244-.156-.542-.181s-.868-.208-1.265-.407c-.398-.199-.763-.443-.814-.542a.36.36 0 0 0-.293-.18m-62.026-.154c-1.008-.302-1.119-.305-1.092-.045.018.172.474.474 1.121.741.6.25 1.154.393 1.228.318.074-.072.074-.256 0-.406-.075-.15-.641-.424-1.257-.608m118.24-4.363c-.071 0-.162.06-.203.135-.043.075-.136.543-.206 1.04a8.2 8.2 0 0 1-.52 1.783c-.216.487-.496.975-.625 1.085-.13.113-.227.407-.22.657l.014.452a8.4 8.4 0 0 0 1.221-1.899c.25-.547.502-1.502.56-2.124.057-.62.047-1.13-.022-1.13m-106.36-.896c-.597.01-1.41.138-1.808.286-.397.15-.96.448-1.25.665s-.744.722-1.01 1.12l-.481.723c1.423-.93 2.244-1.316 2.741-1.461.497-.143 1.29-.26 1.763-.259.471 0 1.285.16 1.807.35.53.196 1.377.737 1.915 1.222.532.479 1.183 1.3 1.447 1.822.263.522.494.928.511.904s-.045-.434-.135-.906c-.093-.474-.319-1.164-.505-1.536-.186-.375-.776-1.069-1.31-1.546-.536-.476-1.338-.986-1.787-1.132-.446-.146-1.302-.26-1.898-.252m-145.627 3.797c.15 0 .415.14.593.312.177.17.318.474.3 1.035l-.199-.362a2.8 2.8 0 0 0-.582-.675c-.28-.227-.309-.31-.112-.31m-.733-12.24c-.511-.194-.606-.16-1.312.466-.418.371-3.041 2.58-5.826 4.909a3585 3585 0 0 1-6.815 5.68c-.958.795-1.751 1.487-1.764 1.537-.009.051.23.192.531.317.544.224.575.204 3.032-1.899 1.367-1.168 4.762-4.022 7.548-6.341 2.786-2.322 5.088-4.275 5.113-4.34.024-.067-.204-.216-.507-.33M-28.835 7.98l-1.09 1.14-.165 3.255c1.43 2.072 2.355 3.15 2.977 3.732s1.23 1.06 1.355 1.061c.125.002.633-.405 1.13-.906.497-.499 1.047-.907 1.22-.905s.319.063.321.136c.002.075-.425.525-.95 1-.523.476-.885.922-.804.995s.772.03 1.536-.09c1.279-.204 1.463-.291 2.319-1.085.511-.476.938-.926.949-1 .008-.074-.695-.132-1.563-.128l-1.582.007a65 65 0 0 0-2.424-3.322c-1.03-1.33-1.451-1.745-1.688-1.671-.173.054-.358.016-.407-.083-.05-.1-.014-.324.076-.497.098-.183.107-.834.023-1.548l-.142-1.232zm3.177-2.32-.848.568c-.02 3.03.021 3.222.477 3.844.273.374.944 1.237 1.492 1.919.63.784 1.29 1.386 1.807 1.646.447.228 1.26.515 1.808.64l.995.228c1.676-1.713 1.722-1.812 1.62-2.49-.06-.399-.143-.786-.186-.86s-.527.314-1.073.86c-.547.546-1.136.993-1.31.993s-.805-.23-1.401-.51c-.639-.3-1.33-.803-1.678-1.22a8.7 8.7 0 0 1-.945-1.434c-.196-.398-.36-1.048-.363-1.446-.007-.656.088-.808 1.036-1.65l1.045-.93c-1.19-.593-1.556-.756-1.582-.745a36 36 0 0 0-.894.588m-148.43 7.091c.188-.216.304-.227.59-.051.197.117.356.317.354.442 0 .125-.103.26-.228.299-.125.04-.388-.04-.587-.174-.3-.206-.322-.292-.129-.516m-.769-5.077c.059.398.319 1.089.576 1.537s.671 1.058.921 1.357c.249.298.826.85 1.281 1.223a7.7 7.7 0 0 0 1.824 1.05c.546.203 1.158.344 1.357.314.23-.037-.029-.201-.724-.461-.597-.223-1.533-.76-2.079-1.196a13 13 0 0 1-1.757-1.764c-.421-.537-.932-1.381-1.138-1.878l-.372-.904zm152.535-1.717c-.082 0-.621.468-1.2 1.04-1.019 1.008-1.046 1.061-.921 1.762.07.398.31 1.01.535 1.357.224.348.562.76.748.918.186.157.727.502 1.199.768.471.265.939.482 1.04.483.098 0 .18-.082.18-.181 0-.1-.183-.219-.407-.264-.33-.068-.363-.128-.175-.316.188-.19.304-.188.633.007.37.224.467.175 1.262-.633.474-.48.86-.935.859-1.009-.003-.074-.185-.137-.409-.139-.224-.001-.752-.206-1.175-.452s-1.016-.794-1.32-1.217c-.302-.423-.584-1.073-.628-1.446-.041-.372-.142-.677-.221-.678m-150.749-.363c-.406.002-.806.055-.89.122-.083.065-.135.453-.117.86.018.404.208 1.104.423 1.55.215.449.925 1.345 1.58 1.994.652.65 1.594 1.376 2.092 1.615.497.238 1.229.468 1.627.513.536.058.791-.003.994-.24.148-.175.253-.572.229-.88s-.222-.927-.44-1.375c-.219-.446-.934-1.346-1.586-1.999-.664-.663-1.624-1.4-2.181-1.674-.593-.29-1.292-.488-1.731-.486m83.08 4.9c-.11-.038-.033.206.169.544.202.337.473.65.6.692.133.045.063-.184-.169-.542-.218-.34-.49-.654-.6-.694m65.93-1.653a.28.28 0 0 1 .317-.12c.11.037.23.223.262.415.031.192-.07.408-.226.483-.2.095-.313.028-.376-.227-.05-.199-.04-.446.023-.55m3.416-3.788c-.468 0-.682.104-.838.407-.153.304-.154.579-.002 1.084.11.373.466.974.79 1.335.323.362.893.808 1.265.994.373.187.864.338 1.094.338.227 0 .514-.1.636-.225.12-.125.22-.451.217-.724-.001-.273-.135-.761-.294-1.085a5.7 5.7 0 0 0-.769-1.1c-.262-.282-.702-.628-.975-.769-.273-.14-.778-.255-1.124-.255m-2.448 2.893c.101 0 .234.102.295.226s.057.39-.006.588c-.108.34-.134.343-.427.054-.187-.188-.26-.418-.178-.588.07-.153.213-.28.316-.28m.633-.904c.05.001.177.225.28.497.116.313.121.564.015.678-.11.117-.245.023-.382-.271-.117-.248-.166-.553-.11-.678s.145-.225.197-.226m-155.939-48.452c.204 0 1.449.539 2.767 1.197s3.353 1.716 4.521 2.35 2.182 1.255 2.255 1.38c.075.126.688 1.447 1.364 2.938.835 1.845 1.428 3.49 1.856 5.152.345 1.341.627 2.58.628 2.757-.002.173-.783 1.76-1.739 3.525-.954 1.764-1.869 3.348-2.034 3.52-.163.17-2.047 1.29-4.184 2.487-2.353 1.319-4.081 2.175-4.384 2.176-.273-.002-1.291-.4-2.26-.889-.97-.486-2.919-1.524-6.894-3.723l-2.182-4.43c-1.202-2.434-2.182-4.572-2.18-4.745.001-.177.447-1.519.991-2.983a133 133 0 0 1 2.355-5.89l1.627-.995c.895-.547 2.865-1.633 4.374-2.412 1.51-.777 2.914-1.415 3.119-1.415m205.221-.006c.593-.003.989.128 1.524.507.397.28.921.832 1.164 1.226.278.448.446.998.452 1.48.01.752-.038.816-5.775 6.53l.346.51c.19.28.497.956.682 1.504.184.546.332 1.258.332 1.582a3.8 3.8 0 0 1-.244 1.176c-.132.323-.438.718-.678.875s-.701.341-1.024.406c-.346.07-1.017.004-1.628-.16-.572-.155-1.489-.529-3.029-1.384L16.5-24.659a6348 6348 0 0 0-6.192 6.346c-3.563 3.653-3.779 3.842-4.424 3.842-.373-.002-.942-.165-1.266-.362a1.78 1.78 0 0 1-.786-1.04c-.11-.372-.143-.882-.074-1.13.067-.25.497-.858.954-1.355.458-.497 3.217-3.365 11.432-11.842l-.55-.858c-.3-.472-.667-1.266-.814-1.763-.148-.497-.265-1.23-.261-1.628.001-.398.104-.924.225-1.168.123-.244.509-.638.857-.875.52-.356.792-.417 1.537-.345.497.048 1.392.333 3.073 1.184l2.905-2.878c2.866-2.84 2.915-2.878 3.707-2.884m-153.911-.705c.373-.094 1.166-.124 1.763-.07a10.8 10.8 0 0 1 2.169.488c.596.212 1.571.67 2.166 1.018.594.347 1.741 1.282 2.546 2.077 1.142 1.13 1.63 1.783 2.23 2.983.582 1.168.79 1.82.864 2.712.055.645.008 1.52-.102 1.944-.141.538-.512 1.087-1.24 1.83-.705.721-1.273 1.128-1.763 1.265-.398.11-1.13.2-1.627.2a9 9 0 0 1-1.809-.235c-.896-.231-.907-.229-1.355.299-.25.293-.676.642-.949.777-.335.167-.536.441-.614.835-.063.324-.245.785-.406 1.026-.159.24-.555.546-.879.677-.323.132-.587.364-.588.512 0 .148-.243.415-.54.588-.321.188-.54.464-.537.678.004.199-.18.6-.408.891-.226.291-.676.636-1 .768-.466.19-.586.342-.582.736.004.288-.187.707-.452.994-.251.273-.662.54-.909.588-.32.064-.503.263-.622.678-.094.324-.462.851-.814 1.175-.354.323-.827.626-1.051.67-.224.048-.813.122-1.31.166s-1.698.313-2.669.595c-1.565.455-1.793.482-2.027.242-.22-.226-.232-.554-.081-1.99.1-.945.132-2.166.069-2.711-.08-.701-.029-1.208.17-1.717.155-.398.528-.906.828-1.13.416-.31.544-.549.541-.995-.004-.345.162-.807.406-1.117.226-.291.677-.636 1-.768.479-.195.588-.338.588-.781 0-.354.182-.731.527-1.085.291-.298.637-.541.769-.54.139.002.298-.304.376-.722.097-.526.31-.865.771-1.225.349-.272.68-.7.735-.948.056-.25.217-.635.36-.86.143-.223.544-.529.891-.677.379-.163.632-.398.631-.588 0-.174.194-.601.864-1.582l-.342-.858c-.217-.548-.338-1.3-.336-2.08.004-.787.121-1.476.334-1.943.181-.397.566-.998.855-1.336.288-.336.83-.763 1.203-.949a8 8 0 0 1 1.356-.505m50.124 2.714c.944-.009 2.408.102 3.254.246.844.145 2.146.48 2.893.745.744.264 2 .859 2.788 1.32.786.46 1.97 1.368 2.63 2.013.66.646 1.495 1.706 1.855 2.351s.781 1.663.937 2.26c.178.689.28 1.875.28 3.255 0 1.4-.101 2.552-.285 3.254a13 13 0 0 1-.838 2.168c-.302.597-1.046 1.606-1.654 2.243-.605.636-1.673 1.533-2.369 1.996-.696.46-1.977 1.099-2.846 1.419-.87.318-2.335.712-3.255.873-1.226.213-2.274.264-3.932.19-1.376-.061-2.862-.25-3.797-.484-.846-.21-2.147-.668-2.892-1.017-.747-.349-1.844-.981-2.44-1.406a14 14 0 0 1-1.946-1.75 13.6 13.6 0 0 1-1.486-2.153c-.344-.646-.747-1.745-.899-2.44-.15-.697-.276-1.957-.278-2.803s.083-2.025.191-2.622c.107-.596.469-1.654.803-2.35.333-.696 1.04-1.747 1.567-2.332.53-.588 1.45-1.416 2.047-1.84a20 20 0 0 1 2.35-1.393c.696-.343 1.673-.756 2.17-.92a23 23 0 0 1 2.169-.55c.696-.139 2.038-.262 2.983-.273m93.655 9.929c-.075.001-2.408 2.34-5.188 5.198-2.778 2.858-5.516 5.705-6.082 6.327-.568.622-1.03 1.293-1.03 1.492s.203.566.45.814c.25.25.657.452.905.452.349 0 1.222-.792 3.84-3.48 1.862-1.915 4.608-4.72 6.102-6.233l2.713-2.749c-1.22-1.409-1.637-1.82-1.71-1.821m-183.331 5.243c-.088 0-.206.081-.26.18-.055.1-1.056.74-2.224 1.42-1.168.681-2.572 1.48-3.118 1.775-.922.497-1.111.722-2.563 3.056-.86 1.381-1.529 2.533-1.491 2.563.042.026.625-.25 1.296-.61.671-.359 2.22-1.234 3.442-1.943l2.223-1.289a775 775 0 0 1 2.623-4.745c.128-.224.161-.407.072-.407m144.24-15.418c.447-.217.937-.297 1.481-.245.447.041 1.14.24 1.537.44a9 9 0 0 1 1.446.988c.398.34 1 1.14 1.34 1.777.438.822.642 1.473.703 2.243.047.597-.004 1.369-.112 1.718-.146.465-1.148 1.548-3.776 4.077a1048 1048 0 0 1-7.023 6.69 514 514 0 0 1-5.288 4.917c-1.26 1.142-2.03 1.707-2.431 1.78-.333.064-1.019-.014-1.582-.177-.548-.157-1.33-.553-1.74-.877-.411-.325-1.01-.917-1.33-1.314a10.4 10.4 0 0 1-.991-1.537c-.226-.448-.461-1.118-.524-1.49a4 4 0 0 1 .056-1.357c.138-.543.801-1.297 3.299-3.753 1.721-1.692 5.636-5.435 8.698-8.317 3.065-2.883 5.87-5.386 6.238-5.563m-163.673 4.483c-.199-.041-.584.002-.859.096-.437.15-.629.514-1.603 3.018-1.081 2.784-1.105 2.88-1.032 4.294.068 1.397.128 1.566 1.782 4.977l1.712 3.528a114 114 0 0 0 5.017 2.77c1.864.968 2.61 1.268 2.983 1.201.275-.049.714-.313.978-.588s.977-1.29 1.582-2.261c1.054-1.687 1.101-1.812 1.101-2.938 0-1.034-.163-1.591-1.363-4.655-.767-1.956-1.657-3.903-2.035-4.45-.368-.53-.995-1.157-1.393-1.386a235 235 0 0 0-3.615-1.975c-1.591-.857-3.056-1.59-3.255-1.63m47.676 17.335c-.355-.453-.412-.475-.407-.163.002.2-.056.79-.13 1.313-.123.878-.106.95.228.938.199-.007.809-.152 1.356-.322l.995-.31c-1.262-.723-1.814-1.168-2.042-1.456m48.243-6.174c-.006.074.183.562.418 1.085s.803 1.457 1.264 2.079 1.39 1.542 2.06 2.047c.67.504 1.748 1.168 2.395 1.473.646.306 1.948.749 2.893.986.944.236 2.531.48 3.525.542 1.324.08 2.318.027 3.706-.205 1.044-.173 2.387-.493 2.984-.709.596-.216 1.654-.708 2.35-1.093.778-.432 1.788-1.23 2.621-2.073.933-.946 1.539-1.755 1.944-2.595.323-.67.589-1.322.593-1.447.003-.124-.208.1-.468.497-.26.398-.977 1.235-1.588 1.86-.613.628-1.724 1.495-2.469 1.929-.746.432-1.926.99-2.622 1.24s-1.998.59-2.892.76c-1.244.237-2.204.288-4.068.215-1.878-.072-2.837-.203-4.158-.574-.945-.264-2.328-.8-3.073-1.19-.747-.39-1.824-1.077-2.396-1.526-.571-.448-1.345-1.204-1.718-1.681a37 37 0 0 1-.985-1.31c-.168-.244-.31-.383-.316-.31m-138.152-18.303c.161.002.658.112 1.105.248.448.134 1.18.428 1.627.652.448.226 1.425.836 2.17 1.355 1.182.822 1.531 1.206 2.729 3.005 1.264 1.894 1.422 2.236 1.949 4.23.503 1.9.542 2.214.322 2.53a25 25 0 0 1-.927 1.176c-.373.447-1.136 1.199-1.698 1.667-.56.47-1.12.856-1.245.859s-.49.334-.814.735-.709.768-.859.817c-.149.047-.904-.159-3.074-1.005l-1.039.933c-.571.514-2.215 1.998-3.65 3.3a1688 1688 0 0 1-4.339 3.92c-.951.856-1.911 1.648-2.136 1.763-.224.114-.793.206-1.265.205s-1.204-.165-1.627-.362-1.226-.784-1.782-1.306c-.583-.545-1.239-1.393-1.538-1.99-.287-.57-.572-1.344-.633-1.716a4.8 4.8 0 0 1 0-1.357c.087-.52.394-.96 1.334-1.898.671-.671 3.05-2.84 5.288-4.822a836 836 0 0 1 4.304-3.797c.197-.16.182-.356-.385-2.003l1.253-3.796 1.255-.956a57 57 0 0 1 2.319-1.673c.586-.394 1.195-.716 1.356-.714m189.59 19.704c-.352 0-.752.137-.928.316-.23.239-.287.538-.23 1.221a6 6 0 0 0 .47 1.718c.213.448.778 1.208 1.254 1.688.477.483 1.173 1.03 1.546 1.22.372.19 1.023.349 1.446.355.504.005.863-.098 1.04-.3.152-.172.267-.633.261-1.047-.005-.445-.223-1.167-.542-1.803-.292-.582-.9-1.403-1.346-1.822-.448-.42-1.16-.938-1.582-1.153s-1.047-.393-1.389-.393m-203.944-1.077c-.397.002-.851.084-1.011.185-.157.1-.381.504-.497.898-.116.396-.158.942-.095 1.215.065.273.31.883.543 1.355.235.472.772 1.232 1.195 1.686.423.455 1.175 1.024 1.672 1.266.498.244 1.172.442 1.499.44.396 0 .747-.154 1.04-.453.323-.328.444-.652.444-1.176 0-.398-.159-1.15-.353-1.672s-.701-1.347-1.13-1.833c-.428-.488-1.183-1.117-1.68-1.401-.586-.333-1.159-.512-1.627-.51m104.795 1.438c-.085 0-.284.143-.44.317a3 3 0 0 0-.465.768c-.122.31-.111.706.034 1.257.137.528.477 1.076.979 1.582.423.428 1.236.993 1.808 1.255.795.365 1.209.451 1.762.372.494-.07.881-.279 1.221-.658.273-.304.497-.635.497-.734-.002-.1-.387-.263-.858-.362-.472-.098-1.368-.504-1.989-.903-.622-.398-1.377-1.07-1.679-1.492-.302-.423-.586-.912-.633-1.085-.045-.174-.152-.317-.237-.317m113.1-14.418c-1.41 1.318-4.314 4.058-6.455 6.09a753 753 0 0 0-5.567 5.333c-.92.901-1.672 1.7-1.672 1.776.002.074.186.135.41.137.224 0 .814.235 1.31.52.498.286 1.291.935 1.763 1.445s1.06 1.353 1.306 1.875c.246.523.47 1.255.497 1.627.027.37.07.675.096.678.025 0 2.137-1.972 4.693-4.384 2.558-2.412 6.158-5.83 8-7.599 1.844-1.768 3.452-3.395 3.572-3.616.12-.22.223-.747.225-1.17.004-.423-.137-1.155-.312-1.627-.178-.472-.604-1.216-.95-1.654-.345-.437-1.036-1.027-1.533-1.309-.678-.385-1.145-.513-1.862-.515l-.958-.002zm-51.295-1.94c-.845-.039-2.147.012-2.892.111-.747.102-2.089.42-2.984.707-.895.29-2.238.887-2.983 1.328-.746.443-1.798 1.197-2.339 1.678s-1.298 1.36-1.681 1.956c-.384.597-.859 1.615-1.054 2.26a9.2 9.2 0 0 0-.353 2.396c.002.845.14 1.599.451 2.44.248.673.757 1.662 1.131 2.2.374.536 1.047 1.299 1.495 1.696.447.396 1.22.986 1.717 1.312.497.323 1.513.837 2.26 1.14.745.302 1.965.691 2.712.863.978.226 2.112.309 4.068.303 2.177-.009 2.996-.086 4.159-.397.795-.212 2.218-.769 3.163-1.235 1.381-.683 2.004-1.134 3.184-2.303 1.105-1.095 1.61-1.765 2.057-2.72.325-.696.677-1.712.778-2.26.13-.699.124-1.368-.019-2.26-.124-.782-.462-1.78-.887-2.616-.403-.798-1.09-1.764-1.678-2.359a16 16 0 0 0-2.17-1.77c-.647-.419-1.806-1.005-2.576-1.301s-1.99-.666-2.712-.817c-.721-.152-2.002-.31-2.847-.351M-241.306-24.86c-.455-.085-.71-.037-.909.165-.246.251-.246.28 0 .282.152.002.704.205 1.226.453.522.247 1.341.836 1.822 1.308s1.099 1.307 1.376 1.853c.275.547.553 1.376.618 1.842.094.696.159.81.363.633.172-.15.225-.517.172-1.21-.04-.546-.269-1.4-.51-1.897-.238-.497-.845-1.303-1.346-1.787-.503-.487-1.199-1.027-1.546-1.203a5.7 5.7 0 0 0-1.266-.439m105.398-.09c-.048.004-.358.145-.689.31-.513.261-.548.314-.226.355.318.044.376.178.376.864 0 .449-.082.814-.181.814s-.242-.246-.316-.546-.197-.543-.271-.542-.134.146-.133.32c.002.173.166.661.363 1.084s.703 1.111 1.126 1.529 1.215.961 1.762 1.209c.581.262 1.347.455 1.839.46.664.01.946-.085 1.315-.44.26-.248.469-.595.465-.768-.002-.197-.191-.357-.5-.422a14 14 0 0 1-1.04-.279c-.298-.095-.868-.36-1.265-.59-.398-.232-1.024-.776-1.389-1.213-.367-.438-.775-1.102-.907-1.474-.134-.372-.28-.674-.329-.67m-104.61-1.089c-.211-.001-.477.12-.588.268-.166.226-.053.318.659.55.472.153 1.286.602 1.808.994.534.403 1.268 1.212 1.678 1.846.426.66.821 1.557.949 2.155.121.564.282.992.356.95s.138-.503.139-1.025c.004-.523-.11-1.233-.253-1.582-.141-.348-.57-1.055-.953-1.57s-.982-1.155-1.329-1.42a9 9 0 0 0-1.355-.822c-.398-.186-.897-.34-1.111-.344m222.7-7.684c.105.061.181.227.17.37s-1.215 1.38-2.68 2.746a1017 1017 0 0 0-4.657 4.385 934 934 0 0 1-4.661 4.384c-1.682 1.569-2.763 2.453-2.935 2.395-.148-.049-.274-.151-.278-.226-.006-.074 1.317-1.4 2.937-2.945 1.62-1.546 4.965-4.702 7.43-7.014 2.468-2.312 4.57-4.154 4.675-4.095m-167.215 3.156c.555-.266.982-.341 1.537-.27a5.2 5.2 0 0 1 1.446.438c.373.188 1.074.696 1.559 1.13.486.432 1.198 1.275 1.587 1.872.387.597.868 1.614 1.065 2.26.199.645.359 1.643.358 2.215-.002.57-.113 1.303-.245 1.627-.134.323-.518.82-.858 1.106-.56.47-.722.512-1.725.452-.938-.056-1.267-.178-2.157-.79-.578-.399-1.4-1.172-1.827-1.718s-.977-1.401-1.221-1.898-.581-1.434-.748-2.08c-.177-.686-.266-1.513-.214-1.989.051-.446.223-1.076.384-1.4.183-.369.576-.725 1.059-.955m-54.48 3.623c-.256 0-.522.06-.589.134s.428.39 1.1.703c.88.409 1.498.87 2.216 1.65.546.597 1.19 1.482 1.43 1.964.239.485.483 1.181.542 1.548.087.546.152.628.353.451.181-.157.213-.457.123-1.119-.067-.497-.342-1.305-.607-1.797-.266-.491-.892-1.298-1.389-1.795-.497-.495-1.311-1.089-1.808-1.32-.497-.23-1.114-.417-1.371-.419m54.574-2.895c-.072 0-.247.184-.388.408-.143.222-.313.732-.382 1.13-.078.459-.014 1.148.174 1.898.164.645.537 1.621.828 2.169.293.546.884 1.401 1.312 1.899.443.513 1.204 1.119 1.763 1.403.54.274 1.227.496 1.526.493.297-.002.643-.065.766-.137.141-.083-.161-.3-.813-.583-.593-.257-1.492-.875-2.096-1.446-.772-.727-1.262-1.408-1.808-2.52-.708-1.435-.75-1.613-.75-3.117 0-.877-.059-1.595-.132-1.596m15.561-5.561c-.134-.023-.814.27-1.51.653a160 160 0 0 0-3.525 2.048c-1.78 1.063-2.272 1.441-2.319 1.788-.035.24.397 1.619.959 3.06a314 314 0 0 0 1.825 4.564c.441 1.07.862 1.945.936 1.948.078 0 1.275-.661 2.666-1.472 1.392-.812 2.981-1.772 3.527-2.134.883-.585.986-.717.93-1.194-.036-.295-.373-1.596-.749-2.888-.376-1.293-1.092-3.245-1.591-4.339-.498-1.093-1.017-2.009-1.149-2.034m-68.706 7.496c-.405-.06-.793-.007-.994.136-.298.213-.271.244.304.34.349.06 1.157.455 1.796.881.64.427 1.469 1.183 1.841 1.68.374.497.844 1.271 1.048 1.718.203.448.371 1.037.373 1.31s.085.497.185.498c.099 0 .221-.122.27-.272.051-.149.093-.535.095-.858.002-.324-.236-1.076-.526-1.672-.292-.597-.883-1.456-1.315-1.908-.43-.452-1.15-1.033-1.599-1.29-.446-.256-1.111-.509-1.478-.563M-183.7-30.2a.72.72 0 0 0-.384.12c-.083.067-.138.698-.122 1.4.014.706.177 1.73.359 2.277.183.546.582 1.36.886 1.808.306.446.91 1.162 1.344 1.589.434.424 1.113.928 1.511 1.116s.924.368 1.171.4c.284.037.468-.041.506-.213.04-.18-.233-.39-.807-.62-.487-.197-1.275-.754-1.788-1.265-.595-.593-1.163-1.428-1.61-2.363-.571-1.2-.701-1.687-.761-2.847-.05-.987-.141-1.402-.305-1.402m48.802 3.265c-.372.282-.493.523-.479.951.011.316.177.9.367 1.298.192.398.76 1.11 1.264 1.582.502.472 1.262 1.02 1.683 1.217.423.197 1.175.363 1.672.369.615.007 1.031-.093 1.302-.314.217-.177.421-.48.452-.671.044-.275-.092-.382-.624-.498-.372-.081-1.062-.344-1.536-.583-.472-.236-1.257-.785-1.743-1.22-.488-.431-1.105-1.173-1.372-1.649l-.486-.86zm-101.708-2.132c-.557-.061-.884-.012-1.034.158-.176.2-.044.32.726.649.519.22 1.419.832 2.001 1.356a6.9 6.9 0 0 1 1.676 2.218c.341.696.667 1.551.725 1.898.078.474.144.564.262.362.088-.149.161-.577.163-.95.002-.372-.079-.901-.181-1.174s-.143-.538-.094-.588c.05-.049.166.115.256.362.093.25.274.696.402.994l.235.542c.089-.969-.082-1.54-.43-2.215a10 10 0 0 0-1.356-1.897c-.45-.472-1.204-1.03-1.678-1.24-.471-.212-1.225-.424-1.673-.475m53.987-.78c-.09.006-.115.55-.056 1.23.074.834.278 1.56.652 2.304.301.596.814 1.406 1.141 1.798s.96.941 1.408 1.221c.449.28.915.51 1.04.508s.226-.164.226-.363c0-.213-.204-.464-.497-.612-.273-.138-.859-.646-1.302-1.13a9.4 9.4 0 0 1-1.31-1.964c-.279-.596-.559-1.41-.623-1.808-.063-.397-.206-.829-.316-.958-.11-.128-.273-.23-.363-.226m105.744-3.411c.298-.01 1.031.072 1.628.182a10 10 0 0 1 2.079.674c.547.262 1.257.743 1.581 1.068s.75.917.95 1.315c.225.454.36 1.078.358 1.673-.002.537-.15 1.263-.34 1.672-.186.397-.651 1.023-1.036 1.388-.385.367-1.147.886-1.695 1.156-.546.269-1.522.574-2.169.677-.862.136-1.511.127-2.44-.036-.72-.126-1.727-.472-2.334-.8-.586-.317-1.343-.903-1.682-1.3-.343-.405-.736-1.161-.893-1.718-.177-.624-.233-1.231-.154-1.627a6 6 0 0 1 .447-1.266c.177-.349.617-.897.976-1.22a8 8 0 0 1 1.425-.984c.423-.219 1.217-.497 1.763-.618.547-.121 1.237-.227 1.536-.236m-56.305 4.143c-.11 0-.3.206-.422.457-.18.369-.175.608.028 1.22.157.483.622 1.133 1.265 1.77.57.564 1.47 1.219 2.054 1.492.584.27 1.358.484 1.763.484.398 0 .764-.081.813-.18.05-.1-.336-.297-.858-.44-.521-.141-1.373-.568-1.888-.95-.517-.38-1.275-1.136-1.681-1.684-.409-.548-.772-1.258-.808-1.582-.038-.323-.157-.586-.266-.587M-235.408-30.2c-.49 0-.89.107-1.04.278-.215.244-.184.28.25.272.274-.004.721.09.994.209.275.12.972.548 1.555.95.581.402 1.245.975 1.473 1.274.23.298.627.99.884 1.537.258.547.466 1.198.463 1.446-.006.41.022.427.295.18.215-.195.276-.473.22-.993-.043-.398-.273-1.13-.509-1.627-.237-.498-.801-1.301-1.253-1.784s-1.208-1.073-1.682-1.31c-.513-.259-1.175-.432-1.65-.432m159.076.058c-1.237-.054-1.846.008-2.54.252-.5.177-1.194.513-1.537.746-.344.233-.862.762-1.153 1.176l-.53.752c.54.98 1.105 1.532 1.602 1.863.497.329 1.31.716 1.807.86s1.432.263 2.08.263c.646 0 1.581-.12 2.078-.264a6.7 6.7 0 0 0 1.673-.815c.423-.304.97-.838 1.22-1.185.416-.582.432-.674.197-1.13-.14-.274-.486-.712-.768-.976-.282-.262-.962-.701-1.508-.976-.81-.405-1.294-.51-2.621-.566m-104.116 2.021c-.698-.74-.829-.822-.734-.452.065.248.314.899.551 1.447.239.545.798 1.36 1.244 1.808.445.446.846.77.89.723.043-.052-.187-.66-.51-1.356s-.973-1.672-1.441-2.17m49.335-2.62c-.1.006-.404.21-.679.456-.316.286-.495.627-.493.944.003.273.155.823.342 1.22.184.398.69 1.063 1.126 1.477a9 9 0 0 0 1.692 1.225c.645.335 1.177.469 1.853.465.705-.002 1.043-.097 1.311-.365.199-.199.361-.483.361-.633 0-.236-.04-.234-.316.011-.221.199-.371.226-.497.09q-.18-.191.049-.417c.126-.125.227-.287.225-.361s-.225-.176-.5-.225c-.273-.049-.985-.399-1.582-.778-.596-.382-1.32-.971-1.607-1.313a7.4 7.4 0 0 1-.814-1.214c-.159-.325-.372-.587-.471-.582m-103.233-.72c-.199.004-.516.09-.708.19-.189.102-.332.262-.316.356.018.094.235.172.482.172.25 0 .912.224 1.472.497.591.288 1.411.916 1.951 1.492.58.62 1.082 1.387 1.33 2.034.221.57.399 1.202.4 1.401 0 .2.101.334.226.302.128-.033.247-.407.275-.859.034-.546-.087-1.084-.378-1.703-.237-.497-.829-1.345-1.315-1.883-.575-.633-1.27-1.159-1.971-1.49-.597-.282-1.249-.51-1.448-.508m2.321-6.603c-.4-.083-.609-.047-.679.12-.055.134-.306.831-.555 1.55-.426 1.236-.435 1.345-.17 1.898l.284.588c.613-.594.973-.858 1.197-.97.224-.113.712-.205 1.085-.207.372 0 1.085.197 1.582.44.497.245 1.363.917 1.925 1.494.561.578 1.233 1.499 1.492 2.045.26.548.524 1.443.588 1.99.106.928.075 1.039-.455 1.671-.312.373-.526.758-.477.858s.477.305.949.456c.472.15.941.275 1.04.277.1 0 .416-.428.705-.951.456-.831.507-1.074.403-1.86-.084-.623-.494-1.58-1.318-3.074-.66-1.193-1.573-2.56-2.032-3.042-.457-.48-1.319-1.12-1.916-1.423a41 41 0 0 1-2.079-1.144c-.548-.33-1.253-.65-1.569-.716m-1.091 5.692c-.417 0-.801.064-.852.138s.374.313.941.53c.567.216 1.439.756 1.936 1.2s1.189 1.284 1.536 1.866.765 1.466.93 1.964c.246.742.321.84.434.542.074-.2.083-.87.02-1.492-.065-.621-.178-1.128-.254-1.128-.074.001-.269-.223-.431-.497-.165-.274-.631-.844-1.04-1.267a10.4 10.4 0 0 0-1.602-1.313c-.607-.386-1.081-.544-1.618-.543m250.431-3.644c-.298-.049-.72-.056-.94-.018-.218.036-.544.234-.723.439-.224.255-.325.664-.325 1.31 0 .726.16 1.26.712 2.374.526 1.067 1.063 1.79 2.08 2.805.98.982 1.75 1.556 2.722 2.039.936.463 1.595.67 2.125.667.423-.002.901-.065 1.064-.14.165-.075.416-.38.56-.678.18-.369.223-.773.137-1.266-.071-.398-.303-1.113-.514-1.59-.213-.475-.43-.859-.48-.851s-.436.337-.858.73c-.421.394-.85.716-.95.716s-.484-.125-.858-.278c-.372-.156-.993-.583-1.378-.95-.383-.369-.85-.996-1.034-1.393-.186-.398-.34-.925-.344-1.175-.005-.28.23-.691.622-1.085.348-.347.592-.693.546-.769-.048-.074-.43-.283-.852-.467-.421-.183-1.013-.371-1.312-.42m-248.18 1.66c-.223.002-.508.063-.631.135-.141.083.158.3.808.584.568.25 1.401.787 1.851 1.195s1.051 1.06 1.335 1.446c.316.432.473.826.406 1.02-.059.175-.168.32-.244.322-.074.003-.237-.201-.361-.452-.123-.252-.571-.832-.994-1.291-.422-.46-1.095-1.027-1.493-1.262-.397-.235-1.006-.508-1.355-.607-.347-.1-.816-.143-1.04-.094-.222.047-.408.147-.41.22-.001.077.243.197.543.271.3.076.974.409 1.495.74.522.332 1.254.942 1.627 1.356.374.414.921 1.281 1.22 1.927s.542 1.338.543 1.537c0 .202.1.334.225.3.148-.04.228-.432.23-1.13.003-.87.061-1.075.316-1.114.233-.032.342.13.425.633.099.6.134.636.293.317.099-.2.13-.606.067-.905-.061-.298-.32-.99-.573-1.537s-.842-1.386-1.309-1.867c-.468-.48-1.235-1.07-1.709-1.31-.471-.24-1.041-.436-1.265-.434m100.827 1.124c-.175.237-.289.715-.278 1.174.009.424.17 1.077.358 1.449.186.374.694 1.03 1.13 1.461.434.432 1.236.996 1.782 1.257.557.265 1.327.477 1.748.482.569.008.868-.1 1.217-.442.253-.248.423-.512.376-.588-.048-.075-.554-.379-1.126-.675s-1.522-.969-2.111-1.491a22 22 0 0 1-1.935-1.99l-.864-1.038zm-91.918 4.882c-.331-.206-.362-.181-.363.317-.004.5.027.527.36.319.199-.125.361-.268.363-.319.001-.051-.162-.193-.36-.317m91.85-8.631c-.008.454.197 1.162.547 1.897.306.648.953 1.664 1.438 2.26.484.597 1.433 1.505 2.107 2.017.676.51 1.637 1.131 2.134 1.379.497.25 1.351.584 1.899.745.546.16 1.44.285 1.988.274l.994-.02c-2.383-.5-3.562-.864-4.158-1.131-.597-.268-1.573-.835-2.169-1.262s-1.533-1.262-2.079-1.856c-.548-.595-1.257-1.521-1.577-2.06-.319-.537-.7-1.425-.846-1.973l-.266-.994zm54.045 4.576c-.546-.047-1.36-.03-1.808.041a8 8 0 0 0-1.627.48c-.449.195-1.1.6-1.446.9-.347.3-.776.844-.95 1.207s-.32.803-.323.979c-.005.23.212.11.814-.453.451-.423 1.207-.938 1.68-1.142.471-.206 1.385-.436 2.032-.512s1.663-.069 2.26.013c.597.083 1.573.387 2.17.675s1.35.816 1.673 1.174c.354.39.587.542.587.38 0-.15-.108-.537-.24-.86-.134-.323-.642-.937-1.13-1.365-.49-.427-1.297-.924-1.794-1.105a9 9 0 0 0-1.898-.412m-146.159-5.531c-.024-.027-.442.267-.928.652-.49.387-1.105.9-1.368 1.138-.415.376-.466.537-.39 1.244.047.448.291 1.22.543 1.717a49 49 0 0 0 1.317 2.35c.474.796 1.054 1.584 1.291 1.75.418.297.454.282 1.565-.632.628-.516 1.135-1.018 1.128-1.118-.005-.1-.222-.995-.484-1.989-.39-1.487-.665-2.093-1.553-3.434a211 211 0 0 0-1.121-1.678m96.17-3.464c-.596.004-1.367.107-1.714.231-.345.123-.833.492-1.085.818-.39.508-.455.78-.455 1.901 0 1.143.085 1.483.678 2.7.515 1.059 1.035 1.748 2.17 2.883.82.82 1.939 1.755 2.485 2.075.546.322 1.483.762 2.079.979.729.266 1.532.401 2.441.41 1.048.013 1.497-.065 1.976-.345.342-.198.79-.648.994-.995.268-.452.374-.947.375-1.73-.001-.934-.12-1.337-.799-2.711-.629-1.267-1.094-1.906-2.173-2.97-.911-.901-1.826-1.595-2.725-2.065-.744-.39-1.76-.816-2.258-.948-.497-.13-1.392-.235-1.989-.233m147.887 5.197-2.838 2.84c.3.997.767 1.628 1.293 2.123.528.495 1.084.859 1.32.86.289.002 1.186-.81 3.118-2.818 2.14-2.226 2.653-2.855 2.44-2.982-.149-.089-.311-.159-.36-.157-.051.001-.412-.306-.802-.682s-.85-.984-1.022-1.353l-.31-.667zm-153.105 4.557c-.133 0-.391.148-.574.33-.182.18-.316.385-.299.452s.277 0 .576-.15c.298-.147.541-.352.542-.451-.001-.1-.111-.181-.245-.181m-47.166-9.034c-.026.004-1.266.638-2.756 1.413-1.492.774-3.265 1.727-3.942 2.119-.959.553-1.178.756-.995.911.128.112 1.375.812 2.767 1.559s3.201 1.692 4.022 2.104c.821.41 1.614.747 1.763.747s1.837-.931 3.752-2.07a1139 1139 0 0 1 3.751-2.228c.2-.117-.268-.441-1.808-1.255a247 247 0 0 0-4.294-2.202c-1.215-.605-2.229-1.1-2.26-1.098m54.671 1.983c.085 0 .561.367 1.058.814.855.77.926.799 1.31.54.224-.15.528-.27.678-.266s.417.147.594.318c.177.17.318.434.314.582-.005.149-.232.444-.998 1.035l1.347 1.768-.911.904-.716-.859c-.392-.472-.835-.858-.985-.858s-.56.143-1.552.633l-.88-1.086 1.347-1.144-.678-.875c-.634-.817-.66-.893-.38-1.19.163-.173.367-.316.452-.316m1.103 2.186c.211.522.191.588-.317 1.027-.35.305-.413.417-.18.32.199-.086.625-.181.949-.215.374-.04.587-.163.588-.335 0-.148.224-.435.497-.634.273-.2.422-.411.334-.467-.091-.056-.358.045-.597.227-.423.324-.446.323-.967-.075l-.533-.407zm-105.582-4.885c-.293.008-.942.343-1.581.82-.596.444-1.165.882-1.266.97-.117.106-.045.372.206.763.243.374.884.87 1.717 1.32.732.399 1.657.861 2.055 1.03.397.17.865.31 1.039.316.173.005.669-.253 1.099-.577s1.08-.852 1.447-1.175c.364-.324.66-.649.659-.723-.002-.075-.714-.597-1.582-1.16s-1.965-1.152-2.437-1.31-1.083-.281-1.356-.274m254.129 2.789c-.287-.496-.521-.782-.524-.633-.003.148.226.637.51 1.085.304.48.824.98 1.268 1.22.415.225.751.346.748.271s-.338-.34-.744-.587c-.444-.273-.944-.81-1.258-1.356m.851-2.08c-.137.001-.361.13-.497.287-.198.231-.204.41-.027.95.12.364.487.932.814 1.261.454.455.767.606 1.318.633.703.032.724.018.773-.599.036-.43-.085-.835-.374-1.265-.233-.35-.725-.776-1.09-.95s-.778-.316-.917-.316"/></g></svg>