<svg xmlns="http://www.w3.org/2000/svg" fill="none" viewBox="0 0 32 32"><mask id="a" width="32" height="32" x="0" y="0" maskUnits="userSpaceOnUse" style="mask-type:alpha"><path fill="#d9d9d9" d="M0 0h32v32H0z"/></mask><g mask="url(#a)"><path fill="#e31e24" d="M90.858-7.265c.143-.017.542.075.883.206.342.13.712.368.821.526.142.206.313 1.219 1 6.783l2.861 1.167c1.574.642 3.016 1.28 3.206 1.42.28.21.36.387.431.97.068.557.033.794-.165 1.076-.139.2-4.41 3.853-9.49 8.118a6796 6796 0 0 1-12.2 10.221c-2.24 1.863-3.086 2.493-3.474 2.588-.435.106-.728.041-1.964-.427-.8-.304-2.512-.97-3.808-1.48s-2.439-.986-2.541-1.057c-.146-.101-.288-.969-.638-3.864-.414-3.425-.437-3.796-.273-4.45.098-.394.316-.918.484-1.167.168-.247 1.517-1.446 3-2.665a872 872 0 0 0 5.03-4.167 2911 2911 0 0 1 11.726-9.771 725 725 0 0 1 4.43-3.661c.231-.183.538-.348.681-.366m-.118.638c-.102.055-.644.483-1.202.951a2370.984 2370.984 0 0 0-8.319 6.909c-2.633 2.193-6.97 5.792-9.637 7.997s-4.989 4.217-5.157 4.47c-.17.252-.364.733-.431 1.067-.099.48-.034 1.35.3 4.117l.426 3.508a896 896 0 0 1 5.007 2.026c.572.238 1.367.546 1.766.688.664.238.728.24.784.02.038-.15-.01-.248-.132-.267-.107-.017-.877-.29-1.713-.605a298 298 0 0 1-3.391-1.312l-1.87-.736c-.69-5.23-.862-6.959-.825-7.218.038-.258.211-.725.384-1.036.234-.418 1.08-1.192 3.238-2.96a882 882 0 0 0 4.956-4.088c1.118-.933 2.733-2.287 3.587-3.008s2.12-1.777 2.812-2.347l3.654-3.011A385 385 0 0 0 89.197-5c1.001-.857 1.813-1.602 1.807-1.657-.009-.053-.03-.09-.047-.083a6 6 0 0 0-.216.113m1.03.335c-.145-.002-.532.229-.86.515s-2.589 2.175-5.025 4.198a2798 2798 0 0 0-7.418 6.186 1139 1139 0 0 1-5.445 4.53c-1.352 1.111-3.102 2.559-3.892 3.217s-1.561 1.335-1.714 1.504c-.152.169-.356.554-.452.856-.157.486-.132.927.212 3.798l.39 3.25c5.935 2.335 6.668 2.572 6.976 2.488.22-.062 2.603-1.964 5.526-4.41 2.828-2.368 6.218-5.217 7.532-6.332 1.314-1.114 4.194-3.525 6.4-5.358 2.204-1.834 4.133-3.415 4.284-3.516s.32-.156.38-.123c.058.033.052.168-.013.298-.066.133-.84.836-1.72 1.564-.881.729-3.862 3.223-6.624 5.545s-5.99 5.033-7.175 6.026-3.444 2.884-5.023 4.202c-1.58 1.316-3 2.45-3.154 2.516-.18.076-.258.201-.214.342.037.122.135.2.218.17.083-.028 1.672-1.324 3.53-2.882l6.787-5.69a1848 1848 0 0 0 5.32-4.476c1.051-.892 3.392-2.857 5.202-4.367 1.81-1.511 3.382-2.856 3.495-2.987s.2-.282.19-.335c-.009-.053-.129-.053-.267 0s-.3.028-.358-.055c-.062-.09.036-.289.238-.481.2-.193.3-.396.243-.491-.057-.09-1.095-.58-2.31-1.091a269 269 0 0 0-3.006-1.248c-.438-.175-.849-.386-.914-.47-.066-.082-.334-1.667-.596-3.52-.462-3.246-.49-3.37-.743-3.373m-17.876 25.8c.11.005.21.096.222.201s-.127.285-.313.399c-.185.115-.327.31-.313.436.014.125-.063.345-.17.487-.174.23-.172.277.021.426.121.092.428.178.683.192s.665-.038.909-.115c.245-.078.551-.24.681-.363.237-.22.235-.223-.084-.48-.319-.258-.319-.26.108-.97l.383.349c.286.26.371.432.336.683a1.7 1.7 0 0 1-.234.608c-.104.15-.369.375-.59.5-.219.125-.692.266-1.05.31-.357.043-.788.028-.959-.033a3 3 0 0 1-.639-.35.97.97 0 0 1-.38-.63c-.025-.213.044-.549.156-.743.113-.196.392-.482.62-.635s.504-.277.613-.272M25.437 3.118c.492-.061.9-.005 1.474.199.494.175 1.155.58 1.753 1.071.558.46 1.175 1.12 1.476 1.582.286.437.66 1.161.834 1.612.207.537.318 1.057.319 1.51.003.381-.058.863-.134 1.072a2.7 2.7 0 0 1-.41.69c-.15.17-1.403 1.25-2.786 2.397s-2.651 2.18-2.818 2.299-.474.269-.684.335c-.343.11-.441.303-1.013 1.957-.348 1.008-.74 1.934-.87 2.054-.13.121-.383.24-.561.262a.85.85 0 0 1-.57-.163c-.135-.113-.287-.39-.432-1.025l-.798.483c-.44.265-.96.503-1.155.529-.23.03-.349.118-.334.242.013.108-.092.373-.235.59-.142.216-.529.572-.86.789-.328.218-.648.48-.708.585s-.542.526-1.072.937c-.892.692-.99.818-1.324 1.708-.198.528-.413 1.198-.477 1.488s-.25.657-.411.814c-.163.157-.457.302-.653.324-.236.026-.463-.072-.666-.286-.17-.178-.315-.397-.323-.487-.01-.09-.046-.16-.081-.156-.041.008-.813.599-1.719 1.314-.909.718-1.83 1.425-2.049 1.57s-.689.3-1.046.343c-.401.05-.873 0-1.236-.128a7.4 7.4 0 0 1-1.155-.56c-.314-.194-.92-.75-1.347-1.237s-.95-1.249-1.165-1.695c-.214-.445-.46-1.097-.546-1.449s-.123-.896-.081-1.21.242-.795.444-1.069c.203-.274 1.068-1.087 1.922-1.807s1.653-1.4 1.776-1.512c.214-.195.21-.213-.11-.622-.181-.231-.346-.553-.367-.714-.02-.161.09-.456.243-.655.177-.23.426-.382.675-.413.219-.026.803-.002 1.299.056.812.093.94.08 1.269-.14.2-.135.566-.308.81-.387.33-.105.474-.243.56-.545.075-.264.434-.669 1.042-1.173.72-.599 1.044-.784 1.448-.833.457-.054.551-.127.785-.589.145-.29.494-.72 1.281-1.384l-.291-.228q-.293-.228-.356-.749c-.035-.285-.03-.62.008-.744.039-.123.222-.324.407-.446.291-.191.466-.202 1.342-.08.785.11 1.18.098 1.794-.054.614-.153.825-.267.959-.52.093-.18.272-.499.398-.71.128-.21.927-.95 1.777-1.644l2.807-2.286c1.136-.928 1.325-1.036 1.94-1.112M3.189 22.455c-.415.051-.565.148-.81.527-.28.438-.288.528-.118 1.498.152.876.28 1.193.838 2.074.45.71.912 1.241 1.453 1.67.437.347 1.073.728 1.414.847.34.12.839.191 1.108.16.32-.038.592-.173.792-.393.24-.262.3-.486.282-1.056a4.2 4.2 0 0 0-.34-1.475 10 10 0 0 0-.823-1.48c-.279-.399-.901-1.045-1.384-1.434-.483-.39-1.109-.773-1.39-.853a3.1 3.1 0 0 0-1.022-.085m69.065-4.758c.126-.017.236.013.244.068.007.053-.104.238-.247.41-.145.172-1.044.955-2 1.739-1.55 1.271-1.76 1.406-1.956 1.25s-.128-.247.621-.845c.462-.369 1.352-1.102 1.977-1.63.624-.529 1.236-.974 1.361-.992M-45.02 8.715c.605-.078 1.2-.048 1.924.098.576.115 1.518.43 2.093.7.575.268 1.456.809 1.96 1.2.503.393 1.265 1.13 1.695 1.64.43.509.942 1.292 1.139 1.74.205.465.4 1.174.457 1.657.061.535.033 1.048-.077 1.395-.097.302-.48.917-.852 1.369-.387.469-.89.918-1.176 1.05-.317.149-.881.257-1.546.299a6.2 6.2 0 0 1-1.932-.16c-.723-.188-.935-.197-1.157-.047-.174.117-.24.263-.181.404.048.12-.012.35-.138.51-.16.206-.4.313-.812.364-.322.039-.578.13-.57.201s-.104.235-.252.362c-.163.143-.362.205-.51.161-.224-.064-.224-.095.017-.398.143-.18.226-.345.188-.369a9 9 0 0 0-.623-.24c-.303-.11-.92-.5-1.368-.87-.552-.455-.902-.863-1.077-1.26-.248-.556-.28-.58-.642-.467a1.23 1.23 0 0 0-.58.426c-.11.169-.173.51-.14.76.031.25.174.663.316.917.14.255.344.453.452.44.106-.013.202.05.213.14s.298.377.64.64c.34.262.897.564 1.237.67.338.105.793.183 1.01.173s.578-.085.804-.163c.342-.118.415-.103.434.086.012.125-.07.311-.18.413-.112.102-.467.223-.787.266-.321.043-.69.18-.82.304s-.339.238-.464.252c-.124.013-.28-.037-.343-.11-.066-.079-.024-.197.098-.277.117-.077.207-.198.198-.27-.008-.071-.281-.239-.606-.373-.325-.133-.881-.465-1.238-.738-.356-.273-.82-.787-1.03-1.142-.382-.644-.382-.645-.788-.46-.223.103-.457.245-.521.315-.064.072-.107.453-.094.85.012.399-.02.78-.072.847-.051.068-.16.028-.242-.089-.08-.116-.235-.202-.341-.189-.108.013-.277.212-.376.44-.114.268-.284.43-.471.454a2 2 0 0 0-.48.125c-.11.053-.167.248-.139.48.032.262-.072.55-.32.881-.304.405-.411.471-.607.372-.19-.097-.286-.062-.477.171-.157.192-.22.45-.179.747.06.434.04.46-.48.617-.298.089-.58.212-.627.274-.046.061-.098.38-.15 1.307l-.519.027c-.356.02-.58.108-.72.287-.149.188-.177.453-.109.972.09.68.11.71.413.642q.318-.072.341.123c.014.107.273.407.576.665.304.26.893.584 1.31.723.472.157.974.224 1.34.178.32-.04.71-.13.865-.197q.28-.123.305.038c.014.089-.067.277-.179.419-.138.174-.372.268-.727.292-.372.024-.625.132-.877.374-.194.187-.457.35-.582.362-.125.014-.265-.03-.31-.098-.044-.067.027-.223.156-.348.13-.126.233-.272.229-.326-.006-.053-.18-.156-.391-.226-.21-.072-.724-.335-1.141-.586-.629-.379-.775-.42-.853-.247a1 1 0 0 0-.066.437c.014.125.187.312.384.414s.5.271.985.562l-.324.05c-.21.033-.54-.111-.94-.408-.34-.25-.623-.516-.632-.587-.008-.072.116-.265.277-.43.258-.263.27-.34.108-.639a2.2 2.2 0 0 0-.534-.593c-.191-.14-.44-.244-.55-.23s-.327.187-.48.388c-.242.316-.26.446-.13.972.08.335.185.708.233.829.046.12.172.21.28.197.106-.013.202.034.21.106.01.072.228.29.488.485.26.196.785.488 1.167.647.54.227.861.271 1.442.202.411-.05.77-.153.797-.229.026-.076.108-.145.179-.154.071-.008.144.102.162.244.017.143-.089.369-.236.5-.194.173-.432.237-.862.23-.496-.007-.632.043-.821.294-.125.167-.358.316-.52.333-.161.017-.54-.056-.844-.164a2.6 2.6 0 0 1-.936-.643c-.241-.279-.408-.631-.444-.935-.033-.268-.206-.706-.384-.975-.178-.268-.367-.485-.42-.48-.054.004-.242.174-.416.38-.236.277-.303.498-.26.86.03.268.164.683.296.92s.46.602.728.808c.27.207.77.495 1.115.638.507.212.748.238 1.268.127.353-.075.74-.19.86-.254.161-.087.223-.052.247.143.02.168-.108.341-.367.494-.285.167-.573.226-.998.203s-.666.027-.836.17c-.131.113-.736.387-1.343.611-.607.226-1.206.425-1.331.443a.56.56 0 0 1-.399-.116c-.133-.114-.121-.472.053-1.562.124-.776.293-1.525.379-1.662.095-.152.1-.267.017-.298-.076-.026-.17-.311-.21-.633-.058-.478-.005-.68.294-1.1.202-.283.45-.548.554-.591.103-.042.21-.274.239-.514.027-.242.12-.582.205-.756.096-.197.367-.392.722-.517.49-.173.563-.247.53-.526-.023-.183.104-.515.29-.76.228-.299.46-.453.732-.487.352-.043.4-.1.407-.478.004-.236.1-.529.21-.652s.377-.275.59-.34c.31-.094.388-.191.38-.476-.006-.196.143-.553.331-.793.25-.32.464-.453.797-.494.41-.05.45-.09.407-.412-.027-.196.05-.533.172-.747.129-.228.341-.403.513-.422.186-.02.338-.16.415-.38.07-.2.271-.4.47-.468.191-.065.418-.152.504-.193.085-.041.134-.25.108-.464-.035-.285.062-.51.36-.835.223-.245.552-.463.73-.485.179-.022.341-.116.36-.21s.049-.334.066-.535.176-.533.35-.735c.174-.204.534-.425.797-.493.433-.113.475-.163.432-.515-.032-.257.075-.566.682-1.427l-.43-.825c-.32-.614-.461-1.074-.549-1.8-.082-.694-.063-1.112.069-1.458.102-.265.365-.769.585-1.116.221-.348.536-.743.702-.876a4.7 4.7 0 0 1 .735-.456c.239-.118.83-.265 1.312-.328m70.549-5.08c-.351.041-.785.32-1.833 1.182-.755.62-1.941 1.575-2.635 2.123l-1.263.998c.64.22.974.39 1.155.523.181.132.337.314.346.404.01.09-.067.203-.17.251-.103.05-.38-.035-.616-.188-.236-.152-.595-.293-.796-.312-.3-.03-.412.04-.602.37-.129.224-.215.433-.191.466s.267.138.542.23c.274.094.507.228.516.3s-.094.202-.228.291c-.189.125-.349.109-.7-.07a3.3 3.3 0 0 0-.893-.287c-.312-.038-.549.02-.831.208a4 4 0 0 0-.716.649c-.174.211-.313.414-.31.45.005.036.19.088.412.115.223.026.582.167.8.312l.395.262c-.643.5-.678.502-.953.286-.16-.125-.519-.26-.795-.297a4.5 4.5 0 0 0-.634-.055c-.072.009-.413.258-.756.554s-.62.58-.614.635c.007.053.288.168.624.253.442.113.621.23.644.416.023.183-.133.358-.52.591l-.553.332c-.969-.392-1.397-.489-1.575-.467-.179.022-.448.124-.598.225a4 4 0 0 0-.537.461l-.263.276c.953.292 1.271.462 1.321.564a.52.52 0 0 1-.017.398c-.09.181-.167.172-.535-.066a2.2 2.2 0 0 0-.927-.299c-.397-.016-.524.033-.631.243-.075.145-.133.293-.129.328.008.037.21.11.453.166s.496.188.565.293c.067.107.1.255.074.33-.028.076-.138.15-.244.162-.108.014-.4-.07-.65-.183a2.1 2.1 0 0 0-.972-.145c-.286.035-.668.187-.848.335-.18.15-.416.459-.526.69l-.203.42c.726.268.945.405.954.476.009.072-.08.195-.197.273-.145.099-.37.088-.696-.031a4.3 4.3 0 0 0-.85-.211c-.303-.029-.617.173-1.772 1.145a98 98 0 0 1-1.737 1.432c-.182.138-.325.296-.32.35.007.052.1.086.207.073s.427.06.713.163c.284.102.833.407 1.219.675s.995.838 1.353 1.265c.357.428.825 1.084 1.038 1.456.245.426.466 1.069.598 1.733l.208 1.056c3.286-2.644 3.621-2.977 3.724-3.358.106-.404.076-.586-.242-1.439-.247-.657-.329-1.028-.253-1.137.062-.087.174-.14.25-.114s.298.435.496.909l.374.901c.009.02.223-.082.478-.224.254-.143.498-.398.544-.567.047-.184 0-.56-.122-.941-.111-.35-.266-.701-.346-.782a.44.44 0 0 1-.103-.35.3.3 0 0 1 .236-.227c.107-.012.314.185.458.438.143.255.34.77.436 1.142l.175.68c1.023-.922 1.343-1.339 1.392-1.553.064-.284.002-.57-.248-1.151-.183-.426-.358-.887-.39-1.027-.035-.154.032-.279.168-.318.167-.047.313.115.585.65.2.392.426.9.501 1.128s.152.412.17.408.207-.16.42-.344c.211-.186.421-.403.465-.485.042-.082.042-.456-.003-.832-.044-.375-.197-.89-.338-1.145-.141-.254-.24-.569-.217-.698.021-.13.112-.247.201-.259s.289.171.446.408c.155.237.355.659.444.94.125.394.22.501.422.475.142-.02.434-.174.65-.345.34-.273.38-.38.32-.864-.038-.304-.208-.846-.378-1.205-.208-.44-.273-.705-.196-.813.061-.09.19-.136.284-.103s.335.38.534.772c.247.485.358.873.346 1.21-.012.352.03.491.146.477.089-.013.426-.275.746-.585.406-.393.607-.71.656-1.037s-.003-.661-.169-1.1c-.13-.346-.29-.77-.354-.945-.064-.176-.055-.367.02-.432.074-.063.214-.072.31-.02.097.05.283.34.412.641.13.3.268.707.308.901.04.196.133.351.205.345s.206-.116.3-.245c.091-.129.45-.354.795-.5s.685-.318.758-.38c.072-.063.181-.253.244-.424.065-.18.054-.512-.028-.788a4.3 4.3 0 0 0-.444-.934c-.214-.325-.271-.519-.196-.669.058-.115.168-.188.244-.162.076.028.321.339.545.692.224.354.434.862.468 1.13.032.267.09.483.126.479.04-.008.673-.52 1.41-1.14a450 450 0 0 1 2.391-2.008c.784-.655 1.081-.995 1.186-1.353.076-.262.097-.815.044-1.225-.058-.461-.26-1.08-.53-1.617-.24-.478-.637-1.112-.884-1.409-.246-.295-.812-.804-1.257-1.13-.443-.327-1.07-.679-1.39-.784-.322-.103-.793-.165-1.046-.136m52.178 15.238c.072-.01.246.041.385.117.178.095.232.211.18.386-.05.164-.184.248-.393.246-.174-.004-.394-.1-.488-.218-.132-.164-.13-.248.007-.363.1-.08.238-.156.31-.168m-73.86 4.56c.06-.008.31.04.552.11.245.067.727.364 1.07.66.344.294.846.88 1.115 1.3.352.55.513.956.573 1.447.073.593.043.722-.241.988-.224.209-.43.289-.661.257-.184-.025-.589-.175-.898-.332s-.784-.55-1.055-.874a9 9 0 0 1-.755-1.047c-.145-.256-.306-.78-.36-1.167-.087-.623-.062-.74.224-1.017.178-.172.375-.318.436-.326m-63.363 10.53c-.046.003-.145.472-.224 1.042-.078.571-.13 1.046-.119 1.055.017.008.495-.154 1.066-.36.572-.208 1.034-.437 1.026-.509-.009-.071-.136-.144-.284-.163-.147-.017-.52-.265-.826-.55-.308-.287-.594-.518-.64-.516m63.454-9.88c-.255.028-.285.099-.23.552.036.286.221.812.411 1.17.192.357.57.86.84 1.117.27.256.734.547 1.03.645.44.145.553.143.614-.01.041-.102.051-.362.023-.576a3.2 3.2 0 0 0-.267-.824c-.118-.239-.456-.725-.752-1.078-.295-.352-.727-.729-.958-.835s-.55-.178-.71-.16m10.013.503c-.028-.02-.237.465-.465 1.08-.227.615-.355 1.11-.284 1.102.072-.01.28-.495.464-1.079.185-.583.312-1.08.285-1.103m64.247-8.793c.274-.172.59-.285.7-.25s.187.123.17.198c-.019.074-.165.22-.329.326a2.4 2.4 0 0 0-.523.502c-.207.287-.207.336.016.636.144.192.46.367.779.433.484.098.599.075 1.153-.245.594-.342.611-.369.48-.761a7 7 0 0 0-.243-.626c-.076-.16-.034-.227.155-.25.168-.02.362.12.544.395.261.392.271.462.13.874-.096.281-.354.582-.692.808-.297.199-.744.385-.995.416-.25.03-.702-.02-1.003-.113-.301-.092-.668-.3-.814-.458-.147-.159-.28-.392-.294-.517-.016-.126.039-.414.119-.642.086-.242.354-.543.647-.726m-2.778 1.773c.08-.013.301.065.488.17.23.133.322.272.284.434a.38.38 0 0 1-.285.27c-.125.018-.386-.062-.582-.177-.307-.182-.334-.242-.203-.443.083-.127.217-.24.298-.255M-57.002 32.823c-.42-.35-.578-.424-.56-.261.014.125.09.25.165.277s.156.196.178.373c.023.193.168.391.356.485.173.088.476.14.673.116.196-.025.378-.107.406-.183.026-.076-.105-.178-.291-.228-.188-.05-.606-.31-.927-.58M78.675 12.326c.103.006.216.067.25.135.033.07-.436.551-1.044 1.072-.609.522-1.916 1.618-2.903 2.437s-1.85 1.478-1.918 1.466c-.066-.012-.15-.094-.187-.179-.035-.088.536-.657 1.28-1.277.74-.617 2.017-1.694 2.84-2.393.821-.698 1.578-1.265 1.682-1.26m-8.878 1.186c.142-.02.401.08.573.223s.367.375.43.513c.067.142.053.322-.032.424-.082.095-.211.141-.291.101s-.235-.226-.348-.41c-.11-.187-.246-.336-.301-.332s-.243.146-.423.316c-.178.17-.413.557-.521.86-.115.324-.157.75-.104 1.035.088.454.115.477.476.39.211-.051.532-.21.712-.351.179-.142.377-.221.44-.176.061.046.029.241-.075.437-.102.196-.31.438-.462.537-.15.1-.45.203-.664.23-.271.035-.496-.052-.743-.286-.297-.281-.352-.43-.34-.898.006-.31.097-.796.2-1.08.103-.286.311-.658.46-.83s.379-.39.512-.488c.133-.096.358-.193.501-.215m12.737 1.345c.191-.022.43-.007.53.033.102.042.179.194.173.34-.007.168-.128.293-.332.343a.82.82 0 0 1-.57-.095c-.138-.095-.227-.265-.199-.377.029-.113.207-.222.398-.244m-9.873-.38c.084-.013.26.119.389.29.193.256.211.357.098.553a4.5 4.5 0 0 0-.28.685c-.076.244-.168.449-.204.454-.036.004-.174-.157-.308-.358-.133-.202-.26-.475-.285-.608-.024-.132.064-.41.197-.617.132-.208.309-.387.393-.399m11.238-3.185c.16 0 .276.099.294.247.022.183-.125.311-.566.497-.327.139-.616.315-.644.39-.025.076.057.126.185.11.225-.028.226-.016.039.291-.107.175-.187.393-.177.483.008.089.214.198.453.243.242.044.6.06.797.034s.55-.158.787-.295c.418-.243.424-.26.196-.551-.208-.268-.217-.34-.08-.65.086-.192.244-.36.35-.373.108-.013.27.087.358.22.089.135.182.404.21.601.028.223-.074.501-.273.742-.176.212-.442.468-.594.567-.15.1-.537.215-.859.254-.32.04-.752.03-.96-.023-.205-.052-.554-.232-.776-.4-.226-.171-.42-.447-.443-.629-.023-.179.046-.506.153-.728.109-.221.442-.545.742-.717.3-.173.663-.313.808-.313m-3.825 2.018c.027-.003.265.056.528.133.28.08.492.232.513.365.018.125-.053.326-.157.449-.168.195-.229.203-.544.066-.195-.085-.432-.244-.526-.354-.126-.147-.129-.255-.016-.426.084-.124.173-.23.202-.233m-135.44 14.6c.073-.008.334.294.579.674.273.424.716.869 1.139 1.146.654.43.71.443 1.018.237.311-.21.313-.226.055-.336-.15-.065-.648-.399-1.106-.74-.621-.464-.81-.676-.74-.828.074-.162.221-.095.726.332.348.295.908.619 1.248.721.338.102.825.201 1.081.22.28.021.59-.044.773-.16.215-.137.35-.16.452-.075.1.083.073.222-.08.426-.175.234-.36.31-.816.338-.444.028-.676.122-.943.377-.195.186-.443.343-.55.348-.11.006-.669-.24-1.244-.545-.726-.385-1.168-.72-1.444-1.099-.237-.324-.374-.641-.34-.782.032-.13.118-.245.192-.254m78.23-18.807c.166-.02.498.117.738.305.32.25.453.465.494.797.04.336-.042.584-.314.946-.204.273-3.094 2.713-6.424 5.423-5.461 4.447-6.107 4.933-6.577 4.976-.374.036-.626-.033-.887-.242a1.08 1.08 0 0 1-.418-.725c-.03-.238.021-.548.113-.69.09-.143.623-.64 1.183-1.106a342 342 0 0 1 3.538-2.874 358 358 0 0 0 4.376-3.577c1.018-.852 2.31-1.92 2.866-2.374.558-.452 1.148-.838 1.313-.859M-53.127 25.39c.086-.012.247.116.359.285.112.17.457.53.77.8.314.27.885.586 1.272.702s.896.196 1.13.178.552-.086.707-.152c.156-.066.315-.08.354-.03.039.049.002.231-.082.405-.123.25-.275.33-.74.387-.432.053-.675.169-.934.444-.192.205-.439.384-.545.397a.35.35 0 0 1-.3-.128c-.06-.089.028-.265.213-.422.174-.148.31-.328.301-.4-.009-.07-.15-.14-.316-.153-.165-.013-.683-.29-1.153-.618-.468-.326-.953-.773-1.078-.993-.123-.221-.198-.464-.168-.54a.3.3 0 0 1 .21-.162M74.622 9.488c.294-.038.572.016.723.143.135.113.303.345.374.518.071.172.113.48.095.68-.025.252-.118.378-.296.4-.214.026-.27-.053-.315-.456-.031-.289-.143-.544-.274-.626a.6.6 0 0 0-.471-.042c-.14.053-.395.397-.568.763-.218.457-.296.827-.25 1.184.064.504.079.518.506.466.241-.03.535-.17.653-.308.117-.139.287-.263.376-.276s.176.079.194.203c.017.124-.087.37-.23.546a2.4 2.4 0 0 1-.633.51c-.205.105-.48.172-.608.15-.13-.022-.376-.187-.544-.365a1.5 1.5 0 0 1-.356-.781c-.027-.25.04-.734.148-1.073.107-.34.377-.832.598-1.095.299-.356.522-.495.878-.54m-51.783.149c-.034.01-.279.203-.541.428-.263.224-1.125.938-1.916 1.586-.79.65-2.489 2.04-3.775 3.088-1.287 1.05-2.93 2.4-3.655 2.997s-1.657 1.372-2.072 1.72c-.471.397-.763.747-.777.935-.01.165.063.381.165.48.104.099.334.16.512.135.179-.024.809-.447 1.4-.941.593-.494 1.986-1.628 3.095-2.522s2.323-1.875 2.7-2.18c.375-.306 1.52-1.241 2.541-2.078 1.021-.838 2.006-1.637 2.189-1.775.181-.138.325-.296.319-.35-.005-.053-.142-.08-.302-.058-.161.022-1.227.79-2.367 1.708-1.142.917-2.76 2.244-3.595 2.948a71 71 0 0 1-2.087 1.706c-.31.234-.618.387-.683.343-.065-.047-.033-.2.07-.34s1.193-1.09 2.423-2.11c1.23-1.021 2.932-2.43 3.784-3.134.85-.702 1.74-1.404 1.975-1.56.41-.27.45-.275.844-.103l.416.18c.07-.658.006-.777-.26-.93-.187-.108-.366-.185-.403-.173m.193 7.237c-.03-.025-.131.195-.226.49-.094.295-.299.892-.455 1.328s-.224.77-.152.743.3-.604.507-1.282c.207-.677.354-1.253.326-1.28m58.947-7.219a.25.25 0 0 1 .09.272c-.035.099-.648.662-1.364 1.253s-1.39 1.088-1.497 1.106c-.107.017-.204-.052-.216-.152-.012-.102.62-.723 1.408-1.38.881-.739 1.486-1.159 1.58-1.099m-136.076 16.78c.073-.009.247.134.388.316s.59.578.998.88c.71.523.725.546.342.51-.22-.021-.646-.169-.946-.326-.3-.158-.652-.452-.782-.654-.13-.201-.214-.443-.185-.538.028-.094.111-.179.185-.188m126.025-14.37q.26-.032.291.228.033.26-.227.292-.26.03-.292-.228-.032-.26.228-.292m16.687-4.78c.109.006.226.11.259.232q.064.223-.368.473c-.237.139-.453.313-.48.389-.027.075.035.097.138.049.102-.05.199-.016.212.073.015.09-.057.26-.156.382-.1.122-.174.279-.164.35.011.071.216.15.456.175.24.026.627.024.86-.006.232-.028.587-.16.788-.295.2-.134.355-.346.342-.47a.6.6 0 0 0-.16-.315l-.182-.168a.6.6 0 0 1-.161-.313.24.24 0 0 1 .204-.26c.124-.018.334.06.467.174.132.113.293.332.357.488s.062.445-.005.643c-.067.199-.34.509-.607.692-.294.2-.743.364-1.137.416a2.6 2.6 0 0 1-1.201-.123c-.323-.121-.637-.355-.755-.563-.166-.295-.172-.44-.036-.836.095-.278.37-.63.649-.838.266-.197.573-.353.68-.349M-52.06 23.945c.055-.007.524.297 1.042.675.517.378 1.251.797 1.63.931.51.179.822.209 1.2.115.282-.07.67-.18.86-.246q.35-.12.365.044c.01.09-.072.279-.18.421-.132.177-.38.278-.78.322-.375.04-.59.12-.748.287l-.116.139c-.13.139-.328.254-.469.27-.161.017-.326-.01-.366-.059-.032-.037-.001-.142.067-.26l.162-.24c.068-.119.098-.225.067-.261-.04-.05-.162-.08-.269-.067s-.468-.148-.802-.36c-.334-.21-.725-.367-.868-.351-.167.02-.386-.142-.616-.456-.196-.268-.339-.577-.317-.69.02-.111.082-.207.138-.214M85.423 9.527c.276.127.532.3.57.387.035.086-.045.23-.179.319-.176.116-.38.122-.723.022-.264-.077-.494-.17-.516-.206-.02-.037.05-.22.155-.408l.19-.344zm2.32-4.803c.09-.012.173.065.186.173s-.123.33-.301.494c-.18.165-1.297 1.104-2.482 2.088-1.183.983-2.236 1.78-2.342 1.775-.104-.008-.215-.071-.249-.14-.028-.071 1.088-1.081 2.484-2.246 1.399-1.168 2.615-2.133 2.705-2.144M-50.46 22.166c.035-.004.508.34 1.048.766.756.593 1.158.809 1.729.928.548.115.92.111 1.416-.011.549-.137.676-.133.696.027.013.107-.098.295-.246.418a.96.96 0 0 1-.668.193c-.292-.023-.495.059-.754.301-.195.184-.458.343-.583.356-.125.014-.236-.049-.245-.138s.072-.28.18-.422c.162-.216.162-.255 0-.235-.109.013-.69-.196-1.294-.464-.7-.311-1.157-.6-1.26-.798a1.23 1.23 0 0 1-.12-.611c.02-.166.066-.305.101-.31m56.78-4.973c-.094.012-.242.1-.331.198s-.142.254-.116.345c.026.092.137.306.249.477.187.288.247.299.776.147.342-.099.65-.285.762-.462.106-.165.187-.344.183-.398-.005-.053-.31-.148-.68-.212-.37-.063-.75-.106-.843-.095m85.928-10.39c.109-.016.33.076.782.436l-.227.295c-.125.163-.272.3-.325.304-.054.004-.277-.12-.495-.273-.39-.277-.393-.286-.165-.507.128-.125.322-.239.43-.255M80.292 4.71c.124-.015.39.1.59.257.292.228.373.397.4.84q.036.555-.155.618c-.13.042-.252-.107-.388-.479-.143-.39-.272-.542-.463-.548-.145-.005-.386.142-.533.328-.147.185-.352.57-.455.854-.102.284-.15.706-.104.936.057.285.146.403.276.37.105-.027.43-.156.72-.286.292-.131.567-.213.614-.182.046.03.066.177.045.324s-.204.394-.404.545c-.2.15-.54.296-.754.322a1.05 1.05 0 0 1-.682-.18c-.205-.16-.312-.4-.363-.813a3.4 3.4 0 0 1 .072-1.096c.077-.281.254-.666.39-.856.135-.19.408-.475.606-.635.198-.159.463-.302.588-.319M-50.482 23.358c.053-.008.15.143.216.334.066.19.091.382.054.422-.036.04-.16.04-.275 0a.75.75 0 0 1-.33-.267c-.077-.121-.055-.247.058-.335.098-.078.224-.147.277-.154M93.727 3.166c.1.02.197.149.217.283.022.148-.054.257-.191.276-.125.016-.461.176-.748.355-.286.178-.512.397-.503.487.015.13.047.126.156-.019.076-.1.214-.19.307-.202a.163.163 0 0 1 .186.142c.01.09-.072.283-.179.43-.184.252-.18.275.09.428.194.11.513.119 1.02.028.459-.084.812-.227.942-.38.197-.233.186-.252-.24-.399-.247-.084-.436-.228-.422-.321.016-.098.21-.182.47-.2.243-.018.474-.106.512-.195.05-.12.132-.118.304.006a.74.74 0 0 1 .264.463c.017.161-.135.514-.338.784-.216.287-.59.578-.903.704-.295.117-.759.204-1.032.193a3 3 0 0 1-.986-.251c-.308-.146-.54-.371-.622-.602-.079-.221-.08-.55-.002-.815a1.55 1.55 0 0 1 .503-.707c.204-.145.517-.321.694-.393s.402-.115.5-.095M-48.087 22.724c-.365-.316-.362-.316.3.017.366.184.64.369.61.408-.03.04-.167.032-.3-.017-.132-.05-.408-.234-.61-.409M90.038 5.232c.302-.037.48.02.594.191.088.134.165.272.17.309.002.035-.103.138-.237.226-.175.117-.358.12-.657.015-.227-.081-.433-.224-.457-.317-.023-.095.001-.217.055-.271.055-.056.293-.124.531-.153M-47.746 19.635c.078.016.178.227.224.468.044.242.18.517.3.612.123.094.23.215.237.268.009.053-.057.105-.147.116s-.349-.165-.575-.39c-.227-.227-.433-.486-.46-.577-.025-.09.026-.248.116-.346.09-.1.227-.167.305-.151M92.31.906c.103.002.214.073.25.16.032.09-.798.88-1.88 1.788-1.069.897-2.029 1.624-2.133 1.613-.104-.01-.217-.075-.252-.143-.035-.069.435-.542 1.046-1.051.61-.51 1.486-1.252 1.945-1.648s.921-.72 1.024-.719M-47.079 16.083c-.05.006-.195.195-.325.422-.168.294-.211.58-.148 1.007.047.326.224.8.392 1.051.167.252.604.673.971.936.368.264.93.564 1.252.669.32.104.802.164 1.071.132.305-.036.48-.117.464-.22-.012-.089.109-.31.27-.493l.292-.332c-1.705-.982-2.433-1.473-2.719-1.723a14 14 0 0 1-.973-.955c-.25-.275-.497-.497-.547-.494M85.568.368c.233-.031.527.035.67.15.14.111.326.418.413.68.15.45.14.48-.166.518-.253.032-.356-.044-.47-.341-.08-.21-.24-.414-.355-.454-.136-.047-.312.054-.508.293-.165.2-.379.614-.476.916-.098.302-.163.695-.145.875.016.178.115.386.219.462.11.08.224.062.453-.1l.544-.427c.228-.163.341-.18.45-.1.151.11.159.19.04.417-.082.155-.33.442-.553.637-.277.24-.51.34-.74.314a1.2 1.2 0 0 1-.601-.296c-.174-.167-.29-.464-.332-.844a3.3 3.3 0 0 1 .11-1.134c.094-.301.364-.764.6-1.03.29-.324.565-.499.847-.536M-47.715 12.796c-.145-.545-.178-.589-.227-.302-.032.186.045.651.17 1.034.127.384.459 1.055.736 1.492.278.438.819 1.11 1.203 1.495.384.384 1.15.99 1.702 1.345.551.356 1.498.82 2.103 1.03s1.373.41 1.704.444a7 7 0 0 0 1.25-.019c.357-.042.73-.144.829-.227.13-.108-.003-.128-.47-.074a6.3 6.3 0 0 1-1.32-.016c-.37-.05-1.01-.197-1.425-.327s-1.135-.43-1.6-.669a13 13 0 0 1-1.696-1.103c-.469-.367-1.103-.963-1.41-1.325-.308-.36-.744-.991-.97-1.399-.224-.407-.486-1.028-.58-1.379M88.177 1.772c.123-.012.308.07.41.181.102.112.2.305.218.43.018.124-.077.313-.209.42a.6.6 0 0 0-.204.488c.02.16-.008.3-.06.31-.053.01-.171-.05-.262-.134-.09-.083-.227-.35-.303-.595-.093-.3-.087-.547.023-.761.088-.174.263-.326.387-.339m-133.23 7.483a5 5 0 0 0-.829.225c-.244.09-.575.295-.737.452a3.6 3.6 0 0 0-.546.764c-.223.428-.23.595-.071 1.514.153.89.274 1.182.864 2.103.571.894.907 1.245 2.033 2.124.741.58 1.693 1.205 2.115 1.387.42.184 1.133.417 1.58.52.473.107 1.252.155 1.86.114.91-.061 1.116-.118 1.581-.442.375-.261.608-.562.772-.997.147-.39.208-.84.163-1.207-.04-.32-.206-.893-.368-1.273-.163-.378-.554-1.043-.87-1.476s-1.007-1.141-1.533-1.574c-.527-.434-1.245-.95-1.595-1.147a12 12 0 0 0-1.498-.657 9.3 9.3 0 0 0-1.696-.395c-.46-.052-1.011-.068-1.225-.035m59.946.69c-.075.01-.21.097-.299.195a.5.5 0 0 0-.108.409c.03.127.16.366.29.531.128.166.312.291.409.28.096-.013.388-.285.65-.607l.477-.586c-.995-.187-1.345-.233-1.419-.223M90.305-3.635c.183-.02.483.077.666.216.253.194.347.398.403.87.038.34.052.71.03.821-.023.112-.158.217-.3.235-.233.028-.265-.045-.315-.69-.041-.53-.112-.749-.266-.817q-.209-.092-.552.17c-.188.145-.432.513-.54.817-.11.303-.179.786-.153 1.073.043.488.07.522.44.515.272-.005.455-.099.59-.304.106-.162.284-.277.396-.254a.3.3 0 0 1 .227.236c.013.108-.148.362-.358.567-.222.216-.562.397-.806.428-.311.041-.502-.029-.728-.268-.192-.201-.332-.523-.37-.846-.036-.304.05-.834.21-1.278.163-.454.437-.897.682-1.105.226-.192.56-.365.744-.386M-42.838 11.342c.08-.01.474.234.875.545.71.55.738.56 1.063.334.184-.128.422-.244.53-.257.106-.013.334.123.502.301.17.179.311.354.317.39.002.038-.182.238-.41.446-.232.21-.419.41-.418.447.004.038.276.316.604.618.328.304.585.63.57.722-.016.093-.17.274-.342.404-.3.225-.33.22-.657-.114a31 31 0 0 0-.976-.939l-1.39.764-.308-.326c-.169-.178-.31-.368-.315-.422s.18-.285.41-.512c.228-.227.404-.486.39-.575-.014-.09-.272-.414-1.121-1.28l.265-.263c.145-.144.33-.272.41-.283m.174.703c.004.04.173.227.376.418.214.202.393.515.42.74.035.287-.054.49-.335.765-.21.206-.352.372-.317.37.036-.002.275-.118.528-.26.255-.14.57-.24.7-.217q.236.041.358-.308c.067-.191.257-.452.422-.582.166-.13.264-.29.22-.357-.05-.075-.196-.03-.382.113-.164.13-.403.246-.528.259s-.507-.208-.846-.492c-.34-.284-.618-.486-.616-.449m126.16-51.983c.325-.012.872.08 1.212.203.341.123.934.473 1.315.777.382.304.877.84 1.1 1.194.265.418.436.87.488 1.293.05.395.008.812-.106 1.067-.168.378-.161.498.081 1.243.148.452.294 1.013.325 1.246.048.362-.04.518-.618 1.095-.372.37-.89.998-1.15 1.394-.42.641-.527.725-1.51.846l.072.585c.052.426.002.68-.183.938-.14.194-.623.731-1.074 1.194-.817.838-.82.841-1.543.856-.684.014-.75.043-1.189.528a60 60 0 0 1-1.475 1.532c-.555.561-1.82 1.857-2.811 2.88a540 540 0 0 0-3.816 3.995c-1.107 1.173-2.152 2.224-2.319 2.335-.244.162-.374.178-.65.08-.317-.113-.405-.062-1.137.661-.437.431-.974 1.023-1.191 1.315-.218.29-.623.632-.897.758-.276.127-.793.237-1.157.246-.364.008-.989-.113-1.403-.275-.411-.16-1.042-.55-1.403-.87-.36-.318-.836-.852-1.056-1.188-.219-.336-.478-.958-.576-1.38-.129-.56-.138-.937-.037-1.38.118-.51.362-.842 1.49-2.029 1.181-1.241 1.344-1.466 1.298-1.808-.035-.268.058-.525.304-.828.195-.241.539-.58.762-.752s1.34-1.316 2.48-2.539 2.885-3.107 3.878-4.186 2.11-2.288 3.163-3.409l-.078-.913c-.041-.502-.029-1.038.028-1.19s.51-.637 1.009-1.08c.764-.677 1-.815 1.492-.875.47-.057.578-.115.557-.298-.015-.125.002-.44.039-.698.059-.412.199-.563 1.135-1.232.587-.42 1.158-.745 1.27-.726.113.021.587.144 1.908.508l.384-.365c.211-.2.521-.445.69-.545.17-.1.576-.19.9-.203M63.888-19.525c-.066.008-.408.32-.758.694-.35.372-.885.944-1.19 1.267-.364.387-.582.76-.64 1.092a2.8 2.8 0 0 0 .061 1.015c.08.28.33.798.552 1.152s.723.886 1.108 1.183.977.639 1.313.76c.37.133.854.189 1.228.146.564-.067.675-.138 1.283-.847.365-.426.875-.99 1.132-1.254.44-.454.447-.479.142-.442-.18.022-.8-.194-1.377-.477-.58-.284-1.225-.667-1.438-.85a11 11 0 0 1-.951-.99c-.31-.36-.578-.772-.595-.916-.016-.143.087-.41.23-.594.187-.24.226-.42.14-.644-.065-.17-.173-.303-.24-.295M20.221-30.067a5 5 0 0 1 1.41.213c.413.14 1.066.547 1.633 1.018a7.5 7.5 0 0 1 1.527 1.702c.522.823.595 1.028.703 1.959.092.789.071 1.172-.086 1.592-.113.304-.409.784-.657 1.07-.249.283-2.033 1.887-3.965 3.56a807 807 0 0 0-5.476 4.784c-1.08.957-3.24 2.864-4.799 4.238-1.56 1.373-3.07 2.674-3.359 2.891-.287.216-.704.532-.925.702-.285.216-.653.34-1.248.416-.639.082-1.013.051-1.533-.129-.379-.13-1.086-.549-1.572-.928C1.39-7.36.768-7.971.495-8.335s-.642-1.062-.82-1.548c-.275-.748-.314-1.005-.26-1.683.051-.627.159-.924.505-1.38l.807-1.068c.202-.269.53-.598.732-.732.2-.134.47-.364.596-.512.127-.146.633-.618 1.125-1.048.491-.429 1.457-1.261 2.147-1.846.69-.587 1.381-1.19 1.536-1.34.153-.15.454-.413.666-.584.214-.171.976-.829 1.695-1.46.718-.632 2.054-1.787 2.968-2.568a93 93 0 0 0 2.076-1.81c.227-.216.672-.613.989-.883.315-.27.798-.684 1.074-.917.275-.234.653-.546.842-.696s.593-.48.9-.734c.306-.254.752-.56.99-.683.263-.135.72-.228 1.158-.24M1.54-13.01c-.323-.008-.644.068-.822.192-.16.112-.394.385-.52.606-.18.319-.203.59-.112 1.333.1.81.194 1.055.725 1.878a6.4 6.4 0 0 0 1.412 1.575c.44.345 1.064.712 1.386.817.32.104.863.156 1.206.116.495-.058.681-.148.903-.437.154-.2.309-.606.345-.9q.067-.537-.155-1.267c-.121-.402-.435-1.06-.695-1.464a7 7 0 0 0-1.184-1.32c-.39-.324-.991-.708-1.334-.853-.345-.145-.865-.27-1.156-.276m-55.497-7.363c.499-.072 1.532-.112 2.297-.091.763.02 1.874.127 2.468.236.593.11 1.576.374 2.182.589s1.484.598 1.95.852c.467.254 1.278.823 1.804 1.262.524.44 1.2 1.12 1.503 1.512.301.392.7 1.02.885 1.399.255.523.409 1.167.64 2.693.236 1.572.28 2.21.2 2.943-.058.515-.294 1.431-.523 2.036-.255.672-.726 1.517-1.21 2.174-.435.592-1.141 1.374-1.568 1.739s-1.19.919-1.695 1.23a18 18 0 0 1-1.796.95c-.482.21-1.449.549-2.149.755-.928.27-1.734.409-2.97.51-.934.076-2.178.098-2.764.049a18 18 0 0 1-2.22-.365 18 18 0 0 1-2.262-.734c-.749-.308-1.537-.79-2.43-1.482-1.018-.789-1.474-1.25-1.981-2-.373-.548-.814-1.415-1.013-1.985-.273-.784-.39-1.423-.518-2.838-.14-1.564-.131-1.973.067-2.844.127-.56.418-1.395.646-1.858s.765-1.275 1.195-1.803c.429-.529 1.021-1.172 1.317-1.43.294-.257.974-.76 1.51-1.117a17 17 0 0 1 1.977-1.101c.55-.248 1.4-.57 1.891-.71.49-.143 1.064-.3 1.276-.35s.792-.15 1.291-.22m13.411 11.028c-.02-.124-.162.117-.32.534a9 9 0 0 1-.767 1.49c-.265.4-.752 1.024-1.08 1.384s-1.024.975-1.546 1.366c-.523.39-1.425.954-2.004 1.255-.58.302-1.482.697-2.003.88s-1.762.464-2.758.625c-1.331.216-2.154.28-3.103.24a20 20 0 0 1-2.405-.26 17 17 0 0 1-2.079-.555 18 18 0 0 1-1.74-.743c-.426-.219-1.205-.754-1.73-1.188-.528-.435-1.226-1.143-1.553-1.575-.52-.684-.577-.727-.452-.34.079.245.328.778.556 1.185.227.407.708 1.06 1.068 1.45.362.392.941.917 1.29 1.167.347.252 1.045.669 1.549.927.502.26 1.437.626 2.077.814.639.186 1.706.414 2.37.504 1.07.146 1.49.13 3.74-.147 2.346-.287 2.62-.346 3.726-.806a24 24 0 0 0 2.177-1.064 14.4 14.4 0 0 0 1.88-1.345c.49-.427 1.124-1.096 1.407-1.485.284-.388.69-1.053.902-1.479a9.6 9.6 0 0 0 .61-1.69c.12-.504.206-1.019.188-1.144M76.937-23.859c-.568.594-1.846 1.953-2.839 3.017-.994 1.066-2.03 2.143-2.303 2.394-.348.32-.569.693-.737 1.245-.179.579-.312.795-.502.819-.143.017-.266-.012-.276-.065-.009-.053.08-.284.2-.512.117-.23.148-.355.068-.28-.08.076-.385.373-.677.66-.29.284-.613.668-.719.85-.189.332-.187.333.313.402.278.039.547.065.6.059.055-.006.375-.327.714-.713a68 68 0 0 1 1.772-1.898c.636-.658 1.474-1.535 1.863-1.949a229 229 0 0 1 2.58-2.66l2.228-2.271.352-.36-1.606.182zM2.105-14.206c-.277.035-.539.162-.644.312-.167.236-.13.261.587.384a4.5 4.5 0 0 1 1.423.551c.362.232.913.656 1.223.944.313.288.831.938 1.154 1.441.526.823.6 1.026.718 1.984.126 1.035.136 1.06.37.863.13-.11.296-.352.368-.535.084-.213.073-.652-.03-1.234-.125-.708-.288-1.106-.76-1.852a7.3 7.3 0 0 0-1.444-1.647c-.531-.44-1.15-.806-1.67-.985-.457-.16-1.036-.26-1.295-.226m73.3-15.904c-.075-.012-.506.349-.958.804-.451.454-.916.82-1.034.811s-.3.086-.408.208c-.11.122-.186.294-.173.384.014.088-1.005 1.281-2.264 2.65a612 612 0 0 0-2.994 3.274c-.388.43-.764.788-.836.796-.071.007-.197-.047-.278-.117-.08-.072-.217-.085-.3-.031-.084.054-.131.274-.105.489s.007.527-.042.697c-.048.168-.428.675-.847 1.126-.417.449-.748.92-.734 1.046.012.125.083.22.154.211.073-.01.439-.336.816-.725.376-.392 2.228-2.363 4.112-4.381s3.616-3.936 3.849-4.262c.231-.326.538-.607.68-.625.144-.017.546-.363.895-.768.35-.406.723-.748.831-.761.106-.013.203.049.216.138.012.088-.209.457-.49.818-.373.476-.515.793-.521 1.152-.004.272-.081.505-.17.518s-.268-.115-.397-.284c-.13-.17-.279-.302-.332-.293-.055.008-.18.183-.282.387-.103.204-.74.98-1.416 1.723s-2.025 2.19-2.996 3.216c-1.175 1.238-1.78 1.976-1.804 2.199-.02.183-.058.515-.085.736-.029.22-.021.5.015.624.037.122.285.314.553.427.267.112.6.16.74.107.15-.06.298-.022.373.092.075.117.046.284-.076.437-.184.235-.226.24-.715.082a3.7 3.7 0 0 1-.93-.48c-.364-.276-.416-.39-.449-.982l-.039-.67a55 55 0 0 1-1.558 1.648c-.237.233-.445.437-.463.452-.017.016.26.29.618.61.358.318.909.68 1.224.805l.572.227c.672-.703.844-.786 1.127-.753.277.03.477-.058.813-.363.244-.224.813-.812 1.264-1.31.451-.496 1.316-1.418 1.925-2.048.608-.63 1.816-1.88 2.686-2.777.903-.933 1.635-1.804 1.707-2.035.116-.367.097-.424-.213-.658-.27-.206-.31-.294-.196-.439.113-.143.241-.145.626-.007.264.094.555.16.644.146.09-.013.386-.257.66-.542l.496-.517c-2.177-1.829-2.932-2.546-3.084-2.774-.15-.228-.333-.424-.408-.438M3.574-15.24c-.327 0-.699.075-.827.17-.127.093-.214.224-.194.29s.2.13.402.14c.2.012.744.204 1.207.43.463.224 1.048.583 1.303.798.254.214.705.686 1 1.048.298.363.678.94.846 1.282s.395 1.045.505 1.564l.2.944c.534-.731.552-.887.442-1.78-.112-.918-.182-1.094-.8-2.033-.457-.696-.952-1.246-1.527-1.698-.467-.368-1.1-.777-1.406-.911a3.5 3.5 0 0 0-1.15-.243m1.058-1.047c-.318-.02-.54.041-.701.194-.13.123-.204.24-.166.26.042.022.443.163.895.315.454.153 1.174.54 1.6.858a9.2 9.2 0 0 1 1.358 1.299c.32.396.73.999.91 1.34.209.397.367.955.442 1.559.072.57.166.917.241.88.068-.033.215-.213.324-.4s.197-.638.193-1c-.005-.462-.121-.92-.387-1.534a7.8 7.8 0 0 0-1.044-1.645c-.364-.422-.987-.984-1.383-1.25-.395-.264-.965-.563-1.267-.663a5 5 0 0 0-1.015-.213m-58.64-3.43c-.785.102-1.856.319-2.38.482s-1.528.576-2.23.92c-.701.343-1.749.99-2.328 1.436-.68.525-1.379 1.23-1.968 1.989-.606.78-1.02 1.476-1.232 2.072-.177.492-.367 1.23-.423 1.635-.058.405-.055 1.147.004 1.647.06.5.244 1.22.408 1.598.165.378.503.991.753 1.359s.713.931 1.028 1.252 1.026.876 1.577 1.236c.585.382 1.58.854 2.381 1.133.758.262 1.98.564 2.719.67 1.236.177 1.542.167 3.876-.112 2.054-.245 2.727-.374 3.544-.675a19 19 0 0 0 2.06-.947c.579-.316 1.43-.867 1.894-1.223.475-.365 1.242-1.164 1.756-1.827.532-.692 1.04-1.523 1.224-2.01a10 10 0 0 0 .435-1.57c.067-.406.064-1.207-.006-1.779s-.26-1.35-.423-1.728a10 10 0 0 0-.801-1.417c-.296-.424-.99-1.11-1.672-1.647-.69-.544-1.625-1.125-2.285-1.42-.613-.274-1.422-.58-1.797-.68a25 25 0 0 0-1.492-.331c-.445-.082-1.346-.172-2.001-.2-.656-.027-1.836.035-2.621.137m59.81 2.38c-.317-.004-.58.076-.762.233l-.281.24c1.057.285 1.71.568 2.133.811a8 8 0 0 1 1.366 1.031c.328.323.86.999 1.181 1.504.514.803.603 1.04.71 1.91.111.904.142.98.335.848.119-.079.286-.285.374-.46.095-.185.124-.61.074-1.03a5.7 5.7 0 0 0-.405-1.401 9 9 0 0 0-.865-1.398 8.5 8.5 0 0 0-1.276-1.27c-.4-.309-1.036-.662-1.414-.784-.378-.123-.904-.227-1.17-.233m1.03-1.136a.76.76 0 0 0-.461.268c-.149.208-.074.265.733.558.59.215 1.191.574 1.761 1.056.476.402 1.093 1.029 1.373 1.394.277.364.642.973.807 1.352a6.1 6.1 0 0 1 .394 1.435c.085.71.1.739.326.554.13-.107.275-.318.322-.468.05-.151.104-.485.124-.74.022-.285-.077-.762-.254-1.222a10.5 10.5 0 0 0-.749-1.491c-.299-.482-.814-1.017-1.487-1.546-.78-.614-1.217-.855-1.81-.998-.43-.103-.914-.172-1.078-.152m1.303-.953c-.216.028-.498.146-.627.262-.225.203-.218.214.165.242.22.017.777.211 1.24.433.462.22 1.107.635 1.432.924.325.287.853.9 1.176 1.363s.73 1.18.904 1.594c.197.466.309.941.297 1.25-.012.273.022.494.077.488.054-.004.206-.158.34-.339.133-.18.253-.567.265-.859.015-.328-.1-.867-.3-1.414-.176-.486-.524-1.155-.772-1.488-.25-.332-.835-.904-1.302-1.269-.478-.373-1.21-.788-1.675-.95-.454-.159-1.005-.266-1.22-.237M72.513-29.78c-.557.654-2.262 2.535-3.789 4.18s-3.026 3.21-3.332 3.478-.727.662-.937.873c-.227.228-.37.504-.35.677.02.161.118.475.218.698.101.224.243.398.314.39s.291-.154.488-.323c.284-.245.346-.401.302-.762-.033-.27.045-.624.19-.873.134-.23.342-.462.463-.518a.49.49 0 0 1 .397.003c.127.074.598-.352 1.641-1.487.806-.874 2.077-2.258 2.826-3.075.748-.815 1.353-1.54 1.345-1.615-.008-.072.106-.338.255-.592.22-.379.334-.457.634-.433.22.018.424-.046.51-.16q.14-.19-.011-.921l-.153-.73zM9.498-20.45c-.309-.001-.666.076-.793.17-.128.093-.216.223-.194.29.02.066.138.106.263.09.125-.017.556.093.957.245.402.153 1.16.61 1.682 1.017.64.498 1.133 1.021 1.504 1.597.304.47.659 1.168.79 1.551.13.383.239.89.24 1.124.005.234.037.425.073.423.037-.005.193-.176.349-.384.249-.334.268-.49.162-1.308-.106-.814-.203-1.06-.785-1.969-.466-.73-.924-1.246-1.53-1.725-.475-.377-1.155-.785-1.51-.904-.357-.12-.9-.217-1.208-.218m1.287-1.067c-.29-.004-.664.077-.83.179s-.285.22-.266.26c.02.042.294.118.609.17s.918.275 1.34.494c.423.222 1.094.718 1.49 1.105a8.7 8.7 0 0 1 1.246 1.628c.352.619.583 1.22.7 1.826l.174.902c.41-.613.54-1.014.554-1.287.014-.275-.089-.84-.228-1.258-.141-.418-.514-1.115-.83-1.547-.315-.434-.85-1.02-1.186-1.305-.338-.286-.983-.664-1.43-.84-.449-.177-1.052-.323-1.343-.327m-64.04 6.324c.32-.045.971-.048 1.448-.007.476.04 1.235.198 1.685.351a6.4 6.4 0 0 1 1.518.821c.384.297.846.774 1.025 1.061.185.297.36.8.406 1.17.045.357.05.877.011 1.153-.043.311-.316.84-.718 1.388-.46.624-.902 1.046-1.507 1.43-.47.3-1.258.661-1.748.803s-1.219.257-1.617.257c-.4-.001-1.089-.066-1.533-.145-.445-.077-1.217-.348-1.713-.6-.552-.279-1.107-.69-1.423-1.053-.422-.485-.554-.764-.71-1.496-.168-.794-.16-.989.057-1.655a4.4 4.4 0 0 1 .807-1.393 6.8 6.8 0 0 1 1.235-1.06 8.6 8.6 0 0 1 1.434-.683 8.6 8.6 0 0 1 1.342-.342m.582 2.607c-.773.065-1.451.197-1.803.348-.31.133-.797.398-1.082.59a6 6 0 0 0-.994.901c-.262.304-.536.723-.61.932-.075.208-.098.478-.05.6.048.12.4.453.783.738.383.286.96.615 1.283.733.323.119.934.262 1.357.32a7.4 7.4 0 0 0 1.551.008 7.5 7.5 0 0 0 1.534-.396 7.5 7.5 0 0 0 1.347-.724c.326-.236.815-.738 1.084-1.115s.482-.759.474-.85c-.01-.09-.224-.388-.477-.666a5 5 0 0 0-1.062-.831 6.8 6.8 0 0 0-1.347-.512c-.51-.125-1.142-.148-1.988-.076m64.642-10.016c-.415-.015-.597.046-.824.275l-.291.294a4.6 4.6 0 0 1 1.769.45 8 8 0 0 1 1.543 1.034c.388.347.92.96 1.182 1.364.265.402.587 1.045.718 1.429.133.382.249.938.259 1.236l.017.541c.507-.444.673-.738.695-.94.021-.203-.031-.715-.117-1.14-.112-.545-.353-1.078-.818-1.812-.527-.829-.847-1.172-1.58-1.691-.506-.36-1.168-.736-1.47-.838a4.6 4.6 0 0 0-1.083-.202m1.186-1.09c-.307.01-.622.106-.76.23-.13.117-.218.247-.196.29.023.044.129.07.235.057.108-.013.521.093.92.235.398.142 1.167.612 1.71 1.044.708.563 1.154 1.05 1.586 1.732.508.806.626 1.113.785 2.046l.189 1.099c.437-.564.598-.97.638-1.266.04-.295.003-.794-.083-1.11-.085-.317-.444-1.028-.8-1.584-.48-.75-.878-1.183-1.554-1.692-.5-.376-1.184-.777-1.525-.891-.34-.115-.856-.2-1.145-.19m1.314-1.115c-.285.035-.626.156-.756.268s-.218.24-.195.284.127.069.234.056.52.093.92.236c.398.144 1.121.574 1.609.957a7.3 7.3 0 0 1 1.456 1.55c.313.47.686 1.195.828 1.612s.26.952.263 1.186c.004.236.05.423.104.416.053-.005.2-.142.326-.302a1.5 1.5 0 0 0 .268-.659c.022-.202-.034-.745-.123-1.205-.13-.668-.301-1.033-.844-1.809-.375-.534-.988-1.216-1.364-1.516a6.7 6.7 0 0 0-1.445-.84c-.48-.187-.953-.272-1.28-.234m64.373-1.295-.504.572c1.196-.247 1.671-.361 1.829-.412.156-.05.28-.15.274-.22s-.255-.213-.553-.318l-.54-.191zm-1.924-9.79c-.16-.034-.423.02-.589.124-.165.103-.63.494-1.033.87-.71.659-.734.704-.673 1.269.036.322.102.787.148 1.036.046.25.266.757.491 1.128s.842 1.156 1.373 1.743c.53.588 1.182 1.227 1.448 1.42.267.193.836.548 1.264.79.429.241 1.15.549 1.6.683.452.135.968.226 1.146.204.18-.022.535-.262.792-.532s.668-.677.911-.905c.385-.36.435-.483.38-.934-.051-.418-.123-.537-.37-.6a5 5 0 0 0-.772-.114c-.42-.03-.54.041-1.229.735-.418.422-.822.752-.898.736-.075-.018-.145-.112-.158-.21-.011-.096.252-.45.587-.785.333-.334.607-.654.606-.708s-.158-.154-.347-.222a1.2 1.2 0 0 1-.53-.43c-.1-.168-.663-.811-1.249-1.429s-1.29-1.317-1.561-1.556c-.48-.421-.502-.426-.738-.173-.231.247-.256.25-.488.06-.227-.185-.222-.224.074-.602.265-.337.3-.495.211-.968-.083-.445-.168-.58-.396-.63m-61.131 9.998c-.358.045-.756.175-.886.287s-.218.24-.196.283c.023.044.171.062.332.042.16-.023.538.027.838.11.315.086 1.046.543 1.725 1.077.995.783 1.266 1.082 1.74 1.914.447.788.585 1.174.685 1.915.112.839.146.913.338.783.117-.08.296-.316.397-.525.137-.28.15-.616.051-1.292-.115-.793-.223-1.048-.823-1.949-.398-.597-.972-1.258-1.356-1.558a7.6 7.6 0 0 0-1.432-.845c-.584-.247-.918-.305-1.413-.242m-68.964 11.348c-.462.064-1.126.224-1.472.358a9 9 0 0 0-1.06.498c-.238.142-.656.47-.933.73-.276.26-.614.737-.751 1.063-.136.325-.26.83-.277 1.122l-.03.53c1.008-1.196 1.645-1.76 2.066-2.027s1.195-.61 1.72-.76c.735-.212 1.184-.268 1.948-.243a7.4 7.4 0 0 1 1.957.364c.585.2 1.21.538 1.589.86.343.289.653.523.69.52.034-.004.05-.125.032-.267-.017-.143-.149-.468-.292-.722s-.538-.686-.876-.959-.91-.604-1.27-.734a8.3 8.3 0 0 0-1.427-.344 7.3 7.3 0 0 0-1.614.011m70.135-12.552c-.214.03-.521.185-.683.348-.269.268-.271.291-.034.262.143-.017.632.097 1.086.255.533.184 1.14.546 1.708 1.019.484.402 1.073 1.002 1.31 1.333.235.331.572.97.749 1.42.206.528.318 1.04.316 1.444l-.005.628c.555-.477.74-.752.77-.919s.007-.654-.053-1.082c-.076-.553-.258-1.044-.629-1.702-.287-.508-.742-1.143-1.01-1.409a8.4 8.4 0 0 0-1.202-.932c-.392-.246-.987-.507-1.324-.582-.334-.074-.785-.111-1-.083m1.637-1.168a1.38 1.38 0 0 0-.828.231l-.365.25c1.668.55 2.179.843 2.882 1.42.557.458 1.175 1.12 1.478 1.58.286.436.628 1.137.758 1.556.132.419.227.956.213 1.194-.014.237.019.428.072.425.054-.003.222-.128.373-.277.16-.157.29-.49.31-.802.022-.293-.05-.848-.16-1.232-.108-.385-.441-1.087-.741-1.558-.303-.476-.908-1.164-1.36-1.548-.447-.38-1.119-.81-1.491-.955s-.885-.273-1.14-.284m63.625-2.548c-.123-.023-.226.007-.228.067 0 .06.386.23.859.378.474.148 1.204.267 1.621.264.565-.006.752-.05.737-.17a.164.164 0 0 0-.183-.141c-.089.013-.706-.062-1.372-.167a89 89 0 0 1-1.434-.23m-62.659 1.412c-.21.067-.473.222-.586.343-.19.206-.133.245.73.51a5 5 0 0 1 1.666.873c.402.321 1.031.984 1.398 1.47.435.578.78 1.218.992 1.836.179.523.31 1.115.294 1.316-.017.206.027.358.1.35.072-.01.244-.193.385-.41.14-.216.304-.637.364-.934.064-.314.046-.866-.04-1.314-.101-.524-.324-1.049-.692-1.63a6 6 0 0 0-1.364-1.493c-.453-.35-1.025-.71-1.272-.8a4.5 4.5 0 0 0-1.023-.2c-.315-.02-.744.017-.952.083m59.999-9.303c-.106.022-.466.244-.798.492-.332.249-.66.48-.728.514s-.009.148.13.252c.209.155.272.382.353 1.263.087.954.07 1.085-.155 1.161q-.254.088-.174-.077c.043-.09-.02-.597-.138-1.126s-.26-.956-.314-.95c-.053.008-.03.584.052 1.28.121 1.031.195 1.299.393 1.436.134.092.696.647 1.25 1.231a71 71 0 0 1 1.5 1.63c.472.544.51.562.968.425.328-.098.895-.085 1.818.043.738.104 1.495.215 1.679.246.272.049.402-.026.678-.388.187-.244.568-.68.846-.964l.503-.52c-.378-1.33-.536-1.738-.593-1.763-.057-.023-.624.554-1.26 1.283-1.102 1.264-1.182 1.327-1.683 1.342-.348.01-.812-.137-1.371-.43-.465-.247-1.022-.619-1.237-.83s-.65-.739-.965-1.17c-.475-.653-.591-.921-.675-1.566l-.103-.779 1.642-1.652c-1.104-.328-1.511-.406-1.618-.383m-5.032 7.066c-.076.01-.186.096-.242.194-.058.098-.13.285-.162.415-.031.13.019.378.112.547.136.246.224.283.435.178.145-.072.287-.194.314-.27.028-.075-.033-.35-.134-.61-.102-.259-.247-.463-.323-.454m1.967-.373c.104-.012.242.134.307.325.066.19.088.382.05.423-.04.04-.208-.028-.375-.152-.166-.125-.273-.305-.238-.4a.35.35 0 0 1 .256-.196m5.593-6.185c-.089-.255-.18-.187-1.055.788l-.958 1.069c.225.904.526 1.46.846 1.874.308.397.645.802.75.899.102.097.478.364.832.594.355.23.841.451 1.082.493.419.071.482.026 1.428-1.003l.992-1.078c-.916-.297-1.434-.535-1.745-.721-.31-.186-.861-.683-1.223-1.103-.398-.463-.642-.858-.617-1a.51.51 0 0 0-.095-.385 1.5 1.5 0 0 1-.237-.427m1.271-1.249c-.178.022-.428.171-.553.332q-.228.292-.165.81c.036.296.239.786.468 1.131.223.335.62.798.885 1.03.264.23.762.535 1.105.68.399.165.813.233 1.144.186.383-.053.571-.16.723-.41.157-.258.169-.46.057-.878a4.3 4.3 0 0 0-.47-1.03c-.179-.268-.602-.707-.944-.975s-.914-.584-1.273-.701c-.358-.118-.797-.197-.977-.175m-138.853-17.55c.048-.005.599.046 1.223.114s1.664.31 2.308.54c.645.23 1.744.732 2.444 1.114 1.237.675 1.31.74 2.67 2.426.77.953 1.543 2.018 1.719 2.366.174.35.495 1.148.71 1.775.214.626.421 1.387.46 1.69.06.485-.029.72-.727 1.936-.642 1.116-1.088 1.68-2.313 2.921-.833.845-1.587 1.546-1.679 1.558-.09.01-.87-.192-3.31-.915l-.966.992c-.532.547-2.063 2.173-3.403 3.615a964 964 0 0 0-3.087 3.332c-.357.39-.709.712-.781.717-.072.004-.232.149-.356.322-.124.172-.446.45-.716.616-.28.173-.799.342-1.205.396-.534.07-.921.02-1.54-.193-.536-.187-1.162-.562-1.784-1.07a8 8 0 0 1-1.565-1.698c-.365-.553-.674-1.195-.776-1.62-.12-.504-.128-.888-.028-1.349.09-.408.272-.755.5-.95.196-.17.346-.397.333-.503-.011-.109.669-.948 1.511-1.867.845-.92 1.86-2.008 2.257-2.419a227 227 0 0 0 2.428-2.604c.94-1.022 1.696-1.916 1.684-1.987s-.32-.54-1.34-1.945l.594-1.392c.327-.765.686-1.611.8-1.878.112-.267.259-.593.325-.72.067-.13.547-.628 1.068-1.11a114 114 0 0 1 1.701-1.538c.414-.364.792-.666.84-.672M9.28-65.044c.286-.041.938-.04 1.451.005.513.043 1.491.275 2.174.516.682.24 1.745.75 2.365 1.131.617.38 1.555 1.114 2.081 1.63s1.244 1.378 1.594 1.916c.35.537.769 1.316.93 1.731.163.416.328.99.364 1.275.038.286.011.852-.057 1.26-.101.597-.28.944-.935 1.797-.584.761-.968 1.135-1.372 1.325-.31.145-1.015.32-1.568.386a6 6 0 0 1-1.851-.046c-.81-.162-.85-.159-.937.082-.052.138-.224.421-.384.63s-.533.478-.828.596c-.5.201-.53.245-.477.67.04.335-.043.585-.313.952-.202.274-.553.568-.78.655-.242.093-.398.238-.38.353.018.106-.111.38-.285.607-.175.227-.471.47-.658.542-.232.088-.347.234-.359.461-.01.182-.16.548-.335.812-.195.294-.593.622-1.034.851-.673.35-.714.399-.661.794.045.347-.025.49-.393.8-.246.206-.605.428-.796.492-.248.083-.361.222-.39.484-.021.201-.142.555-.267.782a1.96 1.96 0 0 1-.658.654c-.254.14-.73.257-1.158.283-.487.028-.883.137-1.212.331-.268.158-.986.454-1.599.657-.986.327-1.134.349-1.326.197s-.21-.36-.146-1.828c.038-.912.035-1.83-.008-2.043a20 20 0 0 1-.156-.915c-.055-.385.006-.667.224-1.049.164-.286.464-.63.665-.763.294-.194.356-.326.314-.665-.027-.233.034-.61.135-.84.112-.255.415-.551.767-.754.526-.303.583-.386.6-.864.013-.357.144-.686.401-1.006.21-.262.528-.522.702-.58.259-.085.307-.182.266-.527a1.7 1.7 0 0 1 .132-.8c.101-.206.29-.48.42-.608.129-.126.322-.24.43-.255.12-.016.209-.217.234-.528a3.3 3.3 0 0 1 .233-.92c.106-.23.434-.58.726-.774.415-.275.545-.453.584-.797.027-.243.225-.67.83-1.46l-.445-.87a5.2 5.2 0 0 1-.574-1.842c-.092-.71-.076-1.139.064-1.59.105-.338.421-.986.704-1.437.282-.452.731-.967 1-1.145a6 6 0 0 1 .96-.5c.26-.096.707-.21.992-.25M-66.539-38.24c-.379.048-.573.166-.828.499-.308.405-.322.498-.19 1.309.107.674.258 1.055.656 1.667.284.436.877 1.105 1.316 1.487.438.381 1.104.818 1.478.97s.977.281 1.34.288c.622.011.683-.015 1.033-.454.354-.444.365-.505.232-1.337-.113-.692-.258-1.05-.702-1.728a6.9 6.9 0 0 0-1.44-1.546c-.485-.38-1.222-.81-1.64-.955-.425-.147-.975-.236-1.255-.2m66.25-4.055c-.022.062-.054.615-.072 1.231-.017.618-.01 1.132.015 1.144.03.007.514-.17 1.081-.396.57-.23 1.017-.452.994-.496-.026-.044-.33-.246-.68-.45-.352-.205-.788-.546-.97-.759-.18-.211-.347-.335-.368-.274m68.114-28.875c.277-.034 2.32-.102 4.544-.151 2.663-.06 4.15-.039 4.359.06.173.083.848.782 1.497 1.555s1.474 1.755 1.83 2.182c.358.427 1.323 1.6 2.145 2.606.82 1.004 1.5 1.897 1.51 1.99.009.09-.284 2.167-.653 4.615-.369 2.444-.696 4.476-.729 4.523-.032.04-1.132.988-4.834 4.145l-4.299.43c-2.364.235-4.397.403-4.519.373-.12-.028-1.882-1.867-7.608-8.116l.016-.595c.009-.327.228-2.431.49-4.676.435-3.747.502-4.108.806-4.428.182-.191.919-.877 1.637-1.525.719-.648 1.757-1.571 2.307-2.053.788-.688 1.107-.887 1.501-.935M-65.842-39.378c-.178.024-.456.175-.618.337l-.294.295c.605-.07 1.166.041 1.64.2.472.16 1.207.559 1.634.888a10.6 10.6 0 0 1 1.332 1.254c.307.362.73 1.023.941 1.468.261.55.38.98.375 1.339l-.01.528c.58-.758.605-.906.511-1.616a3.7 3.7 0 0 0-.51-1.483c-.222-.371-.73-.992-1.127-1.378a9.2 9.2 0 0 0-1.529-1.162c-.442-.253-1.077-.517-1.413-.589-.334-.07-.753-.106-.932-.081M77.513-53.274c-1.968.201-3.72.418-3.898.479-.173.062-1.163.845-2.198 1.742-1.035.895-1.865 1.633-1.843 1.64.027.005 1.742-.161 3.816-.372l3.777-.383c3.05-2.547 3.97-3.313 4.008-3.343.034-.027.029-.067-.01-.09-.052-.022-1.69.125-3.652.327M.235-45.58c-.05-.023-.124.115-.16.307-.038.192-.13.327-.206.303-.075-.027-.214.03-.308.123-.11.11-.136.369-.076.727.052.306.214.733.36.951.148.218.42.556.605.75.187.195.68.533 1.095.751s1.027.432 1.358.476c.45.06.739.026 1.137-.134.308-.122.576-.33.633-.489.091-.257.066-.266-.38-.136-.263.077-.75.095-1.083.04-.435-.069-.823-.275-1.384-.734-.428-.35-.828-.78-.888-.955-.059-.173-.05-.383.02-.464.088-.101.209-.055.39.15.144.165.505.506.801.76s.749.548 1.007.653c.31.127.585.15.814.066.191-.07.343-.172.338-.225s-.304-.188-.662-.295c-.359-.11-1.053-.44-1.541-.734-.612-.371-1.025-.741-1.332-1.193-.245-.36-.488-.675-.538-.698m65.69-15.034c-.105-.002-.968.685-1.916 1.523-.948.84-1.793 1.606-1.882 1.708-.117.135-.113.276.016.555.097.206 1.592 1.922 3.327 3.813 1.734 1.89 3.196 3.433 3.25 3.426.054-.008.972-.743 2.039-1.634l1.944-1.623c-.22-.738-1.037-1.746-2.51-3.377a211 211 0 0 0-3.163-3.437c-.502-.524-1-.952-1.105-.954M-64.478-40.51a1.28 1.28 0 0 0-.764.216 8 8 0 0 0-.412.299c-.031.03.274.106.68.168s1.133.304 1.615.535a7 7 0 0 1 1.564 1.097c.378.37.938 1.059 1.245 1.529.309.475.639 1.18.741 1.584.177.694.197.718.39.48.157-.189.18-.452.1-1.093-.087-.71-.198-.99-.704-1.76-.42-.643-.906-1.158-1.63-1.727-.568-.447-1.345-.922-1.724-1.056-.379-.135-.873-.257-1.1-.272m.751-.97c-.249.031-.563.136-.696.231-.215.154-.143.2.642.398.487.123 1.172.383 1.521.578.351.194.845.527 1.1.737.253.21.752.734 1.105 1.161a8.3 8.3 0 0 1 1.022 1.655c.208.482.355.984.326 1.114s.007.23.078.222c.072-.01.202-.218.29-.465.112-.315.115-.638.01-1.089-.087-.374-.405-1.022-.763-1.555q-.613-.913-1.64-1.731c-.65-.516-1.307-.909-1.784-1.066-.415-.137-.96-.223-1.21-.19M1.72-47.896a5 5 0 0 0-.491.135c-.147.05-.343.273-.434.496-.093.224-.14.626-.107.894.034.267.233.763.441 1.1.212.34.702.837 1.1 1.118.394.279 1.066.596 1.493.707.442.115 1.07.169 1.458.124.48-.055.77-.165.978-.367l.294-.288c-1.346.296-1.51.274-2.432-.079-.575-.22-1.239-.592-1.524-.855-.28-.257-.526-.61-.548-.79-.037-.296.041-.262.874.374.502.385 1.192.79 1.531.898.34.109.823.177 1.073.15.297-.031.535-.154.683-.35.174-.23.183-.292.033-.267-.107.018-.667-.198-1.246-.48-.577-.281-1.432-.831-1.897-1.223-.464-.39-.891-.852-.95-1.027-.067-.202-.185-.3-.33-.27m-64.536 5.38c-.332.038-.656.15-.72.248-.09.137.018.201.446.267.31.048 1.005.319 1.545.602.54.284 1.31.83 1.714 1.216.402.386.994 1.116 1.316 1.62.321.505.65 1.189.732 1.519.138.572.156.59.35.352.151-.183.18-.445.11-.995-.053-.41-.235-1.012-.405-1.336a7 7 0 0 0-.783-1.124c-.262-.293-.83-.817-1.264-1.163-.433-.346-1.16-.775-1.614-.953-.582-.228-1-.301-1.427-.253M67.887-70.503c-.045-.066-.13.104-.189.38-.06.274-.27 1.617-.468 2.982a443 443 0 0 0-.494 3.488c-.073.553-.096 1.298-.054 1.655.044.358.173.845.287 1.086.114.24.656.946 1.204 1.567.55.622 1.843 2.066 2.876 3.208 1.465 1.623 2.007 2.135 2.472 2.335.581.25.678.248 3.983-.077 3.127-.307 3.429-.357 3.91-.642.471-.28.533-.381.62-1.016.054-.388.283-1.914.507-3.391.277-1.824.38-2.928.32-3.434-.051-.411-.173-.871-.273-1.023-.103-.151-.854-1.111-1.672-2.136a150 150 0 0 0-2.69-3.263c-1.03-1.202-1.306-1.445-1.93-1.698-.618-.252-.968-.291-2.306-.252-.867.026-2.364.053-3.326.061-.963.007-1.964.075-2.223.15-.265.078-.508.087-.554.02M-61.559-43.698c-.41.005-.583.075-.77.314-.133.168-.176.297-.096.287.08-.013.423.06.762.157.338.099 1.047.443 1.574.766s1.241.88 1.584 1.236c.343.358.77.87.95 1.138s.468.873.645 1.345l.318.86c.396-.55.43-.807.36-1.367-.073-.6-.211-.923-.728-1.709-.464-.707-.918-1.187-1.667-1.768-.565-.438-1.338-.903-1.717-1.032-.378-.129-.925-.232-1.215-.227m64.832-6.567c-.075-.027-.303.086-.51.252-.206.167-.42.427-.474.579s-.07.495-.035.763c.042.326.227.68.56 1.075.275.323.821.805 1.216 1.069.395.265 1.03.603 1.41.75.443.17.976.256 1.48.235.584-.024.872-.1 1.118-.29.182-.143.324-.317.315-.388-.008-.072-.146-.107-.306-.08-.16.028-.394.056-.52.064-.126.007-.236-.046-.244-.117-.01-.071.097-.173.235-.227.139-.052.244-.17.233-.26-.01-.089-.247-.217-.53-.284-.28-.066-.858-.3-1.284-.521a9 9 0 0 1-1.31-.842c-.294-.244-.674-.662-.842-.931-.169-.268-.323-.556-.343-.642a.31.31 0 0 0-.17-.205m-63.853 5.401c-.32.005-.55.1-.754.309l-.292.302c.503-.06 1.152.153 1.767.432.614.281 1.452.789 1.86 1.126.41.34 1.02.997 1.357 1.464.416.574.695 1.136.868 1.74l.256.892c.464-.78.483-.964.367-1.496-.08-.37-.401-1.056-.76-1.622-.479-.758-.869-1.174-1.727-1.841-.646-.504-1.393-.956-1.794-1.088-.378-.124-.896-.222-1.148-.218m64.778-3.88c.026-.003.234.313.46.701.227.39.519.77.65.843.13.073.197.169.148.212s-.213.034-.364-.02c-.152-.053-.519-.38-.816-.724-.499-.58-.523-.64-.334-.816.114-.105.228-.193.256-.197m1.468-6.11a.9.9 0 0 0-.339.179c-.105.087-.268.344-.36.568-.092.225-.15.66-.129.966s.11.798.2 1.096c.12.396.12.545.001.562-.09.013-.245-.043-.347-.121-.101-.08-.2-.277-.22-.438-.02-.178-.11-.283-.234-.268-.11.013-.326.189-.48.388-.243.317-.258.442-.125.972.085.334.283.799.44 1.034s.48.605.715.822c.235.218.808.604 1.274.857s1.157.554 1.533.667c.514.155.828.17 1.26.06.347-.09.664-.268.801-.455l.226-.307c-.934.282-.994.274-.879.109.114-.163-.03-.252-.82-.509-.583-.188-1.314-.57-1.864-.971-.498-.363-1.027-.846-1.178-1.075-.26-.391-.263-.424-.069-.557.161-.11.319-.029.725.373.285.282.767.706 1.071.94s.938.557 1.41.714c.62.206 1.06.264 1.576.204.429-.05.822-.175.983-.314.148-.127.308-.34.357-.473.076-.214.024-.23-.446-.134-.298.06-.743.044-1.012-.04-.263-.082-.833-.36-1.263-.62-.43-.258-1.109-.844-1.507-1.299-.471-.537-.689-.88-.618-.974s.005-.329-.181-.658c-.243-.428-.315-.48-.43-.31a.49.49 0 0 1-.362.197c-.12-.004-.248-.077-.284-.163-.035-.09.116-.226.347-.315.297-.114.405-.235.393-.443-.01-.157-.083-.277-.165-.264M1.47-47.487a.133.133 0 0 1 .149.114c.008.072-.025.298-.075.503-.07.295-.127.344-.268.232-.14-.11-.152-.215-.058-.488.066-.19.18-.352.252-.361m-61.113 1.546c-.277.034-.558.142-.626.241-.093.138.063.238.665.43.431.138 1.22.53 1.751.873.531.344 1.254.93 1.605 1.304s.812.985 1.021 1.359c.21.374.46.949.557 1.279.168.575.184.589.389.347.175-.207.186-.4.062-1.09a4 4 0 0 0-.584-1.511c-.238-.37-.738-.99-1.111-1.38-.374-.39-.989-.885-1.366-1.098a10 10 0 0 0-1.27-.603c-.324-.117-.815-.185-1.093-.15m1.167-1.13c-.325-.016-.554.055-.762.238l-.298.26c.838.172 1.418.374 1.828.56.41.185 1.122.647 1.58 1.026.458.38 1.114 1.071 1.458 1.537s.736 1.188.876 1.606c.138.418.233.808.208.865-.023.057.014.097.086.088.071-.009.202-.157.29-.331s.135-.521.106-.772-.215-.822-.411-1.268a6.2 6.2 0 0 0-1.024-1.524c-.365-.39-1.02-.962-1.452-1.272s-1.065-.659-1.405-.777c-.338-.116-.826-.223-1.08-.235m.134-5.361c-.107.016-.357.154-.555.309-.199.156-.438.51-.53.79-.104.312-.132.819-.072 1.32.053.446.19 1.007.305 1.248.113.24.228.461.258.495.028.034.353-.263.724-.658.37-.394.814-.768.989-.83.173-.062.523-.111.777-.108s.741.098 1.082.212.99.444 1.442.735c.453.29 1.126.848 1.498 1.238.371.39.87 1.01 1.109 1.38s.532.986.653 1.37c.12.385.21.908.197 1.164-.016.32-.184.658-.545 1.089-.288.343-.505.647-.483.677.022.029.456.182.965.343.508.16 1.087.268 1.282.241.235-.032.483-.22.724-.55.202-.275.407-.728.455-1.006.066-.382.024-.707-.175-1.33-.187-.59-.581-1.273-1.385-2.402a296 296 0 0 0-1.48-2.061c-.197-.267-.744-.807-1.217-1.202-.692-.579-1.236-.869-2.8-1.49-1.067-.424-2.184-.822-2.482-.886-.297-.062-.63-.102-.736-.088M73.093-67.83c.805-.062 1.164-.013 2.011.275a6.5 6.5 0 0 1 1.907 1.03c.481.376 1.102.974 1.38 1.33s.68.982.892 1.391c.32.611.423 1.01.574 2.237.154 1.236.151 1.602-.01 2.112a5.5 5.5 0 0 1-.593 1.193c-.222.324-.687.748-1.06.969-.551.325-.832.405-1.647.465-.793.059-1.169.008-1.944-.26-.662-.23-1.28-.584-1.988-1.142-.714-.56-1.21-1.086-1.628-1.723-.33-.502-.742-1.285-.915-1.734a6.1 6.1 0 0 1-.377-1.8c-.044-.685.01-1.21.181-1.737.135-.416.419-.978.63-1.25.211-.273.66-.672.996-.887.513-.33.77-.405 1.591-.47m-1.482 1.866c-.774.095-.92.151-1.008.387-.091.25-.051.277.426.278.29.001.88.09 1.31.198.51.127 1.076.413 1.629.821.465.346 1.019.859 1.227 1.142.21.283.391.586.405.675.013.09.138.26.277.377.138.117.273.338.296.49.025.154.142.415.262.58.135.189.27.722.355 1.407.105.833.094 1.248-.05 1.683-.133.412-.141.573-.025.563.09-.009.322-.257.515-.552s.41-.752.483-1.015c.07-.263.105-.995.075-1.625-.03-.628-.083-1.138-.12-1.138-.036.005-.26-.398-.5-.895a6.9 6.9 0 0 0-1.12-1.604c-.376-.385-.973-.878-1.325-1.096a6 6 0 0 0-1.424-.591c-.538-.135-1.066-.16-1.688-.085m-.716 1.272c-.292.038-.574.112-.628.168-.054.054-.075.206-.048.335.028.13.139.225.247.212s.459.072.781.188c.323.116.833.366 1.135.553.302.19.895.745 1.315 1.237.454.53.921 1.252 1.145 1.772.276.64.396 1.132.444 1.823.047.672.114.959.236.993.094.026.23.04.3.031.072-.008.221-.31.333-.667.177-.569.175-.808-.019-1.877-.195-1.074-.292-1.33-.798-2.079a9.2 9.2 0 0 0-1.28-1.472 4.8 4.8 0 0 0-1.67-.953c-.628-.217-1.15-.308-1.493-.264m2.397-2.593c-.398.014-.92.113-1.161.218-.24.104-.51.273-.6.376-.133.153-.055.177.445.135.334-.03.958.023 1.386.117.428.095 1.028.303 1.33.464s.91.605 1.35.986.86.856.932 1.056c.075.199.221.418.326.487.105.07.31.423.458.785.147.363.247.722.22.798-.028.076.035.224.138.33.131.135.204.494.237 1.191.04.79-.017 1.163-.274 1.796-.177.438-.294.794-.258.79.037-.005.216-.11.4-.234.183-.125.443-.38.576-.565.131-.187.34-.619.463-.96.143-.399.205-.95.174-1.538-.028-.508-.16-1.227-.298-1.612-.138-.382-.5-1.094-.806-1.583a7 7 0 0 0-1.473-1.646c-.653-.54-1.193-.852-1.88-1.087-.6-.205-1.235-.32-1.685-.304m-130.03 18.087c-.311.038-.571.159-.685.315-.171.237-.155.257.247.296.237.022.904.273 1.483.555.578.283 1.324.773 1.656 1.087.332.316.756.748.941.961.186.213.349.475.362.582s-.031.232-.098.276-.36-.201-.648-.547c-.29-.345-.877-.886-1.302-1.202s-1.056-.713-1.4-.884c-.344-.17-.894-.313-1.224-.318-.36-.006-.682.06-.81.165-.116.095-.206.218-.198.271.006.053.084.089.174.08.09-.01.472.083.85.208s1.076.494 1.551.82c.475.327 1.11.836 1.412 1.13.3.296.774.896 1.05 1.333s.58 1.113.674 1.5l.172.704c.324-.55.393-.9.36-1.133a5 5 0 0 0-.29-.987c-.178-.43-.203-.61-.103-.745.102-.14.185-.115.378.12.136.165.324.646.42 1.069l.173.77c.494-.793.514-.973.402-1.638-.1-.588-.278-1.003-.727-1.69-.333-.508-.98-1.242-1.467-1.661-.607-.523-1.173-.865-1.862-1.124-.645-.243-1.166-.352-1.492-.313M70.431-63.44c-.053.005-.064.287-.024.625.04.34.209.928.372 1.306.164.379.444.909.622 1.177s.577.753.885 1.078c.31.325.972.828 1.474 1.117.91.528.912.528 1 .207.058-.211-.006-.652-.193-1.306-.171-.603-.48-1.286-.79-1.75a7.4 7.4 0 0 0-1.184-1.317c-.371-.305-.986-.688-1.368-.85s-.74-.291-.794-.287M-45.652-44.556c-.048-.031-.443.376-.878.905-.71.864-.736.919-.256.51.296-.25.69-.659.878-.906.187-.247.302-.477.256-.51m53.51-7.423c-.615-.525-.68-.555-.422-.2.168.23.667.713 1.11 1.073.56.455.948.666 1.272.691.255.02.577-.017.715-.082.197-.096.026-.196-.852-.492-.792-.267-1.303-.545-1.824-.99m-55.536 8.035c.034.267.106.484.16.48.053-.003.174-.109.268-.236.15-.207.134-.258-.16-.48l-.328-.25zM6.983-56.86c-.07.012-.268.257-.439.547-.286.49-.298.595-.144 1.43.161.879.19.927 1.054 1.767.487.474 1.172 1.023 1.523 1.217.35.196 1.017.434 1.482.528.465.096.917.162 1.007.149s.408-.32.708-.68l.546-.655c-1.648-.698-2.497-1.234-3.33-1.891-.79-.623-1.505-1.315-1.796-1.734-.264-.385-.54-.69-.61-.678m-55.438 2.968c-.059.014-.702.67-1.43 1.46l-1.323 1.437c.213 1.027.514 1.68.883 2.266.34.538 1.044 1.549 1.564 2.247.52.699 1.169 1.48 1.443 1.736.482.451.507.458.777.22.154-.136.69-.66 1.19-1.166l.908-.923a21 21 0 0 0-.792-2.54c-.253-.657-.611-1.415-.796-1.683a64 64 0 0 0-1.327-1.783c-.544-.712-1.038-1.283-1.097-1.271M66.927-69.997c-.053.01-.416.326-.805.698-.39.373-1.34 1.243-2.111 1.932-.77.689-1.42 1.345-1.443 1.456-.024.113-.221 1.828-.44 3.812-.218 1.984-.42 3.79-.451 4.011-.052.377.074.289 1.962-1.38 1.842-1.625 2.03-1.834 2.162-2.374.08-.327.39-2.27.69-4.32.301-2.044.543-3.746.54-3.79-.005-.037-.052-.056-.104-.045M6.374-60.484c-.196-.744-.226-.788-.278-.427-.031.221.013.72.097 1.108.085.39.356 1.07.601 1.51s.674 1.1.955 1.465 1.197 1.204 2.04 1.866c1.325 1.04 1.716 1.27 2.912 1.708.76.28 1.743.556 2.186.615.442.06 1.067.079 1.389.04a6 6 0 0 0 1.028-.214c.382-.127.276-.148-.743-.15-.653-.003-1.646-.117-2.207-.257a13.4 13.4 0 0 1-1.787-.588c-.42-.186-1.217-.63-1.768-.987-.552-.357-1.328-.962-1.724-1.344a14 14 0 0 1-1.258-1.422 12 12 0 0 1-.88-1.409 9.4 9.4 0 0 1-.563-1.514m3.082-3.927c-.481.064-1.1.226-1.374.358-.273.134-.661.473-.863.756-.201.282-.398.74-.435 1.016-.039.276-.037.767.003 1.087.04.321.197.895.352 1.276.155.38.492 1.021.751 1.425.26.403.719 1 1.022 1.325.302.325.928.895 1.389 1.265.462.37 1.22.877 1.687 1.129.466.251 1.219.591 1.674.754s1.19.346 1.633.406c.442.06 1.213.06 1.713 0 .598-.074 1.079-.215 1.401-.411.27-.164.62-.488.774-.719a3.2 3.2 0 0 0 .396-.96c.07-.343.049-.849-.06-1.377a7.6 7.6 0 0 0-.544-1.583c-.206-.41-.667-1.124-1.026-1.588-.368-.476-1.23-1.297-1.976-1.883-.877-.69-1.696-1.202-2.435-1.52-.612-.262-1.584-.566-2.16-.676-.714-.136-1.324-.16-1.922-.08m2.428 2.333c.072-.008.504.31 1.79 1.427l1.193-.764.333.3c.184.165.348.419.366.562.017.144-.155.444-.386.673-.23.227-.411.442-.404.478.008.038.314.34.68.675.37.335.678.667.688.74.008.071-.102.261-.246.421s-.349.3-.456.312-.482-.267-.834-.62c-.394-.394-.74-.626-.899-.606-.143.017-.513.196-1.385.762l-.433-.408c-.237-.224-.435-.45-.443-.506-.006-.053.202-.288.462-.519.278-.247.462-.526.447-.68-.015-.143-.303-.553-1.26-1.56l.33-.337c.18-.184.386-.343.457-.35m-63.93 11.352c-.182-.014-.318.01-.303.053.014.042.196.206.4.362l.37.284c-.117-.588-.222-.683-.467-.7m63.981-10.65c-.01.046.22.336.514.643.314.331.55.71.574.92.029.262-.086.477-.432.81-.26.25-.41.476-.334.503s.371-.104.657-.291c.415-.271.58-.318.828-.234.17.06.338.103.374.1.035-.005.043-.184.017-.398-.037-.31.04-.455.376-.706.232-.173.412-.402.4-.51-.014-.106-.054-.19-.09-.187-.035.005-.186.106-.335.225s-.397.269-.553.333c-.228.092-.444-.02-1.13-.59-.465-.387-.854-.664-.866-.618m-66.868 5.045c-.512-.023-.591.028-1.864 1.2l-1.33 1.224c.451.507.735.763.922.896.186.134.964.5 1.727.81.764.313 1.815.663 2.337.78s1.036.202 1.145.19c.108-.014.804-.647 1.55-1.407.743-.76 1.357-1.428 1.368-1.486.006-.055-.42-.35-.946-.655a14 14 0 0 0-1.855-.88 15 15 0 0 0-1.709-.486 12 12 0 0 0-1.345-.186m-3.404 2.985c-.183-.105-.247-.076-.341.158-.104.253-.079.286.21.28.178-.004.331-.076.34-.158.008-.083-.086-.209-.21-.28"/></g></svg>