<svg xmlns="http://www.w3.org/2000/svg" fill="none" viewBox="0 0 32 32"><mask id="a" width="32" height="32" x="0" y="0" maskUnits="userSpaceOnUse" style="mask-type:alpha"><path fill="#d9d9d9" d="M0 0h32v32H0z"/></mask><g mask="url(#a)"><path fill="#e31e24" d="M22.487 118.596c.562 0 .795.072.754.227-.034.125-.397.245-.814.271-.569.034-.754-.022-.754-.226 0-.2.213-.272.814-.272m1.32-.649c.129.009.233.098.23.197-.006.1-.417.202-.915.227-.514.025-.906-.033-.907-.136.001-.099.307-.208.679-.242s.783-.055.912-.046m.668-.891c.1.018.181.149.182.289 0 .187-.24.257-.86.257-.471 0-.86-.081-.864-.18-.003-.1.303-.23.678-.289.375-.06.763-.094.864-.077m.11-.991c.504 0 .704.077.704.272 0 .206-.23.273-.949.278-.842.007-.922-.024-.704-.271.143-.161.543-.279.95-.279m1.143-11.333c.13.044.193 1.671.193 5.019 0 4.579-.023 4.957-.316 5.002-.294.042-.318-.304-.347-4.894-.016-2.719.04-4.999.125-5.066a.4.4 0 0 1 .345-.061m-1.636-1.826c.511.029.93.15.978.278.058.163-.2.226-.935.226-.558 0-1.054-.062-1.102-.136-.047-.074-.03-.201.038-.278.07-.079.528-.121 1.021-.09m-.904-1.085c.51.029.93.15.979.278.057.163-.201.226-.935.226-.558 0-1.055-.061-1.104-.135-.046-.074-.03-.202.038-.279.07-.079.53-.121 1.022-.09m5.536-2.026c.101 0 .18.482.18 1.084s-.079 1.085-.18 1.085c-.101-.002-.18-.484-.18-1.085s.08-1.083.18-1.084m-216.783-47.148c.521-.09 2.17-.125 3.661-.074 1.491.049 3.2.21 3.797.355.596.147 1.482.485 1.971.754.486.268 1.24.793 2.459 1.843l-.008-1.04c-.004-.835.071-1.111.384-1.4.329-.31.636-.363 2.077-.363 1.381 0 1.749.06 2.013.323.272.27.317.59.276 1.988-.026.916-.129 1.747-.229 1.848a.66.66 0 0 0-.178.407c.002.148.358.24 2.083.316l.04 5.876c.032 4.44-.014 5.93-.182 6.109-.123.13-.602.23-1.079.225-.473-.003-.9.075-.949.174-.051.1.034.283.188.407.222.18.278.628.271 2.17-.008 1.904-.018 1.95-.504 2.31-.396.293-.767.368-1.808.362-1.211-.005-1.353-.047-1.853-.548-.47-.468-.53-.64-.453-1.265.049-.398.049-.723 0-.724-.052.001-.6.41-1.219.908-.622.5-1.7 1.144-2.396 1.434-.696.289-1.796.613-2.441.718-.648.106-2.112.191-3.254.191-1.244-.002-2.552-.114-3.254-.282-.647-.154-1.705-.557-2.351-.897a13.4 13.4 0 0 1-2.17-1.492c-.547-.48-1.37-1.438-1.829-2.129-.459-.689-1.041-1.783-1.296-2.428-.253-.648-.549-1.664-.658-2.26a15 15 0 0 1-.195-2.215c0-.622.13-1.76.289-2.53.157-.77.551-1.971.875-2.667a15.7 15.7 0 0 1 1.412-2.351c.452-.597 1.137-1.336 1.519-1.644a19 19 0 0 1 1.465-1.039 13 13 0 0 1 1.673-.842 11.3 11.3 0 0 1 1.853-.528m10.431 16.714c-.248-.228-.343-.14-.807.772-.316.621-1.101 1.605-1.98 2.482-.808.808-1.936 1.716-2.538 2.047q-1.083.593-.543.463c.299-.07.868-.189 1.266-.26.397-.073.58-.141.407-.154-.175-.013-.277-.104-.226-.203.05-.1.557-.18 1.13-.18.6.003 1.191-.102 1.401-.248.334-.233.305-.25-.361-.229-.398.013-.746-.057-.773-.157-.026-.1.3-.203.724-.232.429-.029.729.017.846.129l.079.103c.111.092.359-.02.865-.38.434-.31 1.053-.86 1.377-1.221.321-.362.583-.84.58-1.065-.002-.224.159-.57.358-.768.201-.2.325-.423.279-.498-.049-.074-.474-.138-.946-.141-.484-.002-.981-.115-1.138-.26m-9.257-15.987c-.523.009-1.275.093-1.673.19-.398.093-1.252.43-1.898.748-.685.338-1.703 1.081-2.441 1.78-.895.848-1.488 1.617-2.02 2.622-.415.78-.897 1.95-1.073 2.596q-.318 1.173-.311 3.074c.005 1.502.1 2.18.445 3.254.242.744.813 1.965 1.269 2.711.457.745 1.267 1.746 1.802 2.223s1.583 1.177 2.329 1.557c.924.47 1.728.733 2.531.829.645.076 1.419.083 1.717.014.541-.122.539-.124-.452-.578-.548-.25-1.429-.794-1.963-1.21-.533-.415-1.278-1.162-1.658-1.659s-.974-1.474-1.321-2.17-.76-1.855-.919-2.576c-.157-.721-.285-1.86-.283-2.531.002-.67.123-1.79.267-2.486s.633-2.018 1.081-2.938c.622-1.27 1.112-1.967 2.039-2.9.724-.726 1.68-1.462 2.351-1.807.619-.32 1.129-.621 1.13-.67-.001-.051-.429-.084-.949-.073m294.494 18.031c.554-.002.853.105 1.135.406.209.228.428.617.486.865.058.249-.013.716-.155 1.04-.143.323-.424.668-.622.767-.199.1-.606.182-.904.182q-.542 0-1.085-.543c-.334-.335-.55-.745-.564-1.07-.013-.338.156-.731.469-1.085.395-.452.629-.556 1.24-.562m-291.827-17.408c-.317-.056-.883.038-1.357.226-.448.18-1.296.645-1.887 1.038-.59.393-1.363 1.063-1.717 1.488s-.95 1.278-1.323 1.898c-.372.618-.854 1.777-1.071 2.572-.285 1.045-.392 1.925-.382 3.165.011 1.317.122 2.054.476 3.164.255.795.779 1.934 1.164 2.53.385.597 1.224 1.575 1.862 2.174.85.799 1.535 1.245 2.562 1.672l1.401.584c1.784-.928 2.795-1.705 3.536-2.44.899-.892 1.477-1.668 1.952-2.622.564-1.132.711-1.676.894-3.285l.217-1.93c-.853-.644-1.047-1.01-1.175-1.655a12.4 12.4 0 0 1-.181-1.99c0-.596.101-1.285.226-1.529.199-.393.164-.533-.304-1.22-.291-.426-.942-1.182-1.446-1.681-.504-.497-1.365-1.164-1.911-1.482-.548-.318-1.238-.623-1.536-.677m291.884 18.137c-.234 0-.565.14-.735.316a.76.76 0 0 0-.206.723c.056.222.263.488.462.587.199.1.525.14.724.091s.442-.253.542-.452c.131-.264.107-.486-.09-.813-.167-.278-.436-.452-.697-.452m-279.862-1.242c-2.333 0-3.081.055-3.164.12-.083.066-.137.717-.121 1.446.025 1.131.076 1.327.347 1.327.274 0 .309-.163.271-1.266-.038-1.024.006-1.265.226-1.265.218 0 .262.24.226 1.265l-.045 1.266h2.26zm425.24-5.627c.533.002 1.211.172 1.804.452.522.247 1.405.877 1.964 1.399.557.522 1.204 1.275 1.437 1.673.232.397.479 1.049.549 1.446.083.477.042.925-.126 1.32-.161.38-.484.701-.885.882-.38.172-.923.255-1.357.206-.398-.043-1.211-.316-1.807-.607-.597-.291-1.451-.899-1.899-1.349-.446-.45-1.016-1.224-1.264-1.72-.292-.585-.452-1.207-.452-1.775-.001-.759.077-.944.59-1.401.477-.426.754-.527 1.446-.526m-1.323 1.204c-.078.066-.126.37-.108.676.018.308.211.924.427 1.372.219.447.767 1.186 1.219 1.642s1.146.996 1.544 1.202 1.009.432 1.357.503.857.079 1.13.018c.272-.062.497-.192.497-.291-.001-.1-.103-.137-.227-.083-.125.053-.672-.069-1.22-.273a9.3 9.3 0 0 1-1.853-1.004c-.472-.347-1.059-.895-1.307-1.217-.246-.323-.644-1.055-.883-1.625-.24-.57-.498-.984-.576-.92m1.131-.663c-.061 0-.155.081-.209.18-.054.1-.022.485.072.86.094.372.461 1.062.814 1.536.352.471.987 1.092 1.41 1.38.423.285 1.093.652 1.491.817.398.163.948.295 1.221.293.272-.002.477-.096.452-.208-.026-.112-.414-.299-.859-.412-.447-.116-1.181-.46-1.627-.766-.447-.304-1.051-.83-1.34-1.167s-.703-1.044-.92-1.564c-.217-.522-.444-.95-.505-.95m-426.517 3.857c-.543-.029-1.058.006-1.145.076s-.145.197-.129.278c.017.084.559.152 1.206.152.85 0 1.159-.063 1.115-.226-.036-.137-.448-.248-1.047-.28m427.846-3.503c-.241-.128-.354-.128-.361 0-.006.103.132.484.305.848.174.361.684.989 1.13 1.392.447.401 1.159.879 1.582 1.058.423.178.809.303.861.28.05-.025.031-.2-.045-.386-.077-.187-.382-.437-.68-.554s-.899-.536-1.335-.926-.862-.895-.949-1.117c-.087-.224-.315-.492-.508-.595m-424.569-7.742c-5.749 0-6.707.061-6.862.225-.117.125-.171.47-.119.769.051.298.226 1.112.389 1.807.211.906.271 1.753.206 2.984-.051.944-.224 2.206-.387 2.803-.162.596-.251 1.267-.197 1.49.098.404.122.407 3.535.407h3.435zm337.914-2c.125-.007.653.079 1.176.19a9.3 9.3 0 0 1 1.807.632c.472.237 1.19.775 1.595 1.198s.891 1.094 1.083 1.491c.192.398.423 1.172.514 1.718.101.602.101 1.335.002 1.854-.091.472-.359 1.246-.594 1.718-.235.471-.745 1.137-1.13 1.478a7.5 7.5 0 0 1-1.515.992c-.618.282-1.184.373-2.35.374-1.287.002-1.698-.074-2.532-.473-.545-.26-1.348-.788-1.782-1.175-.443-.393-1.02-1.175-1.316-1.784-.291-.597-.576-1.534-.636-2.08a5.3 5.3 0 0 1 .171-1.989c.154-.546.556-1.36.894-1.807.336-.449 1.008-1.058 1.495-1.356a7.2 7.2 0 0 1 1.887-.754 18 18 0 0 1 1.231-.226m-.045 2.77c-.506-.038-1.261.05-1.717.2a7 7 0 0 0-1.514.766c-.385.275-.892.825-1.126 1.223-.234.397-.426.966-.426 1.264s.168.909.374 1.357c.204.446.629 1.126.943 1.51.347.423 1.039.921 1.749 1.261.947.454 1.403.563 2.35.56.858 0 1.437-.122 2.151-.445.537-.246 1.249-.751 1.582-1.124.457-.513.606-.844.608-1.356.001-.374-.117-1.084-.259-1.581-.161-.562-.562-1.248-1.056-1.809-.515-.585-1.143-1.055-1.775-1.332-.539-.235-1.387-.457-1.884-.495m107.977-2.784c.413 0 .749.162 1.13.543.394.394.557.745.595 1.281.029.407.02 1.2-.019 1.763-.04.562-.27 1.554-.512 2.2-.242.645-.722 1.56-1.066 2.032-.343.472-.889 1.022-1.212 1.221-.324.197-.852.36-1.175.361-.364 0-.751-.155-1.013-.406-.235-.224-.519-.732-.633-1.13a6.3 6.3 0 0 1-.204-1.446c.002-.398.123-1.232.27-1.854.148-.621.432-1.455.63-1.853a7.8 7.8 0 0 1 .95-1.387c.323-.363.831-.811 1.13-.992.298-.182.806-.331 1.129-.333m.166.726c-.085-.002-.085.181 0 .405.083.223.142 1.017.131 1.763-.014 1.051-.136 1.636-.543 2.617-.309.748-.871 1.649-1.38 2.215-.787.873-.824.953-.438.953.24 0 .69-.268 1.039-.618.34-.34.837-1.053 1.107-1.582.267-.53.614-1.453.768-2.05.156-.596.282-1.39.282-1.762-.002-.374-.089-.902-.197-1.175-.107-.274-.289-.556-.406-.63a.9.9 0 0 0-.363-.136m-.843.178c-.099 0-.191.06-.202.136-.013.074-.005.542.017 1.04.024.496-.096 1.392-.267 1.988-.17.597-.472 1.41-.671 1.808a6.4 6.4 0 0 1-.931 1.31c-.383.396-.507.65-.387.777.124.126.438-.091.986-.68.443-.475 1.007-1.313 1.253-1.86.283-.632.477-1.456.531-2.259.047-.696.033-1.49-.032-1.762-.064-.275-.198-.497-.297-.498m-.941.905c-.07 0-.16.06-.202.135s-.135.543-.206 1.04a8.2 8.2 0 0 1-.52 1.784c-.215.486-.496.974-.624 1.085-.13.112-.228.407-.221.656l.015.452a8.4 8.4 0 0 0 1.22-1.898c.25-.548.502-1.503.56-2.124.058-.62.047-1.13-.022-1.13m-452.165 1.369c-.09-.056-.164.37-.166.949-.002.577.09 1.416.207 1.862.148.57.319.833.574.884.336.067.351.013.215-.811a21 21 0 0 0-.407-1.833c-.143-.523-.334-.995-.423-1.051m345.806-2.265c-.597.01-1.41.138-1.808.286-.397.15-.96.448-1.251.665-.289.217-.743.722-1.008 1.12l-.482.723c1.423-.929 2.244-1.316 2.741-1.46s1.291-.261 1.763-.26c.472 0 1.285.16 1.808.351.529.195 1.376.736 1.915 1.22.531.48 1.182 1.3 1.446 1.823.263.523.494.93.512.904.016-.027-.046-.435-.136-.906-.092-.474-.319-1.165-.505-1.537-.187-.375-.776-1.068-1.311-1.545-.535-.475-1.337-.986-1.786-1.132-.446-.146-1.302-.259-1.898-.252M21.854 61.114c.15 0 .416.141.593.313.177.17.318.474.3 1.034l-.199-.362a2.8 2.8 0 0 0-.582-.674c-.28-.228-.309-.31-.112-.31m-205.169-7.68c.199.158.421.286.497.285.075-.002.522.259.995.577.472.32 1.251.951 1.732 1.401.481.452 1.126 1.23 1.435 1.727s.59.943.622.994c.033.048.181-.094.327-.317.212-.323.436-.407 1.081-.407.447 0 .854-.081.905-.18.047-.102-.481-.752-1.176-1.447-.696-.695-1.346-1.265-1.446-1.265s-.14.081-.09.18c.049.1-.094.23-.317.29-.224.06-.672.06-.994 0-.323-.06-.588-.19-.588-.29.002-.099.386-.176.859-.173.773.008.832-.02.588-.275-.187-.192-.67-.294-1.523-.323-.818-.027-1.272-.121-1.31-.268-.036-.137.137-.237.437-.255.205-.01.107-.05-.206-.098l-.831-.109c-.444-.065-.848-.144-.997-.2l-.361-.137zm256.656 3.618c.188-.217.305-.228.59-.053.197.117.356.318.355.443a.34.34 0 0 1-.229.299c-.125.04-.388-.04-.587-.174-.3-.206-.322-.291-.129-.515m-247.176-.08c-1.219 0-1.266.016-1.083.36.162.306.349.355 1.229.317.827-.036 1.046-.108 1.084-.361.04-.276-.118-.316-1.23-.316m1.639-3.436c-2.334 0-3.082.055-3.164.12-.083.068-.137.678-.121 1.355.016.68.09 1.27.166 1.315.074.043.217.023.316-.045.1-.067.181-.631.181-1.253 0-.633.08-1.129.181-1.129s.181.515.181 1.176v1.173h2.26zm395.565-.395a.28.28 0 0 1 .316-.12c.11.037.23.224.263.415.03.192-.071.409-.227.483-.2.095-.313.028-.376-.227-.05-.198-.039-.446.024-.55m.967-.895c.102 0 .234.102.295.226s.058.39-.006.588c-.108.34-.134.343-.426.054-.188-.188-.26-.418-.179-.588.071-.153.214-.28.316-.28m.633-.903c.051 0 .178.224.28.497.116.312.121.563.015.677-.11.118-.244.024-.382-.271-.117-.248-.166-.553-.11-.678.056-.124.145-.225.197-.225M-180.827 1.83c.175 0 .725.204 2.124.904V13.22l.542.271c.299.148.695.577.881.95.3.6.607.806 2.666 1.793 1.282.615 2.716 1.285 4.047 1.867v2.712l-.768.622a625 625 0 0 0-3.571 2.94 4911 4911 0 0 0-7.096 5.889c-2.361 1.96-4.436 3.567-4.611 3.572-.176.002-2.068-.988-4.203-2.2l-6.327-3.591.019-12.798 3.741-3.162c2.059-1.74 5.653-4.759 7.991-6.71 2.336-1.948 4.392-3.545 4.565-3.545m9.49 17.361c-.027.006-.656.52-1.402 1.145s-3.104 2.583-5.242 4.351-4.882 4.04-6.097 5.048c-2.037 1.69-2.211 1.884-2.223 2.466-.011.586.011.613.303.361a2336 2336 0 0 1 12.408-10.306c2.111-1.73 2.313-1.948 2.305-2.485-.003-.32-.027-.582-.052-.58m-20.656 9.816c-.099-.018-.405.063-.677.18-.485.208-.429.252 2.349 1.841 1.566.895 2.95 1.647 3.074 1.672.143.028.224-.168.222-.542-.004-.57-.082-.63-2.395-1.854-1.316-.695-2.472-1.279-2.573-1.297m15.096-12.891c-.05.01-.342.276-.646.593-.306.318-.788.781-1.07 1.03s-.804.679-1.16.957c-.358.277-.893.709-1.191.958l-2.712 2.257c-1.193.992-2.535 2.12-2.984 2.507a100 100 0 0 1-1.717 1.452 88 88 0 0 0-1.56 1.325c-.362.318-.85.705-1.085.862-.427.284-.419.292 1.199 1.158a96 96 0 0 1 2.35 1.294l.723.423c4.065-3.397 6.497-5.409 8.028-6.664s3.747-3.074 4.926-4.045l2.142-1.762c-1.752-.806-2.91-1.336-3.706-1.7-.794-.362-1.485-.651-1.537-.645m97.629-14.18a6.2 6.2 0 0 1 2.125-.194c.621.049 1.331.17 1.581.269.248.099.514.306.588.458.099.2-.395.805-1.812 2.214-1.81 1.804-1.938 1.977-1.826 2.48.065.299.186.705.266.904s.293.547.47.773c.192.238.737.519 2.314.938l1.898-1.91c1.327-1.331 2.004-1.888 2.248-1.847.25.042.421.32.596.961.145.534.215 1.424.17 2.17a6.5 6.5 0 0 1-.595 2.42 6.2 6.2 0 0 1-1.47 2.033c-.522.485-1.335 1.06-1.807 1.279-.67.312-1.273.412-4.655.522l-2.35 2.646a3720 3720 0 0 1-3.893 4.375c-.848.953-2.683 3.072-4.08 4.713-1.994 2.343-2.701 3.052-3.294 3.3-.416.174-.938.316-1.163.315-.224 0-.712-.082-1.085-.181-.372-.098-.936-.403-1.25-.676-.317-.273-.722-.823-.9-1.22a4.5 4.5 0 0 1-.327-1.538c0-.448.142-1.113.313-1.48.172-.369 2.434-2.972 5.026-5.785 2.592-2.815 5.44-5.92 6.328-6.9.887-.977 1.679-1.953 1.759-2.169.08-.213.065-.837-.036-1.382a6.8 6.8 0 0 1-.033-1.99c.082-.546.306-1.359.497-1.807.19-.449.709-1.206 1.152-1.687.443-.48 1.13-1.065 1.528-1.299s1.17-.55 1.717-.706m104.046.57c.199-.052.605-.054.903-.001.298.05.787.213 1.085.361s.814.526 1.147.837c.33.313.77.893.975 1.29.206.399.382 1.066.39 1.483.015.637-.086.872-.63 1.447-.638.674-.647.7-.421 1.41.127.397.237 1.007.246 1.356.015.497-.12.769-.622 1.266-.35.347-.636.795-.63.994.002.22-.581.94-2.986 3.309l-1.536.146c-1.448.137-1.572.183-2.123.786-.322.352-.585.72-.586.82 0 .1-.658.833-1.46 1.628-.803.796-2.86 2.936-4.568 4.756-3.058 3.261-3.117 3.311-3.789 3.255-.649-.052-.75.018-3.516 3.017l-.973-.013c-.537-.007-1.239-.147-1.562-.315-.324-.167-.935-.65-1.36-1.073S1.8 28.09 1.566 27.593c-.318-.68-.405-1.138-.357-1.848.064-.915.113-.99 1.646-2.531 1.336-1.341 1.582-1.678 1.582-2.175.002-.519.488-1.097 4.195-4.972 2.307-2.411 4.748-4.914 6.654-6.734l.002-2.35 1.67-1.673c1.228-1.229 1.79-1.67 2.125-1.669.247.002.777-.238 1.174-.537.398-.298.845-.545.995-.55s.66.195 1.989.903l.588-.428c.323-.237.75-.472.949-.522m-57.322.5.215.813c.118.448.257 1.016.31 1.266.08.375.287.506 2.378 1.096l.874-.818c.478-.451.966-.816 1.084-.815.116.004.925.533 1.794 1.174.869.644 1.58 1.231 1.582 1.306 0 .075-.215.626-.951 2.305l1.222 1.934 1.31-.108c1.134-.094 1.334-.065 1.474.208.09.174.363 1.049.61 1.943.436 1.58.44 1.646.133 2.26-.232.465-.56.742-1.241 1.04-.895.392-.93.432-.93 1.13 0 .687.053.755 1.083 1.4.649.407 1.085.806 1.085.995.001.175-.19.825-.425 1.447a29 29 0 0 1-.995 2.26c-.374.744-.676 1.127-.884 1.126-.174-.002-.805-.127-1.401-.277-.97-.246-1.126-.243-1.492.004-.223.152-.407.377-.408.502s.123.592.275 1.04c.235.69.242.924.042 1.536-.223.682-.35.778-4.203 2.65l-.416-.42a8.6 8.6 0 0 1-.815-1.007c-.378-.56-.45-.588-2.746-.597l-.542 1.09c-.298.6-.624 1.123-.724 1.163-.102.037-1.077-.218-2.169-.566-1.093-.351-2.097-.729-2.23-.841-.163-.143-.203-.432-.123-.929.061-.397.151-.928.198-1.176.072-.377-.07-.566-1.822-1.863l-1.266.403c-.695.223-1.365.356-1.491.3-.125-.058-.714-.857-1.312-1.777-.597-.92-1.085-1.793-1.084-1.943.002-.15.125-.597.275-.995.165-.431.492-.85.813-1.04.5-.292.532-.372.427-1.085-.06-.422-.13-.81-.155-.858-.026-.049-.557-.294-1.179-.542-.62-.25-1.177-.533-1.234-.633s-.085-.547-.064-.995c.022-.449.14-1.538.262-2.424.174-1.261.3-1.66.584-1.839.201-.126.883-.224 1.537-.216 1.079.009 1.188-.024 1.33-.421.121-.338.035-.628-.4-1.336-.486-.792-.54-1.004-.426-1.707.116-.72.277-.928 1.575-2.04.795-.679 1.547-1.234 1.672-1.23.125.003.673.33 1.22.728.753.546 1.116.7 1.492.637.273-.047.584-.19.69-.316.109-.127.3-.597.427-1.045s.344-1.08.482-1.406l.25-.593zm-95.478.157c.342-.15.867-.212 1.297-.154.398.054 1.169.32 1.717.59.587.29 1.548 1.044 2.35 1.847.745.745 1.538 1.72 1.761 2.169.222.448.457 1.097.524 1.446.071.373.03.858-.102 1.176-.123.298-.583.847-1.022 1.22-.573.486-.965.676-1.386.673-.324-.004-1.036-.165-1.582-.357-.547-.191-1.055-.351-1.13-.355s-1.989 2.17-4.254 4.83a3651 3651 0 0 0-9.767 11.525l-2.368 1.312c-1.303.72-2.45 1.268-2.55 1.22-.099-.05-.18-.212-.18-.362s.459-1.432 2.041-5.424l2.378-2.801c1.309-1.54 4.049-4.796 6.09-7.233 2.043-2.437 4.073-4.878 5.31-6.418l-.349-.722a5.2 5.2 0 0 1-.422-1.538c-.061-.688.017-.934.499-1.603.315-.436.83-.904 1.145-1.041M3.242 23.873c-1.235 1.25-1.398 1.49-1.366 2.026.02.335.184.933.363 1.33.179.398.623 1.03.99 1.402.365.374.889.79 1.162.927.273.138.783.307 1.13.377.605.123.68.077 1.781-1.107l1.15-1.237c-1.08-.31-1.638-.522-1.936-.674s-.848-.611-1.22-1.022c-.373-.408-.676-.845-.674-.97.002-.123.21-.43.46-.68l.46-.45-.897-1.338zM-77.552 2.559c-.832.01-1.607.147-2.26.4-.63.244-1.336.723-1.92 1.302-.65.641-1.046 1.239-1.33 2-.354.954-.39 1.29-.286 2.801.069.985.043 1.911-.056 2.17-.096.25-.894 1.228-1.772 2.177-.88.947-3.224 3.51-5.212 5.693a552 552 0 0 1-4.903 5.326c-1.069 1.126-1.312 1.497-1.426 2.171s-.064.968.293 1.697c.238.484.675 1.03.973 1.215.311.19.89.334 1.357.337.473.002 1.016-.129 1.3-.311.268-.175 1.853-1.895 3.525-3.821l3.853-4.455c.446-.523 1.89-2.179 3.208-3.681s2.579-2.786 2.803-2.855c.225-.066 1.18-.132 2.124-.144 1.468-.018 1.848-.09 2.621-.488.498-.259 1.277-.865 1.73-1.348.52-.551.958-1.25 1.173-1.874.213-.611.347-1.494.348-2.29.002-.711-.06-1.362-.137-1.445-.079-.083-.934.641-1.899 1.61-1.312 1.314-1.87 1.759-2.209 1.75-.25-.006-.868-.146-1.374-.314-.587-.194-1.123-.535-1.471-.938-.3-.347-.638-.959-.749-1.356s-.2-.906-.203-1.13c0-.27.577-.999 1.716-2.17.945-.97 1.656-1.826 1.582-1.904-.074-.075-.704-.134-1.4-.125m38.93 25.664c-.066.002-.168.125-.226.275-.058.148-.046.305.03.346.075.042.827.292 1.673.556 1.227.383 1.562.43 1.669.24.072-.131.135-.28.139-.329.003-.05-.707-.316-1.579-.59-.872-.275-1.639-.498-1.707-.498M64.008 3.839c.696-.013 1.956.096 2.802.244.844.146 2.107.464 2.803.705.696.242 2.16.84 3.254 1.332 1.093.49 2.211.948 2.486 1.013.273.067.826.426 1.23.798s.87 1.044 1.04 1.493c.217.576.303 1.338.293 2.62-.01 1.295-.129 2.219-.421 3.255-.225.795-.787 2.179-1.25 3.074-.578 1.119-1.211 2-2.02 2.827-.95.967-1.371 1.26-2.172 1.502-.754.228-1.148.258-1.627.123a9 9 0 0 1-.612-.217c-.034.16-.071.297-.111.396-.134.323-.52.82-.859 1.106-.56.47-.721.511-1.724.451-.938-.056-1.268-.177-2.158-.79-.567-.39-1.366-1.14-1.8-1.684a3.2 3.2 0 0 0-.445.38c-.213.234-.65.953-.974 1.6-.322.645-.805 1.5-1.073 1.899-.265.397-.58.967-.695 1.265-.116.298-.436.761-.71 1.03a4.5 4.5 0 0 1-1.178.77 4.6 4.6 0 0 1-1.446.277c-.423-.001-1.176-.112-1.673-.244s-1.434-.502-2.079-.824a15.5 15.5 0 0 1-2.151-1.338 14 14 0 0 1-1.741-1.659 17 17 0 0 1-1.314-1.809 10 10 0 0 1-.857-1.988c-.206-.727-.27-1.352-.19-1.898.067-.465.475-1.434.952-2.26.461-.796 1.035-1.977 1.279-2.622.242-.647.647-1.582.9-2.08.253-.497.804-1.391 1.226-1.988.423-.596 1.376-1.654 2.119-2.35.745-.696 1.993-1.643 2.778-2.106a21 21 0 0 1 3.01-1.401c.87-.31 2.09-.633 2.713-.72.62-.086 1.7-.168 2.395-.182m-91.03 24.225c-.15.002-.756.212-1.347.467-.592.255-1.059.533-1.04.62.02.087.096.154.172.15s.664-.286 1.31-.623c.646-.34 1.053-.615.905-.614m-4.167-1.431c-.045.018-.534.063-1.085.1-.622.04-1.119.182-1.312.373-.172.168-.312.366-.31.442.002.074.593.131 1.314.128l1.312-.007c.84 1.141 1.143 1.47 1.22 1.468.074-.006.176-.13.226-.279.048-.15-.219-.72-.596-1.265-.377-.546-.724-.977-.769-.96m-147.923-12.685c-.224.004-.539.09-.7.195s-.383.388-.497.628c-.116.248-.36.437-.566.438-.198 0-.357.1-.354.225s.146.33.316.456c.249.184.215.185-.177 0-.414-.195-.556-.182-.95.087-.254.174-.462.398-.463.497.001.1.082.22.181.27s.182.173.182.272c0 .103-.214.134-.498.07-.374-.082-.633.005-1.039.348l-.542.46c.769.299 1.033.47 1.084.569.048.1-.188.037-.528-.136-.596-.304-.64-.303-1.13.031-.289.197-.414.374-.286.406.125.033.226.122.227.196 0 .074-.237.136-.528.136-.319 0-.712.179-.993.452l-.464.452c1.115.91 1.441 1.255 1.442 1.355s-.263-.02-.587-.265-.831-.452-1.13-.46c-.304-.005-.778.172-1.078.402l-.533.414c.663.14.904.299.962.441.086.213-.026.237-.617.13-.525-.095-.835-.055-1.129.147-.366.247-.381.309-.142.593.148.173.27.377.271.452.004.074-.239.054-.537-.045-.432-.145-.633-.117-.989.135-.245.173-.447.377-.451.452-.004.074.177.305.401.511.371.344.374.366.045.248a9 9 0 0 0-.723-.215c-.199-.049-.545.002-.769.114-.224.11-.447.383-.498.607-.049.214-.235.41-.479.516l-.217.078a2.9 2.9 0 0 0-.8.504 1.33 1.33 0 0 0-.406.982c.003.323.087.75.186.949.1.198.425.442.723.542q.542.18.994 0c.248-.1.676-.467.949-.814.273-.349.619-.63.769-.627.148.004.412-.14.582-.316.171-.177.314-.423.316-.548.004-.125.29-.349.639-.497.347-.15.722-.454.831-.678.11-.224.148-.612.087-.86l-.113-.451.708.904c.728-.701.975-1.027 1.018-1.175.042-.15.323-.333.625-.407.331-.081.677-.35.866-.676.174-.298.46-.543.633-.543.174-.002.504-.225.734-.498s.577-.585.768-.693c.193-.107.494-.452.667-.768.174-.314.357-.492.407-.392q.091.18.452 0c.199-.1.443-.386.542-.633.109-.271.327-.452.543-.452.199 0 .524-.205.723-.453s.402-.45.452-.45c.05-.002.254-.206.452-.453.199-.249.462-.45.587-.447s.368-.14.537-.317c.172-.177.315-.585.317-.909q.003-.586-.446-1.039c-.25-.249-.635-.45-.859-.447m50.664-5.036c-.083-.034-.217.07-.3.231a.42.42 0 0 0 .079.513c.126.12.227.32.225.445 0 .125-.125.226-.273.226-.15 0-.333-.125-.407-.278-.103-.21-.512.174-1.684 1.582-.853 1.023-2.678 3.202-4.056 4.843-1.377 1.64-3.561 4.243-4.85 5.786-2.332 2.784-2.345 2.805-2.137 3.39.152.43.153.623.007.723-.112.074-.27.012-.353-.136-.083-.15-.181-.23-.219-.18-.037.05-.285.599-.55 1.22-.268.62-.486 1.19-.489 1.265-.001.074.262-.118.587-.427.326-.307.735-.613.908-.678.174-.063.315-.217.313-.341s.099-.322.226-.438c.175-.163.376-.146.862.067l.633.277c.84-1.061 2.259-2.759 3.694-4.458 1.435-1.698 3.794-4.465 5.242-6.15a802 802 0 0 0 3.674-4.294l1.04-1.23c-1.567-1.471-2.09-1.925-2.172-1.958m179.18 8.51c-1.087-.038-1.51.027-2.048.316-.372.199-.788.586-.924.858a6 6 0 0 0-.357.95c-.064.25.01.94.164 1.537.152.596.49 1.452.75 1.898.26.449 1.01 1.368 1.664 2.046.654.676 1.678 1.548 2.274 1.937.597.387 1.573.878 2.17 1.092.596.213 1.532.394 2.078.4.682.01 1.179-.095 1.579-.333.321-.194.761-.677.978-1.074.324-.595.372-.898.278-1.718-.067-.568-.394-1.573-.766-2.35-.481-.998-.995-1.692-1.95-2.63-.961-.948-1.71-1.483-2.907-2.08-1.424-.708-1.775-.81-2.982-.85M-36.421 6.169c-1.05.434-1.733.7-2.19.868l-.833.308c-1.368-1.178-1.85-1.524-1.954-1.53-.101-.004-.69.4-1.31.897l-1.125.903 1.486 2.26-1.331 2.531-2.777.18c-.355 2.364-.356 2.749-.205 2.85.113.076.733.3 1.38.5l1.175.36c.463 1.89.647 2.58.705 2.755.074.215-.08.486-.478.842-.324.29-.777.676-1.006.859l-.417.333 1.85 2.71 2.42-1.032 2.983 2.208c-.197 1.33-.257 1.91-.262 2.148-.01.381.15.476 1.437.86.796.236 1.548.429 1.672.429.125 0 .401-.47.616-1.041.213-.57.437-1.089.498-1.153.059-.062.82-.165 1.688-.227l1.582-.112c1.19 1.69 1.638 2.18 1.763 2.177s.754-.251 1.401-.55c.645-.297 1.177-.604 1.177-.678 0-.076-.163-.625-.363-1.22l-.369-1.085 2.267-2.3c1.962.577 2.542.728 2.557.71.014-.024.277-.628.587-1.347.53-1.233.544-1.326.246-1.559a15 15 0 0 0-1.085-.723l-.768-.476.09-2.967c1.676-.695 2.19-.902 2.224-.909.028-.009-.115-.683-.317-1.502l-.37-1.492h-2.712l-1.669-2.44c.618-1.401.832-1.93.873-2.08.047-.17-.34-.573-1.043-1.085-.614-.446-1.203-.84-1.312-.875-.107-.033-.577.333-1.045.815l-.854.875c-1.621-.61-2.315-.834-2.589-.89-.442-.092-.518-.22-.688-1.144-.105-.572-.228-1.141-.271-1.266-.057-.157-.568-.226-1.706-.226h-1.628zm-104.653 21.153c-.184 0-.455.14-.603.316-.15.173-.324.418-.389.542-.065.123.206.042.604-.18.395-.224.721-.47.723-.543 0-.076-.151-.135-.335-.135m-55.345-5.474-.013 5.745c.817.403.826.385.96-.971.076-.76.139-3.31.144-5.668l.006-4.29-1.085-.56zM14.574 17.02c-.242.09-.418.251-.393.358.027.106-1.139 1.45-2.589 2.989-2.6 2.758-2.636 2.806-2.59 3.56.043.728.083.778.859 1.062.447.166.812.412.813.548 0 .135-.163.27-.362.297-.2.028-.727-.134-1.175-.361-.665-.337-.83-.52-.904-1.008l-.09-.596-1.99 1.97c.841.51 1.412.717 1.81.79.397.074 1.149.138 1.671.141l.95.007a336 336 0 0 1 5.283-5.514l2.31-2.35c-1.471-.613-2.162-1.081-2.486-1.434-.323-.353-.606-.638-.633-.633-.025.006-.242.086-.484.174m-55.832 6.688c-.077 0-.543.187-1.04.417-.496.227-.965.553-1.04.721-.075.169-.075.308 0 .31s.544-.168 1.04-.38l.904-.382c1.401 1.038 1.95 1.413 2.125 1.501.24.123.336.076.406-.2.07-.286-.162-.536-1.085-1.176-.646-.448-1.235-.812-1.31-.811M63.827 4.565c-.398.011-1.211.092-1.808.179a19 19 0 0 0-2.08.447c-.547.16-1.605.57-2.35.916-.746.345-1.843.979-2.44 1.405-.597.425-1.614 1.346-2.26 2.045-.647.698-1.44 1.706-1.762 2.24-.321.535-.873 1.663-1.225 2.508s-.745 1.74-.871 1.989l-.23.45c2.332-.118 3.023-.046 3.726.179.546.173 1.523.607 2.17.964.649.357 1.742 1.216 2.447 1.922.7.702 1.552 1.763 1.892 2.36.34.596.75 1.573.91 2.17l.294 1.085c1.328-2.672 1.84-3.42 2.321-3.825q.072-.061.156-.125c-.318-.464-.633-.976-.801-1.318-.244-.497-.582-1.434-.749-2.08-.177-.686-.266-1.513-.213-1.988.05-.447.223-1.077.383-1.4.183-.37.576-.726 1.059-.956.555-.265.982-.34 1.537-.27a5.2 5.2 0 0 1 1.446.438c.373.188 1.075.696 1.559 1.13.285.253.647.649.977 1.052.131-.794.415-1.93.652-2.591a22 22 0 0 1 1.02-2.343c.312-.593.981-1.528 1.486-2.079.504-.551 1.278-1.18 1.718-1.401l.798-.402c-1.961-.867-3.224-1.364-4.068-1.66-.846-.299-2.31-.66-3.254-.802-.945-.142-2.042-.25-2.44-.239m-48.541 6.343c-.12-.41-.125-.409-.73.19-.458.45-.603.737-.572 1.136.023.293.204.9.405 1.348.199.446.358.933.355 1.084-.006.148-.232.498-.503.772-.271.277-.636.499-.81.497-.173-.002-.412.18-.528.404s-1.235 1.488-2.486 2.81c-1.764 1.861-2.364 2.388-2.677 2.349-.345-.045-.406.033-.408.535-.003.438-.234.867-.907 1.673-.497.596-.904 1.166-.904 1.265 0 .1.062.184.136.188.076 0 1.826-1.706 3.887-3.796 2.063-2.092 3.873-4.048 4.023-4.347.2-.4.472-.595 1.039-.745.423-.112.89-.288 1.04-.391.2-.138.412-.091.813.187.299.208.908.545 1.356.75.446.205.956.375 1.13.377s.54-.187.813-.418l.498-.42a11.7 11.7 0 0 1-2.367-1.907c-.604-.625-1.41-1.587-1.79-2.133-.382-.547-.748-1.18-.813-1.408m-194.849-6.893c-.074.008-1.235.947-2.576 2.085a2388 2388 0 0 1-7.447 6.268l-5.006 4.196c-.018 7.044.043 8.588.159 8.588.1 0 .568-.33 1.039-.73a450 450 0 0 1 2.757-2.31c1.043-.87 2.182-1.78 2.531-2.02a10 10 0 0 0 1.1-.899c.257-.253 1.091-.947 1.854-1.544.765-.596 1.756-1.43 2.2-1.853.447-.423 1.037-.879 1.31-1.016.273-.136.625-.441.782-.678.157-.236.546-.55.866-.7l.58-.272c-.01-7.06-.075-9.114-.149-9.115m409.175 6.561c.104.061.18.227.17.37s-1.216 1.38-2.68 2.746a975 975 0 0 0-4.658 4.385 947 947 0 0 1-4.661 4.384c-1.682 1.569-2.763 2.453-2.935 2.395-.148-.049-.274-.151-.278-.225 0-.08 1.321-1.403 2.937-2.946 1.62-1.545 4.965-4.702 7.431-7.014 2.464-2.309 4.565-4.149 4.674-4.095m-275.345 11.32c-.049 0-.089.062-.085.136.005.077.268.613.588 1.194.32.584.726 1.194.903 1.357.275.253.322.256.319.025-.004-.148-.372-.82-.82-1.492-.447-.67-.854-1.218-.905-1.22m21.15 1.152c-.1-.038-.285.094-.408.293-.21.343-.159.377.864.59.599.123 1.13.185 1.181.136.05-.05.089-.179.085-.289-.004-.108-.352-.3-.773-.429-.421-.126-.848-.261-.95-.301m89.409-1.708a3.2 3.2 0 0 0-1.025.337q.122.156.234.287c.442.513 1.204 1.119 1.762 1.403.54.274 1.227.496 1.526.493.298-.002.643-.064.766-.137.141-.083-.16-.3-.813-.583-.593-.256-1.492-.875-2.096-1.446a9 9 0 0 1-.354-.354m-53.344-7.16a229 229 0 0 1-4.001 4.238c-1.833 1.89-2.321 2.5-2.321 2.892 0 .273.162.762.36 1.085.2.324.425.591.499.595s.226-.097.336-.226c.11-.13.191-.49.18-.803a1.4 1.4 0 0 1 .342-.954c.2-.212.524-.387.723-.387.226 0 1.137-.814 2.441-2.186 1.143-1.204 2.222-2.421 2.396-2.707.174-.285.46-.517.633-.513.173.003.46-.16.633-.362.256-.298.276-.443.108-.773a10 10 0 0 1-.43-1.074l-.221-.667zm54.33 7.113c.434.424 1.113.928 1.51 1.116.398.188.925.369 1.173.4.283.037.468-.04.505-.213.04-.18-.233-.39-.807-.62a3.5 3.5 0 0 1-.463-.239c-.807-.333-1.283-.44-1.927-.454zm9.133-13.368a2.5 2.5 0 0 0-.94.045 5.5 5.5 0 0 0-.995.412c-.278.153-.91.715-1.404 1.248-.557.602-1.188 1.587-1.663 2.595-.421.895-.89 2.156-1.043 2.803-.116.493-.217 1.32-.26 2.06.363.606.772 1.491.95 2.074.199.645.36 1.642.358 2.214q-.001.169-.014.351c.317.284.564.35 1.08.348a3.2 3.2 0 0 0 1.49-.427c.398-.233 1.11-.862 1.582-1.397.472-.537 1.118-1.463 1.432-2.06.315-.596.761-1.653.994-2.35.232-.695.51-1.877.62-2.621.142-.987.14-1.651-.008-2.44-.11-.598-.342-1.321-.512-1.61a3.3 3.3 0 0 0-.763-.84c-.25-.174-.657-.357-.904-.405M64.81 14.452c-.09.007-.115.55-.056 1.23.075.834.279 1.56.653 2.304.3.596.813 1.406 1.14 1.798.324.388.949.93 1.396 1.213.255.08.43.129.448.12.025-.02-.068-.317-.209-.665a4 4 0 0 1-.135-.432 9 9 0 0 1-.625-.613 9.4 9.4 0 0 1-1.31-1.963c-.278-.596-.559-1.41-.622-1.807-.064-.398-.206-.831-.317-.96-.11-.127-.273-.229-.363-.225m-2.32.009c-.072 0-.247.183-.388.407-.143.222-.313.732-.382 1.13-.078.459-.014 1.148.174 1.898.165.645.537 1.621.828 2.17.151.28.382.645.628 1a4.5 4.5 0 0 1 .748-.348q.077-.026.161-.05a9.4 9.4 0 0 1-.886-1.493c-.709-1.435-.75-1.614-.75-3.118 0-.877-.06-1.595-.132-1.596m108.064-3.42c.298-.01 1.032.072 1.628.182a10 10 0 0 1 2.079.674c.548.262 1.257.743 1.581 1.069s.75.916.949 1.314c.226.454.361 1.078.359 1.673-.002.537-.15 1.263-.34 1.672-.186.398-.651 1.023-1.036 1.389s-1.147.885-1.694 1.155c-.546.269-1.522.574-2.169.677-.863.136-1.512.127-2.441-.036-.719-.126-1.726-.471-2.334-.8-.585-.317-1.343-.903-1.681-1.3-.344-.405-.737-1.161-.894-1.718-.177-.623-.233-1.231-.153-1.627.068-.349.271-.917.446-1.266.177-.348.617-.897.977-1.22a8 8 0 0 1 1.424-.984c.423-.218 1.217-.497 1.763-.618.547-.12 1.237-.227 1.536-.236M63.729 14.099c-.128 0-.3.054-.384.12-.083.067-.138.698-.122 1.4.015.706.177 1.73.36 2.277.182.546.582 1.36.885 1.808.152.222.378.51.62.797.204-.029.396-.048.546-.046.154.002.364.03.596.071-.53-.576-1.032-1.336-1.435-2.178-.57-1.2-.7-1.687-.76-2.847-.051-.987-.142-1.401-.306-1.402m107.368.058c-1.236-.054-1.846.008-2.54.252-.501.177-1.194.513-1.537.746s-.862.762-1.153 1.176l-.53.752c.541.98 1.105 1.532 1.602 1.863.497.329 1.31.716 1.808.86.497.144 1.431.263 2.079.263.647 0 1.581-.119 2.079-.264a6.7 6.7 0 0 0 1.673-.815c.423-.304.97-.837 1.219-1.184.416-.582.433-.675.198-1.13-.142-.275-.487-.713-.769-.977-.282-.262-.962-.701-1.508-.976-.809-.404-1.294-.51-2.621-.566m-102.42 4.769c.024.254.055.494.092.702.09.064.148.093.163.076.03-.037-.077-.351-.256-.778m-1.696-2.747c-.697-.74-.829-.822-.733-.453.065.248.314.899.55 1.447.197.449.61 1.079 1 1.538-.042-.381-.043-.922-.01-1.472a8 8 0 0 0-.807-1.06m-50.814.474c-.11 0-.167.103-.124.226s.481.448.971.72c.49.27 1.156.495 1.48.497.323.001.587-.056.587-.132-.001-.074-.245-.156-.543-.181s-.867-.207-1.265-.406-.763-.444-.814-.543a.36.36 0 0 0-.293-.18M-45.86 16.5c-1.008-.302-1.12-.306-1.093-.046.018.172.474.474 1.121.741.6.25 1.154.393 1.228.319.074-.073.074-.257 0-.407s-.64-.423-1.256-.607m-134.48-13.702c-.512-.194-.606-.162-1.313.465-.418.371-3.04 2.581-5.826 4.91a3270 3270 0 0 1-6.815 5.68c-.958.794-1.751 1.486-1.764 1.536-.009.051.23.192.532.317.544.224.575.203 3.031-1.899a1016 1016 0 0 1 7.548-6.341c2.782-2.318 5.082-4.269 5.113-4.34.025-.066-.203-.215-.506-.328M17.133 6.203l-1.09 1.142-.164 3.253c1.43 2.072 2.354 3.15 2.976 3.732s1.23 1.06 1.355 1.061c.125.002.633-.405 1.13-.906.497-.499 1.047-.907 1.221-.905.173.002.318.063.32.137s-.425.524-.949 1c-.524.475-.885.92-.805.994.08.072.772.031 1.537-.09 1.277-.204 1.463-.291 2.318-1.085.511-.475.938-.926.95-1 .006-.074-.696-.132-1.563-.128l-1.582.007a65 65 0 0 0-2.424-3.321c-1.03-1.33-1.452-1.746-1.689-1.672-.173.054-.358.016-.407-.083-.05-.1-.014-.324.076-.497.098-.183.107-.834.024-1.548l-.143-1.232zm154.236 5.69c-.546-.047-1.361-.028-1.809.042a8 8 0 0 0-1.627.48c-.448.195-1.099.6-1.446.9s-.776.844-.949 1.207c-.174.363-.32.803-.324.979-.005.231.212.11.814-.452.452-.423 1.208-.939 1.679-1.143.472-.206 1.387-.436 2.034-.512s1.664-.068 2.26.013c.597.083 1.573.387 2.169.675s1.349.817 1.673 1.175c.354.39.587.542.587.38 0-.15-.108-.538-.24-.86-.134-.324-.642-.938-1.13-1.366-.49-.427-1.297-.924-1.794-1.105a9 9 0 0 0-1.897-.413M20.31 3.883l-.848.569c-.02 3.03.022 3.22.478 3.843.273.374.943 1.237 1.491 1.919.63.784 1.29 1.386 1.808 1.646.446.228 1.26.516 1.808.64l.994.228c1.676-1.713 1.723-1.811 1.62-2.49-.06-.399-.143-.786-.186-.86s-.527.314-1.072.86c-.548.546-1.137.993-1.31.993s-.805-.23-1.402-.51c-.638-.3-1.329-.803-1.678-1.22a8.7 8.7 0 0 1-.945-1.434c-.195-.398-.358-1.048-.362-1.446-.007-.656.087-.808 1.036-1.65l1.045-.93c-1.184-.59-1.552-.753-1.581-.744-.026.01-.428.274-.896.587m-149.199 2.015c.06.398.319 1.088.576 1.536s.671 1.058.921 1.357c.249.298.826.85 1.281 1.223a7.7 7.7 0 0 0 1.824 1.051c.546.203 1.158.344 1.357.313.23-.037-.028-.201-.724-.461-.596-.223-1.533-.76-2.079-1.196a13 13 0 0 1-1.757-1.764c-.421-.537-.931-1.38-1.137-1.878l-.373-.904zm252.555-.296c.085 0 .561.367 1.058.814.855.77.926.8 1.311.54.223-.149.527-.269.677-.266s.417.147.594.319c.177.17.318.433.315.582-.006.148-.232.443-.998 1.034l1.346 1.768-.911.904-.716-.859c-.392-.471-.835-.858-.985-.858s-.559.143-1.551.633l-.881-1.085 1.347-1.145-.678-.875c-.634-.816-.66-.893-.38-1.19.163-.173.367-.315.452-.316M23.646 4.18c-.081 0-.62.468-1.2 1.04-1.019 1.008-1.046 1.061-.921 1.762.07.398.31 1.01.535 1.357.224.349.563.76.749.918.186.157.726.502 1.198.768s.94.483 1.04.483.181-.082.181-.181c0-.1-.184-.219-.407-.264-.331-.068-.363-.128-.175-.316.188-.19.303-.188.632.007.37.224.467.175 1.263-.633.473-.479.86-.935.858-1.009s-.185-.137-.408-.139c-.224-.001-.753-.206-1.176-.452s-1.016-.794-1.32-1.217c-.301-.423-.584-1.073-.627-1.446-.042-.371-.143-.676-.222-.678m-150.749-.363c-.407.002-.806.056-.89.123-.083.066-.135.452-.117.859.018.404.208 1.104.423 1.55.215.449.926 1.346 1.58 1.995.653.649 1.595 1.376 2.092 1.615.497.238 1.229.467 1.627.513.537.057.791-.004.994-.24.148-.176.253-.572.229-.88s-.221-.926-.44-1.375c-.219-.446-.933-1.347-1.586-2-.663-.663-1.624-1.4-2.181-1.674-.592-.29-1.292-.488-1.731-.486m83.08 4.902c-.11-.04-.033.204.169.542.202.337.473.65.6.692.133.045.063-.184-.168-.542-.22-.34-.49-.653-.601-.692m168.792-.931c.212.522.192.588-.316 1.027-.351.305-.414.417-.181.32.199-.085.626-.18.949-.215.374-.04.588-.163.588-.334.001-.149.224-.436.497-.635.273-.2.423-.41.334-.467-.091-.055-.359.046-.597.228-.422.323-.446.322-.966-.075l-.534-.408zM25.324 3.276c-.469 0-.682.104-.837.407-.154.304-.156.58-.004 1.085.11.373.466.973.79 1.334.323.362.893.808 1.265.994.373.187.865.338 1.094.338.228 0 .516-.1.637-.225s.219-.451.217-.724-.136-.76-.295-1.084a5.7 5.7 0 0 0-.769-1.101c-.262-.282-.701-.628-.974-.769-.273-.139-.78-.255-1.124-.255m-157.755-46.463c.205 0 1.45.539 2.767 1.197 1.318.658 3.353 1.716 4.521 2.35s2.183 1.255 2.256 1.38c.075.126.687 1.447 1.363 2.938.835 1.845 1.428 3.49 1.856 5.152.345 1.342.628 2.58.628 2.757-.001.173-.783 1.76-1.739 3.525-.954 1.764-1.869 3.348-2.034 3.52-.163.17-2.047 1.29-4.184 2.487-2.352 1.319-4.08 2.175-4.383 2.176-.273-.002-1.292-.4-2.261-.889-.969-.486-2.918-1.524-6.894-3.723l-2.181-4.43c-1.203-2.434-2.183-4.572-2.181-4.745.001-.177.448-1.518.991-2.983a134 134 0 0 1 2.356-5.89l1.627-.995c.895-.547 2.864-1.633 4.374-2.412 1.509-.777 2.914-1.415 3.118-1.415m205.222-.006c.592-.003.988.128 1.523.507.398.28.922.832 1.164 1.226.278.448.447.998.452 1.48.011.752-.038.816-5.774 6.53l.345.51c.19.28.498.956.682 1.504.184.546.332 1.259.332 1.582a3.8 3.8 0 0 1-.244 1.176c-.132.323-.437.718-.678.875-.24.157-.7.341-1.024.406-.346.07-1.017.004-1.628-.16-.572-.155-1.489-.529-3.028-1.384l-2.446 2.504a6136 6136 0 0 0-6.192 6.346c-3.563 3.653-3.779 3.842-4.424 3.842-.372-.002-.942-.165-1.266-.362a1.78 1.78 0 0 1-.786-1.04c-.11-.372-.143-.882-.074-1.13.067-.25.497-.858.954-1.355.458-.498 3.218-3.366 11.432-11.842l-.55-.858c-.3-.472-.667-1.266-.813-1.763-.149-.497-.266-1.23-.262-1.628.002-.397.104-.924.225-1.168.124-.244.51-.638.858-.875.52-.355.791-.417 1.536-.344.497.047 1.392.332 3.073 1.183l2.906-2.878c2.865-2.84 2.915-2.878 3.706-2.884m-153.912-.705c.373-.094 1.167-.124 1.763-.07a10.8 10.8 0 0 1 2.169.488c.596.212 1.571.67 2.166 1.018.595.347 1.741 1.282 2.546 2.077 1.142 1.13 1.63 1.783 2.23 2.983.582 1.168.79 1.82.865 2.712.054.646.007 1.52-.103 1.944-.14.538-.512 1.087-1.24 1.83-.705.72-1.273 1.128-1.763 1.265-.397.11-1.13.2-1.627.2a9 9 0 0 1-1.808-.235c-.897-.231-.908-.229-1.356.3-.25.292-.676.64-.95.776-.333.167-.535.441-.612.835-.064.324-.246.785-.407 1.026-.159.24-.555.546-.878.677-.324.132-.588.364-.588.512s-.244.415-.54.588c-.322.188-.541.465-.537.678.003.199-.181.6-.409.892-.226.29-.676.635-1 .767-.466.19-.585.342-.582.736.004.288-.186.707-.452.995-.251.272-.661.538-.91.587-.319.064-.502.262-.621.678-.094.324-.461.851-.814 1.175-.354.323-.826.625-1.05.67a15 15 0 0 1-1.311.166c-.497.045-1.698.313-2.669.595-1.565.455-1.793.482-2.026.242-.22-.226-.233-.554-.081-1.99.099-.945.131-2.166.068-2.711-.08-.701-.029-1.208.17-1.717.155-.398.528-.906.828-1.13.416-.31.545-.549.541-.995-.003-.345.162-.807.406-1.117.226-.291.677-.636 1-.768.48-.195.588-.338.588-.781 0-.355.182-.73.528-1.085.29-.298.636-.541.768-.54.14.002.298-.305.376-.722.098-.526.31-.865.772-1.224.348-.273.68-.701.734-.949.056-.25.218-.635.36-.86.143-.223.544-.529.89-.677.38-.163.634-.398.632-.588 0-.174.194-.6.864-1.582l-.342-.858c-.217-.548-.338-1.3-.336-2.08.004-.787.121-1.476.334-1.943a6.8 6.8 0 0 1 .856-1.336c.287-.336.83-.762 1.202-.949a8 8 0 0 1 1.356-.505m50.124 2.714c.944-.009 2.408.102 3.254.246.845.145 2.146.48 2.893.745.745.264 2 .859 2.788 1.32.786.46 1.97 1.368 2.63 2.013.66.646 1.495 1.706 1.855 2.351s.781 1.663.937 2.26c.179.689.28 1.875.28 3.255 0 1.4-.1 2.552-.285 3.254a13 13 0 0 1-.838 2.168c-.302.597-1.046 1.606-1.653 2.243-.606.636-1.673 1.533-2.37 1.996-.695.46-1.977 1.099-2.846 1.419-.87.318-2.335.712-3.255.873-1.226.213-2.274.264-3.932.19-1.375-.061-2.862-.25-3.797-.484-.846-.21-2.147-.668-2.892-1.017-.747-.349-1.844-.981-2.44-1.406a14 14 0 0 1-1.946-1.75 13.6 13.6 0 0 1-1.486-2.153c-.344-.646-.747-1.745-.899-2.44-.15-.697-.276-1.957-.278-2.803s.083-2.025.191-2.622c.107-.596.469-1.654.803-2.35.333-.696 1.04-1.747 1.568-2.332.53-.588 1.45-1.416 2.047-1.84a20 20 0 0 1 2.35-1.393c.695-.343 1.672-.756 2.169-.92.497-.163 1.473-.41 2.169-.55.696-.139 2.038-.262 2.983-.273m93.656 9.929c-.075 0-2.408 2.34-5.189 5.198-2.778 2.858-5.515 5.704-6.082 6.327-.567.622-1.03 1.293-1.03 1.492s.204.566.452.814c.25.25.656.452.903.452.35 0 1.223-.793 3.84-3.48 1.862-1.915 4.608-4.718 6.102-6.232l2.714-2.75c-1.221-1.408-1.637-1.82-1.71-1.821m-183.331 5.243c-.089 0-.207.081-.261.18-.054.1-1.056.74-2.224 1.42-1.167.682-2.572 1.481-3.118 1.776-.922.497-1.111.72-2.562 3.055-.861 1.381-1.53 2.533-1.492 2.563.042.025.627-.249 1.297-.608.671-.36 2.22-1.236 3.442-1.944l2.222-1.29a931 931 0 0 1 2.623-4.745c.128-.224.161-.407.073-.407m145.72-15.663c.447.042 1.14.24 1.537.44a9 9 0 0 1 1.447.988c.397.34 1 1.14 1.34 1.777.437.822.641 1.473.703 2.243.047.597-.004 1.369-.113 1.718-.146.465-1.148 1.548-3.776 4.077a1048 1048 0 0 1-7.023 6.69 513 513 0 0 1-5.288 4.917c-1.26 1.142-2.03 1.707-2.431 1.78-.333.064-1.018-.014-1.582-.177-.548-.157-1.33-.553-1.74-.877a10 10 0 0 1-1.33-1.314 10.3 10.3 0 0 1-.99-1.536c-.227-.449-.462-1.12-.525-1.492a4 4 0 0 1 .056-1.356c.138-.542.801-1.297 3.3-3.753 1.72-1.692 5.635-5.435 8.698-8.316 3.064-2.884 5.87-5.387 6.237-5.564.446-.217.936-.297 1.48-.245m-165.154 4.73c-.199-.042-.584.001-.858.095-.438.15-.63.514-1.604 3.017-1.081 2.784-1.104 2.88-1.032 4.294.069 1.397.128 1.566 1.782 4.977l1.712 3.53a113 113 0 0 0 5.018 2.767c1.863.969 2.61 1.269 2.982 1.202.275-.049.715-.313.979-.588s.976-1.291 1.582-2.261c1.053-1.687 1.1-1.812 1.1-2.938 0-1.034-.163-1.591-1.363-4.655-.767-1.956-1.655-3.903-2.033-4.45-.369-.53-.997-1.156-1.395-1.386s-2.024-1.12-3.615-1.975c-1.591-.856-3.056-1.59-3.255-1.63m47.677 17.334c-.356-.454-.413-.476-.407-.164.001.2-.056.79-.13 1.313-.123.878-.107.95.227.938.2-.007.809-.151 1.357-.32l.994-.312c-1.262-.724-1.813-1.168-2.041-1.456m48.242-6.174c-.005.075.183.562.418 1.084s.804 1.457 1.265 2.079c.462.622 1.388 1.542 2.06 2.047.67.504 1.747 1.168 2.395 1.473.645.306 1.947.749 2.892.986.944.236 2.531.48 3.526.542 1.323.08 2.317.027 3.706-.204 1.043-.174 2.387-.494 2.983-.71s1.655-.708 2.35-1.093c.778-.432 1.788-1.23 2.622-2.073.932-.946 1.538-1.755 1.943-2.595.324-.67.59-1.322.594-1.447.003-.123-.209.1-.469.498-.26.397-.976 1.234-1.587 1.86-.613.627-1.725 1.494-2.47 1.928-.746.432-1.925.99-2.622 1.24s-1.997.59-2.892.76c-1.244.237-2.204.288-4.068.215-1.878-.072-2.836-.203-4.158-.574-.945-.264-2.328-.799-3.073-1.19-.747-.39-1.824-1.077-2.395-1.526-.572-.448-1.346-1.204-1.718-1.681a37 37 0 0 1-.986-1.31c-.168-.245-.31-.383-.316-.31M-182.338-44.09c.161.002.658.112 1.104.248.448.134 1.181.428 1.627.652.448.226 1.425.836 2.17 1.355 1.182.822 1.531 1.206 2.729 3.005 1.264 1.894 1.422 2.236 1.95 4.23.502 1.9.541 2.214.321 2.53-.137.2-.554.728-.927 1.176-.372.447-1.136 1.199-1.698 1.667-.56.47-1.12.856-1.245.859s-.49.334-.814.735-.709.768-.859.817c-.149.047-.903-.159-3.073-1.005l-1.039.933c-.572.514-2.215 1.998-3.651 3.3a1566 1566 0 0 1-4.339 3.92c-.95.856-1.911 1.647-2.135 1.764-.225.113-.794.205-1.266.204s-1.204-.165-1.627-.362-1.225-.784-1.782-1.306c-.582-.545-1.239-1.393-1.537-1.99-.287-.57-.572-1.344-.634-1.716a4.9 4.9 0 0 1 0-1.357c.087-.52.394-.96 1.334-1.898.671-.672 3.05-2.84 5.288-4.822a821 821 0 0 1 4.305-3.797c.196-.16.181-.356-.386-2.002l1.253-3.797 1.255-.956c.69-.526 1.733-1.28 2.319-1.673.586-.394 1.196-.716 1.357-.714M7.252-24.385c-.353 0-.753.138-.928.316-.232.24-.288.538-.23 1.221.044.497.254 1.271.469 1.718.213.448.78 1.208 1.255 1.688.477.483 1.172 1.03 1.545 1.22.372.19 1.024.35 1.447.355.504.005.862-.098 1.04-.3.15-.172.266-.633.26-1.047-.005-.445-.223-1.167-.541-1.803-.293-.582-.9-1.403-1.347-1.822-.448-.42-1.159-.938-1.582-1.153s-1.047-.393-1.389-.393m-203.945-1.077c-.397.002-.851.085-1.011.186-.157.1-.381.503-.497.897-.115.396-.158.942-.094 1.215.065.273.309.883.543 1.355s.771 1.232 1.194 1.686c.423.455 1.176 1.025 1.673 1.267.497.244 1.172.44 1.499.439.395 0 .746-.153 1.039-.453.323-.328.445-.652.445-1.176 0-.398-.159-1.15-.352-1.672-.194-.522-.702-1.347-1.13-1.833-.429-.488-1.185-1.118-1.682-1.401-.585-.333-1.159-.512-1.627-.51m104.795 1.44c-.085 0-.284.142-.44.316-.157.173-.366.52-.463.767-.123.31-.113.706.032 1.257.137.528.477 1.076.98 1.582.422.429 1.237.993 1.808 1.255.795.365 1.21.452 1.763.372.493-.07.88-.279 1.22-.658.272-.303.496-.634.497-.733-.001-.1-.387-.263-.859-.363-.472-.097-1.366-.504-1.988-.903-.622-.398-1.378-1.07-1.68-1.492-.301-.423-.585-.91-.633-1.084-.045-.174-.152-.317-.237-.317m113.1-14.419c-1.41 1.318-4.314 4.057-6.455 6.09a752 752 0 0 0-5.566 5.332c-.92.902-1.673 1.7-1.673 1.776.002.074.186.135.41.137.225 0 .814.235 1.311.52.497.287 1.292.935 1.764 1.445.471.51 1.059 1.353 1.304 1.875.246.523.47 1.255.497 1.627.027.37.07.675.096.678.035-.01 2.143-1.978 4.694-4.384 2.558-2.412 6.157-5.83 8-7.599 1.843-1.768 3.451-3.395 3.57-3.616.122-.22.224-.747.226-1.17.004-.423-.137-1.155-.312-1.627-.177-.471-.604-1.217-.95-1.654-.345-.437-1.035-1.026-1.533-1.308-.678-.386-1.144-.514-1.862-.516l-.958-.001zm-51.294-1.94c-.846-.04-2.148.01-2.893.11-.746.102-2.088.42-2.983.707-.895.29-2.239.888-2.984 1.33s-1.798 1.196-2.339 1.677c-.54.48-1.298 1.36-1.681 1.956-.383.597-.859 1.615-1.054 2.26a9.2 9.2 0 0 0-.352 2.396c.001.844.14 1.598.452 2.44.247.672.755 1.661 1.13 2.198s1.046 1.3 1.495 1.698c.446.396 1.22.986 1.717 1.31s1.514.838 2.26 1.142c.745.301 1.965.69 2.711.862.978.226 2.112.309 4.069.304 2.176-.01 2.995-.087 4.158-.398.795-.212 2.218-.769 3.164-1.235 1.38-.683 2.003-1.133 3.183-2.303 1.105-1.095 1.612-1.765 2.058-2.72.325-.696.676-1.712.777-2.26.13-.699.125-1.368-.018-2.26-.125-.782-.463-1.78-.888-2.615-.403-.8-1.09-1.765-1.678-2.36a16 16 0 0 0-2.169-1.77c-.647-.419-1.807-1.005-2.577-1.301s-1.99-.666-2.71-.818c-.722-.151-2.004-.309-2.848-.35m-165.245 13.744c-.456-.085-.711-.038-.91.164-.245.251-.245.28 0 .282.153.002.704.205 1.226.453.522.247 1.341.836 1.822 1.308s1.1 1.308 1.376 1.854c.275.547.553 1.375.618 1.841.094.696.159.81.364.633.171-.15.224-.517.172-1.209-.04-.546-.27-1.401-.51-1.898-.239-.497-.846-1.302-1.347-1.786-.502-.486-1.199-1.027-1.546-1.203a5.7 5.7 0 0 0-1.265-.439m105.397-.09c-.047.003-.358.145-.689.31-.513.261-.547.313-.226.354.318.044.376.178.376.865 0 .448-.081.813-.18.813-.1 0-.243-.246-.317-.546s-.197-.543-.27-.542c-.075.002-.134.147-.133.32.003.174.165.662.362 1.084.197.424.703 1.111 1.126 1.529s1.215.961 1.763 1.209c.58.262 1.347.455 1.838.46.664.01.946-.084 1.315-.44.26-.247.47-.595.466-.768-.002-.197-.192-.357-.5-.422a14 14 0 0 1-1.04-.278c-.299-.096-.868-.362-1.266-.591-.398-.232-1.023-.776-1.389-1.213s-.775-1.101-.907-1.474c-.133-.372-.28-.674-.329-.67m-104.609-1.089c-.212-.001-.477.12-.587.268-.166.226-.055.317.657.549.472.153 1.286.603 1.809.995.533.403 1.267 1.211 1.677 1.846.427.66.821 1.556.95 2.155.121.563.281.991.355.948.074-.042.138-.502.14-1.024.003-.523-.111-1.233-.253-1.582-.141-.348-.57-1.054-.953-1.57-.384-.515-.982-1.155-1.33-1.42a9 9 0 0 0-1.355-.822c-.398-.186-.897-.339-1.11-.343m1.006-.906c-.257 0-.523.06-.59.134s.427.39 1.099.703c.88.409 1.499.87 2.216 1.65.546.597 1.19 1.482 1.431 1.964.238.485.482 1.181.542 1.548.086.546.152.63.352.452.181-.157.214-.458.123-1.119-.067-.497-.341-1.306-.607-1.798s-.892-1.298-1.389-1.795c-.497-.495-1.31-1.087-1.807-1.319-.497-.23-1.113-.418-1.37-.42m70.133-8.455c-.133-.023-.814.27-1.509.652-.697.386-2.282 1.305-3.526 2.048-1.78 1.063-2.272 1.441-2.319 1.788-.035.24.398 1.619.96 3.06a303 303 0 0 0 1.824 4.564c.441 1.07.862 1.946.937 1.948.078 0 1.276-.661 2.666-1.472 1.392-.812 2.98-1.771 3.526-2.133.884-.585.987-.718.931-1.195-.037-.295-.373-1.595-.748-2.888-.377-1.293-1.093-3.245-1.592-4.339-.499-1.093-1.017-2.007-1.15-2.033m-68.706 7.495c-.405-.06-.793-.007-.994.136-.298.213-.271.244.304.34.349.06 1.157.455 1.797.882.64.426 1.468 1.182 1.841 1.68.374.496.843 1.27 1.047 1.717s.371 1.037.373 1.31.086.498.185.498.222-.121.27-.27c.051-.15.093-.537.095-.86.002-.324-.235-1.076-.526-1.672-.291-.597-.883-1.455-1.315-1.907-.43-.452-1.15-1.033-1.598-1.29-.447-.256-1.112-.51-1.479-.564m103.187.969c-.373.282-.494.523-.48.951.011.316.178.9.368 1.298.191.398.759 1.11 1.263 1.582s1.263 1.02 1.684 1.217c.423.197 1.174.363 1.672.369.614.007 1.03-.092 1.301-.313.217-.177.422-.48.453-.672.043-.275-.093-.382-.624-.498-.373-.08-1.063-.343-1.537-.582-.472-.236-1.257-.786-1.743-1.22-.488-.432-1.104-1.173-1.372-1.649l-.486-.861zm-101.709-2.131c-.557-.061-.882-.012-1.032.157-.178.2-.046.32.724.649.519.22 1.419.832 2.001 1.356a6.8 6.8 0 0 1 1.676 2.218c.342.696.667 1.551.726 1.898.077.474.144.564.261.362.089-.149.161-.577.163-.948.002-.373-.079-.903-.18-1.176s-.143-.535-.095-.587c.051-.049.166.114.257.361.092.25.273.696.401.994l.235.542c.089-.968-.081-1.54-.43-2.214a10 10 0 0 0-1.356-1.898c-.45-.472-1.204-1.03-1.677-1.24-.472-.212-1.226-.423-1.674-.474m103.427-.049c-.11 0-.301.206-.422.457-.181.369-.175.608.027 1.221.157.483.622 1.131 1.266 1.77.569.564 1.47 1.218 2.053 1.49.584.272 1.358.486 1.763.486.398 0 .765-.082.814-.182s-.337-.296-.859-.438c-.52-.141-1.372-.568-1.888-.95-.517-.379-1.274-1.137-1.681-1.685-.409-.548-.772-1.258-.808-1.582-.038-.323-.157-.586-.266-.587m-102.229-1.085c-.49 0-.889.107-1.039.279-.215.244-.185.278.249.271.275-.003.721.09.994.209.275.12.973.548 1.555.95s1.246.976 1.473 1.275c.23.298.628.99.884 1.536.259.547.467 1.198.463 1.446-.005.41.022.427.295.18.215-.194.277-.473.221-.993-.044-.398-.273-1.13-.51-1.627s-.801-1.3-1.253-1.783c-.452-.484-1.208-1.074-1.682-1.311-.513-.259-1.175-.432-1.65-.432m104.295-.54c-.1.005-.403.21-.678.455-.316.286-.496.627-.494.944.004.273.156.823.342 1.22.184.398.69 1.063 1.126 1.477.434.416 1.195.966 1.692 1.227.646.334 1.178.467 1.854.463.705-.002 1.043-.097 1.31-.365.199-.199.362-.483.362-.633 0-.236-.04-.233-.317.012-.22.199-.37.225-.497.09q-.18-.192.049-.418c.126-.125.228-.287.227-.361-.003-.075-.227-.175-.501-.224-.273-.049-.986-.4-1.582-.78s-1.32-.97-1.608-1.312a7.4 7.4 0 0 1-.813-1.214c-.16-.324-.373-.586-.472-.582m-103.232-.72a1.9 1.9 0 0 0-.708.19c-.19.101-.333.262-.317.356.019.094.235.172.483.172.249 0 .911.224 1.471.497.591.288 1.411.915 1.951 1.492.581.62 1.083 1.387 1.33 2.034.221.57.4 1.2.4 1.4s.102.335.226.303c.129-.033.248-.408.275-.86.034-.545-.087-1.084-.378-1.703-.237-.497-.828-1.345-1.315-1.883-.574-.633-1.27-1.159-1.971-1.49-.596-.282-1.247-.509-1.447-.508m2.32-6.604c-.399-.083-.607-.047-.678.12-.054.133-.306.83-.556 1.55-.426 1.236-.435 1.345-.169 1.898l.284.588c.612-.594.972-.858 1.196-.97.224-.113.713-.205 1.085-.206.372 0 1.085.196 1.582.44s1.364.917 1.926 1.494c.56.578 1.232 1.498 1.491 2.044.26.548.525 1.443.588 1.99.106.928.075 1.039-.454 1.671-.313.374-.528.76-.478.86.049.099.478.303.949.455.472.15.941.274 1.04.276.1 0 .417-.427.706-.95.455-.832.508-1.075.403-1.86-.083-.622-.494-1.58-1.318-3.075-.66-1.193-1.574-2.56-2.033-3.042-.457-.48-1.319-1.12-1.916-1.423a40 40 0 0 1-2.079-1.144c-.547-.33-1.253-.65-1.569-.716m-1.091 5.692c-.416 0-.798.064-.851.138-.05.074.372.313.94.53s1.439.756 1.936 1.2c.498.443 1.19 1.284 1.538 1.866.347.582.764 1.467.928 1.964.246.743.322.84.434.542.074-.2.084-.87.02-1.492-.065-.62-.177-1.125-.253-1.127-.074.001-.27-.223-.432-.498-.165-.274-.631-.844-1.039-1.267a10.4 10.4 0 0 0-1.603-1.313c-.607-.386-1.081-.544-1.618-.543m250.432-3.644c-.298-.049-.721-.056-.94-.018-.218.036-.544.235-.723.44-.224.255-.326.663-.326 1.308 0 .727.16 1.26.712 2.376.526 1.067 1.064 1.79 2.08 2.804.981.982 1.75 1.556 2.723 2.04.936.462 1.594.67 2.124.666.423-.002.902-.065 1.065-.14.164-.075.416-.38.56-.678.179-.369.222-.773.136-1.266-.07-.398-.302-1.113-.514-1.59-.212-.473-.427-.855-.478-.85-.05.007-.437.335-.86.73-.42.393-.85.716-.949.716-.1 0-.485-.126-.858-.28s-.993-.58-1.378-.948-.85-.996-1.034-1.394c-.187-.398-.34-.925-.343-1.175-.006-.28.229-.69.62-1.085.348-.347.592-.693.547-.769-.048-.074-.43-.283-.853-.467-.421-.183-1.013-.371-1.311-.42m-248.181 1.66c-.222.002-.508.063-.631.136-.14.083.158.3.809.584.567.25 1.401.786 1.851 1.194.45.409 1.05 1.06 1.334 1.446.316.432.473.826.407 1.02-.06.175-.169.32-.245.322-.074.003-.236-.201-.361-.452-.123-.251-.571-.832-.994-1.291-.421-.46-1.094-1.027-1.491-1.262-.398-.235-1.008-.508-1.357-.607-.347-.1-.814-.143-1.039-.094-.222.047-.409.147-.411.22-.001.077.243.197.543.271.3.076.975.41 1.495.74.523.333 1.255.942 1.627 1.356.374.414.922 1.282 1.221 1.928.298.646.542 1.337.542 1.536 0 .202.101.334.225.3.148-.04.229-.433.231-1.13.003-.87.061-1.075.315-1.113.233-.033.343.128.426.632.099.6.133.636.292.317.099-.2.131-.606.067-.905-.061-.298-.32-.988-.573-1.536-.253-.546-.842-1.387-1.308-1.868-.469-.48-1.236-1.07-1.709-1.31-.472-.24-1.042-.436-1.266-.434M-84.07-35.01c-.175.237-.289.715-.278 1.174.009.425.17 1.078.358 1.45.187.374.695 1.03 1.13 1.46.434.432 1.236.996 1.782 1.257.557.265 1.327.477 1.748.482.57.008.868-.1 1.217-.442.253-.248.423-.512.376-.588-.048-.075-.553-.378-1.126-.674-.571-.296-1.522-.97-2.111-1.492a22 22 0 0 1-1.935-1.99l-.864-1.038zm-91.917 4.882c-.331-.206-.362-.18-.364.318-.004.499.028.525.36.318.198-.125.361-.267.364-.318.001-.05-.161-.194-.36-.318m91.849-8.631c-.007.454.197 1.163.548 1.898.305.648.953 1.664 1.437 2.26.485.597 1.433 1.504 2.108 2.016.676.51 1.636 1.131 2.133 1.379.498.25 1.351.584 1.899.745.546.16 1.44.286 1.988.275l.994-.02c-2.382-.501-3.561-.864-4.158-1.132s-1.573-.835-2.169-1.262c-.596-.426-1.533-1.261-2.079-1.856-.548-.595-1.257-1.521-1.577-2.06-.318-.537-.7-1.425-.846-1.973l-.266-.994zm-92.114-.955c-.024-.027-.442.268-.928.653-.49.387-1.105.898-1.367 1.137-.416.376-.467.537-.391 1.244.047.448.292 1.22.543 1.717s.844 1.555 1.317 2.35c.474.796 1.054 1.584 1.291 1.75.418.297.454.282 1.566-.632.627-.515 1.135-1.018 1.128-1.117-.006-.101-.223-.995-.485-1.989-.39-1.488-.665-2.094-1.552-3.435-.595-.895-1.1-1.65-1.122-1.678m96.17-3.464c-.596.004-1.366.107-1.713.231-.346.123-.834.493-1.085.818-.39.508-.456.78-.456 1.901 0 1.143.085 1.483.678 2.7.516 1.059 1.035 1.748 2.17 2.883.821.821 1.94 1.756 2.486 2.076.545.322 1.482.761 2.079.978.728.266 1.532.401 2.441.41 1.048.013 1.497-.064 1.976-.345.341-.198.79-.647.994-.994.267-.452.374-.948.374-1.73 0-.935-.12-1.338-.8-2.712-.628-1.267-1.093-1.906-2.172-2.97-.911-.901-1.826-1.595-2.725-2.065-.744-.39-1.76-.815-2.257-.947-.497-.13-1.393-.236-1.99-.234M67.806-37.98l-2.839 2.838c.3.998.767 1.629 1.293 2.124.528.495 1.084.86 1.32.861.289.002 1.186-.81 3.119-2.819 2.14-2.226 2.653-2.855 2.44-2.982-.15-.089-.312-.159-.361-.157-.05.001-.41-.306-.801-.682-.39-.376-.85-.984-1.022-1.353l-.311-.667zm-153.105 4.556c-.134 0-.392.149-.575.331-.182.18-.316.384-.298.451s.276 0 .575-.15c.298-.148.542-.352.542-.451s-.11-.181-.244-.181m-47.166-9.034c-.026.003-1.266.638-2.757 1.414-1.491.773-3.265 1.725-3.942 2.118-.96.553-1.178.756-.994.911.129.112 1.374.812 2.766 1.559s3.201 1.692 4.022 2.104c.821.41 1.614.747 1.763.747s1.838-.931 3.752-2.07a1272 1272 0 0 1 3.751-2.228c.2-.117-.268-.441-1.808-1.254a244 244 0 0 0-4.294-2.202c-1.214-.605-2.228-1.1-2.259-1.1m-49.808-.716c-.293.007-.942.343-1.582.82-.596.444-1.165.881-1.266.971-.117.105-.045.371.206.762.243.374.885.87 1.718 1.321.732.398 1.656.861 2.054 1.03s.865.31 1.039.316c.174.005.669-.254 1.1-.578a30 30 0 0 0 1.446-1.174c.365-.324.662-.65.66-.724-.002-.075-.713-.598-1.582-1.16-.868-.563-1.966-1.152-2.438-1.31-.471-.159-1.082-.281-1.355-.274m254.129 2.789c-.287-.496-.522-.782-.524-.633-.004.148.225.637.51 1.085.303.48.823.98 1.268 1.22.413.224.749.346.747.272s-.337-.34-.743-.587c-.445-.273-.944-.811-1.258-1.357m.85-2.08c-.137.001-.361.13-.497.287-.198.231-.203.409-.026.95.12.364.486.932.814 1.261.453.455.766.606 1.317.633.703.032.726.018.774-.599.036-.43-.085-.835-.375-1.265-.233-.35-.724-.776-1.09-.95-.365-.173-.777-.316-.916-.316"/></g></svg>