<svg xmlns="http://www.w3.org/2000/svg" fill="none" viewBox="0 0 32 32"><mask id="a" width="32" height="32" x="0" y="0" maskUnits="userSpaceOnUse" style="mask-type:alpha"><path fill="#d9d9d9" d="M0 0h32v32H0z"/></mask><g mask="url(#a)"><path fill="#e31e24" d="M11.56 5.359c.52-.09 2.17-.125 3.661-.075s3.2.21 3.797.356c.596.146 1.482.484 1.97.754.487.267 1.241.792 2.46 1.842l-.008-1.04c-.004-.834.07-1.11.383-1.4.33-.309.637-.362 2.078-.362 1.38 0 1.75.06 2.013.322.271.271.317.59.276 1.988-.026.917-.13 1.748-.229 1.848a.66.66 0 0 0-.178.407c.002.148.358.24 2.082.317l.04 5.876c.033 4.44-.013 5.93-.181 6.108-.123.13-.602.231-1.08.226-.472-.004-.899.074-.948.173-.051.1.034.283.188.408.222.179.278.627.27 2.169-.007 1.905-.017 1.95-.503 2.31-.396.293-.767.368-1.808.362-1.211-.005-1.353-.047-1.854-.547-.47-.468-.53-.64-.452-1.266.05-.398.05-.724 0-.724-.052.002-.6.41-1.22.909-.621.498-1.699 1.144-2.395 1.433s-1.796.613-2.441.718c-.648.107-2.112.191-3.254.191-1.244-.002-2.553-.114-3.254-.282-.647-.154-1.705-.557-2.35-.896a13.4 13.4 0 0 1-2.17-1.493c-.548-.48-1.37-1.438-1.83-2.128s-1.04-1.784-1.296-2.43c-.253-.646-.55-1.663-.658-2.259a15 15 0 0 1-.195-2.215c0-.622.13-1.76.289-2.53.157-.77.551-1.971.875-2.667.325-.696.96-1.754 1.412-2.35S6.187 8.074 6.57 7.767a19 19 0 0 1 1.465-1.04 13 13 0 0 1 1.673-.842 11.3 11.3 0 0 1 1.853-.527m10.43 16.713c-.247-.227-.342-.139-.806.772-.317.622-1.101 1.605-1.98 2.482-.808.808-1.937 1.716-2.539 2.047q-1.082.593-.542.463c.299-.07.868-.188 1.266-.26.397-.073.58-.141.407-.154-.175-.013-.277-.104-.226-.203.05-.1.557-.179 1.13-.179.6.002 1.191-.103 1.4-.25.335-.233.306-.249-.36-.227-.398.012-.746-.058-.773-.158-.026-.099.3-.204.724-.233.429-.028.73.018.846.129l.079.104c.11.092.357-.02.864-.38.434-.31 1.054-.86 1.378-1.221.321-.362.583-.841.58-1.066-.002-.224.16-.569.358-.767.2-.199.325-.423.279-.497-.05-.074-.474-.138-.946-.142-.484-.002-.98-.115-1.139-.26M12.735 6.085c-.523.01-1.275.094-1.673.19-.398.094-1.253.43-1.898.748-.685.338-1.703 1.081-2.441 1.78-.895.849-1.488 1.617-2.02 2.622-.415.78-.897 1.95-1.073 2.597q-.318 1.173-.311 3.073c.005 1.502.1 2.18.445 3.254.242.744.813 1.965 1.269 2.712.457.744 1.267 1.744 1.802 2.221s1.583 1.177 2.33 1.557c.923.47 1.727.734 2.53.83.645.076 1.419.083 1.717.015.541-.123.539-.125-.452-.578-.547-.25-1.43-.795-1.963-1.21-.533-.416-1.278-1.162-1.658-1.66-.38-.497-.974-1.474-1.321-2.17-.347-.695-.76-1.854-.92-2.576-.156-.721-.284-1.86-.282-2.53.002-.672.123-1.79.267-2.486s.633-2.019 1.081-2.939c.622-1.27 1.112-1.966 2.04-2.9.723-.726 1.68-1.462 2.35-1.808.618-.319 1.127-.62 1.13-.67-.002-.05-.43-.083-.95-.072m2.667.623c-.317-.056-.883.039-1.357.227-.448.179-1.296.645-1.888 1.037-.589.394-1.362 1.063-1.716 1.488-.355.425-.95 1.278-1.323 1.899-.372.618-.855 1.777-1.072 2.572-.285 1.045-.392 1.924-.38 3.164.01 1.318.12 2.054.475 3.164.255.795.779 1.935 1.164 2.531s1.224 1.575 1.862 2.173c.85.799 1.535 1.245 2.562 1.672l1.401.584c1.784-.928 2.795-1.705 3.536-2.44.899-.892 1.477-1.667 1.952-2.622.564-1.131.711-1.676.894-3.285l.217-1.93c-.853-.644-1.047-1.01-1.175-1.655-.1-.497-.18-1.392-.18-1.989s.1-1.285.225-1.53c.199-.393.164-.533-.304-1.22-.291-.427-.942-1.182-1.446-1.68-.505-.498-1.365-1.165-1.911-1.483-.548-.318-1.238-.622-1.536-.677m12.022 16.896c-2.335 0-3.082.054-3.164.119-.083.067-.137.718-.121 1.446.025 1.131.076 1.327.347 1.327.274 0 .31-.163.271-1.265-.038-1.025.006-1.266.226-1.266.218 0 .262.24.226 1.266l-.045 1.265h2.26zm-6.778 1.627c.562 0 .795.07.754.226-.034.125-.397.245-.814.27-.569.035-.754-.02-.754-.225 0-.2.212-.271.814-.271m1.32-.649c.13.01.233.097.23.197-.006.099-.417.2-.915.226-.513.025-.906-.033-.907-.136 0-.1.307-.207.679-.242.372-.034.783-.054.912-.045m.668-.891c.1.018.182.148.182.289 0 .186-.24.256-.86.256-.47 0-.86-.08-.864-.18s.303-.23.679-.29c.375-.059.763-.093.863-.075m.11-.992c.505 0 .705.077.705.272 0 .206-.23.273-.95.278-.842.007-.922-.024-.704-.271.143-.161.543-.279.95-.279m3.211-.325c-.544-.029-1.058.006-1.145.076s-.145.197-.13.279c.019.083.56.151 1.207.151.85 0 1.158-.063 1.115-.226-.036-.137-.449-.247-1.047-.28m3.277-11.245c-5.75 0-6.708.061-6.862.226-.117.124-.171.47-.119.768.05.299.226 1.112.389 1.808.211.906.271 1.752.206 2.983-.05.944-.224 2.205-.387 2.802-.162.596-.251 1.268-.197 1.492.098.403.123.406 3.535.406h3.435zm-5.345.237c.13.044.193 1.67.193 5.019 0 4.579-.023 4.957-.316 5.002-.294.043-.318-.303-.347-4.894-.016-2.717.04-4.996.125-5.066a.41.41 0 0 1 .345-.06m-2.592.927c-.09-.055-.165.371-.167.95-.002.576.09 1.415.208 1.862.148.569.319.833.573.883.337.067.352.013.216-.811-.08-.486-.262-1.31-.407-1.833-.143-.522-.334-.994-.423-1.05m-4.99-6.148c.199.159.42.286.497.285.074-.002.522.259.995.577.472.32 1.25.95 1.732 1.4.48.452 1.126 1.23 1.435 1.727l.622.995c.033.048.181-.095.327-.316.212-.324.436-.408 1.081-.408.447 0 .854-.08.905-.18.047-.1-.48-.751-1.176-1.447-.696-.695-1.347-1.265-1.446-1.265-.1 0-.14.081-.09.18.049.1-.094.23-.317.29-.224.06-.672.06-.994 0-.323-.06-.588-.19-.588-.29.002-.099.386-.177.859-.173.773.007.832-.02.588-.275-.187-.191-.67-.294-1.523-.323-.818-.027-1.272-.121-1.31-.268-.036-.137.137-.236.437-.254.273-.015.009-.082-.588-.149-.596-.067-1.247-.185-1.446-.259l-.361-.137zm9.48 3.538c-1.22 0-1.266.016-1.083.361.162.305.349.354 1.229.316.827-.036 1.046-.108 1.084-.36.04-.277-.118-.317-1.23-.317M22.25 9.54c.512.03.932.15.979.279.057.162-.202.225-.936.225-.558 0-1.053-.062-1.102-.136-.047-.074-.03-.2.038-.278.069-.08.528-.12 1.021-.09m5.173-3.293c-2.333 0-3.081.054-3.164.12s-.137.678-.121 1.356c.016.679.09 1.27.166 1.314.074.044.217.023.316-.046.1-.067.181-.631.181-1.253 0-.633.08-1.128.18-1.127.102 0 .182.514.182 1.175V8.96h2.26zm-6.077 2.208c.512.03.931.15.979.279.057.162-.201.225-.935.225-.558 0-1.055-.06-1.104-.135-.047-.074-.03-.201.038-.279.07-.08.529-.12 1.022-.09m5.536-2.026c.101 0 .18.482.18 1.084s-.079 1.085-.18 1.085-.18-.484-.18-1.085c0-.602.079-1.084.18-1.084m-8.09-51.888c.174 0 .724.204 2.124.905v10.485l.542.271c.299.148.695.577.881.95.3.6.607.806 2.666 1.793 1.282.615 2.716 1.285 4.047 1.868v2.712l-.768.622a672 672 0 0 0-3.57 2.94 4940 4940 0 0 0-7.097 5.888c-2.362 1.961-4.437 3.568-4.61 3.572-.177.002-2.069-.988-4.204-2.2l-6.327-3.591.02-12.798 3.74-3.162c2.059-1.74 5.653-4.758 7.99-6.709 2.336-1.949 4.392-3.546 4.566-3.546m9.49 17.362c-.027.006-.656.519-1.402 1.144-.745.626-3.104 2.584-5.242 4.352s-4.882 4.039-6.097 5.047c-2.037 1.69-2.21 1.884-2.223 2.466-.011.586.01.613.303.362.176-.15 2.517-2.104 5.205-4.341a1900 1900 0 0 1 7.203-5.966c2.111-1.73 2.313-1.947 2.305-2.484-.003-.322-.027-.584-.052-.58M7.626-18.282c-.1-.018-.405.063-.678.18-.484.209-.428.252 2.35 1.84 1.565.895 2.949 1.648 3.074 1.673.143.029.224-.168.222-.542-.004-.569-.082-.63-2.395-1.853-1.316-.696-2.473-1.28-2.573-1.298m15.096-12.89c-.05.01-.342.275-.646.592-.306.318-.788.782-1.07 1.03-.282.249-.804.68-1.16.957-.358.277-.893.709-1.191.958l-2.712 2.256c-1.194.993-2.535 2.121-2.984 2.508-.446.389-1.22 1.042-1.717 1.452a87 87 0 0 0-1.56 1.325 13 13 0 0 1-1.085.863c-.427.283-.419.291 1.2 1.157.894.479 1.95 1.06 2.349 1.294l.723.423c4.064-3.397 6.497-5.41 8.028-6.664 1.531-1.255 3.747-3.073 4.926-4.044l2.142-1.763a1321 1321 0 0 0-3.706-1.7c-.795-.363-1.486-.652-1.537-.645m97.629-14.181a6.2 6.2 0 0 1 2.125-.194c.621.05 1.331.17 1.581.269.247.1.514.306.588.458.099.2-.395.805-1.812 2.215-1.811 1.803-1.938 1.976-1.826 2.48.065.298.186.705.266.904.081.198.293.546.47.772.192.238.736.52 2.314.938l1.898-1.909c1.327-1.332 2.004-1.889 2.248-1.847.249.042.421.32.596.96.145.534.215 1.424.17 2.17a6.5 6.5 0 0 1-.595 2.42 6.2 6.2 0 0 1-1.469 2.034c-.523.484-1.336 1.06-1.808 1.278-.671.313-1.273.412-4.655.522l-2.351 2.647-3.892 4.375c-.848.953-2.683 3.071-4.081 4.713-1.994 2.343-2.701 3.052-3.294 3.3-.415.173-.937.316-1.162.314-.224 0-.712-.081-1.085-.18-.372-.098-.936-.404-1.251-.677-.316-.273-.721-.823-.9-1.22a4.5 4.5 0 0 1-.326-1.537c0-.449.142-1.114.313-1.48.172-.37 2.434-2.972 5.026-5.786 2.592-2.815 5.44-5.92 6.328-6.9.887-.977 1.679-1.953 1.759-2.168.081-.214.065-.837-.036-1.383a6.8 6.8 0 0 1-.033-1.99c.082-.545.306-1.359.497-1.807.19-.448.709-1.206 1.152-1.687.443-.48 1.13-1.065 1.528-1.298s1.169-.55 1.717-.706m104.046.57c.199-.051.605-.053.903-.001.298.05.787.213 1.085.361s.814.526 1.147.837c.33.313.771.893.975 1.291.206.398.382 1.065.391 1.483.014.636-.087.871-.631 1.446-.638.674-.647.7-.421 1.41.126.398.237 1.008.246 1.357.014.496-.12.768-.622 1.265-.351.347-.636.795-.631.994.003.221-.58.94-2.985 3.309l-1.536.146c-1.448.138-1.572.183-2.123.787-.322.351-.585.72-.586.82 0 .1-.658.832-1.46 1.628-.803.795-2.859 2.935-4.568 4.756-3.058 3.26-3.116 3.31-3.789 3.254-.649-.052-.751.018-3.516 3.017l-.973-.013c-.537-.007-1.239-.147-1.563-.315-.323-.166-.934-.65-1.359-1.072s-.963-1.176-1.196-1.673c-.318-.68-.405-1.137-.357-1.848.064-.914.113-.99 1.646-2.531 1.336-1.341 1.582-1.678 1.582-2.175.002-.519.489-1.097 4.195-4.971 2.307-2.412 4.748-4.914 6.654-6.735l.002-2.35 1.67-1.672c1.228-1.23 1.79-1.671 2.124-1.67.248.003.778-.238 1.175-.536.398-.299.845-.546.995-.551.149-.005.66.195 1.989.903l.588-.428c.323-.236.75-.471.949-.522m-57.323.5.216.813c.118.449.257 1.017.311 1.266.079.376.286.506 2.377 1.097l.874-.819c.478-.45.965-.816 1.084-.815.116.004.924.533 1.794 1.175.868.643 1.58 1.23 1.582 1.305-.001.076-.215.626-.951 2.305l1.222 1.935 1.311-.109c1.133-.094 1.332-.064 1.473.208.089.175.363 1.05.611 1.944.435 1.58.439 1.645.132 2.26-.232.464-.56.741-1.242 1.04-.894.392-.929.432-.929 1.13 0 .686.053.755 1.083 1.4.649.406 1.084.805 1.085.995.001.174-.19.825-.425 1.446a29 29 0 0 1-.995 2.26c-.374.744-.676 1.128-.884 1.126-.174-.002-.805-.127-1.401-.276-.971-.246-1.126-.244-1.492.003-.223.152-.407.378-.408.502-.002.125.123.592.275 1.04.235.69.242.924.042 1.537-.223.681-.35.777-4.203 2.65l-.417-.421a9 9 0 0 1-.814-1.007c-.378-.56-.45-.587-2.746-.597l-.542 1.09c-.298.6-.624 1.124-.724 1.163-.102.037-1.077-.218-2.169-.566-1.093-.35-2.097-.729-2.229-.84-.164-.144-.204-.433-.124-.93.061-.397.151-.928.198-1.175.072-.378-.07-.566-1.822-1.864l-1.266.404c-.695.222-1.366.355-1.491.3-.125-.059-.714-.858-1.313-1.778-.596-.92-1.084-1.793-1.083-1.943s.125-.597.275-.994c.164-.432.492-.85.813-1.04.499-.293.532-.373.427-1.085-.06-.423-.13-.81-.155-.859-.027-.05-.558-.294-1.179-.542s-1.177-.533-1.234-.633-.085-.547-.064-.995.139-1.538.262-2.423c.174-1.262.3-1.66.584-1.84.201-.126.883-.223 1.537-.216 1.079.009 1.187-.024 1.33-.421.121-.338.034-.628-.399-1.336-.486-.792-.541-1.004-.427-1.707.116-.72.277-.927 1.575-2.039.795-.68 1.547-1.234 1.672-1.232.125.004.673.331 1.221.73.752.545 1.115.7 1.491.637.273-.047.584-.19.69-.317.109-.127.301-.596.427-1.045.127-.448.344-1.08.482-1.406l.251-.593zm-95.477.157c.342-.15.867-.212 1.297-.154.397.054 1.169.32 1.717.59.587.29 1.547 1.045 2.35 1.847.745.745 1.538 1.72 1.76 2.17.223.447.458 1.096.525 1.446.07.372.03.857-.102 1.175-.123.299-.583.848-1.022 1.22-.573.486-.965.676-1.386.673-.324-.004-1.037-.165-1.582-.357-.548-.19-1.055-.351-1.13-.355-.076-.002-1.99 2.172-4.254 4.83-2.266 2.66-5.39 6.342-9.767 11.526l-2.368 1.311c-1.303.721-2.45 1.269-2.55 1.22-.099-.05-.18-.212-.18-.361 0-.152.46-1.433 2.04-5.424l2.379-2.802c1.309-1.54 4.05-4.795 6.09-7.233 2.043-2.436 4.073-4.877 5.31-6.417l-.349-.723a5.2 5.2 0 0 1-.422-1.537c-.061-.689.017-.935.5-1.604.314-.435.83-.903 1.144-1.04M202.86-23.415c-1.235 1.249-1.398 1.488-1.366 2.024.02.335.183.934.362 1.332.179.397.624 1.029.991 1.401.365.374.889.789 1.162.927.273.137.783.307 1.13.378.606.123.68.075 1.781-1.109l1.15-1.236c-1.081-.309-1.638-.522-1.936-.674s-.848-.611-1.221-1.021c-.372-.408-.676-.846-.674-.971.002-.123.21-.43.461-.679l.459-.452-.896-1.338zM122.067-44.73c-.832.009-1.608.146-2.26.4-.629.243-1.336.722-1.92 1.3-.651.643-1.047 1.24-1.331 2-.354.955-.388 1.292-.285 2.803.068.985.043 1.91-.056 2.17-.096.25-.894 1.227-1.772 2.176-.879.948-3.224 3.509-5.212 5.693a556 556 0 0 1-4.904 5.326c-1.068 1.126-1.311 1.497-1.425 2.172-.114.672-.063.967.293 1.695.238.484.675 1.03.973 1.215.311.19.89.335 1.357.339.473.002 1.016-.13 1.299-.312.269-.174 1.854-1.894 3.526-3.821 1.67-1.929 3.404-3.934 3.852-4.455.447-.523 1.892-2.179 3.209-3.68 1.318-1.503 2.579-2.788 2.803-2.856.225-.067 1.179-.132 2.124-.145 1.468-.018 1.848-.088 2.621-.487.497-.259 1.277-.865 1.731-1.348.518-.551.956-1.25 1.172-1.874.213-.61.346-1.494.348-2.289.002-.712-.06-1.363-.137-1.446-.079-.082-.934.642-1.899 1.61-1.312 1.314-1.871 1.76-2.209 1.75-.249-.005-.868-.146-1.374-.314-.587-.194-1.123-.536-1.472-.939-.3-.347-.637-.958-.748-1.355-.11-.398-.201-.906-.203-1.13.001-.27.577-.999 1.716-2.17.945-.969 1.656-1.825 1.582-1.903-.075-.076-.704-.134-1.399-.125m38.929 25.663c-.065.002-.167.125-.225.275-.058.148-.045.305.03.347.074.041.827.29 1.673.555 1.227.383 1.562.43 1.669.24.072-.131.135-.28.139-.328.003-.052-.707-.318-1.579-.592-.873-.275-1.64-.497-1.707-.497M263.628-43.45c.696-.013 1.956.096 2.802.244.844.147 2.107.465 2.803.705.696.242 2.16.84 3.254 1.332 1.093.49 2.211.948 2.486 1.013.273.067.826.427 1.23.799.403.372.87 1.044 1.04 1.492.217.577.302 1.338.293 2.621-.01 1.294-.129 2.218-.421 3.254-.225.795-.787 2.18-1.25 3.074-.578 1.119-1.211 2.001-2.021 2.827-.949.967-1.37 1.26-2.171 1.502-.754.228-1.148.259-1.627.123-.349-.097-1.326-.484-2.17-.862-1.231-.55-1.753-.684-2.621-.683-.75.002-1.307.12-1.807.383-.398.21-.899.572-1.111.805-.213.233-.651.952-.974 1.6-.322.645-.805 1.5-1.073 1.898-.265.398-.579.967-.695 1.265-.116.299-.436.761-.711 1.03a4.5 4.5 0 0 1-1.177.77 4.6 4.6 0 0 1-1.446.278c-.423-.002-1.176-.113-1.673-.244-.497-.133-1.434-.503-2.079-.825a15.5 15.5 0 0 1-2.151-1.338 14 14 0 0 1-1.742-1.659 17 17 0 0 1-1.313-1.808 10 10 0 0 1-.857-1.989c-.206-.726-.269-1.352-.19-1.898.067-.465.475-1.434.952-2.26.461-.795 1.035-1.976 1.279-2.622.242-.647.647-1.582.9-2.079s.804-1.392 1.226-1.988c.423-.597 1.376-1.655 2.119-2.35.744-.697 1.993-1.643 2.778-2.106a21 21 0 0 1 3.011-1.402c.869-.309 2.09-.633 2.712-.72.62-.086 1.699-.168 2.395-.182m-91.03 24.226c-.15.001-.756.212-1.347.466-.592.255-1.059.533-1.04.62.02.087.096.154.172.15.074-.005.664-.285 1.311-.623.645-.34 1.052-.615.904-.613m-4.167-1.432c-.045.018-.534.063-1.085.1-.622.041-1.119.182-1.313.373-.171.168-.311.366-.309.442.003.074.594.131 1.314.128l1.311-.007c.84 1.142 1.144 1.471 1.221 1.468.074-.006.176-.13.226-.278.049-.151-.219-.72-.597-1.266-.377-.547-.724-.978-.768-.96M20.507-33.341c-.224.004-.538.09-.7.196-.16.105-.382.387-.496.628-.116.247-.36.437-.567.437-.198 0-.357.101-.353.226.004.124.146.33.316.456.25.184.215.184-.177 0-.414-.195-.556-.184-.95.086-.254.173-.462.398-.463.498 0 .099.082.22.181.27.1.049.182.172.182.272 0 .103-.215.133-.498.07-.374-.083-.633.004-1.04.348l-.541.459c.769.3 1.033.47 1.084.569.048.1-.188.038-.528-.136-.596-.303-.64-.303-1.13.032-.289.196-.414.373-.286.406.125.032.227.121.227.195s-.237.136-.529.136c-.318 0-.712.18-.992.452l-.464.452c1.116.91 1.441 1.256 1.442 1.356 0 .099-.264-.02-.587-.266-.324-.246-.833-.452-1.13-.459-.305-.005-.778.172-1.078.401l-.533.414c.662.14.903.298.962.44.086.214-.026.238-.617.132-.526-.096-.835-.056-1.13.146-.365.248-.38.31-.141.593.148.173.27.378.271.452.003.074-.239.053-.537-.046-.432-.144-.633-.115-.989.136-.245.173-.448.378-.452.452s.177.306.401.512c.37.343.375.365.046.248a9 9 0 0 0-.723-.216c-.2-.049-.545.002-.769.114-.224.11-.448.384-.499.608-.05.213-.235.41-.479.515l-.216.078c-.264.106-.6.316-.8.504a1.33 1.33 0 0 0-.406.982c.003.323.087.75.186.949.1.199.425.443.723.542q.542.18.994 0c.248-.1.676-.466.95-.813.272-.35.618-.63.768-.627.148.003.412-.14.582-.317.171-.177.314-.423.316-.548.004-.124.29-.349.639-.497.347-.15.722-.454.83-.678.111-.225.15-.611.088-.859l-.114-.452.708.904c.728-.7.974-1.026 1.018-1.175.042-.15.324-.333.626-.407.33-.081.676-.35.866-.675.174-.299.46-.543.633-.544.174-.002.504-.226.734-.498.23-.273.576-.584.768-.693.194-.107.494-.452.667-.768.173-.315.357-.491.407-.392q.091.18.452 0c.2-.1.443-.385.542-.633.109-.27.326-.452.542-.452.2 0 .525-.204.724-.452.199-.25.401-.452.452-.452s.254-.205.452-.453c.199-.248.462-.449.587-.446s.367-.139.537-.316c.172-.177.315-.586.317-.91q.003-.586-.447-1.038c-.249-.25-.635-.451-.859-.448m85.26 11.38c.555-.002.853.105 1.135.406.209.228.428.617.486.865.058.25-.013.716-.155 1.04-.143.323-.424.668-.622.767-.199.1-.606.182-.904.182q-.542 0-1.085-.543c-.334-.334-.55-.745-.564-1.07-.013-.338.156-.731.469-1.085.395-.452.629-.556 1.24-.562M71.172-38.377c-.083-.034-.217.071-.3.232a.42.42 0 0 0 .079.512c.126.12.227.32.225.446 0 .124-.125.225-.273.225-.15 0-.333-.125-.407-.278-.103-.21-.512.174-1.685 1.582a2571 2571 0 0 1-4.055 4.844c-1.377 1.64-3.562 4.243-4.85 5.785-2.332 2.784-2.345 2.806-2.137 3.39.152.43.153.623.007.722-.112.074-.27.014-.353-.135s-.18-.231-.219-.181c-.036.049-.285.599-.55 1.22-.268.622-.486 1.191-.489 1.266-.001.074.262-.118.587-.427.326-.307.735-.612.908-.677.174-.064.315-.218.313-.342s.1-.322.226-.438c.175-.162.376-.146.862.067l.633.277c.84-1.061 2.258-2.76 3.694-4.459s3.794-4.464 5.242-6.148a806 806 0 0 0 3.674-4.294l1.04-1.23c-1.567-1.472-2.09-1.926-2.172-1.959m179.181 8.51c-1.088-.038-1.51.027-2.049.316-.372.2-.788.586-.924.859a6 6 0 0 0-.357.949c-.064.25.01.94.164 1.536.152.597.489 1.452.75 1.899.26.448 1.009 1.369 1.664 2.046.654.677 1.678 1.548 2.274 1.937.597.387 1.573.878 2.169 1.092.597.213 1.533.394 2.079.401.682.01 1.179-.096 1.578-.335.322-.193.762-.675.979-1.073.323-.595.372-.897.278-1.718-.067-.568-.394-1.573-.766-2.35-.481-.998-.995-1.692-1.95-2.63-.961-.948-1.71-1.483-2.907-2.08-1.424-.708-1.775-.81-2.982-.849M163.197-41.12c-1.051.434-1.733.7-2.19.868l-.833.307c-1.369-1.178-1.85-1.523-1.954-1.53-.101-.003-.692.401-1.312.898l-1.124.903 1.487 2.26-1.331 2.531-2.777.181c-.356 2.363-.356 2.748-.205 2.85.112.076.733.3 1.38.499l1.175.361c.463 1.888.647 2.58.705 2.754.074.215-.081.486-.478.842-.324.289-.777.676-1.006.86l-.417.331 1.85 2.712 2.419-1.032 2.984 2.208c-.197 1.33-.257 1.91-.262 2.147-.009.382.15.476 1.436.859.796.236 1.548.43 1.673.43s.401-.47.616-1.04c.214-.572.438-1.092.498-1.155.059-.061.82-.164 1.688-.226l1.582-.112c1.19 1.69 1.637 2.18 1.763 2.177.124-.004.754-.252 1.401-.55.645-.298 1.177-.604 1.177-.678.001-.076-.163-.624-.363-1.22l-.369-1.084 2.267-2.3c1.959.576 2.541.726 2.557.709.013-.023.276-.628.587-1.348.529-1.232.544-1.324.246-1.558a15 15 0 0 0-1.085-.723l-.768-.476.09-2.966c1.676-.696 2.19-.903 2.224-.91.029-.005-.114-.68-.317-1.502l-.37-1.492h-2.712l-1.669-2.44c.618-1.401.832-1.93.873-2.08.047-.17-.34-.573-1.043-1.084-.614-.447-1.204-.84-1.312-.875-.107-.034-.577.33-1.045.813l-.854.875c-1.621-.609-2.316-.832-2.589-.889-.442-.092-.518-.22-.688-1.144-.105-.57-.228-1.14-.271-1.266-.057-.157-.569-.226-1.707-.226h-1.627zM58.544-19.968c-.184 0-.455.142-.603.317-.15.173-.324.418-.389.543-.065.123.206.041.604-.18.395-.225.72-.47.722-.544 0-.076-.15-.136-.334-.136M3.2-25.44l-.013 5.745c.817.403.826.385.96-.97.076-.76.139-3.311.144-5.669l.006-4.29-1.085-.56zm102.625 4.209c-.234 0-.565.14-.735.316a.76.76 0 0 0-.206.723c.056.222.263.488.462.588s.525.14.724.09.442-.253.542-.452c.132-.264.107-.486-.09-.813-.167-.278-.436-.452-.697-.452m108.369-9.036c-.242.09-.418.25-.393.357.027.107-1.139 1.45-2.589 2.988-2.601 2.759-2.636 2.807-2.591 3.56.044.729.084.78.86 1.063.448.166.813.413.813.548s-.163.27-.362.297c-.199.029-.727-.135-1.175-.362-.665-.336-.83-.519-.904-1.007l-.09-.597-1.989 1.971c.84.51 1.411.718 1.808.79.398.074 1.15.138 1.672.142l.949.006a339 339 0 0 1 5.284-5.513l2.31-2.35c-1.471-.614-2.163-1.082-2.486-1.434-.324-.355-.608-.64-.633-.633-.026.005-.242.085-.484.174m37.009 2.168c.534.002 1.211.17 1.804.45.523.248 1.405.878 1.964 1.4.557.523 1.204 1.275 1.437 1.673.232.398.479 1.049.549 1.446.083.477.042.926-.126 1.32-.161.38-.484.702-.885.882a2.8 2.8 0 0 1-1.357.206c-.398-.043-1.211-.316-1.807-.607-.597-.291-1.451-.898-1.899-1.349-.446-.45-1.016-1.224-1.264-1.72-.292-.585-.452-1.207-.452-1.775-.002-.759.077-.944.59-1.401.477-.426.754-.527 1.446-.525m-92.841 4.52c-.077 0-.543.187-1.039.416-.497.228-.966.554-1.04.722-.076.168-.076.306 0 .308.074.002.542-.167 1.04-.378l.903-.382c1.4 1.037 1.948 1.412 2.124 1.5.24.123.337.076.407-.2.07-.286-.161-.536-1.085-1.175-.647-.449-1.236-.814-1.31-.812m91.518-3.316c-.077.065-.126.37-.108.675.018.308.211.924.428 1.372.218.447.766 1.186 1.218 1.642s1.146.996 1.544 1.202 1.01.433 1.357.503c.348.072.857.08 1.13.018s.496-.192.497-.291c-.001-.1-.102-.137-.227-.083s-.673-.069-1.22-.273a9.3 9.3 0 0 1-1.853-1.004c-.472-.347-1.059-.895-1.307-1.216-.246-.324-.644-1.056-.883-1.625-.24-.572-.498-.985-.576-.92m13.567-15.827c-.398.01-1.212.091-1.808.178s-1.533.29-2.079.448c-.548.159-1.606.57-2.351.916-.746.345-1.844.978-2.44 1.405-.597.425-1.615 1.344-2.261 2.044-.647.697-1.439 1.707-1.761 2.24-.321.535-.873 1.663-1.225 2.508s-.744 1.74-.871 1.988l-.23.452c2.332-.12 3.023-.046 3.726.178.546.174 1.522.607 2.17.963.649.358 1.742 1.217 2.447 1.924.699.701 1.552 1.762 1.892 2.359s.75 1.573.911 2.17l.293 1.084c1.328-2.672 1.84-3.418 2.321-3.823.398-.337 1.089-.734 1.537-.882s1.138-.266 1.536-.263c.398.006 1.17.163 1.718.35.543.188 1.009.327 1.039.312.025-.018-.068-.317-.209-.666-.141-.347-.313-1.12-.382-1.716-.072-.624-.031-1.7.094-2.532.121-.795.423-2.016.673-2.712.247-.696.707-1.75 1.019-2.343.313-.592.982-1.527 1.487-2.079.504-.551 1.278-1.18 1.717-1.4l.799-.402c-1.961-.868-3.224-1.365-4.068-1.661-.846-.299-2.31-.661-3.254-.802-.945-.143-2.043-.25-2.44-.239m-48.541 6.341c-.12-.41-.126-.407-.731.19-.457.45-.602.738-.571 1.138.023.292.205.898.405 1.346.199.446.358.934.355 1.085-.006.148-.232.498-.503.773-.271.276-.636.498-.81.497-.173-.002-.413.179-.528.403-.117.225-1.235 1.489-2.486 2.81-1.764 1.862-2.365 2.389-2.677 2.35-.345-.046-.406.032-.408.534-.003.438-.234.867-.907 1.673-.496.596-.903 1.166-.904 1.266 0 .099.062.183.136.187s1.825-1.705 3.887-3.797 3.873-4.047 4.023-4.345c.2-.402.471-.595 1.039-.745.423-.113.89-.29 1.04-.393.2-.137.412-.09.813.189.299.207.908.543 1.356.747.446.207.956.376 1.13.378s.54-.185.813-.416l.498-.422a11.8 11.8 0 0 1-2.367-1.906c-.604-.625-1.409-1.586-1.791-2.132-.381-.548-.747-1.182-.812-1.41m-194.85-6.891c-.073.007-1.234.946-2.575 2.085a2375 2375 0 0 1-7.447 6.267l-5.006 4.197c-.018 7.042.043 8.587.159 8.587.1 0 .568-.33 1.039-.73a453 453 0 0 1 2.757-2.31c1.043-.87 2.182-1.78 2.531-2.02.347-.242.843-.646 1.1-.899.256-.253 1.091-.947 1.854-1.544.765-.596 1.755-1.43 2.2-1.853.447-.423 1.037-.878 1.31-1.016.273-.135.625-.44.782-.677s.546-.553.866-.703l.58-.27c-.01-7.065-.075-9.117-.15-9.114M251.012-27.56c-.061 0-.156.081-.21.18-.054.1-.022.486.072.86.094.372.461 1.062.814 1.536.352.472.987 1.092 1.41 1.38.423.285 1.093.652 1.491.817.398.163.948.295 1.221.293.272-.002.477-.096.452-.208s-.413-.298-.859-.412c-.447-.116-1.181-.46-1.627-.766-.447-.303-1.051-.83-1.34-1.167s-.703-1.043-.92-1.564c-.216-.521-.442-.947-.504-.95m-97.125 2.168c-.049 0-.088.06-.085.134.004.076.268.614.588 1.196.32.583.726 1.193.903 1.356.275.253.322.256.319.026-.004-.15-.373-.82-.821-1.493-.446-.67-.853-1.22-.904-1.22m21.149 1.15c-.099-.037-.284.095-.407.294-.209.343-.159.378.864.59.599.124 1.13.185 1.181.137.051-.051.089-.18.085-.29-.004-.108-.353-.3-.773-.428a22 22 0 0 1-.95-.302m77.304-2.964c-.242-.128-.354-.128-.361 0-.005.103.132.485.305.848.174.361.684.99 1.13 1.392.447.402 1.159.879 1.582 1.058s.809.303.861.28c.05-.025.031-.2-.045-.386-.076-.187-.382-.437-.68-.554s-.899-.535-1.335-.926c-.435-.39-.862-.895-.949-1.117-.087-.224-.314-.492-.508-.595m-41.238-5.903a230 230 0 0 1-4.001 4.238c-1.833 1.89-2.321 2.5-2.321 2.893 0 .273.162.761.361 1.085s.424.59.498.594.226-.096.336-.226c.11-.129.191-.49.181-.803-.013-.341.123-.72.341-.954.199-.211.524-.387.723-.387.226 0 1.136-.814 2.441-2.186 1.143-1.204 2.222-2.42 2.396-2.706s.459-.518.633-.514c.173.003.459-.159.633-.361.256-.298.276-.443.108-.774a10 10 0 0 1-.431-1.074l-.22-.667zm63.463-6.255a2.5 2.5 0 0 0-.94.045 5.5 5.5 0 0 0-.995.412c-.278.154-.911.715-1.404 1.248-.557.602-1.188 1.587-1.663 2.596-.421.894-.889 2.154-1.043 2.801-.152.646-.279 1.866-.282 2.712-.002.873.109 1.888.259 2.35.147.447.514 1.079.816 1.402.455.487.684.588 1.32.584a3.2 3.2 0 0 0 1.491-.427c.398-.233 1.11-.862 1.582-1.397.472-.537 1.117-1.463 1.432-2.06a19 19 0 0 0 .994-2.35c.231-.695.511-1.876.619-2.621.143-.987.141-1.65-.008-2.44-.11-.597-.341-1.32-.511-1.61a3.3 3.3 0 0 0-.763-.84c-.249-.174-.657-.356-.904-.405m-108.88 2.417c.125-.007.653.078 1.176.188a9.2 9.2 0 0 1 1.807.633c.472.237 1.19.775 1.595 1.198s.891 1.094 1.083 1.492.423 1.171.514 1.717c.101.602.101 1.335.002 1.854-.091.472-.359 1.246-.594 1.718-.235.471-.745 1.137-1.13 1.478a7.5 7.5 0 0 1-1.515.992c-.618.282-1.184.373-2.35.374-1.287.002-1.698-.074-2.532-.473-.545-.26-1.348-.788-1.782-1.175-.443-.392-1.02-1.175-1.316-1.784-.291-.597-.576-1.533-.636-2.08a5.3 5.3 0 0 1 .171-1.989c.154-.545.556-1.359.894-1.807.336-.448 1.008-1.057 1.495-1.356a7.2 7.2 0 0 1 1.887-.754c.553-.115 1.105-.217 1.231-.226m-.045 2.768c-.506-.037-1.261.05-1.717.2a7 7 0 0 0-1.514.767c-.385.275-.892.825-1.126 1.223-.234.397-.426.966-.426 1.265s.168.908.374 1.356c.204.446.629 1.127.943 1.51.347.423 1.039.922 1.749 1.262.947.453 1.403.562 2.35.56.858-.002 1.437-.123 2.151-.446.537-.246 1.249-.75 1.582-1.123.458-.514.606-.845.608-1.357.001-.374-.116-1.084-.259-1.58-.161-.563-.562-1.249-1.056-1.81-.515-.585-1.143-1.055-1.775-1.331-.539-.235-1.387-.458-1.884-.496m107.977-2.783c.413 0 .749.162 1.13.543.394.394.557.745.595 1.281.029.407.02 1.201-.019 1.763-.04.562-.27 1.554-.512 2.2-.242.645-.721 1.56-1.065 2.033-.343.471-.89 1.021-1.214 1.22-.323.197-.851.36-1.174.362-.364 0-.751-.155-1.013-.407-.235-.224-.519-.732-.633-1.13a6.3 6.3 0 0 1-.204-1.446c.002-.398.123-1.231.27-1.853s.432-1.456.63-1.854a7.8 7.8 0 0 1 .95-1.387c.323-.363.831-.81 1.13-.992s.806-.33 1.129-.333m.165.726c-.084-.002-.084.181 0 .405.084.223.143 1.017.132 1.763-.014 1.052-.136 1.636-.543 2.617-.309.748-.871 1.649-1.38 2.215-.787.873-.825.953-.438.953.24 0 .69-.268 1.039-.618.34-.34.837-1.053 1.107-1.582.267-.53.614-1.453.768-2.05.156-.596.282-1.39.282-1.762-.002-.374-.089-.902-.197-1.175-.107-.274-.289-.556-.406-.63a.9.9 0 0 0-.364-.136m-.842.178c-.1 0-.192.06-.202.136-.013.075-.005.543.017 1.04.024.496-.096 1.392-.267 1.989-.17.596-.472 1.41-.671 1.807a6.4 6.4 0 0 1-.931 1.31c-.383.397-.508.65-.387.777.123.126.439-.09.986-.68.443-.475 1.007-1.313 1.253-1.859.283-.633.477-1.457.531-2.26.047-.696.033-1.49-.032-1.762-.064-.275-.198-.497-.297-.497m-57.154 5.422c-.11 0-.166.103-.123.226.044.125.481.449.971.72s1.156.495 1.48.497c.323.002.586-.056.586-.132 0-.074-.244-.155-.542-.18s-.867-.21-1.265-.408c-.398-.199-.763-.442-.814-.542a.36.36 0 0 0-.293-.18m-62.025-.154c-1.008-.302-1.12-.305-1.093-.045.018.172.474.474 1.121.741.6.25 1.154.393 1.228.319.074-.073.074-.258 0-.408-.076-.15-.641-.423-1.256-.607m118.238-4.363c-.07 0-.16.06-.202.136-.043.075-.136.542-.206 1.039a8.2 8.2 0 0 1-.52 1.784c-.216.486-.496.974-.624 1.085-.131.112-.228.407-.221.656l.015.452a8.4 8.4 0 0 0 1.22-1.898c.25-.548.502-1.502.56-2.124.058-.62.047-1.13-.022-1.13m-106.359-.896c-.597.01-1.41.138-1.808.286-.397.15-.96.449-1.251.666-.289.217-.743.721-1.008 1.119l-.482.723c1.423-.929 2.244-1.316 2.741-1.46s1.291-.261 1.763-.26c.472 0 1.285.16 1.808.351.529.195 1.376.736 1.915 1.22.531.48 1.182 1.3 1.446 1.823.263.522.494.927.512.904.016-.025-.046-.434-.136-.906-.092-.474-.319-1.165-.505-1.537-.186-.374-.776-1.068-1.31-1.545-.536-.475-1.338-.985-1.787-1.132-.446-.146-1.302-.259-1.898-.252M20.012-32.252c.15 0 .416.141.593.313.177.17.319.474.3 1.034l-.199-.361a2.8 2.8 0 0 0-.582-.675c-.28-.228-.309-.31-.112-.31m-.732-12.24c-.512-.193-.606-.16-1.313.467-.418.37-3.04 2.58-5.826 4.908a3459 3459 0 0 1-6.815 5.68c-.958.795-1.751 1.487-1.764 1.538-.008.05.23.192.532.316.544.224.575.204 3.031-1.898 1.367-1.168 4.762-4.023 7.548-6.342 2.786-2.321 5.088-4.275 5.113-4.34.024-.067-.204-.216-.506-.329m197.472 3.406-1.09 1.14-.164 3.256c1.43 2.071 2.354 3.149 2.976 3.731.621.584 1.23 1.061 1.355 1.062s.633-.406 1.13-.907c.497-.498 1.047-.907 1.221-.905.173.002.318.063.32.137s-.425.525-.949 1-.885.921-.805.994.772.031 1.536-.09c1.279-.204 1.464-.291 2.319-1.085.511-.475.938-.926.949-1 .008-.074-.695-.131-1.562-.128l-1.582.007a65 65 0 0 0-2.424-3.321c-1.03-1.33-1.452-1.746-1.689-1.672-.173.054-.358.016-.407-.083-.05-.1-.014-.324.076-.497.098-.183.107-.834.024-1.548l-.143-1.231zm3.177-2.32-.848.568c-.02 3.03.022 3.222.478 3.844a68 68 0 0 0 1.491 1.918c.631.785 1.291 1.387 1.808 1.647.446.228 1.26.515 1.807.64l.995.229c1.676-1.714 1.723-1.812 1.62-2.492-.06-.397-.143-.785-.186-.859s-.527.314-1.072.86c-.548.547-1.137.993-1.311.994-.173 0-.805-.23-1.401-.51-.638-.3-1.329-.803-1.678-1.22a8.8 8.8 0 0 1-.945-1.434c-.195-.398-.359-1.05-.363-1.447-.007-.656.088-.808 1.037-1.65l1.045-.93c-1.191-.592-1.557-.756-1.582-.745-.028.012-.428.276-.895.588m-148.43 7.092c.188-.217.305-.227.59-.052.197.117.356.318.355.442a.34.34 0 0 1-.229.3c-.125.038-.388-.041-.587-.175-.3-.206-.322-.291-.129-.515m-.77-5.077c.06.397.32 1.088.577 1.537.257.446.671 1.058.92 1.356.25.298.827.85 1.282 1.224a7.7 7.7 0 0 0 1.824 1.05c.546.202 1.158.344 1.357.313.23-.036-.028-.2-.724-.46-.597-.223-1.533-.76-2.079-1.196a13 13 0 0 1-1.757-1.765c-.421-.537-.931-1.38-1.138-1.878l-.372-.904zm152.536-1.717c-.082 0-.621.468-1.199 1.039-1.02 1.008-1.047 1.062-.922 1.763.07.397.311 1.009.535 1.356.224.349.563.76.749.918.186.157.727.503 1.198.768.471.266.939.482 1.039.483.1 0 .182-.081.182-.18-.001-.1-.183-.22-.407-.264-.331-.07-.364-.13-.176-.317.188-.19.304-.188.633.007.37.224.467.175 1.262-.633.474-.479.861-.934.859-1.009s-.185-.136-.408-.138c-.225-.002-.753-.207-1.176-.452s-1.016-.794-1.319-1.217-.585-1.074-.628-1.447c-.042-.371-.143-.677-.222-.677m-150.75-.364c-.405.002-.805.056-.889.123-.083.065-.135.452-.117.859.018.405.208 1.104.423 1.55.215.449.926 1.346 1.58 1.995.653.649 1.595 1.375 2.092 1.614s1.229.469 1.627.514c.537.058.791-.004.994-.24.148-.176.253-.572.23-.881-.024-.308-.222-.926-.441-1.374-.22-.447-.934-1.347-1.586-2-.663-.663-1.624-1.4-2.18-1.673-.594-.291-1.293-.488-1.732-.486m83.081 4.9c-.109-.038-.033.207.169.544s.473.65.6.692c.133.045.063-.184-.168-.542-.219-.34-.491-.653-.601-.693m65.931-1.652a.28.28 0 0 1 .316-.122c.11.038.23.225.263.416.03.192-.071.409-.227.483-.2.095-.313.028-.376-.227-.05-.198-.039-.445.024-.55m3.416-3.789c-.468 0-.682.104-.837.408-.154.303-.156.578-.004 1.084.11.372.466.973.79 1.335.323.361.893.808 1.265.994.373.186.865.338 1.094.338.228 0 .515-.101.636-.226s.22-.45.218-.724-.136-.761-.295-1.084a5.7 5.7 0 0 0-.769-1.101c-.262-.282-.701-.628-.974-.769-.273-.139-.779-.255-1.124-.255m-2.449 2.893c.102 0 .234.102.295.227.06.124.058.389-.006.587-.108.34-.134.343-.426.054-.188-.188-.26-.418-.179-.588.071-.153.213-.28.316-.28m.633-.903c.051 0 .178.224.28.497.116.312.122.564.015.678-.11.117-.244.023-.382-.272-.117-.248-.166-.553-.11-.678.056-.124.145-.225.197-.225M67.187-90.475c.205 0 1.45.538 2.768 1.196s3.353 1.716 4.52 2.35c1.168.635 2.183 1.255 2.257 1.38.075.127.687 1.447 1.363 2.938.835 1.846 1.428 3.49 1.856 5.152.345 1.342.628 2.58.628 2.757-.001.174-.783 1.761-1.739 3.525-.954 1.765-1.87 3.349-2.034 3.52s-2.047 1.29-4.184 2.487c-2.353 1.32-4.08 2.175-4.383 2.176-.273-.002-1.292-.4-2.261-.889-.97-.486-2.919-1.524-6.894-3.722l-2.181-4.43c-1.203-2.435-2.183-4.573-2.181-4.746.001-.176.448-1.518.991-2.982a134 134 0 0 1 2.356-5.891l1.627-.994c.895-.548 2.864-1.633 4.374-2.412s2.913-1.415 3.118-1.415m205.222-.006c.593-.004.989.127 1.524.507.398.28.922.831 1.164 1.225.278.448.447.998.452 1.48.011.753-.038.816-5.774 6.53l.345.51c.19.28.498.957.682 1.504.184.546.332 1.259.332 1.583a3.8 3.8 0 0 1-.244 1.175c-.132.324-.438.718-.678.875s-.701.341-1.024.407c-.346.07-1.017.003-1.628-.162-.572-.153-1.489-.528-3.029-1.382l-2.445 2.504a6078 6078 0 0 0-6.192 6.345c-3.563 3.654-3.779 3.842-4.424 3.842-.372-.002-.942-.164-1.266-.361a1.78 1.78 0 0 1-.786-1.04c-.11-.373-.143-.883-.074-1.13.067-.25.497-.859.954-1.356.458-.497 3.217-3.365 11.432-11.841l-.55-.859c-.3-.472-.667-1.265-.814-1.763-.148-.497-.265-1.23-.261-1.627.002-.398.104-.924.225-1.168.124-.244.509-.639.858-.875.52-.356.791-.417 1.536-.345.497.047 1.392.332 3.073 1.183l2.905-2.877c2.866-2.84 2.916-2.879 3.707-2.884m-153.911-.705c.373-.094 1.167-.125 1.763-.07.597.055 1.572.274 2.169.488.596.211 1.571.67 2.166 1.017s1.741 1.282 2.546 2.077c1.142 1.13 1.63 1.784 2.23 2.984.582 1.168.79 1.819.865 2.712.054.645.007 1.52-.103 1.943-.141.539-.512 1.087-1.24 1.83-.705.721-1.273 1.128-1.763 1.266-.398.11-1.13.2-1.627.2a9 9 0 0 1-1.808-.236c-.897-.23-.908-.228-1.356.3-.249.292-.676.641-.949.777-.334.166-.536.44-.613.835-.064.323-.246.785-.407 1.025-.159.24-.555.546-.879.678s-.587.363-.587.511-.244.415-.54.588c-.322.188-.541.465-.538.678.004.199-.18.6-.408.892-.226.29-.676.635-1 .767-.466.19-.585.343-.582.737.004.287-.186.706-.452.994-.251.273-.661.539-.909.588-.32.063-.503.262-.622.677-.094.324-.461.852-.814 1.175-.354.324-.826.626-1.05.671-.225.047-.814.122-1.311.165-.497.045-1.698.313-2.669.595-1.565.455-1.793.482-2.026.242-.221-.226-.233-.554-.081-1.99.099-.945.131-2.165.068-2.711-.079-.701-.029-1.207.17-1.717.155-.397.528-.906.828-1.13.416-.309.545-.548.541-.995-.003-.345.162-.806.406-1.117.226-.291.677-.636 1-.768.479-.195.588-.338.588-.78 0-.355.182-.732.528-1.086.291-.298.636-.54.768-.539.139.002.298-.305.376-.723.098-.526.311-.865.772-1.224.348-.273.679-.7.734-.948a3.2 3.2 0 0 1 .36-.86c.143-.224.544-.53.891-.677.38-.163.633-.399.631-.588 0-.174.194-.602.864-1.582l-.342-.859c-.217-.548-.338-1.3-.336-2.079.004-.788.121-1.477.334-1.943a6.8 6.8 0 0 1 .856-1.336c.287-.336.829-.763 1.202-.95a8 8 0 0 1 1.356-.504m50.124 2.714c.944-.01 2.408.101 3.254.246.844.144 2.146.479 2.893.745.745.264 2 .858 2.788 1.32.786.46 1.971 1.367 2.631 2.013s1.494 1.705 1.854 2.35c.36.646.781 1.663.937 2.26.179.689.28 1.876.28 3.255 0 1.4-.101 2.552-.285 3.254a13 13 0 0 1-.838 2.169c-.302.596-1.046 1.606-1.653 2.242-.606.636-1.673 1.533-2.369 1.996-.696.461-1.978 1.099-2.847 1.419-.87.318-2.335.712-3.255.873-1.226.213-2.274.265-3.932.19-1.375-.061-2.862-.249-3.797-.484-.846-.21-2.147-.668-2.892-1.017-.747-.348-1.844-.98-2.441-1.406a14 14 0 0 1-1.945-1.75 13.7 13.7 0 0 1-1.486-2.153c-.344-.645-.747-1.745-.899-2.44-.15-.697-.276-1.957-.278-2.803s.083-2.025.191-2.621c.107-.597.469-1.655.803-2.35.333-.697 1.04-1.747 1.568-2.333.529-.588 1.45-1.416 2.046-1.839a20 20 0 0 1 2.35-1.393c.696-.344 1.673-.757 2.17-.921.497-.163 1.473-.41 2.169-.55.696-.138 2.038-.262 2.983-.272m93.656 9.928c-.076.001-2.409 2.34-5.189 5.198-2.778 2.858-5.515 5.705-6.082 6.328-.567.621-1.03 1.293-1.03 1.492s.204.566.451.813c.249.25.657.451.904.451.349 0 1.222-.79 3.84-3.48 1.862-1.914 4.608-4.718 6.102-6.231l2.714-2.75c-1.222-1.41-1.638-1.82-1.71-1.82M78.947-73.3c-.089 0-.207.082-.261.181-.055.1-1.056.74-2.224 1.419-1.167.681-2.572 1.48-3.118 1.775-.922.498-1.11.722-2.562 3.056-.86 1.381-1.53 2.532-1.492 2.564.042.025.626-.25 1.296-.61s2.22-1.235 3.443-1.943l2.222-1.29a829 829 0 0 1 2.623-4.744c.129-.224.161-.407.073-.408m144.24-15.418c.446-.217.936-.297 1.48-.245.447.042 1.14.24 1.537.44a9 9 0 0 1 1.447.988c.397.34 1 1.141 1.339 1.777.438.823.642 1.474.704 2.243.047.597-.004 1.37-.113 1.718-.146.465-1.147 1.548-3.776 4.078a1040 1040 0 0 1-7.023 6.689 499 499 0 0 1-5.288 4.917c-1.26 1.142-2.03 1.707-2.431 1.781-.333.063-1.018-.015-1.582-.178-.548-.157-1.33-.553-1.741-.877a10 10 0 0 1-1.329-1.314 10.3 10.3 0 0 1-.991-1.536c-.226-.448-.461-1.119-.524-1.491a4 4 0 0 1 .056-1.357c.138-.542.801-1.296 3.299-3.753 1.721-1.692 5.636-5.434 8.698-8.316 3.065-2.884 5.871-5.386 6.238-5.564M59.513-84.235c-.199-.042-.584.002-.858.096-.438.15-.63.514-1.604 3.017-1.081 2.784-1.105 2.88-1.032 4.294.069 1.398.128 1.566 1.782 4.978l1.712 3.528c1.962 1.146 3.65 2.06 5.018 2.768 1.863.97 2.61 1.27 2.982 1.203.275-.05.715-.314.978-.588.265-.276.977-1.292 1.582-2.262 1.054-1.686 1.101-1.811 1.101-2.937 0-1.034-.163-1.592-1.363-4.656-.767-1.956-1.655-3.903-2.033-4.449-.37-.532-.997-1.157-1.395-1.387s-2.025-1.12-3.615-1.974c-1.591-.857-3.056-1.591-3.255-1.631M107.19-66.9c-.356-.454-.413-.476-.408-.163.002.198-.055.79-.129 1.312-.123.879-.107.951.227.939.199-.008.809-.153 1.357-.323l.994-.31c-1.262-.723-1.813-1.168-2.041-1.455m48.242-6.175c-.006.074.183.563.418 1.085s.804 1.457 1.265 2.079 1.388 1.543 2.059 2.047 1.748 1.168 2.396 1.474c.645.305 1.947.748 2.892.985s2.531.48 3.526.542c1.323.081 2.317.027 3.706-.204 1.043-.174 2.386-.494 2.983-.71s1.655-.708 2.351-1.093c.777-.432 1.787-1.23 2.621-2.073.932-.946 1.538-1.754 1.943-2.595.324-.67.589-1.321.593-1.446.003-.124-.208.1-.468.497s-.976 1.235-1.587 1.86c-.613.627-1.725 1.494-2.47 1.928-.746.432-1.926.99-2.622 1.24s-1.997.591-2.892.76c-1.244.238-2.204.288-4.068.216-1.878-.072-2.836-.204-4.158-.575-.945-.263-2.328-.8-3.073-1.19-.747-.39-1.824-1.077-2.396-1.525-.571-.449-1.345-1.205-1.717-1.682a36 36 0 0 1-.986-1.31c-.167-.244-.31-.383-.316-.31M17.281-91.378c.16.002.658.113 1.104.248.448.134 1.18.428 1.627.653s1.425.835 2.17 1.354c1.182.823 1.531 1.207 2.73 3.005 1.263 1.894 1.42 2.237 1.949 4.23.502 1.9.541 2.214.32 2.53-.137.2-.553.728-.926 1.177-.372.446-1.136 1.198-1.698 1.666-.56.47-1.12.857-1.245.859-.125.004-.49.334-.814.735-.323.402-.709.769-.86.818-.148.046-.902-.16-3.072-1.005l-1.04.932c-.57.514-2.214 1.999-3.65 3.3a1779 1779 0 0 1-4.339 3.921c-.95.855-1.911 1.647-2.135 1.763-.225.114-.794.206-1.266.204s-1.204-.165-1.627-.361c-.423-.198-1.226-.785-1.782-1.307-.582-.544-1.239-1.393-1.537-1.99-.288-.57-.572-1.344-.634-1.716a4.9 4.9 0 0 1 0-1.357c.087-.52.394-.96 1.334-1.898.671-.671 3.05-2.84 5.288-4.821a845 845 0 0 1 4.305-3.797c.197-.161.181-.357-.386-2.003l1.253-3.797 1.255-.956c.69-.526 1.733-1.28 2.32-1.673.585-.394 1.194-.715 1.355-.714M206.87-71.674c-.352 0-.752.138-.927.317-.232.238-.288.537-.23 1.22.044.498.254 1.272.469 1.718.213.449.78 1.208 1.255 1.689.477.482 1.172 1.03 1.545 1.22.372.19 1.023.348 1.446.354.504.005.863-.097 1.04-.3.152-.172.267-.633.262-1.047-.006-.445-.224-1.166-.542-1.802-.293-.583-.9-1.403-1.347-1.823-.448-.42-1.159-.938-1.582-1.153s-1.047-.393-1.389-.393M2.926-72.75c-.397.002-.851.085-1.01.186-.158.1-.382.503-.498.897-.115.396-.158.942-.095 1.215.066.273.31.884.543 1.356.235.471.772 1.231 1.195 1.685.423.456 1.175 1.024 1.673 1.267.497.244 1.171.44 1.499.44.395-.001.746-.154 1.039-.454.323-.327.445-.652.445-1.176 0-.398-.16-1.15-.352-1.672-.194-.522-.703-1.346-1.131-1.833-.429-.488-1.184-1.117-1.681-1.401-.586-.333-1.159-.511-1.627-.51m104.795 1.439c-.085 0-.284.143-.439.316a3 3 0 0 0-.464.769c-.123.309-.113.705.032 1.257.137.527.477 1.075.979 1.582.423.428 1.238.992 1.809 1.254.795.365 1.21.452 1.763.372.493-.07.88-.278 1.219-.658.273-.303.497-.635.497-.734-.001-.1-.387-.262-.858-.362-.472-.097-1.367-.503-1.989-.903-.622-.398-1.377-1.069-1.679-1.492s-.586-.911-.633-1.085c-.045-.173-.152-.316-.237-.316m113.1-14.418c-1.41 1.318-4.314 4.057-6.455 6.089a755 755 0 0 0-5.567 5.334c-.919.9-1.672 1.7-1.672 1.775.002.074.187.136.41.138.225 0 .814.235 1.311.52s1.291.935 1.763 1.444c.471.51 1.059 1.353 1.305 1.876s.47 1.254.497 1.626c.027.37.071.675.096.678.025 0 2.137-1.972 4.693-4.384 2.558-2.411 6.158-5.83 8-7.598 1.844-1.768 3.452-3.396 3.572-3.617.121-.22.223-.747.225-1.17.004-.422-.137-1.155-.312-1.626-.177-.472-.604-1.217-.949-1.655-.346-.437-1.037-1.026-1.534-1.308-.678-.385-1.144-.514-1.862-.516l-.958-.002zm-51.294-1.94c-.846-.04-2.148.011-2.893.11-.747.102-2.088.42-2.983.708-.895.289-2.239.887-2.984 1.328-.746.443-1.798 1.197-2.339 1.677s-1.298 1.36-1.681 1.956c-.383.597-.859 1.616-1.054 2.261a9.3 9.3 0 0 0-.353 2.396c.002.844.142 1.598.453 2.44.247.673.755 1.662 1.13 2.198.374.537 1.046 1.3 1.495 1.698.446.396 1.219.986 1.716 1.311.498.324 1.514.837 2.26 1.14s1.965.691 2.712.863c.978.226 2.112.31 4.068.304 2.177-.01 2.996-.087 4.159-.398.795-.211 2.218-.769 3.164-1.235 1.381-.683 2.003-1.133 3.183-2.303 1.105-1.095 1.611-1.765 2.058-2.72.325-.695.676-1.711.777-2.26.13-.699.125-1.368-.018-2.259-.125-.783-.463-1.781-.888-2.616-.403-.8-1.09-1.765-1.678-2.36a16 16 0 0 0-2.169-1.769c-.647-.42-1.807-1.005-2.577-1.302-.77-.296-1.99-.665-2.712-.817-.721-.152-2.002-.31-2.846-.35M4.282-73.927c-.456-.084-.71-.037-.91.165-.246.252-.245.28 0 .283.152.002.704.204 1.226.452s1.341.837 1.822 1.308c.48.472 1.1 1.307 1.376 1.853.275.548.553 1.376.618 1.843.094.695.16.81.364.632.171-.15.224-.517.171-1.21-.04-.545-.269-1.4-.51-1.897-.238-.497-.845-1.302-1.346-1.787-.503-.486-1.199-1.027-1.546-1.202a5.7 5.7 0 0 0-1.265-.44m105.397-.09c-.048.004-.358.145-.689.311-.513.26-.547.313-.226.355.318.043.376.177.376.864 0 .448-.081.813-.181.813s-.242-.246-.316-.546c-.074-.299-.197-.543-.271-.542s-.134.147-.132.32c.001.173.165.662.362 1.085s.703 1.11 1.126 1.527c.423.418 1.215.962 1.762 1.21.581.262 1.348.456 1.839.461.664.009.946-.085 1.315-.441.26-.248.469-.594.466-.768-.002-.197-.192-.357-.5-.422a14 14 0 0 1-1.04-.278c-.299-.096-.868-.362-1.266-.591-.398-.231-1.024-.775-1.389-1.213-.367-.437-.775-1.101-.907-1.474-.134-.372-.28-.674-.329-.67M5.069-75.104c-.21-.002-.476.12-.586.267-.167.226-.055.319.657.55.472.154 1.286.602 1.809.994.533.403 1.267 1.212 1.677 1.847.427.66.821 1.556.95 2.154.12.564.28.992.355.95s.138-.503.14-1.025-.11-1.233-.253-1.582c-.141-.347-.57-1.054-.953-1.57-.384-.515-.983-1.154-1.33-1.42a9 9 0 0 0-1.355-.822c-.398-.186-.897-.34-1.11-.343M227.77-82.79c.105.062.18.228.17.37-.01.144-1.216 1.38-2.68 2.746a1026 1026 0 0 0-4.658 4.385 947 947 0 0 1-4.661 4.384c-1.682 1.57-2.763 2.453-2.935 2.395-.148-.048-.274-.151-.278-.225-.006-.074 1.318-1.4 2.938-2.945a1471 1471 0 0 1 7.43-7.015c2.467-2.312 4.57-4.154 4.674-4.095M60.554-79.634c.555-.265.982-.34 1.537-.27a5.2 5.2 0 0 1 1.446.438c.373.188 1.075.696 1.559 1.13.486.432 1.198 1.276 1.587 1.872.387.597.868 1.615 1.065 2.26.2.645.36 1.643.358 2.214s-.112 1.304-.244 1.628c-.134.323-.52.82-.859 1.106-.56.47-.721.511-1.724.451-.939-.056-1.268-.177-2.158-.79-.578-.397-1.4-1.17-1.827-1.716-.426-.546-.976-1.402-1.22-1.899s-.582-1.434-.748-2.079c-.178-.687-.267-1.514-.214-1.99.05-.446.223-1.076.383-1.4.183-.368.577-.725 1.059-.955M6.075-76.01c-.256 0-.522.06-.59.134-.066.074.428.39 1.1.703.88.409 1.499.87 2.216 1.65.546.597 1.19 1.482 1.43 1.965s.483 1.18.543 1.547c.086.546.152.629.352.452.18-.158.214-.458.123-1.12-.067-.497-.341-1.305-.607-1.796s-.892-1.298-1.389-1.795-1.31-1.09-1.807-1.32-1.114-.418-1.37-.42m54.574-2.894c-.073 0-.248.183-.389.407-.143.223-.313.732-.382 1.13-.078.46-.014 1.148.174 1.898.165.646.537 1.622.828 2.17.293.545.884 1.4 1.313 1.898.443.513 1.204 1.12 1.762 1.403.54.275 1.227.497 1.526.493.298-.001.643-.064.766-.136.141-.084-.16-.301-.813-.583-.593-.257-1.491-.876-2.095-1.447-.772-.726-1.262-1.407-1.808-2.52-.71-1.435-.75-1.612-.75-3.116 0-.878-.06-1.596-.132-1.597m15.56-5.562c-.134-.023-.814.27-1.51.654-.696.385-2.281 1.305-3.525 2.047-1.78 1.063-2.272 1.442-2.32 1.789-.034.24.398 1.618.96 3.06a304 304 0 0 0 1.825 4.564c.44 1.07.862 1.945.937 1.947.076.001 1.275-.66 2.666-1.472s2.98-1.772 3.526-2.134c.883-.585.986-.717.93-1.194-.036-.295-.372-1.595-.747-2.888-.377-1.292-1.093-3.245-1.592-4.339-.5-1.093-1.018-2.008-1.15-2.034M7.503-76.97c-.405-.06-.793-.007-.994.136-.298.213-.271.244.304.34.349.06 1.157.455 1.797.882s1.468 1.182 1.84 1.68c.375.497.844 1.27 1.048 1.717.203.449.371 1.038.373 1.31.002.274.085.498.185.498s.222-.122.27-.272c.051-.148.093-.535.095-.858.002-.324-.235-1.075-.526-1.672-.291-.596-.883-1.456-1.315-1.908-.43-.452-1.15-1.032-1.598-1.29-.447-.256-1.112-.508-1.479-.562m54.384-2.295c-.128 0-.3.054-.384.119-.083.068-.138.699-.122 1.401.015.705.177 1.729.36 2.276.182.546.582 1.36.885 1.808.306.447.91 1.162 1.344 1.589.434.425 1.113.928 1.51 1.116.398.188.925.369 1.173.4.283.038.467-.04.505-.212.04-.181-.232-.39-.807-.62-.486-.198-1.275-.755-1.788-1.266-.595-.593-1.163-1.428-1.61-2.362-.57-1.2-.7-1.688-.76-2.848-.051-.987-.142-1.401-.306-1.401m48.803 3.264c-.373.282-.494.523-.48.951.011.317.178.9.367 1.298.192.398.76 1.11 1.264 1.582.503.472 1.262 1.02 1.684 1.217.423.197 1.174.364 1.672.37.614.006 1.03-.094 1.301-.314.217-.177.422-.48.452-.672.044-.275-.092-.382-.624-.497-.372-.082-1.062-.345-1.536-.583-.472-.237-1.257-.786-1.743-1.22-.488-.432-1.104-1.174-1.372-1.65l-.486-.86zM8.98-78.134c-.556-.061-.882-.011-1.032.159-.177.2-.044.32.725.648.519.22 1.419.832 2.001 1.356a6.8 6.8 0 0 1 1.676 2.218c.341.696.668 1.551.726 1.899.077.473.144.564.261.361.089-.148.161-.577.163-.95.002-.372-.08-.901-.18-1.174-.102-.273-.144-.537-.095-.588.05-.048.166.115.257.362.092.25.273.696.401.995l.235.541c.089-.968-.081-1.54-.43-2.214a10 10 0 0 0-1.356-1.898c-.45-.472-1.204-1.03-1.677-1.24-.472-.212-1.226-.424-1.674-.475m53.988-.78c-.09.006-.115.55-.056 1.23.075.835.279 1.56.653 2.304.3.597.813 1.406 1.14 1.798.328.392.96.942 1.409 1.222.448.28.915.51 1.04.508.124-.002.225-.165.225-.364 0-.213-.204-.464-.497-.612-.273-.137-.859-.646-1.302-1.13a9.4 9.4 0 0 1-1.31-1.964c-.278-.596-.559-1.41-.622-1.807-.064-.398-.206-.831-.317-.96-.11-.128-.273-.229-.363-.225m105.744-3.411c.298-.01 1.032.072 1.628.183a10 10 0 0 1 2.079.673c.548.262 1.258.743 1.581 1.069.324.325.751.916.949 1.314.226.454.361 1.078.359 1.673-.002.537-.15 1.263-.34 1.672-.186.398-.651 1.023-1.036 1.389s-1.147.886-1.694 1.155c-.547.27-1.522.575-2.169.678-.863.135-1.512.126-2.441-.036-.719-.127-1.726-.472-2.334-.801-.585-.317-1.343-.902-1.681-1.3-.344-.405-.737-1.161-.894-1.718-.177-.623-.233-1.23-.153-1.627.068-.349.271-.916.446-1.265.177-.35.617-.897.977-1.221a8 8 0 0 1 1.424-.984c.423-.218 1.217-.497 1.763-.618.547-.12 1.238-.227 1.536-.236m-56.305 4.142c-.11 0-.3.207-.421.459-.181.368-.175.607.027 1.22.157.482.622 1.132 1.266 1.77.569.564 1.469 1.218 2.053 1.491.584.271 1.358.484 1.763.484.398 0 .765-.08.813-.18.05-.1-.336-.297-.858-.44-.521-.14-1.372-.567-1.888-.949-.517-.38-1.275-1.137-1.681-1.684-.409-.548-.772-1.259-.808-1.583-.038-.323-.157-.587-.266-.588M10.179-79.265c-.49 0-.889.106-1.04.278-.214.244-.184.279.25.271.275-.003.721.09.994.21.275.119.973.547 1.555.949.582.403 1.245.976 1.473 1.274.23.298.628.991.884 1.537.259.548.466 1.198.463 1.446-.005.41.022.427.295.181.215-.195.277-.474.22-.994-.043-.398-.272-1.13-.51-1.627-.236-.497-.8-1.3-1.252-1.783-.452-.485-1.208-1.074-1.682-1.31-.513-.26-1.175-.432-1.65-.432m159.076.057c-1.236-.054-1.846.008-2.54.252-.501.177-1.194.513-1.537.746-.344.233-.862.762-1.153 1.176l-.53.752c.541.98 1.105 1.532 1.602 1.863s1.31.717 1.808.86c.497.144 1.431.263 2.079.263.647 0 1.581-.119 2.079-.263a6.7 6.7 0 0 0 1.673-.816c.423-.303.97-.837 1.219-1.184.416-.582.433-.675.198-1.13-.141-.275-.487-.713-.769-.977-.282-.262-.962-.7-1.508-.975-.81-.405-1.294-.51-2.621-.567M65.139-77.187c-.698-.741-.83-.823-.733-.453.065.248.314.9.55 1.447.239.546.798 1.36 1.245 1.808.444.446.845.771.89.723.042-.051-.187-.66-.51-1.355-.324-.697-.974-1.673-1.442-2.17m49.335-2.62c-.1.005-.403.21-.678.456-.316.285-.496.627-.494.943.004.273.156.823.342 1.22.184.398.69 1.063 1.126 1.477.434.416 1.195.965 1.692 1.226.646.334 1.178.468 1.854.465.705-.002 1.043-.098 1.31-.366.199-.198.362-.482.362-.632 0-.237-.041-.235-.317.01-.22.2-.37.227-.497.091q-.18-.191.049-.418c.126-.125.228-.287.226-.361s-.226-.176-.5-.225-.986-.398-1.583-.778c-.596-.381-1.319-.97-1.607-1.313a7.4 7.4 0 0 1-.813-1.213c-.159-.325-.373-.588-.472-.583m-103.232-.72c-.198.003-.517.089-.709.19-.189.101-.331.262-.316.356.018.094.235.171.482.172.25 0 .912.224 1.472.497.591.287 1.41.915 1.951 1.492.58.62 1.083 1.386 1.33 2.033.22.57.4 1.202.4 1.401 0 .201.102.335.226.302.129-.033.248-.407.275-.858.034-.546-.087-1.085-.378-1.703-.237-.498-.828-1.346-1.315-1.884-.574-.633-1.27-1.159-1.971-1.49-.596-.281-1.247-.51-1.447-.508m2.32-6.604c-.4-.083-.607-.047-.678.12-.054.133-.306.83-.556 1.55-.426 1.237-.435 1.346-.17 1.899l.285.587c.612-.594.972-.858 1.196-.97s.713-.204 1.085-.206c.372 0 1.085.196 1.582.44s1.363.917 1.926 1.493c.56.579 1.232 1.5 1.49 2.045.261.548.525 1.444.589 1.99.106.928.075 1.039-.454 1.671-.312.374-.527.758-.478.859s.478.304.95.456c.471.15.94.274 1.04.276.1.001.416-.427.704-.95.456-.832.509-1.075.404-1.861-.084-.622-.494-1.579-1.319-3.073-.66-1.194-1.573-2.561-2.032-3.042-.457-.481-1.32-1.121-1.916-1.423a40 40 0 0 1-2.079-1.145c-.547-.329-1.253-.65-1.57-.716m-1.091 5.693c-.417 0-.8.063-.852.137-.05.075.374.313.94.53.569.217 1.44.756 1.937 1.2s1.19 1.284 1.537 1.866c.348.582.765 1.467.93 1.964.245.743.32.84.433.542.074-.2.084-.87.02-1.491-.065-.62-.177-1.126-.253-1.128-.074.001-.27-.224-.432-.498-.165-.275-.631-.844-1.04-1.267a10.4 10.4 0 0 0-1.602-1.312c-.607-.387-1.081-.545-1.618-.543m250.432-3.645c-.299-.049-.721-.055-.94-.017-.219.036-.544.234-.723.438-.225.255-.326.664-.326 1.31 0 .726.161 1.26.712 2.375.526 1.066 1.063 1.79 2.079 2.804.982.982 1.751 1.557 2.723 2.04.936.462 1.595.67 2.125.666.423-.002.902-.064 1.064-.14.165-.074.416-.38.561-.678.179-.369.222-.772.136-1.266-.071-.397-.302-1.112-.514-1.59-.213-.473-.427-.856-.478-.851-.049.007-.437.336-.86.73-.421.395-.85.716-.949.716-.1 0-.485-.125-.858-.278-.373-.156-.993-.582-1.378-.95s-.85-.995-1.035-1.393c-.186-.397-.339-.925-.342-1.175-.006-.28.229-.69.621-1.085.347-.347.591-.692.546-.768-.049-.075-.431-.284-.853-.468-.421-.183-1.013-.371-1.311-.42m-248.181 1.66c-.222.002-.508.063-.63.135-.142.083.157.3.808.584.567.25 1.4.787 1.85 1.195s1.051 1.06 1.335 1.447c.316.431.473.826.406 1.02-.06.175-.168.32-.244.322-.074.002-.236-.202-.361-.453-.123-.251-.571-.832-.994-1.29-.421-.46-1.094-1.027-1.491-1.262-.398-.235-1.008-.508-1.357-.608-.347-.1-.815-.142-1.039-.094-.222.047-.409.147-.411.221 0 .076.244.197.543.27.3.077.975.41 1.495.74.523.332 1.255.942 1.627 1.356.374.414.922 1.282 1.22 1.927.299.647.543 1.338.543 1.537 0 .203.1.334.225.3.149-.04.228-.432.23-1.13.003-.87.062-1.075.316-1.113.233-.033.342.128.425.633.1.6.134.636.293.316.1-.199.13-.606.067-.904-.061-.299-.32-.99-.573-1.537s-.842-1.387-1.308-1.868c-.469-.48-1.236-1.07-1.71-1.31-.471-.24-1.04-.435-1.265-.434m100.827 1.124c-.175.237-.289.715-.278 1.174.009.425.17 1.077.358 1.45.186.374.694 1.03 1.13 1.46.434.432 1.236.997 1.782 1.257.557.266 1.327.477 1.748.483.57.007.868-.101 1.217-.443.253-.247.423-.512.376-.588-.048-.074-.554-.378-1.126-.674s-1.522-.97-2.111-1.492a22 22 0 0 1-1.935-1.99l-.864-1.038zm-91.917 4.882c-.33-.206-.362-.18-.364.317-.004.5.027.527.36.319.199-.125.362-.268.363-.319 0-.05-.161-.193-.359-.317m91.849-8.632c-.008.454.197 1.163.548 1.899.305.647.953 1.663 1.437 2.26s1.433 1.505 2.108 2.016c.676.51 1.636 1.131 2.133 1.379.497.25 1.351.584 1.899.745.546.161 1.44.285 1.988.275l.994-.02c-2.382-.5-3.561-.864-4.158-1.132s-1.573-.835-2.169-1.261c-.597-.427-1.533-1.262-2.079-1.857-.548-.595-1.257-1.52-1.577-2.06-.318-.536-.7-1.424-.846-1.972l-.266-.994zm54.046 4.577c-.546-.047-1.361-.029-1.809.041a8 8 0 0 0-1.627.48c-.448.195-1.099.6-1.446.9s-.776.844-.949 1.207c-.174.364-.32.804-.324.979-.005.23.212.11.814-.452.452-.423 1.208-.939 1.679-1.143.472-.206 1.387-.436 2.034-.512.647-.075 1.664-.068 2.26.013.597.083 1.573.388 2.169.675.597.29 1.35.817 1.673 1.175.354.39.587.542.587.38 0-.15-.108-.538-.24-.86-.134-.323-.642-.938-1.13-1.366-.49-.427-1.297-.924-1.794-1.104a9 9 0 0 0-1.897-.413m-146.16-5.53c-.024-.027-.442.266-.928.652-.49.386-1.105.899-1.367 1.137-.416.376-.467.537-.391 1.243.047.449.292 1.221.543 1.718s.844 1.555 1.317 2.35c.474.796 1.054 1.584 1.291 1.75.418.297.454.283 1.566-.632.627-.515 1.135-1.018 1.128-1.117-.006-.1-.223-.996-.485-1.99-.39-1.487-.665-2.093-1.553-3.434-.594-.895-1.099-1.649-1.12-1.678m96.17-3.465c-.596.004-1.366.107-1.713.232-.346.123-.834.492-1.085.817-.391.508-.456.78-.456 1.902 0 1.142.085 1.482.678 2.699.515 1.06 1.035 1.748 2.17 2.884.821.82 1.939 1.755 2.485 2.075.546.322 1.483.761 2.08.978.728.266 1.531.401 2.44.41 1.048.013 1.498-.064 1.977-.344.341-.2.789-.648.994-.995.267-.452.374-.948.374-1.73 0-.934-.119-1.338-.799-2.712-.629-1.267-1.094-1.906-2.173-2.97-.911-.9-1.826-1.595-2.725-2.065-.744-.39-1.76-.815-2.257-.947-.498-.13-1.393-.235-1.99-.234m147.888 5.198-2.839 2.839c.3.997.767 1.628 1.293 2.124.528.495 1.084.858 1.319.86.29.002 1.187-.81 3.12-2.818 2.139-2.227 2.653-2.856 2.44-2.983-.15-.088-.312-.159-.361-.157-.051.001-.412-.306-.802-.682s-.849-.984-1.021-1.352l-.311-.667zM114.32-80.713c-.134 0-.392.148-.575.33-.182.18-.316.385-.298.453.018.066.276 0 .575-.15.298-.148.541-.353.542-.452 0-.1-.111-.18-.244-.18m-47.166-9.034c-.026.004-1.266.638-2.757 1.413-1.492.774-3.265 1.727-3.942 2.12-.96.552-1.178.755-.994.91.13.113 1.374.813 2.766 1.559 1.392.747 3.201 1.692 4.022 2.105.82.41 1.614.746 1.763.747.148 0 1.837-.932 3.752-2.07 1.914-1.14 3.602-2.143 3.75-2.228.201-.118-.267-.442-1.807-1.255a247 247 0 0 0-4.294-2.202c-1.216-.607-2.231-1.101-2.26-1.099m54.67 1.984c.086 0 .561.367 1.058.813.855.77.926.8 1.311.541.224-.15.527-.27.677-.267s.417.147.594.319c.177.17.318.433.315.582-.006.148-.232.443-.998 1.034l1.346 1.769-.911.904-.716-.86c-.392-.471-.835-.858-.985-.858s-.559.143-1.551.633l-.881-1.085 1.347-1.145-.678-.875c-.634-.817-.66-.893-.38-1.19.163-.173.367-.315.452-.316m1.103 2.185c.212.523.192.588-.316 1.027-.351.305-.414.417-.181.32.199-.085.626-.18.949-.215.374-.04.588-.163.588-.334 0-.148.224-.436.497-.635.273-.2.423-.41.334-.467-.091-.055-.357.046-.596.228-.422.323-.447.322-.967-.075l-.534-.408zM17.346-90.463c-.293.007-.942.343-1.582.82-.596.445-1.165.882-1.266.971-.117.105-.045.372.206.762.243.374.885.87 1.718 1.321.732.398 1.656.86 2.054 1.029.397.17.865.31 1.039.316.174.005.67-.252 1.1-.576.428-.324 1.079-.852 1.446-1.176.365-.323.66-.648.659-.723s-.712-.597-1.581-1.159c-.868-.564-1.966-1.153-2.438-1.31-.471-.16-1.082-.282-1.355-.275m254.128 2.79c-.287-.497-.521-.782-.524-.633-.003.148.226.636.51 1.084.304.48.824.98 1.269 1.221.414.224.75.345.747.27s-.338-.34-.743-.586c-.445-.273-.945-.81-1.259-1.357m.851-2.08c-.137 0-.361.13-.497.286-.198.232-.203.41-.026.95.119.365.486.932.813 1.261.454.456.767.606 1.318.633.703.033.725.018.774-.599.036-.43-.086-.835-.375-1.265-.233-.349-.725-.776-1.09-.95s-.777-.316-.917-.316"/></g></svg>