<svg xmlns="http://www.w3.org/2000/svg" fill="none" viewBox="0 0 32 32"><mask id="a" width="32" height="32" x="0" y="0" maskUnits="userSpaceOnUse" style="mask-type:alpha"><path fill="#d9d9d9" d="M0 0h32v32H0z"/></mask><g mask="url(#a)"><path fill="#e31e24" d="M13.402 98.724c.52-.09 2.17-.125 3.661-.074 1.491.049 3.2.21 3.797.356.596.147 1.483.485 1.97.754.487.268 1.241.793 2.46 1.843l-.008-1.04c-.004-.835.07-1.112.384-1.401.328-.31.636-.362 2.077-.362 1.38 0 1.75.06 2.014.323.27.27.316.589.275 1.988-.026.916-.13 1.748-.229 1.847-.099.1-.18.283-.178.408.002.148.36.24 2.083.316l.04 5.875c.032 4.441-.014 5.932-.182 6.109-.123.13-.602.231-1.08.226-.472-.004-.9.075-.948.174-.05.099.035.282.188.407.222.179.279.628.272 2.169-.008 1.905-.019 1.951-.505 2.311-.396.292-.767.366-1.808.361-1.211-.006-1.353-.047-1.853-.548-.47-.468-.53-.64-.453-1.266.05-.397.05-.722 0-.722-.052.002-.6.409-1.22.907-.621.499-1.699 1.144-2.395 1.434-.696.289-1.796.612-2.441.717-.648.107-2.112.193-3.254.193-1.244-.002-2.552-.114-3.254-.282-.647-.154-1.705-.557-2.35-.897a13.3 13.3 0 0 1-2.17-1.492c-.547-.481-1.37-1.439-1.83-2.13-.459-.689-1.04-1.783-1.295-2.428-.254-.647-.55-1.663-.659-2.26a15 15 0 0 1-.195-2.214c0-.622.13-1.762.29-2.532.156-.77.55-1.97.874-2.666.326-.696.96-1.754 1.412-2.35s1.137-1.336 1.519-1.644a19 19 0 0 1 1.466-1.039 13 13 0 0 1 1.672-.843 11.3 11.3 0 0 1 1.853-.528m10.43 16.715c-.247-.228-.342-.139-.806.771-.316.622-1.1 1.606-1.98 2.483-.808.808-1.936 1.716-2.539 2.047q-1.082.592-.542.462c.299-.071.868-.188 1.266-.26.397-.072.58-.141.407-.154-.175-.012-.277-.103-.226-.203.05-.099.557-.178 1.13-.178.6.001 1.191-.104 1.401-.25.334-.233.305-.25-.361-.228-.398.013-.746-.058-.773-.157-.026-.099.3-.205.724-.234.49-.032.813.033.886.181.084.17.325.083.904-.329a10 10 0 0 0 1.377-1.22c.322-.361.584-.841.58-1.065-.002-.224.16-.569.358-.768.2-.198.325-.422.279-.497-.05-.074-.474-.138-.946-.141-.484-.002-.98-.116-1.138-.26m-9.256-15.988c-.523.009-1.275.094-1.673.19-.398.094-1.252.43-1.898.748-.685.338-1.703 1.082-2.44 1.781-.896.848-1.489 1.616-2.02 2.621-.416.781-.898 1.95-1.074 2.597q-.318 1.173-.311 3.073c.005 1.502.1 2.181.445 3.254.242.745.813 1.965 1.269 2.712.457.745 1.267 1.744 1.802 2.222.535.477 1.583 1.177 2.33 1.556.923.47 1.727.735 2.53.831.645.075 1.42.083 1.718.014.54-.123.538-.124-.453-.578-.547-.249-1.43-.794-1.963-1.21s-1.278-1.162-1.658-1.659-.974-1.474-1.321-2.17-.76-1.855-.919-2.576c-.157-.722-.285-1.861-.283-2.531s.123-1.79.267-2.486.633-2.018 1.082-2.938c.621-1.271 1.111-1.967 2.038-2.9.724-.726 1.68-1.463 2.351-1.808.618-.32 1.127-.62 1.13-.67-.001-.05-.43-.084-.95-.073m2.667.624c-.317-.056-.883.038-1.357.226-.448.179-1.296.645-1.887 1.037-.59.394-1.363 1.064-1.717 1.489-.354.424-.95 1.278-1.322 1.898-.373.618-.855 1.777-1.072 2.572-.285 1.045-.392 1.924-.382 3.164.011 1.318.122 2.055.476 3.164.255.796.78 1.934 1.164 2.531.385.596 1.224 1.575 1.862 2.174.85.798 1.535 1.245 2.562 1.671l1.401.584c1.785-.927 2.795-1.704 3.536-2.44.899-.891 1.477-1.667 1.953-2.621.564-1.132.71-1.677.893-3.285l.217-1.931c-.853-.643-1.047-1.009-1.175-1.654-.1-.497-.18-1.393-.18-1.99 0-.596.1-1.285.225-1.529.199-.394.165-.534-.304-1.221-.29-.426-.942-1.181-1.446-1.68-.504-.497-1.365-1.164-1.911-1.483-.548-.318-1.238-.622-1.536-.676m12.022 16.895c-2.335 0-3.082.054-3.164.119-.083.068-.137.718-.12 1.447.024 1.131.075 1.327.346 1.327.274 0 .31-.163.271-1.266-.038-1.024.006-1.265.226-1.266.219 0 .262.241.226 1.266l-.044 1.266h2.26zm-6.778 1.627c.562 0 .795.071.754.226-.033.124-.396.246-.814.271-.568.034-.753-.022-.754-.225 0-.201.212-.272.814-.272m1.32-.649c.13.009.232.098.229.197-.006.099-.416.201-.914.227-.513.025-.905-.033-.907-.136 0-.1.306-.208.678-.242.372-.035.784-.055.913-.046m.668-.891c.1.018.18.148.18.289 0 .186-.238.257-.858.257-.47 0-.859-.082-.864-.181-.003-.099.302-.23.678-.29.375-.059.764-.093.864-.075m.11-.991c.505 0 .704.076.704.271 0 .206-.23.273-.95.279-.841.007-.921-.024-.703-.272.143-.161.543-.278.95-.278m3.212-.325c-.544-.029-1.058.005-1.146.075s-.145.198-.129.279c.018.083.56.151 1.206.152.85 0 1.158-.064 1.115-.226-.036-.137-.448-.248-1.046-.28m3.276-11.245c-5.75 0-6.707.061-6.861.225-.118.125-.172.471-.12.769s.226 1.111.39 1.807c.21.906.27 1.753.205 2.984-.05.943-.224 2.205-.387 2.801-.162.597-.251 1.268-.197 1.493.098.402.123.406 3.535.406h3.435zm-5.345.236c.13.043.194 1.671.194 5.019 0 4.579-.024 4.957-.317 5.002-.294.043-.318-.302-.347-4.893-.016-2.715.04-4.993.124-5.067a.41.41 0 0 1 .346-.061m-2.592.928c-.09-.056-.164.371-.166.949-.002.576.09 1.416.207 1.862.149.569.319.833.574.884.336.067.35.012.215-.812a21 21 0 0 0-.407-1.834c-.143-.521-.334-.993-.423-1.049m-4.99-6.149c.199.159.42.287.497.285.074-.002.522.259.995.577.472.32 1.251.951 1.732 1.401.48.452 1.126 1.229 1.435 1.726s.59.944.622.996c.033.047.181-.095.328-.317.211-.323.435-.407 1.08-.407.447 0 .854-.081.905-.181.048-.1-.48-.751-1.176-1.446-.696-.696-1.347-1.266-1.446-1.266-.1.001-.14.082-.09.181.049.099-.094.229-.316.289-.225.06-.673.06-.995 0-.323-.06-.587-.19-.587-.289s.385-.177.858-.174c.774.007.832-.019.588-.274-.186-.192-.67-.295-1.523-.324-.818-.027-1.272-.121-1.31-.267-.036-.137.137-.237.437-.255.273-.014.009-.082-.588-.148-.596-.067-1.247-.185-1.446-.26l-.361-.137zm9.48 3.538c-1.219 0-1.266.017-1.083.362.162.305.349.354 1.23.316.826-.036 1.045-.109 1.083-.361.04-.277-.118-.317-1.23-.317m-3.534-.142c.512.029.93.15.978.278.057.162-.201.226-.935.226-.558 0-1.053-.062-1.102-.136-.047-.074-.03-.201.038-.278.07-.08.528-.121 1.021-.09m5.173-3.293c-2.333 0-3.081.054-3.164.119-.083.067-.137.678-.12 1.356.015.679.09 1.27.165 1.315.074.043.217.023.316-.046.1-.067.181-.631.181-1.253 0-.633.08-1.128.18-1.128.102 0 .183.514.183 1.176v1.173h2.26zm-6.077 2.208c.512.029.932.15.979.278.057.163-.202.226-.936.226-.558 0-1.054-.062-1.103-.136-.046-.074-.03-.201.039-.278.069-.08.528-.121 1.021-.09m5.536-2.028c.101.001.18.484.18 1.085 0 .602-.079 1.084-.18 1.085-.1-.001-.18-.483-.18-1.085 0-.601.08-1.084.18-1.085m-8.09-51.886c.174 0 .724.203 2.124.904v10.485l.542.272c.299.148.695.577.881.949.3.6.608.806 2.667 1.793a133 133 0 0 0 4.046 1.868v2.712l-.768.622c-.424.342-2.03 1.665-3.57 2.94a4793 4793 0 0 0-7.097 5.887c-2.36 1.96-4.433 3.567-4.61 3.573-.174.004-2.067-.987-4.204-2.2l-6.327-3.59.02-12.798 3.74-3.163c2.059-1.739 5.653-4.759 7.991-6.71 2.335-1.948 4.391-3.544 4.565-3.544m9.49 17.361c-.027.007-.656.52-1.402 1.144-.745.626-3.104 2.584-5.242 4.352s-4.882 4.04-6.097 5.048c-2.037 1.69-2.21 1.884-2.223 2.466-.011.585.01.612.303.361.176-.15 2.517-2.103 5.206-4.34 2.69-2.239 5.93-4.923 7.202-5.967 2.111-1.73 2.313-1.947 2.305-2.484-.003-.322-.027-.584-.052-.58M9.468 75.084c-.1-.018-.405.064-.677.181-.485.208-.429.251 2.35 1.84 1.564.894 2.948 1.647 3.073 1.673.143.028.224-.17.222-.543-.004-.569-.082-.63-2.395-1.853-1.316-.696-2.473-1.28-2.573-1.298m15.096-12.89c-.05.01-.342.275-.646.592a21 21 0 0 1-1.07 1.03c-.282.25-.804.68-1.16.958-.358.276-.893.708-1.191.958s-1.52 1.263-2.712 2.256-2.535 2.12-2.984 2.508c-.446.388-1.22 1.041-1.716 1.452a86 86 0 0 0-1.561 1.325c-.361.318-.85.705-1.085.862-.426.284-.418.292 1.2 1.157a96 96 0 0 1 2.349 1.294l.723.423c4.065-3.397 6.497-5.41 8.028-6.664s3.747-3.073 4.926-4.044l2.142-1.763c-1.751-.806-2.91-1.335-3.706-1.699-.795-.363-1.486-.652-1.537-.645m97.629-14.182a6.2 6.2 0 0 1 2.125-.193c.622.049 1.332.17 1.582.27.247.099.513.306.587.457.099.201-.395.805-1.812 2.214-1.81 1.804-1.938 1.977-1.826 2.48.065.299.187.706.267.905s.293.545.47.771c.191.24.736.52 2.314.939l1.897-1.91c1.327-1.331 2.004-1.888 2.249-1.847.249.042.421.32.596.962.145.533.215 1.423.17 2.17a6.5 6.5 0 0 1-.596 2.419 6.2 6.2 0 0 1-1.469 2.034c-.523.484-1.336 1.059-1.808 1.277-.671.313-1.273.413-4.655.523l-2.351 2.647a3221 3221 0 0 1-3.892 4.375c-.848.953-2.683 3.072-4.08 4.713-1.995 2.343-2.701 3.052-3.294 3.3-.416.173-.938.316-1.162.314-.225 0-.713-.08-1.085-.18-.373-.098-.937-.404-1.251-.677-.317-.273-.722-.822-.901-1.22-.179-.397-.325-1.088-.325-1.537s.141-1.113.312-1.48c.171-.368 2.434-2.971 5.026-5.785s5.44-5.92 6.328-6.9c.887-.977 1.679-1.953 1.759-2.169.081-.213.065-.838-.036-1.384a6.8 6.8 0 0 1-.033-1.988c.082-.546.306-1.36.497-1.807.19-.449.709-1.207 1.152-1.688s1.13-1.065 1.528-1.298 1.169-.551 1.717-.707m104.046.571c.199-.052.605-.053.903 0 .298.05.787.212 1.085.36.298.149.814.527 1.147.838.33.312.772.893.976 1.29.206.398.381 1.066.39 1.483.014.636-.087.872-.631 1.446-.638.675-.647.7-.421 1.41a6 6 0 0 1 .246 1.356c.015.497-.12.769-.622 1.266-.35.347-.636.796-.631.995.003.22-.581.94-2.985 3.307l-1.536.147c-1.448.137-1.572.183-2.123.787-.322.352-.586.72-.586.82s-.658.832-1.46 1.627c-.803.796-2.859 2.937-4.568 4.757-3.058 3.261-3.116 3.31-3.789 3.254-.649-.052-.75.019-3.516 3.018l-.973-.013c-.537-.007-1.238-.148-1.561-.316-.324-.167-.936-.65-1.361-1.073s-.963-1.175-1.196-1.672c-.318-.68-.405-1.137-.356-1.847.063-.915.112-.99 1.645-2.532 1.336-1.34 1.582-1.677 1.582-2.174.002-.52.489-1.097 4.196-4.972 2.307-2.412 4.747-4.914 6.653-6.734l.002-2.351 1.671-1.672c1.227-1.229 1.789-1.67 2.124-1.669.247.002.777-.239 1.174-.537.398-.298.845-.545.995-.55.149-.006.659.195 1.989.903l.588-.43c.323-.236.75-.471.949-.522m-57.322.5.215.813c.118.448.257 1.016.311 1.265.08.377.286.507 2.378 1.098l.873-.82c.479-.45.967-.815 1.085-.814.117.005.925.534 1.793 1.175.867.642 1.577 1.228 1.582 1.305 0 .074-.214.624-.951 2.306l1.222 1.934 1.311-.108c1.133-.094 1.333-.065 1.474.208.088.174.362 1.05.61 1.943.436 1.58.439 1.645.132 2.26-.232.464-.56.74-1.241 1.039-.895.392-.93.433-.93 1.13 0 .687.053.756 1.083 1.401.648.406 1.084.804 1.085.994.002.174-.19.825-.425 1.447a29 29 0 0 1-.994 2.26c-.374.745-.677 1.128-.885 1.126-.174-.002-.805-.126-1.401-.276-.971-.246-1.126-.245-1.491.003-.224.152-.408.378-.409.503-.001.124.123.592.275 1.04.235.69.242.924.042 1.536-.223.682-.35.777-4.202 2.65l-.417-.42a8.6 8.6 0 0 1-.814-1.007c-.378-.56-.451-.588-2.747-.597l-.542 1.09c-.298.599-.623 1.12-.723 1.162-.099.038-1.076-.217-2.17-.566-1.093-.35-2.097-.728-2.229-.84-.164-.143-.203-.432-.124-.929.061-.398.151-.928.198-1.176.072-.377-.069-.566-1.822-1.863l-1.266.402c-.695.222-1.366.357-1.491.301-.125-.058-.714-.858-1.312-1.777-.597-.92-1.085-1.793-1.083-1.944.002-.15.124-.597.274-.995.165-.432.492-.849.814-1.039.498-.293.531-.373.426-1.085-.059-.422-.13-.809-.155-.858-.027-.05-.558-.296-1.179-.543-.622-.25-1.178-.534-1.234-.633-.056-.1-.085-.546-.064-.994.022-.449.139-1.538.262-2.424.174-1.261.3-1.66.584-1.839.201-.126.883-.224 1.537-.217 1.079.01 1.188-.024 1.33-.422.121-.337.035-.627-.399-1.335-.486-.792-.541-1.004-.427-1.707.116-.719.277-.928 1.575-2.04.795-.678 1.546-1.233 1.672-1.23s.673.33 1.221.729c.752.545 1.115.7 1.491.637.273-.047.584-.19.691-.316.108-.127.3-.597.426-1.045.127-.449.344-1.081.482-1.406l.251-.593zm-95.478.157c.342-.15.867-.212 1.297-.154.398.055 1.17.32 1.718.59.587.291 1.547 1.045 2.35 1.848.744.744 1.537 1.72 1.76 2.169.222.448.458 1.097.525 1.446.07.372.029.858-.103 1.176-.123.298-.583.847-1.022 1.22-.573.486-.965.676-1.386.672-.324-.003-1.036-.164-1.582-.356-.548-.191-1.056-.353-1.13-.356-.076-.002-1.99 2.172-4.254 4.83a3586 3586 0 0 0-9.767 11.526l-2.368 1.31c-1.303.722-2.45 1.27-2.55 1.221s-.18-.211-.18-.361c0-.151.46-1.433 2.04-5.424l2.379-2.803c1.309-1.54 4.05-4.794 6.09-7.231 2.043-2.437 4.073-4.878 5.31-6.418l-.349-.724a5.2 5.2 0 0 1-.42-1.536c-.062-.688.016-.934.499-1.603.314-.436.828-.905 1.143-1.042m131.264 20.712c-1.235 1.248-1.398 1.487-1.365 2.024.019.334.183.933.362 1.331s.623 1.03.99 1.401c.365.374.889.79 1.162.927s.783.307 1.13.378c.606.123.68.076 1.781-1.108l1.15-1.237c-1.081-.309-1.637-.522-1.936-.673s-.848-.612-1.221-1.022c-.372-.409-.675-.847-.673-.972.002-.123.21-.428.461-.677l.459-.453-.897-1.337zm-80.794-21.316c-.832.01-1.607.146-2.26.4-.629.244-1.336.723-1.92 1.301-.651.642-1.047 1.24-1.331 2-.354.954-.388 1.291-.285 2.802.069.985.044 1.911-.056 2.17-.096.25-.894 1.228-1.772 2.177-.879.947-3.224 3.509-5.212 5.692a557 557 0 0 1-4.903 5.326c-1.069 1.126-1.312 1.498-1.426 2.172-.114.672-.063.967.293 1.695.238.485.675 1.03.973 1.215.311.19.89.336 1.357.34.473.001 1.016-.13 1.3-.312.268-.174 1.853-1.896 3.525-3.823 1.67-1.928 3.404-3.933 3.853-4.454.446-.522 1.891-2.178 3.209-3.68 1.317-1.503 2.578-2.787 2.802-2.856.225-.067 1.179-.132 2.124-.144 1.468-.018 1.848-.09 2.621-.489.498-.258 1.277-.864 1.731-1.346.519-.552.957-1.252 1.172-1.875.213-.611.347-1.493.348-2.288.002-.712-.06-1.363-.137-1.447-.079-.082-.934.642-1.899 1.61-1.312 1.315-1.871 1.76-2.209 1.75-.249-.005-.868-.146-1.374-.314-.587-.193-1.123-.535-1.471-.938-.3-.347-.638-.958-.749-1.356-.11-.397-.201-.905-.203-1.13.001-.27.578-.998 1.716-2.17.945-.968 1.656-1.825 1.582-1.903-.075-.076-.704-.134-1.399-.125M162.838 74.3c-.065.002-.167.126-.225.276-.058.147-.045.304.03.346.074.042.827.291 1.673.555 1.227.383 1.562.43 1.669.241.072-.132.135-.28.139-.329.003-.051-.707-.317-1.578-.592-.874-.275-1.641-.497-1.708-.497M265.47 49.916c.696-.012 1.956.096 2.802.245.844.146 2.107.464 2.803.705.696.242 2.16.84 3.254 1.332 1.093.49 2.211.947 2.486 1.012.273.067.827.427 1.232.8.402.372.868 1.042 1.039 1.49.217.577.302 1.339.293 2.623-.011 1.294-.129 2.218-.421 3.253-.225.796-.788 2.179-1.25 3.074-.579 1.119-1.211 2.002-2.021 2.828-.949.967-1.371 1.26-2.172 1.502-.754.227-1.148.258-1.627.123-.349-.098-1.325-.485-2.17-.863-1.23-.549-1.753-.685-2.621-.683-.75.002-1.307.12-1.807.384-.398.21-.899.571-1.111.804-.213.234-.651.953-.974 1.6-.322.645-.805 1.5-1.073 1.898-.265.398-.579.968-.695 1.266s-.436.76-.711 1.03a4.5 4.5 0 0 1-1.177.769 4.6 4.6 0 0 1-1.446.278c-.423-.002-1.176-.112-1.673-.244s-1.434-.502-2.079-.824a15.5 15.5 0 0 1-2.151-1.338 14 14 0 0 1-1.74-1.66 17 17 0 0 1-1.315-1.808 10 10 0 0 1-.857-1.988c-.206-.727-.269-1.353-.19-1.899.067-.464.475-1.433.952-2.26.461-.795 1.035-1.976 1.279-2.621.242-.648.647-1.582.9-2.08.253-.497.805-1.391 1.226-1.988.423-.596 1.376-1.654 2.119-2.35.745-.696 1.995-1.644 2.779-2.107a21 21 0 0 1 3.01-1.4c.869-.31 2.09-.633 2.712-.72.62-.087 1.699-.168 2.395-.183m-91.03 24.226c-.15.002-.756.212-1.347.467-.592.255-1.059.533-1.04.62.02.087.096.153.172.15.074-.006.664-.286 1.311-.624.645-.34 1.052-.615.904-.613m-4.167-1.432c-.045.019-.533.064-1.085.1-.622.042-1.119.182-1.312.374-.172.168-.311.365-.31.441.003.074.594.132 1.314.128l1.312-.007c.84 1.142 1.143 1.471 1.22 1.468.074-.005.176-.13.226-.278.049-.15-.219-.72-.596-1.266-.378-.547-.725-.978-.769-.96M22.35 60.026c-.224.003-.54.09-.7.195s-.383.388-.497.628c-.116.248-.36.438-.566.438-.199 0-.357.1-.354.225s.147.329.316.455c.25.185.215.185-.177 0-.414-.195-.556-.182-.95.087-.254.173-.462.397-.462.497s.081.22.18.272c.1.048.182.172.182.271 0 .103-.214.134-.498.07-.374-.083-.633.005-1.04.348l-.541.46c.769.299 1.033.469 1.084.568.049.1-.188.038-.528-.135-.596-.304-.64-.303-1.13.031-.288.197-.413.373-.286.406.125.033.227.121.227.195s-.237.136-.528.136c-.319 0-.712.18-.993.452l-.464.453c1.116.91 1.442 1.255 1.442 1.355s-.264-.02-.587-.266c-.323-.245-.832-.451-1.13-.459-.303-.005-.778.172-1.078.402l-.533.414c.663.139.904.298.962.44.086.214-.026.238-.616.131-.526-.096-.836-.056-1.13.147-.365.247-.38.309-.142.592.148.174.27.378.272.453.002.073-.24.053-.538-.046-.431-.145-.633-.116-.989.135-.245.174-.447.378-.451.453-.003.074.176.305.4.511.371.344.375.365.046.247a8 8 0 0 0-.723-.215c-.2-.048-.545.003-.769.115-.224.11-.448.383-.499.607-.049.214-.234.41-.478.516l-.217.078c-.264.105-.6.316-.8.504a1.33 1.33 0 0 0-.406.981c.003.324.087.75.186.95.1.198.425.442.723.541q.542.18.994 0c.248-.099.676-.466.95-.813.272-.349.618-.63.768-.627.148.004.412-.14.582-.316.172-.177.314-.423.316-.548.004-.125.29-.35.639-.497.347-.15.723-.455.831-.679.11-.224.148-.61.087-.858l-.113-.452.708.904c.728-.701.975-1.027 1.018-1.175.042-.15.323-.333.625-.407.331-.082.677-.35.866-.676.174-.298.46-.543.633-.543.174-.002.504-.226.734-.499s.577-.584.768-.692c.194-.107.494-.453.667-.769.174-.314.357-.49.407-.392q.09.18.453 0c.198-.099.442-.385.541-.632.109-.271.326-.452.543-.453.198 0 .524-.204.723-.452s.402-.452.452-.452.254-.205.453-.452c.198-.249.462-.45.586-.446.125.003.368-.14.538-.317s.314-.585.316-.909q.003-.588-.446-1.04c-.25-.25-.635-.45-.859-.446m85.258 11.379c.555-.002.854.105 1.136.407.209.228.428.617.486.864.058.25-.013.716-.155 1.04-.143.323-.423.668-.622.768s-.606.18-.905.18q-.541 0-1.084-.541c-.334-.335-.549-.745-.564-1.07-.013-.339.155-.731.468-1.086.396-.452.63-.557 1.24-.562M73.014 54.989c-.083-.034-.217.07-.3.231a.42.42 0 0 0 .079.514c.126.12.227.32.225.445 0 .125-.125.226-.273.226-.15 0-.333-.125-.407-.279-.103-.209-.511.175-1.684 1.582-.853 1.024-2.678 3.202-4.056 4.843-1.377 1.64-3.561 4.244-4.85 5.786-2.332 2.784-2.345 2.806-2.137 3.39.152.43.153.623.007.723-.112.074-.27.012-.353-.136-.083-.15-.18-.23-.218-.18-.037.048-.286.598-.551 1.22-.268.621-.486 1.19-.489 1.266-.001.073.262-.118.587-.427.326-.308.735-.613.908-.678.174-.063.315-.217.313-.342-.002-.124.1-.322.226-.437.175-.163.376-.147.862.066l.633.277c.84-1.06 2.259-2.76 3.694-4.458a1221 1221 0 0 1 5.242-6.149 804 804 0 0 0 3.674-4.294l1.04-1.231c-1.567-1.472-2.09-1.926-2.172-1.958m179.181 8.51c-1.088-.038-1.51.028-2.049.317-.372.199-.788.585-.924.858a6 6 0 0 0-.357.95c-.063.249.01.94.164 1.536.152.596.49 1.451.75 1.898.26.448 1.01 1.369 1.664 2.047.654.676 1.678 1.548 2.274 1.936s1.573.879 2.169 1.092 1.533.394 2.079.402c.682.009 1.179-.097 1.579-.335.321-.194.761-.676.978-1.074.324-.594.372-.897.278-1.717-.067-.568-.394-1.574-.766-2.351-.481-.998-.995-1.692-1.949-2.63-.962-.947-1.711-1.482-2.908-2.079-1.424-.708-1.775-.81-2.982-.85m-87.156-11.253c-1.051.434-1.732.7-2.19.869l-.833.306c-1.369-1.177-1.85-1.523-1.954-1.529-.101-.003-.692.4-1.311.896l-1.124.905 1.486 2.26-1.331 2.53-2.777.181c-.355 2.363-.356 2.749-.205 2.85.112.076.733.3 1.38.5l1.175.36c.463 1.889.647 2.58.705 2.754.074.215-.081.486-.478.842-.324.29-.777.677-1.006.86l-.417.332 1.85 2.712 2.42-1.033 2.983 2.208c-.197 1.33-.257 1.91-.262 2.148-.009.381.15.475 1.437.858.795.237 1.547.43 1.672.43s.402-.47.617-1.04c.213-.571.437-1.091.497-1.154.058-.062.819-.165 1.688-.226l1.582-.112c1.19 1.69 1.638 2.179 1.763 2.176s.754-.251 1.401-.55c.646-.298 1.177-.603 1.177-.677.001-.076-.163-.624-.363-1.22l-.368-1.085 2.266-2.3c1.958.576 2.54.727 2.557.71.014-.023.276-.629.587-1.348.529-1.233.544-1.325.246-1.558a15 15 0 0 0-1.085-.724l-.768-.475.09-2.967c1.675-.695 2.19-.902 2.224-.91.029-.005-.114-.68-.317-1.501l-.37-1.492h-2.712l-1.669-2.44c.618-1.401.832-1.93.873-2.08.047-.17-.34-.573-1.043-1.085-.614-.446-1.204-.84-1.312-.875-.107-.033-.577.331-1.045.814l-.854.875c-1.621-.61-2.315-.834-2.588-.89-.443-.092-.519-.22-.689-1.144-.105-.57-.228-1.14-.271-1.265-.057-.157-.569-.227-1.707-.227h-1.627zM60.386 73.4c-.184 0-.455.141-.603.316-.15.174-.324.418-.389.543-.065.123.206.042.604-.18.396-.225.72-.47.722-.543 0-.076-.15-.136-.334-.136M5.041 67.925l-.013 5.745c.817.403.826.385.96-.97.076-.76.139-3.311.144-5.668l.006-4.29-1.085-.56zm102.626 4.21c-.235 0-.567.14-.737.316a.76.76 0 0 0-.206.722c.056.222.264.489.463.588.199.1.525.139.724.09s.442-.253.542-.451c.132-.264.107-.487-.09-.814-.166-.278-.436-.452-.696-.452m108.368-9.037c-.242.09-.418.25-.393.358.027.106-1.139 1.45-2.589 2.988-2.601 2.758-2.636 2.807-2.59 3.56.043.728.084.78.859 1.063.448.166.813.412.813.548 0 .135-.163.27-.362.297-.199.028-.727-.135-1.175-.363-.665-.336-.83-.519-.904-1.007l-.09-.596-1.989 1.97c.84.51 1.411.718 1.808.79.398.075 1.15.138 1.672.142l.95.007a336 336 0 0 1 5.283-5.514l2.31-2.35c-1.471-.613-2.162-1.081-2.486-1.434-.324-.354-.608-.64-.633-.633-.026.006-.242.086-.484.174m37.009 2.167c.533.002 1.211.172 1.804.452.523.248 1.404.877 1.963 1.4.557.522 1.204 1.275 1.438 1.672.231.398.479 1.05.549 1.447.084.477.042.925-.126 1.32-.161.379-.485.701-.886.882-.38.171-.922.255-1.356.206-.397-.044-1.211-.317-1.807-.608-.597-.29-1.45-.898-1.899-1.348-.446-.45-1.016-1.225-1.263-1.72-.293-.586-.453-1.208-.453-1.775-.001-.76.076-.944.589-1.402.477-.426.755-.528 1.447-.526m-92.841 4.52c-.077 0-.543.188-1.039.418-.497.227-.966.553-1.04.721-.076.168-.076.307 0 .309.074.002.543-.168 1.04-.38l.903-.38c1.401 1.037 1.949 1.411 2.125 1.5.24.123.336.075.406-.201.071-.286-.161-.535-1.085-1.175-.647-.448-1.236-.813-1.31-.811m91.517-3.315c-.077.067-.126.371-.108.676.018.307.212.924.429 1.372.218.447.766 1.186 1.218 1.642s1.147.996 1.544 1.202c.398.206 1.009.432 1.356.503s.857.079 1.13.017c.273-.061.498-.191.498-.29-.001-.1-.102-.138-.227-.084s-.673-.068-1.22-.272a9.3 9.3 0 0 1-1.853-1.004c-.472-.347-1.06-.895-1.308-1.217-.246-.324-.643-1.056-.882-1.625-.24-.571-.499-.985-.577-.92m13.568-15.827c-.398.01-1.211.092-1.808.179-.596.086-1.533.29-2.079.447-.548.16-1.606.57-2.351.916-.746.345-1.843.979-2.44 1.405-.596.425-1.614 1.345-2.26 2.044-.647.698-1.44 1.707-1.762 2.24-.321.536-.873 1.664-1.225 2.508-.352.846-.744 1.74-.871 1.989l-.23.452c2.332-.12 3.023-.047 3.726.177.546.174 1.523.607 2.17.963.649.358 1.742 1.217 2.447 1.924.7.701 1.552 1.763 1.892 2.36.34.596.75 1.573.911 2.17l.293 1.083c1.328-2.671 1.84-3.418 2.321-3.823.398-.336 1.089-.734 1.537-.883.447-.148 1.139-.265 1.536-.261.398.005 1.17.162 1.718.35.543.187 1.009.326 1.039.312.025-.019-.068-.318-.209-.666-.141-.347-.313-1.12-.382-1.717-.072-.624-.031-1.7.094-2.531.121-.796.424-2.016.673-2.712.248-.696.707-1.75 1.019-2.343.313-.593.982-1.528 1.487-2.08.504-.55 1.278-1.18 1.718-1.4l.798-.402c-1.961-.868-3.224-1.366-4.068-1.662-.846-.298-2.31-.66-3.254-.8-.945-.143-2.042-.25-2.44-.239m-48.541 6.342c-.119-.41-.126-.408-.731.19-.457.45-.602.738-.571 1.137.023.293.205.898.405 1.347.199.446.358.934.355 1.085-.006.148-.232.497-.503.772-.271.276-.636.499-.81.497-.173-.002-.412.18-.528.403-.117.226-1.235 1.49-2.485 2.81-1.765 1.862-2.365 2.39-2.678 2.35-.345-.045-.406.033-.407.535-.004.437-.235.866-.908 1.673-.496.596-.903 1.165-.904 1.265 0 .1.062.184.136.188.074.003 1.825-1.705 3.887-3.797s3.873-4.047 4.023-4.346c.201-.401.472-.595 1.039-.745.423-.112.89-.29 1.04-.392.201-.138.413-.09.814.188.298.208.907.544 1.355.748.446.206.956.376 1.13.378s.54-.186.813-.417l.498-.422a11.8 11.8 0 0 1-2.367-1.905c-.604-.626-1.409-1.588-1.791-2.134-.381-.548-.747-1.18-.812-1.408M21.898 50.093c-.075.008-1.235.946-2.576 2.085a2375 2375 0 0 1-7.447 6.268l-5.006 4.196c-.018 7.042.043 8.587.159 8.588.1 0 .568-.33 1.039-.73.472-.402 1.712-1.442 2.757-2.311 1.043-.87 2.182-1.779 2.531-2.02.347-.242.843-.645 1.1-.898.256-.253 1.091-.948 1.854-1.544.765-.597 1.756-1.43 2.2-1.853.447-.424 1.037-.879 1.31-1.016.273-.136.625-.441.782-.678s.547-.552.866-.702l.58-.27c-.01-7.066-.075-9.118-.149-9.115m230.954 15.713c-.061 0-.155.082-.209.18-.054.1-.021.486.072.86.095.373.462 1.063.814 1.536.352.472.987 1.093 1.41 1.38a10.3 10.3 0 0 0 1.491.817c.398.163.948.295 1.221.294.272-.002.477-.097.452-.209s-.413-.298-.859-.412c-.447-.115-1.181-.46-1.627-.765-.447-.304-1.051-.831-1.34-1.167-.289-.338-.703-1.044-.92-1.565-.217-.522-.443-.949-.505-.949m-97.124 2.168c-.048 0-.088.061-.085.135.004.076.268.613.588 1.195.32.584.726 1.194.903 1.357.275.253.322.255.319.024-.005-.15-.373-.82-.821-1.491-.446-.67-.853-1.22-.904-1.22m21.15 1.151c-.1-.037-.285.095-.408.293-.209.344-.158.378.865.591.598.123 1.13.185 1.18.136.051-.05.089-.179.085-.29-.004-.108-.352-.3-.773-.428a21 21 0 0 1-.949-.302m77.303-2.964c-.242-.129-.354-.129-.361 0-.005.103.132.484.306.847.173.362.683.99 1.129 1.393.447.401 1.16.878 1.583 1.057.422.179.808.303.86.28.05-.025.031-.199-.045-.385-.076-.188-.382-.437-.68-.555-.298-.117-.899-.535-1.335-.925-.435-.391-.862-.895-.949-1.118s-.314-.491-.508-.594m-41.238-5.904a229 229 0 0 1-4.001 4.239c-1.833 1.89-2.321 2.5-2.321 2.892 0 .273.162.76.361 1.084s.424.592.498.596.226-.097.336-.227c.11-.128.192-.49.181-.802a1.4 1.4 0 0 1 .341-.955c.199-.21.524-.387.723-.387.226 0 1.136-.814 2.442-2.186 1.142-1.204 2.222-2.42 2.395-2.706.174-.285.459-.517.633-.514.173.004.459-.158.633-.36.256-.3.276-.444.108-.775a10 10 0 0 1-.431-1.074l-.22-.666zm63.463-6.255a2.5 2.5 0 0 0-.94.045 5.5 5.5 0 0 0-.995.412c-.278.154-.911.714-1.404 1.247-.557.602-1.188 1.588-1.663 2.597-.421.895-.889 2.155-1.043 2.802-.152.645-.279 1.866-.282 2.712-.002.873.11 1.887.26 2.35.146.447.513 1.078.815 1.402.455.486.684.587 1.32.584a3.2 3.2 0 0 0 1.491-.427c.398-.233 1.111-.862 1.582-1.397.472-.537 1.118-1.463 1.432-2.06.315-.597.761-1.654.994-2.35s.511-1.877.619-2.622c.143-.987.141-1.65-.007-2.44-.111-.597-.342-1.32-.512-1.61a3.3 3.3 0 0 0-.763-.84c-.249-.174-.657-.356-.904-.405m-108.88 2.417c.125-.007.653.079 1.176.189a9.2 9.2 0 0 1 1.807.633c.472.236 1.19.775 1.595 1.198s.891 1.093 1.083 1.491.422 1.172.513 1.718c.101.602.101 1.334.002 1.853a8 8 0 0 1-.593 1.717c-.235.472-.745 1.138-1.13 1.48a7.5 7.5 0 0 1-1.515.992c-.618.282-1.184.372-2.35.374-1.287.002-1.698-.074-2.531-.474-.546-.26-1.349-.788-1.783-1.175-.442-.392-1.019-1.175-1.316-1.784-.291-.596-.577-1.533-.637-2.079a5.3 5.3 0 0 1 .172-1.99c.154-.545.556-1.358.894-1.807.336-.448 1.009-1.058 1.495-1.356a7.2 7.2 0 0 1 1.887-.754c.552-.116 1.105-.216 1.231-.226m-.045 2.769c-.506-.038-1.262.05-1.718.2a7 7 0 0 0-1.512.767c-.385.275-.893.825-1.126 1.222-.235.398-.427.967-.427 1.265s.168.908.374 1.356c.204.447.629 1.127.943 1.51.347.423 1.038.922 1.748 1.262.947.454 1.404.562 2.351.56.858-.001 1.437-.122 2.151-.446.537-.246 1.249-.75 1.582-1.123.458-.513.606-.845.608-1.356.001-.375-.116-1.084-.259-1.581-.161-.563-.562-1.248-1.056-1.809-.515-.586-1.143-1.055-1.775-1.332-.539-.235-1.387-.457-1.884-.495m107.978-2.783c.412 0 .748.161 1.13.543.393.394.556.744.594 1.28.029.408.02 1.201-.019 1.764-.04.562-.27 1.553-.512 2.198s-.722 1.562-1.065 2.034c-.344.472-.89 1.022-1.213 1.22s-.852.36-1.175.362c-.363 0-.751-.156-1.013-.407-.235-.225-.519-.733-.633-1.13a6.4 6.4 0 0 1-.204-1.446c.002-.398.123-1.231.27-1.853s.432-1.456.631-1.853a7.8 7.8 0 0 1 .949-1.387c.323-.363.831-.811 1.13-.992.298-.183.806-.331 1.13-.333m.165.725c-.085-.001-.085.182 0 .406.083.223.142 1.016.131 1.762-.014 1.052-.136 1.636-.542 2.617-.31.749-.872 1.65-1.381 2.215-.786.873-.824.953-.438.953.24 0 .69-.267 1.039-.618.34-.34.837-1.052 1.107-1.582.267-.53.615-1.452.768-2.049.156-.596.282-1.39.282-1.762-.001-.375-.088-.902-.197-1.175-.106-.275-.289-.556-.406-.631a.9.9 0 0 0-.363-.136m-.843.179c-.099 0-.192.06-.203.136-.013.075-.003.542.018 1.039.024.497-.096 1.392-.267 1.99-.17.596-.472 1.409-.671 1.807a6.4 6.4 0 0 1-.931 1.31c-.383.396-.508.65-.387.777.124.125.439-.093.986-.681.443-.476 1.006-1.313 1.252-1.858.284-.633.478-1.458.532-2.26.047-.696.032-1.49-.033-1.763-.063-.274-.197-.497-.296-.497m-57.153 5.422c-.111 0-.167.103-.123.225.043.125.48.449.97.72s1.156.495 1.48.497c.323.002.586-.056.587-.132-.001-.074-.244-.155-.542-.18s-.868-.209-1.266-.407c-.397-.2-.763-.443-.813-.543a.36.36 0 0 0-.293-.18m-62.026-.154c-1.008-.302-1.12-.305-1.093-.045.018.171.474.473 1.121.74.6.25 1.153.393 1.228.32s.074-.258 0-.408c-.075-.15-.64-.423-1.256-.607m118.238-4.364c-.07 0-.16.06-.202.136s-.135.543-.206 1.04a8.2 8.2 0 0 1-.52 1.783c-.215.486-.496.975-.624 1.085-.13.113-.228.407-.221.657l.015.452a8.3 8.3 0 0 0 1.219-1.899c.25-.547.503-1.502.561-2.124.058-.62.047-1.13-.022-1.13m-106.359-.895c-.596.009-1.41.138-1.808.286-.397.15-.959.448-1.251.665-.289.217-.743.721-1.008 1.12l-.482.723c1.423-.93 2.244-1.317 2.741-1.461.498-.143 1.291-.26 1.763-.259.472 0 1.285.16 1.808.35.529.196 1.376.737 1.915 1.221.531.48 1.182 1.3 1.446 1.823.263.52.493.926.512.904.016-.025-.046-.435-.136-.906-.092-.474-.319-1.165-.505-1.538-.186-.374-.775-1.067-1.31-1.544-.535-.476-1.338-.986-1.786-1.132-.447-.147-1.302-.26-1.899-.252M21.854 61.115c.15 0 .416.14.593.312.177.17.318.474.3 1.034l-.199-.361a2.8 2.8 0 0 0-.582-.675c-.28-.227-.309-.31-.112-.31m-.732-12.24c-.511-.194-.606-.16-1.313.466-.418.371-3.04 2.58-5.826 4.908a3429 3429 0 0 1-6.814 5.681c-.96.794-1.752 1.487-1.765 1.537-.008.051.231.192.532.317.544.224.575.203 3.031-1.899 1.367-1.168 4.762-4.023 7.548-6.343s5.088-4.273 5.113-4.339c.024-.067-.203-.215-.506-.329m197.472 3.406-1.089 1.14-.165 3.255c1.43 2.072 2.354 3.15 2.976 3.732s1.23 1.06 1.355 1.061c.125.002.633-.405 1.13-.906.497-.499 1.047-.907 1.221-.905.173.002.318.062.32.136s-.425.525-.949 1-.885.922-.805.995.772.03 1.537-.09c1.278-.205 1.463-.292 2.318-1.085.512-.476.938-.926.949-1 .009-.074-.694-.132-1.562-.128l-1.582.007a65 65 0 0 0-2.424-3.322c-1.03-1.33-1.452-1.745-1.689-1.672-.173.055-.358.017-.407-.083-.05-.1-.014-.323.076-.497.098-.182.107-.834.024-1.547l-.143-1.232zm3.177-2.32-.848.568c-.019 3.03.023 3.222.478 3.843a68 68 0 0 0 1.491 1.919c.631.784 1.291 1.387 1.808 1.647.446.228 1.261.515 1.808.64l.995.228c1.675-1.714 1.722-1.812 1.619-2.492-.06-.398-.142-.784-.186-.858s-.527.313-1.072.858c-.548.547-1.137.995-1.311.995s-.805-.23-1.401-.51c-.638-.3-1.329-.803-1.678-1.22a8.7 8.7 0 0 1-.945-1.434c-.195-.398-.358-1.049-.361-1.446-.008-.656.086-.809 1.035-1.65l1.045-.93c-1.191-.593-1.557-.756-1.582-.745-.028.012-.428.276-.895.587m-148.43 7.091c.188-.217.304-.227.59-.053.196.118.356.319.354.444 0 .124-.103.26-.228.298-.125.04-.389-.04-.588-.173-.3-.206-.32-.292-.128-.516m-.77-5.077c.06.398.32 1.089.577 1.537s.671 1.057.921 1.356c.25.298.826.85 1.281 1.224a7.7 7.7 0 0 0 1.824 1.05c.546.202 1.158.344 1.357.313.23-.036-.028-.2-.724-.46-.596-.223-1.533-.76-2.079-1.196a13 13 0 0 1-1.757-1.764c-.42-.537-.931-1.382-1.137-1.88l-.373-.903zm152.536-1.717c-.082 0-.621.468-1.199 1.04-1.02 1.008-1.047 1.06-.922 1.762.07.398.311 1.01.535 1.356.224.35.563.761.749.918s.727.503 1.198.769c.472.266.941.482 1.04.482s.181-.081.181-.18c0-.1-.183-.219-.407-.264-.331-.069-.363-.128-.175-.316.188-.19.303-.188.632.006.37.225.467.176 1.263-.632.473-.48.86-.935.858-1.01-.003-.073-.185-.136-.408-.138-.224-.002-.753-.206-1.176-.452s-1.016-.794-1.319-1.217-.585-1.074-.628-1.446c-.042-.372-.142-.677-.222-.678m-150.749-.363c-.406.002-.806.055-.89.122-.083.065-.135.453-.117.86.018.404.208 1.104.423 1.55.215.449.926 1.345 1.58 1.994.653.65 1.595 1.376 2.092 1.615.497.238 1.23.468 1.627.513.537.058.792-.003.994-.24.148-.175.253-.572.23-.88-.024-.308-.222-.927-.44-1.375-.22-.447-.934-1.346-1.587-1.999-.663-.663-1.624-1.4-2.18-1.674-.593-.29-1.293-.488-1.732-.486m83.08 4.9c-.109-.038-.033.206.169.543s.473.65.6.693c.133.045.063-.185-.168-.543-.219-.34-.491-.653-.601-.693m65.931-1.653a.28.28 0 0 1 .316-.121c.11.038.23.223.263.415.031.192-.071.41-.227.483-.2.096-.312.028-.376-.226-.05-.199-.039-.446.024-.551m3.416-3.788c-.468 0-.682.104-.837.407-.154.304-.156.578-.004 1.084.11.373.466.974.79 1.335.324.362.893.808 1.266.994.372.186.864.338 1.093.338s.516-.1.637-.226c.121-.124.219-.45.217-.723s-.136-.762-.295-1.085a5.7 5.7 0 0 0-.769-1.1c-.262-.283-.701-.628-.974-.77-.273-.138-.779-.254-1.124-.254m-2.448 2.892c.101 0 .232.102.293.227s.059.388-.004.587c-.109.34-.134.344-.427.055-.188-.188-.26-.418-.179-.588.071-.154.214-.28.317-.28m.632-.903c.051.001.178.225.281.497.115.313.12.564.013.678-.11.117-.243.023-.381-.272-.117-.247-.166-.552-.11-.677s.145-.225.197-.226M69.029 2.891c.205 0 1.45.538 2.769 1.196a179 179 0 0 1 4.52 2.35c1.166.634 2.18 1.254 2.256 1.38.074.125.687 1.447 1.363 2.938.835 1.846 1.428 3.491 1.857 5.153.345 1.342.627 2.581.627 2.757-.001.173-.783 1.76-1.739 3.525-.954 1.764-1.87 3.348-2.034 3.52-.163.17-2.047 1.29-4.183 2.486-2.354 1.32-4.082 2.176-4.384 2.176-.273-.001-1.291-.401-2.26-.89-.97-.485-2.919-1.523-6.894-3.72l-2.182-4.43c-1.203-2.436-2.183-4.573-2.18-4.747 0-.175.447-1.517.99-2.982a134 134 0 0 1 2.356-5.89l1.627-.995c.895-.548 2.864-1.633 4.374-2.412 1.509-.777 2.913-1.415 3.118-1.415m205.223-.006c.592-.003.988.127 1.523.506.398.28.923.832 1.165 1.227.278.448.446.998.451 1.48.011.752-.038.816-5.774 6.53l.346.51c.189.28.497.956.681 1.504.185.546.332 1.258.332 1.582a3.8 3.8 0 0 1-.243 1.175c-.132.323-.438.717-.679.875-.24.157-.701.342-1.024.407-.345.07-1.017.003-1.628-.161-.571-.154-1.488-.528-3.027-1.383l-2.447 2.504a6078 6078 0 0 0-6.192 6.346c-3.563 3.653-3.779 3.842-4.424 3.842-.372-.002-.942-.165-1.266-.362a1.78 1.78 0 0 1-.786-1.04c-.11-.372-.143-.882-.074-1.13.067-.25.497-.858.954-1.355.458-.498 3.217-3.365 11.432-11.842l-.55-.86c-.3-.471-.667-1.265-.813-1.762-.149-.497-.266-1.23-.262-1.627.002-.398.104-.924.225-1.168.124-.244.509-.638.858-.875.52-.356.792-.417 1.536-.345.497.047 1.392.333 3.073 1.184l2.906-2.878c2.865-2.84 2.915-2.878 3.707-2.884M120.34 2.18c.373-.094 1.167-.124 1.763-.07a10.8 10.8 0 0 1 2.169.488c.597.212 1.571.67 2.166 1.018.595.347 1.741 1.281 2.546 2.077 1.143 1.13 1.63 1.783 2.23 2.983.583 1.168.791 1.82.865 2.712.054.645.007 1.52-.103 1.944-.141.538-.512 1.086-1.24 1.829-.705.72-1.273 1.128-1.763 1.265-.397.11-1.13.201-1.627.201a9 9 0 0 1-1.808-.235c-.897-.231-.908-.229-1.356.299-.249.293-.676.642-.949.777-.334.166-.535.441-.613.835-.064.324-.246.785-.407 1.025-.159.241-.555.546-.878.678-.324.132-.588.364-.588.512-.001.148-.244.413-.54.587-.322.188-.541.465-.537.679.003.199-.181.6-.409.89-.226.291-.676.637-1 .769-.466.19-.585.342-.582.736.004.288-.186.707-.452.994-.251.273-.661.54-.909.588-.32.063-.503.262-.622.678-.094.323-.461.851-.814 1.175-.354.323-.826.625-1.05.67-.225.048-.814.121-1.311.165s-1.698.313-2.669.595c-1.565.456-1.793.483-2.026.242-.221-.225-.233-.554-.081-1.989.099-.945.131-2.166.068-2.712-.079-.7-.029-1.207.17-1.716.156-.398.528-.907.828-1.131.416-.31.545-.548.541-.994-.003-.346.162-.807.406-1.118.226-.29.677-.636 1-.768.479-.195.588-.338.588-.78 0-.355.183-.731.528-1.085.291-.299.636-.541.768-.54.139.002.298-.305.376-.722.098-.526.312-.865.773-1.225.348-.273.679-.701.733-.949.056-.25.218-.634.36-.858.143-.224.544-.53.891-.678.38-.163.633-.398.631-.588 0-.174.194-.6.864-1.582l-.342-.858c-.217-.548-.337-1.3-.336-2.08.004-.788.122-1.476.335-1.943.181-.397.566-.998.855-1.336.287-.336.83-.763 1.202-.949a8 8 0 0 1 1.356-.505m50.124 2.714c.944-.01 2.408.101 3.254.246.845.145 2.147.478 2.894.744.745.264 1.999.86 2.787 1.32.786.461 1.971 1.369 2.631 2.014.66.646 1.495 1.705 1.854 2.35.36.646.781 1.664.937 2.26.179.69.28 1.875.28 3.254 0 1.401-.101 2.554-.285 3.255a13 13 0 0 1-.837 2.17c-.302.596-1.047 1.605-1.654 2.241-.606.637-1.673 1.534-2.369 1.997-.696.46-1.978 1.098-2.847 1.418a23 23 0 0 1-3.255.874c-1.225.213-2.274.264-3.932.19-1.375-.061-2.862-.25-3.796-.485-.846-.21-2.148-.667-2.893-1.016-.746-.349-1.844-.981-2.44-1.406a14 14 0 0 1-1.946-1.75 13.7 13.7 0 0 1-1.486-2.154c-.344-.645-.747-1.745-.898-2.441-.15-.696-.277-1.956-.279-2.802s.083-2.024.192-2.62c.106-.598.468-1.655.802-2.351.333-.696 1.04-1.747 1.568-2.332.529-.588 1.45-1.416 2.047-1.84a20 20 0 0 1 2.349-1.393c.696-.343 1.673-.756 2.17-.92.497-.163 1.473-.411 2.169-.55s2.038-.262 2.983-.273m93.656 9.929c-.076.001-2.409 2.34-5.189 5.198-2.778 2.858-5.515 5.705-6.082 6.327s-1.03 1.293-1.03 1.492.205.566.452.814c.25.249.656.45.903.45.349 0 1.223-.79 3.84-3.479 1.862-1.914 4.608-4.719 6.102-6.232l2.714-2.75c-1.222-1.41-1.638-1.82-1.71-1.82M80.789 20.066c-.089 0-.207.081-.261.18-.055.1-1.056.74-2.224 1.42-1.167.68-2.572 1.48-3.118 1.775-.922.497-1.11.722-2.562 3.056-.86 1.38-1.53 2.532-1.492 2.563.042.025.627-.25 1.297-.61.671-.36 2.22-1.234 3.442-1.943l2.222-1.289a865 865 0 0 1 2.623-4.746c.129-.224.161-.406.073-.406m144.24-15.418a2.7 2.7 0 0 1 1.48-.246c.447.041 1.14.24 1.537.441a9 9 0 0 1 1.447.987c.397.34 1 1.142 1.34 1.778.437.822.641 1.473.703 2.243.047.596-.004 1.369-.113 1.718-.146.464-1.148 1.548-3.776 4.077a1062 1062 0 0 1-7.022 6.688 522 522 0 0 1-5.288 4.918c-1.26 1.143-2.031 1.707-2.432 1.78-.333.064-1.018-.013-1.582-.176-.548-.158-1.33-.554-1.74-.877a10 10 0 0 1-1.329-1.314 10.3 10.3 0 0 1-.992-1.537c-.226-.448-.46-1.12-.523-1.492a4 4 0 0 1 .056-1.355c.137-.543.801-1.297 3.299-3.753 1.721-1.692 5.635-5.435 8.698-8.317s5.87-5.386 6.237-5.563M61.355 9.13c-.199-.041-.584.002-.858.096-.438.15-.63.514-1.604 3.018-1.08 2.784-1.104 2.88-1.032 4.294.069 1.397.128 1.566 1.782 4.977l1.712 3.528a113 113 0 0 0 5.018 2.769c1.863.969 2.61 1.269 2.982 1.202.275-.049.715-.313.979-.588s.976-1.291 1.582-2.261c1.053-1.687 1.1-1.812 1.1-2.938 0-1.034-.163-1.591-1.363-4.655-.766-1.956-1.655-3.903-2.033-4.45-.37-.531-.997-1.157-1.395-1.386-.398-.23-2.024-1.12-3.615-1.975-1.59-.857-3.056-1.591-3.255-1.63m47.677 17.335c-.356-.453-.413-.475-.407-.163.001.2-.056.79-.13 1.313-.123.878-.107.95.227.938.199-.007.809-.152 1.357-.322l.994-.31c-1.261-.724-1.813-1.168-2.041-1.456m48.242-6.175c-.005.075.183.563.418 1.085.235.523.805 1.458 1.266 2.08.461.621 1.388 1.542 2.058 2.046.671.505 1.748 1.168 2.396 1.474.645.306 1.947.749 2.892.985.944.237 2.531.48 3.526.542 1.323.082 2.318.028 3.706-.204 1.043-.173 2.387-.494 2.983-.709.597-.217 1.655-.708 2.351-1.093.777-.433 1.788-1.23 2.621-2.074.933-.945 1.538-1.754 1.943-2.594.324-.671.59-1.322.594-1.447.003-.124-.209.1-.469.497-.26.398-.976 1.235-1.587 1.86-.612.628-1.725 1.493-2.469 1.927-.747.433-1.926.991-2.623 1.24-.696.25-1.997.593-2.892.762-1.244.237-2.204.288-4.067.215-1.879-.072-2.837-.204-4.159-.575-.945-.264-2.328-.799-3.073-1.19s-1.824-1.076-2.395-1.525c-.572-.448-1.346-1.204-1.718-1.681a36 36 0 0 1-.986-1.311c-.167-.243-.31-.382-.316-.31M19.123 1.99c.16.002.658.111 1.104.247.448.134 1.18.429 1.627.653.448.226 1.425.835 2.17 1.354 1.182.822 1.531 1.206 2.73 3.004 1.263 1.895 1.42 2.237 1.949 4.231.502 1.9.542 2.215.322 2.531-.137.199-.555.727-.928 1.175-.372.447-1.136 1.199-1.698 1.667-.56.47-1.12.857-1.245.86s-.49.334-.814.735-.709.768-.859.817c-.15.047-.904-.16-3.073-1.005l-1.04.933c-.57.513-2.214 1.998-3.65 3.3a1740 1740 0 0 1-4.338 3.92c-.951.856-1.912 1.647-2.136 1.763-.225.114-.793.206-1.265.204s-1.205-.164-1.628-.361-1.225-.784-1.782-1.307c-.582-.544-1.239-1.392-1.537-1.989-.288-.571-.572-1.345-.634-1.718a4.9 4.9 0 0 1 0-1.355c.087-.52.394-.96 1.334-1.899.671-.67 3.05-2.84 5.288-4.82a838 838 0 0 1 4.305-3.798c.197-.16.183-.356-.385-2.003l1.252-3.797 1.255-.956c.69-.526 1.733-1.28 2.32-1.672.585-.394 1.195-.716 1.356-.714m189.59 19.704c-.353 0-.753.137-.928.316-.231.239-.288.538-.23 1.22.044.498.254 1.271.469 1.718.213.448.779 1.208 1.255 1.69.477.482 1.172 1.029 1.545 1.219.372.19 1.024.349 1.447.354.504.006.862-.097 1.039-.3.152-.171.267-.632.262-1.046-.006-.445-.224-1.167-.542-1.803-.293-.582-.9-1.403-1.347-1.822-.448-.42-1.159-.939-1.582-1.154s-1.047-.392-1.388-.392M4.768 20.616c-.397.002-.851.084-1.01.185-.158.1-.382.504-.498.898-.115.395-.158.941-.094 1.214.065.273.31.884.543 1.356.235.472.77 1.232 1.194 1.686.423.455 1.176 1.024 1.673 1.266.497.244 1.172.441 1.499.44.395 0 .746-.154 1.039-.454.323-.327.445-.651.445-1.175 0-.398-.159-1.15-.352-1.672-.194-.523-.703-1.347-1.131-1.833-.429-.488-1.184-1.118-1.68-1.402-.586-.332-1.16-.511-1.628-.51m104.795 1.438c-.085 0-.284.143-.439.317-.158.173-.367.52-.464.768-.123.31-.113.706.032 1.257.137.528.477 1.076.979 1.582.424.428 1.238.992 1.809 1.254.795.365 1.21.452 1.763.373.493-.07.88-.279 1.22-.658.272-.304.497-.635.497-.735-.002-.1-.388-.262-.859-.361-.472-.098-1.366-.505-1.988-.904-.622-.398-1.378-1.069-1.68-1.491-.302-.424-.586-.912-.633-1.085-.045-.174-.152-.317-.237-.317m113.1-14.418c-1.41 1.318-4.314 4.057-6.454 6.089a741 741 0 0 0-5.568 5.334c-.919.901-1.672 1.7-1.672 1.775.003.074.187.135.411.137.224 0 .813.236 1.31.522.497.285 1.292.934 1.764 1.444.471.51 1.059 1.353 1.304 1.875s.47 1.255.497 1.627c.027.37.071.674.096.678.025 0 2.137-1.973 4.694-4.384s6.157-5.83 8-7.599c1.844-1.768 3.452-3.395 3.571-3.616.121-.22.224-.747.225-1.17.004-.423-.137-1.155-.312-1.627-.177-.472-.604-1.217-.949-1.654-.346-.438-1.036-1.027-1.534-1.309-.677-.385-1.144-.514-1.862-.515l-.958-.002zm-51.294-1.94c-.846-.04-2.148.012-2.893.111-.746.101-2.088.42-2.983.707-.895.29-2.239.887-2.984 1.328-.746.443-1.798 1.197-2.338 1.678-.541.479-1.299 1.36-1.682 1.956s-.859 1.615-1.054 2.26a9.2 9.2 0 0 0-.352 2.396c.001.844.141 1.598.452 2.44.247.673.755 1.662 1.13 2.199s1.046 1.3 1.495 1.697c.446.396 1.219.986 1.717 1.312.497.323 1.514.837 2.26 1.14s1.965.69 2.711.863c.978.226 2.112.309 4.069.303 2.176-.009 2.995-.087 4.158-.398.795-.212 2.218-.768 3.164-1.235 1.381-.683 2.003-1.133 3.183-2.303 1.105-1.095 1.612-1.764 2.058-2.719.325-.696.676-1.712.777-2.26.131-.7.125-1.368-.018-2.26-.125-.782-.463-1.78-.888-2.616-.403-.799-1.09-1.764-1.678-2.359a16 16 0 0 0-2.168-1.77c-.648-.419-1.808-1.005-2.578-1.301s-1.989-.666-2.711-.818-2.003-.309-2.847-.35M6.124 19.44c-.456-.085-.71-.038-.91.165-.245.251-.245.28 0 .282.152.002.704.204 1.226.451s1.341.838 1.822 1.31 1.1 1.306 1.376 1.852c.275.548.553 1.377.619 1.843.093.696.159.81.363.633.171-.15.224-.518.172-1.21-.04-.546-.27-1.401-.51-1.898-.239-.498-.846-1.302-1.347-1.787-.502-.486-1.199-1.026-1.546-1.202a5.7 5.7 0 0 0-1.265-.44m105.397-.09c-.048.004-.358.145-.688.31-.514.26-.548.314-.227.355.318.043.376.177.376.864 0 .449-.081.814-.181.814s-.242-.246-.316-.546-.196-.543-.271-.542c-.074.002-.133.146-.131.32.001.173.164.661.361 1.084s.703 1.11 1.126 1.527c.423.418 1.215.963 1.763 1.21.58.263 1.347.456 1.838.461.664.01.946-.085 1.315-.441.26-.247.469-.594.466-.767-.002-.197-.191-.357-.5-.422a14 14 0 0 1-1.04-.279c-.299-.096-.868-.361-1.266-.59-.398-.232-1.023-.777-1.389-1.214-.366-.438-.775-1.1-.907-1.473-.134-.372-.28-.675-.329-.671M6.911 18.261c-.21-.002-.476.12-.586.268-.166.226-.055.318.657.55.472.153 1.286.601 1.809.994.533.403 1.267 1.212 1.677 1.846.427.66.821 1.556.95 2.155.12.563.28.991.355.949s.138-.502.14-1.024c.003-.523-.11-1.234-.253-1.583-.141-.347-.57-1.054-.953-1.569-.384-.515-.982-1.155-1.33-1.42a9 9 0 0 0-1.355-.822c-.398-.186-.897-.34-1.11-.344m222.701-7.684c.105.061.181.227.17.37s-1.216 1.38-2.68 2.746c-.731.683-1.621 1.518-2.466 2.313l-4.386 4.143c-.845.794-1.736 1.629-2.467 2.312-1.681 1.57-2.763 2.454-2.935 2.396-.148-.049-.274-.152-.278-.226s1.318-1.4 2.937-2.945c1.62-1.546 4.965-4.702 7.431-7.015 2.466-2.31 4.569-4.152 4.674-4.094M62.396 13.733c.555-.266.982-.342 1.537-.272.423.053 1.074.25 1.446.44.373.188 1.075.696 1.56 1.13.485.432 1.197 1.274 1.586 1.87.387.597.867 1.615 1.064 2.26.2.646.36 1.644.359 2.215-.002.572-.112 1.305-.244 1.628-.134.324-.519.821-.859 1.107-.56.47-.721.51-1.724.45-.938-.055-1.268-.176-2.157-.79-.579-.397-1.402-1.17-1.829-1.716-.426-.546-.975-1.401-1.22-1.898-.243-.497-.582-1.434-.748-2.08-.178-.686-.266-1.513-.213-1.989.05-.446.222-1.076.383-1.4.182-.369.577-.726 1.06-.955M7.918 17.356c-.257 0-.523.06-.59.134s.427.39 1.1.703c.88.408 1.498.87 2.215 1.65.546.597 1.19 1.481 1.43 1.964.24.484.483 1.18.543 1.547.087.546.152.63.352.452.181-.157.214-.457.123-1.12-.067-.496-.341-1.304-.607-1.796s-.892-1.298-1.389-1.795c-.497-.495-1.31-1.089-1.807-1.32-.497-.23-1.113-.417-1.37-.42M62.49 14.46c-.073 0-.248.184-.389.408-.143.222-.313.732-.382 1.13-.077.459-.014 1.148.174 1.898.165.645.537 1.621.828 2.169.293.546.884 1.401 1.313 1.898.443.514 1.204 1.12 1.763 1.404.54.274 1.226.496 1.525.493.298-.002.643-.065.767-.137.14-.083-.161-.3-.814-.583-.593-.257-1.492-.875-2.096-1.446-.771-.727-1.262-1.408-1.807-2.52-.709-1.435-.75-1.613-.75-3.117 0-.877-.06-1.595-.132-1.597M78.05 8.9c-.134-.023-.814.27-1.51.653-.696.385-2.281 1.305-3.525 2.048-1.78 1.063-2.272 1.441-2.32 1.788-.034.24.399 1.618.96 3.059a305 305 0 0 0 1.825 4.565c.441 1.07.862 1.945.937 1.947s1.275-.66 2.667-1.471c1.392-.812 2.979-1.773 3.525-2.134.883-.585.987-.718.93-1.194-.036-.296-.372-1.596-.747-2.888-.377-1.293-1.093-3.245-1.592-4.339S78.183 8.925 78.05 8.9M9.345 16.396c-.405-.06-.793-.007-.994.136-.298.213-.27.244.304.34.349.06 1.157.455 1.797.881.64.427 1.468 1.183 1.84 1.68.375.497.844 1.271 1.048 1.718.203.448.372 1.037.373 1.31s.086.497.185.497c.1 0 .222-.121.27-.271.051-.149.094-.535.095-.859s-.235-1.076-.526-1.672c-.291-.597-.883-1.456-1.315-1.907-.43-.452-1.15-1.033-1.598-1.29-.447-.256-1.112-.509-1.479-.563M63.73 14.1c-.128 0-.3.054-.384.12-.083.068-.139.698-.123 1.4.015.706.178 1.73.36 2.277.183.546.583 1.36.886 1.808.306.446.91 1.162 1.344 1.588.434.425 1.113.928 1.51 1.117.398.188.925.368 1.173.399.283.038.468-.04.506-.212.04-.18-.233-.39-.808-.62-.486-.197-1.275-.754-1.788-1.266-.595-.593-1.163-1.427-1.61-2.362-.57-1.2-.7-1.687-.76-2.848-.05-.986-.141-1.4-.306-1.401m48.803 3.265c-.373.282-.494.523-.48.95.011.317.178.901.368 1.299.191.397.759 1.11 1.263 1.582.503.471 1.263 1.02 1.684 1.217.423.197 1.175.363 1.672.369.614.007 1.03-.093 1.301-.314.217-.177.422-.48.453-.672.043-.274-.093-.381-.624-.497-.373-.081-1.063-.344-1.537-.583-.471-.237-1.256-.786-1.743-1.22-.488-.432-1.104-1.173-1.372-1.649l-.486-.86zm-101.71-2.132c-.555-.062-.881-.012-1.031.157-.178.2-.046.32.724.65.52.22 1.42.832 2.001 1.356a6.8 6.8 0 0 1 1.676 2.218c.342.696.668 1.55.726 1.898.077.474.144.564.261.361.089-.148.162-.576.163-.949.002-.372-.08-.902-.18-1.175-.101-.272-.144-.537-.095-.587.05-.049.166.114.257.362.092.25.273.696.401.994l.236.542c.088-.969-.082-1.54-.431-2.215a10 10 0 0 0-1.356-1.898c-.45-.472-1.204-1.03-1.677-1.24-.472-.212-1.226-.424-1.674-.474m53.988-.78c-.09.006-.115.55-.056 1.23.075.834.279 1.559.653 2.304.3.596.813 1.405 1.14 1.798.328.392.96.941 1.409 1.221.448.28.915.51 1.04.508.124-.002.225-.165.225-.363 0-.213-.204-.464-.497-.613-.273-.137-.859-.646-1.302-1.13a9.4 9.4 0 0 1-1.31-1.963c-.278-.597-.559-1.41-.622-1.808s-.206-.83-.317-.959c-.11-.128-.273-.229-.363-.225m105.744-3.412c.298-.01 1.031.072 1.627.182a10 10 0 0 1 2.079.675c.548.262 1.259.743 1.582 1.068s.751.917.95 1.315c.226.453.36 1.077.358 1.672-.002.537-.15 1.264-.34 1.672-.186.398-.651 1.024-1.036 1.39s-1.147.885-1.694 1.154c-.546.27-1.522.575-2.169.678-.862.136-1.513.127-2.442-.036-.719-.127-1.726-.472-2.334-.8-.585-.317-1.342-.903-1.68-1.3-.344-.406-.737-1.162-.894-1.718-.177-.624-.233-1.231-.153-1.627.068-.35.271-.917.446-1.266.177-.349.617-.897.977-1.22a8.2 8.2 0 0 1 1.424-.984c.424-.219 1.217-.497 1.763-.618.548-.121 1.238-.228 1.536-.238m-56.304 4.143c-.111 0-.301.207-.422.458-.181.369-.175.608.027 1.22.157.482.622 1.132 1.266 1.77.569.564 1.469 1.218 2.053 1.491.584.272 1.358.485 1.763.485.398 0 .765-.081.814-.18.05-.1-.337-.298-.859-.44-.52-.141-1.372-.568-1.887-.95-.518-.38-1.275-1.136-1.682-1.684-.409-.548-.772-1.259-.808-1.582-.038-.323-.157-.588-.265-.588M12.021 14.1c-.49 0-.889.107-1.039.278-.215.244-.185.278.25.27.274-.003.72.092.993.21.275.12.973.549 1.555.95.582.403 1.245.976 1.474 1.274.23.299.627.992.883 1.538.259.547.467 1.198.463 1.446-.005.41.022.426.295.18.215-.195.277-.473.22-.994-.043-.397-.272-1.13-.509-1.627s-.801-1.3-1.253-1.783c-.452-.484-1.208-1.074-1.681-1.31-.514-.259-1.176-.432-1.65-.432m159.076.058c-1.236-.055-1.846.008-2.54.252-.501.177-1.193.512-1.537.746s-.862.762-1.153 1.175l-.529.752c.54.98 1.104 1.533 1.601 1.864.497.329 1.31.716 1.808.86.497.144 1.432.263 2.079.263s1.582-.12 2.079-.264a6.7 6.7 0 0 0 1.673-.815c.423-.304.97-.838 1.219-1.185.416-.582.433-.674.198-1.13-.141-.275-.487-.712-.769-.976-.282-.263-.962-.701-1.508-.976-.809-.405-1.294-.51-2.621-.566M66.981 16.179c-.697-.74-.83-.822-.733-.452.065.248.314.899.55 1.446.24.546.798 1.36 1.245 1.809.444.446.845.77.89.723.042-.052-.187-.66-.51-1.356-.324-.696-.974-1.673-1.442-2.17m49.335-2.62c-.099.006-.403.21-.678.456-.316.286-.496.627-.494.943.004.273.156.823.342 1.221.184.398.69 1.063 1.126 1.477a9 9 0 0 0 1.692 1.225c.646.335 1.178.469 1.854.465.705-.002 1.043-.098 1.31-.365.199-.199.362-.483.362-.633 0-.236-.04-.235-.317.01-.22.2-.37.227-.497.092q-.18-.193.049-.418c.127-.125.228-.288.227-.362-.003-.074-.227-.176-.501-.224-.273-.05-.986-.4-1.582-.78-.597-.381-1.32-.97-1.608-1.312a7.4 7.4 0 0 1-.813-1.213c-.159-.325-.372-.587-.472-.582m-103.231-.72c-.2.004-.518.09-.71.19-.189.102-.331.262-.316.356.018.094.235.172.483.172.249 0 .91.224 1.471.497.591.288 1.41.916 1.951 1.492.58.62 1.083 1.387 1.33 2.034.221.57.4 1.202.4 1.4 0 .202.102.335.227.303.128-.033.247-.407.274-.859.034-.546-.087-1.085-.378-1.703-.237-.497-.828-1.345-1.314-1.884-.575-.632-1.271-1.158-1.972-1.489-.596-.282-1.247-.51-1.446-.509m2.319-6.604c-.4-.083-.607-.046-.678.12-.054.134-.306.831-.556 1.55-.426 1.237-.435 1.346-.17 1.9l.285.587c.613-.595.972-.86 1.196-.972s.713-.204 1.085-.206c.372 0 1.085.198 1.582.442s1.364.916 1.926 1.493c.56.578 1.232 1.499 1.491 2.045.26.547.525 1.443.588 1.989.107.929.075 1.04-.454 1.672-.312.373-.527.758-.478.858s.478.304.95.456c.471.15.94.275 1.04.277.1 0 .416-.428.705-.951.455-.832.508-1.075.403-1.86-.083-.623-.494-1.58-1.318-3.074-.66-1.193-1.574-2.562-2.033-3.043-.457-.48-1.32-1.121-1.916-1.423a40 40 0 0 1-2.079-1.143c-.547-.33-1.253-.652-1.57-.717m-1.09 5.693c-.418 0-.8.064-.851.138s.372.312.939.53c.568.216 1.44.756 1.937 1.2s1.19 1.284 1.537 1.866.764 1.466.928 1.963c.246.743.322.84.434.542.074-.199.084-.87.02-1.49-.065-.622-.177-1.127-.252-1.129-.075.002-.27-.223-.433-.498-.165-.275-.631-.844-1.04-1.266a10.4 10.4 0 0 0-1.602-1.313c-.607-.387-1.081-.545-1.618-.543m250.431-3.644c-.298-.05-.721-.056-.94-.018-.218.036-.544.234-.723.439-.224.254-.325.664-.326 1.31.001.726.161 1.26.712 2.374.526 1.067 1.064 1.79 2.079 2.805.982.981 1.752 1.556 2.724 2.039.936.462 1.595.67 2.124.667.423-.002.902-.065 1.065-.14.164-.075.416-.381.56-.68.179-.368.223-.771.136-1.264-.071-.398-.302-1.113-.514-1.59-.212-.474-.427-.857-.478-.852-.049.008-.437.337-.86.73-.421.395-.849.717-.949.717s-.485-.125-.858-.279-.993-.582-1.378-.949c-.383-.369-.85-.996-1.034-1.393-.186-.398-.339-.926-.343-1.175-.005-.28.229-.691.621-1.085.347-.347.591-.693.546-.769-.048-.074-.431-.283-.853-.467-.421-.183-1.013-.372-1.311-.42m-248.18 1.66c-.223.002-.509.062-.632.134-.14.084.158.3.809.585.567.249 1.401.786 1.851 1.195.45.408 1.05 1.06 1.334 1.446.317.432.473.826.407 1.02-.06.175-.169.32-.244.322s-.237-.201-.362-.452c-.123-.252-.571-.832-.994-1.291-.421-.46-1.094-1.027-1.491-1.262-.398-.235-1.008-.508-1.357-.607-.347-.1-.814-.143-1.039-.094-.221.047-.408.146-.41.22s.242.197.542.271c.3.076.975.409 1.495.74.523.332 1.255.942 1.627 1.356.374.414.923 1.281 1.22 1.927.3.646.543 1.337.543 1.537 0 .202.1.334.226.3.148-.04.227-.433.229-1.13.004-.87.062-1.076.316-1.114.233-.032.343.129.426.633.1.6.133.636.292.316.1-.198.13-.606.067-.904-.061-.298-.32-.99-.573-1.537s-.842-1.386-1.308-1.867c-.469-.481-1.236-1.07-1.71-1.31-.471-.241-1.04-.436-1.265-.434m100.826 1.124c-.175.237-.289.715-.278 1.174a4 4 0 0 0 .358 1.449c.186.374.695 1.03 1.13 1.46.434.433 1.236.997 1.782 1.258.557.265 1.327.477 1.748.482.57.007.868-.102 1.217-.443.253-.248.423-.511.376-.587-.048-.075-.553-.379-1.126-.675-.571-.297-1.522-.969-2.111-1.491a22 22 0 0 1-1.935-1.99l-.864-1.039zM25.474 15.95c-.33-.206-.362-.181-.364.317-.004.499.028.526.36.318.2-.124.362-.267.364-.318 0-.051-.162-.193-.36-.317m91.849-8.632c-.007.453.197 1.163.548 1.898.305.647.953 1.663 1.437 2.26s1.433 1.505 2.108 2.017c.676.51 1.636 1.13 2.133 1.378.498.25 1.351.585 1.899.746.546.16 1.44.285 1.988.274l.994-.02c-2.382-.5-3.561-.864-4.158-1.131-.597-.268-1.572-.835-2.169-1.262-.596-.427-1.533-1.262-2.079-1.857-.548-.594-1.257-1.52-1.577-2.06-.318-.536-.699-1.424-.846-1.972l-.265-.994zm54.045 4.576c-.546-.047-1.36-.028-1.808.042a8 8 0 0 0-1.627.48c-.448.195-1.099.6-1.446.9s-.776.844-.949 1.207c-.174.363-.32.803-.324.978-.005.231.212.11.814-.452.452-.423 1.208-.938 1.68-1.142.471-.206 1.386-.436 2.033-.512a11 11 0 0 1 2.26.013c.596.083 1.573.387 2.17.674.596.29 1.348.817 1.671 1.175.354.39.588.542.588.38 0-.15-.108-.537-.24-.86-.134-.323-.642-.937-1.13-1.365-.49-.427-1.297-.924-1.794-1.105a9 9 0 0 0-1.898-.413M25.21 6.364c-.025-.027-.443.267-.93.652-.489.387-1.104.9-1.366 1.138-.416.376-.467.537-.39 1.243.046.448.29 1.22.542 1.718.251.497.844 1.555 1.317 2.35.474.796 1.055 1.584 1.291 1.75.418.297.454.282 1.566-.633.627-.515 1.135-1.017 1.128-1.117-.006-.1-.223-.995-.485-1.989-.39-1.487-.665-2.093-1.552-3.435-.595-.894-1.1-1.648-1.121-1.677M121.38 2.9c-.597.003-1.367.107-1.714.231-.346.123-.834.492-1.085.818-.39.507-.455.779-.455 1.901 0 1.142.085 1.483.677 2.7.516 1.059 1.035 1.748 2.17 2.883.821.82 1.939 1.755 2.486 2.075.545.322 1.482.762 2.079.979.728.265 1.532.4 2.441.41 1.048.012 1.497-.066 1.976-.346.341-.199.79-.647.994-.994.267-.452.374-.947.374-1.73 0-.934-.119-1.338-.799-2.711-.629-1.268-1.094-1.906-2.173-2.971-.911-.9-1.826-1.594-2.724-2.065-.745-.39-1.761-.815-2.258-.947-.497-.13-1.393-.235-1.989-.233m147.887 5.197-2.839 2.839c.3.998.767 1.629 1.293 2.124.528.495 1.084.858 1.32.86.289.002 1.186-.81 3.119-2.818 2.139-2.226 2.653-2.856 2.44-2.982-.149-.089-.312-.16-.361-.159-.051.002-.411-.305-.801-.68s-.85-.984-1.021-1.353l-.312-.667zm-153.105 4.557c-.134 0-.392.148-.574.33-.183.18-.317.384-.299.452.018.067.277 0 .575-.15.298-.148.541-.352.542-.452 0-.099-.111-.18-.244-.18M68.996 3.62c-.027.004-1.267.638-2.757 1.413-1.492.773-3.265 1.726-3.942 2.119-.96.553-1.178.755-.994.91.13.113 1.375.813 2.766 1.56a216 216 0 0 0 4.022 2.104c.82.41 1.614.746 1.763.746s1.838-.93 3.752-2.07c1.914-1.138 3.602-2.141 3.751-2.227.2-.117-.267-.441-1.808-1.255a247 247 0 0 0-4.294-2.202c-1.217-.607-2.232-1.101-2.26-1.098m54.671 1.983c.085 0 .561.367 1.057.813.855.77.926.799 1.311.54.224-.15.527-.269.678-.265.149.003.415.147.592.318.177.17.318.434.315.582-.006.149-.231.444-.997 1.034l1.346 1.769-.911.903-.716-.858c-.392-.472-.835-.858-.985-.859-.15 0-.56.144-1.552.633l-.88-1.085 1.347-1.144-.678-.875c-.634-.817-.659-.893-.38-1.19.163-.173.367-.316.453-.316m1.102 2.186c.212.522.192.588-.316 1.027-.35.305-.414.417-.181.32.199-.086.626-.181.949-.216.374-.04.588-.162.588-.334 0-.148.224-.436.497-.634.273-.201.423-.411.334-.467-.091-.056-.358.045-.596.227-.423.324-.447.323-.967-.075l-.533-.407zM19.189 2.904c-.294.007-.943.343-1.583.82-.596.444-1.165.882-1.266.97-.117.106-.045.372.207.762.242.375.884.87 1.717 1.322.732.397 1.656.86 2.054 1.028.397.17.865.31 1.039.316s.67-.252 1.1-.576c.428-.323 1.079-.852 1.446-1.175.365-.324.66-.649.66-.723-.002-.075-.713-.598-1.582-1.16-.868-.563-1.966-1.153-2.437-1.31-.472-.159-1.083-.281-1.356-.274m254.128 2.789c-.287-.497-.522-.782-.524-.633-.004.148.226.637.509 1.085.304.479.824.98 1.269 1.22.414.225.751.345.747.271-.003-.075-.337-.34-.743-.587-.445-.273-.943-.81-1.258-1.356m.851-2.08c-.138.001-.362.13-.497.287-.199.231-.204.409-.027.95.12.364.487.932.814 1.26.453.456.766.606 1.317.634.703.032.726.017.774-.6.037-.43-.085-.834-.375-1.265-.233-.349-.724-.775-1.089-.949-.366-.173-.778-.316-.917-.316"/></g></svg>