<svg xmlns="http://www.w3.org/2000/svg" fill="none" viewBox="0 0 32 32"><mask id="a" width="32" height="32" x="0" y="0" maskUnits="userSpaceOnUse" style="mask-type:alpha"><path fill="#d9d9d9" d="M0 0h32v32H0z"/></mask><g mask="url(#a)"><path fill="#e31e24" d="M-234.485 98.513c.521-.09 2.17-.125 3.661-.074 1.492.049 3.2.21 3.797.356.597.147 1.483.485 1.971.754.486.268 1.24.793 2.459 1.843l-.008-1.04c-.004-.835.071-1.112.384-1.401.329-.31.637-.362 2.077-.362 1.381 0 1.75.06 2.014.323.271.27.317.589.275 1.988-.025.916-.129 1.748-.229 1.848a.66.66 0 0 0-.178.407c.002.148.36.24 2.083.316l.04 5.875c.032 4.441-.014 5.932-.182 6.11-.123.13-.602.231-1.079.225-.473-.003-.9.075-.949.174-.051.099.035.282.188.406.223.179.279.628.272 2.17-.007 1.906-.019 1.951-.505 2.311-.396.292-.767.366-1.808.361-1.211-.005-1.352-.047-1.853-.548-.47-.468-.53-.64-.452-1.266.048-.397.048-.722 0-.722-.053.002-.602.409-1.22.907-.622.499-1.7 1.144-2.396 1.434-.696.289-1.796.613-2.441.717-.647.107-2.112.193-3.254.193-1.244-.002-2.552-.114-3.254-.282-.647-.154-1.705-.558-2.35-.898a13.3 13.3 0 0 1-2.169-1.491c-.548-.481-1.371-1.439-1.83-2.13-.46-.689-1.041-1.782-1.296-2.428-.253-.647-.55-1.663-.659-2.259a15 15 0 0 1-.195-2.215c0-.622.13-1.762.289-2.532s.552-1.97.875-2.666c.326-.696.96-1.754 1.412-2.35s1.137-1.336 1.519-1.644a19 19 0 0 1 1.466-1.039 12.6 12.6 0 0 1 1.673-.843c.497-.198 1.33-.436 1.852-.528m10.431 16.714c-.248-.228-.342-.138-.807.772-.316.622-1.101 1.606-1.979 2.483-.809.808-1.937 1.715-2.539 2.046q-1.083.592-.542.463c.298-.071.867-.188 1.265-.26s.58-.142.406-.154c-.175-.013-.276-.103-.225-.203.049-.099.557-.178 1.13-.178.6.002 1.191-.104 1.401-.25.334-.233.305-.249-.361-.228-.398.013-.746-.058-.773-.157-.026-.099.3-.205.724-.233.429-.029.73.018.847.128l.078.104c.11.092.358-.02.864-.381a10 10 0 0 0 1.378-1.22c.322-.361.584-.841.58-1.065-.002-.224.16-.569.358-.768.201-.198.326-.424.279-.498-.051-.074-.475-.137-.946-.14-.484-.002-.981-.116-1.138-.261m-9.257-15.987c-.523.009-1.275.094-1.673.19-.398.094-1.252.43-1.897.748-.686.338-1.704 1.082-2.442 1.781-.895.848-1.488 1.616-2.019 2.622-.416.78-.898 1.949-1.074 2.596q-.318 1.173-.311 3.073c.005 1.503.1 2.181.445 3.254.242.745.813 1.966 1.269 2.712.457.745 1.267 1.745 1.802 2.222s1.583 1.177 2.33 1.557c.923.469 1.727.734 2.53.83.645.076 1.419.083 1.718.014.54-.123.538-.125-.453-.579-.547-.249-1.429-.793-1.962-1.209-.534-.416-1.279-1.163-1.659-1.66-.379-.497-.974-1.473-1.321-2.169s-.76-1.855-.919-2.576c-.157-.721-.285-1.861-.283-2.531s.123-1.791.268-2.487c.144-.696.632-2.017 1.081-2.937.621-1.271 1.111-1.967 2.039-2.9.723-.726 1.68-1.463 2.35-1.808.62-.32 1.13-.622 1.13-.671-.004-.05-.431-.083-.949-.072m2.667.624c-.317-.056-.883.038-1.357.226-.448.179-1.296.645-1.887 1.037-.59.394-1.363 1.064-1.717 1.489-.354.424-.95 1.278-1.322 1.898-.373.618-.856 1.777-1.073 2.572-.285 1.045-.391 1.924-.38 3.164.01 1.318.121 2.055.475 3.164.255.796.779 1.934 1.164 2.531.385.596 1.224 1.575 1.863 2.174.849.798 1.534 1.245 2.561 1.671l1.401.584c1.785-.927 2.795-1.704 3.537-2.44.898-.891 1.476-1.667 1.952-2.622.564-1.131.711-1.676.893-3.284l.217-1.932c-.853-.643-1.046-1.008-1.175-1.653a12.4 12.4 0 0 1-.18-1.989c0-.597.1-1.286.225-1.53.199-.394.165-.534-.304-1.22-.291-.427-.942-1.182-1.446-1.681-.504-.497-1.365-1.164-1.911-1.483-.547-.318-1.238-.622-1.536-.676m12.022 16.895c-2.335 0-3.082.054-3.164.119-.083.068-.137.718-.121 1.447.025 1.131.076 1.327.347 1.327.275 0 .309-.163.271-1.266-.038-1.024.006-1.265.226-1.265.219 0 .263.24.226 1.265l-.044 1.266h2.259zm-6.778 1.627c.562 0 .795.071.754.226-.033.124-.396.246-.814.271-.568.035-.753-.022-.753-.225 0-.201.211-.272.813-.272m1.319-.649c.13.009.233.098.23.197-.006.099-.416.201-.914.227-.513.025-.905-.033-.906-.136 0-.1.305-.208.677-.242.372-.035.784-.055.913-.046m.669-.891c.1.018.181.148.181.289 0 .186-.239.257-.858.257-.471 0-.86-.081-.865-.181-.003-.099.302-.23.678-.29s.764-.093.864-.075m.111-.991c.504 0 .703.076.703.271 0 .206-.23.273-.949.279-.842.007-.922-.024-.704-.272.143-.161.543-.278.95-.278m3.211-.325c-.544-.029-1.058.005-1.146.075-.086.07-.145.197-.129.278.016.083.559.153 1.206.153.849 0 1.158-.064 1.115-.226-.036-.137-.448-.248-1.046-.28m3.276-11.245c-5.75 0-6.707.061-6.861.225-.118.125-.172.471-.12.769s.227 1.112.389 1.807c.212.906.271 1.753.206 2.984-.05.943-.224 2.205-.387 2.802-.162.596-.251 1.267-.197 1.492.098.402.123.406 3.534.406h3.436zm-5.345.236c.13.043.194 1.671.194 5.019 0 4.579-.024 4.957-.317 5.002-.294.043-.318-.302-.346-4.893-.017-2.715.039-4.992.124-5.067a.41.41 0 0 1 .345-.061m-2.592.928c-.09-.056-.165.371-.167.949-.001.577.091 1.416.208 1.862.149.569.319.833.574.884.336.067.351.012.216-.812a21 21 0 0 0-.408-1.834c-.142-.521-.334-.993-.423-1.049m-4.99-6.149c.199.159.421.287.497.285.074-.001.521.26.994.578.472.319 1.252.95 1.733 1.4.481.452 1.126 1.229 1.435 1.726s.589.944.622.996c.034.047.182-.095.328-.317.211-.323.435-.407 1.081-.407.446 0 .853-.081.904-.181.048-.1-.48-.75-1.176-1.446s-1.347-1.266-1.446-1.266c-.099.001-.14.082-.09.181.049.099-.094.229-.316.289-.225.06-.674.06-.995 0-.324-.06-.587-.19-.587-.289s.385-.177.858-.174c.774.007.832-.019.588-.274-.186-.192-.669-.295-1.523-.323-.818-.028-1.271-.122-1.31-.268-.036-.137.137-.237.437-.255.273-.014.009-.081-.588-.148-.596-.067-1.247-.185-1.446-.26l-.361-.137zm9.481 3.538c-1.22 0-1.267.017-1.084.362.162.305.349.354 1.228.316.828-.036 1.047-.109 1.085-.362.04-.276-.118-.316-1.229-.316m-3.535-.142c.512.029.931.15.978.278.057.163-.201.226-.935.226-.558 0-1.053-.062-1.102-.136-.047-.074-.03-.201.038-.278.069-.08.528-.121 1.021-.09m5.173-3.293c-2.333 0-3.081.054-3.164.119-.083.067-.137.678-.121 1.356.016.68.09 1.271.166 1.315.074.043.217.023.317-.046.099-.067.18-.631.18-1.253 0-.633.08-1.128.181-1.128s.182.514.182 1.175v1.174h2.259zm-6.077 2.208c.512.029.932.15.979.278.057.163-.202.226-.936.226-.558 0-1.054-.062-1.102-.136-.047-.074-.031-.201.038-.278.069-.08.528-.121 1.021-.09m5.536-2.028c.101.001.181.484.181 1.085 0 .602-.08 1.084-.181 1.085-.101-.001-.18-.483-.18-1.085 0-.601.079-1.084.18-1.085m-8.09-51.886c.174 0 .724.203 2.125.904v10.485l.541.272c.299.148.695.577.881.95.3.6.609.805 2.667 1.792 1.282.615 2.716 1.286 4.046 1.868v2.712l-.768.621a714 714 0 0 0-3.571 2.94 4967 4967 0 0 0-7.096 5.888c-2.361 1.962-4.437 3.57-4.611 3.574-.177.001-2.068-.99-4.203-2.202l-6.327-3.59.02-12.798 3.74-3.161c2.059-1.74 5.653-4.76 7.991-6.71 2.335-1.949 4.391-3.545 4.565-3.545m9.49 17.361c-.027.006-.656.52-1.402 1.145s-3.103 2.583-5.242 4.351c-2.137 1.768-4.882 4.04-6.096 5.048-2.038 1.69-2.211 1.884-2.224 2.466-.011.585.011.612.304.361.175-.15 2.516-2.103 5.205-4.34 2.69-2.239 5.931-4.923 7.202-5.966 2.111-1.73 2.313-1.948 2.305-2.485-.003-.322-.027-.584-.052-.58m-20.656 9.816c-.099-.018-.404.063-.677.18-.485.208-.429.251 2.349 1.84 1.565.895 2.949 1.647 3.075 1.673.142.028.223-.17.221-.543-.003-.569-.082-.63-2.395-1.853-1.316-.695-2.472-1.279-2.573-1.297m15.096-12.891c-.05.01-.342.275-.646.593-.306.318-.788.78-1.07 1.028-.282.25-.804.68-1.16.959-.358.276-.893.709-1.191.958-.298.25-1.519 1.263-2.712 2.256s-2.535 2.12-2.984 2.508c-.446.388-1.219 1.041-1.716 1.452a88 88 0 0 0-1.561 1.325c-.361.318-.85.705-1.085.862-.426.284-.419.292 1.198 1.157.895.48 1.953 1.061 2.351 1.294l.724.423c4.063-3.397 6.495-5.41 8.026-6.664s3.748-3.073 4.927-4.044l2.142-1.762c-1.751-.807-2.91-1.336-3.706-1.7s-1.486-.652-1.537-.645m97.629-14.182a6.2 6.2 0 0 1 2.125-.193c.622.049 1.333.17 1.582.27.247.099.512.305.587.456.099.201-.394.805-1.812 2.215-1.81 1.804-1.938 1.977-1.826 2.48.065.299.187.706.267.905s.293.546.47.772c.191.238.736.519 2.314.938l1.898-1.91c1.326-1.331 2.003-1.888 2.248-1.847.249.042.421.32.596.962.145.533.215 1.423.17 2.17a6.5 6.5 0 0 1-.595 2.419 6.2 6.2 0 0 1-1.47 2.033c-.523.485-1.336 1.06-1.808 1.279-.671.312-1.273.412-4.655.522l-2.351 2.647a3221 3221 0 0 1-3.892 4.375c-.848.953-2.683 3.072-4.08 4.713-1.994 2.343-2.701 3.052-3.294 3.3-.416.174-.938.316-1.162.314-.225 0-.713-.08-1.085-.18-.373-.098-.937-.404-1.251-.677-.317-.273-.722-.822-.901-1.22-.179-.397-.325-1.088-.325-1.537s.141-1.113.313-1.48c.17-.368 2.433-2.971 5.025-5.785s5.44-5.92 6.328-6.9c.887-.977 1.679-1.953 1.759-2.169.081-.213.065-.838-.036-1.384a6.8 6.8 0 0 1-.032-1.988c.081-.546.305-1.359.497-1.807.189-.449.708-1.207 1.151-1.688s1.131-1.065 1.528-1.298c.398-.233 1.169-.551 1.717-.707m104.046.572c.199-.053.605-.055.903-.002.299.05.787.214 1.085.362.299.148.814.526 1.147.837.33.313.772.893.976 1.29.206.398.38 1.066.39 1.483.014.636-.087.872-.63 1.446-.639.675-.648.7-.422 1.41.127.398.237 1.007.246 1.356.015.497-.12.769-.622 1.266-.35.346-.635.795-.63.994.003.22-.58.938-2.986 3.309l-1.536.146c-1.448.137-1.572.183-2.123.787-.322.352-.586.72-.586.82s-.658.832-1.46 1.627c-.803.796-2.859 2.937-4.568 4.757-3.058 3.261-3.116 3.31-3.788 3.254-.65-.052-.751.019-3.517 3.018l-.973-.013c-.537-.007-1.238-.148-1.561-.316-.324-.167-.936-.65-1.36-1.073s-.964-1.175-1.197-1.672c-.318-.68-.405-1.137-.356-1.847.063-.915.112-.99 1.645-2.531 1.336-1.342 1.582-1.678 1.582-2.175.002-.52.489-1.096 4.196-4.972 2.307-2.411 4.747-4.914 6.653-6.734l.002-2.35 1.67-1.673c1.228-1.229 1.79-1.67 2.125-1.669.247.002.777-.239 1.174-.537.398-.298.846-.546.996-.552.148-.005.659.197 1.988.905l.588-.429c.323-.237.75-.472.949-.523m-57.322.498.216.814c.117.448.256 1.016.31 1.266.08.376.286.506 2.378 1.097l.873-.819c.479-.452.967-.817 1.085-.816.117.006.925.535 1.793 1.176.867.642 1.578 1.228 1.582 1.305 0 .074-.214.624-.951 2.306l1.222 1.934 1.311-.108c1.133-.094 1.333-.065 1.474.208.089.175.363 1.05.61 1.943.436 1.58.44 1.645.132 2.26-.231.464-.56.74-1.241 1.039-.895.392-.93.433-.93 1.13 0 .687.053.756 1.083 1.401.648.407 1.084.804 1.085.994.002.174-.19.825-.425 1.447a29 29 0 0 1-.995 2.26c-.374.745-.676 1.128-.884 1.126-.174-.002-.805-.126-1.401-.276-.97-.246-1.126-.245-1.491.003-.224.152-.408.378-.409.503s.123.59.275 1.039c.235.69.242.925.042 1.537-.222.682-.35.778-4.202 2.65l-.417-.42a8.6 8.6 0 0 1-.814-1.007c-.377-.56-.451-.588-2.747-.597l-.542 1.09c-.298.599-.622 1.12-.723 1.162-.099.038-1.076-.216-2.17-.565-1.093-.351-2.097-.73-2.229-.841-.164-.143-.203-.433-.124-.93.062-.398.151-.927.198-1.175.072-.377-.069-.566-1.822-1.864l-1.266.403c-.695.222-1.365.357-1.49.301-.126-.058-.715-.857-1.313-1.777-.596-.92-1.084-1.792-1.083-1.944.002-.15.124-.597.274-.995.165-.431.492-.849.814-1.039.499-.293.531-.372.426-1.085-.06-.422-.13-.809-.155-.858-.027-.05-.558-.296-1.179-.543-.621-.25-1.178-.534-1.234-.633-.056-.1-.085-.546-.064-.994.022-.449.14-1.538.262-2.424.174-1.261.3-1.66.584-1.839.201-.126.883-.224 1.537-.217 1.08.01 1.188-.024 1.33-.421.121-.338.035-.628-.399-1.336-.486-.792-.54-1.004-.427-1.706.116-.72.277-.929 1.575-2.04.795-.68 1.547-1.234 1.672-1.23.125.003.673.33 1.221.728.752.545 1.115.7 1.491.637.273-.047.584-.19.69-.316.11-.127.3-.597.427-1.045s.344-1.08.482-1.406l.25-.593zm-95.478.158c.342-.15.867-.211 1.297-.154.398.055 1.17.321 1.718.59.587.291 1.547 1.045 2.349 1.848.745.744 1.538 1.72 1.761 2.169.222.448.458 1.097.525 1.446.07.372.029.857-.103 1.175-.123.298-.582.848-1.021 1.22-.573.487-.966.677-1.387.673-.324-.003-1.036-.164-1.582-.356-.548-.191-1.055-.352-1.13-.356-.076-.002-1.99 2.172-4.254 4.83-2.265 2.66-5.39 6.343-9.767 11.526l-2.368 1.31c-1.303.722-2.45 1.27-2.55 1.221s-.18-.211-.18-.361c0-.151.46-1.433 2.041-5.424l2.378-2.803c1.309-1.54 4.05-4.794 6.091-7.231s4.073-4.878 5.309-6.418l-.349-.724a5.2 5.2 0 0 1-.42-1.536c-.062-.688.016-.934.499-1.603.314-.436.829-.905 1.143-1.042M-43.184 69.74c-1.235 1.249-1.398 1.487-1.365 2.024.02.335.182.933.36 1.331.18.398.625 1.03.992 1.401.365.374.89.79 1.162.927a5.5 5.5 0 0 0 1.13.378c.606.123.68.076 1.781-1.108l1.15-1.237c-1.08-.308-1.637-.521-1.936-.673s-.848-.612-1.22-1.022c-.373-.408-.677-.847-.675-.972.002-.123.21-.428.462-.677l.459-.452-.897-1.338zm-80.794-21.316c-.832.01-1.607.147-2.26.4-.629.244-1.336.723-1.92 1.301-.651.642-1.047 1.24-1.331 2-.354.955-.388 1.291-.285 2.802.069.985.044 1.911-.056 2.17-.096.25-.894 1.228-1.772 2.177-.879.947-3.224 3.509-5.212 5.692a557 557 0 0 1-4.903 5.326c-1.069 1.127-1.312 1.498-1.426 2.172-.114.672-.064.968.292 1.696.238.484.676 1.03.974 1.214.311.19.89.335 1.357.338.474.002 1.016-.128 1.3-.31.268-.174 1.853-1.896 3.525-3.823 1.67-1.928 3.404-3.933 3.853-4.454.446-.522 1.891-2.178 3.209-3.68s2.578-2.787 2.802-2.856c.225-.067 1.179-.132 2.124-.144 1.468-.018 1.848-.089 2.621-.488.498-.26 1.277-.864 1.731-1.347.519-.552.957-1.252 1.172-1.875.213-.611.347-1.493.348-2.288.002-.712-.06-1.363-.137-1.447-.079-.082-.934.642-1.899 1.61-1.312 1.315-1.871 1.76-2.209 1.75-.249-.005-.868-.146-1.374-.314-.587-.193-1.122-.535-1.471-.938-.3-.347-.638-.958-.748-1.356-.111-.397-.202-.905-.204-1.13.001-.27.578-.998 1.716-2.17.945-.968 1.656-1.824 1.582-1.903-.075-.076-.704-.134-1.399-.125m38.93 25.663c-.066.003-.168.126-.226.276-.058.148-.045.304.03.346.074.042.827.291 1.673.555 1.227.383 1.561.43 1.668.241.072-.131.136-.28.14-.329.003-.051-.706-.317-1.578-.592-.874-.274-1.64-.497-1.707-.497M17.583 49.706c.696-.013 1.956.095 2.802.244.844.146 2.107.464 2.803.705.696.242 2.16.84 3.254 1.332 1.093.49 2.211.947 2.486 1.012.273.067.826.427 1.23.8.404.372.87 1.042 1.04 1.49.218.577.303 1.34.294 2.623-.011 1.294-.129 2.218-.421 3.254-.224.795-.788 2.178-1.25 3.073-.579 1.119-1.21 2.002-2.02 2.828-.95.967-1.372 1.26-2.173 1.502-.753.228-1.148.258-1.627.123-.349-.098-1.325-.485-2.17-.862-1.23-.55-1.753-.686-2.62-.684-.75.002-1.307.12-1.808.384-.398.21-.899.571-1.11.804-.214.234-.652.953-.975 1.6-.322.645-.805 1.5-1.072 1.898-.266.398-.58.968-.696 1.266s-.436.761-.71 1.03a4.5 4.5 0 0 1-1.178.769 4.6 4.6 0 0 1-1.446.278c-.423-.002-1.175-.112-1.673-.244-.497-.132-1.433-.502-2.079-.824a15.5 15.5 0 0 1-2.151-1.338 14 14 0 0 1-1.74-1.66A17 17 0 0 1 1.258 69.3a10 10 0 0 1-.857-1.988c-.206-.727-.27-1.353-.19-1.898.067-.465.475-1.434.953-2.26.46-.796 1.034-1.977 1.278-2.622a25 25 0 0 1 .9-2.08c.253-.497.805-1.391 1.226-1.988.423-.596 1.376-1.654 2.119-2.35.745-.696 1.995-1.644 2.78-2.107a21 21 0 0 1 3.009-1.4c.87-.31 2.09-.633 2.712-.72.62-.087 1.7-.168 2.395-.182m-91.03 24.225c-.15.002-.755.212-1.346.467-.593.255-1.06.533-1.04.62s.096.153.171.15c.074-.006.664-.286 1.31-.624.646-.34 1.053-.615.905-.613m-4.167-1.431c-.045.017-.533.063-1.085.1-.622.04-1.119.181-1.312.373-.172.168-.311.365-.31.442.004.073.594.131 1.315.127l1.31-.006c.84 1.141 1.145 1.47 1.22 1.467.075-.005.177-.13.227-.278.049-.15-.219-.72-.596-1.266-.378-.547-.725-.978-.769-.96m-147.924-12.685c-.224.004-.538.09-.699.195s-.383.387-.497.627c-.116.248-.36.438-.566.438-.199 0-.357.102-.354.226s.147.329.317.455c.249.185.214.185-.178 0-.414-.195-.555-.182-.949.087-.255.173-.462.397-.463.497 0 .1.081.221.18.272.1.048.182.172.182.271 0 .103-.214.134-.498.07-.374-.082-.633.004-1.039.347l-.542.46c.769.3 1.033.47 1.084.57.049.099-.188.037-.527-.136-.597-.304-.641-.304-1.13.03-.289.197-.414.375-.286.407.124.033.226.121.226.196 0 .074-.237.135-.528.135-.318 0-.712.18-.992.453l-.465.45c1.116.911 1.442 1.257 1.442 1.357s-.263-.02-.587-.265-.832-.452-1.131-.46c-.303-.005-.777.172-1.077.402l-.533.413c.663.14.904.299.962.441.087.214-.025.237-.616.13-.526-.096-.837-.056-1.131.147-.365.247-.379.31-.141.594.148.172.269.376.272.45s-.239.055-.537-.044c-.432-.145-.634-.116-.99.135-.245.174-.448.378-.452.453-.003.074.178.305.402.511.37.344.374.365.045.247a8 8 0 0 0-.723-.214c-.199-.05-.545.002-.769.114-.224.11-.448.383-.499.607-.049.214-.234.41-.478.516l-.217.078a2.9 2.9 0 0 0-.8.504 1.33 1.33 0 0 0-.406.981c.003.324.087.75.186.95.1.198.425.442.723.542q.543.18.994 0c.248-.1.676-.467.949-.814.273-.349.619-.63.769-.627.148.004.412-.14.582-.316.172-.177.314-.423.316-.548.004-.125.29-.349.639-.497.347-.15.723-.455.831-.679.11-.224.148-.61.087-.858l-.114-.453.709.905c.728-.702.974-1.028 1.017-1.176.042-.15.325-.332.626-.406.331-.082.677-.35.867-.676.173-.298.459-.543.632-.543.174-.002.504-.226.734-.499s.577-.584.768-.692c.194-.107.494-.453.667-.769.174-.314.357-.49.407-.391q.091.18.453 0c.198-.1.442-.386.542-.633.108-.271.325-.452.542-.453.199 0 .524-.204.723-.452s.402-.452.452-.452.254-.205.453-.452c.198-.249.462-.45.586-.446.125.003.368-.14.538-.317s.314-.585.316-.909q.004-.587-.446-1.04c-.25-.25-.636-.45-.86-.446m85.259 11.379c.555-.002.854.105 1.136.407.21.228.428.617.486.864.058.25-.012.716-.155 1.04-.143.323-.423.668-.622.768s-.606.18-.904.18q-.543 0-1.084-.541c-.335-.335-.55-.745-.565-1.07-.013-.339.155-.731.468-1.086.396-.451.63-.557 1.24-.562m-34.594-16.416c-.083-.034-.216.07-.299.231a.42.42 0 0 0 .078.514c.126.12.227.32.225.445 0 .125-.125.226-.273.226-.15 0-.332-.125-.406-.279-.104-.209-.513.175-1.686 1.583a2281 2281 0 0 1-4.055 4.842c-1.377 1.64-3.561 4.244-4.85 5.786-2.332 2.784-2.345 2.806-2.137 3.39.152.43.153.623.007.723-.112.074-.269.012-.353-.136-.083-.15-.18-.23-.218-.18-.037.048-.286.598-.552 1.22-.267.621-.485 1.19-.487 1.266-.002.073.261-.118.586-.427.326-.307.735-.613.909-.678.173-.063.314-.217.312-.342-.002-.124.099-.322.226-.437.175-.163.376-.147.862.066l.633.278c.841-1.062 2.259-2.76 3.694-4.46 1.436-1.697 3.794-4.463 5.242-6.148a797 797 0 0 0 3.674-4.294l1.04-1.231c-1.567-1.472-2.09-1.926-2.172-1.958m179.181 8.51c-1.088-.038-1.51.027-2.049.316-.372.199-.788.586-.924.86a6 6 0 0 0-.357.948c-.063.25.01.94.164 1.537.152.596.49 1.451.75 1.898.26.448 1.01 1.369 1.664 2.047.654.676 1.677 1.548 2.274 1.936.596.387 1.573.879 2.17 1.092.596.214 1.533.394 2.079.402.681.009 1.178-.097 1.578-.335.321-.194.761-.676.978-1.074.324-.594.373-.897.279-1.717-.067-.568-.395-1.574-.767-2.35-.48-.999-.995-1.693-1.95-2.63-.961-.948-1.71-1.483-2.907-2.08-1.424-.708-1.775-.81-2.982-.85m-87.156-11.252c-1.05.433-1.732.7-2.19.868l-.833.306c-1.368-1.177-1.85-1.523-1.954-1.529-.101-.003-.691.4-1.311.897l-1.124.904 1.486 2.26-1.331 2.53-2.776.182c-.356 2.363-.357 2.748-.206 2.85.113.075.733.3 1.38.498l1.175.361c.463 1.889.647 2.58.705 2.754.074.215-.081.486-.478.842-.324.29-.776.677-1.006.86l-.417.332 1.85 2.712 2.42-1.033 2.983 2.208c-.197 1.33-.256 1.91-.262 2.148-.009.381.15.475 1.437.858.795.237 1.547.43 1.672.43s.402-.47.617-1.041c.213-.571.437-1.09.497-1.154.059-.06.82-.164 1.688-.225l1.582-.112c1.19 1.69 1.638 2.18 1.763 2.176.125-.003.754-.251 1.401-.55.646-.298 1.177-.603 1.177-.677.001-.076-.163-.625-.363-1.22l-.37-1.085 2.268-2.3c1.958.576 2.54.727 2.557.71.014-.023.277-.629.587-1.348.53-1.233.544-1.325.246-1.558a15 15 0 0 0-1.085-.724l-.768-.475.09-2.967c1.676-.696 2.19-.902 2.224-.91.029-.005-.114-.681-.317-1.502l-.37-1.491h-2.712l-1.669-2.44c.618-1.401.832-1.93.873-2.08.047-.17-.34-.573-1.042-1.085-.615-.446-1.204-.84-1.313-.875-.107-.034-.577.331-1.045.814l-.853.875c-1.622-.61-2.316-.834-2.59-.89-.442-.092-.518-.22-.688-1.144-.105-.57-.228-1.14-.271-1.265-.057-.157-.569-.227-1.707-.227h-1.627zm-104.653 21.152c-.184 0-.455.141-.603.316-.15.174-.324.418-.389.543-.065.123.206.041.604-.181.396-.225.721-.468.722-.542 0-.076-.149-.136-.334-.136m-55.345-5.475-.013 5.746c.817.404.826.385.96-.97.076-.76.139-3.311.145-5.668l.005-4.29-1.085-.56zm102.626 4.21c-.235 0-.567.141-.737.317a.76.76 0 0 0-.206.722c.056.222.265.489.463.588.199.1.525.14.724.091s.442-.253.542-.452c.132-.264.107-.487-.09-.814-.166-.278-.436-.452-.696-.452m108.368-9.037c-.242.09-.418.252-.393.359.027.106-1.139 1.45-2.589 2.988-2.6 2.758-2.635 2.806-2.59 3.56.043.728.084.78.859 1.063.448.166.813.412.813.548 0 .135-.163.27-.362.297-.199.028-.727-.135-1.175-.363-.665-.336-.83-.518-.904-1.006l-.09-.597-1.989 1.97c.84.51 1.41.718 1.808.79.398.075 1.15.138 1.672.142l.95.007a338 338 0 0 1 5.283-5.515l2.31-2.35c-1.47-.612-2.162-1.08-2.486-1.433-.323-.354-.608-.64-.633-.633-.025.006-.242.085-.484.173m37.009 2.168c.533.002 1.211.172 1.804.452.523.248 1.405.877 1.963 1.4.557.522 1.205 1.275 1.438 1.673.231.397.48 1.048.55 1.446.083.477.04.925-.127 1.32-.161.379-.485.701-.886.882-.38.171-.922.255-1.356.206-.397-.043-1.21-.317-1.807-.607-.597-.291-1.45-.899-1.899-1.349-.446-.45-1.016-1.224-1.263-1.72-.293-.585-.452-1.208-.452-1.775-.002-.76.075-.944.588-1.401.478-.427.755-.529 1.447-.527m-92.841 4.52c-.076 0-.543.188-1.04.418-.496.227-.965.553-1.04.721s-.075.307 0 .309.544-.168 1.04-.379l.904-.382c1.4 1.037 1.948 1.412 2.124 1.501.24.123.337.076.407-.201.07-.286-.161-.535-1.085-1.175-.647-.448-1.236-.814-1.31-.812m91.517-3.315c-.077.067-.126.371-.108.676.018.307.212.924.429 1.372.218.447.767 1.186 1.218 1.642.452.455 1.147.996 1.544 1.202.398.206 1.009.432 1.356.503.349.072.857.079 1.13.017.273-.061.498-.191.498-.29 0-.1-.102-.138-.227-.084s-.672-.068-1.22-.272A9.3 9.3 0 0 1 6.6 70.02c-.472-.347-1.06-.895-1.308-1.217-.245-.324-.643-1.056-.881-1.625-.24-.571-.5-.985-.578-.92m13.568-15.827c-.398.01-1.211.092-1.808.179-.596.087-1.533.289-2.079.446-.548.16-1.606.572-2.35.917-.747.345-1.844.979-2.44 1.405-.598.425-1.616 1.345-2.262 2.044-.647.698-1.439 1.707-1.76 2.24-.322.536-.873 1.664-1.226 2.508-.352.846-.744 1.74-.871 1.989l-.23.452c2.332-.12 3.023-.047 3.726.177.546.174 1.523.607 2.17.963.649.358 1.742 1.217 2.447 1.924.7.702 1.552 1.763 1.892 2.36.34.596.75 1.573.91 2.17l.294 1.084c1.329-2.672 1.84-3.419 2.321-3.824.398-.336 1.089-.734 1.537-.883.447-.148 1.139-.265 1.536-.261.398.005 1.17.162 1.718.35.543.187 1.01.326 1.04.312.024-.019-.069-.318-.21-.666-.14-.347-.313-1.12-.381-1.717-.073-.624-.032-1.7.093-2.531.121-.796.424-2.016.673-2.712a22 22 0 0 1 1.02-2.344c.312-.593.982-1.528 1.486-2.079s1.279-1.18 1.718-1.4l.799-.402c-1.962-.867-3.225-1.365-4.069-1.662-.846-.298-2.31-.66-3.254-.8-.945-.143-2.042-.25-2.44-.239m-48.541 6.342c-.12-.41-.125-.408-.73.19-.458.45-.603.738-.572 1.137.023.293.205.898.405 1.347.199.446.358.934.355 1.085-.006.148-.232.497-.503.772-.271.276-.636.499-.81.497-.173-.002-.412.18-.528.404s-1.235 1.488-2.485 2.808c-1.765 1.862-2.365 2.39-2.678 2.35-.345-.044-.406.034-.407.536-.004.437-.235.866-.908 1.673-.496.596-.903 1.165-.904 1.265 0 .1.062.184.136.188.074.003 1.825-1.705 3.888-3.797s3.872-4.047 4.022-4.346c.2-.401.472-.595 1.04-.745.422-.112.89-.29 1.04-.392.2-.138.412-.09.813.188.298.208.907.544 1.355.748.446.206.956.376 1.13.378s.54-.186.813-.417l.497-.422a11.7 11.7 0 0 1-2.366-1.905c-.604-.626-1.41-1.588-1.79-2.134-.382-.548-.748-1.18-.813-1.408m-194.849-6.892c-.074.008-1.235.947-2.576 2.085a2380 2380 0 0 1-7.447 6.268l-5.006 4.196c-.018 7.042.043 8.587.159 8.588.1 0 .568-.33 1.039-.73a458 458 0 0 1 2.757-2.311c1.043-.87 2.182-1.779 2.531-2.02.347-.242.843-.645 1.1-.898s1.092-.947 1.854-1.544c.765-.596 1.756-1.43 2.2-1.853.447-.423 1.037-.879 1.31-1.016a2.4 2.4 0 0 0 .782-.678c.158-.237.547-.552.866-.702l.581-.27c-.011-7.065-.076-9.117-.15-9.115M4.965 65.595c-.061 0-.155.082-.209.18-.054.1-.021.486.073.86.094.373.46 1.063.813 1.536.353.472.987 1.093 1.41 1.38s1.094.653 1.491.818c.398.162.948.294 1.221.293s.477-.097.452-.208c-.025-.112-.413-.299-.86-.412-.446-.116-1.18-.46-1.626-.765-.447-.304-1.05-.832-1.34-1.168-.29-.338-.703-1.044-.92-1.565-.217-.522-.443-.949-.505-.949m-97.124 2.167c-.048 0-.088.062-.085.136.004.076.268.613.588 1.195.32.584.726 1.192.904 1.356.274.253.322.257.318.025-.005-.15-.373-.82-.82-1.491-.447-.67-.854-1.22-.905-1.22m21.15 1.153c-.1-.038-.285.094-.408.292-.21.344-.158.378.865.591.598.123 1.13.185 1.18.136.05-.05.089-.179.085-.289s-.353-.3-.774-.429a22 22 0 0 1-.948-.301M6.294 65.95c-.242-.129-.354-.129-.361 0-.005.103.132.484.306.847.173.362.683.99 1.13 1.393.446.401 1.159.879 1.582 1.058.422.178.808.303.86.28.05-.026.03-.2-.045-.385-.076-.188-.382-.438-.68-.556-.3-.118-.9-.535-1.335-.925s-.862-.895-.949-1.118-.314-.491-.508-.594m-41.238-5.904a229 229 0 0 1-4 4.239c-1.834 1.89-2.322 2.5-2.322 2.892 0 .273.163.76.361 1.084.199.324.424.591.498.595s.226-.096.336-.226c.11-.128.192-.49.18-.802a1.4 1.4 0 0 1 .343-.954c.198-.212.523-.388.722-.388.226 0 1.136-.814 2.442-2.186 1.142-1.204 2.222-2.42 2.395-2.706.174-.285.46-.517.633-.514.174.004.46-.158.633-.36.256-.299.276-.444.108-.775a10 10 0 0 1-.43-1.074l-.221-.666zm63.463-6.254c-.25-.05-.67-.03-.94.044a5.5 5.5 0 0 0-.995.413c-.278.153-.91.713-1.404 1.247-.557.602-1.187 1.587-1.663 2.596-.421.895-.89 2.155-1.043 2.802-.152.645-.279 1.866-.282 2.712-.002.873.11 1.887.26 2.35.146.447.513 1.078.815 1.402.456.486.684.587 1.32.584a3.2 3.2 0 0 0 1.492-.427c.397-.233 1.11-.862 1.582-1.397.471-.537 1.117-1.463 1.431-2.06s.761-1.655.994-2.35c.232-.697.511-1.877.62-2.622.142-.986.14-1.65-.008-2.44-.11-.597-.342-1.32-.512-1.61a3.3 3.3 0 0 0-.763-.84c-.25-.174-.656-.356-.904-.404m-108.88 2.416c.125-.007.654.079 1.176.189a9.3 9.3 0 0 1 1.808.633c.471.237 1.19.775 1.594 1.198s.892 1.093 1.083 1.491c.192.398.422 1.172.513 1.718.101.602.101 1.335.002 1.854-.09.471-.358 1.245-.593 1.716-.235.472-.745 1.138-1.13 1.48a7.5 7.5 0 0 1-1.514.992c-.619.282-1.185.372-2.351.374-1.287.002-1.698-.074-2.531-.474-.546-.26-1.349-.788-1.782-1.175-.443-.392-1.02-1.174-1.317-1.784-.29-.596-.577-1.533-.637-2.079a5.3 5.3 0 0 1 .172-1.989c.154-.546.556-1.36.894-1.808.336-.448 1.009-1.058 1.495-1.356a7.2 7.2 0 0 1 1.887-.754 18 18 0 0 1 1.231-.226m-.045 2.769c-.506-.038-1.262.05-1.718.2a7 7 0 0 0-1.512.767c-.385.275-.893.825-1.126 1.222-.235.398-.427.967-.427 1.265 0 .299.168.908.374 1.357.204.446.629 1.126.943 1.51.347.422 1.038.921 1.748 1.261.948.454 1.404.562 2.351.56.858-.001 1.438-.122 2.151-.446.537-.246 1.25-.75 1.582-1.123.458-.513.606-.844.608-1.355.002-.374-.116-1.085-.259-1.582-.16-.562-.562-1.248-1.056-1.809-.515-.586-1.142-1.055-1.775-1.332-.539-.235-1.387-.457-1.884-.495m107.978-2.783c.412 0 .748.161 1.13.543.393.394.556.744.594 1.281.03.407.02 1.2-.02 1.763-.039.562-.269 1.553-.51 2.198-.243.645-.723 1.562-1.066 2.034s-.89 1.022-1.213 1.22-.851.36-1.175.362c-.363 0-.75-.156-1.013-.407-.235-.224-.519-.732-.633-1.13a6.3 6.3 0 0 1-.204-1.446c.002-.398.123-1.231.27-1.853s.432-1.455.63-1.853a7.8 7.8 0 0 1 .95-1.387c.323-.363.832-.811 1.13-.992.298-.183.806-.331 1.13-.333m.165.725c-.085-.001-.085.182 0 .406.083.223.142 1.016.132 1.762-.015 1.052-.137 1.636-.543 2.617-.31.749-.872 1.65-1.381 2.215-.786.873-.824.954-.438.954.24 0 .69-.268 1.04-.619.34-.34.836-1.052 1.106-1.582.267-.53.615-1.452.768-2.048.156-.597.282-1.39.283-1.763-.002-.374-.09-.902-.198-1.175-.106-.275-.288-.556-.406-.63a.9.9 0 0 0-.363-.137m-.843.18c-.1 0-.192.059-.203.135-.013.075-.003.543.018 1.04.024.497-.096 1.392-.267 1.988-.17.597-.472 1.41-.671 1.808a6.4 6.4 0 0 1-.93 1.31c-.384.396-.509.65-.387.777.123.125.438-.091.985-.68.443-.475 1.006-1.313 1.252-1.86.284-.632.478-1.457.532-2.26.047-.695.032-1.489-.033-1.762-.063-.274-.197-.497-.296-.497m-57.153 5.421c-.11 0-.167.103-.123.226.043.124.48.448.97.72.49.27 1.155.494 1.479.496.323.002.587-.056.588-.132 0-.073-.244-.155-.542-.18s-.868-.209-1.266-.407c-.397-.2-.762-.443-.813-.542a.36.36 0 0 0-.293-.181m-62.027-.154c-1.007-.302-1.118-.305-1.091-.045.018.172.474.473 1.12.741.6.25 1.154.392 1.228.318.074-.072.074-.257 0-.407-.075-.15-.641-.423-1.257-.607m118.24-4.364c-.07 0-.161.06-.203.136s-.135.543-.206 1.04a8.2 8.2 0 0 1-.52 1.783c-.215.486-.496.975-.624 1.085-.13.113-.228.407-.22.657l.014.452a8.4 8.4 0 0 0 1.22-1.899c.249-.547.502-1.502.56-2.124.058-.62.047-1.13-.021-1.13m-106.36-.895c-.596.009-1.41.138-1.807.286-.398.15-.96.448-1.251.665s-.743.722-1.01 1.12l-.48.723c1.422-.93 2.243-1.316 2.74-1.461.498-.143 1.291-.26 1.763-.259.472 0 1.285.16 1.808.35.53.196 1.376.737 1.915 1.221.531.48 1.182 1.3 1.446 1.823.263.521.493.926.512.904.016-.025-.046-.434-.136-.906-.092-.474-.319-1.164-.505-1.536-.186-.375-.775-1.069-1.31-1.546-.535-.476-1.338-.986-1.786-1.132-.447-.147-1.302-.26-1.899-.252m-145.627 3.797c.15 0 .416.14.593.312.177.17.318.474.3 1.034l-.198-.36a2.9 2.9 0 0 0-.582-.676c-.28-.227-.309-.31-.113-.31m-.732-12.24c-.511-.194-.606-.16-1.313.466-.418.371-3.041 2.58-5.826 4.908a3628 3628 0 0 1-6.814 5.681c-.959.794-1.752 1.487-1.765 1.537-.008.051.23.192.531.317.544.224.576.204 3.032-1.899a1014 1014 0 0 1 7.548-6.343c2.786-2.32 5.088-4.273 5.114-4.338.024-.068-.204-.216-.507-.33m197.472 3.406-1.09 1.14-.164 3.255c1.43 2.072 2.354 3.15 2.976 3.732s1.23 1.06 1.356 1.06c.124.002.632-.404 1.13-.905.497-.499 1.047-.908 1.22-.906s.318.064.32.137c.002.075-.424.525-.949 1-.524.476-.885.922-.804.995s.771.03 1.536-.09c1.278-.205 1.463-.292 2.318-1.085.512-.476.938-.926.95-1 .008-.074-.695-.132-1.563-.128l-1.582.007a65 65 0 0 0-2.424-3.322c-1.03-1.33-1.452-1.745-1.689-1.672-.173.055-.358.017-.407-.082-.05-.1-.014-.325.076-.498.098-.184.107-.834.024-1.547l-.143-1.232zm3.177-2.32-.848.568c-.02 3.03.023 3.222.478 3.844.273.374.944 1.236 1.491 1.918.631.784 1.29 1.387 1.808 1.647.446.228 1.26.515 1.808.64l.995.228c1.675-1.714 1.722-1.812 1.619-2.492-.06-.397-.142-.784-.186-.858s-.527.313-1.072.858c-.547.547-1.137.995-1.31.995s-.806-.23-1.402-.51c-.638-.3-1.329-.803-1.678-1.22a8.8 8.8 0 0 1-.945-1.434c-.195-.398-.359-1.049-.362-1.446-.008-.656.087-.809 1.036-1.65l1.045-.93c-1.191-.593-1.557-.756-1.582-.745-.028.012-.428.276-.895.587m-148.429 7.091c.187-.217.303-.227.588-.053.197.118.357.32.355.444 0 .124-.103.26-.228.298-.125.04-.389-.04-.588-.173-.299-.206-.321-.292-.127-.516m-.77-5.077c.06.398.319 1.089.576 1.537s.672 1.057.921 1.356c.25.298.826.85 1.281 1.224a7.7 7.7 0 0 0 1.825 1.05c.545.203 1.157.344 1.356.314.231-.037-.028-.201-.724-.461-.596-.223-1.533-.76-2.079-1.196a13 13 0 0 1-1.757-1.764c-.421-.537-.931-1.382-1.137-1.88l-.372-.903zm152.535-1.717c-.081 0-.62.468-1.2 1.04-1.018 1.008-1.046 1.061-.921 1.762.07.398.311 1.01.535 1.357.224.348.563.76.75.917.186.158.726.503 1.197.769.471.265.939.482 1.04.482.099 0 .181-.08.181-.18s-.183-.219-.407-.264c-.33-.069-.363-.129-.176-.316.188-.19.304-.188.633.007.37.224.467.175 1.263-.633.473-.48.86-.935.858-1.009s-.184-.137-.408-.139-.753-.206-1.176-.452-1.015-.794-1.32-1.217c-.301-.423-.584-1.074-.627-1.446-.042-.372-.142-.677-.222-.678m-150.749-.364c-.406.002-.806.056-.89.123-.083.065-.135.453-.117.86.018.404.208 1.104.423 1.55.215.449.926 1.345 1.58 1.994.653.65 1.595 1.376 2.092 1.615.497.238 1.229.468 1.627.513.537.058.792-.003.994-.24.148-.175.253-.572.23-.88-.024-.308-.222-.927-.441-1.375-.219-.446-.933-1.346-1.586-1.999-.663-.663-1.624-1.402-2.18-1.675-.593-.29-1.293-.488-1.732-.486m83.08 4.901c-.11-.038-.033.206.17.543.201.338.472.65.599.693.134.045.063-.185-.168-.543-.219-.34-.49-.653-.6-.693m65.93-1.653a.28.28 0 0 1 .317-.121c.11.038.23.223.263.415.03.192-.071.41-.227.483-.2.096-.312.029-.376-.226-.05-.199-.04-.446.024-.55m3.417-3.788c-.468 0-.682.103-.837.406s-.156.58-.004 1.085c.11.373.466.974.79 1.335.324.362.893.808 1.266.994.372.187.864.338 1.093.338s.515-.102.636-.226.22-.45.218-.723-.136-.761-.295-1.085a5.7 5.7 0 0 0-.768-1.1c-.263-.283-.702-.628-.975-.77-.273-.138-.779-.254-1.124-.254m-2.448 2.893c.1 0 .232.102.294.226.06.125.058.388-.005.587-.109.34-.134.344-.427.055-.188-.188-.26-.418-.179-.588.07-.154.214-.28.317-.28m.632-.904c.051.002.178.225.28.497.116.313.121.564.014.678-.11.117-.243.023-.38-.271-.118-.248-.167-.553-.11-.678.055-.125.144-.225.196-.226M-178.857 2.68c.204 0 1.45.538 2.768 1.196s3.352 1.716 4.52 2.351c1.166.634 2.181 1.253 2.256 1.379.074.125.687 1.447 1.363 2.938.835 1.846 1.428 3.491 1.857 5.153.345 1.342.627 2.581.628 2.757-.002.173-.783 1.76-1.74 3.525-.954 1.764-1.869 3.348-2.034 3.52-.164.17-2.047 1.29-4.183 2.486-2.354 1.32-4.081 2.176-4.384 2.177-.273-.002-1.291-.402-2.26-.89-.969-.486-2.919-1.524-6.894-3.722l-2.182-4.43c-1.202-2.435-2.183-4.572-2.181-4.745.001-.176.448-1.518.991-2.983a135 135 0 0 1 2.356-5.89l1.627-.995c.895-.548 2.864-1.633 4.374-2.412 1.509-.777 2.913-1.415 3.118-1.415m205.222-.006c.592-.003.988.127 1.523.506.398.28.922.833 1.164 1.227.279.448.447.998.452 1.48.011.752-.038.816-5.774 6.53l.346.51c.19.28.497.957.681 1.504.185.546.332 1.258.332 1.582a3.8 3.8 0 0 1-.243 1.175c-.132.324-.438.718-.679.875-.24.157-.7.342-1.024.407-.345.07-1.017.004-1.628-.161-.571-.154-1.488-.528-3.028-1.383L16.04 19.43a6536 6536 0 0 0-6.192 6.346c-3.563 3.653-3.778 3.842-4.424 3.842-.372-.002-.942-.165-1.265-.362a1.78 1.78 0 0 1-.787-1.04c-.11-.372-.142-.882-.074-1.13.067-.25.497-.858.954-1.355.458-.498 3.217-3.365 11.432-11.842l-.55-.86c-.3-.471-.667-1.265-.813-1.762-.148-.497-.266-1.23-.262-1.627.002-.398.104-.924.226-1.168s.508-.638.857-.875c.52-.356.792-.417 1.536-.345.497.047 1.392.333 3.073 1.184l2.906-2.878c2.865-2.84 2.915-2.878 3.707-2.884m-153.911-.705c.372-.094 1.166-.124 1.762-.07.597.056 1.573.275 2.169.488s1.571.67 2.166 1.018c.595.347 1.742 1.281 2.546 2.077 1.143 1.13 1.63 1.783 2.231 2.983.582 1.168.79 1.82.864 2.712.054.646.008 1.52-.103 1.944-.141.538-.512 1.086-1.24 1.829-.705.72-1.273 1.128-1.763 1.265-.397.11-1.129.201-1.627.201a9 9 0 0 1-1.808-.235c-.896-.231-.907-.229-1.356.299-.249.293-.676.642-.949.777-.334.167-.535.441-.613.835a3.4 3.4 0 0 1-.406 1.026c-.16.24-.556.545-.879.677-.324.132-.588.364-.588.512s-.244.414-.54.587c-.322.188-.541.465-.537.679.003.199-.181.6-.409.89-.226.291-.676.637-1 .769-.466.19-.585.342-.582.736.004.288-.186.707-.452.994-.251.273-.661.54-.909.588-.32.063-.503.262-.622.678-.094.323-.461.851-.813 1.175-.355.323-.827.626-1.051.67-.225.048-.814.121-1.311.165s-1.698.312-2.669.595c-1.565.455-1.793.483-2.026.243-.221-.226-.233-.555-.081-1.99.099-.945.131-2.166.068-2.711-.079-.702-.029-1.209.17-1.718.156-.398.528-.906.828-1.13.416-.31.545-.548.541-.994-.003-.346.163-.807.407-1.117.226-.292.676-.637 1-.77.478-.194.587-.337.587-.78 0-.354.183-.73.528-1.084.291-.299.636-.541.768-.54.139.002.299-.305.376-.722.098-.526.312-.865.773-1.225.349-.273.679-.701.733-.949.056-.25.218-.634.36-.858.143-.224.544-.53.891-.678.38-.163.633-.398.631-.588 0-.174.194-.6.864-1.582l-.342-.858c-.216-.548-.337-1.3-.336-2.08.004-.787.122-1.476.335-1.943a6.8 6.8 0 0 1 .855-1.337 4.6 4.6 0 0 1 1.202-.948 8 8 0 0 1 1.357-.505m50.124 2.714c.943-.009 2.407.102 3.254.246.844.145 2.145.479 2.892.744.745.264 2 .86 2.788 1.32.787.462 1.971 1.369 2.631 2.014.66.646 1.495 1.705 1.855 2.35.36.646.78 1.664.936 2.26.179.69.28 1.875.28 3.255 0 1.4-.1 2.553-.285 3.254a13 13 0 0 1-.837 2.17c-.302.596-1.047 1.605-1.654 2.242-.606.636-1.673 1.533-2.37 1.996-.695.46-1.977 1.099-2.846 1.419-.87.318-2.335.712-3.255.873-1.225.213-2.274.263-3.931.19-1.376-.062-2.863-.25-3.797-.485-.846-.21-2.148-.667-2.893-1.016-.746-.349-1.844-.981-2.44-1.406a14 14 0 0 1-1.946-1.75 13.7 13.7 0 0 1-1.486-2.154c-.343-.645-.746-1.745-.898-2.44-.15-.697-.277-1.957-.279-2.803-.001-.846.083-2.025.192-2.622.106-.596.468-1.654.802-2.35.333-.695 1.04-1.746 1.568-2.331.53-.588 1.45-1.416 2.047-1.84a20 20 0 0 1 2.35-1.394c.695-.343 1.672-.755 2.17-.92.496-.162 1.472-.41 2.168-.55.696-.139 2.038-.261 2.984-.272m93.655 9.929c-.076.001-2.409 2.34-5.189 5.198-2.778 2.858-5.515 5.705-6.082 6.327s-1.029 1.292-1.03 1.491c0 .2.204.567.451.815.25.25.657.45.905.451.348 0 1.222-.791 3.84-3.48 1.861-1.914 4.608-4.719 6.1-6.232l2.715-2.75c-1.221-1.409-1.638-1.82-1.71-1.82m-183.331 5.243c-.089 0-.207.081-.261.18-.055.1-1.056.74-2.224 1.42-1.167.681-2.571 1.48-3.118 1.775-.922.497-1.111.722-2.562 3.056-.861 1.381-1.53 2.533-1.491 2.563.041.025.625-.25 1.295-.61a156 156 0 0 0 3.443-1.943l2.222-1.289a763 763 0 0 1 2.624-4.746c.128-.224.16-.406.072-.406m144.24-15.418a2.7 2.7 0 0 1 1.48-.246c.447.041 1.14.24 1.538.441a9 9 0 0 1 1.446.988c.398.34 1 1.14 1.34 1.777.437.822.641 1.473.703 2.243.047.597-.004 1.369-.113 1.718-.146.465-1.148 1.548-3.776 4.077a1045 1045 0 0 1-7.022 6.688 515 515 0 0 1-5.288 4.918c-1.26 1.143-2.03 1.707-2.432 1.78-.333.064-1.018-.013-1.582-.176-.548-.157-1.33-.553-1.74-.877-.41-.325-1.01-.917-1.33-1.314a10.4 10.4 0 0 1-.99-1.537c-.226-.448-.46-1.12-.524-1.492a4 4 0 0 1 .056-1.355c.137-.543.801-1.297 3.3-3.754 1.72-1.692 5.635-5.434 8.697-8.316 3.064-2.883 5.87-5.386 6.237-5.563M-186.532 8.92c-.199-.041-.584.002-.858.096-.438.15-.629.514-1.604 3.018-1.081 2.784-1.104 2.88-1.032 4.294.069 1.397.128 1.566 1.782 4.977l1.712 3.528a114 114 0 0 0 5.018 2.769c1.863.969 2.61 1.269 2.982 1.202.275-.049.715-.313.979-.588s.976-1.29 1.582-2.262c1.053-1.686 1.1-1.81 1.1-2.937 0-1.034-.163-1.591-1.363-4.655-.766-1.956-1.655-3.903-2.033-4.45-.369-.53-.997-1.157-1.395-1.386-.398-.23-2.024-1.12-3.615-1.975-1.591-.857-3.056-1.59-3.255-1.63m47.677 17.334c-.356-.453-.413-.474-.407-.162.001.2-.056.79-.13 1.313-.123.878-.107.95.227.938.199-.007.809-.152 1.357-.322l.994-.31c-1.262-.724-1.813-1.17-2.041-1.457m48.242-6.174c-.005.075.183.563.418 1.086.235.522.804 1.457 1.265 2.079.46.621 1.389 1.542 2.06 2.046.67.505 1.748 1.168 2.395 1.474.645.306 1.947.748 2.892.985.944.236 2.531.48 3.526.542 1.323.082 2.318.028 3.706-.204 1.043-.173 2.387-.494 2.983-.709.597-.217 1.655-.708 2.35-1.093.778-.433 1.789-1.23 2.622-2.074.933-.945 1.538-1.754 1.943-2.594.324-.67.59-1.321.593-1.447.003-.124-.208.1-.468.497-.26.398-.976 1.235-1.587 1.86-.612.628-1.724 1.494-2.47 1.928-.746.432-1.925.99-2.621 1.24-.697.25-1.998.591-2.893.761-1.244.237-2.204.288-4.067.215-1.879-.072-2.837-.204-4.159-.575-.945-.264-2.328-.799-3.073-1.19s-1.824-1.076-2.395-1.525c-.572-.448-1.346-1.204-1.718-1.681a37 37 0 0 1-.985-1.31c-.168-.244-.31-.383-.317-.31M-228.764 1.779c.161.002.658.111 1.104.247.449.134 1.181.429 1.627.653.449.226 1.425.835 2.17 1.354 1.182.822 1.531 1.206 2.73 3.005 1.263 1.894 1.421 2.236 1.949 4.23.502 1.9.542 2.215.322 2.531-.137.2-.555.727-.928 1.175-.372.447-1.136 1.199-1.698 1.667-.56.47-1.12.857-1.245.86s-.49.334-.813.735c-.324.401-.71.768-.86.817-.149.047-.904-.16-3.073-1.005l-1.039.933c-.571.513-2.215 1.998-3.651 3.3a1688 1688 0 0 1-4.338 3.92c-.951.856-1.912 1.648-2.136 1.763s-.793.206-1.265.204c-.472-.001-1.205-.164-1.628-.36-.423-.198-1.225-.786-1.782-1.308-.582-.545-1.239-1.392-1.537-1.989-.287-.571-.572-1.345-.634-1.718a4.9 4.9 0 0 1 0-1.355c.087-.52.394-.96 1.334-1.899.671-.67 3.05-2.84 5.288-4.82a862 862 0 0 1 4.305-3.798c.197-.16.183-.356-.385-2.003l1.252-3.796 1.255-.957c.69-.526 1.734-1.28 2.319-1.672.586-.394 1.196-.716 1.357-.714m189.59 19.704c-.353 0-.753.137-.928.316-.231.239-.287.538-.23 1.221.044.497.254 1.27.47 1.717.212.448.779 1.207 1.254 1.688.477.483 1.172 1.03 1.545 1.221.372.19 1.023.349 1.446.355.505.005.863-.098 1.04-.3.152-.172.267-.633.262-1.047-.006-.445-.224-1.167-.542-1.803-.293-.582-.9-1.403-1.347-1.822-.448-.42-1.159-.938-1.582-1.153s-1.047-.393-1.388-.393m-203.945-1.077c-.397.002-.851.084-1.01.185-.158.1-.382.504-.498.898-.115.396-.157.942-.094 1.215.065.273.31.883.543 1.355.235.472.771 1.232 1.194 1.686.423.455 1.176 1.024 1.673 1.266.497.244 1.172.441 1.499.44.396 0 .746-.154 1.039-.453.324-.328.445-.652.445-1.176 0-.398-.16-1.15-.353-1.672-.194-.523-.702-1.348-1.13-1.834-.429-.488-1.184-1.117-1.681-1.4-.585-.333-1.159-.512-1.627-.51m104.795 1.438c-.085 0-.284.143-.439.317-.158.173-.367.52-.465.768-.123.31-.111.706.033 1.257.138.528.477 1.076.98 1.582.423.428 1.237.992 1.808 1.254.795.365 1.21.453 1.763.373.493-.07.88-.279 1.22-.658.273-.304.497-.635.497-.735-.002-.1-.388-.262-.859-.36-.472-.099-1.367-.506-1.989-.905-.622-.398-1.377-1.069-1.679-1.491s-.586-.912-.633-1.085c-.045-.174-.152-.317-.237-.317m113.1-14.418c-1.41 1.318-4.314 4.057-6.454 6.09a748 748 0 0 0-5.568 5.333c-.919.901-1.672 1.7-1.672 1.776.003.073.187.134.41.136.225 0 .814.236 1.311.522.497.285 1.29.934 1.763 1.444s1.06 1.352 1.305 1.875c.246.522.47 1.255.498 1.627.027.37.07.674.095.678.026 0 2.137-1.973 4.694-4.384s6.157-5.83 8-7.599c1.844-1.768 3.452-3.395 3.57-3.616.122-.22.225-.747.226-1.17.004-.423-.137-1.155-.312-1.627-.177-.472-.604-1.217-.95-1.654-.344-.438-1.035-1.027-1.532-1.309-.678-.385-1.145-.514-1.863-.515l-.958-.002zm-51.294-1.94c-.846-.039-2.148.012-2.893.111-.746.101-2.088.42-2.983.707-.895.29-2.239.887-2.983 1.328-.747.443-1.799 1.197-2.34 1.678-.54.479-1.298 1.36-1.681 1.956s-.858 1.614-1.054 2.26a9.2 9.2 0 0 0-.352 2.395 6.8 6.8 0 0 0 .452 2.442c.248.672.756 1.661 1.13 2.198s1.047 1.3 1.495 1.697c.446.396 1.22.985 1.717 1.31.497.324 1.513.839 2.26 1.142.744.302 1.965.69 2.711.863.978.226 2.113.309 4.069.303 2.176-.009 2.995-.087 4.158-.398.795-.212 2.218-.768 3.164-1.234 1.381-.684 2.003-1.134 3.184-2.304 1.104-1.095 1.61-1.764 2.057-2.719.325-.696.676-1.712.777-2.26.13-.7.125-1.368-.018-2.26-.125-.782-.463-1.78-.888-2.616-.403-.799-1.09-1.764-1.677-2.359a16 16 0 0 0-2.17-1.77c-.648-.419-1.806-1.005-2.577-1.301s-1.99-.666-2.712-.818c-.72-.151-2.002-.309-2.846-.35M-241.763 19.23c-.456-.085-.711-.037-.909.165-.246.251-.246.28 0 .282.152.002.703.204 1.225.451s1.341.838 1.822 1.31 1.1 1.306 1.376 1.852c.275.548.553 1.377.619 1.843.094.696.159.81.363.633.172-.15.224-.518.172-1.21-.04-.546-.27-1.401-.51-1.898-.239-.497-.846-1.302-1.347-1.786-.502-.487-1.199-1.027-1.546-1.203a5.7 5.7 0 0 0-1.265-.439m105.397-.09c-.047.004-.358.145-.688.31-.513.26-.548.314-.227.355.318.044.376.178.376.864 0 .449-.081.814-.181.814s-.242-.246-.316-.546-.196-.543-.27-.542-.135.146-.133.32c.002.173.165.661.362 1.084s.703 1.11 1.126 1.528 1.215.962 1.763 1.21c.58.262 1.347.455 1.839.46.663.01.945-.085 1.314-.44.26-.248.469-.596.466-.77-.002-.196-.192-.355-.5-.42a14 14 0 0 1-1.04-.279c-.299-.096-.868-.36-1.266-.59-.398-.232-1.023-.777-1.388-1.214-.367-.438-.776-1.1-.908-1.473-.133-.372-.28-.674-.329-.67m-104.609-1.089c-.211-.002-.477.12-.587.268-.166.226-.055.318.657.55.472.153 1.286.602 1.809.994.533.403 1.267 1.211 1.677 1.846.427.66.821 1.556.95 2.155.121.563.281.992.355.949.074-.042.138-.503.14-1.025.003-.523-.11-1.232-.253-1.581-.141-.348-.57-1.055-.953-1.57-.384-.515-.982-1.155-1.329-1.42a9 9 0 0 0-1.356-.822c-.398-.186-.897-.34-1.11-.344m222.7-7.684c.105.061.18.227.17.37-.01.144-1.216 1.38-2.68 2.746-.731.683-1.621 1.519-2.466 2.313l-4.386 4.143c-.845.794-1.736 1.63-2.467 2.312-1.681 1.57-2.763 2.454-2.935 2.396-.148-.049-.274-.152-.278-.226s1.318-1.4 2.938-2.945c1.62-1.546 4.964-4.702 7.43-7.015 2.467-2.31 4.57-4.152 4.674-4.094m-167.216 3.156c.555-.266.982-.342 1.537-.272.423.053 1.074.25 1.447.44.372.188 1.074.696 1.558 1.13.486.432 1.198 1.274 1.587 1.87.387.597.867 1.615 1.065 2.26.198.646.36 1.644.358 2.216-.002.57-.112 1.304-.244 1.627-.134.324-.519.821-.859 1.107-.56.47-.721.51-1.724.451-.938-.056-1.268-.177-2.157-.79-.579-.398-1.402-1.17-1.829-1.717-.426-.546-.975-1.401-1.219-1.898s-.583-1.434-.749-2.08c-.177-.686-.266-1.513-.213-1.989.05-.446.222-1.076.383-1.4.182-.369.577-.726 1.059-.955m-54.478 3.623c-.257 0-.523.06-.59.134s.427.39 1.099.703c.881.408 1.499.87 2.216 1.65.546.597 1.19 1.481 1.431 1.964.238.484.482 1.18.542 1.547.087.546.152.63.352.452.181-.157.214-.457.124-1.119-.067-.497-.342-1.305-.608-1.797s-.891-1.298-1.389-1.795c-.497-.495-1.31-1.089-1.807-1.32-.497-.23-1.113-.417-1.37-.419m54.573-2.895c-.073.001-.248.184-.389.408-.143.222-.313.732-.382 1.13-.077.459-.014 1.148.174 1.898.165.645.537 1.621.828 2.169.293.546.884 1.401 1.313 1.898.443.514 1.204 1.12 1.763 1.404.54.274 1.226.496 1.525.493.298-.002.643-.065.767-.137.141-.083-.161-.3-.814-.583-.593-.257-1.492-.875-2.096-1.446-.771-.727-1.261-1.408-1.807-2.52-.709-1.435-.75-1.613-.75-3.117 0-.877-.06-1.594-.132-1.597m15.56-5.561c-.134-.023-.814.27-1.509.653a160 160 0 0 0-3.526 2.048c-1.78 1.063-2.272 1.441-2.319 1.788-.034.24.398 1.618.96 3.059a304 304 0 0 0 1.824 4.565c.441 1.07.862 1.945.937 1.948.077 0 1.275-.66 2.667-1.472s2.979-1.772 3.525-2.134c.883-.585.987-.717.931-1.194-.037-.296-.372-1.596-.748-2.888-.376-1.293-1.093-3.245-1.592-4.339s-1.018-2.009-1.15-2.034m-68.706 7.496c-.404-.06-.793-.007-.994.136-.298.213-.271.244.304.34.349.06 1.157.455 1.797.881.64.427 1.468 1.183 1.841 1.68.374.497.843 1.271 1.048 1.718.202.448.371 1.037.373 1.31.001.273.085.497.184.497.1 0 .222-.121.271-.271.05-.148.093-.535.094-.858.002-.324-.235-1.077-.526-1.673s-.882-1.456-1.314-1.907c-.431-.452-1.151-1.033-1.599-1.29-.447-.256-1.112-.509-1.479-.563m54.384-2.296c-.128 0-.3.054-.384.12-.083.068-.139.698-.123 1.4.015.706.178 1.73.361 2.277.182.546.582 1.36.885 1.808.306.446.91 1.162 1.344 1.588.434.425 1.113.929 1.511 1.117s.924.368 1.172.4c.283.037.468-.041.506-.213.039-.18-.233-.39-.808-.62-.486-.197-1.275-.754-1.788-1.266-.595-.593-1.163-1.427-1.609-2.362-.572-1.2-.701-1.687-.761-2.848-.051-.986-.141-1.4-.306-1.4m48.803 3.265c-.372.282-.494.523-.48.95.011.317.178.901.368 1.299.191.398.759 1.11 1.263 1.582s1.263 1.02 1.684 1.217c.423.197 1.175.363 1.672.369.614.007 1.03-.093 1.302-.314.216-.177.421-.48.452-.672.043-.274-.093-.382-.624-.498-.373-.081-1.063-.343-1.536-.582-.472-.236-1.257-.786-1.744-1.22-.488-.431-1.104-1.173-1.372-1.649l-.486-.86zm-101.709-2.132c-.557-.062-.883-.013-1.033.157-.177.2-.045.32.725.65.519.22 1.419.832 2.001 1.356a6.8 6.8 0 0 1 1.676 2.218c.342.696.668 1.55.726 1.898.077.474.144.564.261.362.089-.149.162-.577.163-.95.002-.372-.079-.902-.18-1.175-.101-.272-.144-.537-.095-.587.051-.049.167.114.257.361.092.25.273.697.401.995l.236.542c.088-.969-.082-1.54-.431-2.215a10 10 0 0 0-1.355-1.898c-.451-.472-1.205-1.03-1.678-1.24-.472-.212-1.226-.423-1.674-.474m53.987-.78c-.09.006-.116.55-.056 1.23.074.834.279 1.56.653 2.304.3.596.813 1.405 1.141 1.798.327.392.96.941 1.408 1.221s.915.51 1.04.508c.124-.002.225-.165.225-.363 0-.213-.204-.464-.497-.612-.273-.138-.859-.646-1.301-1.13-.443-.485-1.033-1.368-1.311-1.964-.278-.597-.559-1.41-.622-1.808-.063-.397-.206-.83-.316-.958s-.273-.23-.364-.226m105.744-3.413c.299-.009 1.03.073 1.627.183a10 10 0 0 1 2.08.675c.547.262 1.258.743 1.582 1.068.323.326.75.917.949 1.315.226.453.36 1.077.358 1.672-.002.537-.15 1.264-.34 1.672-.186.398-.65 1.024-1.036 1.39-.385.366-1.147.885-1.694 1.154-.546.27-1.522.575-2.17.678-.861.136-1.511.127-2.44-.036-.72-.127-1.727-.472-2.334-.8-.586-.317-1.343-.903-1.681-1.3-.344-.405-.736-1.162-.894-1.718-.177-.624-.233-1.231-.153-1.627.069-.35.27-.917.446-1.266.177-.349.617-.897.977-1.22a8.2 8.2 0 0 1 1.425-.984c.423-.219 1.216-.497 1.762-.618.548-.121 1.238-.228 1.536-.238m-56.304 4.144c-.111 0-.301.207-.422.458-.181.369-.175.608.027 1.22.157.483.622 1.132 1.266 1.77.569.564 1.47 1.219 2.054 1.492.583.27 1.357.484 1.762.484.398 0 .765-.081.814-.18.05-.1-.337-.297-.859-.44-.52-.141-1.372-.568-1.887-.95-.517-.38-1.275-1.136-1.682-1.684-.409-.548-.772-1.259-.808-1.582-.038-.323-.157-.587-.265-.588m-102.229-1.084c-.49 0-.89.107-1.04.278-.215.244-.183.278.25.27.275-.003.721.092.994.21.275.12.973.549 1.555.95.582.403 1.246.976 1.474 1.275.229.298.627.99.883 1.537.259.547.467 1.198.463 1.446-.005.41.022.426.295.18.215-.195.277-.473.221-.994-.044-.397-.273-1.13-.51-1.626-.237-.498-.801-1.301-1.253-1.784s-1.208-1.074-1.681-1.31c-.514-.259-1.175-.432-1.651-.432m159.076.058c-1.236-.054-1.846.008-2.54.252-.5.177-1.193.513-1.537.746s-.862.762-1.153 1.176l-.53.752c.541.979 1.105 1.532 1.602 1.863.497.329 1.31.716 1.808.86.497.144 1.432.263 2.079.263s1.582-.12 2.079-.264a6.7 6.7 0 0 0 1.673-.815c.423-.304.97-.838 1.22-1.185.415-.582.432-.674.197-1.13-.141-.274-.487-.711-.769-.975-.282-.263-.962-.702-1.507-.977-.81-.405-1.295-.51-2.622-.566m-104.116 2.021c-.697-.74-.829-.822-.733-.452.065.248.314.899.551 1.446s.797 1.36 1.244 1.809c.444.446.845.77.889.723.043-.052-.186-.66-.509-1.356-.324-.696-.974-1.673-1.442-2.17m49.335-2.62c-.099.006-.403.21-.678.456-.316.286-.495.627-.494.944.004.273.156.822.342 1.22.185.398.691 1.063 1.126 1.477a9 9 0 0 0 1.692 1.225c.646.335 1.178.469 1.854.465.705-.002 1.043-.098 1.31-.365.199-.199.362-.483.362-.633 0-.236-.04-.235-.317.01-.22.2-.37.227-.497.092q-.18-.193.049-.418c.127-.125.228-.287.227-.362-.003-.074-.227-.175-.501-.224-.273-.05-.986-.4-1.582-.78-.597-.381-1.32-.97-1.608-1.312a7.4 7.4 0 0 1-.813-1.213c-.159-.325-.372-.587-.472-.582m-103.231-.72c-.199.004-.518.09-.709.19-.19.102-.332.262-.317.356.018.094.235.172.483.172.249 0 .911.224 1.471.497.592.288 1.411.916 1.952 1.492.58.62 1.082 1.387 1.33 2.034.22.57.399 1.202.399 1.401s.102.334.227.302c.128-.033.247-.407.274-.859.034-.546-.087-1.085-.378-1.703-.237-.497-.828-1.345-1.314-1.884-.575-.632-1.271-1.159-1.972-1.49-.596-.282-1.247-.51-1.446-.508m2.319-6.604c-.399-.083-.607-.046-.678.12-.054.134-.306.832-.555 1.55-.427 1.237-.436 1.346-.17 1.9l.284.587c.613-.595.972-.86 1.196-.972s.713-.204 1.085-.206c.372 0 1.085.198 1.582.442s1.364.916 1.926 1.493c.56.578 1.233 1.499 1.491 2.045.26.548.525 1.443.588 1.99.107.928.075 1.038-.454 1.671-.312.373-.527.758-.478.858s.478.305.95.456c.471.15.94.275 1.04.277.099 0 .416-.428.705-.951.455-.832.508-1.074.403-1.86-.083-.623-.494-1.58-1.318-3.074-.66-1.193-1.573-2.562-2.033-3.043-.457-.48-1.319-1.12-1.916-1.423a41 41 0 0 1-2.079-1.143c-.547-.33-1.253-.652-1.569-.717m-1.091 5.693c-.417 0-.8.064-.851.138s.373.313.94.53c.568.216 1.439.756 1.937 1.2.497.443 1.189 1.284 1.536 1.866s.765 1.466.929 1.963c.246.743.322.84.434.542.074-.199.084-.87.021-1.49-.065-.621-.178-1.128-.253-1.13-.075.002-.27-.222-.433-.497-.165-.275-.631-.844-1.039-1.266a10.4 10.4 0 0 0-1.603-1.313c-.607-.387-1.081-.545-1.618-.543M16.858 8.073c-.298-.049-.72-.057-.94-.019-.218.036-.544.235-.723.44-.224.254-.325.664-.325 1.31 0 .726.16 1.26.712 2.374.526 1.067 1.063 1.79 2.079 2.805.981.981 1.75 1.556 2.722 2.039.937.463 1.596.67 2.125.667.423-.002.902-.065 1.065-.14.164-.075.416-.381.56-.68.179-.368.223-.772.136-1.265-.07-.398-.302-1.112-.514-1.589-.212-.474-.427-.856-.478-.851-.05.007-.437.336-.86.73-.42.394-.85.716-.949.716-.1 0-.484-.125-.858-.278-.373-.156-.993-.583-1.378-.95-.383-.369-.85-.996-1.034-1.393-.186-.398-.34-.926-.344-1.175-.005-.28.23-.691.622-1.085.347-.347.591-.693.546-.769-.048-.074-.43-.284-.853-.468-.42-.183-1.013-.37-1.311-.42m-248.181 1.659c-.222.002-.508.063-.631.136-.141.083.158.3.809.584.567.25 1.4.786 1.85 1.195.451.408 1.052 1.06 1.335 1.446.317.432.473.826.407 1.02-.06.175-.169.32-.244.322s-.237-.201-.362-.452c-.123-.252-.571-.832-.994-1.291-.421-.46-1.093-1.027-1.491-1.262s-1.008-.508-1.357-.607c-.347-.1-.814-.143-1.039-.094-.221.047-.408.146-.411.22-.002.076.243.197.543.271.3.076.975.409 1.495.74.523.332 1.255.942 1.627 1.356.374.414.923 1.281 1.221 1.927s.542 1.338.542 1.537c0 .202.101.334.226.3.148-.04.227-.432.229-1.13.004-.87.062-1.075.316-1.114.234-.032.342.129.425.633.1.6.134.636.293.317.1-.2.131-.606.068-.905-.062-.298-.321-.99-.574-1.537s-.842-1.386-1.308-1.867c-.468-.48-1.236-1.07-1.709-1.31-.472-.24-1.042-.437-1.266-.435m100.827 1.125c-.175.237-.289.714-.278 1.173.009.425.17 1.078.358 1.45.187.374.695 1.03 1.13 1.46.434.433 1.237.997 1.783 1.258.556.265 1.326.477 1.748.482.569.007.867-.102 1.216-.443.253-.248.423-.511.376-.587s-.553-.379-1.126-.675c-.571-.296-1.522-.969-2.111-1.491a22 22 0 0 1-1.935-1.99l-.864-1.038zm-91.918 4.88c-.33-.205-.361-.179-.363.32-.004.498.028.525.36.318.199-.125.362-.268.364-.319 0-.051-.162-.194-.361-.318m91.85-8.63c-.007.454.197 1.163.548 1.898.305.647.953 1.663 1.437 2.26s1.433 1.505 2.108 2.017c.676.51 1.636 1.13 2.134 1.379.497.25 1.35.584 1.898.745.546.16 1.441.285 1.988.274l.994-.02c-2.382-.5-3.561-.864-4.158-1.131-.596-.268-1.572-.835-2.169-1.262-.596-.427-1.533-1.263-2.079-1.857-.548-.595-1.257-1.52-1.577-2.059-.318-.537-.699-1.425-.846-1.973l-.265-.994zm54.045 4.577c-.546-.047-1.36-.03-1.808.041a8 8 0 0 0-1.627.48c-.448.195-1.099.6-1.446.9s-.776.844-.95 1.207-.319.803-.322.979c-.006.23.212.11.813-.453.452-.423 1.208-.938 1.68-1.142.472-.206 1.386-.436 2.033-.512a11 11 0 0 1 2.26.013c.596.083 1.573.387 2.17.675.596.289 1.348.816 1.671 1.174.355.39.588.542.588.38 0-.15-.108-.537-.24-.86-.134-.323-.642-.937-1.13-1.365-.49-.427-1.297-.924-1.794-1.105a9 9 0 0 0-1.898-.412m-146.158-5.531c-.024-.028-.442.266-.929.652-.49.387-1.105.9-1.367 1.138-.416.376-.467.537-.391 1.243.047.448.292 1.22.543 1.718.251.497.844 1.555 1.318 2.35.473.796 1.054 1.584 1.291 1.75.417.297.453.282 1.565-.633.627-.514 1.134-1.017 1.128-1.117s-.223-.995-.484-1.989c-.391-1.487-.666-2.093-1.553-3.434-.595-.895-1.1-1.65-1.121-1.678m96.17-3.464c-.597.004-1.367.107-1.714.231-.346.123-.834.492-1.085.818-.39.507-.455.779-.455 1.901 0 1.143.085 1.483.677 2.7.516 1.059 1.035 1.748 2.17 2.883.821.82 1.94 1.755 2.486 2.075.546.322 1.482.762 2.079.979.728.265 1.531.4 2.44.41 1.049.013 1.498-.066 1.977-.346.341-.199.79-.647.994-.994.267-.452.374-.947.374-1.73 0-.934-.119-1.338-.799-2.711-.629-1.267-1.094-1.906-2.173-2.971-.911-.9-1.826-1.594-2.724-2.064-.745-.39-1.761-.816-2.258-.948-.497-.13-1.393-.235-1.989-.233M21.38 7.886l-2.839 2.839c.3.998.767 1.629 1.293 2.124.528.495 1.085.858 1.32.86.289.002 1.186-.81 3.119-2.818 2.14-2.227 2.654-2.857 2.44-2.983-.15-.089-.312-.159-.361-.158-.05.002-.411-.305-.802-.681-.39-.376-.85-.983-1.021-1.352l-.31-.667zm-153.105 4.557c-.134 0-.392.148-.574.33-.183.18-.317.385-.299.452s.277 0 .575-.15c.298-.148.541-.352.542-.451 0-.1-.11-.181-.244-.181m-47.166-9.034c-.027.004-1.266.638-2.757 1.413-1.491.773-3.265 1.726-3.941 2.119-.96.553-1.179.756-.995.911.13.113 1.375.812 2.766 1.559s3.202 1.692 4.023 2.104c.82.41 1.613.746 1.762.746.148 0 1.838-.93 3.752-2.07a1276 1276 0 0 1 3.751-2.227c.201-.117-.267-.441-1.807-1.255a250 250 0 0 0-4.294-2.202c-1.217-.606-2.231-1.1-2.26-1.098m54.671 1.983c.086 0 .561.368 1.057.814.855.77.926.798 1.311.54.224-.15.527-.27.678-.266.15.004.415.147.592.318.177.17.318.434.315.582-.006.149-.231.444-.997 1.035l1.346 1.768-.911.903-.716-.858c-.392-.472-.834-.858-.985-.858-.15 0-.56.143-1.552.632l-.88-1.085 1.347-1.144-.678-.875c-.634-.817-.659-.893-.379-1.19.162-.173.367-.316.452-.316m1.102 2.186c.212.522.192.588-.316 1.027-.35.305-.414.417-.181.32.199-.086.626-.181.949-.216.374-.04.588-.162.588-.334 0-.148.224-.435.497-.634.273-.201.423-.411.334-.467-.09-.056-.358.045-.596.227-.423.324-.447.323-.967-.075l-.533-.407zm-105.581-4.886c-.293.007-.942.344-1.582.821-.596.444-1.165.882-1.265.97-.118.106-.046.372.206.763.242.374.884.87 1.717 1.32.732.398 1.656.861 2.054 1.03s.865.31 1.039.316c.174.005.669-.253 1.1-.577a30 30 0 0 0 1.446-1.175c.365-.324.66-.649.659-.723-.001-.075-.712-.598-1.581-1.16-.868-.563-1.965-1.152-2.437-1.31s-1.083-.282-1.356-.275m254.128 2.79c-.287-.497-.521-.782-.523-.633-.004.148.226.637.51 1.085.303.479.823.98 1.268 1.22.414.224.75.345.747.271s-.337-.34-.743-.587c-.445-.273-.944-.81-1.259-1.356m.852-2.08c-.138.001-.362.13-.497.287-.199.231-.204.408-.027.948.12.365.487.934.814 1.263.453.455.766.606 1.317.633.703.032.726.017.774-.599.037-.43-.085-.835-.374-1.266-.234-.348-.725-.775-1.09-.949s-.778-.316-.917-.316"/></g></svg>