<svg xmlns="http://www.w3.org/2000/svg" fill="none" viewBox="0 0 32 32"><mask id="a" width="32" height="32" x="0" y="0" maskUnits="userSpaceOnUse" style="mask-type:alpha"><path fill="#d9d9d9" d="M0 0h32v32H0z"/></mask><g mask="url(#a)"><path fill="#e31e24" d="m-37.493 1.627.452.21 1.475.679a1456 1456 0 0 0 8.724 3.98l.483.219.548.546c.363.36.64.72.815 1.056.146.28.333.787.415 1.128.147.606.15.796.15 18.848l-1.528 3.057-.382.178c-.197.092-.338.134-.458.138l-.018.001a.5.5 0 0 1-.119-.012.58.58 0 0 1-.305-.196 9 9 0 0 1-.24-.51 191 191 0 0 1-1.134-2.547l-.073-17.32-.218-.39c-.12-.216-.3-.449-.4-.519l-.05-.027c-.188-.102-.779-.385-1.406-.665-.558-.25-1.738-.786-2.874-1.31l-.838-.385-.546-.252c-1.13-.522-2.13-.986-2.35-1.08a5 5 0 0 0-.461-.195l-.063-.017q-.005 0-.008.035c-.031.262-.05 2.099-.057 8.168-.002 2.207-.002 4.973 0 8.426l-.662 1.42c-.103.216-.205.424-.297.614-.165.344-.303.627-.385.78a2 2 0 0 1-.068.127q-.017.015-.048.038a2 2 0 0 1-.331.204c-.187.092-.368.13-.509.103-.12-.022-.254-.083-.3-.134a4 4 0 0 1-.187-.387c-.207-.45-.604-1.344-1.296-2.946v-8.9c0-4.57.01-6.954.036-8.186.015-.713.036-1.04.066-1.181q.008-.038.019-.08a4 4 0 0 1 .263-.757c.05-.1.12-.213.191-.313.072-.102.145-.192.203-.247.11-.102.634-.444 1.158-.757.287-.172.576-.332.796-.448.18-.095.315-.16.368-.174.116-.032.49-.05 1.449-.02m12.38 26.927c-.036-.005-.315.096-.643.236-.337.145-.641.29-.684.327-.024.031-.066.22-.11.484a14 14 0 0 0-.078.533l-.046.365c-.046.366-.082.65-.083.688q0 .021.008.033.021.027.106-.006l.102-.046a.5.5 0 0 0 .137-.11c.109-.12.241-.345.467-.781q.102-.197.233-.456c.34-.68.608-1.25.595-1.267zM23.82.71c.137 0 .363.029.569.07l.195.045c.24.062.732.255 1.092.43q.109.054.239.125c.342.185.76.442 1.034.64.213.154.493.383.744.603.153.133.297.261.409.37.146.142.314.321.464.494s.286.341.37.461c.16.24.356.568.43.728.065.16.13.43.13.598 0 .131-.025.292-.062.41a1 1 0 0 1-.04.102q-.009.014-.021.03a3.5 3.5 0 0 1-.474.556c-.186.186-.293.282-.42.342-.115.056-.247.082-.474.117-.296.045-.892.06-2.33-.011l-.405.566a1424.272 1424.272 0 0 0-3.087 4.277c-.806 1.121-2.427 3.365-3.602 4.986l-.967 1.335-2.09 2.885c-.506.7-1.876 2.6-3.04 4.221-.42.582-.826 1.14-1.18 1.622-.395.54-.726.985-.939 1.263-.126.164-.21.27-.241.303-.109.108-.758.615-1.544 1.204-.162.122-.328.252-.498.378-.987.737-1.837 1.341-1.892 1.346a.1.1 0 0 1-.04-.008.32.32 0 0 1-.145-.104c-.073-.087-.044-.24.16-.822.127-.355.465-1.277.778-2.125l.08-.218c.568-1.538.638-1.684 1.156-2.402.262-.364.822-1.15 1.329-1.86l.23-.324c.143-.202.332-.463.547-.764a1383 1383 0 0 1 4.572-6.367l.298-.411c.32-.445.697-.96.989-1.355l.17-.236c.309-.42.778-1.058 1.15-1.561l.243-.332c.076-.102.157-.217.244-.334.351-.478.763-1.039 1.005-1.375.172-.24.582-.805 1.08-1.492l1.207-1.674c.48-.659.922-1.27 1.248-1.723l.55-.774c.023-.064-.08-.498-.235-.978-.158-.49-.317-1.072-.354-1.292l-.012-.095c-.029-.225-.026-.407.026-.56.029-.092.106-.25.195-.41q.05-.091.103-.176l.037-.062c.138-.218.35-.458.473-.531.124-.073.357-.13.546-.13m-64.133 2.411-.035.009a1.4 1.4 0 0 0-.304.112c-.139.066-.343.241-.452.38a1 1 0 0 0-.09.132c-.089.158-.18.379-.227.559-.023.09-.04.222-.056.472-.046.819-.055 2.898-.055 8.88l-.005 5.14-.001 3.774c.763 1.88 1.003 2.412 1.024 2.392.015-.017.046-.182.082-.404.013-.083.03-.174.042-.27.03-.21.051-.818.067-2.028.017-1.465.025-3.811.026-7.404.001-5.136.027-8.343.066-8.972q.005-.082.008-.103v-.003h.001a1 1 0 0 1 .154-.3.8.8 0 0 1 .136-.156.67.67 0 0 1 .35-.167l.031-.006q.075-.008.165-.008l.12.011c.326.062 1.045.377 3.282 1.412a937 937 0 0 0 4.96 2.274c1.387.628 1.881.88 2.13 1.1q.025.022.047.042.024.025.048.053c.155.163.324.402.402.566.146.32.146.452.182 8.987l.037 8.661c.517 1.127.75 1.644.844 1.877.08.193.134.298.17.325q.029.02.045-.024.001-.004.004-.01l.01-.044c.02-.103.053-.34.086-.62q.018-.147.035-.304c.016-.14.028-.374.039-.727.03-1.075.038-3.257.03-7.278l-.004-1.747c-.006-2.17-.01-3.816-.017-5.07-.012-2.403-.028-3.362-.066-3.817l-.033-.266a1 1 0 0 0-.044-.162 7 7 0 0 0-.235-.582q-.035-.082-.065-.145a4 4 0 0 0-.296-.48l-.103-.139a4 4 0 0 0-.537-.52c-.165-.127-.808-.459-1.428-.738l-.247-.112c-.484-.217-1.084-.49-1.546-.703l-.318-.145c-.25-.115-.63-.293-1.052-.489l-1.495-.691c-.191-.091-.383-.179-.565-.264-.633-.294-1.164-.54-1.29-.595l-1.638-.764a53 53 0 0 0-1.397-.634 6 6 0 0 0-.35-.142c-.22-.075-.482-.135-.582-.135a.5.5 0 0 0-.09.01M8.741 27.646c-.085.107-.27.355-.462.611q-.082.11-.16.219c-.204.278-.49.682-.685.964l-.083.12c-.072.104-.13.197-.171.27-.067.117-.09.18-.046.155.071-.04.33-.232.574-.427a55.307 55.307 0 0 1 1.142-.864c.384-.283.697-.523.699-.546q.002-.007-.012-.02a1 1 0 0 0-.12-.074q-.046-.025-.102-.052a.578.578 0 0 1-.307-.355l-.074-.245zm.217-.88c-.012 0-.12.066-.24.145a.9.9 0 0 1-.4.146.5.5 0 0 1-.108-.015c-.068-.015-.131-.04-.16-.073a.3.3 0 0 0-.083-.059q-.014-.005-.024-.006-.012 0-.017.006l-.011.024c-.035.078-.142.348-.281.714-.077.203-.165.435-.254.681a74 74 0 0 0-.472 1.3q-.019.059-.023.081c.067-.071.474-.633.96-1.322l.273-.386c.401-.57.723-1.03.767-1.096.05-.076.082-.139.073-.14M-38.113 2.037c-.322-.02-.446-.016-.702.097-.099.044-.218.104-.375.186-.334.174-.603.341-.596.37 0 .03.051.06.11.06l.109.04c.168.069.52.224 1.002.44.666.3 1.58.716 2.601 1.188q.346.158.708.324c2.372 1.096 4.902 2.26 5.622 2.584l.611.286q.237.115.427.217.224.119.392.223.182.112.303.21c.232.19.553.542.713.782s.38.7.488 1.02l.11.326.086.255c.03 13.987.043 18.068.058 18.085.006-.001.127-.053.312-.13.131-.054.294-.119.467-.193l.764-.327c.037-17.073.029-17.919-.082-18.417q-.02-.084-.05-.182a6 6 0 0 0-.313-.837 2 2 0 0 0-.091-.168 5.4 5.4 0 0 0-.534-.735 5 5 0 0 0-.358-.35 2.4 2.4 0 0 0-.32-.244 29 29 0 0 0-1.19-.573c-.265-.122-.553-.257-.847-.39l-1.066-.488c-.72-.327-1.445-.656-1.88-.855-.274-.124-.71-.327-1.221-.562l-.952-.439c-.477-.22-.972-.447-1.43-.66-2.172-1.005-2.447-1.115-2.876-1.143m61.569 3.194a.5.5 0 0 0-.1.109l-.061.078a8 8 0 0 0-.254.35c-.21.297-.383.564-.386.604.006.036.101.18.218.325q.071.092.12.172c.036.061.06.113.065.147a.1.1 0 0 1-.002.027q-.004.005-.01.01a.18.18 0 0 1-.098.052.3.3 0 0 1-.074.01l-.033-.004-.037-.015a.5.5 0 0 1-.091-.057.9.9 0 0 1-.16-.157l-.173-.238c-.353.506-.456.67-.456.69 0 .022.1.168.222.327.119.152.17.228.172.285a.1.1 0 0 1-.014.055.3.3 0 0 1-.05.06q-.005.005-.012.01c-.054.049-.09.062-.152.022-.048-.03-.11-.09-.206-.191l-.247-.277c-.281.45-.363.622-.362.673 0 .022.018.062.046.112.038.064.094.146.155.22.106.129.15.19.15.24.002.041-.027.073-.085.126-.073.067-.11.091-.169.055a1 1 0 0 1-.18-.167c-.116-.13-.225-.233-.24-.219l-.017.014c-.038.042-.13.16-.228.293l-.191.26-.022.03c.16.21.26.36.317.464.058.103.071.162.061.192a.17.17 0 0 1-.145.109c-.06 0-.175-.099-.254-.218-.08-.12-.17-.217-.2-.217-.026 0-.117.104-.217.24l-.05.07-.652.906c-.21.292-.447.629-.69.966-.466.647-1.006 1.39-1.368 1.89-.119.164-.216.303-.288.402l-.278.38-1.045 1.439-1.847 2.548c-.582.8-2.098 2.912-3.37 4.693-1.27 1.78-2.332 3.278-2.359 3.333a.1.1 0 0 0-.007.03.22.22 0 0 0 .033.124.3.3 0 0 0 .038.05q.046.045.09.06c.058.019.125.004.238-.038q.012-.005.027-.014a1 1 0 0 0 .073-.04c.15-.096.385-.291.591-.492.262-.255.53-.466.604-.466.03 0 .057.012.079.028.027.02.045.049.045.081 0 .056-.138.323-.313.619q-.025.046-.051.094c-.211.342-.364.685-.364.801q0 .194.218.378c.124.102.277.183.35.183.065 0 .233-.153.37-.342.14-.19.809-1.121 1.493-2.06.684-.938 1.702-2.35 2.263-3.13.567-.778 1.681-2.32 2.474-3.42a798 798 0 0 0 2.766-3.82c.32-.439.684-.942 1.03-1.42l1.108-1.528.409-.565.408-.563c-.262-.15-.434-.252-.545-.32q-.104-.063-.147-.092a.3.3 0 0 1-.069-.067.16.16 0 0 1-.025-.154.2.2 0 0 1 .028-.052.2.2 0 0 1 .094-.07.1.1 0 0 1 .038-.01q.023.001.071.02c.095.036.252.12.402.218.067.043.134.08.19.112.111.062.19.101.195.088.015-.022.11-.154.22-.292q.014-.022.03-.044c.09-.125.16-.245.163-.282 0-.025-.062-.08-.156-.145q-.09-.061-.206-.126-.057-.034-.108-.067c-.148-.093-.256-.186-.258-.227-.002-.05.047-.14.11-.2s.097-.083.141-.065q.037.015.1.072c.066.065.234.175.365.24q.059.03.114.053c.057.025.107.045.14.055a.2.2 0 0 0 .037.008q.006 0 .016-.009a1.3 1.3 0 0 0 .23-.26l.195-.276c-.156-.103-.281-.19-.383-.258-.257-.173-.354-.244-.37-.266a.1.1 0 0 1-.004-.026.33.33 0 0 1 .057-.157l.012-.021c.05-.078.076-.111.143-.091.04.011.091.04.171.092l.137.086.06.038c.076.048.15.092.212.126a.7.7 0 0 0 .175.074q.03-.002.086-.052c.048-.042.108-.108.17-.183l.054-.072.217-.31c-.524-.28-.713-.418-.757-.487-.058-.093-.055-.15.013-.22a.1.1 0 0 1 .045-.028c.055-.025.135-.006.29.073q.08.039.193.1l.435.236c.615-.815.796-1.087.797-1.128 0-.03-.118-.134-.285-.252a5 5 0 0 0-.17-.112 7 7 0 0 1-.852-.67c-.068-.066-.136-.126-.195-.18a5 5 0 0 0-.194-.17.2.2 0 0 0-.047-.028m-62.11 17.845-.105.04-.079.034c-.103.044-.232.1-.366.16l-.59.267c-.017.012-.052.168-.094.403-.026.145-.053.32-.082.51l-.02.128c-.074.524-.115.977-.103 1.058q0 .008.002.012c.03.027.139-.023.247-.11.055-.045.136-.166.243-.35.135-.235.31-.572.503-.992.286-.615.498-1.123.494-1.174a.3.3 0 0 0-.05.014M-39.465 5.6a.55.55 0 0 0-.218.141.2.2 0 0 0-.043.073c-.09.26-.097 1.37-.11 8.733-.014 6.884 0 8.636.072 8.622.06-.02.382-.148.725-.289l.25-.103.387-.16V5.951c-.647-.283-.902-.364-.99-.364a.3.3 0 0 0-.073.012m62.399-3.505c-.056.003-.07.122-.041.383q.007.063.029.166c.051.235.15.613.26.98q.024.082.05.163l.298.928c.534.458.927.776 1.217 1 .217.165.375.279.493.354l.509.32c2.016.029 2.446.007 2.548-.05.09-.051.11-.072.028-.096a2 2 0 0 0-.174-.036 6 6 0 0 1-.55-.134l-.105-.027-.034-.014a7 7 0 0 1-.767-.318c-.1-.05-.242-.131-.401-.226l-.126-.075c-.19-.115-.393-.241-.565-.356a9 9 0 0 1-.683-.527 11 11 0 0 1-.677-.609l-.367-.377a3.2 3.2 0 0 1-.382-.482 3 3 0 0 1-.135-.238l-.079-.165q-.019-.04-.039-.079a4 4 0 0 0-.17-.321q-.023-.035-.044-.063c-.042-.062-.074-.1-.093-.101m1.105-.905c-.208-.028-.393-.01-.509.05-.075.04-.12.078-.15.142a.9.9 0 0 0-.047.298 1.329 1.329 0 0 0 .046.438.7.7 0 0 0 .057.137c.04.083.164.26.315.46.09.117.19.243.29.362a9.4 9.4 0 0 0 .988.99c.207.168.48.378.686.534l.18.134q.052.035.123.08c.223.141.558.335.823.467q.1.052.214.103c.108.049.223.1.336.144.19.074.375.136.505.168.246.062.543.095.687.082l.022-.001a1 1 0 0 0 .232-.08.5.5 0 0 0 .114-.074q.014-.015.029-.038a.4.4 0 0 0 .057-.135.5.5 0 0 0 .022-.135c-.001-.076-.052-.243-.126-.422a4 4 0 0 0-.113-.244l-.017-.033c-.145-.27-.459-.69-.761-1.013-.3-.32-.808-.778-1.128-1.018-.24-.18-.568-.406-.826-.573l-.23-.144a7 7 0 0 0-.749-.369l-.233-.09a5.5 5.5 0 0 0-.837-.22"/></g></svg>