<svg xmlns="http://www.w3.org/2000/svg" fill="none" viewBox="-1 -3.5 24 24"><path fill="#000" fill-rule="evenodd" d="M22 14.097a2.007 2.007 0 0 1-2 2.013H2c-1.105 0-2-.901-2-2.013v-3.134l.5-.29A3.02 3.02 0 0 0 2 8.054c0-1.091-.579-2.08-1.5-2.617l-.5-.29V2.013C0 .902.895 0 2 0h18c1.105 0 2 .902 2 2.014v3.133l-.5.29A3.02 3.02 0 0 0 20 8.056c0 1.092.579 2.08 1.5 2.617l.5.291zm-4-6.042c0-1.611.759-3.09 2-4.028V2.014h-8c0 .556-.448 1.007-1 1.007s-1-.451-1-1.007H2v2.013c1.241.937 2 2.417 2 4.028 0 1.612-.759 3.09-2 4.028v2.014h8c0-.557.448-1.007 1-1.007s1 .45 1 1.007h8v-2.014a5.04 5.04 0 0 1-2-4.028m-7 4.028c.552 0 1-.451 1-1.007s-.448-1.007-1-1.007-1 .45-1 1.007.448 1.007 1 1.007m1-4.028c0 .556-.448 1.007-1 1.007s-1-.45-1-1.007.448-1.007 1-1.007 1 .451 1 1.007m-1-2.014c.552 0 1-.45 1-1.007s-.448-1.006-1-1.006-1 .45-1 1.006c0 .557.448 1.007 1 1.007" clip-rule="evenodd"/></svg>