<svg xmlns="http://www.w3.org/2000/svg" fill="none" viewBox="0 0 24 25"><path fill="#000" fill-rule="evenodd" d="M5 3.02v2.014H3v2.014H1V5.034c0-1.112.814-2.013 1.818-2.013zm.818 3.021h12.364c1.004 0 1.818.902 1.818 2.014v8.055c0 1.112-.814 2.014-1.818 2.014H5.818C4.814 18.124 4 17.222 4 16.11V8.055c0-1.112.814-2.014 1.818-2.014M6 12.082v4.028h12v-4.027zm0-2.013h12V8.055H6zm13 9.062v2.014h2.182c1.004 0 1.818-.902 1.818-2.014v-2.014h-2v2.014zm0-16.11h2.182c1.004 0 1.818.901 1.818 2.013v2.014h-2V5.034h-2zM2.818 21.145H5V19.13H3v-2.014H1v2.014c0 1.112.814 2.014 1.818 2.014" clip-rule="evenodd"/></svg>