<svg xmlns="http://www.w3.org/2000/svg" fill="none" viewBox="0 0 24 25"><path fill="#000" fill-rule="evenodd" d="M20.182 2.014H3.818C2.814 2.014 2 2.915 2 4.027v16.11c0 1.113.814 2.014 1.818 2.014H5v1.007h2v-1.007h10v1.007h2v-1.007h1.182c1.004 0 1.818-.901 1.818-2.013V4.028c0-1.113-.814-2.014-1.818-2.014M4 20.138V4.028h16V6.04h-1v2.014h1v8.055h-1v2.014h1v2.014zm13.707-3.733-1.414 1.424-2.261-2.277A3.96 3.96 0 0 1 12 16.11a3.96 3.96 0 0 1-2.032-.557l-2.26 2.276-1.415-1.424 2.26-2.277A4.03 4.03 0 0 1 8 12.084c0-.747.202-1.447.554-2.046L6.293 7.76l1.414-1.424 2.261 2.277A3.96 3.96 0 0 1 12 8.055a3.96 3.96 0 0 1 2.032.558l2.26-2.277 1.415 1.424-2.26 2.277c.351.6.553 1.299.553 2.046a4.03 4.03 0 0 1-.554 2.046zM14 12.083a2.007 2.007 0 0 1-2 2.013c-1.105 0-2-.901-2-2.013 0-1.113.895-2.014 2-2.014s2 .901 2 2.014" clip-rule="evenodd"/></svg>