<svg xmlns="http://www.w3.org/2000/svg" fill="none" viewBox="-1.5 0 24 24"><path fill="#e31e24" fill-rule="evenodd" d="M.753.753A2.57 2.57 0 0 1 2.571 0h10.286c.228 0 .446.09.606.251l6.858 6.857c.16.16.25.379.25.606V21.43A2.57 2.57 0 0 1 18 24H2.571A2.57 2.57 0 0 1 0 21.429V2.57C0 1.89.27 1.235.753.753m7.948 5.02c.137.58.188 1.351.187 2.184 1.18 1.885 3.111 4.234 4.725 5.709.746-.05 1.47-.033 2.04.12.336.09.798.275 1.109.698.368.501.347 1.077.17 1.535-.179.463-.54.856-1.084 1.002-.47.127-.92.024-1.248-.096-.543-.198-1.124-.583-1.688-1.036-1.733.225-3.887.783-5.465 1.416-.224.625-.495 1.208-.831 1.626-.21.261-.543.583-1.024.7-.553.136-1.048-.055-1.404-.353-.352-.295-.65-.755-.606-1.347.038-.519.327-.909.564-1.154.381-.396.944-.741 1.55-1.04.569-2.027.974-4.978 1.04-7.2-.382-.66-.694-1.304-.857-1.865-.09-.31-.163-.69-.112-1.071.056-.426.285-.911.814-1.173.232-.114.538-.192.88-.124.338.067.586.252.75.432.29.32.42.737.49 1.036m-.03 5.6a35 35 0 0 0 2.284 2.677c-.944.195-1.917.45-2.826.739.228-1.084.412-2.265.543-3.416" clip-rule="evenodd"/></svg>