<svg xmlns="http://www.w3.org/2000/svg" fill="none" viewBox="-4 -4 24 24"><g clip-path="url(#a)"><path fill="#e31e24" d="M6.17 14.24a3.32 3.32 0 0 1-4.161-.457l-.468-.458a1.123 1.123 0 0 1 0-1.57l1.987-1.966a1.113 1.113 0 0 1 1.56 0 1.123 1.123 0 0 0 1.57 0l3.12-3.12a1.1 1.1 0 0 0 0-1.571 1.113 1.113 0 0 1 0-1.56l1.977-1.977a1.123 1.123 0 0 1 1.57 0l.458.468a3.32 3.32 0 0 1 .458 4.16 30.1 30.1 0 0 1-8.071 8.052"/></g><defs><clipPath id="a"><path fill="#fff" d="M1 1h14v14H1z"/></clipPath></defs></svg>