<svg xmlns="http://www.w3.org/2000/svg" fill="none" viewBox="-3 -3 24 24"><g clip-path="url(#a)"><path fill="#e31e24" fill-rule="evenodd" d="M10.286 3.857a3.857 3.857 0 1 1-7.715 0 3.857 3.857 0 0 1 7.715 0m3.535 5.786c.533 0 .965.432.965.964v2.25h2.25a.964.964 0 0 1 0 1.929h-2.25v2.25a.964.964 0 1 1-1.929 0v-2.25h-2.25a.964.964 0 0 1 0-1.929h2.25v-2.25c0-.532.432-.964.964-.964M6.43 9c1.92 0 3.643.842 4.821 2.176v.074h-.643a2.571 2.571 0 0 0-1.246 4.821H.643A.643.643 0 0 1 0 15.43 6.43 6.43 0 0 1 6.429 9" clip-rule="evenodd"/></g><defs><clipPath id="a"><path fill="#fff" d="M0 0h18v18H0z"/></clipPath></defs></svg>