<svg xmlns="http://www.w3.org/2000/svg" fill="none" viewBox="0 0 24 24"><path fill="#e31e24" d="M17.333 15.723c-.675 0-1.28.271-1.742.696l-6.338-3.75c.045-.208.08-.416.08-.633s-.035-.425-.08-.632L15.52 7.69c.48.452 1.111.732 1.813.732C18.81 8.422 20 7.21 20 5.71S18.809 3 17.333 3s-2.666 1.21-2.666 2.71a3 3 0 0 0 .08.633L8.48 10.057a2.63 2.63 0 0 0-1.813-.732C5.19 9.325 4 10.536 4 12.036s1.191 2.711 2.667 2.711c.702 0 1.333-.28 1.813-.732l6.329 3.76c-.045.189-.071.388-.071.586 0 1.455 1.164 2.639 2.595 2.639s2.596-1.184 2.596-2.639-1.165-2.638-2.596-2.638m0-10.916c.49 0 .89.407.89.904s-.4.903-.89.903a.9.9 0 0 1-.889-.903c0-.497.4-.904.89-.904M6.667 12.94a.9.9 0 0 1-.89-.904c0-.497.4-.903.89-.903.489 0 .889.406.889.903s-.4.904-.89.904m10.666 6.343a.9.9 0 0 1-.889-.904c0-.497.4-.903.89-.903.488 0 .888.407.888.904s-.4.903-.889.903"/></svg>