<svg xmlns="http://www.w3.org/2000/svg" fill="none" viewBox="0 0 24 24"><path fill="#e31e24" fill-rule="evenodd" d="M12.15 18.96c-1.373 0-2.012-.201-3.122-1.007-.702.906-2.925 1.615-3.022.403 0-.91-.2-1.679-.428-2.518C5.308 14.804 5 13.652 5 11.983 5 7.998 8.256 5 12.114 5 15.974 5 19 8.146 19 12.02c.013 3.815-3.052 6.92-6.85 6.94m.057-10.515C10.328 8.347 8.864 9.653 8.54 11.7c-.267 1.696.207 3.76.612 3.868.194.047.682-.35.986-.655a3.47 3.47 0 0 0 1.698.608 3.583 3.583 0 0 0 3.74-3.347 3.587 3.587 0 0 0-3.369-3.727z" clip-rule="evenodd"/></svg>