<svg xmlns="http://www.w3.org/2000/svg" fill="none" viewBox="0 0 24 24"><path fill="#e31e24" fill-rule="evenodd" d="M18.679 8.11c.097-.352 0-.61-.463-.61h-1.532c-.39 0-.569.223-.666.469 0 0-.78 2.055-1.883 3.39-.357.386-.519.509-.714.509-.097 0-.238-.123-.238-.474V8.109c0-.421-.113-.609-.437-.609h-2.407a.383.383 0 0 0-.39.381c0 .4.552.492.608 1.616v2.441c0 .536-.089.633-.284.633-.519 0-1.782-2.064-2.53-4.426-.148-.46-.295-.645-.686-.645H5.525c-.437 0-.525.223-.525.469 0 .439.52 2.617 2.418 5.498 1.266 1.967 3.048 3.033 4.671 3.033.974 0 1.094-.237 1.094-.645v-1.487c0-.473.092-.568.4-.568.228 0 .617.123 1.526 1.072 1.039 1.124 1.21 1.628 1.794 1.628h1.531c.438 0 .657-.237.53-.704-.137-.466-.633-1.142-1.291-1.943-.357-.457-.893-.949-1.055-1.194-.227-.317-.162-.457 0-.738 0 0 1.866-2.845 2.06-3.811" clip-rule="evenodd"/></svg>