<svg xmlns="http://www.w3.org/2000/svg" fill="none" viewBox="0 0 24 24"><path fill="#e31e24" d="M17.969 6.095c.012-.006 1.013-.45 1.031.296L16.78 17.54s-.314.77-1.153.402l-3.145-2.41-2.027 1.834c-.004.003-.16.12-.332.052 0 0-.157-.017-.332-.594-.192-.594-1.136-3.687-1.136-3.687l-3.128-1.048s-.472-.175-.524-.542.542-.577.542-.577zm-1.38 2.271c.017-.259-.412-.004-.42 0l-6.867 4.37a.26.26 0 0 0-.105.296l.822 2.691c.052.157.28.14.314-.035l.192-1.642c0-.07.035-.122.087-.157.664-.595 5.61-5.033 5.82-5.243.221-.238.16-.278.157-.28"/></svg>