<svg xmlns="http://www.w3.org/2000/svg" fill="none" viewBox="-4 0 24 13"><path fill="#e31e24" d="M.75 0A.75.75 0 0 0 0 .75v1.5c0 .416.334.75.75.75h1.5c.416 0 .75-.334.75-.75V.75A.75.75 0 0 0 2.25 0zM5.5.5a.999.999 0 1 0 0 2h9a.999.999 0 1 0 0-2zm0 5a.999.999 0 1 0 0 2h9a.999.999 0 1 0 0-2zm0 5a.999.999 0 1 0 0 2h9a.999.999 0 1 0 0-2zM0 5.75v1.5c0 .416.334.75.75.75h1.5c.416 0 .75-.334.75-.75v-1.5A.75.75 0 0 0 2.25 5H.75a.75.75 0 0 0-.75.75M.75 10a.75.75 0 0 0-.75.75v1.5c0 .416.334.75.75.75h1.5c.416 0 .75-.334.75-.75v-1.5a.75.75 0 0 0-.75-.75z"/></svg>