<svg xmlns="http://www.w3.org/2000/svg" fill="none" viewBox="0 0 87 92"><path fill="#e31e24" fill-rule="evenodd" d="M30.28 25.778h22.274v44.674L40.64 91.102 30.28 70.797z" clip-rule="evenodd"/><path stroke="#fefefe" stroke-miterlimit="22.926" stroke-width="2.203" d="M43.31 25.51H1.101c0-20.182 38.77-29.43 54.218-21.684 5.332-.687 7.757.192 11.206 1.416C78.473 9.483 85.517 16.911 85.517 25.51z" clip-rule="evenodd"/><path fill="#e31e24" fill-rule="evenodd" d="M43.31 25.51H1.101c0-20.182 38.77-29.43 54.218-21.684 5.332-.687 7.757.192 11.206 1.416C78.473 9.483 85.517 16.911 85.517 25.51z" clip-rule="evenodd"/><path fill="#fefefe" fill-rule="evenodd" d="M1.69 51.65h82.833v16.843H1.69z" clip-rule="evenodd"/><mask id="a" width="84" height="18" x="1" y="51" maskUnits="userSpaceOnUse" style="mask-type:luminance"><path fill="#fff" d="M1.69 51.65h82.833v16.843H1.69z"/></mask><g mask="url(#a)"><path fill="#b2b3b3" stroke="#2b2a29" stroke-miterlimit="22.926" stroke-width=".112" d="M101.083 43.817h-115.79v30.447h115.79z"/><path fill="#2b2a29" d="M27.922 52.091H3.07a.94.94 0 0 0-.94.94v5.661c0 .519.42.94.94.94h24.85a.94.94 0 0 0 .94-.94V53.03a.94.94 0 0 0-.94-.939M55.533 52.091H30.682a.94.94 0 0 0-.94.94v5.661c0 .519.42.94.94.94h24.851a.94.94 0 0 0 .94-.94V53.03a.94.94 0 0 0-.94-.939M83.144 52.091H58.293a.94.94 0 0 0-.94.94v5.661c0 .519.421.94.94.94h24.851a.94.94 0 0 0 .94-.94V53.03a.94.94 0 0 0-.94-.939M69.339 60.512H44.487a.94.94 0 0 0-.939.94v5.662c0 .518.42.939.94.939h24.85a.94.94 0 0 0 .94-.94v-5.661a.94.94 0 0 0-.94-.94M41.728 60.512H16.876a.94.94 0 0 0-.939.94v5.662c0 .518.42.939.94.939h24.85a.94.94 0 0 0 .94-.94v-5.661a.94.94 0 0 0-.94-.94M14.116 60.512h-24.851a.94.94 0 0 0-.94.94v5.662c0 .518.421.939.94.939h24.851a.94.94 0 0 0 .94-.94v-5.661a.94.94 0 0 0-.94-.94M96.95 60.512H72.098a.94.94 0 0 0-.939.94v5.662c0 .518.42.939.94.939h24.85a.94.94 0 0 0 .94-.94v-5.661a.94.94 0 0 0-.94-.94"/></g><path fill="#fefefe" stroke="#fefefe" stroke-miterlimit="22.926" stroke-width="1.036" d="M15.324 65.556h-2.4l-2.51-5.585-2.306 2.812v2.773H5.961v-10.97h2.147v5.763q.41-.589.593-.812l3.955-4.952h2.171l-2.826 3.608zm3.753 0h-2.148v-10.97h4.879q2.085 0 3.094.968 1.006.968 1.007 2.285 0 1.506-1.09 2.436-1.091.934-2.767.933h-2.975zm0-6.043h2.54q.993 0 1.516-.45c.352-.302.524-.7.524-1.2q0-.673-.482-1.157-.488-.48-1.751-.48h-2.347zm16.3 6.043h-7.74v-10.97h7.662v1.632h-5.515v2.973h4.431v1.592h-4.431v3.07h5.593zm1.85 0v-10.97h8.526v10.97h-2.147v-9.363h-4.232v9.363zm18.881 0h-7.74v-10.97h7.663v1.632h-5.516v2.973h4.432v1.592h-4.432v3.07h5.593zm10.97-6.26 4.395 6.26h-2.398l-3.63-5.152-.69.192v4.96h-2.041v-4.96l-.697-.192-3.621 5.152h-2.112l4.119-5.714-3.806-5.257h2.356l3.314 4.598.447.113v-4.71h2.04v4.71l.447-.113 3.315-4.598h2.111zm14.482 6.26h-2.293l-.953-2.612h-4.58l-.933 2.612H70.97l3.952-10.97h2.642zm-3.82-4.194-1.737-4.895-1.736 4.895z"/><path fill="#fefefe" fill-rule="evenodd" d="m24.968 17.4 14.94.012C42.648 7.038 49.492 4.815 55.32 3.826 44.313-1.89 28.14 5.55 24.968 17.4" clip-rule="evenodd"/><path fill="#2b2a29" d="M85.948 50.096H78.32V35.334l-5.584 14.762h-5.433L61.25 35.334v14.762h-7.627V26.58h10.775l5.63 13.522 5.167-13.522h10.753zM25.142 50.852H1.626v-6.748h2.342c1.699-3.033 2.544-6.996 2.544-11.905v-5.452h22.492v17.357h.026v6.748zm-5.406-6.748v-10.61h-4.429v.272q0 5.023-2.187 10.338z"/><path fill="#fefefe" fill-rule="evenodd" d="M30.33 32.159c-6.353 14.937 28.236 14.37 22.358-.393l-.01-4.005c12.784 4.88 6.463 18.65-.124 21.26-5.398 2.14-16.82 2.468-22.66-.485-9.285-4.696-8.364-18.078.27-20.632z" clip-rule="evenodd"/></svg>