<svg xmlns="http://www.w3.org/2000/svg" fill="none" viewBox="0 0 32 32"><mask id="a" width="32" height="32" x="0" y="0" maskUnits="userSpaceOnUse" style="mask-type:alpha"><path fill="#d9d9d9" d="M0 0h32v32H0z"/></mask><g mask="url(#a)"><path fill="#e31e24" d="M-37.71 51.225c.52-.09 2.17-.125 3.661-.074 1.492.049 3.2.209 3.797.355.596.147 1.482.485 1.97.754.487.268 1.241.793 2.46 1.843l-.008-1.04c-.004-.835.071-1.111.384-1.4.329-.31.636-.363 2.077-.363 1.38 0 1.75.06 2.014.323.27.27.316.59.275 1.988-.025.916-.13 1.748-.229 1.848a.66.66 0 0 0-.178.407c.002.148.359.24 2.083.316l.04 5.876c.032 4.441-.014 5.931-.182 6.109-.123.13-.602.23-1.079.225-.473-.003-.9.075-.95.174-.05.1.036.282.19.407.221.18.277.628.27 2.17-.008 1.904-.018 1.95-.504 2.31-.396.293-.767.367-1.808.362-1.21-.005-1.353-.047-1.853-.548-.47-.468-.53-.64-.453-1.265.05-.398.05-.724 0-.724-.052.001-.6.41-1.22.908-.621.5-1.699 1.144-2.395 1.434-.696.289-1.796.613-2.441.718-.648.106-2.112.19-3.254.19-1.244 0-2.552-.113-3.254-.281-.647-.154-1.705-.557-2.35-.897a13.4 13.4 0 0 1-2.17-1.492c-.548-.481-1.37-1.439-1.83-2.129-.459-.689-1.04-1.783-1.295-2.429-.254-.647-.55-1.663-.659-2.26a15 15 0 0 1-.195-2.214c0-.622.13-1.76.29-2.53.156-.77.55-1.971.874-2.667.326-.697.96-1.755 1.412-2.351s1.137-1.336 1.519-1.644a19 19 0 0 1 1.466-1.039 13 13 0 0 1 1.672-.842c.498-.2 1.33-.435 1.853-.528m10.43 16.714c-.248-.227-.342-.14-.806.772-.316.621-1.1 1.605-1.98 2.482-.808.808-1.936 1.716-2.539 2.047q-1.082.593-.542.462c.299-.07.868-.188 1.266-.26s.58-.14.406-.153c-.175-.013-.276-.104-.225-.203.05-.1.557-.18 1.13-.18.6.003 1.191-.103 1.401-.25.334-.232.305-.248-.361-.227-.398.013-.746-.058-.773-.157-.026-.1.3-.204.724-.233.43-.029.73.018.846.129l.079.103c.11.092.357-.019.864-.38.434-.309 1.054-.859 1.378-1.22.322-.362.584-.842.58-1.066-.002-.224.16-.569.358-.767.2-.199.325-.423.279-.497-.05-.075-.474-.138-.946-.142-.484-.002-.982-.115-1.14-.26m-9.256-15.987c-.523.009-1.275.093-1.673.19-.398.093-1.252.43-1.897.747-.686.338-1.704 1.082-2.442 1.781-.895.848-1.488 1.617-2.02 2.622-.415.78-.897 1.949-1.073 2.596q-.318 1.173-.311 3.074c.005 1.502.1 2.18.445 3.254.242.744.813 1.965 1.269 2.711.457.745 1.267 1.745 1.802 2.222s1.583 1.177 2.33 1.557c.923.47 1.727.734 2.53.83.645.076 1.42.083 1.718.014.54-.123.538-.124-.453-.578-.547-.25-1.43-.794-1.962-1.21-.534-.415-1.279-1.162-1.659-1.659s-.974-1.474-1.321-2.17-.76-1.855-.919-2.576c-.157-.721-.285-1.86-.283-2.531.002-.67.123-1.79.267-2.486s.633-2.018 1.082-2.938c.621-1.27 1.111-1.967 2.039-2.9.723-.726 1.68-1.463 2.35-1.808.618-.32 1.127-.62 1.13-.67-.001-.05-.43-.083-.95-.072m2.666.623c-.317-.056-.882.038-1.356.226-.448.18-1.296.645-1.887 1.038-.59.394-1.363 1.063-1.717 1.488s-.95 1.278-1.322 1.898c-.373.618-.856 1.777-1.073 2.572-.285 1.045-.391 1.925-.38 3.165.01 1.317.12 2.054.475 3.164.255.795.78 1.934 1.164 2.53.385.597 1.224 1.575 1.862 2.174.85.799 1.535 1.245 2.562 1.672l1.401.584c1.785-.928 2.795-1.705 3.536-2.44.899-.892 1.477-1.668 1.953-2.622.564-1.132.71-1.676.893-3.285l.217-1.93c-.853-.644-1.046-1.01-1.175-1.655-.1-.497-.18-1.393-.18-1.99 0-.596.1-1.285.225-1.529.199-.394.165-.533-.304-1.22-.29-.427-.942-1.182-1.446-1.681-.504-.497-1.365-1.164-1.911-1.482-.548-.319-1.239-.623-1.537-.677m12.023 16.895c-2.335 0-3.082.054-3.164.12s-.137.717-.12 1.446c.024 1.13.075 1.327.346 1.327.275 0 .31-.163.271-1.266-.038-1.024.006-1.265.226-1.265.219 0 .263.24.226 1.265l-.044 1.266h2.26zm-6.778 1.627c.562 0 .795.071.754.227-.034.124-.397.245-.814.27-.569.035-.753-.021-.754-.225 0-.2.212-.272.814-.272m1.32-.65c.13.01.233.099.23.198-.006.1-.417.201-.915.227-.513.025-.906-.033-.907-.136 0-.1.307-.208.68-.242a9 9 0 0 1 .911-.046m.668-.89c.1.018.182.148.182.29 0 .185-.24.256-.86.256-.47 0-.86-.081-.864-.18-.003-.1.302-.23.678-.29.375-.06.764-.094.864-.076m.11-.991c.505 0 .704.076.704.272 0 .205-.23.272-.948.278-.843.007-.923-.024-.705-.272.143-.16.543-.278.95-.278m3.212-.325c-.543-.029-1.058.005-1.146.075s-.145.198-.129.28c.018.082.56.15 1.206.15.85 0 1.158-.062 1.115-.225-.036-.137-.448-.248-1.047-.28m3.276-11.245c-5.75 0-6.707.06-6.861.225-.118.125-.172.47-.12.769.051.298.226 1.112.39 1.807.21.906.27 1.753.205 2.984-.05.943-.224 2.205-.387 2.802-.162.596-.251 1.267-.197 1.492.098.403.122.406 3.534.406h3.436zm-5.345.236c.13.044.194 1.671.194 5.02 0 4.579-.024 4.956-.317 5.002-.294.042-.318-.304-.347-4.894-.016-2.717.04-4.997.125-5.066a.41.41 0 0 1 .345-.062m-2.592.928c-.09-.056-.165.37-.167.949-.001.577.09 1.416.208 1.862.149.57.319.833.574.884.336.067.35.013.215-.811a21 21 0 0 0-.407-1.834c-.142-.522-.334-.993-.423-1.05m-4.99-6.149c.199.16.421.287.497.285.074-.001.52.26.994.578.472.32 1.252.95 1.733 1.4.48.452 1.126 1.23 1.435 1.727l.622.995c.033.047.181-.095.327-.317.212-.323.436-.407 1.082-.407.446 0 .853-.081.904-.18.047-.101-.48-.752-1.176-1.447s-1.347-1.266-1.446-1.266c-.1 0-.14.082-.09.181.049.1-.094.23-.316.29-.225.059-.674.059-.996 0-.323-.06-.587-.19-.587-.29.002-.099.386-.177.859-.174.774.008.832-.02.588-.274-.186-.192-.67-.294-1.523-.323-.818-.027-1.272-.122-1.31-.268-.036-.137.137-.237.437-.255.273-.014.009-.081-.588-.148-.596-.067-1.247-.185-1.446-.259l-.361-.138zm9.48 3.538c-1.22 0-1.266.017-1.083.362.162.305.348.354 1.228.316.828-.036 1.047-.108 1.085-.361.04-.277-.118-.317-1.23-.317m-3.534-.142c.512.029.931.15.978.278.058.163-.2.226-.935.226-.558 0-1.053-.062-1.102-.136-.047-.074-.03-.2.038-.278.07-.08.528-.12 1.021-.09m5.173-3.293c-2.332 0-3.08.054-3.164.119-.083.067-.137.679-.12 1.357.015.679.09 1.27.165 1.314.074.043.217.023.317-.046.099-.067.18-.631.18-1.253 0-.633.08-1.128.18-1.128.102 0 .183.514.183 1.176v1.173h2.26zm-6.077 2.208c.512.029.932.15.979.278.057.163-.201.226-.935.226-.558 0-1.054-.06-1.103-.135-.047-.074-.03-.202.038-.28.069-.079.528-.12 1.021-.09m5.536-2.027c.102 0 .18.483.18 1.084s-.079 1.085-.18 1.086c-.1-.001-.18-.484-.18-1.086 0-.601.08-1.083.18-1.084M-30.478.408c.174 0 .725.203 2.124.904v10.486l.542.271c.299.148.695.577.881.95.3.6.608.806 2.666 1.793a132 132 0 0 0 4.047 1.867v2.712l-.768.622c-.424.342-2.03 1.665-3.57 2.94a4981 4981 0 0 0-7.097 5.888c-2.361 1.962-4.437 3.57-4.61 3.573-.177.002-2.069-.989-4.204-2.2l-6.327-3.591.02-12.798 3.74-3.162c2.059-1.74 5.653-4.759 7.991-6.71 2.335-1.948 4.392-3.545 4.565-3.545m9.49 17.361c-.026.006-.655.52-1.402 1.145-.745.625-3.104 2.583-5.243 4.351-2.137 1.768-4.88 4.04-6.096 5.048-2.037 1.69-2.21 1.884-2.223 2.466-.011.586.01.613.303.361.176-.15 2.517-2.104 5.206-4.34 2.69-2.239 5.93-4.923 7.202-5.966 2.111-1.73 2.313-1.948 2.305-2.485-.003-.321-.027-.583-.052-.58m-20.656 9.816c-.1-.018-.404.063-.677.18-.485.208-.429.251 2.35 1.84 1.564.895 2.948 1.647 3.073 1.673.143.028.224-.168.222-.542-.003-.57-.081-.63-2.395-1.854-1.316-.695-2.472-1.279-2.573-1.297m15.096-12.891c-.05.01-.342.275-.647.593-.306.318-.787.781-1.069 1.029-.282.25-.804.68-1.16.958-.358.277-.893.709-1.191.958l-2.712 2.256c-1.193.992-2.535 2.12-2.984 2.508-.446.388-1.22 1.042-1.716 1.452a87 87 0 0 0-1.56 1.325c-.362.318-.85.705-1.086.862-.426.284-.42.292 1.198 1.158.895.479 1.953 1.06 2.35 1.294l.725.422c4.063-3.396 6.495-5.409 8.026-6.664s3.748-3.073 4.927-4.044l2.142-1.762c-1.751-.806-2.91-1.336-3.706-1.7s-1.486-.652-1.537-.645M71.081.514A6.2 6.2 0 0 1 73.206.32c.621.049 1.331.17 1.581.269.248.099.514.306.588.458.1.2-.395.805-1.812 2.214-1.81 1.804-1.938 1.977-1.826 2.48.065.299.186.705.266.904s.293.547.47.773c.192.238.737.519 2.314.938l1.898-1.91c1.327-1.331 2.004-1.888 2.248-1.847.25.042.421.32.596.961.145.533.215 1.423.17 2.17a6.5 6.5 0 0 1-.595 2.42 6.2 6.2 0 0 1-1.47 2.033c-.522.485-1.335 1.06-1.807 1.279-.67.312-1.273.412-4.655.522l-2.35 2.647a3813 3813 0 0 1-3.893 4.375c-.848.952-2.683 3.07-4.08 4.712-1.994 2.343-2.701 3.052-3.294 3.3-.416.174-.938.316-1.163.315-.224 0-.712-.082-1.084-.181s-.937-.403-1.251-.676c-.317-.273-.722-.823-.9-1.22a4.5 4.5 0 0 1-.327-1.538c0-.448.142-1.113.314-1.48.171-.369 2.433-2.971 5.025-5.785s5.44-5.92 6.328-6.9c.887-.977 1.679-1.953 1.759-2.169.081-.213.065-.837-.036-1.382a6.8 6.8 0 0 1-.032-1.99c.08-.546.305-1.359.496-1.807.19-.449.71-1.206 1.152-1.687.443-.48 1.13-1.065 1.528-1.299s1.17-.55 1.717-.706m104.046.57c.199-.052.605-.054.903-.001.298.05.787.213 1.085.361s.814.526 1.147.837c.33.313.771.893.975 1.29.206.399.382 1.066.391 1.483.014.637-.087.872-.631 1.447-.638.674-.647.7-.421 1.41a6 6 0 0 1 .246 1.356c.015.497-.119.769-.622 1.266-.35.347-.636.795-.631.994.003.22-.58.94-2.985 3.309l-1.536.146c-1.448.138-1.572.183-2.123.786-.321.352-.585.72-.586.82 0 .1-.657.833-1.46 1.628-.803.796-2.859 2.936-4.568 4.756-3.058 3.261-3.116 3.311-3.789 3.255-.649-.052-.75.018-3.516 3.017l-.973-.013c-.537-.007-1.239-.147-1.562-.315-.324-.167-.935-.65-1.36-1.073s-.963-1.175-1.196-1.672c-.318-.68-.405-1.138-.356-1.848.063-.915.112-.99 1.645-2.531 1.336-1.341 1.582-1.678 1.582-2.175.002-.519.489-1.097 4.195-4.972 2.307-2.411 4.748-4.914 6.654-6.734l.002-2.35 1.671-1.673c1.227-1.229 1.789-1.67 2.124-1.669.247.002.777-.238 1.174-.537.398-.298.845-.545.996-.55.148-.006.659.195 1.988.903l.588-.428c.323-.237.75-.472.949-.522m-57.322.5.215.813c.118.448.257 1.016.311 1.266.08.375.287.506 2.377 1.096l.874-.818c.478-.451.966-.816 1.084-.815.116.003.924.533 1.794 1.174.869.643 1.58 1.23 1.582 1.306-.001.075-.215.626-.951 2.305l1.222 1.934 1.311-.108c1.133-.094 1.333-.065 1.474.208.088.174.362 1.05.61 1.943.436 1.58.439 1.646.132 2.26-.232.465-.56.742-1.241 1.04-.895.392-.93.432-.93 1.13 0 .687.053.755 1.083 1.4.649.407 1.085.806 1.085.995.001.175-.19.825-.425 1.447a29 29 0 0 1-.995 2.26c-.374.744-.676 1.127-.884 1.125-.174-.001-.805-.126-1.401-.276-.971-.246-1.126-.243-1.491.004-.224.152-.408.377-.409.502s.123.592.275 1.04c.235.69.242.924.042 1.536-.223.682-.35.778-4.202 2.65l-.417-.42a8.6 8.6 0 0 1-.815-1.007c-.377-.56-.45-.588-2.746-.597l-.542 1.09c-.298.6-.624 1.123-.724 1.163-.102.037-1.077-.218-2.168-.566-1.094-.351-2.098-.729-2.23-.841-.164-.143-.203-.432-.124-.929.061-.397.151-.928.198-1.176.072-.377-.069-.566-1.822-1.863l-1.266.403c-.695.223-1.366.356-1.491.3-.125-.058-.714-.857-1.312-1.777-.597-.92-1.085-1.793-1.083-1.944.002-.15.124-.596.274-.994.165-.432.492-.85.814-1.04.498-.293.531-.372.426-1.085-.059-.422-.13-.81-.155-.858-.027-.05-.558-.295-1.179-.542-.621-.25-1.177-.533-1.234-.633s-.085-.547-.064-.995c.022-.449.139-1.538.262-2.424.174-1.261.3-1.66.584-1.839.201-.126.883-.224 1.537-.216 1.079.009 1.188-.024 1.33-.421.121-.338.035-.628-.399-1.336-.486-.792-.541-1.004-.427-1.707.116-.72.277-.928 1.575-2.04.795-.679 1.547-1.234 1.672-1.23.125.003.673.33 1.221.728.752.546 1.115.7 1.491.637.273-.047.584-.19.691-.316.108-.127.3-.597.426-1.045.127-.448.344-1.08.482-1.406l.251-.593zm-95.478.157c.342-.15.867-.212 1.297-.154.398.054 1.17.32 1.717.59.587.29 1.548 1.044 2.35 1.847.745.745 1.538 1.72 1.761 2.169.222.448.457 1.097.524 1.446.071.373.03.858-.102 1.176-.123.298-.582.847-1.021 1.22-.574.486-.966.676-1.387.673-.324-.004-1.036-.165-1.582-.357-.547-.191-1.055-.351-1.13-.355-.075-.003-1.99 2.171-4.254 4.83-2.265 2.66-5.39 6.342-9.767 11.525l-2.368 1.312c-1.303.721-2.45 1.268-2.55 1.22-.099-.05-.18-.212-.18-.362 0-.151.46-1.432 2.04-5.424l2.379-2.802c1.309-1.54 4.05-4.795 6.09-7.232 2.043-2.437 4.074-4.878 5.31-6.418l-.349-.723a5.2 5.2 0 0 1-.422-1.537c-.06-.688.017-.934.5-1.603.314-.436.83-.904 1.144-1.041m131.264 20.71c-1.235 1.25-1.398 1.489-1.365 2.025.019.335.182.934.361 1.331.179.398.624 1.03.991 1.402.365.374.889.789 1.162.926.273.138.783.308 1.13.378.606.123.68.076 1.781-1.108l1.15-1.236c-1.081-.31-1.637-.522-1.936-.674s-.848-.611-1.221-1.022c-.372-.408-.676-.847-.674-.971s.21-.43.461-.678l.46-.452-.898-1.338zM72.797 1.137c-.832.01-1.607.147-2.26.4-.629.244-1.336.723-1.92 1.302-.65.641-1.047 1.238-1.33 2-.355.954-.39 1.29-.286 2.801.069.985.044 1.911-.056 2.17-.096.25-.894 1.228-1.772 2.177-.879.947-3.224 3.509-5.212 5.692a552 552 0 0 1-4.903 5.326c-1.069 1.127-1.312 1.498-1.426 2.172-.114.673-.064.968.292 1.696.238.484.676 1.03.974 1.215.311.19.89.335 1.357.338.473.002 1.016-.128 1.3-.311.268-.175 1.853-1.896 3.525-3.822 1.67-1.93 3.404-3.934 3.853-4.455.446-.522 1.89-2.178 3.209-3.68 1.318-1.502 2.578-2.787 2.802-2.856.225-.066 1.18-.132 2.124-.144 1.468-.018 1.848-.089 2.621-.488.498-.259 1.277-.864 1.73-1.347.52-.551.958-1.251 1.173-1.875.213-.611.347-1.493.348-2.288.002-.712-.06-1.363-.137-1.446-.079-.083-.934.641-1.899 1.61-1.312 1.314-1.87 1.759-2.209 1.75-.25-.006-.868-.146-1.374-.315-.587-.193-1.123-.535-1.471-.938-.3-.347-.638-.958-.748-1.356-.11-.397-.202-.905-.204-1.13 0-.269.578-.998 1.716-2.17.945-.968 1.656-1.824 1.582-1.903-.075-.075-.704-.134-1.4-.125m38.93 25.663c-.066.003-.168.126-.226.276-.058.148-.045.305.03.347.074.041.827.29 1.673.554 1.227.383 1.561.43 1.668.241a1.4 1.4 0 0 0 .14-.329c.003-.05-.707-.317-1.578-.591-.874-.275-1.641-.498-1.707-.498M214.358 2.417c.696-.013 1.956.096 2.802.244.844.146 2.107.464 2.803.705.696.242 2.16.84 3.254 1.332 1.093.49 2.211.947 2.486 1.013.273.067.826.426 1.231.798.403.373.87 1.044 1.04 1.493.216.576.302 1.337.293 2.62-.011 1.295-.13 2.219-.422 3.255-.225.795-.787 2.179-1.249 3.074-.579 1.119-1.212 2-2.022 2.827-.949.967-1.37 1.26-2.171 1.502-.754.228-1.148.259-1.627.123-.349-.098-1.325-.484-2.17-.862-1.23-.55-1.753-.685-2.621-.683-.75.002-1.307.119-1.807.383-.398.21-.899.571-1.111.805-.213.233-.651.952-.974 1.6-.322.645-.805 1.5-1.073 1.898-.265.397-.579.967-.695 1.265s-.436.761-.711 1.03a4.5 4.5 0 0 1-1.177.769 4.6 4.6 0 0 1-1.446.278c-.423-.002-1.176-.112-1.673-.244s-1.434-.502-2.079-.824a15.5 15.5 0 0 1-2.151-1.338 14 14 0 0 1-1.741-1.66 17 17 0 0 1-1.314-1.808 10 10 0 0 1-.857-1.988c-.206-.727-.269-1.352-.19-1.898.067-.465.475-1.434.952-2.26.461-.796 1.035-1.977 1.279-2.622a25 25 0 0 1 .9-2.08c.253-.497.805-1.391 1.226-1.988.423-.596 1.376-1.654 2.119-2.35.745-.696 1.994-1.643 2.778-2.106a21 21 0 0 1 3.011-1.401c.869-.31 2.09-.633 2.712-.72a25 25 0 0 1 2.395-.182m-91.03 24.225c-.15.002-.756.212-1.347.467-.592.255-1.059.533-1.04.62.02.087.096.153.172.15.074-.006.664-.286 1.311-.623.645-.34 1.052-.616.904-.614m-4.167-1.431c-.045.018-.533.063-1.085.1-.622.04-1.119.182-1.312.373-.172.168-.311.365-.31.442.003.074.594.131 1.315.127l1.31-.006c.84 1.142 1.145 1.47 1.221 1.468.074-.006.175-.13.225-.279.049-.15-.218-.72-.595-1.265-.377-.547-.724-.979-.769-.96M-28.763 12.526c-.224.004-.538.09-.699.195s-.383.388-.497.628c-.116.248-.36.438-.566.438-.199 0-.357.1-.354.225s.147.33.317.456c.248.184.214.185-.178 0-.414-.195-.556-.183-.95.086-.254.174-.462.399-.462.498 0 .1.081.22.18.27.1.05.18.173.18.272 0 .103-.212.134-.496.07-.374-.082-.633.005-1.04.348l-.542.46c.77.3 1.034.47 1.085.569.049.1-.188.037-.528-.136-.596-.304-.64-.303-1.13.031-.288.197-.413.374-.286.406.125.033.227.122.227.196s-.237.136-.528.136c-.318 0-.712.179-.992.452l-.465.452c1.116.91 1.442 1.256 1.442 1.355 0 .1-.264-.02-.588-.265s-.832-.452-1.13-.46c-.303-.005-.777.173-1.077.402l-.533.414c.663.14.904.298.962.44.087.214-.026.238-.616.131-.526-.095-.837-.056-1.131.147-.365.247-.38.309-.14.593.147.173.269.377.27.452.003.073-.239.053-.537-.046-.431-.145-.633-.116-.989.136-.245.173-.448.377-.452.452-.004.074.178.305.401.511.37.344.375.366.046.248a9 9 0 0 0-.723-.215c-.2-.049-.545.002-.769.114-.224.11-.448.383-.499.607-.049.214-.234.41-.478.516l-.217.078c-.264.106-.6.316-.8.504a1.33 1.33 0 0 0-.406.982c.003.323.087.75.186.949.1.198.425.442.723.542q.542.18.994 0c.248-.1.676-.467.95-.814.272-.349.618-.63.768-.627.148.004.412-.14.582-.316.171-.177.314-.423.316-.548.004-.125.29-.349.639-.497.347-.15.723-.455.831-.679.11-.224.148-.61.087-.858l-.114-.452.709.904c.727-.7.974-1.026 1.017-1.175s.325-.333.626-.407c.331-.081.677-.35.866-.676.174-.298.46-.543.633-.543.174-.002.504-.226.734-.499s.577-.584.768-.692c.194-.107.494-.452.667-.769.174-.314.357-.49.407-.391q.09.18.453 0c.198-.1.442-.386.542-.633.108-.271.325-.452.542-.452.198 0 .524-.205.723-.453s.402-.451.452-.452c.05 0 .254-.204.453-.452.198-.249.462-.45.586-.446.125.004.368-.14.538-.316.171-.178.314-.586.316-.91q.003-.587-.446-1.039c-.25-.25-.636-.45-.86-.447m85.26 11.38c.555-.002.853.105 1.135.406.21.228.428.617.486.864.058.25-.012.717-.155 1.04s-.424.669-.622.768c-.2.1-.605.182-.904.182q-.542 0-1.084-.543c-.335-.335-.55-.745-.565-1.07-.012-.339.156-.731.469-1.086.396-.451.63-.556 1.24-.561M21.902 7.49c-.083-.034-.216.07-.3.23a.42.42 0 0 0 .079.514c.126.12.227.32.225.445 0 .125-.125.226-.273.226-.15 0-.332-.125-.406-.278-.104-.21-.513.174-1.686 1.582-.853 1.023-2.677 3.202-4.055 4.843-1.377 1.64-3.561 4.244-4.85 5.785-2.332 2.784-2.345 2.807-2.137 3.39.152.43.153.623.007.723-.112.074-.27.013-.353-.135-.083-.15-.18-.232-.218-.182-.037.05-.287.6-.552 1.221-.267.621-.485 1.19-.488 1.266-.001.074.262-.118.587-.427.326-.307.735-.613.909-.678.173-.063.314-.217.312-.341s.1-.322.226-.438c.175-.163.376-.147.862.066l.633.278c.84-1.061 2.259-2.76 3.694-4.46a1221 1221 0 0 1 5.242-6.148 809 809 0 0 0 3.674-4.294l1.04-1.231c-1.567-1.472-2.09-1.925-2.172-1.957M201.083 16c-1.088-.038-1.51.027-2.049.316-.372.199-.788.585-.924.858a6 6 0 0 0-.357.95c-.063.25.01.94.164 1.536.152.596.49 1.451.75 1.898.26.449 1.01 1.37 1.664 2.047.654.676 1.677 1.548 2.273 1.937.597.386 1.574.878 2.17 1.091.597.214 1.533.395 2.079.402.682.009 1.179-.096 1.579-.335.321-.194.761-.676.978-1.073.324-.595.372-.897.278-1.718-.067-.568-.394-1.573-.766-2.35-.481-.998-.995-1.693-1.949-2.63-.962-.948-1.711-1.483-2.908-2.08-1.424-.708-1.775-.81-2.982-.85M113.927 4.747c-1.051.434-1.732.7-2.19.868l-.833.307c-1.368-1.178-1.85-1.524-1.954-1.53-.101-.003-.691.4-1.311.897l-1.124.904 1.486 2.26-1.331 2.531-2.776.18c-.356 2.364-.357 2.749-.206 2.85.113.076.733.3 1.38.5l1.175.36c.463 1.89.647 2.58.705 2.754.074.216-.081.486-.478.842-.324.29-.777.677-1.006.86l-.417.332 1.85 2.712 2.419-1.033 2.984 2.208c-.197 1.33-.256 1.91-.262 2.148-.009.381.15.475 1.437.858.795.237 1.547.43 1.672.431.125 0 .402-.47.617-1.041.213-.571.437-1.091.497-1.154.059-.062.82-.165 1.688-.226l1.582-.112c1.191 1.69 1.638 2.18 1.763 2.177s.754-.252 1.401-.55c.646-.299 1.177-.604 1.177-.678.001-.076-.163-.624-.363-1.22l-.369-1.085 2.267-2.3c1.96.577 2.541.727 2.557.71.014-.023.276-.629.587-1.348.529-1.233.544-1.325.246-1.558a15 15 0 0 0-1.085-.723l-.768-.476.09-2.967c1.677-.696 2.191-.903 2.224-.909.029-.005-.114-.681-.317-1.502l-.37-1.492h-2.712l-1.669-2.44c.619-1.401.832-1.93.873-2.08.047-.17-.34-.573-1.043-1.085-.614-.446-1.204-.84-1.312-.875-.107-.034-.577.332-1.045.814l-.853.875c-1.622-.61-2.316-.834-2.589-.89-.443-.092-.519-.22-.689-1.143-.105-.571-.228-1.14-.271-1.266-.057-.157-.569-.227-1.707-.227h-1.627zM9.274 25.899c-.184 0-.455.141-.603.316-.15.174-.324.419-.389.543-.065.123.206.042.604-.18.396-.224.72-.47.722-.543 0-.076-.15-.136-.334-.136m-55.345-5.474-.013 5.746c.817.403.826.385.96-.971.076-.76.139-3.31.145-5.668l.005-4.29-1.085-.56zm102.626 4.21a1.18 1.18 0 0 0-.736.316.76.76 0 0 0-.206.723c.056.222.263.488.462.587.199.1.525.139.724.09s.442-.252.542-.451c.132-.264.107-.486-.09-.813-.166-.279-.436-.453-.696-.453m108.368-9.037c-.242.09-.418.251-.393.358.027.106-1.139 1.45-2.589 2.988-2.601 2.759-2.636 2.807-2.59 3.56.043.729.083.78.858 1.063.448.166.814.412.814.548s-.163.27-.362.297c-.199.028-.727-.135-1.175-.363-.665-.336-.83-.518-.904-1.006l-.09-.597-1.989 1.97c.84.51 1.411.718 1.808.79.398.075 1.15.139 1.672.142l.95.007a336 336 0 0 1 5.283-5.514l2.309-2.35c-1.471-.613-2.161-1.081-2.485-1.434-.324-.354-.607-.64-.633-.633-.025.006-.242.086-.484.174m37.01 2.168c.533.002 1.211.171 1.803.451.523.248 1.405.877 1.964 1.4.557.522 1.204 1.275 1.438 1.673.231.398.478 1.048.548 1.446.084.477.042.925-.126 1.32-.16.379-.484.701-.885.882a2.8 2.8 0 0 1-1.357.206c-.397-.043-1.211-.316-1.807-.607-.597-.291-1.45-.899-1.899-1.349-.446-.45-1.016-1.224-1.263-1.72-.293-.585-.453-1.207-.453-1.775-.001-.76.077-.944.59-1.401.477-.427.754-.527 1.447-.526m-92.842 4.52c-.076 0-.542.187-1.039.417-.497.227-.966.553-1.04.721-.076.169-.076.307 0 .309.074.002.543-.167 1.04-.379l.903-.382c1.4 1.037 1.948 1.412 2.124 1.501.241.123.337.076.407-.2.071-.286-.161-.536-1.085-1.176-.647-.448-1.236-.813-1.31-.811m91.518-3.316c-.077.066-.127.37-.109.676s.212.924.429 1.372c.218.447.766 1.186 1.218 1.642s1.147.996 1.544 1.202c.398.206 1.009.432 1.356.503.349.072.858.079 1.131.018.272-.062.497-.192.497-.292s-.102-.137-.227-.083-.672-.068-1.22-.272a9.3 9.3 0 0 1-1.853-1.004c-.472-.347-1.059-.895-1.307-1.217-.246-.323-.644-1.055-.882-1.625-.241-.57-.499-.984-.577-.92m13.567-15.827c-.398.011-1.212.092-1.809.179-.596.087-1.533.29-2.079.447-.548.16-1.605.571-2.35.916s-1.843.979-2.44 1.405c-.597.425-1.615 1.345-2.261 2.044-.647.698-1.439 1.707-1.76 2.24-.322.536-.874 1.664-1.226 2.508-.352.846-.744 1.74-.871 1.989l-.23.452c2.332-.12 3.023-.046 3.726.178.546.173 1.523.606 2.17.963.649.357 1.742 1.217 2.447 1.923.7.702 1.552 1.763 1.892 2.36.34.596.75 1.573.911 2.17l.293 1.084c1.328-2.672 1.84-3.419 2.321-3.824.398-.336 1.088-.733 1.536-.881s1.14-.267 1.537-.263c.398.005 1.17.162 1.718.35.544.188 1.01.327 1.039.312.025-.019-.068-.317-.209-.666-.141-.347-.313-1.12-.382-1.717-.072-.624-.031-1.7.094-2.531.121-.796.424-2.016.673-2.712.248-.696.707-1.75 1.019-2.343.313-.593.982-1.528 1.487-2.079.504-.551 1.278-1.18 1.718-1.401l.798-.402c-1.961-.867-3.224-1.365-4.068-1.662-.846-.298-2.31-.66-3.254-.8-.945-.143-2.042-.25-2.44-.239m-48.541 6.342c-.119-.41-.125-.408-.731.19-.457.45-.602.738-.571 1.137.023.293.205.899.405 1.347.199.446.358.934.355 1.085-.006.148-.232.498-.503.772-.271.277-.636.499-.81.497-.173-.002-.412.18-.528.404s-1.235 1.488-2.485 2.81c-1.765 1.861-2.365 2.389-2.678 2.349-.345-.045-.406.033-.407.535-.004.438-.235.867-.908 1.673-.496.596-.903 1.165-.904 1.265 0 .1.062.184.136.188s1.825-1.705 3.888-3.797 3.872-4.047 4.022-4.346c.201-.4.472-.595 1.039-.745.423-.112.89-.29 1.04-.392.201-.137.413-.09.814.188.298.208.907.544 1.355.748.446.206.956.376 1.13.378s.54-.186.813-.417l.497-.422a11.7 11.7 0 0 1-2.366-1.905c-.604-.625-1.41-1.587-1.792-2.133-.381-.548-.746-1.181-.811-1.409M-29.214 2.593c-.074.008-1.236.947-2.577 2.085-1.344 1.14-4.693 3.96-7.446 6.268l-5.006 4.196c-.018 7.043.043 8.588.159 8.588.1 0 .568-.33 1.039-.73.472-.402 1.712-1.441 2.757-2.31 1.043-.87 2.182-1.78 2.531-2.02.347-.243.843-.646 1.1-.899s1.091-.947 1.854-1.544c.765-.596 1.756-1.43 2.2-1.853.447-.423 1.037-.879 1.31-1.016.273-.136.625-.441.782-.678.158-.236.546-.552.866-.702l.58-.27c-.01-7.063-.075-9.116-.149-9.115M201.74 18.306c-.061 0-.155.082-.209.18-.054.1-.021.486.072.86.095.373.462 1.063.814 1.537.352.471.987 1.092 1.41 1.38a10.3 10.3 0 0 0 1.491.817c.398.162.948.294 1.221.293.272-.002.477-.097.452-.208-.025-.112-.413-.299-.859-.412-.447-.116-1.181-.46-1.627-.766-.447-.304-1.051-.83-1.34-1.167s-.703-1.044-.92-1.564c-.217-.523-.443-.95-.505-.95m-97.124 2.168c-.048 0-.088.061-.085.135.004.076.268.613.588 1.195.32.584.726 1.194.903 1.357.275.253.322.256.319.024-.005-.15-.373-.82-.821-1.491-.446-.67-.853-1.22-.904-1.22m21.15 1.152c-.1-.038-.285.094-.408.293-.209.343-.158.377.865.59.598.123 1.13.185 1.18.136.051-.05.089-.179.085-.289-.004-.108-.353-.3-.774-.429a21 21 0 0 1-.948-.301m77.303-2.965c-.242-.129-.354-.129-.361 0-.005.103.132.484.306.847.173.362.683.99 1.13 1.393.446.401 1.159.879 1.582 1.058.422.178.808.303.86.28.051-.025.031-.2-.045-.386-.076-.188-.382-.437-.68-.555-.298-.117-.899-.535-1.335-.925s-.862-.895-.949-1.117c-.087-.225-.314-.492-.508-.595m-41.238-5.904a230 230 0 0 1-4.001 4.239c-1.833 1.89-2.321 2.5-2.321 2.892 0 .273.162.762.361 1.085s.423.59.497.595.227-.096.337-.227c.11-.128.192-.49.181-.802a1.4 1.4 0 0 1 .342-.954c.198-.212.523-.387.722-.387.226 0 1.136-.814 2.442-2.187 1.142-1.204 2.222-2.42 2.395-2.706.174-.285.459-.517.633-.513.173.003.459-.16.633-.362.256-.298.276-.443.108-.773a10 10 0 0 1-.431-1.074l-.22-.667zm63.463-6.254c-.25-.05-.67-.03-.94.044a5.6 5.6 0 0 0-.995.413c-.278.153-.911.714-1.404 1.247-.557.602-1.188 1.588-1.663 2.596-.421.895-.889 2.155-1.043 2.802-.152.645-.279 1.866-.282 2.712-.002.873.11 1.888.26 2.35.146.447.513 1.078.815 1.402.455.486.684.588 1.32.584a3.2 3.2 0 0 0 1.491-.427c.398-.233 1.111-.862 1.582-1.397.472-.537 1.118-1.463 1.432-2.06.315-.596.761-1.653.994-2.35.232-.696.51-1.877.618-2.622.143-.986.142-1.65-.006-2.44-.111-.596-.342-1.32-.512-1.61a3.3 3.3 0 0 0-.763-.84c-.249-.174-.657-.356-.904-.404M116.414 8.92c.125-.008.653.078 1.176.188a9.2 9.2 0 0 1 1.807.633c.472.237 1.19.775 1.595 1.198s.891 1.094 1.083 1.491c.192.398.423 1.172.514 1.718.101.602.101 1.335.002 1.854-.091.471-.359 1.245-.594 1.716-.235.472-.745 1.138-1.13 1.48a7.5 7.5 0 0 1-1.515.992c-.618.282-1.184.372-2.35.374-1.287.002-1.698-.074-2.531-.474-.546-.26-1.349-.788-1.783-1.174-.442-.393-1.019-1.175-1.316-1.785-.291-.596-.576-1.533-.636-2.079a5.3 5.3 0 0 1 .171-1.989c.154-.546.556-1.36.894-1.808.336-.448 1.009-1.057 1.495-1.355a7.2 7.2 0 0 1 1.888-.754c.552-.115 1.104-.217 1.23-.226m-.045 2.768c-.506-.038-1.261.05-1.717.2a7 7 0 0 0-1.513.767c-.385.275-.893.825-1.126 1.223-.235.397-.427.966-.427 1.264s.168.908.374 1.357c.204.446.629 1.126.943 1.51.347.422 1.039.921 1.749 1.261.947.454 1.403.563 2.35.56.858-.001 1.437-.122 2.151-.446.537-.245 1.25-.75 1.582-1.123.458-.513.606-.844.608-1.356.001-.374-.116-1.084-.259-1.581-.161-.562-.562-1.248-1.056-1.809-.515-.585-1.142-1.055-1.775-1.332-.539-.235-1.387-.457-1.884-.495m107.978-2.783c.412 0 .748.161 1.13.543.393.394.556.744.594 1.281.029.407.02 1.2-.019 1.763-.04.562-.27 1.554-.512 2.199s-.722 1.562-1.065 2.033c-.344.472-.89 1.022-1.213 1.221-.324.197-.852.36-1.175.361-.363 0-.751-.155-1.013-.406-.235-.224-.519-.732-.633-1.13a6.3 6.3 0 0 1-.204-1.446c.002-.398.123-1.232.27-1.854s.432-1.455.631-1.853a7.8 7.8 0 0 1 .949-1.387c.323-.363.831-.811 1.13-.992.298-.183.806-.331 1.13-.333m.165.726c-.085-.002-.085.18 0 .405.083.223.142 1.017.131 1.763-.014 1.051-.136 1.635-.542 2.617-.31.748-.872 1.649-1.381 2.215-.787.872-.825.953-.438.953.24 0 .69-.268 1.039-.619.34-.34.837-1.052 1.107-1.582.267-.53.615-1.452.768-2.048.156-.597.282-1.39.282-1.763-.001-.374-.088-.902-.197-1.175-.106-.274-.289-.556-.406-.63a.9.9 0 0 0-.363-.136m-.843.178c-.099 0-.191.06-.202.136-.013.075-.004.542.017 1.039.024.497-.096 1.393-.267 1.99-.17.596-.472 1.41-.671 1.807a6.4 6.4 0 0 1-.931 1.31c-.383.396-.508.65-.387.777.124.126.439-.092.986-.68.443-.476 1.007-1.313 1.253-1.86.283-.632.477-1.457.531-2.259.047-.696.032-1.49-.033-1.763-.064-.274-.197-.497-.296-.497m-57.153 5.422c-.111 0-.167.103-.123.226.043.124.48.448.97.72.49.27 1.155.494 1.479.497.323.001.588-.056.588-.132-.001-.074-.244-.156-.542-.181s-.868-.208-1.266-.407c-.397-.199-.763-.443-.813-.542a.36.36 0 0 0-.293-.18m-62.027-.154c-1.008-.302-1.119-.305-1.092-.045.018.172.474.473 1.122.741.6.25 1.153.393 1.227.318.074-.072.074-.257 0-.407-.075-.15-.641-.423-1.257-.607m118.239-4.363c-.07 0-.16.06-.202.135s-.135.543-.206 1.04a8.2 8.2 0 0 1-.52 1.784c-.215.486-.496.974-.624 1.085-.13.112-.228.406-.221.656l.015.452a8.4 8.4 0 0 0 1.22-1.899c.25-.547.502-1.502.56-2.124.058-.62.047-1.13-.022-1.13m-106.359-.896c-.596.01-1.41.138-1.808.286-.397.15-.959.448-1.25.665-.29.217-.744.722-1.009 1.12l-.482.723c1.423-.93 2.244-1.316 2.741-1.461.498-.143 1.291-.26 1.763-.259.472 0 1.285.16 1.808.35.529.196 1.376.737 1.915 1.221.531.48 1.182 1.3 1.446 1.823.263.521.494.927.512.904.016-.025-.046-.434-.136-.906-.092-.474-.319-1.165-.505-1.537-.186-.375-.775-1.068-1.31-1.545s-1.338-.986-1.786-1.132-1.302-.26-1.899-.252m-145.627 3.797c.15 0 .416.14.593.312.177.17.319.474.3 1.035l-.199-.362a2.8 2.8 0 0 0-.582-.675c-.28-.227-.309-.31-.112-.31m-.732-12.24c-.511-.194-.606-.16-1.313.466-.418.371-3.04 2.58-5.826 4.909a3468 3468 0 0 1-6.814 5.68c-.959.795-1.752 1.487-1.765 1.537-.008.051.23.192.531.317.544.224.576.204 3.032-1.899 1.367-1.168 4.762-4.023 7.548-6.342 2.786-2.322 5.088-4.274 5.114-4.34.023-.066-.204-.215-.507-.328M167.482 4.78l-1.089 1.14-.166 3.255c1.43 2.072 2.355 3.15 2.977 3.732s1.23 1.06 1.356 1.061c.124.002.632-.405 1.129-.906.498-.499 1.047-.907 1.221-.905.173.002.318.063.32.137s-.425.524-.949 1c-.524.475-.885.921-.804.994.079.072.771.03 1.536-.09 1.278-.204 1.463-.291 2.318-1.085.512-.476.938-.926.949-1 .008-.074-.694-.132-1.562-.128l-1.582.007a65 65 0 0 0-2.424-3.321c-1.03-1.33-1.452-1.746-1.689-1.672-.173.054-.358.016-.407-.083-.05-.1-.014-.324.076-.497.098-.183.107-.834.024-1.548l-.143-1.232zm3.177-2.32-.848.568c-.019 3.03.022 3.222.477 3.844a68 68 0 0 0 1.492 1.918c.631.784 1.291 1.387 1.808 1.647.446.228 1.26.515 1.807.64l.996.228c1.675-1.713 1.722-1.812 1.619-2.49-.06-.399-.142-.786-.186-.86s-.527.314-1.072.86c-.548.546-1.137.993-1.311.993s-.805-.23-1.401-.51c-.638-.3-1.329-.803-1.678-1.22a8.8 8.8 0 0 1-.945-1.434c-.195-.398-.359-1.048-.362-1.446-.008-.656.087-.808 1.036-1.65l1.045-.93c-1.191-.593-1.557-.756-1.582-.745-.027.012-.428.276-.895.588M22.229 9.553c.189-.217.305-.228.59-.052.197.117.357.318.355.443a.34.34 0 0 1-.229.299c-.125.04-.388-.04-.587-.174-.3-.206-.322-.292-.129-.516m-.77-5.077c.06.398.32 1.089.577 1.537s.671 1.057.921 1.356c.25.298.826.85 1.281 1.224a7.7 7.7 0 0 0 1.825 1.05c.545.203 1.157.344 1.356.314.23-.037-.028-.201-.724-.461-.596-.223-1.533-.76-2.079-1.196a13 13 0 0 1-1.757-1.764c-.42-.537-.931-1.381-1.137-1.878l-.372-.904zm152.536-1.717c-.081 0-.621.468-1.199 1.04-1.02 1.008-1.047 1.061-.922 1.762.07.398.311 1.01.535 1.357.224.348.562.76.748.918.186.157.728.502 1.199.768.472.265.939.482 1.039.483.1 0 .182-.082.182-.181 0-.1-.183-.219-.407-.264-.331-.068-.364-.128-.176-.316.188-.19.304-.188.633.007.371.224.467.175 1.263-.633.473-.48.86-.935.858-1.009s-.185-.137-.408-.139c-.224-.001-.753-.206-1.176-.452s-1.016-.794-1.319-1.217-.585-1.073-.628-1.446c-.042-.372-.142-.677-.222-.678M23.246 2.395c-.406.002-.806.055-.89.122-.083.065-.135.453-.117.86.018.405.208 1.104.423 1.55.215.449.926 1.345 1.58 1.995.653.649 1.595 1.375 2.092 1.614.497.238 1.23.468 1.627.513.537.058.792-.003.994-.24.148-.175.253-.572.23-.88-.024-.308-.222-.927-.44-1.375-.22-.446-.934-1.346-1.587-1.999-.663-.663-1.624-1.4-2.18-1.674-.593-.29-1.293-.488-1.732-.486m83.08 4.9c-.109-.038-.033.206.169.544.202.337.473.65.6.692.133.045.063-.185-.168-.543-.219-.34-.491-.653-.601-.692m65.931-1.653a.28.28 0 0 1 .316-.12c.11.037.23.223.263.415.03.192-.071.409-.227.483-.2.095-.312.028-.376-.227-.05-.198-.039-.446.024-.55m3.416-3.788c-.468 0-.682.104-.837.407-.154.304-.156.579-.004 1.084.11.373.466.974.79 1.335.324.362.893.808 1.266.994.372.187.864.338 1.093.338s.515-.1.636-.225.22-.451.218-.724-.136-.761-.295-1.085a5.7 5.7 0 0 0-.769-1.1c-.262-.282-.701-.628-.974-.769-.273-.14-.779-.255-1.124-.255m-2.448 2.893c.101 0 .233.102.294.226s.058.389-.005.587c-.109.34-.134.344-.427.055-.188-.188-.26-.418-.179-.588.071-.153.214-.28.317-.28m.632-.904c.051 0 .178.225.281.497.115.313.121.564.014.678-.11.117-.244.023-.382-.271-.117-.248-.166-.553-.11-.678s.145-.225.197-.226M17.917-44.609c.205 0 1.45.539 2.768 1.197s3.353 1.715 4.521 2.35c1.167.634 2.183 1.255 2.256 1.38.075.126.688 1.447 1.363 2.938.835 1.845 1.428 3.49 1.857 5.152.345 1.341.627 2.58.628 2.757-.002.173-.784 1.76-1.74 3.525-.954 1.764-1.87 3.348-2.034 3.52-.163.17-2.047 1.29-4.184 2.487-2.352 1.32-4.08 2.175-4.383 2.176-.273-.002-1.292-.4-2.261-.889-.97-.486-2.918-1.525-6.894-3.723l-2.181-4.43c-1.202-2.434-2.183-4.572-2.18-4.745 0-.177.447-1.519.99-2.983a134 134 0 0 1 2.356-5.89l1.627-.995c.895-.547 2.864-1.633 4.374-2.412 1.509-.777 2.913-1.415 3.118-1.415m205.223-.006c.592-.003.988.128 1.523.507.398.28.922.832 1.164 1.226.278.448.447.998.452 1.48.011.752-.038.816-5.774 6.53l.346.51c.189.28.497.956.681 1.504.184.546.332 1.258.332 1.582a3.8 3.8 0 0 1-.244 1.176c-.132.324-.437.718-.678.875-.24.157-.701.341-1.024.406-.345.07-1.017.004-1.628-.16-.571-.155-1.488-.529-3.028-1.384l-2.446 2.504a7299 7299 0 0 0-6.192 6.346c-3.563 3.653-3.779 3.842-4.424 3.842-.372-.002-.942-.165-1.265-.362a1.78 1.78 0 0 1-.787-1.04c-.11-.372-.142-.882-.074-1.13.068-.25.497-.858.954-1.355.458-.497 3.217-3.365 11.432-11.842l-.55-.858c-.3-.472-.667-1.266-.813-1.763-.149-.497-.266-1.23-.262-1.628.002-.398.104-.924.225-1.168.124-.244.509-.638.858-.875.52-.355.792-.417 1.536-.344.497.047 1.392.332 3.073 1.183l2.906-2.878c2.865-2.84 2.915-2.878 3.707-2.884M69.229-45.32c.372-.094 1.166-.124 1.762-.07.597.056 1.573.275 2.17.488.596.212 1.57.67 2.165 1.018.595.347 1.742 1.282 2.546 2.077 1.142 1.13 1.63 1.783 2.23 2.983.583 1.168.79 1.82.865 2.712.054.645.007 1.52-.103 1.944-.14.538-.511 1.087-1.24 1.83-.705.721-1.273 1.128-1.763 1.265-.397.11-1.13.2-1.627.2a9 9 0 0 1-1.808-.235c-.897-.231-.908-.229-1.356.299-.25.293-.676.642-.949.777-.334.167-.535.441-.613.835-.063.324-.246.785-.406 1.026-.16.24-.556.546-.88.677-.323.132-.587.364-.587.512s-.244.415-.54.588c-.322.188-.54.464-.537.678.003.199-.18.6-.409.891-.225.291-.676.636-1 .768-.466.19-.585.342-.582.736.004.288-.186.707-.452.995-.251.272-.661.538-.909.587-.32.064-.503.262-.622.678-.094.324-.461.851-.814 1.175-.354.323-.826.626-1.05.67-.224.048-.814.122-1.31.166-.498.045-1.699.313-2.67.595-1.565.455-1.793.482-2.026.242-.22-.226-.233-.554-.081-1.99.1-.945.131-2.166.068-2.711-.08-.701-.029-1.208.17-1.717.155-.398.528-.906.828-1.13.416-.31.545-.549.541-.995-.003-.346.163-.807.406-1.117.227-.291.677-.636 1-.768.48-.195.588-.339.588-.781 0-.354.182-.73.528-1.085.29-.298.636-.541.768-.54.14.002.298-.305.376-.722.098-.526.31-.865.772-1.224.348-.273.68-.701.734-.949a3.2 3.2 0 0 1 .36-.86c.144-.223.544-.529.891-.677.38-.163.633-.398.63-.588.001-.174.195-.601.865-1.582l-.342-.858c-.216-.548-.337-1.3-.336-2.08.004-.787.121-1.476.334-1.943.181-.397.567-.998.856-1.336.287-.336.83-.763 1.202-.949a8 8 0 0 1 1.356-.505m50.123 2.714c.944-.009 2.408.102 3.254.246.845.145 2.146.48 2.893.745.745.264 2 .859 2.788 1.32.786.46 1.971 1.368 2.631 2.013.66.646 1.495 1.705 1.854 2.351.36.645.781 1.663.937 2.26.179.688.28 1.875.28 3.255 0 1.4-.101 2.552-.285 3.253a13 13 0 0 1-.838 2.17c-.302.596-1.046 1.605-1.653 2.242-.606.636-1.673 1.533-2.369 1.996-.696.46-1.977 1.099-2.847 1.419-.87.318-2.335.712-3.255.873-1.225.213-2.274.264-3.931.19-1.376-.061-2.863-.25-3.797-.484-.846-.21-2.148-.668-2.893-1.017-.746-.349-1.844-.981-2.44-1.406a14 14 0 0 1-1.946-1.75 13.7 13.7 0 0 1-1.486-2.153c-.343-.646-.747-1.745-.898-2.44-.15-.697-.277-1.957-.279-2.803s.083-2.025.192-2.622c.106-.596.468-1.654.802-2.35.333-.696 1.04-1.747 1.568-2.332.529-.588 1.45-1.416 2.047-1.84a20 20 0 0 1 2.349-1.393c.696-.343 1.673-.756 2.17-.92a23 23 0 0 1 2.169-.55c.696-.139 2.038-.262 2.983-.273m93.656 9.929c-.075.001-2.409 2.34-5.189 5.198-2.778 2.858-5.515 5.705-6.082 6.327s-1.03 1.293-1.03 1.492.204.566.451.814c.25.25.657.451.904.451.349 0 1.223-.791 3.84-3.48 1.862-1.914 4.609-4.719 6.102-6.232l2.714-2.75c-1.221-1.409-1.637-1.82-1.71-1.82M29.677-27.434c-.089 0-.207.081-.261.18-.054.1-1.056.74-2.224 1.42-1.167.681-2.572 1.48-3.118 1.775-.922.497-1.11.722-2.562 3.056-.86 1.381-1.53 2.533-1.492 2.563.042.026.626-.25 1.296-.61.671-.359 2.22-1.234 3.443-1.942l2.222-1.29a830 830 0 0 1 2.623-4.745c.129-.224.161-.407.073-.407m144.24-15.418c.446-.217.936-.297 1.48-.245.447.041 1.14.24 1.538.44a9 9 0 0 1 1.446.988c.398.34 1 1.14 1.34 1.777.437.822.641 1.473.703 2.243.047.597-.004 1.369-.113 1.718-.146.465-1.147 1.548-3.776 4.077a1062 1062 0 0 1-7.022 6.69 520 520 0 0 1-5.288 4.917c-1.26 1.142-2.031 1.707-2.432 1.78-.333.064-1.018-.014-1.582-.177-.548-.157-1.33-.553-1.74-.877a10 10 0 0 1-1.329-1.314 10.3 10.3 0 0 1-.992-1.537c-.226-.448-.461-1.118-.524-1.49a4 4 0 0 1 .057-1.357c.137-.542.801-1.297 3.298-3.753 1.722-1.692 5.636-5.435 8.699-8.316 3.064-2.884 5.87-5.387 6.237-5.564M10.243-38.369c-.199-.041-.584.002-.858.096-.438.15-.63.514-1.604 3.018-1.08 2.784-1.104 2.88-1.032 4.294.069 1.397.128 1.566 1.782 4.977l1.712 3.529a113 113 0 0 0 5.018 2.768c1.863.969 2.61 1.269 2.982 1.202.275-.049.715-.313.979-.588s.976-1.29 1.582-2.261c1.053-1.687 1.1-1.812 1.1-2.938 0-1.034-.163-1.591-1.363-4.655-.767-1.956-1.656-3.903-2.034-4.45-.369-.53-.996-1.156-1.394-1.386s-2.024-1.12-3.615-1.975c-1.59-.857-3.056-1.59-3.255-1.63M57.92-21.033c-.356-.453-.413-.475-.407-.163.002.2-.056.79-.13 1.313-.123.878-.107.95.227.938.2-.007.809-.152 1.357-.322l.994-.31c-1.261-.723-1.813-1.168-2.041-1.456m48.242-6.174c-.005.074.183.562.418 1.085s.804 1.457 1.265 2.079 1.389 1.542 2.059 2.047c.671.504 1.749 1.168 2.396 1.473.645.306 1.947.749 2.892.986.944.236 2.531.48 3.526.541 1.323.082 2.318.028 3.706-.204 1.043-.173 2.387-.493 2.983-.709s1.655-.708 2.351-1.093c.777-.432 1.788-1.23 2.621-2.073.933-.946 1.538-1.755 1.943-2.595.324-.67.589-1.322.593-1.447.003-.124-.208.1-.468.497-.26.398-.977 1.235-1.588 1.86-.613.628-1.724 1.495-2.468 1.929-.747.432-1.926.99-2.622 1.24-.697.25-1.998.59-2.893.76-1.244.237-2.204.288-4.067.215-1.879-.072-2.837-.203-4.159-.574-.945-.264-2.328-.8-3.073-1.19s-1.824-1.077-2.395-1.526c-.572-.448-1.346-1.204-1.718-1.681a36 36 0 0 1-.986-1.31c-.167-.244-.31-.383-.316-.31M-31.989-45.511c.16.002.658.112 1.104.248.448.134 1.18.428 1.627.652.448.226 1.425.836 2.17 1.355 1.182.822 1.531 1.206 2.73 3.005 1.263 1.894 1.42 2.236 1.949 4.23.502 1.9.541 2.214.321 2.53-.137.2-.554.728-.927 1.176-.372.447-1.136 1.199-1.698 1.667-.56.47-1.12.856-1.245.859s-.49.334-.814.735-.709.768-.859.817c-.149.047-.903-.159-3.073-1.005l-1.04.933c-.57.514-2.214 1.998-3.65 3.3a1764 1764 0 0 1-4.339 3.92c-.95.856-1.91 1.648-2.135 1.763s-.794.206-1.266.204c-.472-.001-1.204-.164-1.627-.36-.423-.198-1.225-.785-1.782-1.307-.582-.545-1.239-1.393-1.537-1.99-.287-.57-.572-1.344-.634-1.716a4.9 4.9 0 0 1 0-1.357c.087-.52.394-.96 1.334-1.898.671-.672 3.05-2.84 5.288-4.822a839 839 0 0 1 4.305-3.796c.197-.161.181-.357-.386-2.003l1.253-3.797 1.255-.956c.69-.526 1.733-1.28 2.32-1.673.585-.394 1.195-.716 1.356-.714M157.6-25.807c-.353 0-.753.137-.928.316-.231.239-.288.538-.23 1.221.044.497.254 1.27.469 1.717.213.448.779 1.208 1.255 1.69.477.482 1.172 1.03 1.545 1.22.372.189 1.023.348 1.446.354.504.005.863-.098 1.04-.3.152-.172.267-.633.262-1.047-.006-.445-.224-1.167-.542-1.803-.293-.582-.9-1.403-1.347-1.822-.448-.42-1.159-.938-1.582-1.153s-1.047-.393-1.388-.393m-203.945-1.077c-.397.002-.851.084-1.01.185-.158.1-.382.504-.498.898-.115.396-.158.942-.094 1.215.065.273.31.883.543 1.355.235.472.77 1.232 1.194 1.686.423.455 1.176 1.024 1.673 1.266.497.244 1.172.442 1.499.44.395 0 .746-.154 1.039-.453.323-.328.444-.652.444-1.176 0-.398-.159-1.15-.352-1.672-.194-.523-.702-1.347-1.13-1.833-.429-.488-1.184-1.117-1.68-1.401-.586-.333-1.16-.512-1.628-.51m104.795 1.438c-.085 0-.284.143-.44.317-.157.173-.367.52-.464.768-.123.31-.111.706.033 1.257.138.528.477 1.076.98 1.582.422.428 1.236.993 1.807 1.255.795.365 1.21.451 1.763.372.493-.07.88-.279 1.22-.658.273-.304.498-.635.498-.735-.002-.099-.388-.262-.859-.36-.472-.099-1.367-.506-1.989-.905-.622-.398-1.377-1.068-1.679-1.491s-.586-.912-.633-1.085c-.045-.174-.152-.317-.237-.317m113.1-14.418a1404 1404 0 0 0-6.454 6.09 739 739 0 0 0-5.568 5.333c-.919.901-1.672 1.7-1.672 1.776.003.074.187.134.411.136.224 0 .813.236 1.31.522.497.285 1.291.934 1.763 1.444s1.059 1.353 1.305 1.875.47 1.255.498 1.627c.027.37.07.675.095.678.026 0 2.137-1.972 4.694-4.384s6.157-5.83 8-7.599c1.844-1.768 3.452-3.395 3.571-3.616.121-.22.224-.747.225-1.17.004-.423-.137-1.155-.312-1.627-.177-.471-.604-1.216-.949-1.654-.346-.437-1.036-1.026-1.533-1.309-.678-.385-1.145-.513-1.863-.515l-.958-.002zm-51.294-1.94c-.846-.039-2.148.012-2.893.111-.746.101-2.088.42-2.983.707-.895.29-2.239.887-2.984 1.328-.746.443-1.798 1.197-2.338 1.678-.541.48-1.299 1.36-1.682 1.956-.383.597-.859 1.616-1.054 2.26a9.2 9.2 0 0 0-.352 2.397c.002.844.14 1.598.451 2.44.247.672.756 1.661 1.131 2.198.374.537 1.047 1.3 1.495 1.697.446.396 1.219.986 1.717 1.312.497.323 1.513.837 2.259 1.14.745.302 1.966.691 2.712.863.978.226 2.113.309 4.069.304 2.176-.01 2.995-.087 4.158-.398.795-.211 2.218-.769 3.164-1.235 1.381-.684 2.003-1.134 3.184-2.303 1.104-1.096 1.61-1.765 2.056-2.72.326-.696.677-1.712.778-2.26.131-.699.125-1.368-.018-2.26-.125-.782-.463-1.78-.888-2.616-.403-.799-1.09-1.764-1.678-2.359a16 16 0 0 0-2.169-1.77c-.648-.419-1.807-1.005-2.577-1.301s-1.99-.666-2.712-.818c-.721-.151-2.002-.308-2.846-.35M-44.988-28.06c-.456-.085-.71-.037-.91.165-.245.251-.245.28 0 .282.153.002.704.205 1.226.453.522.247 1.341.836 1.822 1.308s1.1 1.307 1.376 1.853c.275.547.553 1.376.618 1.842.095.696.16.81.364.633.171-.15.224-.517.172-1.21-.04-.546-.27-1.401-.51-1.898-.239-.497-.846-1.302-1.347-1.786-.502-.487-1.199-1.027-1.546-1.203a5.7 5.7 0 0 0-1.265-.439m105.397-.09c-.047.004-.358.145-.688.31-.514.261-.548.314-.227.355.318.044.376.178.376.864 0 .449-.081.814-.18.814-.1 0-.243-.246-.317-.546s-.196-.543-.27-.542-.135.146-.133.32c.002.173.165.661.362 1.084s.703 1.11 1.126 1.528 1.215.962 1.763 1.21c.58.262 1.347.455 1.839.46.663.01.945-.085 1.314-.44.26-.248.469-.595.466-.768-.002-.197-.191-.357-.5-.422a14 14 0 0 1-1.04-.279c-.299-.095-.868-.36-1.266-.59-.398-.232-1.023-.777-1.389-1.214-.366-.438-.775-1.1-.907-1.473-.133-.372-.28-.674-.329-.67M-44.2-29.239c-.21-.001-.477.12-.587.268-.166.226-.054.318.658.55.472.153 1.286.602 1.809.994.533.403 1.267 1.212 1.677 1.847.427.66.821 1.556.95 2.154.12.564.28.992.355.95s.138-.503.14-1.025c.003-.523-.11-1.233-.253-1.582-.141-.348-.57-1.055-.953-1.57-.384-.515-.982-1.155-1.33-1.42a9 9 0 0 0-1.355-.822c-.398-.186-.897-.34-1.11-.344M178.5-36.923c.105.061.181.227.17.37s-1.216 1.38-2.68 2.746a1026 1026 0 0 0-4.658 4.385 957 957 0 0 1-4.661 4.384c-1.681 1.569-2.763 2.453-2.935 2.395-.148-.049-.274-.151-.278-.226-.005-.074 1.318-1.4 2.937-2.945 1.62-1.546 4.965-4.702 7.431-7.014 2.468-2.312 4.57-4.154 4.674-4.095M11.284-33.767c.555-.266.982-.342 1.537-.271.423.052 1.074.25 1.447.439.372.188 1.074.696 1.558 1.13.486.432 1.198 1.274 1.587 1.871.387.597.868 1.615 1.066 2.26.198.646.359 1.643.357 2.215-.002.57-.112 1.304-.244 1.628-.134.323-.519.82-.859 1.106-.56.47-.721.51-1.724.451-.939-.056-1.268-.177-2.158-.79-.578-.398-1.4-1.17-1.827-1.717-.426-.546-.976-1.4-1.22-1.898-.244-.497-.582-1.434-.748-2.08-.178-.686-.267-1.513-.214-1.989.05-.446.223-1.076.383-1.4.183-.369.577-.725 1.06-.955m-54.48 3.623c-.256 0-.521.06-.588.134s.427.39 1.1.703c.88.409 1.498.87 2.215 1.65.546.597 1.19 1.482 1.43 1.964.24.485.483 1.18.543 1.547.087.546.152.63.352.452.181-.157.214-.457.123-1.119-.067-.497-.341-1.305-.607-1.797s-.892-1.298-1.389-1.795c-.497-.495-1.31-1.089-1.807-1.32-.497-.23-1.115-.417-1.371-.419m54.575-2.894c-.073 0-.248.183-.389.407-.143.222-.313.732-.382 1.13-.077.459-.014 1.148.174 1.898.165.646.537 1.621.828 2.169.293.546.884 1.401 1.313 1.899.443.513 1.204 1.119 1.762 1.403.54.274 1.227.496 1.526.493.298-.002.643-.065.767-.137.14-.083-.161-.3-.814-.583-.593-.257-1.492-.875-2.096-1.446-.771-.727-1.261-1.408-1.807-2.52-.709-1.435-.75-1.613-.75-3.117 0-.877-.06-1.595-.132-1.596m15.56-5.562c-.134-.023-.814.27-1.51.653-.695.386-2.281 1.305-3.525 2.048-1.78 1.063-2.272 1.441-2.32 1.788-.033.24.399 1.619.96 3.06a304 304 0 0 0 1.825 4.564c.441 1.07.862 1.945.937 1.948.077 0 1.275-.66 2.667-1.472s2.98-1.772 3.525-2.134c.883-.585.987-.717.93-1.194-.036-.295-.371-1.596-.747-2.888-.376-1.293-1.093-3.245-1.592-4.339-.5-1.093-1.018-2.009-1.15-2.034m-68.706 7.496c-.404-.06-.793-.007-.994.136-.298.213-.27.244.304.34.349.06 1.157.455 1.797.881.64.427 1.468 1.183 1.84 1.68.375.497.844 1.271 1.048 1.718.203.448.372 1.038.373 1.31.002.274.086.498.185.498.1 0 .222-.122.27-.272.051-.148.094-.535.095-.858.002-.324-.235-1.076-.526-1.672-.291-.597-.883-1.456-1.315-1.908-.43-.452-1.15-1.033-1.598-1.29-.447-.256-1.112-.509-1.479-.563M12.617-33.4c-.128 0-.3.054-.384.12-.083.068-.138.698-.122 1.4.015.706.177 1.73.36 2.277.182.546.582 1.36.885 1.808.306.446.91 1.162 1.344 1.589.434.424 1.113.928 1.51 1.116.399.188.925.368 1.173.4.284.037.468-.041.506-.213.04-.18-.233-.39-.808-.62-.486-.197-1.275-.754-1.788-1.265-.595-.593-1.163-1.428-1.61-2.363-.57-1.2-.7-1.687-.76-2.847-.05-.987-.141-1.402-.306-1.402m48.803 3.265c-.373.282-.494.523-.48.951.011.316.178.9.368 1.298.191.398.759 1.11 1.263 1.582s1.263 1.02 1.684 1.217c.423.197 1.175.363 1.672.369.614.007 1.03-.093 1.301-.314.217-.177.422-.48.453-.671.043-.275-.093-.382-.624-.498-.373-.081-1.063-.344-1.537-.583-.471-.236-1.256-.785-1.743-1.22-.488-.431-1.104-1.173-1.372-1.649l-.486-.86zm-101.71-2.132c-.556-.061-.882-.012-1.032.158-.177.2-.044.32.725.649.52.22 1.42.832 2.001 1.356a6.8 6.8 0 0 1 1.676 2.218c.342.696.668 1.551.726 1.898.077.474.144.564.261.362.089-.149.162-.577.163-.95.002-.372-.08-.901-.18-1.174-.101-.273-.144-.538-.095-.588.05-.049.166.115.257.362.092.25.273.696.401.994l.236.542c.088-.969-.082-1.54-.431-2.215a10 10 0 0 0-1.355-1.898c-.45-.472-1.205-1.03-1.678-1.24-.472-.212-1.226-.423-1.674-.474m53.988-.78c-.09.006-.115.55-.056 1.23.075.834.279 1.56.653 2.304.3.597.813 1.406 1.14 1.798a7 7 0 0 0 1.409 1.221c.448.28.915.51 1.04.508.124-.002.225-.164.225-.363 0-.213-.204-.464-.497-.612-.273-.138-.859-.647-1.301-1.131A9.4 9.4 0 0 1 15-30.055c-.278-.596-.559-1.41-.622-1.808-.063-.397-.206-.83-.316-.959-.11-.128-.273-.229-.364-.225m105.744-3.411c.299-.01 1.032.072 1.628.182a10 10 0 0 1 2.079.674c.548.262 1.258.743 1.581 1.068.324.326.751.917.95 1.315.226.454.36 1.078.358 1.673-.002.537-.15 1.263-.34 1.672-.186.397-.651 1.023-1.036 1.388-.385.367-1.147.886-1.694 1.156s-1.522.574-2.169.677c-.862.136-1.512.127-2.441-.036-.719-.126-1.726-.472-2.334-.8-.585-.317-1.343-.903-1.681-1.3-.344-.405-.737-1.161-.894-1.718-.177-.624-.233-1.231-.153-1.627.069-.349.271-.917.446-1.266.177-.349.617-.897.977-1.22a8 8 0 0 1 1.425-.984c.423-.219 1.216-.497 1.762-.618.548-.121 1.238-.227 1.536-.236m-56.304 4.142c-.11 0-.301.207-.422.458-.18.369-.175.608.027 1.22.157.483.622 1.132 1.266 1.77.57.564 1.47 1.219 2.053 1.492.584.27 1.358.484 1.763.484.398 0 .765-.081.814-.18.05-.1-.337-.297-.859-.44-.52-.141-1.372-.568-1.888-.95-.516-.38-1.274-1.136-1.681-1.684-.409-.548-.772-1.258-.808-1.582-.038-.323-.157-.587-.265-.588M-39.091-33.4c-.49 0-.89.107-1.04.279-.215.243-.184.277.25.27.275-.004.721.09.994.21.275.12.973.548 1.555.95s1.245.975 1.474 1.274c.23.298.627.99.883 1.537.259.547.467 1.198.463 1.446-.005.41.022.427.295.18.215-.194.277-.473.22-.993-.043-.398-.272-1.13-.509-1.627s-.8-1.3-1.253-1.784-1.208-1.073-1.681-1.31c-.514-.259-1.175-.432-1.65-.432m159.076.058c-1.236-.054-1.846.008-2.54.252-.501.177-1.193.513-1.537.746s-.862.762-1.153 1.176l-.529.752c.54.98 1.104 1.532 1.601 1.863.497.329 1.311.716 1.808.86s1.432.263 2.079.263 1.582-.12 2.079-.264a6.7 6.7 0 0 0 1.673-.815c.423-.304.97-.838 1.22-1.185.415-.582.432-.674.197-1.13-.141-.274-.487-.712-.769-.976-.282-.262-.962-.701-1.508-.976-.809-.405-1.294-.51-2.621-.566M15.869-31.321c-.697-.74-.83-.822-.733-.452.065.248.314.899.55 1.447.24.546.798 1.36 1.245 1.808.444.446.845.77.89.723.042-.051-.187-.66-.51-1.356-.324-.696-.974-1.672-1.442-2.17m49.335-2.62c-.1.006-.404.21-.679.456-.316.286-.495.627-.493.944.004.273.156.823.342 1.22.184.398.69 1.063 1.126 1.477a9 9 0 0 0 1.692 1.226c.646.334 1.178.468 1.854.464.705-.002 1.043-.097 1.31-.365.2-.199.362-.483.362-.633 0-.236-.04-.235-.317.011-.22.199-.37.226-.497.09q-.18-.191.05-.417c.126-.125.227-.287.225-.361s-.226-.176-.5-.225c-.273-.049-.986-.399-1.582-.778-.597-.382-1.32-.972-1.608-1.314a7.4 7.4 0 0 1-.813-1.213c-.16-.325-.372-.587-.472-.582m-103.231-.72c-.2.004-.518.09-.71.19-.189.102-.331.262-.316.356.018.094.235.172.483.172.25 0 .91.224 1.471.497.591.288 1.41.916 1.951 1.492.58.62 1.083 1.387 1.33 2.034.221.57.4 1.202.4 1.401s.102.334.227.302c.128-.033.247-.407.274-.859.034-.546-.087-1.084-.378-1.703-.237-.497-.828-1.345-1.314-1.884-.575-.632-1.27-1.158-1.972-1.489-.596-.282-1.247-.51-1.446-.508m2.319-6.603c-.4-.083-.608-.047-.679.12-.054.134-.305.831-.554 1.55-.427 1.236-.436 1.345-.17 1.898l.284.588c.612-.594.972-.858 1.196-.97s.713-.206 1.085-.207c.372 0 1.085.197 1.582.44.497.245 1.364.917 1.926 1.494.56.578 1.232 1.499 1.491 2.045.26.548.525 1.443.588 1.99.107.928.075 1.039-.454 1.671-.312.374-.527.758-.478.858s.478.305.95.457c.471.15.94.274 1.04.276.1 0 .416-.428.705-.951.455-.831.507-1.074.402-1.86-.083-.622-.493-1.58-1.317-3.074-.66-1.193-1.573-2.562-2.033-3.043-.457-.48-1.32-1.12-1.916-1.422a40 40 0 0 1-2.079-1.144c-.547-.33-1.252-.65-1.57-.716m-1.09 5.692c-.418 0-.801.064-.852.138s.373.313.94.53c.568.216 1.44.756 1.937 1.2s1.189 1.284 1.536 1.866.765 1.466.93 1.964c.245.742.32.84.433.542.074-.2.084-.87.02-1.492-.065-.62-.177-1.125-.252-1.127-.075.001-.27-.224-.433-.499-.165-.274-.63-.843-1.04-1.266a10.4 10.4 0 0 0-1.602-1.313c-.607-.386-1.081-.544-1.618-.543m250.431-3.644c-.298-.049-.721-.056-.94-.018-.218.036-.544.235-.723.439-.224.255-.325.664-.326 1.31.001.726.161 1.26.712 2.374.526 1.067 1.064 1.79 2.079 2.805.982.981 1.751 1.556 2.723 2.039.937.463 1.595.67 2.125.667.423-.002.902-.065 1.065-.14.164-.075.416-.381.56-.68.179-.368.223-.77.136-1.264-.071-.398-.302-1.113-.514-1.59-.212-.474-.427-.856-.478-.851-.049.007-.437.336-.86.73-.421.394-.849.716-.949.716s-.484-.125-.858-.278c-.373-.156-.993-.583-1.378-.95-.383-.369-.85-.996-1.034-1.393-.186-.398-.34-.925-.344-1.175-.005-.28.23-.691.622-1.085.347-.347.591-.693.546-.768-.048-.075-.431-.284-.853-.468-.421-.183-1.013-.371-1.311-.42m-248.18 1.66c-.223.002-.509.063-.632.135-.14.083.158.3.809.584.567.25 1.4.787 1.85 1.195s1.052 1.06 1.335 1.446c.316.432.473.826.407 1.02-.06.175-.169.32-.245.322-.074.003-.236-.201-.36-.452s-.572-.832-.995-1.291c-.421-.46-1.094-1.027-1.492-1.262s-1.007-.508-1.356-.607c-.347-.1-.814-.143-1.039-.094-.221.047-.408.146-.41.22-.003.076.242.197.542.271.3.076.975.409 1.495.74.523.332 1.255.942 1.627 1.356.374.414.922 1.282 1.22 1.927.298.647.543 1.338.543 1.537 0 .202.1.334.226.3.148-.04.227-.432.229-1.13.004-.87.062-1.075.316-1.114.234-.032.342.13.425.633.1.6.134.636.293.317.1-.2.13-.606.067-.905-.061-.298-.32-.99-.573-1.537s-.842-1.386-1.308-1.867c-.469-.48-1.236-1.07-1.71-1.31-.471-.24-1.04-.436-1.265-.434m100.826 1.124c-.175.237-.289.715-.278 1.174.01.425.17 1.077.358 1.449.187.374.695 1.03 1.13 1.461s1.236.996 1.782 1.257c.557.265 1.327.477 1.748.482.57.008.868-.1 1.217-.442.253-.248.423-.512.376-.588-.048-.075-.553-.379-1.126-.675-.571-.296-1.522-.969-2.111-1.491a22 22 0 0 1-1.935-1.99l-.864-1.038zm-91.918 4.882c-.33-.206-.361-.181-.363.317-.004.5.028.527.36.319.2-.125.362-.268.364-.319 0-.05-.163-.193-.36-.317m91.85-8.632c-.007.454.197 1.163.548 1.898.305.648.953 1.664 1.437 2.26.485.597 1.433 1.505 2.108 2.017.676.51 1.636 1.131 2.133 1.379.498.25 1.351.584 1.899.745.546.16 1.44.285 1.988.274l.994-.02c-2.382-.5-3.561-.864-4.158-1.131-.596-.268-1.572-.835-2.169-1.262-.596-.427-1.533-1.262-2.079-1.856-.548-.595-1.257-1.521-1.577-2.06-.318-.537-.7-1.425-.846-1.972l-.265-.995zm54.046 4.576c-.546-.047-1.36-.028-1.809.042a8 8 0 0 0-1.627.48c-.448.195-1.099.6-1.446.9s-.776.844-.949 1.207c-.174.363-.32.803-.324.979-.005.23.212.11.814-.453.452-.422 1.208-.938 1.68-1.142.471-.206 1.386-.436 2.033-.512s1.664-.069 2.261.013c.596.083 1.572.387 2.169.675.596.289 1.349.817 1.672 1.175.354.39.587.541.587.38 0-.15-.108-.538-.24-.86-.134-.324-.642-.938-1.13-1.366-.49-.427-1.297-.924-1.794-1.105a9 9 0 0 0-1.897-.413m-146.16-5.53c-.023-.027-.442.267-.928.652-.49.387-1.105.9-1.367 1.138-.416.376-.467.537-.39 1.243.046.448.29 1.22.542 1.718.251.497.844 1.555 1.317 2.35.474.796 1.055 1.584 1.291 1.75.418.297.454.282 1.566-.632.627-.515 1.135-1.018 1.128-1.117-.006-.101-.223-.996-.485-1.99-.39-1.487-.665-2.093-1.552-3.434-.595-.895-1.1-1.65-1.121-1.678m96.17-3.464c-.596.004-1.366.107-1.713.232-.346.123-.834.492-1.085.817-.39.508-.455.78-.455 1.901 0 1.143.085 1.483.677 2.7.516 1.059 1.035 1.748 2.17 2.883.82.82 1.94 1.755 2.486 2.075.546.322 1.482.762 2.079.979.728.266 1.531.401 2.44.41 1.049.013 1.498-.064 1.977-.345.341-.199.79-.648.994-.995.267-.452.374-.947.374-1.73 0-.934-.12-1.337-.799-2.711-.629-1.267-1.094-1.906-2.173-2.97-.91-.901-1.826-1.595-2.724-2.065-.745-.39-1.76-.816-2.258-.948-.497-.13-1.393-.235-1.99-.233m147.887 5.197-2.838 2.84c.3.997.767 1.628 1.293 2.123.528.495 1.085.859 1.32.86.289.002 1.186-.81 3.119-2.818 2.139-2.226 2.653-2.855 2.44-2.982-.149-.088-.312-.159-.361-.157-.051.001-.411-.306-.802-.682-.39-.376-.85-.984-1.021-1.353l-.311-.667zM65.05-34.846c-.134 0-.392.148-.575.33-.182.18-.316.385-.298.452s.277 0 .575-.15c.298-.147.541-.352.542-.451 0-.1-.11-.181-.244-.181M17.884-43.88c-.026.004-1.266.638-2.757 1.413-1.491.773-3.265 1.727-3.942 2.119-.96.553-1.178.756-.994.911.13.113 1.375.812 2.766 1.559s3.202 1.692 4.022 2.104c.82.41 1.614.747 1.763.747s1.837-.931 3.752-2.07 3.602-2.142 3.751-2.228c.2-.117-.268-.441-1.808-1.255a247 247 0 0 0-4.294-2.202c-1.215-.606-2.23-1.1-2.26-1.098m54.67 1.983c.086 0 .561.367 1.058.814.855.77.926.799 1.31.54.225-.15.528-.27.678-.266s.417.147.594.318c.177.17.318.434.315.582-.006.149-.232.444-.998 1.035l1.346 1.768-.91.904-.717-.859c-.392-.472-.835-.858-.985-.858s-.56.143-1.552.633l-.88-1.085 1.347-1.145-.678-.875c-.634-.817-.66-.893-.38-1.19.163-.173.368-.316.453-.316m1.103 2.186c.212.522.192.588-.316 1.027-.35.305-.414.417-.18.32.198-.086.625-.181.948-.216.374-.04.588-.162.588-.333 0-.149.224-.436.497-.635.273-.2.423-.411.334-.467-.09-.056-.358.045-.596.227-.423.324-.447.323-.967-.075l-.533-.407zm-105.582-4.885c-.293.008-.941.343-1.58.82-.597.445-1.166.882-1.267.971-.117.105-.045.371.206.762.243.374.884.87 1.717 1.321.732.398 1.657.86 2.055 1.028.398.17.865.311 1.04.317.173.005.668-.253 1.099-.576.428-.324 1.079-.853 1.446-1.176.365-.324.66-.649.66-.723-.002-.075-.713-.598-1.582-1.16-.868-.563-1.965-1.152-2.437-1.31s-1.084-.281-1.357-.274m254.129 2.789c-.287-.496-.521-.782-.523-.633-.004.148.226.637.509 1.085.304.48.824.98 1.269 1.22.414.225.751.346.747.271-.003-.075-.337-.34-.743-.587-.445-.273-.944-.81-1.259-1.356m.852-2.08c-.138.001-.362.13-.497.287-.199.231-.205.41-.028.95.12.364.488.932.815 1.261.453.455.766.606 1.317.633.703.032.726.018.774-.599.037-.43-.085-.835-.375-1.266-.233-.348-.724-.775-1.089-.949-.366-.173-.778-.316-.917-.316"/></g></svg>