<svg xmlns="http://www.w3.org/2000/svg" fill="none" viewBox="0 0 32 32"><mask id="a" width="32" height="32" x="0" y="0" maskUnits="userSpaceOnUse" style="mask-type:alpha"><path fill="#d9d9d9" d="M0 0h32v32H0z"/></mask><g mask="url(#a)"><path fill="#e31e24" d="M-89.113 98.724c.52-.09 2.17-.125 3.66-.074 1.492.049 3.2.21 3.797.356.597.147 1.483.485 1.971.754.487.268 1.24.793 2.46 1.843l-.009-1.04c-.003-.835.071-1.112.384-1.401.33-.31.637-.362 2.077-.362 1.381 0 1.75.06 2.014.323.271.27.317.589.275 1.988-.025.916-.129 1.748-.228 1.847-.1.1-.18.283-.179.408.003.148.36.24 2.083.316l.04 5.875c.033 4.441-.013 5.932-.181 6.109-.124.13-.603.231-1.08.226-.473-.004-.9.074-.949.174-.05.099.035.282.189.407.222.179.278.628.271 2.169-.007 1.905-.018 1.951-.505 2.311-.396.292-.766.366-1.807.361-1.212-.006-1.353-.047-1.854-.548-.47-.468-.53-.64-.452-1.266.049-.397.049-.722 0-.722-.053.002-.601.409-1.22.907-.622.499-1.7 1.144-2.395 1.434-.696.289-1.796.612-2.442.717-.647.107-2.111.193-3.254.193-1.243-.002-2.552-.114-3.253-.282-.648-.154-1.706-.557-2.351-.897a13.4 13.4 0 0 1-2.169-1.492c-.548-.481-1.37-1.439-1.83-2.13-.46-.689-1.041-1.783-1.296-2.428-.253-.647-.55-1.663-.658-2.26a15 15 0 0 1-.195-2.214c0-.622.13-1.762.289-2.532.157-.77.551-1.97.875-2.666.325-.696.96-1.754 1.412-2.35s1.137-1.336 1.518-1.644a19 19 0 0 1 1.466-1.039 13 13 0 0 1 1.673-.843c.497-.198 1.33-.436 1.852-.528m10.43 16.715c-.247-.228-.342-.139-.806.771-.317.622-1.101 1.606-1.98 2.483-.808.808-1.936 1.716-2.538 2.047q-1.083.592-.543.462c.298-.071.868-.188 1.266-.26.397-.072.58-.141.407-.154-.175-.012-.277-.103-.227-.203.05-.099.558-.178 1.13-.178.6.001 1.192-.104 1.401-.25.335-.233.306-.25-.36-.228-.398.013-.746-.058-.773-.157-.026-.099.3-.205.723-.234.491-.032.813.033.886.181.085.17.326.083.904-.329a10 10 0 0 0 1.377-1.22c.322-.361.584-.841.58-1.065-.001-.224.16-.569.359-.768.2-.198.325-.422.278-.497-.05-.074-.474-.138-.945-.141-.484-.002-.981-.116-1.139-.26m-9.257-15.988c-.522.009-1.275.094-1.672.19-.398.094-1.253.43-1.898.748-.685.338-1.704 1.082-2.441 1.781-.895.848-1.489 1.616-2.02 2.621-.416.781-.898 1.95-1.073 2.597q-.319 1.173-.312 3.073c.006 1.502.1 2.181.446 3.254.242.745.813 1.965 1.268 2.712.457.745 1.268 1.744 1.803 2.222.535.477 1.582 1.177 2.329 1.556.924.47 1.728.735 2.53.831.646.075 1.42.083 1.718.014.54-.123.539-.124-.452-.578-.548-.249-1.43-.794-1.963-1.21s-1.278-1.162-1.658-1.659-.974-1.474-1.322-2.17c-.347-.696-.76-1.855-.918-2.576s-.285-1.861-.284-2.531.123-1.79.268-2.486.633-2.018 1.081-2.938c.622-1.271 1.112-1.967 2.04-2.9.722-.726 1.679-1.463 2.35-1.808.618-.32 1.127-.62 1.13-.67-.002-.05-.43-.084-.95-.073m2.667.624c-.316-.056-.883.038-1.356.226-.448.179-1.297.645-1.888 1.037-.59.394-1.362 1.064-1.717 1.489-.354.424-.95 1.278-1.322 1.898-.372.618-.854 1.777-1.071 2.572-.286 1.045-.393 1.924-.382 3.164.01 1.318.121 2.055.476 3.164.254.796.779 1.934 1.164 2.531.385.596 1.224 1.575 1.862 2.174.85.798 1.535 1.245 2.562 1.671l1.4.584c1.785-.927 2.796-1.704 3.537-2.44.898-.891 1.477-1.667 1.952-2.621.564-1.132.711-1.677.894-3.285l.217-1.931c-.854-.643-1.047-1.009-1.175-1.654-.1-.497-.181-1.393-.181-1.99 0-.596.1-1.285.226-1.529.198-.394.164-.534-.304-1.221-.291-.426-.942-1.181-1.446-1.68-.505-.497-1.366-1.164-1.912-1.483-.547-.318-1.237-.622-1.536-.676m12.023 16.895c-2.335 0-3.083.054-3.164.119-.083.068-.138.718-.121 1.447.025 1.131.075 1.327.346 1.327.275 0 .31-.163.272-1.266-.038-1.024.005-1.265.225-1.266.22 0 .263.241.227 1.266l-.045 1.266h2.26zm-6.778 1.627c.561 0 .794.071.753.226-.032.124-.396.246-.813.271-.569.034-.754-.022-.754-.225 0-.201.212-.272.814-.272m1.319-.649c.13.009.233.098.23.197-.007.099-.416.201-.915.227-.512.025-.905-.033-.906-.136 0-.1.306-.208.678-.242.372-.035.784-.055.913-.046m.669-.891c.1.018.18.148.18.289 0 .186-.238.257-.858.257-.47 0-.86-.082-.864-.181s.302-.23.677-.29.765-.093.865-.075m.11-.991c.505 0 .703.076.703.271 0 .206-.23.273-.949.279-.842.007-.922-.024-.703-.272.143-.161.543-.278.95-.278m3.211-.325c-.543-.029-1.058.005-1.146.075-.086.07-.145.198-.128.279.017.083.56.151 1.206.152.849 0 1.158-.064 1.115-.226-.037-.137-.449-.248-1.047-.28m3.276-11.245c-5.75 0-6.707.061-6.86.225-.118.125-.172.471-.12.769.05.298.226 1.111.389 1.807.211.906.27 1.753.206 2.984-.051.943-.224 2.205-.387 2.801s-.251 1.268-.197 1.493c.097.402.122.406 3.535.406h3.434zm-5.344.236c.13.043.193 1.671.193 5.019 0 4.579-.024 4.957-.316 5.002-.295.043-.318-.303-.347-4.893-.016-2.715.04-4.993.124-5.067a.41.41 0 0 1 .346-.061m-2.592.928c-.09-.056-.164.371-.166.949-.002.576.09 1.416.207 1.862.148.569.318.833.573.884.336.067.352.012.216-.812a21 21 0 0 0-.407-1.834c-.143-.521-.334-.993-.423-1.049m-4.99-6.149c.198.159.42.287.497.285.074-.002.521.259.995.577.472.32 1.25.951 1.731 1.401.481.452 1.127 1.229 1.436 1.726s.589.944.622.996c.033.047.181-.095.327-.317.212-.323.436-.407 1.081-.407.447 0 .854-.081.904-.181.048-.1-.48-.751-1.175-1.446-.696-.696-1.347-1.266-1.447-1.266-.099.001-.14.082-.09.181s-.094.229-.316.289c-.224.06-.672.06-.994 0-.324-.06-.588-.19-.588-.289.001-.099.385-.177.858-.174.774.007.832-.019.588-.274-.186-.192-.67-.295-1.522-.324-.818-.027-1.272-.121-1.31-.267-.037-.137.137-.237.437-.255.273-.014.008-.082-.588-.148-.597-.067-1.248-.185-1.446-.26l-.362-.137zm9.48 3.538c-1.22 0-1.266.017-1.084.362.163.305.35.354 1.23.316.827-.036 1.045-.109 1.084-.361.04-.277-.118-.317-1.23-.317m-3.534-.142c.511.029.93.15.978.278.057.162-.202.226-.935.226-.559 0-1.054-.062-1.103-.136-.046-.074-.03-.201.038-.278.07-.08.529-.121 1.022-.09m5.173-3.293c-2.334 0-3.082.054-3.164.119-.083.067-.138.678-.121 1.356.016.679.09 1.27.166 1.315.074.043.217.023.316-.046.1-.067.18-.631.18-1.253 0-.633.08-1.128.181-1.128.102 0 .182.514.182 1.176v1.173h2.26zm-6.077 2.208c.511.029.931.15.978.278.058.163-.202.226-.935.226-.559 0-1.054-.062-1.103-.136-.047-.074-.03-.201.038-.278.07-.08.529-.121 1.022-.09m5.536-2.028c.1.001.18.484.18 1.085 0 .602-.08 1.084-.18 1.085-.101-.001-.18-.483-.18-1.085 0-.601.079-1.084.18-1.085m-8.09-51.886c.174 0 .724.203 2.124.904v10.485l.542.272c.298.148.695.577.88.949.3.6.609.806 2.668 1.793 1.282.615 2.715 1.286 4.046 1.868v2.712l-.769.622c-.423.342-2.03 1.665-3.57 2.94a4846 4846 0 0 0-7.097 5.887c-2.359 1.96-4.433 3.567-4.61 3.573-.173.004-2.067-.987-4.203-2.2l-6.328-3.59.02-12.798 3.74-3.163c2.06-1.739 5.654-4.759 7.992-6.71 2.335-1.948 4.39-3.544 4.565-3.544m9.49 17.361c-.028.007-.657.52-1.402 1.144-.745.626-3.104 2.584-5.242 4.352s-4.882 4.04-6.097 5.048c-2.037 1.69-2.211 1.884-2.224 2.466-.01.585.011.612.304.361.175-.15 2.516-2.103 5.205-4.34 2.69-2.239 5.931-4.923 7.202-5.967 2.112-1.73 2.313-1.947 2.306-2.484-.004-.322-.028-.584-.053-.58m-20.656 9.815c-.1-.018-.405.064-.678.181-.484.208-.428.251 2.35 1.84 1.565.894 2.948 1.647 3.074 1.673.143.028.224-.17.222-.543-.004-.569-.083-.63-2.396-1.853-1.316-.696-2.472-1.28-2.572-1.298m15.096-12.89c-.05.01-.342.275-.647.592a21 21 0 0 1-1.07 1.03c-.281.25-.803.68-1.16.958-.357.276-.892.708-1.19.958l-2.713 2.256c-1.193.992-2.535 2.12-2.983 2.508s-1.22 1.041-1.717 1.452a87 87 0 0 0-1.56 1.325c-.362.318-.85.705-1.085.862-.427.284-.419.292 1.199 1.157a96 96 0 0 1 2.35 1.294l.723.423c4.064-3.397 6.496-5.41 8.027-6.664 1.532-1.254 3.748-3.073 4.926-4.044l2.143-1.763c-1.752-.806-2.91-1.335-3.706-1.699-.796-.363-1.487-.652-1.537-.645m97.628-14.182a6.2 6.2 0 0 1 2.125-.193c.622.049 1.333.17 1.582.27.248.099.513.306.587.457.1.201-.395.805-1.811 2.214-1.81 1.804-1.938 1.977-1.826 2.48.065.299.187.706.266.905.082.199.293.545.47.771.192.24.736.52 2.314.939l1.898-1.91c1.327-1.331 2.004-1.888 2.248-1.847.25.042.421.32.597.962.144.533.215 1.423.17 2.17a6.5 6.5 0 0 1-.596 2.419 6.2 6.2 0 0 1-1.47 2.034c-.522.484-1.336 1.059-1.807 1.277-.671.313-1.273.413-4.656.523l-2.35 2.647a3730 3730 0 0 1-3.893 4.375c-.848.953-2.683 3.072-4.08 4.713-1.994 2.343-2.7 3.052-3.294 3.3-.415.173-.938.316-1.162.314-.224 0-.713-.08-1.085-.18-.372-.098-.936-.404-1.25-.677-.317-.273-.722-.822-.901-1.22-.18-.397-.325-1.088-.325-1.537s.14-1.113.312-1.48c.17-.368 2.434-2.971 5.025-5.785 2.593-2.815 5.44-5.92 6.329-6.9.887-.977 1.678-1.953 1.758-2.169.082-.213.065-.838-.036-1.384a6.8 6.8 0 0 1-.032-1.988c.081-.546.305-1.36.497-1.807.19-.449.708-1.207 1.151-1.688s1.131-1.065 1.529-1.298 1.169-.551 1.717-.707m104.046.571c.199-.052.606-.053.904 0 .298.05.786.212 1.085.36.298.149.814.527 1.146.838.331.312.772.893.977 1.29.206.398.38 1.066.389 1.483.015.636-.086.872-.63 1.446-.638.675-.647.7-.421 1.41.126.398.237 1.007.246 1.356.014.497-.12.769-.622 1.266-.351.347-.636.796-.631.995.003.22-.581.94-2.986 3.307l-1.536.147c-1.448.137-1.571.183-2.123.787-.321.352-.585.72-.586.82 0 .1-.657.832-1.46 1.627-.802.796-2.859 2.937-4.567 4.757-3.059 3.261-3.117 3.31-3.789 3.254-.649-.052-.751.019-3.517 3.018l-.972-.013c-.537-.007-1.238-.148-1.562-.316-.324-.167-.935-.65-1.36-1.073s-.963-1.175-1.197-1.672c-.318-.68-.405-1.137-.356-1.847.063-.915.113-.99 1.646-2.532 1.335-1.34 1.582-1.677 1.582-2.174.002-.52.489-1.097 4.196-4.972 2.307-2.412 4.747-4.914 6.652-6.734l.002-2.351 1.671-1.672c1.227-1.229 1.79-1.67 2.124-1.669.248.002.777-.239 1.175-.537s.845-.545.995-.55c.149-.006.659.195 1.988.903l.588-.43c.324-.236.751-.471.949-.522m-57.322.5.216.813c.117.448.256 1.016.31 1.265.08.377.287.507 2.378 1.098l.873-.82c.48-.45.968-.815 1.085-.814.118.005.925.534 1.793 1.175.867.642 1.578 1.228 1.582 1.305 0 .074-.213.624-.95 2.306l1.222 1.934 1.31-.108c1.134-.094 1.333-.065 1.474.208.089.174.363 1.05.61 1.943.436 1.58.44 1.645.132 2.26-.231.464-.56.74-1.24 1.039-.895.392-.93.433-.93 1.13 0 .687.052.756 1.082 1.401.649.406 1.084.804 1.085.994.002.174-.19.825-.424 1.447a29 29 0 0 1-.995 2.26c-.374.745-.676 1.128-.884 1.126-.174-.002-.805-.126-1.402-.276-.97-.246-1.126-.245-1.49.003-.225.152-.409.378-.41.503 0 .124.123.592.275 1.04.235.69.243.924.042 1.536-.222.682-.35.777-4.202 2.65l-.417-.42a8.6 8.6 0 0 1-.813-1.007c-.378-.56-.452-.588-2.747-.597l-.542 1.09c-.298.599-.623 1.12-.723 1.162-.1.038-1.076-.217-2.17-.566-1.094-.35-2.097-.728-2.23-.84-.164-.143-.203-.432-.123-.929.061-.398.15-.928.198-1.176.072-.377-.07-.566-1.822-1.863l-1.266.402c-.696.222-1.366.357-1.491.301-.125-.058-.715-.858-1.313-1.777-.596-.92-1.084-1.793-1.083-1.944.002-.15.125-.597.275-.995.164-.432.491-.849.813-1.039.499-.293.532-.373.427-1.085-.06-.422-.13-.81-.155-.858-.027-.05-.558-.296-1.18-.543-.621-.25-1.178-.534-1.234-.633-.056-.1-.085-.546-.063-.994.022-.449.139-1.538.262-2.424.173-1.261.3-1.66.584-1.839.2-.126.882-.224 1.537-.217 1.079.01 1.187-.024 1.33-.422.12-.337.034-.627-.4-1.335-.486-.792-.54-1.004-.426-1.707.115-.719.277-.928 1.575-2.04.794-.678 1.546-1.233 1.672-1.23.124.004.673.33 1.22.729.752.545 1.116.7 1.492.637.273-.047.583-.19.69-.316.109-.127.3-.597.427-1.045.126-.449.344-1.081.481-1.406l.251-.593zm-95.477.157c.341-.15.866-.212 1.297-.154.397.055 1.17.32 1.717.59.588.291 1.547 1.045 2.35 1.848.744.744 1.538 1.72 1.76 2.169.223.448.458 1.097.525 1.446.07.372.03.858-.102 1.176-.124.298-.583.847-1.022 1.22-.573.486-.966.676-1.387.672-.323-.003-1.036-.164-1.582-.356-.547-.191-1.055-.353-1.13-.356-.075-.002-1.99 2.172-4.254 4.83-2.265 2.66-5.39 6.343-9.766 11.526l-2.368 1.31c-1.302.72-2.447 1.268-2.55 1.221-.098-.049-.18-.211-.18-.361 0-.151.46-1.433 2.04-5.424l2.378-2.803c1.31-1.54 4.05-4.794 6.091-7.231 2.043-2.437 4.073-4.878 5.31-6.418l-.35-.724a5.2 5.2 0 0 1-.42-1.536c-.061-.688.016-.934.499-1.603.315-.436.83-.905 1.144-1.042m131.263 20.712c-1.234 1.248-1.397 1.487-1.365 2.024.02.334.183.933.362 1.331s.624 1.03.991 1.401c.364.374.889.79 1.162.927s.782.307 1.13.378c.605.123.68.076 1.781-1.108l1.149-1.237c-1.08-.309-1.637-.522-1.935-.673s-.849-.612-1.221-1.022c-.372-.409-.676-.847-.674-.972.003-.123.21-.428.461-.677l.459-.453-.896-1.337zM21.393 48.636c-.831.01-1.607.146-2.26.4-.628.244-1.335.723-1.92 1.301-.65.642-1.047 1.24-1.33 2-.355.954-.389 1.291-.286 2.802.07.985.044 1.911-.055 2.17-.096.25-.894 1.228-1.773 2.177-.879.947-3.223 3.509-5.212 5.692a551 551 0 0 1-4.903 5.326c-1.068 1.126-1.312 1.498-1.426 2.172-.114.672-.063.967.293 1.695.239.485.676 1.03.974 1.215.31.19.89.336 1.356.34.474.001 1.016-.13 1.3-.312.268-.174 1.853-1.896 3.526-3.823 1.67-1.928 3.404-3.933 3.852-4.454.447-.522 1.891-2.178 3.21-3.68 1.317-1.503 2.578-2.787 2.802-2.856.225-.067 1.179-.132 2.124-.144 1.468-.018 1.847-.09 2.62-.489.498-.258 1.278-.864 1.731-1.346.52-.552.957-1.252 1.172-1.875.213-.611.347-1.493.349-2.288.002-.712-.06-1.363-.138-1.447-.079-.082-.934.642-1.898 1.61-1.313 1.315-1.871 1.76-2.21 1.75-.249-.005-.867-.146-1.373-.314-.588-.193-1.123-.535-1.472-.938-.3-.347-.638-.958-.748-1.356-.11-.397-.201-.905-.203-1.13 0-.27.577-.998 1.716-2.17.945-.968 1.656-1.825 1.582-1.903-.075-.076-.704-.134-1.4-.125M60.323 74.3c-.065.002-.168.126-.226.276-.057.147-.045.304.03.346s.828.291 1.674.555c1.227.383 1.562.43 1.668.241.073-.132.135-.28.14-.329.002-.051-.707-.317-1.579-.592-.873-.275-1.64-.497-1.707-.497m102.632-24.383c.696-.012 1.956.096 2.802.245.844.146 2.106.464 2.802.705.696.242 2.161.84 3.254 1.332 1.094.49 2.212.947 2.487 1.012.273.067.826.427 1.231.8.403.372.869 1.042 1.039 1.49.217.577.302 1.339.293 2.623-.011 1.294-.128 2.218-.421 3.253-.224.796-.787 2.179-1.25 3.074-.578 1.119-1.21 2.002-2.02 2.828-.949.967-1.371 1.26-2.172 1.502-.754.227-1.148.258-1.627.123-.349-.098-1.326-.485-2.17-.863-1.231-.549-1.754-.685-2.621-.683-.75.002-1.307.12-1.808.384-.398.21-.899.571-1.11.804-.214.234-.651.953-.975 1.6-.322.645-.804 1.5-1.072 1.898-.266.398-.58.968-.695 1.266-.116.298-.437.76-.711 1.03a4.5 4.5 0 0 1-1.177.769 4.6 4.6 0 0 1-1.446.278c-.423-.002-1.176-.112-1.673-.244s-1.434-.502-2.079-.824a15.5 15.5 0 0 1-2.152-1.338 14 14 0 0 1-1.74-1.66 17 17 0 0 1-1.314-1.808 10 10 0 0 1-.858-1.988c-.206-.727-.269-1.353-.189-1.899.067-.464.475-1.433.952-2.26.461-.795 1.034-1.976 1.278-2.621.243-.648.648-1.582.901-2.08.253-.497.804-1.391 1.225-1.988.423-.596 1.376-1.654 2.119-2.35.745-.696 1.995-1.644 2.78-2.107a21 21 0 0 1 3.009-1.4c.87-.31 2.09-.633 2.712-.72.62-.087 1.7-.168 2.396-.183m-91.03 24.226c-.15.002-.756.212-1.347.467-.593.255-1.06.533-1.04.62s.096.153.172.15c.074-.006.663-.286 1.31-.624.646-.34 1.053-.615.905-.613m-4.167-1.432c-.046.019-.534.064-1.085.1-.622.042-1.12.182-1.313.374-.171.168-.311.365-.31.441.004.074.595.132 1.315.128l1.312-.007c.84 1.142 1.143 1.471 1.22 1.468.073-.005.175-.13.226-.278.048-.15-.22-.72-.597-1.266-.377-.547-.724-.979-.768-.96M-80.165 60.026c-.224.003-.54.09-.7.195-.161.105-.384.388-.498.628-.115.248-.36.438-.566.438-.198 0-.357.1-.353.225.003.125.146.329.316.455.25.185.215.185-.178 0-.413-.195-.555-.182-.949.087-.254.173-.462.397-.463.497 0 .1.082.22.18.272.1.048.182.172.182.271 0 .103-.214.134-.498.07-.374-.083-.632.005-1.039.348l-.542.46c.77.299 1.033.469 1.084.568.05.1-.187.038-.527-.135-.597-.304-.64-.303-1.13.031-.289.197-.414.373-.286.406.125.033.226.121.227.195 0 .075-.238.136-.529.136-.318 0-.712.18-.992.452l-.465.453c1.116.91 1.442 1.255 1.443 1.355 0 .1-.264-.02-.587-.266-.324-.245-.832-.451-1.13-.459-.304-.005-.778.172-1.078.402l-.534.414c.663.139.904.298.962.44.087.214-.025.238-.616.131-.526-.096-.835-.056-1.13.147-.365.247-.38.309-.141.592.148.174.269.378.271.453.003.073-.24.053-.537-.046-.432-.145-.633-.116-.99.135-.245.174-.446.378-.45.453-.004.074.177.305.4.511.371.343.375.365.046.247a9 9 0 0 0-.724-.215c-.199-.048-.544.003-.768.115-.224.11-.448.383-.498.607-.05.214-.236.41-.48.516l-.217.078c-.263.105-.6.316-.8.504a1.33 1.33 0 0 0-.406.981c.004.324.087.75.187.95.1.198.424.442.723.541q.54.18.994 0c.247-.099.676-.466.949-.813.273-.349.618-.63.768-.627.149.004.412-.14.582-.316.172-.177.315-.423.317-.548.004-.125.29-.35.638-.497.348-.15.723-.455.832-.679.11-.224.148-.61.087-.858l-.114-.452.708.904c.728-.701.975-1.027 1.019-1.175.041-.15.323-.333.625-.407.33-.082.676-.35.866-.676.174-.298.46-.543.633-.543.173-.002.504-.226.733-.499.23-.273.577-.584.769-.692s.493-.453.667-.769c.173-.314.356-.49.407-.392q.09.18.452 0c.199-.099.443-.385.542-.632.109-.271.325-.452.542-.453.199 0 .525-.204.724-.452s.401-.452.452-.452c.049 0 .253-.205.452-.452.199-.249.462-.45.587-.446.125.003.367-.14.537-.317.172-.177.315-.585.316-.909q.004-.588-.446-1.04c-.25-.25-.634-.45-.858-.446M5.093 71.405c.554-.002.853.105 1.135.407.21.228.429.617.487.864.057.25-.013.716-.156 1.04-.142.323-.423.668-.622.768s-.606.18-.904.18q-.542 0-1.084-.541c-.334-.335-.55-.746-.564-1.07-.013-.339.155-.731.467-1.086.396-.452.63-.557 1.24-.562m-34.594-16.416c-.083-.034-.217.07-.3.231a.42.42 0 0 0 .078.514c.127.12.227.32.226.445 0 .125-.126.226-.274.226-.15 0-.332-.125-.406-.279-.103-.209-.512.175-1.685 1.582-.853 1.024-2.678 3.202-4.055 4.843-1.378 1.64-3.562 4.244-4.85 5.786-2.332 2.784-2.345 2.806-2.137 3.39.151.43.153.623.006.723-.112.074-.27.012-.352-.136-.083-.15-.18-.23-.219-.18-.036.048-.285.598-.55 1.22-.268.621-.487 1.19-.489 1.266-.002.073.262-.118.587-.427.325-.308.734-.613.908-.678.173-.063.314-.217.313-.342-.002-.124.099-.322.225-.437.175-.163.377-.147.863.066l.632.277c.841-1.06 2.26-2.76 3.695-4.458a1221 1221 0 0 1 5.242-6.149 804 804 0 0 0 3.674-4.294l1.04-1.231c-1.568-1.472-2.09-1.926-2.172-1.958m179.18 8.51c-1.088-.038-1.51.028-2.048.317-.373.199-.789.585-.924.858a6 6 0 0 0-.358.95c-.063.249.011.94.164 1.536.152.596.49 1.451.75 1.898.261.448 1.01 1.369 1.665 2.047.654.676 1.677 1.548 2.274 1.936.596.387 1.572.879 2.169 1.092.596.214 1.533.394 2.079.402.682.009 1.179-.097 1.578-.335.322-.194.762-.676.979-1.074.323-.594.372-.897.278-1.717-.067-.568-.394-1.574-.767-2.351-.481-.998-.995-1.692-1.949-2.63-.962-.947-1.71-1.482-2.907-2.079-1.424-.709-1.775-.81-2.983-.85M62.523 52.246c-1.05.434-1.732.7-2.19.869l-.832.306c-1.37-1.177-1.85-1.523-1.954-1.529-.102-.003-.691.4-1.31.896l-1.126.905 1.486 2.26-1.33 2.53-2.777.181c-.356 2.363-.357 2.749-.205 2.85.112.076.733.3 1.38.5l1.175.36c.462 1.889.647 2.58.705 2.754.074.215-.081.486-.479.842-.323.29-.776.677-1.006.86l-.417.332 1.85 2.712 2.42-1.033 2.983 2.208c-.197 1.33-.256 1.91-.261 2.148-.01.381.15.475 1.437.858.795.237 1.547.43 1.672.43s.401-.47.616-1.04c.213-.571.438-1.091.497-1.154s.82-.165 1.689-.226l1.582-.112c1.19 1.69 1.637 2.179 1.762 2.176s.754-.251 1.402-.55c.645-.298 1.177-.603 1.177-.677 0-.076-.163-.624-.364-1.22l-.368-1.085 2.267-2.3c1.957.576 2.54.727 2.556.71.014-.023.277-.629.587-1.348.53-1.233.545-1.325.246-1.558a15 15 0 0 0-1.085-.724l-.767-.475.09-2.967c1.675-.695 2.19-.902 2.223-.91.03-.005-.114-.68-.316-1.501l-.37-1.492h-2.712l-1.67-2.44c.619-1.401.832-1.93.874-2.08.047-.17-.34-.573-1.043-1.085-.615-.446-1.204-.84-1.312-.875-.108-.033-.578.331-1.046.814l-.853.875c-1.621-.61-2.316-.834-2.589-.89-.442-.092-.518-.22-.688-1.144-.105-.57-.228-1.14-.272-1.265-.056-.157-.568-.227-1.707-.227h-1.627zM-42.129 73.4c-.184 0-.455.141-.604.316-.15.174-.323.418-.388.543-.065.123.206.042.603-.18.396-.225.721-.47.723-.543 0-.076-.15-.136-.334-.136m-55.346-5.474-.013 5.745c.818.403.827.385.96-.97.076-.76.14-3.311.145-5.668l.006-4.29-1.085-.56zm102.626 4.21c-.235 0-.566.14-.736.316a.76.76 0 0 0-.206.722c.056.222.264.489.463.588.198.1.524.139.723.09s.443-.253.542-.451c.132-.264.107-.487-.09-.814-.166-.278-.436-.452-.696-.452m108.368-9.037c-.242.09-.417.25-.392.358.027.106-1.139 1.45-2.589 2.988-2.601 2.758-2.636 2.807-2.591 3.56.043.728.084.78.859 1.063.448.166.813.412.814.548 0 .135-.164.27-.362.297-.2.028-.727-.135-1.175-.363-.665-.336-.83-.519-.905-1.007l-.089-.596-1.99 1.97c.841.51 1.411.718 1.809.79.398.075 1.149.138 1.672.142l.949.007a336 336 0 0 1 5.283-5.514l2.311-2.35c-1.472-.613-2.163-1.081-2.487-1.434-.323-.354-.607-.64-.632-.633-.026.006-.243.086-.485.174m37.009 2.167c.533.002 1.212.172 1.805.452.522.248 1.404.877 1.963 1.4.556.522 1.204 1.275 1.437 1.672.232.398.479 1.05.55 1.447.083.477.041.925-.127 1.32-.161.379-.484.701-.886.882a2.8 2.8 0 0 1-1.355.206c-.398-.044-1.211-.317-1.808-.608-.596-.29-1.45-.898-1.898-1.348s-1.016-1.225-1.264-1.72c-.293-.586-.452-1.208-.452-1.775-.002-.76.076-.944.589-1.402.477-.426.754-.528 1.446-.526m-92.84 4.52c-.077 0-.543.188-1.04.418-.497.227-.966.553-1.04.721-.076.168-.075.307 0 .309.074.002.543-.168 1.04-.38l.903-.38c1.401 1.037 1.95 1.411 2.125 1.5.24.123.336.075.407-.201.07-.286-.162-.535-1.085-1.175-.647-.448-1.237-.813-1.31-.811m91.518-3.315c-.078.066-.128.37-.11.676s.212.924.429 1.372c.219.447.767 1.186 1.219 1.642s1.146.996 1.544 1.202c.397.206 1.008.432 1.355.503.349.072.857.079 1.13.017.273-.061.498-.191.498-.29 0-.1-.102-.138-.226-.084-.126.054-.673-.068-1.22-.272a9.3 9.3 0 0 1-1.854-1.004c-.471-.347-1.06-.895-1.307-1.217-.246-.324-.643-1.056-.882-1.625-.24-.571-.498-.984-.576-.92m13.566-15.827c-.397.01-1.211.092-1.807.179-.597.086-1.533.29-2.08.447-.547.16-1.605.57-2.35.916-.747.345-1.844.979-2.441 1.405-.596.425-1.614 1.345-2.259 2.044-.647.698-1.44 1.707-1.762 2.24-.322.536-.873 1.664-1.226 2.508-.352.846-.744 1.74-.871 1.989l-.229.452c2.332-.12 3.022-.047 3.725.177.546.174 1.523.607 2.17.963.649.358 1.743 1.217 2.448 1.924.699.701 1.551 1.763 1.891 2.36.34.596.75 1.573.911 2.17l.293 1.083c1.329-2.671 1.841-3.418 2.322-3.823.397-.336 1.088-.734 1.537-.883.446-.148 1.138-.265 1.536-.261s1.17.162 1.718.35c.543.187 1.009.326 1.039.312.025-.019-.068-.318-.209-.666-.141-.347-.313-1.12-.382-1.717-.072-.624-.031-1.7.094-2.531.121-.796.423-2.016.672-2.712.248-.696.707-1.75 1.02-2.343s.982-1.528 1.486-2.08c.505-.55 1.279-1.18 1.718-1.4l.799-.402c-1.962-.868-3.224-1.366-4.068-1.662-.847-.298-2.311-.66-3.254-.8-.946-.143-2.043-.25-2.441-.239m-48.541 6.342c-.119-.41-.125-.408-.73.19-.457.45-.602.738-.572 1.137.024.293.205.898.406 1.347.198.446.358.934.354 1.085-.005.148-.232.497-.503.772-.271.276-.636.499-.809.497s-.413.18-.529.403c-.116.226-1.235 1.49-2.485 2.81-1.764 1.862-2.365 2.39-2.678 2.35-.345-.045-.405.033-.407.535-.004.437-.235.866-.907 1.673-.497.596-.904 1.165-.904 1.265s.061.184.135.188c.074.003 1.825-1.705 3.888-3.797s3.872-4.047 4.022-4.346c.201-.401.472-.595 1.04-.745.423-.112.89-.29 1.04-.392.2-.138.412-.09.813.188.298.208.907.544 1.356.748.446.206.955.376 1.129.378s.541-.186.814-.417l.498-.422a11.7 11.7 0 0 1-2.367-1.905c-.604-.626-1.41-1.588-1.791-2.134-.382-.548-.748-1.18-.813-1.408m-194.848-6.892c-.075.008-1.236.946-2.577 2.085a2352 2352 0 0 1-7.447 6.268l-5.006 4.196c-.018 7.042.044 8.587.16 8.588.1 0 .567-.33 1.038-.73.472-.402 1.712-1.442 2.757-2.311 1.043-.87 2.182-1.779 2.532-2.02.347-.242.843-.645 1.1-.898.256-.253 1.09-.948 1.854-1.544s1.755-1.43 2.2-1.853c.447-.424 1.037-.879 1.31-1.016.272-.136.624-.441.782-.678.157-.237.546-.552.866-.702l.58-.27c-.01-7.067-.075-9.118-.15-9.115m230.954 15.713c-.062 0-.155.082-.209.18-.054.1-.022.486.072.86.094.373.461 1.063.813 1.536.353.472.988 1.093 1.411 1.38s1.093.653 1.491.817c.397.163.947.295 1.221.294.272-.002.476-.097.452-.209-.026-.112-.413-.298-.86-.412-.446-.115-1.18-.46-1.627-.765-.446-.304-1.05-.831-1.34-1.167-.289-.338-.702-1.044-.919-1.565-.217-.522-.444-.949-.505-.949m-97.124 2.168c-.049 0-.089.061-.085.135.003.076.268.613.588 1.195.32.584.726 1.194.903 1.357.275.253.322.255.318.024-.005-.15-.372-.82-.82-1.491-.447-.67-.854-1.22-.904-1.22m21.15 1.151c-.1-.037-.285.095-.408.293-.21.344-.159.378.864.591.599.123 1.13.185 1.18.136.051-.05.09-.179.086-.29-.004-.108-.353-.3-.774-.428-.42-.126-.847-.262-.949-.302m77.303-2.964c-.242-.129-.354-.129-.362 0-.005.103.133.484.306.847.174.362.683.99 1.13 1.393.446.401 1.159.878 1.582 1.057.422.179.808.303.86.28.051-.025.031-.199-.045-.385-.076-.188-.381-.437-.679-.555-.299-.117-.9-.535-1.335-.925-.436-.391-.863-.895-.949-1.118-.087-.224-.315-.491-.508-.594m-41.238-5.904a233 233 0 0 1-4.001 4.239c-1.833 1.89-2.322 2.5-2.322 2.892 0 .273.163.76.362 1.084s.423.592.498.596c.074.005.225-.097.336-.227.11-.128.191-.49.18-.802a1.4 1.4 0 0 1 .342-.955c.199-.21.524-.387.723-.387.226 0 1.136-.814 2.441-2.186 1.143-1.204 2.222-2.42 2.396-2.706.173-.285.459-.517.632-.514.174.004.46-.158.633-.36.257-.3.277-.444.109-.775a10 10 0 0 1-.431-1.074l-.221-.666zm63.462-6.255a2.4 2.4 0 0 0-.939.045 5.5 5.5 0 0 0-.995.412c-.279.154-.911.714-1.404 1.247-.557.602-1.188 1.588-1.664 2.597-.421.895-.889 2.155-1.043 2.802-.151.645-.278 1.866-.282 2.712-.002.873.11 1.887.26 2.35.146.447.514 1.078.815 1.402.456.486.684.587 1.321.584a3.2 3.2 0 0 0 1.491-.427c.398-.233 1.11-.862 1.582-1.397.472-.537 1.117-1.463 1.432-2.06a19 19 0 0 0 .994-2.35c.231-.696.51-1.877.619-2.622.143-.987.14-1.65-.008-2.44-.11-.597-.342-1.32-.512-1.61a3.3 3.3 0 0 0-.762-.84c-.25-.174-.657-.356-.905-.405M65.01 56.42c.125-.007.654.079 1.176.189a9.3 9.3 0 0 1 1.808.633c.472.236 1.19.775 1.595 1.198.404.423.891 1.093 1.083 1.491s.422 1.172.512 1.718c.102.602.102 1.334.002 1.853-.09.472-.358 1.245-.593 1.717s-.744 1.138-1.13 1.48a7.5 7.5 0 0 1-1.514.992c-.618.282-1.185.372-2.35.374-1.288.002-1.699-.074-2.532-.474-.546-.26-1.348-.788-1.782-1.175-.443-.392-1.02-1.175-1.316-1.784-.291-.596-.577-1.533-.637-2.079a5.3 5.3 0 0 1 .172-1.99c.153-.545.555-1.358.893-1.807s1.01-1.058 1.495-1.356a7.2 7.2 0 0 1 1.887-.754c.553-.116 1.106-.216 1.231-.226m-.044 2.769c-.507-.038-1.263.05-1.718.2a7 7 0 0 0-1.513.767c-.385.275-.893.825-1.126 1.222-.235.398-.426.967-.427 1.265 0 .298.168.908.374 1.356.205.447.63 1.127.944 1.51.347.423 1.038.922 1.748 1.262.947.454 1.403.562 2.35.56.859-.001 1.438-.122 2.152-.446.537-.246 1.249-.75 1.582-1.123.457-.513.605-.845.607-1.356.002-.375-.116-1.084-.259-1.581-.16-.563-.562-1.248-1.055-1.809-.515-.586-1.143-1.055-1.776-1.332-.538-.235-1.386-.457-1.883-.495m107.977-2.783c.412 0 .749.161 1.13.543.394.394.557.744.595 1.28.029.408.02 1.201-.02 1.764s-.269 1.553-.512 2.198c-.242.645-.721 1.562-1.065 2.034s-.889 1.022-1.213 1.22c-.323.198-.851.36-1.175.362-.363 0-.75-.156-1.012-.407-.235-.225-.519-.733-.633-1.13a6.3 6.3 0 0 1-.204-1.446c.002-.398.123-1.231.269-1.853.148-.622.432-1.456.631-1.853a7.8 7.8 0 0 1 .949-1.387c.324-.363.832-.811 1.13-.992.298-.183.807-.331 1.13-.333m.165.725c-.085-.001-.085.182 0 .406.083.223.143 1.016.132 1.762-.015 1.052-.136 1.636-.543 2.617-.309.749-.871 1.65-1.381 2.215-.786.873-.824.953-.437.953.24 0 .69-.267 1.039-.618.339-.34.837-1.052 1.106-1.582.268-.53.615-1.452.769-2.049.155-.596.282-1.39.282-1.762-.002-.375-.089-.902-.197-1.175-.107-.275-.289-.556-.407-.631a.9.9 0 0 0-.363-.136m-.843.179c-.099 0-.192.06-.203.136-.012.075-.003.542.019 1.039.023.497-.096 1.392-.268 1.99-.17.596-.472 1.409-.671 1.807a6.4 6.4 0 0 1-.93 1.31c-.383.396-.508.65-.387.777.123.125.438-.093.985-.681.443-.476 1.006-1.313 1.252-1.858.284-.633.478-1.458.532-2.26.047-.696.032-1.49-.033-1.763-.063-.274-.196-.497-.296-.497m-57.153 5.422c-.11 0-.166.103-.123.225.043.125.481.449.971.72s1.156.495 1.479.497.587-.056.587-.132c0-.074-.244-.155-.542-.18s-.868-.209-1.265-.407c-.398-.2-.763-.443-.814-.543a.36.36 0 0 0-.293-.18m-62.025-.154c-1.009-.302-1.12-.305-1.093-.045.018.171.474.473 1.121.74.6.25 1.153.393 1.227.32s.075-.258 0-.408-.64-.423-1.255-.607m118.238-4.364c-.07 0-.161.06-.202.136-.044.076-.136.543-.206 1.04a8.3 8.3 0 0 1-.521 1.783c-.215.486-.495.975-.624 1.085-.13.113-.228.407-.22.657l.014.452a8.4 8.4 0 0 0 1.22-1.899c.249-.547.503-1.502.56-2.124.058-.62.048-1.13-.021-1.13m-106.36-.895c-.596.009-1.41.138-1.807.286-.398.15-.96.448-1.251.665s-.743.721-1.009 1.12l-.481.723c1.422-.93 2.244-1.317 2.741-1.461.497-.143 1.29-.26 1.763-.259.471 0 1.285.16 1.807.35.53.196 1.377.737 1.915 1.221.532.48 1.183 1.3 1.447 1.823.262.52.493.926.511.904.017-.025-.045-.435-.135-.906-.093-.474-.32-1.165-.505-1.538-.187-.374-.776-1.067-1.31-1.544-.536-.476-1.339-.986-1.787-1.132-.447-.147-1.302-.26-1.898-.252M-80.66 61.115c.15 0 .415.14.592.312.178.17.318.474.3 1.034l-.198-.361a2.8 2.8 0 0 0-.582-.675c-.28-.227-.309-.31-.112-.31m-.733-12.24c-.51-.194-.606-.16-1.312.466-.419.371-3.041 2.58-5.826 4.908a3429 3429 0 0 1-6.815 5.681c-.959.794-1.752 1.487-1.765 1.537-.008.051.231.192.533.317.543.224.575.203 3.03-1.899A1010 1010 0 0 1-86 53.542c2.786-2.32 5.088-4.273 5.113-4.339.024-.067-.204-.215-.507-.329M116.08 52.28l-1.09 1.14-.164 3.255c1.43 2.072 2.354 3.15 2.976 3.732s1.229 1.06 1.355 1.061c.125.002.633-.405 1.13-.906.497-.499 1.047-.907 1.221-.905.173.002.318.062.32.136s-.425.525-.949 1-.886.922-.805.995.772.03 1.536-.09c1.278-.205 1.463-.292 2.319-1.085.511-.476.938-.926.949-1 .008-.074-.695-.132-1.563-.128l-1.582.007a64 64 0 0 0-2.424-3.322c-1.03-1.33-1.451-1.745-1.688-1.672-.174.055-.358.017-.407-.083-.051-.1-.014-.323.076-.497.097-.182.106-.834.023-1.547l-.142-1.232zm3.177-2.32-.848.568c-.02 3.03.022 3.222.478 3.843.272.375.943 1.237 1.491 1.919.631.784 1.29 1.387 1.807 1.647.447.228 1.261.515 1.809.64l.994.228c1.676-1.714 1.722-1.812 1.619-2.492-.059-.398-.142-.784-.185-.858-.045-.074-.527.313-1.073.858-.547.547-1.136.995-1.31.995s-.805-.23-1.402-.51c-.638-.3-1.328-.803-1.677-1.22a8.8 8.8 0 0 1-.946-1.434c-.195-.398-.357-1.049-.361-1.446-.007-.656.087-.809 1.035-1.65l1.045-.93c-1.191-.593-1.556-.756-1.582-.745-.028.012-.428.276-.894.587m-148.43 7.091c.188-.217.304-.227.589-.053.197.118.356.319.354.444 0 .124-.103.26-.227.298-.125.04-.39-.04-.588-.173-.3-.206-.321-.292-.128-.516m-.77-5.077c.06.398.32 1.089.577 1.537s.671 1.057.92 1.356c.25.298.826.85 1.282 1.224a7.7 7.7 0 0 0 1.824 1.05c.546.202 1.158.344 1.356.313.231-.036-.027-.2-.723-.46-.597-.223-1.533-.76-2.08-1.196a13 13 0 0 1-1.756-1.764c-.421-.537-.932-1.382-1.138-1.88l-.372-.903zm152.536-1.717c-.082 0-.621.468-1.2 1.04-1.019 1.008-1.046 1.06-.922 1.762.071.398.311 1.01.536 1.356.224.35.562.761.749.918s.726.503 1.198.769.94.482 1.04.482a.18.18 0 0 0 .181-.18c-.001-.1-.184-.219-.408-.264-.33-.069-.362-.128-.174-.316.187-.19.303-.188.631.006.371.225.468.176 1.263-.632.474-.48.86-.935.858-1.01-.002-.073-.184-.136-.408-.138s-.752-.206-1.175-.452-1.016-.794-1.32-1.217c-.302-.423-.584-1.074-.628-1.446-.041-.372-.142-.677-.221-.678m-150.75-.363c-.406.002-.805.055-.89.122-.082.065-.134.453-.116.86.018.404.208 1.104.423 1.55.215.449.925 1.345 1.58 1.994.652.65 1.594 1.376 2.091 1.615.497.238 1.23.468 1.627.513.537.058.792-.003.995-.24.148-.175.253-.572.229-.88s-.222-.927-.44-1.375c-.22-.447-.934-1.346-1.586-1.999-.664-.663-1.624-1.4-2.181-1.674-.593-.29-1.292-.488-1.732-.486m83.08 4.9c-.109-.038-.032.206.17.543s.473.65.6.693c.133.045.063-.185-.169-.543-.219-.34-.49-.653-.6-.693m65.931-1.653a.28.28 0 0 1 .317-.121c.11.038.23.223.262.415.031.192-.071.41-.226.483-.201.096-.313.028-.376-.226-.051-.199-.04-.446.023-.551m3.416-3.788c-.468 0-.681.104-.837.407-.153.304-.155.578-.004 1.084.111.373.467.974.791 1.335.323.362.893.808 1.265.994.373.186.864.338 1.094.338.228 0 .516-.1.637-.226.121-.124.218-.45.216-.723-.001-.273-.135-.762-.295-1.085a5.7 5.7 0 0 0-.768-1.1c-.262-.283-.702-.628-.975-.77-.273-.138-.779-.254-1.124-.254m-2.448 2.892c.101 0 .233.102.294.227s.058.388-.005.587c-.108.34-.134.344-.427.055-.188-.188-.26-.418-.178-.588.07-.154.213-.28.316-.28m.633-.903c.051.001.177.225.28.497.116.313.12.564.014.678-.11.117-.244.023-.381-.272-.117-.247-.166-.552-.11-.677s.144-.225.197-.226M-33.486 2.891c.205 0 1.45.538 2.768 1.196s3.353 1.716 4.52 2.35 2.181 1.254 2.256 1.38.688 1.447 1.364 2.938c.835 1.846 1.428 3.491 1.856 5.153.345 1.342.628 2.581.628 2.757-.002.173-.783 1.76-1.74 3.525-.954 1.764-1.869 3.348-2.033 3.52-.164.17-2.048 1.29-4.184 2.486-2.353 1.32-4.081 2.176-4.384 2.176-.273-.001-1.29-.401-2.26-.89-.969-.485-2.918-1.523-6.893-3.72l-2.183-4.43c-1.202-2.436-2.182-4.573-2.18-4.747 0-.175.447-1.517.99-2.982a134 134 0 0 1 2.356-5.89l1.627-.995c.895-.548 2.865-1.633 4.374-2.412 1.51-.777 2.913-1.415 3.118-1.415m205.222-.006c.593-.003.989.127 1.524.506.397.28.922.832 1.165 1.227.278.448.445.998.451 1.48.011.752-.039.816-5.775 6.53l.346.51c.19.28.497.956.682 1.504.184.546.332 1.258.332 1.582a3.8 3.8 0 0 1-.243 1.175c-.132.323-.439.717-.679.875a3.5 3.5 0 0 1-1.025.407c-.345.07-1.017.003-1.628-.161-.571-.154-1.487-.528-3.027-1.383l-2.446 2.504a7135 7135 0 0 0-6.193 6.346c-3.563 3.653-3.778 3.842-4.423 3.842-.373-.002-.942-.165-1.266-.362a1.78 1.78 0 0 1-.786-1.04c-.11-.372-.143-.882-.074-1.13.067-.25.497-.858.954-1.355.457-.498 3.217-3.365 11.431-11.842l-.549-.86c-.3-.471-.668-1.265-.814-1.762-.148-.497-.265-1.23-.262-1.627.002-.398.105-.924.226-1.168.123-.244.509-.638.857-.875.521-.356.792-.417 1.537-.345.497.047 1.392.333 3.073 1.184l2.905-2.878c2.865-2.84 2.915-2.878 3.707-2.884M17.825 2.18c.372-.094 1.166-.124 1.763-.07a10.8 10.8 0 0 1 2.169.488c.596.212 1.57.67 2.166 1.018.594.347 1.741 1.281 2.546 2.077 1.142 1.13 1.63 1.783 2.23 2.983.582 1.168.79 1.82.864 2.712.054.645.008 1.52-.102 1.944-.141.538-.512 1.086-1.24 1.829-.706.72-1.273 1.128-1.763 1.265-.398.11-1.13.201-1.627.201a9 9 0 0 1-1.809-.235c-.896-.231-.907-.229-1.355.299-.25.293-.677.642-.95.777-.334.166-.535.441-.613.835-.063.324-.245.785-.406 1.025-.16.241-.555.546-.879.678s-.587.364-.588.512c0 .148-.244.413-.54.587-.322.188-.54.465-.537.679.003.199-.18.6-.408.89-.226.291-.676.637-1 .769-.466.19-.586.342-.582.736.003.288-.187.707-.452.994-.252.273-.662.54-.91.588-.32.063-.502.262-.622.678-.094.323-.46.851-.813 1.175-.354.323-.827.625-1.05.67-.225.048-.814.121-1.311.165-.498.045-1.699.313-2.67.595-1.564.456-1.793.483-2.026.242-.22-.225-.233-.554-.08-1.989.099-.945.13-2.166.068-2.712-.08-.7-.03-1.207.17-1.716.155-.398.528-.907.828-1.131.415-.31.544-.548.54-.994-.003-.346.163-.807.407-1.118.226-.29.676-.636 1-.768.479-.195.588-.338.588-.78 0-.355.182-.731.527-1.085.291-.299.637-.541.769-.54.139.002.298-.305.376-.722.097-.526.311-.865.772-1.225.349-.273.68-.701.734-.949.056-.25.217-.634.36-.858s.544-.53.89-.678c.38-.163.633-.398.631-.588 0-.174.194-.6.865-1.582l-.342-.858c-.217-.548-.338-1.3-.336-2.08.004-.788.122-1.476.335-1.943.18-.397.565-.998.854-1.336.288-.336.83-.763 1.202-.949a8 8 0 0 1 1.357-.505m50.124 2.714c.944-.01 2.408.101 3.254.246.844.145 2.147.478 2.894.744.744.264 1.998.86 2.787 1.32.786.461 1.97 1.369 2.63 2.014.66.646 1.495 1.705 1.855 2.35.36.646.78 1.664.936 2.26.18.69.28 1.875.28 3.254 0 1.401-.1 2.554-.284 3.255a13 13 0 0 1-.837 2.17c-.302.596-1.047 1.605-1.655 2.241-.605.637-1.673 1.534-2.369 1.997-.696.46-1.977 1.098-2.846 1.418-.87.319-2.335.713-3.255.874-1.226.213-2.275.264-3.932.19-1.376-.061-2.862-.25-3.797-.485-.846-.21-2.148-.667-2.892-1.016-.747-.349-1.844-.981-2.44-1.406a14 14 0 0 1-1.946-1.75 13.6 13.6 0 0 1-1.486-2.154c-.344-.645-.747-1.745-.899-2.441-.15-.696-.277-1.956-.278-2.802s.083-2.024.191-2.62c.107-.598.468-1.655.803-2.351.333-.696 1.04-1.747 1.567-2.332.53-.588 1.45-1.416 2.047-1.84a20 20 0 0 1 2.35-1.393c.696-.343 1.672-.756 2.17-.92.497-.163 1.473-.411 2.169-.55s2.038-.262 2.983-.273m93.655 9.929c-.075.001-2.409 2.34-5.188 5.198s-5.516 5.705-6.082 6.327c-.568.622-1.03 1.293-1.031 1.492.001.2.205.566.453.814.249.249.655.45.903.45.349 0 1.222-.79 3.84-3.479 1.862-1.914 4.608-4.719 6.101-6.232l2.714-2.75c-1.221-1.41-1.637-1.82-1.71-1.82m-183.33 5.243c-.09 0-.207.081-.262.18-.054.1-1.056.74-2.223 1.42-1.168.68-2.572 1.48-3.118 1.775-.922.497-1.111.722-2.563 3.056-.86 1.38-1.529 2.532-1.491 2.563.041.025.626-.25 1.297-.61s2.22-1.234 3.441-1.943l2.223-1.289a865 865 0 0 1 2.623-4.746c.128-.224.16-.406.072-.406M122.512 4.648a2.7 2.7 0 0 1 1.481-.246c.446.041 1.139.24 1.537.441a9 9 0 0 1 1.446.987c.398.34 1 1.142 1.34 1.778.437.822.642 1.473.703 2.243.047.596-.004 1.369-.112 1.718-.147.464-1.148 1.548-3.776 4.077a1038 1038 0 0 1-7.023 6.688 522 522 0 0 1-5.288 4.918c-1.26 1.143-2.03 1.707-2.432 1.78-.332.064-1.018-.014-1.582-.176-.547-.158-1.33-.554-1.74-.877a10 10 0 0 1-1.329-1.314 10.3 10.3 0 0 1-.991-1.537c-.226-.448-.46-1.12-.524-1.492a4 4 0 0 1 .056-1.355c.138-.543.802-1.297 3.3-3.753 1.721-1.692 5.635-5.435 8.697-8.317 3.064-2.883 5.87-5.386 6.237-5.563M-41.16 9.13c-.2-.041-.584.002-.859.096-.437.15-.629.514-1.603 3.018-1.081 2.784-1.105 2.88-1.032 4.294.068 1.397.128 1.566 1.782 4.977l1.712 3.528a113 113 0 0 0 5.017 2.769c1.863.969 2.61 1.269 2.983 1.202.274-.049.714-.313.978-.588s.977-1.291 1.582-2.261c1.054-1.687 1.1-1.812 1.1-2.938 0-1.034-.162-1.591-1.363-4.655-.766-1.956-1.655-3.903-2.033-4.45-.369-.531-.997-1.157-1.394-1.386-.398-.23-2.025-1.12-3.616-1.975-1.59-.857-3.056-1.591-3.254-1.63M6.516 26.466c-.356-.453-.412-.475-.407-.163.002.2-.056.79-.13 1.313-.123.878-.106.95.228.938.199-.007.808-.152 1.356-.322l.994-.31c-1.261-.724-1.813-1.168-2.04-1.456m48.243-6.175c-.006.075.182.563.417 1.085.235.523.805 1.458 1.266 2.08.461.621 1.388 1.542 2.059 2.046.67.505 1.748 1.168 2.395 1.474.646.306 1.947.749 2.893.985.944.237 2.53.48 3.525.542 1.324.082 2.318.028 3.706-.204 1.043-.173 2.387-.494 2.984-.709.596-.217 1.654-.708 2.35-1.093.778-.433 1.788-1.23 2.621-2.074.933-.945 1.539-1.754 1.944-2.594.323-.671.59-1.322.594-1.447.003-.124-.21.1-.47.497-.26.398-.975 1.235-1.586 1.86-.613.628-1.725 1.493-2.47 1.927-.747.433-1.926.991-2.622 1.24-.696.25-1.998.592-2.893.762-1.243.237-2.203.288-4.067.215-1.878-.072-2.837-.204-4.158-.575-.946-.264-2.328-.799-3.073-1.19-.747-.39-1.825-1.076-2.396-1.525s-1.345-1.204-1.718-1.681a37 37 0 0 1-.985-1.311c-.168-.243-.31-.382-.316-.31M-83.393 1.99c.161.002.658.111 1.105.247.448.134 1.18.429 1.627.653.448.226 1.425.835 2.17 1.354 1.182.822 1.53 1.206 2.73 3.004 1.263 1.895 1.42 2.237 1.948 4.231.503 1.9.543 2.215.323 2.531-.138.199-.556.727-.928 1.175-.373.447-1.136 1.199-1.698 1.667-.56.47-1.12.857-1.246.86-.124.003-.49.334-.813.735-.324.401-.71.768-.86.817-.149.047-.903-.16-3.073-1.005l-1.039.933c-.571.513-2.215 1.998-3.65 3.3a1740 1740 0 0 1-4.339 3.92c-.95.856-1.912 1.647-2.136 1.763-.224.114-.793.206-1.264.204-.472-.002-1.205-.164-1.628-.361s-1.226-.784-1.782-1.307c-.583-.544-1.24-1.392-1.538-1.989-.287-.571-.572-1.345-.633-1.718a4.8 4.8 0 0 1 0-1.355c.086-.52.394-.96 1.334-1.899.67-.67 3.05-2.84 5.288-4.82a841 841 0 0 1 4.304-3.798c.197-.16.183-.356-.384-2.003l1.252-3.797 1.254-.956c.691-.526 1.735-1.28 2.32-1.672.586-.394 1.195-.716 1.356-.714m189.59 19.704c-.352 0-.752.137-.928.316-.231.239-.287.538-.229 1.22.043.498.254 1.271.469 1.718.213.448.779 1.208 1.254 1.69.477.482 1.173 1.029 1.545 1.219.373.19 1.025.349 1.448.354.504.006.862-.097 1.039-.3.151-.171.267-.632.261-1.046-.005-.445-.223-1.167-.542-1.803-.293-.582-.9-1.403-1.346-1.822-.449-.42-1.159-.939-1.582-1.154s-1.047-.392-1.389-.392m-203.944-1.077c-.398.002-.852.084-1.011.185-.157.1-.381.504-.497.898-.116.395-.158.941-.095 1.214.065.273.31.884.543 1.356.235.472.771 1.232 1.195 1.686.422.455 1.175 1.024 1.672 1.266.498.244 1.172.441 1.5.44.395 0 .746-.154 1.038-.454.324-.327.446-.651.446-1.175 0-.398-.16-1.15-.353-1.672-.193-.523-.701-1.347-1.13-1.833-.428-.488-1.184-1.118-1.681-1.402-.586-.332-1.16-.511-1.627-.51M7.048 22.054c-.085 0-.285.143-.44.317-.157.173-.366.52-.464.768-.123.31-.112.706.033 1.257.137.528.477 1.076.979 1.582.423.428 1.237.992 1.809 1.254.795.365 1.21.452 1.762.373.494-.07.88-.279 1.22-.658.273-.304.497-.635.497-.735-.001-.1-.387-.262-.858-.361-.472-.098-1.367-.505-1.989-.904-.621-.398-1.377-1.069-1.68-1.491-.301-.424-.585-.912-.632-1.085-.045-.174-.152-.317-.237-.317M120.147 7.636c-1.41 1.318-4.313 4.057-6.454 6.089a748 748 0 0 0-5.566 5.334c-.92.901-1.673 1.7-1.673 1.775.002.074.186.135.41.137.224 0 .813.236 1.311.522.497.285 1.291.934 1.763 1.444s1.059 1.353 1.305 1.875.47 1.254.497 1.627c.027.37.07.674.096.678.025 0 2.137-1.973 4.693-4.384 2.558-2.412 6.158-5.83 8-7.599 1.844-1.768 3.452-3.395 3.571-3.616.121-.22.224-.747.226-1.17s-.137-1.155-.313-1.627c-.177-.472-.604-1.217-.949-1.654-.345-.438-1.036-1.027-1.533-1.309-.678-.385-1.145-.514-1.862-.515l-.958-.002zm-51.294-1.94c-.846-.04-2.147.012-2.892.111-.747.101-2.089.42-2.984.707-.895.29-2.238.887-2.983 1.328-.747.443-1.798 1.197-2.339 1.678-.54.479-1.298 1.36-1.682 1.956s-.858 1.615-1.053 2.26a9.2 9.2 0 0 0-.353 2.396c.002.844.142 1.598.452 2.44.248.673.756 1.662 1.13 2.199s1.047 1.3 1.495 1.697c.447.396 1.22.986 1.717 1.312.497.323 1.514.837 2.26 1.14s1.965.69 2.712.863c.978.226 2.112.309 4.068.303 2.177-.009 2.996-.087 4.158-.398.796-.212 2.219-.768 3.164-1.235 1.381-.683 2.004-1.133 3.184-2.303 1.104-1.095 1.611-1.764 2.058-2.719.325-.696.676-1.712.777-2.26.13-.7.124-1.368-.019-2.26-.124-.782-.463-1.78-.887-2.616-.403-.799-1.09-1.764-1.678-2.359a16 16 0 0 0-2.169-1.77c-.647-.419-1.807-1.005-2.577-1.301s-1.99-.666-2.711-.818-2.003-.309-2.848-.35M-96.392 19.44c-.455-.085-.71-.038-.909.165-.246.251-.246.28 0 .282.152.002.703.204 1.226.451.522.248 1.34.838 1.822 1.31.48.472 1.1 1.306 1.376 1.852.275.548.553 1.377.618 1.843.094.696.16.81.363.633.172-.15.225-.518.172-1.21-.04-.546-.27-1.401-.51-1.898-.239-.498-.846-1.302-1.346-1.787-.503-.486-1.2-1.026-1.546-1.202a5.7 5.7 0 0 0-1.266-.44m105.398-.09c-.048.004-.359.145-.689.31-.513.26-.548.314-.226.355.318.043.376.177.376.864 0 .449-.082.814-.181.814-.1 0-.242-.246-.316-.546s-.197-.543-.271-.542-.134.146-.132.32c.002.173.164.661.361 1.084s.704 1.11 1.126 1.527c.423.418 1.215.963 1.763 1.21.58.263 1.347.456 1.839.461.663.01.946-.085 1.314-.441.26-.247.47-.594.466-.767-.002-.197-.19-.357-.5-.422a14 14 0 0 1-1.04-.279c-.298-.096-.868-.361-1.265-.59-.398-.232-1.024-.777-1.389-1.214-.367-.438-.775-1.1-.907-1.473-.134-.372-.28-.675-.33-.671m-104.61-1.089c-.211-.002-.476.12-.587.268-.166.226-.054.318.658.55.471.153 1.286.601 1.808.994.533.403 1.267 1.212 1.678 1.846.426.66.82 1.556.95 2.155.12.563.28.991.355.949s.137-.502.14-1.024c.003-.523-.111-1.234-.254-1.583-.14-.347-.57-1.054-.953-1.569s-.982-1.155-1.329-1.42a9 9 0 0 0-1.355-.822c-.398-.186-.897-.34-1.11-.344m222.7-7.684c.105.061.181.227.17.37s-1.216 1.38-2.679 2.746c-.732.683-1.622 1.518-2.466 2.313l-4.387 4.143c-.845.794-1.735 1.629-2.467 2.312-1.681 1.57-2.762 2.454-2.934 2.396-.148-.049-.274-.152-.279-.226s1.318-1.4 2.938-2.945c1.62-1.546 4.965-4.702 7.431-7.015 2.466-2.31 4.568-4.152 4.673-4.094m-167.215 3.156c.555-.266.982-.342 1.537-.272.423.053 1.074.25 1.446.44.373.188 1.074.696 1.559 1.13.486.432 1.198 1.274 1.587 1.87.386.597.867 1.615 1.064 2.26.199.646.36 1.644.358 2.215-.001.572-.112 1.305-.244 1.628-.134.324-.519.821-.858 1.107-.56.47-.722.51-1.725.45-.938-.055-1.268-.176-2.157-.79-.578-.397-1.401-1.17-1.828-1.716s-.976-1.401-1.22-1.898-.582-1.434-.749-2.08c-.177-.686-.265-1.513-.213-1.989.05-.446.222-1.076.383-1.4.183-.369.577-.726 1.06-.955m-54.479 3.623c-.257 0-.523.06-.59.134s.428.39 1.1.703c.88.408 1.498.87 2.216 1.65.546.597 1.19 1.481 1.43 1.964.239.484.482 1.18.542 1.547.087.546.152.63.353.452.18-.157.213-.457.123-1.12-.067-.496-.342-1.304-.607-1.796-.266-.492-.892-1.298-1.39-1.795-.496-.495-1.31-1.089-1.807-1.32-.497-.23-1.113-.417-1.37-.42m54.573-2.895c-.072 0-.248.184-.388.408-.143.222-.314.732-.382 1.13-.078.459-.014 1.148.174 1.898.164.645.537 1.621.828 2.169.293.546.884 1.401 1.312 1.898.443.514 1.204 1.12 1.763 1.404.54.274 1.227.496 1.525.493.298-.002.643-.065.767-.137.141-.083-.16-.3-.813-.583-.594-.257-1.492-.875-2.096-1.446-.772-.727-1.262-1.408-1.808-2.52-.709-1.435-.75-1.613-.75-3.117 0-.877-.06-1.595-.132-1.597m15.56-5.561c-.133-.023-.813.27-1.509.653-.696.385-2.282 1.305-3.525 2.048-1.78 1.063-2.272 1.441-2.32 1.788-.034.24.398 1.618.96 3.059a304 304 0 0 0 1.825 4.565c.44 1.07.862 1.945.936 1.947.077.002 1.275-.66 2.667-1.471 1.392-.812 2.98-1.773 3.526-2.134.883-.585.986-.718.93-1.194-.036-.296-.372-1.596-.748-2.888-.376-1.293-1.093-3.245-1.592-4.339s-1.017-2.009-1.15-2.034m-68.705 7.496c-.405-.06-.794-.007-.994.136-.299.213-.271.244.303.34.35.06 1.157.455 1.797.881.64.427 1.469 1.183 1.841 1.68.374.497.844 1.271 1.048 1.718.202.448.371 1.037.373 1.31s.085.497.185.497.221-.121.27-.271c.05-.149.093-.535.095-.859.001-.323-.236-1.076-.526-1.672-.292-.597-.883-1.456-1.315-1.907-.43-.452-1.15-1.033-1.599-1.29-.446-.256-1.111-.509-1.478-.563m54.384-2.296c-.129 0-.301.054-.384.12-.083.068-.14.698-.123 1.4.014.706.178 1.73.36 2.277a9 9 0 0 0 .886 1.808c.305.446.91 1.162 1.344 1.588.434.425 1.113.928 1.51 1.117.398.188.924.368 1.172.399.284.038.468-.04.506-.212.04-.18-.233-.39-.807-.62-.487-.197-1.275-.754-1.789-1.266-.594-.593-1.162-1.427-1.609-2.362-.571-1.2-.701-1.687-.76-2.848-.051-.986-.142-1.4-.306-1.401m48.802 3.265c-.372.282-.494.523-.48.95.012.317.178.901.368 1.299.192.397.76 1.11 1.264 1.582.502.471 1.262 1.02 1.683 1.217.423.197 1.175.363 1.672.369.615.007 1.03-.093 1.302-.314.217-.177.421-.48.452-.672.043-.274-.093-.381-.624-.497-.372-.081-1.062-.344-1.536-.583-.472-.237-1.257-.786-1.743-1.22-.488-.432-1.105-1.173-1.372-1.649l-.487-.86zm-101.709-2.132c-.556-.062-.882-.012-1.032.157-.177.2-.045.32.725.65.519.22 1.419.832 2 1.356a6.8 6.8 0 0 1 1.677 2.218c.341.696.667 1.55.725 1.898.078.474.144.564.262.361.088-.148.161-.576.163-.949.002-.372-.08-.902-.18-1.175-.102-.272-.144-.537-.096-.587.051-.049.167.114.257.362.093.25.273.696.402.994l.235.542c.089-.969-.082-1.54-.43-2.215a10 10 0 0 0-1.356-1.898c-.45-.472-1.204-1.03-1.678-1.24-.472-.212-1.225-.424-1.674-.474m53.988-.78c-.09.006-.116.55-.056 1.23.074.834.278 1.559.652 2.304.3.596.814 1.405 1.141 1.798a7 7 0 0 0 1.408 1.221c.448.28.915.51 1.04.508s.226-.165.226-.363c0-.213-.205-.464-.497-.613-.273-.137-.86-.646-1.302-1.13a9.4 9.4 0 0 1-1.31-1.963c-.279-.597-.56-1.41-.623-1.808s-.206-.83-.316-.959c-.11-.128-.273-.229-.363-.225M68.039 11.04c.298-.01 1.03.072 1.627.182a10 10 0 0 1 2.079.675c.548.262 1.258.743 1.582 1.068.323.326.75.917.95 1.315.225.453.36 1.077.358 1.672-.002.537-.15 1.264-.34 1.672-.187.398-.651 1.024-1.036 1.39-.386.366-1.147.885-1.695 1.154-.546.27-1.522.575-2.169.678-.862.136-1.512.127-2.441-.036-.72-.127-1.727-.472-2.334-.8-.586-.317-1.343-.903-1.68-1.3-.344-.406-.737-1.162-.894-1.718-.178-.624-.233-1.231-.154-1.627.069-.35.271-.917.447-1.266.177-.349.617-.897.976-1.22a8.2 8.2 0 0 1 1.425-.984c.423-.219 1.217-.497 1.763-.618.547-.121 1.237-.228 1.536-.238m-56.305 4.143c-.11 0-.3.207-.422.458-.18.369-.175.608.028 1.22.157.482.622 1.132 1.265 1.77.57.564 1.47 1.218 2.054 1.491.584.272 1.358.485 1.763.485.397 0 .764-.081.813-.18.05-.1-.336-.298-.858-.44-.521-.141-1.373-.568-1.888-.95-.517-.38-1.275-1.136-1.682-1.684s-.771-1.259-.807-1.582c-.038-.323-.158-.588-.266-.588M-90.494 14.1c-.49 0-.89.107-1.04.278-.215.244-.184.278.25.27.274-.003.72.092.994.21.275.12.972.549 1.554.95.582.403 1.246.976 1.474 1.274.23.299.627.992.884 1.538.258.547.466 1.198.463 1.446-.006.41.022.426.295.18.215-.195.276-.473.22-.994-.043-.397-.273-1.13-.51-1.627-.236-.497-.8-1.3-1.252-1.783-.452-.484-1.208-1.074-1.682-1.31-.513-.259-1.175-.432-1.65-.432m159.076.058c-1.236-.055-1.846.008-2.54.252-.501.177-1.194.512-1.537.746-.344.233-.863.762-1.154 1.175l-.529.752c.54.98 1.104 1.533 1.602 1.864.497.329 1.31.716 1.807.86s1.432.263 2.08.263c.646 0 1.581-.12 2.078-.264a6.7 6.7 0 0 0 1.673-.815c.423-.304.97-.838 1.22-1.185.416-.582.432-.674.197-1.13-.14-.275-.486-.712-.768-.976-.283-.263-.962-.701-1.508-.976-.81-.405-1.294-.51-2.621-.566m-104.116 2.021c-.698-.74-.83-.822-.734-.452.065.248.314.899.551 1.446.239.546.798 1.36 1.244 1.809.444.445.845.77.89.723.043-.052-.187-.66-.51-1.356-.324-.696-.973-1.673-1.441-2.17M13.8 13.56c-.1.006-.403.21-.678.456-.316.286-.496.627-.494.943.003.273.155.823.341 1.221.185.398.69 1.063 1.127 1.477a9 9 0 0 0 1.692 1.225c.645.335 1.177.469 1.853.465.705-.002 1.043-.098 1.31-.365.2-.199.362-.483.362-.633 0-.236-.04-.235-.316.01-.22.2-.37.227-.497.092q-.18-.193.049-.418c.126-.125.228-.288.226-.362s-.226-.176-.5-.224c-.274-.05-.986-.4-1.583-.78-.596-.381-1.32-.97-1.607-1.312a7.4 7.4 0 0 1-.814-1.213c-.159-.325-.372-.587-.471-.582m-103.232-.72c-.199.004-.517.09-.709.19-.19.102-.332.262-.316.356.018.094.235.172.482.172.25 0 .912.224 1.472.497.59.288 1.41.916 1.951 1.492.58.62 1.082 1.387 1.33 2.034.22.57.4 1.202.4 1.4 0 .202.101.335.226.303.128-.033.247-.407.275-.859.034-.546-.087-1.085-.379-1.703-.236-.497-.828-1.345-1.314-1.884-.575-.632-1.27-1.158-1.972-1.489-.596-.282-1.247-.51-1.446-.509m2.32-6.604c-.4-.083-.608-.046-.678.12-.055.134-.307.831-.556 1.55-.427 1.237-.436 1.346-.17 1.9l.284.587c.613-.595.972-.86 1.197-.972.224-.112.712-.204 1.085-.206.372 0 1.084.198 1.582.442.497.244 1.363.916 1.925 1.493.56.578 1.233 1.499 1.492 2.045.26.547.524 1.443.588 1.989.106.929.075 1.04-.455 1.672-.312.373-.527.758-.477.858.049.1.477.304.949.456.472.15.94.275 1.04.277.1 0 .416-.428.705-.951.456-.832.508-1.075.403-1.86-.083-.623-.494-1.58-1.318-3.074-.66-1.193-1.573-2.562-2.032-3.043-.458-.48-1.32-1.121-1.916-1.423a40 40 0 0 1-2.08-1.143c-.547-.33-1.252-.652-1.569-.717m-1.091 5.693c-.417 0-.8.064-.851.138s.372.312.94.53c.567.216 1.439.756 1.936 1.2s1.19 1.284 1.537 1.866.764 1.466.929 1.963c.246.743.321.84.433.542.075-.199.084-.87.02-1.49-.064-.622-.176-1.127-.252-1.129-.074.002-.27-.223-.433-.498-.164-.275-.63-.844-1.039-1.266a10.4 10.4 0 0 0-1.602-1.313c-.608-.387-1.081-.545-1.618-.543m250.431-3.644c-.298-.05-.721-.056-.939-.018-.219.036-.545.234-.724.439-.224.254-.325.664-.325 1.31 0 .726.161 1.26.712 2.374.526 1.067 1.063 1.79 2.079 2.805.982.981 1.751 1.556 2.724 2.039.936.462 1.594.67 2.124.667.422-.002.901-.065 1.064-.14.165-.075.416-.381.561-.68.178-.368.222-.771.135-1.264-.07-.398-.302-1.113-.513-1.59-.213-.474-.427-.857-.479-.852-.049.008-.436.337-.859.73-.421.395-.85.717-.949.717-.1 0-.485-.125-.859-.279-.372-.155-.993-.582-1.378-.949-.383-.369-.85-.996-1.034-1.393-.186-.398-.339-.926-.343-1.175-.005-.28.229-.691.621-1.085.347-.347.592-.693.546-.769-.048-.074-.43-.283-.852-.467-.421-.183-1.013-.372-1.312-.42m-248.18 1.66c-.223.002-.508.062-.631.134-.141.084.158.3.808.585.568.249 1.402.786 1.852 1.195.45.408 1.05 1.06 1.334 1.446.316.432.473.826.406 1.02-.06.175-.168.32-.244.322-.074.003-.237-.202-.361-.452-.123-.252-.572-.832-.994-1.291-.422-.46-1.094-1.027-1.492-1.262s-1.007-.508-1.356-.607c-.347-.1-.815-.143-1.04-.094-.22.047-.407.146-.41.22-.002.075.243.197.543.271.3.076.974.409 1.495.74.522.332 1.254.942 1.627 1.356.374.414.922 1.281 1.22 1.927.299.646.542 1.337.542 1.537 0 .202.101.334.226.3.148-.04.229-.433.23-1.13.004-.87.061-1.076.316-1.114.233-.032.343.129.426.633.099.6.133.636.292.316.099-.198.13-.606.067-.904-.061-.298-.32-.99-.573-1.537s-.842-1.386-1.309-1.867c-.468-.481-1.235-1.07-1.709-1.31-.472-.241-1.041-.436-1.265-.434m100.827 1.124c-.175.237-.29.715-.279 1.174.01.424.17 1.076.359 1.449.186.374.694 1.03 1.13 1.46.434.433 1.236.997 1.782 1.258.556.265 1.327.476 1.748.482.57.007.868-.102 1.217-.443.253-.248.423-.511.376-.587-.048-.075-.554-.379-1.126-.675s-1.522-.969-2.111-1.491a22 22 0 0 1-1.935-1.99l-.864-1.039zm-91.917 4.882c-.33-.206-.363-.181-.365.317-.003.499.028.526.36.318.2-.124.362-.267.364-.318 0-.051-.161-.193-.36-.317m91.848-8.632c-.007.453.198 1.163.548 1.898.306.647.953 1.663 1.438 2.26.484.597 1.433 1.505 2.107 2.017.676.51 1.637 1.13 2.134 1.378.497.25 1.35.585 1.898.746.546.16 1.44.285 1.989.274l.994-.02c-2.383-.5-3.562-.864-4.158-1.131-.597-.268-1.573-.835-2.17-1.262-.596-.427-1.532-1.262-2.078-1.857-.548-.594-1.258-1.52-1.578-2.06-.318-.536-.699-1.424-.845-1.972l-.266-.994zm54.046 4.576c-.546-.047-1.36-.028-1.808.042a8 8 0 0 0-1.627.48c-.449.195-1.1.6-1.447.9-.346.3-.775.844-.949 1.207s-.32.803-.323.978c-.005.231.212.11.814-.452.451-.423 1.207-.938 1.68-1.142.47-.206 1.385-.436 2.032-.512a11 11 0 0 1 2.26.013c.597.083 1.573.387 2.17.674.596.29 1.348.817 1.672 1.175.354.39.587.542.588.38 0-.15-.109-.537-.24-.86-.134-.323-.642-.937-1.13-1.365-.49-.427-1.297-.924-1.794-1.105a9 9 0 0 0-1.898-.413m-146.159-5.53c-.024-.027-.442.267-.929.652-.49.387-1.105.9-1.367 1.138-.415.376-.466.537-.39 1.243.047.448.291 1.22.543 1.718.25.497.843 1.555 1.317 2.35s1.054 1.584 1.291 1.75c.417.297.454.282 1.565-.633.627-.515 1.135-1.017 1.128-1.117-.005-.1-.222-.995-.484-1.989-.39-1.487-.665-2.093-1.553-3.435-.594-.894-1.1-1.648-1.12-1.677M18.864 2.9c-.597.003-1.367.107-1.714.231-.345.123-.833.492-1.085.818-.39.507-.455.779-.455 1.901 0 1.142.085 1.483.678 2.7.515 1.059 1.035 1.748 2.17 2.883.82.82 1.939 1.755 2.485 2.075a15 15 0 0 0 2.08.979c.728.265 1.531.4 2.44.41 1.049.012 1.497-.066 1.976-.346.342-.199.79-.647.994-.994.268-.452.374-.947.374-1.73 0-.934-.119-1.338-.798-2.711-.63-1.268-1.094-1.906-2.173-2.971-.911-.9-1.826-1.594-2.725-2.065-.745-.39-1.76-.815-2.258-.947-.497-.13-1.392-.235-1.989-.233m147.888 5.197-2.839 2.839c.3.998.767 1.629 1.293 2.124.527.495 1.084.858 1.319.86.289.002 1.187-.81 3.119-2.818 2.14-2.226 2.653-2.856 2.441-2.982-.15-.089-.312-.16-.362-.159s-.41-.305-.8-.68-.85-.984-1.022-1.353l-.311-.667zM13.646 12.654c-.134 0-.392.148-.574.33-.182.18-.316.384-.299.452.018.067.277 0 .575-.15.298-.148.542-.352.542-.452 0-.099-.11-.18-.244-.18M-33.52 3.62c-.026.004-1.266.638-2.757 1.413-1.491.773-3.265 1.726-3.941 2.119-.96.553-1.178.755-.994.91.129.113 1.374.813 2.766 1.56 1.391.746 3.201 1.692 4.022 2.104.82.41 1.614.746 1.763.746s1.837-.93 3.752-2.07c1.913-1.138 3.601-2.141 3.75-2.227.201-.117-.267-.441-1.807-1.255a247 247 0 0 0-4.294-2.202c-1.217-.607-2.233-1.101-2.26-1.098m54.671 1.983c.086 0 .561.367 1.058.813.854.77.925.799 1.31.54.224-.15.528-.269.678-.265.15.003.416.147.593.318.177.17.318.434.314.582-.005.149-.23.444-.997 1.034l1.347 1.769-.911.903-.716-.858c-.392-.472-.835-.858-.985-.859-.15 0-.56.144-1.552.633l-.88-1.085 1.347-1.144-.678-.875c-.634-.817-.66-.893-.38-1.19.162-.173.367-.316.452-.316m1.103 2.186c.211.522.191.588-.317 1.027-.35.305-.413.417-.18.32.198-.086.625-.181.949-.216.374-.04.587-.162.588-.334 0-.148.224-.436.497-.634.273-.201.422-.411.334-.467-.091-.056-.359.045-.597.227-.423.324-.446.323-.967-.075l-.533-.407zM-83.327 2.904c-.293.007-.942.343-1.582.82-.596.444-1.166.882-1.266.97-.118.106-.045.372.206.762.242.375.885.87 1.718 1.322.732.397 1.656.86 2.053 1.028.398.17.866.31 1.04.316.173.006.669-.252 1.1-.576.428-.323 1.079-.852 1.446-1.175.364-.324.66-.649.66-.723-.002-.075-.714-.598-1.582-1.16-.868-.563-1.966-1.153-2.438-1.31-.472-.159-1.082-.281-1.355-.274m254.129 2.789c-.288-.497-.523-.782-.525-.633-.004.148.226.637.51 1.085.304.479.824.98 1.268 1.22.414.225.751.345.747.271-.003-.075-.337-.34-.743-.587-.444-.273-.943-.81-1.257-1.356m.85-2.08c-.137.001-.362.13-.497.287-.198.231-.203.409-.026.949.119.365.486.933.813 1.262.454.455.766.605 1.318.633.703.032.725.017.774-.6.036-.43-.086-.834-.375-1.265-.233-.349-.725-.775-1.09-.949s-.778-.316-.917-.316"/></g></svg>