<svg xmlns="http://www.w3.org/2000/svg" fill="none" viewBox="0 0 32 32"><mask id="a" width="32" height="32" x="0" y="0" maskUnits="userSpaceOnUse" style="mask-type:alpha"><path fill="#d9d9d9" d="M0 0h32v32H0z"/></mask><g mask="url(#a)"><path fill="#e31e24" d="M-189.227 98.159c.521-.09 2.17-.125 3.661-.075s3.199.21 3.796.356c.596.146 1.482.484 1.971.754.486.267 1.24.792 2.459 1.843l-.007-1.04c-.004-.835.07-1.112.383-1.4.329-.31.636-.363 2.077-.363 1.381 0 1.751.06 2.014.322.271.271.316.59.275 1.988-.025.916-.128 1.747-.228 1.848a.66.66 0 0 0-.179.407c.002.148.36.241 2.083.317l.04 5.876c.032 4.44-.013 5.93-.181 6.108-.123.13-.602.231-1.079.226-.473-.004-.9.074-.949.173-.051.1.034.283.187.408.222.179.279.627.272 2.169-.008 1.905-.019 1.95-.505 2.31-.396.293-.767.368-1.808.362-1.211-.005-1.353-.047-1.853-.547-.47-.468-.529-.641-.451-1.266.048-.397.048-.722 0-.724-.052.001-.602.41-1.221.909-.622.499-1.7 1.144-2.396 1.433s-1.795.613-2.44.718c-.647.107-2.113.191-3.255.191-1.244-.001-2.553-.114-3.254-.282-.647-.154-1.705-.557-2.351-.896a13.3 13.3 0 0 1-2.168-1.493c-.548-.48-1.371-1.438-1.831-2.128-.459-.689-1.04-1.784-1.295-2.429-.253-.647-.55-1.663-.659-2.26a15 15 0 0 1-.195-2.215c0-.622.13-1.76.289-2.53.157-.77.552-1.971.875-2.667.325-.696.96-1.754 1.412-2.351.452-.596 1.137-1.336 1.519-1.643a19 19 0 0 1 1.467-1.04 13 13 0 0 1 1.671-.842 11.3 11.3 0 0 1 1.854-.527m10.43 16.714c-.248-.228-.342-.14-.807.771-.316.622-1.101 1.606-1.979 2.482-.809.808-1.937 1.716-2.539 2.047q-1.081.593-.543.463c.299-.07.868-.188 1.266-.261.398-.072.58-.14.407-.153-.175-.013-.277-.104-.226-.203.049-.099.557-.179 1.13-.179.599.002 1.191-.102 1.401-.249.334-.233.306-.25-.361-.228-.398.012-.745-.058-.773-.157-.026-.1.3-.205.724-.234.491-.032.813.034.886.182.085.169.326.082.904-.329a10 10 0 0 0 1.377-1.221c.321-.361.584-.84.581-1.065-.002-.224.159-.569.357-.768.201-.199.325-.423.279-.497-.049-.074-.474-.138-.946-.142-.484-.002-.981-.115-1.138-.259m-9.257-15.988c-.522.01-1.274.094-1.672.19-.398.094-1.253.43-1.898.748-.686.338-1.704 1.081-2.442 1.781-.894.848-1.487 1.616-2.018 2.621-.416.781-.899 1.95-1.075 2.597q-.318 1.173-.311 3.073c.005 1.502.1 2.18.445 3.254.242.745.813 1.965 1.269 2.712.457.745 1.267 1.745 1.802 2.222.536.478 1.583 1.177 2.33 1.557.923.47 1.728.733 2.531.829.645.076 1.418.083 1.717.015.54-.123.538-.125-.453-.578-.547-.25-1.429-.795-1.962-1.21-.534-.416-1.279-1.162-1.659-1.659-.379-.498-.974-1.474-1.321-2.17s-.759-1.855-.918-2.577c-.157-.721-.286-1.86-.284-2.531.002-.67.123-1.789.267-2.485s.633-2.018 1.082-2.939c.621-1.27 1.111-1.966 2.039-2.899.723-.727 1.679-1.462 2.35-1.808.618-.319 1.127-.62 1.13-.67 0-.051-.429-.084-.949-.073m2.667.623c-.317-.056-.883.039-1.357.227-.448.179-1.296.645-1.887 1.037-.59.394-1.363 1.063-1.717 1.488s-.95 1.279-1.322 1.899c-.373.618-.855 1.777-1.072 2.572-.285 1.045-.392 1.924-.382 3.164.011 1.318.122 2.054.476 3.164.255.795.779 1.935 1.164 2.531s1.224 1.575 1.862 2.173c.85.799 1.535 1.245 2.562 1.672l1.401.584c1.784-.927 2.795-1.705 3.536-2.44.899-.892 1.478-1.667 1.954-2.622.564-1.131.71-1.676.892-3.285l.217-1.93c-.853-.644-1.046-1.009-1.175-1.655a12.5 12.5 0 0 1-.181-1.989c.001-.596.101-1.285.226-1.529.199-.394.164-.533-.304-1.22-.291-.427-.942-1.183-1.446-1.682-.504-.497-1.365-1.164-1.911-1.482-.548-.318-1.238-.622-1.536-.677m12.022 16.896c-2.335 0-3.082.054-3.164.119-.083.068-.137.718-.121 1.446.025 1.131.076 1.327.347 1.327.275 0 .309-.163.271-1.265-.038-1.025.006-1.266.227-1.266.218 0 .262.241.225 1.266l-.044 1.265h2.259zm195.852 2.193c.562 0 .795.071.754.227-.034.124-.397.245-.814.27-.569.034-.753-.021-.754-.225 0-.201.212-.272.814-.272m1.32-.648c.13.009.233.097.23.196-.006.099-.417.201-.915.227-.513.025-.906-.033-.907-.136 0-.1.307-.208.68-.242.37-.035.782-.054.911-.045m.668-.892c.1.018.182.148.182.289 0 .186-.24.257-.86.257-.47 0-.86-.081-.864-.181-.003-.099.302-.229.678-.289.375-.059.764-.094.864-.076m.11-.991c.505 0 .704.076.705.271 0 .206-.23.273-.95.279-.841.007-.922-.024-.704-.272.143-.161.543-.278.95-.278m-199.418-.892c-.544-.029-1.059.006-1.146.076-.087.071-.145.197-.129.279.018.083.56.151 1.206.151.849 0 1.158-.063 1.115-.225-.036-.138-.447-.248-1.046-.281m200.561-10.441c.13.043.193 1.67.193 5.018 0 4.579-.023 4.957-.316 5.002-.294.043-.318-.304-.347-4.893-.016-2.716.04-4.994.125-5.067a.41.41 0 0 1 .345-.06m-197.285-.804c-5.751 0-6.708.061-6.861.226-.118.125-.172.47-.12.768s.226 1.112.389 1.808c.212.906.271 1.752.206 2.983-.05.944-.224 2.205-.387 2.802-.162.597-.251 1.268-.197 1.492.098.403.123.406 3.535.406h3.435zm-7.937 1.164c-.09-.056-.164.371-.166.949-.001.577.091 1.416.208 1.863.148.569.318.833.573.884.336.066.351.012.215-.812a21 21 0 0 0-.407-1.833c-.143-.522-.334-.995-.423-1.051m-4.99-6.148c.198.159.421.286.497.285.074-.002.522.259.995.577.472.32 1.251.951 1.732 1.401.481.452 1.126 1.23 1.435 1.727s.59.944.622.994c.033.048.181-.094.328-.316.211-.324.435-.407 1.081-.407.446 0 .853-.082.904-.181.048-.1-.48-.751-1.176-1.446-.696-.696-1.347-1.266-1.446-1.266s-.14.081-.09.181c.049.099-.094.23-.316.29-.225.059-.673.059-.995 0-.323-.06-.587-.191-.587-.29 0-.1.385-.177.858-.173.774.007.832-.021.588-.276-.186-.191-.669-.294-1.523-.323-.818-.027-1.272-.121-1.31-.267-.036-.138.137-.237.437-.255.205-.011.108-.051-.206-.099l-.831-.108c-.444-.065-.848-.145-.997-.2l-.361-.137zm208.576 3.962c.512.029.93.15.978.278.058.163-.2.226-.935.226-.558 0-1.054-.062-1.102-.136-.047-.074-.03-.201.038-.278.07-.08.528-.121 1.021-.09m-199.094-.424c-1.221 0-1.268.016-1.085.361.162.306.349.355 1.229.317.827-.037 1.046-.109 1.084-.362.04-.276-.117-.316-1.228-.316m198.19-.661c.512.029.931.15.979.278.057.163-.201.226-.935.226-.558 0-1.055-.061-1.104-.135-.046-.074-.03-.201.038-.278.07-.08.529-.122 1.022-.091m5.536-2.027c.101 0 .18.483.18 1.084s-.079 1.085-.18 1.085c-.1-.001-.18-.484-.18-1.085s.08-1.082.18-1.084m-202.089-.748c-2.334 0-3.082.054-3.164.12-.083.067-.137.678-.121 1.356.016.679.09 1.27.166 1.314.074.044.217.024.317-.045.099-.066.18-.631.18-1.253 0-.634.081-1.13.182-1.128.101.001.181.515.181 1.175v1.173h2.259zm-8.631-51.706c.174 0 .724.203 2.124.904v10.486l.543.271c.299.149.694.577.88.95.3.6.608.806 2.667 1.794 1.282.614 2.716 1.285 4.046 1.867v2.712l-.768.622c-.424.342-2.031 1.665-3.571 2.94a5178 5178 0 0 0-7.095 5.888c-2.36 1.96-4.436 3.567-4.611 3.572-.174.003-2.067-.987-4.203-2.2l-6.328-3.59.02-12.799 3.741-3.162c2.059-1.739 5.652-4.758 7.99-6.709 2.335-1.948 4.391-3.545 4.565-3.546m9.49 17.362c-.03.01-.658.521-1.402 1.144-.745.626-3.104 2.584-5.242 4.352s-4.882 4.039-6.097 5.047c-2.037 1.69-2.211 1.884-2.223 2.466-.011.586.011.613.304.362.174-.15 2.515-2.104 5.205-4.341s5.931-4.923 7.202-5.966c2.111-1.73 2.313-1.948 2.305-2.484-.003-.322-.027-.584-.052-.58m-20.656 9.815c-.099-.018-.405.063-.677.18-.485.209-.428.253 2.35 1.842 1.565.894 2.948 1.646 3.073 1.671.143.029.224-.168.222-.542-.003-.57-.081-.63-2.394-1.853-1.317-.696-2.474-1.28-2.574-1.298m15.096-12.89c-.05.01-.342.275-.646.592a22 22 0 0 1-1.069 1.03c-.282.249-.805.68-1.161.957-.358.277-.893.709-1.191.959s-1.519 1.263-2.712 2.255a327 327 0 0 0-2.984 2.508c-.446.389-1.219 1.042-1.716 1.452a85 85 0 0 0-1.561 1.326c-.361.318-.85.705-1.085.862-.426.283-.418.291 1.199 1.157.895.479 1.952 1.06 2.35 1.294l.724.423c4.063-3.397 6.496-5.409 8.027-6.663s3.747-3.074 4.926-4.045l2.142-1.763a1189 1189 0 0 0-3.706-1.7c-.795-.362-1.486-.652-1.537-.645m97.63-14.181a6.2 6.2 0 0 1 2.124-.195c.622.05 1.332.17 1.582.27.248.1.514.306.588.458.098.201-.395.806-1.812 2.215-1.81 1.804-1.938 1.976-1.826 2.48.065.298.186.705.266.904.081.198.292.546.47.772.191.239.736.52 2.314.938l1.898-1.909c1.327-1.332 2.003-1.889 2.247-1.847.25.041.422.32.597.96.145.534.215 1.424.17 2.17a6.5 6.5 0 0 1-.595 2.42 6.2 6.2 0 0 1-1.47 2.034c-.522.484-1.336 1.06-1.808 1.278-.67.313-1.274.412-4.655.522l-2.35 2.647a3621 3621 0 0 1-3.892 4.375 362 362 0 0 0-4.081 4.713c-1.994 2.343-2.701 3.052-3.294 3.3-.416.173-.938.316-1.163.314-.224 0-.712-.081-1.084-.18s-.937-.403-1.251-.676c-.317-.273-.722-.823-.9-1.221-.18-.398-.326-1.089-.326-1.537s.14-1.114.313-1.48c.17-.368 2.434-2.971 5.026-5.786s5.44-5.92 6.327-6.9c.887-.977 1.68-1.953 1.76-2.168.081-.213.065-.837-.036-1.383a6.8 6.8 0 0 1-.034-1.99c.082-.545.306-1.358.498-1.807.19-.448.709-1.206 1.152-1.686.443-.481 1.13-1.066 1.527-1.3.398-.232 1.17-.55 1.718-.705m104.045.571c.199-.052.606-.054.904-.002.298.05.786.213 1.084.361.298.149.814.526 1.147.837.33.313.772.894.976 1.291.206.398.382 1.065.39 1.483.015.636-.086.871-.63 1.446-.638.674-.648.7-.422 1.41.127.398.237 1.008.246 1.357.015.496-.12.767-.622 1.264-.35.347-.636.797-.63.995.002.222-.58.94-2.985 3.309l-.395.037c.054.166.084.38.076.655l-.2-.361a2 2 0 0 0-.186-.265l-.832.08c-1.448.138-1.571.183-2.122.787-.322.352-.586.72-.586.82-.001.1-.66.833-1.461 1.628-.803.796-2.86 2.935-4.568 4.756-3.058 3.26-3.116 3.31-3.789 3.255-.648-.053-.75.017-3.516 3.016l-.973-.013c-.537-.007-1.238-.148-1.561-.316-.324-.166-.935-.648-1.36-1.071S.63 73.6.397 73.104c-.318-.68-.405-1.137-.356-1.848.063-.914.112-.99 1.645-2.531 1.336-1.341 1.582-1.678 1.582-2.175.002-.519.49-1.096 4.196-4.971 2.307-2.412 4.748-4.914 6.654-6.735v-2.35l1.672-1.672c1.227-1.23 1.79-1.67 2.124-1.67.247.003.778-.238 1.175-.536.398-.298.844-.545.995-.551.148-.005.658.195 1.988.903l.588-.428c.323-.236.75-.471.949-.522m-57.321.499.215.813c.117.449.256 1.017.31 1.266.08.376.287.506 2.378 1.097l.873-.819c.479-.451.967-.817 1.085-.815.116.004.924.534 1.793 1.175.87.643 1.582 1.231 1.582 1.305-.001.077-.215.628-.951 2.305l1.222 1.935 1.311-.109c1.133-.094 1.333-.065 1.474.208.088.175.363 1.05.61 1.944.436 1.58.44 1.645.133 2.26-.232.464-.561.741-1.242 1.04-.895.392-.93.432-.93 1.13 0 .686.053.755 1.083 1.4.649.407 1.085.805 1.085.995.001.174-.19.825-.425 1.446a29 29 0 0 1-.994 2.26c-.374.744-.676 1.127-.884 1.126-.174-.002-.805-.126-1.401-.276-.971-.246-1.127-.244-1.492.004-.224.151-.408.377-.409.501-.001.126.123.592.275 1.04.235.69.242.924.042 1.537-.223.68-.35.778-4.201 2.65l-.418-.42a8.6 8.6 0 0 1-.814-1.008c-.378-.56-.45-.587-2.746-.596L-35.69 75c-.298.6-.623 1.123-.723 1.162s-1.076-.217-2.17-.566c-1.093-.35-2.096-.728-2.228-.84-.165-.144-.204-.433-.125-.93.061-.397.152-.927.2-1.175.071-.378-.071-.566-1.824-1.864l-1.266.404c-.695.222-1.366.356-1.49.3-.126-.059-.715-.858-1.313-1.778-.596-.92-1.084-1.792-1.083-1.943.002-.15.125-.597.275-.994.165-.432.492-.85.814-1.04.498-.293.531-.373.426-1.085-.06-.423-.13-.81-.156-.859s-.557-.294-1.179-.542c-.62-.249-1.177-.533-1.234-.632-.056-.1-.085-.547-.064-.995.022-.45.14-1.539.263-2.424.174-1.262.3-1.66.584-1.84.201-.126.882-.223 1.536-.216 1.08.009 1.189-.024 1.331-.42.121-.339.035-.63-.4-1.338-.485-.792-.54-1.003-.426-1.706.116-.72.277-.927 1.574-2.039.796-.68 1.548-1.235 1.673-1.231.126.004.673.33 1.22.728.752.546 1.116.701 1.492.638.273-.047.584-.19.69-.317.11-.127.3-.597.427-1.045s.343-1.08.48-1.406l.252-.593zm-95.478.157c.342-.15.866-.212 1.296-.154.398.054 1.17.32 1.718.59.587.291 1.547 1.045 2.349 1.848.745.744 1.54 1.72 1.762 2.168s.458 1.098.524 1.447c.071.372.029.857-.103 1.175-.123.299-.582.848-1.022 1.22-.573.486-.965.677-1.386.673-.324-.004-1.036-.165-1.582-.356-.548-.192-1.056-.352-1.13-.356-.078.002-1.991 2.174-4.254 4.83-2.265 2.66-5.39 6.343-9.767 11.526l-2.368 1.311c-1.303.721-2.448 1.268-2.549 1.22-.099-.049-.18-.212-.18-.362s.459-1.43 2.041-5.423l2.377-2.802c1.309-1.54 4.049-4.795 6.09-7.233 2.043-2.436 4.074-4.877 5.311-6.417l-.35-.723a5.2 5.2 0 0 1-.42-1.537c-.062-.689.016-.935.499-1.604.314-.435.829-.903 1.144-1.04M2.073 69.385C.839 70.634.675 70.873.708 71.41c.02.334.183.933.362 1.33.179.398.623 1.03.99 1.402.365.374.89.79 1.163.927s.783.307 1.13.378c.605.123.68.076 1.78-1.108l1.15-1.237c-1.08-.31-1.637-.522-1.936-.674s-.848-.611-1.22-1.021c-.372-.408-.675-.846-.674-.971.001-.123.21-.43.46-.679l.46-.45-.897-1.339zM-78.721 48.07c-.832.009-1.607.146-2.26.4-.629.243-1.336.723-1.92 1.3-.65.643-1.046 1.24-1.33 2-.354.955-.39 1.292-.286 2.803.069.985.044 1.911-.056 2.17-.096.25-.894 1.228-1.772 2.176-.88.948-3.224 3.51-5.212 5.694a551 551 0 0 1-4.903 5.326c-1.068 1.126-1.312 1.497-1.426 2.17s-.063.968.293 1.696c.238.484.675 1.031.973 1.216.311.19.89.334 1.357.338.473.002 1.016-.13 1.3-.312.267-.173 1.853-1.894 3.525-3.821a3396 3396 0 0 0 3.853-4.455c.446-.522 1.89-2.178 3.209-3.68 1.317-1.503 2.578-2.786 2.802-2.855.225-.067 1.179-.133 2.124-.146 1.468-.018 1.848-.088 2.621-.487.497-.259 1.277-.865 1.73-1.348.52-.55.958-1.25 1.173-1.874.213-.61.347-1.493.348-2.289.002-.712-.06-1.363-.137-1.446-.079-.083-.933.642-1.898 1.61-1.312 1.315-1.872 1.76-2.21 1.75-.25-.005-.868-.146-1.374-.314-.587-.194-1.123-.536-1.471-.939-.3-.347-.638-.958-.748-1.355-.11-.398-.202-.906-.204-1.13 0-.27.577-.998 1.716-2.17.945-.969 1.656-1.825 1.582-1.903-.074-.076-.703-.134-1.4-.125m38.93 25.663c-.066.002-.168.126-.226.275-.058.148-.045.305.03.347.074.041.827.292 1.673.556 1.227.383 1.562.43 1.669.24.072-.132.135-.28.139-.33s-.705-.316-1.578-.591-1.64-.497-1.707-.497M62.84 49.35c.696-.013 1.957.096 2.803.244.844.147 2.106.465 2.802.705.696.242 2.16.84 3.255 1.332 1.093.49 2.21.948 2.485 1.013.273.067.826.426 1.231.799.404.372.87 1.044 1.04 1.492.216.577.302 1.338.293 2.621-.011 1.294-.129 2.218-.421 3.254-.225.795-.787 2.18-1.25 3.074-.578 1.12-1.211 2.001-2.02 2.827-.95.968-1.372 1.26-2.173 1.502-.753.228-1.148.259-1.627.123-.349-.097-1.325-.484-2.169-.862-1.23-.55-1.754-.685-2.622-.684-.75.002-1.307.12-1.807.384-.398.21-.9.572-1.11.805-.214.234-.652.953-.975 1.6-.322.645-.804 1.5-1.072 1.898-.265.398-.58.967-.696 1.266-.116.298-.436.76-.71 1.03a4.5 4.5 0 0 1-1.178.769 4.6 4.6 0 0 1-1.446.278c-.423-.002-1.175-.112-1.672-.244s-1.433-.503-2.079-.825a15.5 15.5 0 0 1-2.151-1.338 14 14 0 0 1-1.741-1.659 17 17 0 0 1-1.315-1.808 10 10 0 0 1-.857-1.989c-.206-.726-.27-1.352-.19-1.898.067-.465.476-1.434.953-2.26.461-.795 1.035-1.976 1.279-2.622.242-.647.646-1.582.9-2.079.252-.497.804-1.392 1.226-1.988.423-.597 1.375-1.655 2.118-2.35.745-.697 1.994-1.643 2.78-2.106a21 21 0 0 1 3.009-1.402c.87-.309 2.09-.633 2.712-.72.62-.086 1.7-.167 2.395-.182m-91.03 24.226c-.15.002-.756.212-1.347.466-.592.255-1.06.534-1.04.62.02.087.097.154.172.15s.665-.285 1.312-.623c.645-.34 1.051-.615.903-.613m135.799-2.17c.555-.002.853.104 1.135.406.209.228.428.617.486.864.058.25-.012.717-.155 1.04s-.424.669-.622.768c-.199.1-.606.181-.904.181q-.542 0-1.085-.543c-.334-.334-.55-.745-.564-1.07-.013-.338.156-.73.469-1.085.395-.451.629-.556 1.24-.561m-139.966.738c-.046.018-.534.063-1.085.1-.622.041-1.119.182-1.312.374-.172.168-.31.365-.309.441.004.074.594.132 1.314.128l1.311-.007c.84 1.14 1.143 1.47 1.22 1.468.074-.005.176-.13.226-.278.049-.15-.219-.72-.596-1.266-.378-.547-.725-.98-.769-.96M-180.28 59.459c-.224.004-.539.09-.7.196-.161.105-.383.387-.497.628-.116.247-.36.437-.565.437-.199 0-.358.101-.355.226s.147.33.316.456c.25.184.215.184-.177 0-.414-.195-.555-.183-.95.087-.254.173-.462.397-.462.497s.082.22.181.27c.1.05.181.172.181.272 0 .103-.214.133-.497.07-.374-.083-.633.004-1.04.348l-.542.459c.769.3 1.033.47 1.084.57.048.098-.188.037-.528-.137-.596-.303-.639-.303-1.129.032-.289.196-.414.373-.287.406.125.032.227.121.227.195s-.238.136-.528.136c-.318 0-.712.18-.993.452l-.464.452c1.116.91 1.442 1.256 1.442 1.356 0 .099-.264-.02-.587-.266s-.831-.452-1.13-.459c-.304-.005-.778.172-1.078.401l-.533.414c.663.14.904.298.962.44.086.214-.026.238-.616.132-.526-.096-.836-.056-1.13.146-.365.248-.38.31-.142.593.148.174.27.378.272.452s-.24.053-.538-.046c-.431-.144-.633-.115-.989.136-.245.173-.447.378-.451.452-.003.075.177.306.401.512.371.343.374.365.045.248a8 8 0 0 0-.723-.216c-.199-.049-.544.002-.768.114-.224.11-.448.384-.499.608-.049.213-.235.41-.479.515l-.217.078c-.264.106-.6.316-.799.504a1.33 1.33 0 0 0-.407.982c.003.323.087.75.186.95.1.198.425.442.723.541q.542.18.994 0c.248-.1.676-.466.949-.813.273-.35.619-.63.769-.627.148.003.412-.14.582-.317.172-.177.314-.423.316-.548.004-.124.29-.348.639-.497.347-.15.722-.453.831-.677.11-.225.148-.612.087-.86l-.113-.452.708.904c.728-.7.975-1.026 1.018-1.174.042-.15.323-.334.625-.408.331-.081.677-.35.866-.675.174-.299.46-.543.633-.543.174-.002.505-.227.735-.5.229-.272.576-.583.767-.692.194-.106.494-.451.667-.767.174-.315.357-.492.407-.393q.092.18.453 0c.198-.1.442-.385.542-.633.108-.27.326-.452.543-.452.198 0 .523-.205.722-.452.199-.25.401-.452.452-.452.049 0 .254-.204.452-.451.199-.25.462-.45.587-.448.125.004.368-.139.538-.316s.314-.586.316-.91q.004-.586-.446-1.038c-.25-.25-.635-.451-.859-.448m50.664-5.036c-.083-.034-.216.071-.3.232a.42.42 0 0 0 .079.512c.126.12.227.321.225.446 0 .124-.124.225-.272.225-.15 0-.333-.124-.407-.278-.104-.21-.512.174-1.685 1.582-.853 1.023-2.678 3.202-4.056 4.844-1.377 1.64-3.561 4.243-4.85 5.785-2.332 2.784-2.345 2.806-2.137 3.39.152.43.153.624.007.723-.112.074-.27.012-.353-.135-.083-.15-.181-.232-.218-.181-.038.053-.287.6-.551 1.22-.268.621-.487 1.19-.489 1.265-.001.074.262-.118.587-.427.326-.307.735-.612.909-.677.173-.064.314-.217.312-.342s.1-.322.227-.438c.175-.162.376-.145.862.068l.633.276c.84-1.061 2.258-2.76 3.693-4.459a1258 1258 0 0 1 5.243-6.148 776 776 0 0 0 3.673-4.294l1.04-1.23c-1.567-1.472-2.09-1.926-2.172-1.959m179.181 8.51c-1.088-.038-1.51.027-2.049.316-.372.2-.788.586-.924.859a5.7 5.7 0 0 0-.357.95c-.063.249.01.94.164 1.536.152.597.49 1.451.75 1.898.261.448 1.01 1.369 1.664 2.046s1.678 1.548 2.274 1.937c.597.387 1.573.879 2.17 1.092.596.213 1.532.394 2.079.401.68.01 1.178-.095 1.578-.334.321-.193.761-.676.978-1.074.324-.595.372-.897.278-1.718-.067-.567-.394-1.573-.766-2.35-.481-.998-.995-1.692-1.95-2.63-.961-.947-1.71-1.483-2.906-2.08-1.424-.708-1.776-.81-2.983-.849M-37.591 51.68c-1.05.434-1.732.7-2.19.868l-.833.308c-1.37-1.178-1.85-1.525-1.954-1.53-.102-.004-.69.4-1.31.897l-1.125.903 1.486 2.26-1.331 2.531-2.776.181c-.357 2.365-.356 2.749-.205 2.85.113.076.733.3 1.38.499l1.174.361c.463 1.89.647 2.58.705 2.754.074.215-.081.486-.478.842-.324.289-.777.677-1.006.86l-.417.331 1.851 2.712 2.42-1.032 2.982 2.208c-.197 1.33-.256 1.91-.262 2.147-.009.382.15.476 1.438.859.794.236 1.546.43 1.671.43s.402-.47.617-1.04c.212-.57.436-1.088.497-1.154.057-.061.82-.165 1.69-.226l1.58-.113c1.19 1.69 1.637 2.179 1.763 2.177.125-.004.754-.25 1.401-.549.645-.298 1.176-.604 1.177-.679s-.163-.624-.363-1.22l-.368-1.084 2.266-2.3c1.952.574 2.537.725 2.557.709.012-.02.277-.626.588-1.347.53-1.233.543-1.325.245-1.558a15 15 0 0 0-1.084-.724l-.769-.476.09-2.966c1.672-.694 2.188-.902 2.224-.91.029-.005-.114-.68-.317-1.501l-.37-1.493h-2.712l-1.669-2.44c.618-1.4.832-1.929.873-2.08.047-.17-.34-.573-1.043-1.084-.614-.447-1.204-.84-1.312-.875-.107-.034-.577.331-1.045.813l-.854.875c-1.62-.609-2.315-.832-2.588-.888-.443-.093-.519-.222-.689-1.145-.105-.57-.228-1.14-.271-1.266-.056-.157-.568-.226-1.706-.226h-1.628zm145.258 20.454c-.235 0-.566.141-.736.317a.76.76 0 0 0-.206.722c.056.222.263.489.462.588.199.1.525.14.724.091s.442-.254.542-.452c.132-.264.107-.487-.09-.814-.167-.278-.436-.452-.696-.452m-249.911.698c-.184 0-.455.142-.603.317-.15.173-.324.418-.389.543-.064.122.206.041.604-.18.395-.225.721-.47.723-.544 0-.076-.15-.136-.335-.136m-55.345-5.473-.013 5.745c.817.403.826.385.96-.97.076-.76.139-3.311.144-5.669l.006-4.29-1.085-.56zm450.633-2.093c.534.002 1.211.172 1.804.452.523.248 1.405.876 1.964 1.399.557.522 1.204 1.275 1.438 1.672.231.398.478 1.05.548 1.447.083.477.042.925-.126 1.32-.161.379-.484.701-.885.882a2.8 2.8 0 0 1-1.357.206c-.398-.044-1.211-.317-1.807-.607-.597-.291-1.451-.899-1.899-1.35-.446-.45-1.016-1.224-1.264-1.719-.292-.586-.452-1.208-.452-1.775-.001-.76.077-.944.59-1.401.477-.427.754-.528 1.446-.526m-239.64-2.734c-.241.09-.417.25-.392.357.026.108-1.14 1.45-2.589 2.988-2.601 2.76-2.636 2.807-2.59 3.56.043.729.084.78.859 1.063.448.167.813.413.813.548s-.162.27-.36.297c-.2.029-.729-.133-1.177-.361-.665-.336-.829-.52-.903-1.008l-.09-.597-1.99 1.971c.841.51 1.41.718 1.808.79.398.074 1.15.138 1.672.142l.95.007a337 337 0 0 1 5.283-5.514l2.31-2.35c-1.471-.614-2.162-1.082-2.486-1.434-.324-.355-.607-.64-.633-.633-.027.006-.243.086-.484.174m238.317 3.938c-.077.066-.126.37-.108.676s.211.924.428 1.372c.218.447.766 1.186 1.218 1.642s1.146.996 1.544 1.202 1.009.432 1.357.503.857.079 1.13.017c.272-.061.496-.191.497-.29-.001-.1-.102-.138-.227-.084-.126.054-.673-.068-1.22-.272a9.3 9.3 0 0 1-1.853-1.004c-.472-.347-1.059-.895-1.307-1.217-.246-.324-.644-1.055-.883-1.625-.24-.57-.498-.984-.576-.92m-294.148 2.75c-.077 0-.543.187-1.04.416-.496.228-.965.554-1.04.722s-.075.307 0 .31c.075.001.544-.169 1.04-.38l.904-.382c1.401 1.037 1.95 1.412 2.125 1.5.24.123.336.076.406-.2.07-.286-.161-.535-1.085-1.175-.647-.449-1.236-.814-1.31-.812M62.658 50.076c-.398.01-1.211.092-1.808.178a19 19 0 0 0-2.079.448c-.548.159-1.606.57-2.35.916-.747.345-1.844.978-2.441 1.405-.597.425-1.614 1.345-2.26 2.045-.647.698-1.44 1.706-1.761 2.239-.322.535-.874 1.664-1.226 2.508-.353.846-.745 1.741-.871 1.99l-.23.45c2.332-.119 3.023-.046 3.726.178.546.174 1.523.608 2.17.964.649.358 1.743 1.216 2.448 1.923.7.701 1.55 1.763 1.89 2.36.34.596.75 1.573.912 2.169l.293 1.085c1.328-2.672 1.84-3.42 2.321-3.824.398-.336 1.089-.734 1.537-.882s1.139-.266 1.536-.263c.398.006 1.17.163 1.718.35.545.188 1.013.328 1.04.312.025-.02-.07-.318-.21-.666-.14-.347-.313-1.12-.382-1.716-.072-.624-.03-1.7.094-2.532.121-.795.424-2.015.673-2.712.248-.695.707-1.75 1.02-2.342.312-.593.981-1.528 1.486-2.08.504-.55 1.278-1.18 1.718-1.4l.798-.402c-1.96-.868-3.223-1.365-4.067-1.661-.846-.299-2.311-.661-3.255-.802-.945-.143-2.043-.25-2.44-.238m190.194 15.73c-.061 0-.155.081-.209.18-.054.1-.022.485.072.86.094.372.461 1.062.814 1.535s.987 1.093 1.41 1.38 1.093.653 1.491.817.948.295 1.221.294c.272-.002.477-.097.452-.209s-.413-.298-.859-.412c-.447-.115-1.181-.459-1.627-.764-.447-.304-1.051-.832-1.34-1.168-.289-.338-.703-1.044-.92-1.565-.217-.522-.443-.949-.505-.949M14.117 56.417c-.12-.41-.125-.407-.73.19-.457.45-.603.738-.572 1.138.024.292.205.899.405 1.347.199.446.358.934.355 1.084-.006.149-.232.498-.503.773-.271.276-.636.498-.81.497-.173-.002-.412.179-.528.403-.117.226-1.235 1.49-2.485 2.81-1.765 1.862-2.365 2.389-2.678 2.35-.345-.046-.405.032-.406.534-.004.438-.236.867-.909 1.673-.497.597-.903 1.166-.903 1.266 0 .099.061.183.135.187s1.825-1.704 3.888-3.796c2.062-2.09 3.871-4.047 4.022-4.346.2-.401.472-.595 1.039-.745.423-.112.89-.289 1.04-.392.2-.137.412-.09.813.188.299.207.908.544 1.356.749.446.205.956.374 1.13.377.173.001.541-.186.814-.417l.497-.422a11.7 11.7 0 0 1-2.367-1.906c-.603-.625-1.41-1.586-1.79-2.132-.382-.548-.748-1.182-.813-1.41m-194.849-6.891c-.076.008-1.236.947-2.576 2.085a2355 2355 0 0 1-7.447 6.267l-5.006 4.197c-.018 7.04.043 8.586.159 8.587.1 0 .568-.329 1.039-.73.472-.401 1.713-1.44 2.758-2.31 1.043-.87 2.181-1.78 2.53-2.02.347-.242.843-.645 1.1-.898.256-.254 1.091-.948 1.854-1.544.765-.597 1.756-1.43 2.2-1.854.447-.423 1.037-.878 1.31-1.016a2.4 2.4 0 0 0 .782-.677c.157-.237.546-.552.866-.702l.58-.27c-.01-7.07-.075-9.12-.149-9.115m133.83 17.88c-.048.001-.088.063-.085.136.005.079.269.614.588 1.195.32.584.727 1.194.904 1.356.275.253.321.256.318.026-.004-.149-.372-.82-.82-1.493-.447-.67-.854-1.22-.905-1.22m301.083-1.246c-.242-.129-.354-.129-.361 0-.005.103.132.484.305.847.174.362.684.99 1.13 1.393.447.401 1.159.878 1.582 1.057.422.179.808.303.861.28.05-.025.031-.198-.045-.384-.076-.188-.382-.438-.68-.556-.298-.117-.899-.535-1.335-.925s-.862-.895-.949-1.118-.314-.491-.508-.594m-279.933 2.398c-.1-.038-.285.094-.408.293-.21.343-.158.378.865.59.597.124 1.129.185 1.18.137.05-.051.089-.18.085-.29-.003-.108-.352-.3-.773-.428-.421-.127-.848-.262-.95-.302m36.065-8.868a229 229 0 0 1-4.001 4.238c-1.833 1.89-2.321 2.5-2.321 2.893 0 .273.163.761.362 1.085s.423.59.497.594.226-.096.336-.226c.11-.129.192-.49.18-.803-.012-.341.124-.72.343-.954.198-.212.524-.387.723-.387.227 0 1.136-.815 2.44-2.186 1.143-1.204 2.222-2.42 2.396-2.706s.46-.517.633-.514.46-.159.633-.361c.256-.298.276-.443.108-.774a10 10 0 0 1-.43-1.074l-.221-.667zm157.213-3.272c.125-.007.653.079 1.176.189a9.2 9.2 0 0 1 1.807.633c.472.236 1.19.775 1.595 1.198s.891 1.093 1.083 1.491.423 1.172.514 1.718c.101.602.101 1.335.002 1.853-.091.472-.359 1.246-.594 1.718s-.745 1.137-1.13 1.479a7.5 7.5 0 0 1-1.515.992c-.618.282-1.184.372-2.35.374-1.287.002-1.698-.074-2.531-.474-.546-.26-1.349-.788-1.783-1.175-.443-.392-1.02-1.175-1.316-1.784-.291-.596-.576-1.533-.636-2.079a5.3 5.3 0 0 1 .171-1.99c.154-.545.556-1.358.894-1.807.336-.448 1.008-1.057 1.495-1.355a7.2 7.2 0 0 1 1.887-.754c.552-.115 1.105-.217 1.231-.227m-93.75-2.983c-.25-.049-.67-.03-.94.045a5.5 5.5 0 0 0-.994.412c-.278.154-.912.715-1.405 1.248-.557.602-1.188 1.587-1.663 2.596-.421.895-.89 2.155-1.043 2.802-.152.646-.279 1.867-.282 2.712-.002.873.11 1.887.26 2.35.146.447.513 1.078.815 1.401.456.487.684.588 1.32.584a3.2 3.2 0 0 0 1.491-.426c.398-.234 1.11-.863 1.583-1.398.471-.537 1.116-1.463 1.431-2.06.315-.596.762-1.653.995-2.349s.51-1.877.618-2.622c.143-.987.14-1.65-.007-2.44-.11-.597-.342-1.32-.512-1.61a3.3 3.3 0 0 0-.763-.84c-.25-.173-.656-.356-.904-.405m93.705 5.752c-.506-.038-1.261.05-1.717.2a7 7 0 0 0-1.514.767c-.385.275-.892.825-1.125 1.222-.235.398-.427.967-.427 1.265s.168.908.374 1.356c.204.447.629 1.127.943 1.51.347.423 1.039.922 1.749 1.262.947.454 1.403.562 2.35.56.858-.001 1.437-.122 2.151-.446.537-.246 1.249-.75 1.582-1.123.457-.513.606-.844.608-1.355.001-.375-.116-1.085-.259-1.582-.161-.563-.562-1.248-1.056-1.809-.515-.586-1.143-1.055-1.775-1.332-.539-.235-1.387-.457-1.884-.495m107.977-2.783c.413 0 .749.161 1.13.543.394.394.557.744.595 1.28.029.408.02 1.201-.019 1.764-.04.562-.27 1.553-.512 2.199s-.722 1.561-1.066 2.033c-.343.472-.889 1.022-1.212 1.22-.324.198-.852.36-1.175.362-.364 0-.751-.155-1.013-.406-.235-.224-.519-.732-.633-1.13a6.3 6.3 0 0 1-.204-1.446c.002-.398.123-1.232.27-1.854s.432-1.456.631-1.853a7.7 7.7 0 0 1 .949-1.387c.323-.363.831-.811 1.13-.992.298-.183.806-.331 1.129-.333m.166.725c-.085 0-.085.182 0 .406.083.223.142 1.016.131 1.762-.014 1.052-.136 1.636-.543 2.617-.309.749-.871 1.65-1.38 2.215-.786.873-.824.953-.438.953.24 0 .69-.267 1.039-.618.34-.34.837-1.052 1.107-1.582.267-.53.614-1.452.768-2.049.156-.596.282-1.39.282-1.762-.001-.375-.089-.902-.197-1.175-.107-.275-.289-.556-.406-.63a.9.9 0 0 0-.363-.137m-.843.179c-.099 0-.191.06-.202.136-.013.075-.004.543.017 1.04.024.497-.096 1.392-.267 1.988-.17.597-.472 1.41-.671 1.808a6.4 6.4 0 0 1-.931 1.31c-.383.396-.508.65-.387.777.124.125.439-.091.986-.68.443-.476 1.007-1.313 1.253-1.86.283-.632.477-1.457.531-2.26.047-.695.033-1.489-.032-1.762-.064-.274-.198-.497-.297-.497M14.998 62.164c-.11 0-.167.103-.123.226.043.125.48.449.97.72s1.156.495 1.48.497c.323.002.586-.056.587-.132 0-.074-.244-.155-.542-.18s-.868-.209-1.266-.408c-.397-.199-.763-.442-.813-.542a.36.36 0 0 0-.293-.18m258.842-3.95c-.07 0-.16.06-.202.135s-.136.543-.206 1.04a8.2 8.2 0 0 1-.52 1.783c-.215.486-.496.975-.624 1.085-.13.113-.228.407-.221.657l.015.452a8.4 8.4 0 0 0 1.22-1.899c.25-.547.502-1.502.56-2.124.058-.62.047-1.13-.022-1.13M-47.028 62.01c-1.008-.302-1.12-.306-1.093-.046.019.172.475.474 1.122.741.599.25 1.152.392 1.227.319.074-.072.074-.256 0-.406s-.64-.423-1.256-.608m214.509-4.693c-.597.009-1.41.138-1.808.286-.397.15-.96.448-1.251.665-.289.217-.743.722-1.008 1.12l-.482.723c1.423-.93 2.244-1.316 2.741-1.461.497-.143 1.291-.26 1.763-.259.472 0 1.285.16 1.808.35.529.196 1.376.737 1.915 1.221.531.48 1.182 1.3 1.446 1.823.262.52.493.925.512.904.016-.025-.046-.435-.136-.906-.092-.474-.319-1.164-.505-1.536-.186-.375-.775-1.07-1.31-1.546-.536-.476-1.338-.986-1.787-1.132-.446-.147-1.302-.26-1.898-.252m-348.988-9.009c-.512-.193-.606-.161-1.313.466-.418.371-3.042 2.58-5.827 4.908a3549 3549 0 0 1-6.814 5.68c-.96.796-1.754 1.489-1.765 1.538-.008.05.231.192.532.316.544.224.575.204 3.031-1.898 1.367-1.168 4.762-4.023 7.548-6.342 2.783-2.318 5.083-4.27 5.114-4.34.024-.067-.204-.214-.506-.328m197.471 3.405-1.09 1.142-.164 3.254c1.43 2.072 2.354 3.15 2.976 3.731.621.583 1.23 1.06 1.355 1.062s.633-.406 1.13-.907c.497-.498 1.047-.906 1.221-.905.173.002.318.063.32.137.001.075-.425.525-.949 1s-.885.921-.805.994.773.031 1.538-.09c1.277-.204 1.462-.291 2.317-1.085.511-.475.938-.925.95-1 .008-.074-.695-.131-1.563-.128l-1.582.007a65 65 0 0 0-2.424-3.321c-1.03-1.33-1.452-1.746-1.689-1.672-.173.054-.358.016-.407-.083-.05-.1-.014-.324.076-.497.098-.183.107-.834.024-1.548l-.143-1.231zm3.177-2.319-.847.567c-.02 3.03.021 3.222.477 3.844a68 68 0 0 0 1.491 1.919c.631.784 1.29 1.386 1.808 1.646.446.228 1.26.515 1.808.64l.995.229c1.675-1.714 1.723-1.812 1.62-2.492-.06-.397-.143-.784-.187-.859-.044-.073-.527.314-1.072.86-.548.547-1.137.993-1.31.994-.174 0-.806-.23-1.402-.51-.638-.3-1.329-.803-1.678-1.22a8.7 8.7 0 0 1-.945-1.434c-.195-.398-.358-1.049-.361-1.447-.008-.656.086-.808 1.035-1.65l1.045-.93c-1.188-.591-1.554-.754-1.581-.744-.027.012-.429.275-.896.587m54.2 7.657c.188-.217.305-.227.59-.052.197.118.356.318.355.443a.34.34 0 0 1-.229.299c-.125.039-.388-.04-.587-.174-.3-.206-.322-.292-.129-.516m-203.399-5.642c.06.397.32 1.088.576 1.536.257.446.672 1.058.921 1.356.25.299.826.85 1.281 1.224a7.7 7.7 0 0 0 1.824 1.05c.546.203 1.158.344 1.357.313.231-.036-.028-.2-.724-.46-.596-.223-1.533-.76-2.079-1.196a13 13 0 0 1-1.757-1.765c-.421-.537-.931-1.38-1.137-1.878l-.372-.904zm152.535-1.718c-.082 0-.621.468-1.2 1.039-1.018 1.008-1.046 1.061-.921 1.763.07.397.311 1.009.535 1.356.224.349.563.76.75.918.185.157.726.503 1.197.769.472.265.94.482 1.04.482s.181-.081.181-.18c0-.1-.183-.22-.407-.264-.33-.069-.363-.129-.175-.317.188-.19.304-.188.633.007.37.224.466.175 1.262-.633.473-.478.859-.934.858-1.008-.002-.075-.184-.137-.408-.14-.224-.001-.753-.206-1.176-.451s-1.016-.794-1.32-1.217c-.301-.423-.583-1.074-.626-1.446-.042-.373-.143-.678-.223-.678m-150.749-.363c-.407.001-.806.056-.89.123-.083.066-.135.452-.117.858s.208 1.104.423 1.55c.215.45.926 1.346 1.58 1.995.653.649 1.595 1.377 2.092 1.615.497.239 1.229.468 1.627.513.537.058.792-.004.994-.24.148-.176.253-.571.23-.88-.024-.307-.222-.926-.441-1.374-.219-.447-.933-1.348-1.586-2-.663-.664-1.624-1.401-2.181-1.674-.592-.291-1.292-.488-1.731-.486m83.081 4.9c-.11-.039-.034.205.168.543s.473.65.6.692c.133.046.063-.184-.168-.542-.219-.339-.49-.651-.6-.692m268.56-1.087a.28.28 0 0 1 .316-.121c.11.038.23.224.263.416.03.192-.071.408-.227.482-.2.096-.313.029-.376-.225-.05-.199-.039-.447.024-.552m.967-.896c.102 0 .234.102.295.227s.058.39-.006.588c-.108.34-.134.343-.426.054-.188-.188-.26-.418-.179-.588.071-.154.213-.28.316-.28M24.155 48.787c-.468 0-.682.104-.837.408-.154.303-.156.578-.004 1.084.11.372.466.973.79 1.335.324.361.893.808 1.266.994.372.186.864.338 1.093.338s.516-.101.637-.226.219-.45.217-.724-.136-.76-.295-1.084a5.7 5.7 0 0 0-.769-1.101c-.262-.282-.701-.628-.974-.769-.273-.139-.779-.254-1.124-.255m200.814 2.556c.051 0 .178.225.281.497.115.313.121.564.014.678-.11.117-.244.023-.382-.272-.117-.247-.166-.552-.11-.677s.145-.225.197-.226M-133.6 2.325c.204 0 1.451.538 2.768 1.196 1.318.658 3.352 1.716 4.52 2.35s2.184 1.256 2.256 1.38c.075.126.687 1.447 1.363 2.938.835 1.846 1.429 3.49 1.858 5.152.345 1.342.626 2.582.627 2.757-.003.175-.784 1.762-1.74 3.526-.954 1.764-1.869 3.348-2.034 3.52-.165.171-2.048 1.29-4.184 2.485-2.353 1.32-4.081 2.177-4.383 2.177-.273-.002-1.291-.4-2.26-.889-.969-.486-2.918-1.524-6.894-3.722l-2.182-4.43c-1.202-2.434-2.181-4.57-2.18-4.746.001-.175.447-1.518.99-2.982a135 135 0 0 1 2.356-5.891l1.628-.994c.895-.548 2.863-1.633 4.373-2.412 1.508-.777 2.912-1.414 3.118-1.415m205.222-.006c.593-.004.989.127 1.524.507.398.28.922.831 1.164 1.225.278.449.447.998.452 1.48.011.753-.038.817-5.774 6.531l.344.51c.19.28.498.956.682 1.504.184.545.333 1.258.333 1.582a3.8 3.8 0 0 1-.244 1.175c-.132.324-.437.718-.678.875-.092.061-.22.122-.357.182.218.449.414.917.522 1.273.2.645.36 1.643.358 2.214-.002.572-.112 1.304-.244 1.627-.134.324-.52.821-.859 1.107-.56.47-.721.512-1.724.452-.938-.056-1.268-.177-2.158-.79-.578-.398-1.4-1.172-1.827-1.718-.426-.546-.976-1.401-1.22-1.898-.148-.3-.326-.762-.483-1.221l-.135.139a6371 6371 0 0 0-6.192 6.345c-3.563 3.654-3.778 3.842-4.424 3.842-.372-.002-.942-.164-1.266-.361a1.78 1.78 0 0 1-.786-1.04c-.11-.373-.142-.882-.074-1.13.067-.25.498-.859.955-1.356.458-.497 3.217-3.366 11.43-11.841l-.548-.859c-.3-.472-.668-1.265-.814-1.763-.149-.497-.266-1.23-.262-1.627.002-.398.104-.924.225-1.168.123-.244.51-.639.858-.875.52-.356.792-.417 1.536-.345.497.047 1.393.332 3.074 1.184l2.905-2.878c2.866-2.84 2.915-2.879 3.707-2.884M-82.29 1.614c.372-.094 1.166-.125 1.762-.07s1.573.274 2.17.488c.597.211 1.571.67 2.166 1.017s1.74 1.282 2.545 2.077c1.143 1.13 1.631 1.783 2.231 2.984.583 1.168.79 1.819.865 2.712.054.645.007 1.52-.104 1.943-.14.539-.511 1.087-1.24 1.83-.705.721-1.273 1.128-1.763 1.266-.398.11-1.13.2-1.627.2a9 9 0 0 1-1.807-.235c-.897-.232-.908-.23-1.357.299-.25.292-.676.641-.949.777-.334.166-.534.44-.612.835-.064.323-.247.785-.407 1.025s-.556.546-.88.678-.586.363-.586.512c0 .148-.245.414-.541.587-.322.188-.541.465-.537.678.003.2-.181.6-.409.892-.226.29-.676.635-1 .767-.466.19-.585.343-.582.737.004.287-.186.707-.452.994-.251.273-.661.539-.909.588-.32.063-.503.262-.622.677-.094.324-.461.852-.814 1.175-.354.324-.826.626-1.05.671-.225.047-.814.122-1.31.165-.498.046-1.698.313-2.669.595-1.565.455-1.794.482-2.027.242-.22-.226-.233-.554-.081-1.99.1-.945.131-2.165.068-2.711-.08-.7-.029-1.207.17-1.717.155-.397.528-.905.828-1.13.416-.309.545-.548.541-.995-.003-.345.163-.806.406-1.117.226-.29.677-.635 1-.768.48-.195.588-.338.588-.78 0-.355.183-.732.528-1.086.29-.298.636-.54.768-.539.14.002.298-.305.376-.723.098-.525.312-.864.773-1.224.348-.273.678-.7.733-.948a3.2 3.2 0 0 1 .36-.86c.143-.224.545-.53.892-.678.38-.162.632-.398.63-.587.001-.174.195-.601.865-1.582l-.342-.859c-.217-.548-.338-1.3-.337-2.079.004-.788.122-1.477.335-1.943.181-.398.567-.998.856-1.336.287-.336.83-.763 1.202-.95a8 8 0 0 1 1.355-.504m50.124 2.714c.943-.01 2.408.101 3.254.246.845.144 2.146.48 2.893.745.745.264 1.999.858 2.787 1.32.786.46 1.971 1.367 2.63 2.013.66.645 1.497 1.705 1.856 2.35.36.646.781 1.664.937 2.26.179.689.28 1.876.28 3.255 0 1.4-.102 2.553-.286 3.254a13 13 0 0 1-.837 2.169c-.302.596-1.047 1.606-1.654 2.242-.606.636-1.672 1.533-2.368 1.996-.696.461-1.979 1.1-2.848 1.42-.87.317-2.334.711-3.254.872-1.226.213-2.275.265-3.933.19-1.375-.06-2.862-.249-3.796-.484-.846-.21-2.148-.667-2.893-1.016-.747-.35-1.844-.982-2.44-1.407a14 14 0 0 1-1.946-1.75 13.6 13.6 0 0 1-1.486-2.153c-.343-.645-.747-1.744-.898-2.44-.15-.696-.277-1.957-.279-2.803s.083-2.024.192-2.621c.106-.597.468-1.655.802-2.35.333-.697 1.04-1.747 1.568-2.333.53-.587 1.45-1.416 2.047-1.839a20 20 0 0 1 2.35-1.393c.696-.344 1.672-.757 2.17-.921.496-.163 1.473-.41 2.17-.549.695-.14 2.036-.263 2.981-.273m93.655 9.928c-.078.004-2.41 2.342-5.189 5.198-2.778 2.858-5.516 5.705-6.082 6.328-.567.622-1.03 1.293-1.03 1.492s.205.566.452.813c.25.25.656.452.903.453.35 0 1.223-.793 3.84-3.481 1.862-1.915 4.61-4.72 6.103-6.232l.693-.705-.013-.044c-.177-.687-.266-1.514-.213-1.99.05-.446.223-1.077.383-1.4q.095-.188.254-.365-.079-.068-.101-.067M-121.841 19.5c-.089 0-.207.08-.261.18-.056.1-1.057.74-2.224 1.42a145 145 0 0 1-3.118 1.774c-.922.498-1.11.723-2.561 3.056-.86 1.381-1.53 2.533-1.493 2.564.042.025.627-.25 1.297-.61.671-.36 2.22-1.235 3.442-1.943l2.222-1.29c1.852-3.36 2.494-4.519 2.623-4.744s.161-.407.073-.407M22.399 4.08c.447-.216.937-.297 1.481-.245.447.042 1.139.24 1.537.44a9 9 0 0 1 1.446.988c.398.34 1 1.141 1.34 1.777.437.823.641 1.474.703 2.244.047.596-.004 1.368-.112 1.717-.147.465-1.149 1.549-3.777 4.077a1045 1045 0 0 1-7.021 6.69 514 514 0 0 1-5.288 4.917c-1.26 1.142-2.03 1.707-2.432 1.781-.333.063-1.018-.015-1.582-.177-.548-.158-1.331-.554-1.741-.877-.41-.326-1.01-.917-1.33-1.315a10.4 10.4 0 0 1-.99-1.536c-.226-.448-.46-1.119-.524-1.491a4 4 0 0 1 .056-1.357c.137-.542.801-1.296 3.3-3.753 1.72-1.692 5.634-5.434 8.697-8.316s5.868-5.385 6.237-5.564m-163.674 4.484c-.199-.041-.584.003-.858.097-.438.15-.63.513-1.604 3.016-1.081 2.784-1.104 2.88-1.032 4.294.069 1.397.128 1.566 1.782 4.978l1.712 3.529a113 113 0 0 0 5.018 2.768c1.863.968 2.61 1.268 2.982 1.202.275-.05.715-.314.979-.588.264-.275.976-1.291 1.582-2.262 1.053-1.686 1.1-1.811 1.1-2.937 0-1.034-.163-1.591-1.363-4.656-.766-1.956-1.655-3.902-2.033-4.449-.369-.532-.997-1.157-1.395-1.387s-2.024-1.12-3.615-1.974c-1.591-.857-3.056-1.591-3.255-1.631M-93.598 25.9c-.356-.454-.413-.476-.407-.163.001.199-.056.79-.13 1.312-.123.878-.107.951.227.939.2-.008.809-.153 1.357-.322l.994-.311c-1.262-.723-1.813-1.168-2.041-1.455m48.242-6.174c-.004.076.184.563.418 1.084.235.523.805 1.457 1.266 2.08.46.621 1.387 1.542 2.058 2.046s1.749 1.168 2.396 1.474c.645.305 1.947.748 2.892.985s2.531.48 3.526.542c1.323.081 2.318.027 3.707-.204 1.043-.174 2.386-.494 2.982-.71s1.655-.708 2.35-1.093c.778-.432 1.789-1.23 2.622-2.073.933-.946 1.538-1.754 1.943-2.595.324-.67.59-1.32.594-1.446.003-.125-.209.1-.469.497-.26.398-.976 1.235-1.587 1.86-.613.628-1.725 1.494-2.47 1.928-.746.432-1.925.99-2.622 1.24s-1.997.591-2.892.761c-1.244.237-2.204.287-4.067.215-1.879-.073-2.837-.204-4.159-.574-.945-.264-2.328-.8-3.073-1.19-.746-.391-1.824-1.078-2.395-1.526-.572-.449-1.346-1.204-1.718-1.682a37 37 0 0 1-.985-1.31c-.169-.244-.311-.383-.317-.309M-183.507 1.422c.161.002.658.113 1.104.248.449.134 1.182.429 1.628.653.449.226 1.424.835 2.169 1.354 1.182.823 1.532 1.205 2.731 3.004 1.263 1.895 1.42 2.237 1.948 4.232.502 1.899.542 2.214.322 2.53-.138.199-.555.727-.928 1.176-.372.446-1.135 1.199-1.697 1.667-.56.47-1.121.856-1.246.858-.125.004-.49.334-.814.735s-.708.768-.858.818c-.149.047-.903-.16-3.073-1.005l-1.04.933c-.572.513-2.215 1.998-3.651 3.3a1876 1876 0 0 1-4.338 3.92c-.951.855-1.911 1.647-2.135 1.763-.225.114-.794.206-1.266.204s-1.204-.164-1.627-.361-1.226-.785-1.783-1.307c-.582-.544-1.238-1.393-1.536-1.99-.287-.57-.573-1.343-.635-1.716a4.9 4.9 0 0 1 0-1.357c.087-.52.394-.96 1.334-1.898.671-.67 3.05-2.84 5.288-4.821a835 835 0 0 1 4.305-3.797c.197-.161.183-.356-.385-2.003l1.253-3.797 1.255-.956c.69-.526 1.733-1.28 2.319-1.673.585-.394 1.194-.715 1.356-.714M6.083 21.126c-.353 0-.752.138-.927.317-.231.238-.289.537-.23 1.22a6 6 0 0 0 .468 1.718c.214.449.78 1.208 1.255 1.689.477.482 1.173 1.03 1.546 1.22.372.19 1.023.349 1.446.354.504.005.862-.098 1.04-.3.151-.172.267-.633.262-1.047-.005-.444-.225-1.166-.543-1.802-.293-.582-.9-1.403-1.347-1.823-.448-.42-1.159-.938-1.582-1.153s-1.047-.393-1.388-.393m-203.945-1.077c-.398.002-.851.086-1.011.187-.157.1-.381.502-.497.896-.115.396-.158.942-.094 1.215.065.273.309.884.543 1.356.235.471.772 1.231 1.195 1.685.423.456 1.175 1.025 1.672 1.268s1.172.44 1.499.438c.395 0 .746-.153 1.039-.453.323-.327.445-.652.445-1.176 0-.398-.159-1.15-.352-1.672-.194-.522-.702-1.346-1.13-1.833-.429-.488-1.185-1.117-1.682-1.401-.585-.333-1.159-.512-1.627-.51m104.795 1.44c-.085 0-.284.143-.44.316s-.366.52-.463.768c-.123.309-.113.705.032 1.256.138.528.477 1.076.98 1.583.423.428 1.237.992 1.808 1.254.795.366 1.21.452 1.763.372.493-.07.88-.278 1.22-.658.272-.303.496-.633.497-.733 0-.1-.387-.263-.859-.362s-1.366-.504-1.988-.904c-.622-.397-1.378-1.069-1.68-1.492-.301-.422-.585-.91-.633-1.084-.045-.173-.152-.316-.237-.316m113.1-14.42c-1.41 1.319-4.314 4.059-6.454 6.09a749 749 0 0 0-5.567 5.334c-.92.902-1.674 1.7-1.673 1.775.003.074.187.136.41.138.225 0 .815.235 1.312.52s1.291.935 1.763 1.445 1.059 1.352 1.304 1.875.47 1.254.498 1.627c.026.369.07.673.095.677.025 0 2.137-1.972 4.694-4.384 2.558-2.411 6.157-5.83 8-7.598s3.45-3.395 3.57-3.616c.122-.221.225-.748.226-1.17.004-.423-.137-1.156-.312-1.627-.177-.472-.604-1.217-.95-1.655-.345-.437-1.035-1.026-1.533-1.308-.677-.385-1.144-.514-1.862-.516l-.958-.002zM-31.261 5.13c-.846-.04-2.148.011-2.893.11-.746.102-2.088.42-2.983.708-.895.289-2.239.887-2.984 1.328-.746.443-1.798 1.197-2.338 1.678-.541.479-1.299 1.36-1.682 1.957-.383.596-.859 1.614-1.054 2.26a9.2 9.2 0 0 0-.352 2.395c.002.844.14 1.598.452 2.44.248.673.755 1.662 1.13 2.198.374.537 1.047 1.3 1.495 1.698.446.396 1.22.986 1.717 1.311s1.514.837 2.26 1.14 1.966.691 2.712.863c.978.226 2.112.31 4.068.304 2.176-.01 2.996-.087 4.158-.398.795-.211 2.218-.768 3.164-1.235 1.38-.683 2.003-1.133 3.183-2.303 1.105-1.095 1.612-1.765 2.058-2.72.325-.695.676-1.711.777-2.26.13-.699.125-1.368-.018-2.259-.125-.783-.463-1.78-.888-2.616-.403-.8-1.09-1.765-1.677-2.36a16 16 0 0 0-2.17-1.769c-.647-.42-1.805-1.005-2.576-1.302-.77-.296-1.99-.665-2.712-.817-.72-.152-2.003-.31-2.847-.35m-165.245 13.745c-.456-.085-.711-.039-.91.163-.245.252-.245.28 0 .283.152.002.704.204 1.226.452.523.248 1.341.837 1.822 1.308s1.1 1.308 1.376 1.854c.275.548.553 1.376.618 1.842.094.695.16.81.364.633.171-.15.224-.518.172-1.21-.04-.546-.27-1.4-.51-1.898-.239-.497-.846-1.301-1.347-1.786-.502-.486-1.199-1.028-1.546-1.203a5.7 5.7 0 0 0-1.265-.438m426.118-8.298c.105.061.18.227.17.37-.011.144-1.216 1.38-2.68 2.747-1.462 1.366-3.559 3.34-4.658 4.384a947 947 0 0 1-4.661 4.383c-1.681 1.57-2.763 2.454-2.935 2.396-.148-.049-.274-.152-.278-.226-.006-.074 1.318-1.4 2.937-2.945 1.62-1.546 4.965-4.702 7.431-7.015 2.466-2.31 4.568-4.151 4.674-4.094m-320.72 8.207c-.05.004-.36.144-.69.31-.512.26-.547.313-.226.355.318.043.377.177.377.864 0 .448-.082.813-.182.813s-.242-.246-.316-.546-.196-.543-.27-.541-.134.146-.132.319.164.662.361 1.085.703 1.11 1.126 1.528 1.215.961 1.763 1.21c.58.261 1.347.455 1.838.46.664.01.946-.085 1.315-.441.26-.248.47-.594.467-.768-.002-.197-.192-.357-.501-.422a14 14 0 0 1-1.04-.278c-.299-.096-.868-.361-1.266-.59-.398-.232-1.022-.776-1.388-1.214-.367-.437-.776-1.101-.908-1.474-.134-.372-.28-.674-.329-.67m-104.61-1.088c-.212-.002-.477.12-.587.267-.166.226-.054.318.658.55.472.153 1.285.602 1.808.994.533.403 1.267 1.211 1.677 1.846.427.66.821 1.556.95 2.154.121.564.282.992.356.95.074-.044.137-.504.139-1.025.003-.522-.11-1.233-.253-1.582-.141-.347-.57-1.054-.953-1.57-.383-.514-.981-1.154-1.328-1.42a9 9 0 0 0-1.357-.822c-.398-.186-.897-.339-1.11-.342m257.739.637c.189.595.47 1.299.701 1.733.293.546.884 1.401 1.313 1.898.443.514 1.204 1.12 1.762 1.404.54.274 1.227.496 1.526.493.298-.002.643-.065.766-.137.141-.083-.16-.3-.813-.583-.593-.257-1.492-.875-2.096-1.446-.771-.727-1.262-1.408-1.807-2.52-.363-.735-.55-1.14-.648-1.562zm-256.733-1.543c-.257 0-.523.06-.59.133-.066.075.428.391 1.099.703.881.409 1.499.87 2.216 1.65.546.597 1.19 1.482 1.431 1.965.238.484.482 1.18.542 1.547.087.546.152.629.352.452.181-.158.214-.458.123-1.12-.067-.497-.341-1.305-.607-1.796s-.892-1.298-1.389-1.795c-.497-.495-1.31-1.088-1.807-1.32-.497-.23-1.113-.418-1.37-.42m258.077.168c.061.36.137.697.218.939.182.546.582 1.36.885 1.808.306.446.91 1.162 1.344 1.588.434.425 1.113.928 1.51 1.117.398.188.925.368 1.173.399.283.038.467-.04.505-.212.04-.18-.233-.39-.807-.62-.486-.197-1.275-.754-1.788-1.266-.595-.593-1.163-1.427-1.61-2.362-.306-.643-.484-1.082-.593-1.53q-.22-.116-.457-.248zM-124.58 8.333c-.134-.023-.814.27-1.509.654-.697.385-2.282 1.305-3.526 2.048-1.78 1.062-2.272 1.44-2.319 1.788-.034.24.398 1.619.96 3.06a303 303 0 0 0 1.824 4.564c.441 1.07.862 1.944.937 1.947.076.002 1.275-.66 2.667-1.472s2.979-1.77 3.525-2.133c.884-.585.987-.718.931-1.195-.036-.295-.372-1.595-.748-2.888s-1.092-3.245-1.591-4.338c-.499-1.094-1.019-2.01-1.151-2.035m-68.706 7.496c-.405-.06-.793-.007-.994.136-.298.213-.271.244.304.34.349.06 1.157.455 1.797.882s1.468 1.182 1.841 1.68c.374.497.844 1.27 1.048 1.717.203.449.371 1.038.373 1.311.001.273.085.497.184.497s.222-.122.271-.271.092-.535.094-.859-.235-1.075-.526-1.672c-.291-.596-.882-1.455-1.315-1.907-.43-.452-1.149-1.032-1.597-1.289s-1.113-.51-1.48-.564m103.187.97c-.372.281-.493.522-.479.95.011.317.177.9.367 1.298.191.398.759 1.11 1.263 1.582s1.263 1.02 1.684 1.217c.423.197 1.175.364 1.672.37.614.006 1.03-.094 1.301-.314.217-.177.422-.48.453-.672.043-.275-.093-.381-.624-.497-.373-.082-1.063-.344-1.537-.582-.471-.237-1.256-.787-1.743-1.22s-1.104-1.174-1.372-1.65l-.486-.86zm155.201.482q.127.353.304.706c.3.596.813 1.405 1.14 1.798.328.392.96.941 1.409 1.221.447.28.914.51 1.04.508.124-.002.225-.165.225-.363 0-.213-.204-.464-.497-.613-.273-.137-.859-.645-1.302-1.13-.36-.395-.818-1.055-1.126-1.609a13 13 0 0 1-1.193-.518m-256.91-2.614c-.557-.061-.882-.012-1.032.158-.177.2-.046.32.724.648.519.22 1.419.832 2.001 1.356a6.8 6.8 0 0 1 1.677 2.218c.342.696.667 1.552.725 1.899.077.473.144.563.261.361.089-.148.162-.577.163-.95.002-.372-.079-.901-.18-1.174s-.143-.537-.094-.588c.051-.047.166.116.256.363.092.249.273.695.401.994l.236.542c.088-.97-.081-1.541-.43-2.215a10 10 0 0 0-1.357-1.898c-.45-.472-1.204-1.03-1.677-1.24-.472-.211-1.226-.423-1.674-.474m362.361-3.626c.298-.009 1.032.073 1.628.183a10 10 0 0 1 2.079.674c.548.262 1.257.743 1.581 1.068s.751.917.95 1.315c.225.454.36 1.078.358 1.673-.002.536-.15 1.263-.34 1.671-.186.398-.651 1.024-1.036 1.39s-1.147.885-1.694 1.154c-.547.27-1.522.575-2.169.678-.862.136-1.512.127-2.441-.036-.719-.127-1.726-.472-2.334-.8-.585-.317-1.343-.903-1.681-1.3-.344-.406-.737-1.162-.894-1.718-.177-.624-.233-1.231-.153-1.627.068-.35.271-.917.446-1.266.177-.349.617-.897.977-1.22a8 8 0 0 1 1.424-.984c.423-.219 1.217-.497 1.763-.618.547-.121 1.237-.227 1.536-.237m.543 3.117c-1.236-.054-1.846.008-2.54.252-.501.177-1.194.512-1.537.746s-.862.762-1.153 1.175l-.53.752c.541.98 1.105 1.533 1.602 1.864.497.329 1.31.716 1.808.86.497.144 1.431.263 2.079.263.647 0 1.581-.12 2.079-.264a6.7 6.7 0 0 0 1.673-.815c.423-.304.97-.838 1.219-1.185.416-.582.433-.674.198-1.13-.141-.275-.487-.711-.769-.975-.282-.263-.962-.702-1.508-.977-.809-.405-1.294-.51-2.621-.566m-259.477.46c-.11 0-.3.207-.421.458-.18.368-.176.608.026 1.22.157.483.622 1.132 1.266 1.77.57.564 1.47 1.218 2.053 1.491.584.271 1.358.484 1.763.484.398 0 .764-.08.814-.18s-.337-.297-.859-.44c-.52-.14-1.372-.566-1.888-.948-.516-.38-1.273-1.138-1.68-1.685-.409-.548-.772-1.259-.809-1.582s-.157-.587-.265-.587m-102.229-1.084c-.49 0-.889.106-1.039.278-.215.244-.184.279.249.271.275-.003.721.09.994.21.275.119.973.547 1.555.949.582.403 1.245.976 1.474 1.274s.628.991.884 1.537c.259.548.466 1.199.462 1.447-.005.41.022.426.295.18.215-.195.277-.474.221-.994-.044-.398-.273-1.13-.51-1.627s-.801-1.3-1.253-1.783c-.452-.485-1.208-1.074-1.681-1.31-.514-.26-1.176-.432-1.651-.432M67.314 18.07c.233.343.495.678.729.912.443.445.844.77.89.723.042-.052-.187-.66-.51-1.356a6 6 0 0 0-.111-.223c-.248.031-.612.01-.998-.056m-153.628-5.077c-.1.005-.403.21-.678.456-.316.285-.496.627-.494.943.004.273.156.823.342 1.22.184.399.691 1.063 1.127 1.477.434.416 1.194.966 1.691 1.227.646.334 1.178.467 1.854.464.705-.002 1.043-.098 1.31-.366.2-.198.362-.482.362-.632 0-.237-.04-.235-.317.01-.22.2-.37.227-.497.091q-.18-.191.05-.418c.125-.124.227-.287.226-.361s-.227-.175-.501-.224c-.273-.049-.986-.4-1.582-.779-.597-.381-1.32-.97-1.608-1.312a7.4 7.4 0 0 1-.813-1.214c-.16-.325-.373-.588-.472-.582m-103.231-.72c-.199.004-.518.09-.709.19-.19.102-.333.263-.317.357.019.093.236.17.483.17.249 0 .911.226 1.471.499.591.287 1.411.914 1.951 1.49.581.621 1.083 1.388 1.331 2.035.22.571.4 1.201.4 1.4 0 .2.101.335.226.302.128-.033.247-.407.274-.858.034-.546-.087-1.085-.378-1.703-.237-.497-.827-1.345-1.313-1.884-.575-.633-1.272-1.158-1.973-1.49-.596-.281-1.247-.51-1.446-.508m2.319-6.604c-.4-.083-.607-.047-.678.12-.054.134-.306.831-.555 1.55-.427 1.237-.436 1.346-.17 1.899l.284.588c.612-.595.973-.859 1.197-.971s.712-.204 1.084-.206c.372 0 1.085.196 1.582.44s1.364.917 1.926 1.493c.56.579 1.232 1.5 1.491 2.045.26.548.525 1.444.588 1.99.107.928.075 1.039-.454 1.671-.313.375-.528.76-.478.86s.478.303.95.455c.471.15.94.274 1.04.276.099.002.416-.426.705-.95.455-.831.508-1.074.403-1.86-.083-.622-.494-1.58-1.318-3.074-.66-1.193-1.573-2.561-2.033-3.042-.457-.481-1.319-1.121-1.916-1.423a41 41 0 0 1-2.079-1.145c-.547-.329-1.253-.65-1.569-.716m-1.09 5.693c-.417 0-.8.063-.851.137s.372.314.939.53c.568.218 1.439.756 1.937 1.2.497.444 1.19 1.284 1.537 1.866s.764 1.467.928 1.964c.246.743.323.84.435.542.074-.2.083-.87.019-1.491-.065-.621-.177-1.127-.252-1.128-.075.001-.271-.223-.433-.497-.165-.275-.631-.845-1.039-1.268a10.4 10.4 0 0 0-1.603-1.312c-.607-.387-1.08-.545-1.617-.543m250.418 3.507c-.143.222-.313.732-.382 1.13-.063.374-.032.902.084 1.492l.825-.836c-.004-.175-.006-.371-.006-.597 0-.232-.005-.452-.012-.651a38 38 0 0 0-.5-.553zm4.879 1.31c-.697-.74-.83-.822-.733-.452.064.244.307.881.54 1.424.378.124.695.184.977.182l.081-.003c-.286-.445-.603-.873-.865-1.15m-4.865-8.462c-.299-.049-.722-.055-.94-.017-.22.036-.545.235-.724.44-.224.254-.325.663-.325 1.308 0 .726.161 1.26.712 2.375a8.8 8.8 0 0 0 1.345 2.023q.103-.06.212-.113c.555-.266.982-.341 1.537-.27a5.3 5.3 0 0 1 1.446.438c.373.188 1.075.696 1.559 1.13.486.432 1.198 1.275 1.587 1.872q.096.148.196.325a1 1 0 0 0 .109-.035c.164-.074.416-.38.56-.678.18-.369.222-.772.136-1.266-.07-.397-.302-1.112-.514-1.59-.213-.474-.427-.857-.478-.851-.05.008-.437.337-.86.73-.42.395-.85.716-.949.716-.1 0-.485-.125-.858-.278-.373-.156-.993-.582-1.378-.95-.383-.368-.85-.995-1.034-1.393-.186-.397-.34-.925-.343-1.175-.006-.28.229-.69.62-1.085.348-.346.593-.692.548-.768-.047-.074-.43-.283-.854-.468-.42-.182-1.012-.37-1.31-.42m2.694 6.736c-.09.007-.115.55-.056 1.23q.025.265.068.52c.263.167.531.32.82.463q.094.046.186.09c-.163-.433-.297-.862-.338-1.119-.063-.397-.206-.83-.317-.958-.11-.128-.273-.23-.363-.226m-250.876-5.076c-.222.002-.508.064-.631.136-.139.084.159.3.809.583.568.25 1.401.787 1.851 1.195.451.409 1.051 1.06 1.334 1.447.317.432.473.826.407 1.02-.06.175-.169.32-.245.322-.074.002-.236-.202-.361-.453-.123-.251-.571-.832-.994-1.29-.421-.46-1.093-1.027-1.491-1.262s-1.008-.508-1.357-.608c-.347-.1-.814-.142-1.039-.094-.222.048-.409.147-.411.221 0 .076.244.197.543.27.3.077.975.41 1.495.74.523.333 1.255.942 1.627 1.356.374.414.923 1.282 1.221 1.927.298.647.542 1.338.542 1.537 0 .202.101.334.225.3.149-.04.229-.432.231-1.13.004-.87.062-1.075.316-1.113.233-.032.342.129.425.633.1.6.134.636.293.316.1-.199.13-.606.067-.904-.062-.299-.321-.989-.574-1.536-.253-.546-.842-1.388-1.308-1.869-.469-.48-1.236-1.07-1.709-1.31-.472-.24-1.042-.435-1.266-.434m100.827 1.124c-.175.237-.289.715-.278 1.174.01.425.17 1.077.358 1.45.187.374.695 1.03 1.13 1.46.434.432 1.236.997 1.782 1.257.557.266 1.328.477 1.75.483.568.007.867-.102 1.215-.443.253-.247.424-.511.377-.588-.047-.074-.554-.378-1.127-.674-.571-.297-1.522-.97-2.111-1.492a22 22 0 0 1-1.935-1.99l-.864-1.038zm-91.917 4.882c-.331-.206-.361-.18-.363.319-.004.498.027.525.359.317.198-.124.36-.266.364-.317.001-.051-.161-.194-.36-.319m348.525-3.488c-.546-.047-1.361-.03-1.809.041a8 8 0 0 0-1.627.48c-.448.195-1.099.6-1.446.9s-.776.844-.949 1.207c-.174.363-.32.803-.324.978-.005.231.212.11.814-.452.452-.423 1.208-.938 1.68-1.142.471-.206 1.386-.436 2.033-.512s1.664-.069 2.26.013c.597.083 1.573.387 2.169.675s1.35.816 1.673 1.174c.354.39.587.542.587.38 0-.15-.108-.537-.24-.86-.134-.323-.642-.937-1.13-1.365-.49-.427-1.297-.924-1.794-1.105a9 9 0 0 0-1.897-.412M63.729 14.1c-.128 0-.3.054-.384.12-.054.044-.094.328-.112.714.281.268.548.502.81.712l-.008-.145c-.05-.986-.141-1.4-.306-1.401M-85.307 6.752c-.007.454.197 1.163.548 1.898.305.647.953 1.664 1.437 2.26.485.597 1.434 1.505 2.108 2.016.676.51 1.636 1.131 2.133 1.38s1.351.583 1.899.744c.546.161 1.44.285 1.988.275l.994-.02c-2.382-.5-3.561-.864-4.158-1.132-.596-.267-1.572-.835-2.169-1.261-.596-.427-1.533-1.262-2.079-1.857-.548-.595-1.256-1.52-1.576-2.06-.318-.536-.7-1.424-.847-1.972l-.265-.994zm-92.113-.955c-.024-.027-.443.267-.929.653-.49.387-1.105.899-1.367 1.137-.416.376-.467.538-.391 1.244.047.449.292 1.22.543 1.717s.844 1.556 1.317 2.35c.474.796 1.055 1.584 1.291 1.75.418.297.454.283 1.566-.632.627-.515 1.135-1.017 1.129-1.117s-.223-.994-.486-1.988c-.39-1.488-.665-2.095-1.552-3.436a330 330 0 0 0-1.121-1.678m96.17-3.464c-.597.004-1.367.107-1.714.232-.346.123-.833.492-1.084.817-.39.508-.456.78-.456 1.902 0 1.142.085 1.483.677 2.699.516 1.06 1.035 1.748 2.17 2.884.82.82 1.94 1.755 2.486 2.075.546.322 1.482.761 2.079.978.728.266 1.532.402 2.441.41 1.048.013 1.497-.064 1.976-.344.341-.199.79-.648.994-.995.267-.452.375-.947.375-1.73 0-.934-.12-1.338-.8-2.712-.63-1.267-1.094-1.906-2.173-2.97-.911-.9-1.826-1.595-2.724-2.065-.745-.39-1.761-.815-2.258-.947-.497-.13-1.393-.235-1.99-.234M66.637 7.532l-2.839 2.838c.3.997.767 1.628 1.293 2.124.528.495 1.084.859 1.32.86.289.003 1.186-.81 3.119-2.818 2.14-2.227 2.653-2.856 2.44-2.983-.15-.088-.312-.159-.361-.157-.051.001-.41-.306-.8-.682s-.85-.983-1.022-1.352l-.312-.667zm-153.104 4.555c-.134 0-.393.149-.576.331-.181.18-.316.384-.298.452.018.066.277 0 .575-.15.298-.148.541-.352.542-.452 0-.1-.11-.18-.243-.18m-47.167-9.034c-.031.007-1.269.64-2.757 1.414-1.491.774-3.265 1.726-3.942 2.118-.959.554-1.178.756-.994.912.129.112 1.374.812 2.766 1.558 1.392.747 3.202 1.692 4.022 2.105.82.41 1.614.746 1.763.747.148 0 1.838-.932 3.752-2.07a1338 1338 0 0 1 3.751-2.228c.201-.118-.267-.441-1.808-1.255a246 246 0 0 0-4.293-2.202c-1.219-.608-2.235-1.102-2.26-1.099m257.301 2.55c.085 0 .56.367 1.057.813.855.77.926.8 1.311.541.223-.15.527-.27.677-.266.15.003.417.147.594.318.177.17.318.434.315.582-.006.149-.232.444-.998 1.034l1.346 1.769-.911.904-.716-.86c-.392-.47-.835-.857-.985-.857s-.559.143-1.551.632l-.881-1.085 1.347-1.144-.678-.875c-.634-.817-.659-.893-.38-1.19.163-.173.367-.316.453-.316m1.102 2.186c.212.522.192.588-.316 1.027-.35.305-.414.416-.181.32.199-.086.626-.181.949-.216.374-.04.588-.162.588-.334 0-.148.224-.436.497-.634.273-.201.423-.411.334-.467-.091-.055-.358.045-.597.227-.422.324-.446.323-.966-.075l-.534-.407zm-308.211-5.452c-.293.008-.942.344-1.582.82-.596.445-1.165.882-1.266.971-.117.105-.045.372.207.762.242.374.884.87 1.717 1.321.732.398 1.656.86 2.054 1.029.397.17.865.31 1.039.316s.669-.253 1.1-.576a30 30 0 0 0 1.446-1.175c.365-.323.661-.649.66-.724 0-.074-.712-.596-1.582-1.159-.868-.564-1.966-1.153-2.437-1.31-.472-.16-1.083-.282-1.356-.275m254.129 2.79c-.287-.497-.522-.783-.524-.633-.004.148.226.636.51 1.085.303.479.823.98 1.268 1.22.413.224.75.344.747.27s-.337-.339-.743-.586c-.445-.273-.943-.81-1.258-1.357m.852-2.08c-.138 0-.363.13-.499.286-.198.232-.203.41-.026.95.12.365.487.932.814 1.261.453.456.766.606 1.317.633.703.033.726.018.774-.598.037-.43-.085-.836-.375-1.266-.233-.349-.724-.776-1.09-.95-.364-.173-.776-.315-.915-.316"/></g></svg>