<svg xmlns="http://www.w3.org/2000/svg" fill="none" viewBox="0 0 32 32"><mask id="a" width="32" height="32" x="0" y="0" maskUnits="userSpaceOnUse" style="mask-type:alpha"><path fill="#d9d9d9" d="M0 0h32v32H0z"/></mask><g mask="url(#a)"><path fill="#e31e24" d="M56.551 96.509c2.23-.009 3.633.088 4.49.313.683.18 1.754.585 2.38.903.622.316 1.6 1.023 3.205 2.558l-.009-1.46c-.006-1.248.057-1.49.427-1.676.239-.12 1.114-.216 1.947-.216 1.163 0 1.594.088 1.86.378.268.292.33.705.263 1.785-.048.774-.133 1.552-.187 1.73-.071.238.106.345.66.399.415.039.883.186 1.036.324.214.193.279 1.483.275 5.551-.005 3.862-.078 5.373-.27 5.571-.146.149-.585.27-.976.27-.394 0-.775.124-.846.271-.071.149-.022.367.112.486.145.13.24.978.236 4.002l-.811.349c-.51.22-1.22.32-1.912.27-.604-.041-1.266-.222-1.47-.402-.255-.223-.368-.643-.361-1.352.006-.564-.039-1.026-.097-1.028-.06 0-.426.301-.811.666-.388.364-1.093.896-1.569 1.18-.476.285-1.449.716-2.163.958-1.077.363-1.91.445-4.868.474-3.002.028-3.76-.033-4.764-.379-.657-.225-1.765-.751-2.464-1.168-.698-.416-1.721-1.292-2.275-1.948-.554-.653-1.367-1.918-1.806-2.811-.507-1.028-.892-2.216-1.054-3.245-.193-1.244-.193-2.026.004-3.354a12 12 0 0 1 1.032-3.353 11.7 11.7 0 0 1 1.995-2.888c.67-.697 1.657-1.52 2.193-1.83.535-.31 1.508-.734 2.163-.94.898-.283 1.984-.377 4.435-.388m-.653.878c-2.18.02-3.056.1-3.353.19-.298.091-1.077.44-1.73.773-.656.335-1.701 1.126-2.326 1.762-.686.699-1.435 1.779-1.89 2.724a11.3 11.3 0 0 0-.979 3.191c-.125.894-.167 2.062-.095 2.596.071.537.316 1.558.54 2.272.226.713.783 1.882 1.24 2.596.459.714 1.313 1.726 1.9 2.247.588.522 1.555 1.167 2.15 1.433s1.592.592 2.218.726c.625.135 1.378.245 1.676.245.296 0 .539-.072.534-.162-.003-.09-.415-.356-.919-.591-.501-.234-1.497-.98-2.21-1.653-.714-.674-1.612-1.747-1.998-2.385-.382-.636-.895-1.937-1.137-2.889s-.438-2.264-.436-2.92c.005-.653.156-1.822.34-2.597.184-.772.645-1.985 1.026-2.697.378-.709 1.179-1.781 1.778-2.38.6-.597 1.67-1.402 2.38-1.785zm1.514.43c-.238-.002-1.114.327-1.947.732a9.3 9.3 0 0 0-2.615 1.889c-.606.635-1.35 1.641-1.653 2.236s-.71 1.618-.902 2.271c-.192.656-.35 1.825-.349 2.597 0 .774.148 1.966.328 2.649.177.686.56 1.707.847 2.272.288.567 1.041 1.599 1.677 2.296.807.884 1.607 1.488 2.667 2.005.833.406 1.686.737 1.894.735.208-.005.938-.266 1.622-.586.74-.344 1.78-1.112 2.563-1.892.727-.723 1.578-1.825 1.894-2.45.315-.623.663-1.548.776-2.054.113-.504.257-1.381.324-1.948.109-.921.072-1.045-.365-1.212-.337-.129-.58-.51-.792-1.244-.188-.657-.264-1.594-.2-2.466.096-1.269.05-1.477-.466-2.163-.314-.415-.965-1.097-1.445-1.514-.48-.416-1.448-1.07-2.149-1.451-.703-.383-1.47-.7-1.709-.702m8.072 15.241c-.986-.699-1.004-.683-1.743.621-.46.813-1.245 1.742-2.026 2.397-.7.588-1.34 1.124-1.42 1.19-.083.065.356.086.973.047.616-.036 1.412-.174 1.77-.304.356-.13 1.08-.587 1.61-1.013.529-.426 1.232-1.214 1.563-1.748.329-.536.538-1.071.467-1.19-.074-.123-.212-.051-.317.163-.13.266-.442.378-1.052.378-.476 0-.865-.097-.865-.216s.234-.24.52-.271zm1.772 2.488c0 .713.097 1.345.216 1.406.132.065.217-.362.217-1.082 0-.655.097-1.188.216-1.189.118 0 .24.495.27 1.098l.055 1.102 2.271.18v-2.813h-3.245zm-3.19.025c.09-.019.163.109.163.288 0 .241-.254.325-.974.325-.536 0-.973-.097-.974-.216.001-.119.367-.249.812-.288s.884-.089.974-.109m.837-.865c.074-.019.115.085.091.233-.023.156-.424.295-.945.326-.495.03-.9-.044-.901-.162 0-.119.365-.25.81-.289s.87-.088.945-.108m-.133-.685c.533 0 .972.098.973.216 0 .119-.44.216-.973.216-.536 0-.973-.097-.974-.216.001-.118.438-.216.974-.216m4.108-1.071c-.912 0-1.19.076-1.19.324 0 .254.245.312 1.119.271.674-.033 1.145-.162 1.19-.324.051-.193-.273-.271-1.119-.271m3.137-10.817c-3.939.034-5.423.127-5.84.231-.416.102-.832.265-.923.358-.09.093-.003.606.194 1.142.233.639.364 1.718.38 3.137.017 1.575-.08 2.458-.362 3.245-.212.595-.332 1.252-.27 1.46.078.26.336.379.818.379h.703c-.089-7.825-.03-9.52.108-9.52.139.005.216 1.735.216 4.76v4.76h4.976zm-7.77 1.224c-.079-.099-.212-.074-.297.055-.084.13-.097.698-.028 1.263.072.564.164 1.173.207 1.352.044.178.28.398.525.487.36.131.44.073.443-.325.002-.268-.158-.973-.353-1.568-.196-.595-.42-1.164-.498-1.264m-3.803-5.103.648.466c.357.257 1.073.91 1.59 1.453.52.543 1.087 1.279 1.26 1.636l.317.649c.677-.789 1.08-.974 1.484-.974.357 0 .65-.097.65-.216-.001-.12-.561-.7-1.244-1.287-1.238-1.067-1.249-1.07-2.382-.92-.848.113-1.138.082-1.136-.119.003-.164.298-.27.759-.27.433 0 .712-.094.65-.217-.06-.119-.67-.212-1.353-.21zm8.378 2.408c-.88-.052-1.11.003-1.12.271-.01.263.244.335 1.204.335.879 0 1.188-.076 1.119-.271-.057-.156-.568-.298-1.203-.335m-4.091-.019c.378.023.786.095.906.162.119.067-.223.184-.757.259-.536.076-.998.102-1.028.056-.03-.044 0-.177.067-.298s.433-.201.812-.179m2.754-2.91c-.23.08-.303.424-.27 1.283.032.878.123 1.171.367 1.171.251-.001.325-.29.325-1.3 0-.71-.024-1.285-.054-1.28zm.854 2.454 1.947-.109v-2.38l-1.93-.125zm-4.76-.622c.52.04.973.19 1.013.34.045.172-.18.274-.632.279-.387.006-.842-.148-1.012-.338-.28-.315-.22-.341.631-.28M20.748 49.891c.535.06 1.355.326 1.82.59s1.146.853 1.513 1.309c.66.822.669.864.734 3.678.045 2-.017 3.034-.216 3.475-.156.344-.647.953-1.093 1.353-.448.398-.958.722-1.136.723-.179 0-.364.073-.417.162-.05.09.097.844.326 1.676.23.833.415 1.685.416 1.893 0 .21-.441 1.036-.98 1.839-.876 1.304-1.24 1.62-5.835 4.443l-1.19-.235c-1.029-.206-1.252-.188-1.639.13-.247.203-.957.952-1.575 1.666-.619.713-1.122 1.37-1.118 1.46.002.09-.141.162-.319.162-.18 0-.324.098-.324.217 0 .12-.513.757-1.136 1.414-1.073 1.129-1.195 1.197-2.164 1.19-.566-.004-1.345-.143-1.73-.308-.387-.164-1.064-.674-1.501-1.135-.44-.461-.903-1.103-1.029-1.432a4.1 4.1 0 0 1-.228-1.244c0-.48.426-1.19 1.663-2.758.915-1.16 1.98-2.45 2.367-2.867.476-.51.738-1.036.807-1.622.078-.664-.045-1.154-1.16-3.354l.583-.811c.32-.446 1.17-1.54 1.888-2.434.72-.891 1.553-2.11 2.397-3.786l1.298-.107c1.19-.098 1.302-.152 1.358-.65.035-.296.2-.93.368-1.406.236-.657.504-.952 1.13-1.235a107 107 0 0 1 2.985-1.242c1.77-.711 2.339-.847 3.137-.754m-56.896.31c1.836-1.75 1.839-1.751 2.812-1.635.535.066 2.037.436 5.694 1.528l.934 1.298c.513.713 1.567 2.297 3.756 5.732l-1.101 2.759c-.604 1.517-1.163 2.853-1.244 2.974-.078.12-3.21 3.257-13.772 13.725l-1.082.009c-.595.004-1.86-.105-2.812-.243-1.728-.25-1.733-.25-3.206-1.676a43 43 0 0 1-2.705-2.925c-1.025-1.248-1.232-1.644-1.254-2.38-.013-.487-.093-1.809-.329-4.995l6.235-6.207c3.428-3.416 7.061-6.998 8.074-7.963m250.488-1.73c.487 0 .829.184 1.219.65.296.356.661 1.042.81 1.52.148.478.369.872.488.874.119.001.361-.15.541-.34.177-.188.616-.341.972-.34.519.005.981.34 2.316 1.688 1.174 1.183 1.667 1.841 1.672 2.222.002.299-.189.762-.424 1.028-.234.268-.379.584-.319.703.059.119.473.326.92.46.446.135.993.394 1.216.576.273.222.398.584.378 1.107-.026.725-.616 1.368-8.518 9.27-5.496 5.496-8.641 8.49-8.922 8.492-.238.002-.654-.146-.92-.325-.268-.18-.633-.62-.811-.976-.179-.357-.325-.843-.325-1.081s-.097-.48-.216-.541c-.119-.058-.485.134-.811.43-.329.295-.84.536-1.136.539-.392.002-1.039-.493-2.328-1.78-1.276-1.274-1.787-1.938-1.791-2.326-.002-.296.241-.783.537-1.082.298-.296.495-.612.438-.703-.056-.089-.541-.357-1.075-.595-.536-.237-1.144-.685-1.351-.995-.29-.432-.329-.681-.162-1.064.121-.277 3.977-4.304 8.571-8.954 7.451-7.538 8.43-8.457 9.031-8.457m-43.131-1.834c.504-.188 1.18-.273 1.623-.201.416.067 1.05.287 1.407.488.356.203.867.805 1.135 1.337.271.532.487 1.309.485 1.724-.003.418-.224 1.184-.49 1.705s-.774 1.128-1.13 1.346c-.357.219-1.065.402-1.569.404-.841.007-1.019.115-2.055 1.249a201 201 0 0 1-2.651 2.819c-1.28 1.332-1.624 1.576-2.92 1.563v5.409c0 4.376-.063 5.533-.325 6.057-.18.357-.642.833-1.027 1.056a8.7 8.7 0 0 1-1.46.642c-.602.189-.792.383-.924.946-.091.391-.162 1.124-.162 1.629.002.845-.057.947-.753 1.244-.418.18-1.002.324-1.298.324-.299 0-.883-.144-2.056-.648v-3.246l-.811-.123c-.448-.069-1.227-.362-1.731-.65-.506-.287-1.059-.79-1.228-1.12-.251-.482-.314-2.17-.335-8.923-.022-7.182.021-8.395.308-8.816.184-.267.847-.73 1.472-1.026.623-.296 1.818-.646 2.651-.778a9.5 9.5 0 0 1 2.919-.035c.773.114 1.965.465 2.651.779.735.34 1.397.824 1.622 1.188.223.363.51.572.703.516.178-.054 1.03-.794 1.896-1.642 1.167-1.148 1.602-1.737 1.704-2.301.073-.415.257-1 .409-1.298.149-.296.452-.71.673-.917.22-.208.791-.522 1.267-.701M3.906 71.413c-.099 0-.411.225-.69.502-.322.314-.496.716-.47 1.082.022.318.187.872.367 1.229.177.356.64.89 1.027 1.185.387.294 1.069.637 1.515.758.557.153.995.151 1.406-.007.47-.181.527-.266.27-.41-.18-.099-.251-.287-.163-.42.089-.133.358-.241.596-.241.237 0 .48-.097.54-.216.058-.119-.137-.217-.433-.217-.298 0-.906-.181-1.351-.404-.446-.223-1.11-.734-1.476-1.136-.363-.402-.73-.95-.811-1.218-.08-.265-.23-.486-.327-.487M-89.8 50.88c.654-.01 1.302.052 1.44.139.141.086.384.618.542 1.182.197.699.426 1.058.722 1.132.238.06.578.115.757.121.178.006.592-.381.92-.861.534-.787.664-.863 1.298-.759.385.065 1.385.448 2.218.853.863.42 1.956 1.18 3.58 2.816l-.835 1.947.465.58c.406.503.55.551 1.116.376.357-.108.915-.199 1.244-.199.472 0 .703.191 1.125.92.292.506.684 1.358.872 1.893.189.536.435 1.534.552 2.217.199 1.188.175 1.313-.548 2.758-.63 1.259-.718 1.599-.523 2.001.203.424.03.82-1.353 3.064-.871 1.416-1.732 2.623-1.91 2.684-.18.061-.959.526-1.73 1.034-1.318.866-1.517.931-4.844 1.06l-.446-.821c-.402-.742-.543-.832-1.471-.92-.96-.091-1.054-.051-1.406.556-.225.383-.558.648-.81.649-.239-.002-1.044-.297-1.786-.654-.744-.357-1.426-.793-1.515-.975-.09-.18-.09-.374 0-.433.09-.056.795.187 1.569.543.772.357 1.504.602 1.623.541.119-.059.619-.814 1.112-1.676.491-.861 1.027-1.738 1.19-1.948.265-.341.164-.442-1.058-1.053a35 35 0 0 1-2.759-1.588c-.774-.502-1.725-1.218-2.812-2.28l-.8 1.243c-.44.686-1.071 1.61-1.406 2.056-.334.448-.559.908-.499 1.028.059.118.79.752 1.623 1.406.832.654 1.48 1.312 1.44 1.46-.038.149-.21.299-.378.334-.17.033-1.067-.648-1.996-1.515-.93-.868-1.646-1.675-1.59-1.794.056-.12-.078-.752-.299-1.406-.359-1.062-.496-1.222-1.281-1.514-.485-.177-.98-.47-1.099-.65-.127-.183-.196-1.384-.162-2.812.03-1.366-.01-2.584-.093-2.704-.082-.119.441-1.385 1.163-2.812.723-1.428 1.425-2.722 1.561-2.875s.465-.275.733-.27c.379.005.623-.265 1.112-1.236.346-.684.954-1.48 1.352-1.77.4-.29 1.214-.644 1.809-.787a12.6 12.6 0 0 1 2.271-.281M-47.89 63.2c-.033.007-.42.322-.865.703l-.81.695c.333 3.52.38 4.69.32 4.868-.069.2.63 1.16 1.808 2.487 1.055 1.19 2.152 2.375 2.438 2.635.338.307 1.156.597 2.357.835 1.034.207 2.17.307 2.595.23.416-.076.883-.258 1.036-.405.154-.145.278-.485.271-.753-.004-.266.225-1.143.513-1.947l.52-1.46c-2.355-3.185-3.32-4.621-3.662-5.246-.343-.623-.698-1.09-.787-1.034-.089.054-1.404-.288-2.92-.757-1.515-.471-2.779-.854-2.813-.85m262.533-13.804c-.39-.25-1.12.428-8.789 8.166-5.449 5.499-8.345 8.573-8.312 8.82.031.217.539.608 1.19.92.624.296 1.232.685 1.349.865.117.177.215.446.215.596.002.147-.234.536-.526.865l-.528.595 3.395 3.46c.839-.992 1.224-1.198 1.611-1.196.372.005.717.189.922.493.18.267.324.754.324 1.083-.002.343.204.779.485 1.032.268.24.584.436.703.438.122-.001 3.944-3.772 8.496-8.387 7.592-7.696 8.259-8.43 8.059-8.876-.135-.296-.414-.486-.708-.489-.269 0-.803-.194-1.19-.432-.513-.314-.705-.593-.71-1.026-.004-.328.191-.79.431-1.027l.436-.434c-3.343-3.345-3.351-3.35-3.781-2.925-.238.236-.627.43-.865.43s-.55-.07-.694-.159c-.143-.087-.448-.695-.675-1.348-.227-.655-.605-1.313-.838-1.464m-56.468 24.745c-.432-.154-.478-.106-.433.44.035.43.208.667.591.806.297.106.907.132 1.353.058.726-.123.81-.206.81-.788 0-.573-.056-.63-.486-.497a3.7 3.7 0 0 1-.92.151c-.238 0-.651-.075-.915-.17M70.722 49.775c.178-.004.835.137 1.46.319.735.212 1.488.649 2.143 1.244.554.506 1.286 1.358 1.625 1.892.504.797.617 1.212.613 2.272-.002.872-.128 1.484-.381 1.858-.208.308-4.077 4.374-8.598 9.038-6.269 6.466-8.402 8.537-8.977 8.72-.418.129-1.146.192-1.622.138-.476-.056-1.342-.335-1.92-.623-.58-.29-1.401-.916-1.825-1.392-.425-.476-.946-1.254-1.16-1.73-.212-.476-.39-1.28-.391-1.785s.1-1.185.228-1.514c.13-.327 2.25-2.681 4.706-5.232 2.46-2.55 6.224-6.416 8.366-8.59 2.277-2.31 4.207-4.086 4.65-4.277.416-.18.903-.331 1.083-.338M-82.45 68.817c-.062.013-.683 1.06-1.378 2.334l-1.271 2.318c.626 1.091.858 1.407.918 1.408.06-.004.613-.806 1.23-1.787.615-.982 1.187-1.978 1.27-2.217.09-.262-.012-.756-.256-1.25-.223-.45-.454-.811-.513-.806m6.07.666c-.068.01-.608.311-1.202.67-.752.451-1.445.676-2.271.739-.655.047-1.259.16-1.342.25-.082.09-.643.968-1.244 1.948l-1.092 1.785c1.748 0 2.267-.197 3.516-.967 1.36-.841 1.71-1.197 2.663-2.705.6-.955 1.036-1.727.972-1.72m186.581-21.54c.569-.218 1.346-.305 2.272-.25.772.045 2.088.306 2.921.585.833.277 2.341 1.054 3.353 1.725 1.01.673 2.401 1.843 3.089 2.604.705.777 1.66 2.185 2.186 3.22.512 1.012 1.005 2.325 1.091 2.92.091.632.062 1.467-.075 2.001-.129.506-.707 1.53-1.285 2.272-.599.774-1.41 1.533-1.892 1.776-.528.266-1.41.45-3.872.566l-1.73 1.993a468 468 0 0 0-3.786 4.433c-1.131 1.339-2.299 2.523-2.596 2.63a10 10 0 0 1-1.244.32c-.387.07-1.263.022-1.946-.108-.686-.13-1.825-.543-2.534-.92-.708-.376-1.809-1.22-2.447-1.875-.636-.653-1.414-1.723-1.728-2.379-.316-.653-.614-1.627-.666-2.164-.05-.534-.031-1.336.045-1.784.106-.632.673-1.42 2.57-3.57 1.337-1.517 2.988-3.44 3.667-4.273 1.222-1.497 1.233-1.523 1.004-2.38-.126-.476-.195-1.405-.152-2.067.065-1.004.245-1.454 1.082-2.704.553-.824 1.185-1.666 1.406-1.87.221-.2.792-.517 1.267-.7m-41.207 4.355c-.132-.6-.265-.486-4.346 3.69a1851 1851 0 0 0-8.05 8.297c-3.361 3.493-3.857 4.1-3.976 4.857-.08.508-.018 1.223.149 1.731.156.476.632 1.242 1.055 1.702.424.461 1.234 1.07 1.798 1.353s1.297.514 1.623.516c.49.004 1.38-.793 5.03-4.489 2.438-2.47 5.969-6.074 7.842-8.006 1.874-1.934 3.455-3.515 3.516-3.515.058 0 .042.121-.035.27-.08.147.12.026.437-.27.32-.299.58-.614.578-.703-.005-.091-.42-.258-.926-.373-.53-.12-1.445-.625-2.163-1.19-.827-.651-1.437-1.36-1.82-2.115-.318-.625-.638-1.415-.712-1.755m-93.803 6.648c-.016-.032-2.756 2.687-6.092 6.04-5.947 5.982-6.077 6.131-6.53 7.51-.25.773-.457 1.478-.456 1.568 0 .09 2.703-2.538 6-5.841l5.999-6.004c.852-2.484 1.09-3.236 1.079-3.273M5.018 69.9a.73.73 0 0 0-.392.145c-.1.08-.164.373-.144.65.02.276.173.772.34 1.098.168.329.531.802.81 1.058.28.253.825.619 1.212.811s.996.349 1.353.349c.356 0 .792-.048.972-.109.177-.058.325-.205.325-.324s-.244-.217-.54-.217c-.3 0-.908-.184-1.353-.409-.446-.225-1.086-.685-1.42-1.027-.332-.34-.684-.934-.777-1.322-.096-.384-.27-.702-.386-.703m154.072 2.813c-1.356 0-1.406.02-1.406.54 0 .44.132.568.703.676.387.071.996.04 1.353-.072.425-.135.666-.366.703-.675.049-.44-.038-.47-1.353-.47m-51.877-15.574c-.076 0-.24.194-.361.432-.123.238-.188.554-.145.703.043.15-.005.441-.108.649-.117.24-.106.34.03.27.119-.06.216-.01.216.109s-.147.216-.324.217c-.18 0-.323.073-.319.162.001.09-.484.723-1.081 1.406-.698.798-1.136 1.146-1.22.973-.071-.15.156-.563.508-.92.351-.356.97-1.112 1.374-1.676s.664-1.075.576-1.136c-.089-.058-.478.306-.866.81-.387.502-1.75 2.109-3.029 3.57-2.321 2.645-2.325 2.654-2.329 3.787-.004.826.169 1.488.634 2.434.363.74 1.133 1.772 1.789 2.4.632.605 1.661 1.36 2.286 1.676s1.598.679 2.163.807c.707.157 1.297.162 1.894.01.763-.195 1.22-.647 3.891-3.855 1.666-1.999 3.321-3.898 3.678-4.223.49-.443.571-.61.327-.678-.179-.05-.811-.26-1.406-.466s-1.764-.792-2.597-1.302-2.109-1.547-2.834-2.3c-.724-.755-1.609-1.931-1.962-2.615-.354-.683-.707-1.243-.785-1.244m-152.558 8.854c.237-.002.92.234 1.514.524.595.287 1.415.897 1.822 1.353.406.456.917 1.219 1.131 1.695.214.475.394 1.23.396 1.676.004.634-.15.963-.698 1.5-.613.596-.816.672-1.569.581-.476-.058-1.304-.355-1.839-.66-.573-.327-1.312-1.034-1.792-1.718-.585-.83-.832-1.423-.869-2.07-.026-.497-.023-1.155.009-1.46.037-.357.307-.707.759-.986.387-.236.897-.432 1.136-.435m-39.579 2.469c-.242-.11-.289.008-.215.54.073.526-.13 1.054-.88 2.305-.535.893-.973 1.72-.973 1.838 0 .12.26.193.578.163.478-.044.794-.41 1.823-2.11.686-1.129 1.253-2.177 1.262-2.326.008-.16-.252-.27-.634-.27-.357 0-.79-.062-.96-.14m90.4.725c-.09.075-.151.389-.136.696.017.307.325.973.687 1.477.445.625.949 1.028 1.574 1.257.506.186 1.3.307 1.767.27.468-.036.881-.188.92-.337.039-.151-.048-.214-.199-.143-.15.07-.612.024-1.027-.101-.418-.126-1.147-.502-1.623-.84s-1.075-1.018-1.332-1.516c-.255-.495-.541-.839-.63-.763m-51.318-2.327c-.096 0-.31.118-.477.26s-.285.508-.264.81c.022.303.152.895.29 1.31s.552 1.082.922 1.48c.372.395.966.923 1.323 1.17.615.424.606.403-.133-.398a12.3 12.3 0 0 1-1.348-1.82c-.31-.535-.567-1.094-.57-1.243-.001-.15.07-.272.159-.273.088-.002.276.314.417.703s.628 1.082 1.082 1.54c.454.459 1.142.97 1.53 1.136.386.164.897.3 1.135.301.24 0 .432-.145.433-.324 0-.18-.171-.327-.378-.331-.338-.007-.334-.044.053-.342.43-.333.428-.338-.067-.697-.275-.2-.761-.571-1.081-.829-.32-.259-.534-.528-.474-.6.06-.07.377.07.703.308.327.238.595.362.595.273-.003-.09-.252-.455-.557-.812-.347-.41-.585-.548-.646-.377-.052.149-.193.27-.312.27s-.313-.293-.432-.65c-.14-.423-.361-.649-.638-.649-.348 0-.398.105-.288.596.121.547.104.568-.24.27-.205-.18-.416-.495-.47-.703-.052-.207-.172-.378-.267-.379m53.001.572c-.119-.065-.39.058-.603.274-.212.214-.365.626-.339.913.024.288.261.857.525 1.264.264.404.967 1.012 1.562 1.35.595.335 1.421.616 1.839.623.424.006.9-.141 1.082-.334.292-.309.25-.344-.433-.341-.417 0-1.099-.186-1.514-.415-.418-.228-.71-.418-.649-.42.061-.004.596.14 1.19.318.594.177 1.323.317 1.622.309q.542-.013-.866-.54c-.928-.349-1.719-.843-2.329-1.45-.506-.507-.911-1.037-.896-1.18a.41.41 0 0 0-.19-.371m146.581-3.484c.057 4.17.159 5.969.351 6.279.147.238.749.672 1.337.964.831.416 1.495.553 3.014.62 1.336.058 2.319-.022 3.136-.253.684-.193 1.488-.617 1.893-.996l.703-.66c0-9.023-.023-11.666-.054-11.688-.03-.002-.591.235-1.244.53-.655.293-1.823.636-2.595.759a8.9 8.9 0 0 1-2.813.007c-.774-.12-1.948-.483-2.607-.81l-1.201-.594zm62.448-9.86c.246-.004.872.362 1.385.811.715.625.919.948.865 1.36-.048.375-.219.559-.557.595-.268.031-.592.274-.72.541-.168.35-.168.548.002.704.132.119.238.387.236.594-.002.208-.394.67-.869 1.028-.476.356-.938.646-1.028.642-.089-.002-.31-.146-.487-.319-.285-.279-.435-.208-1.25.599-.807.798-.926 1.036-.92 1.836.004.747-.119 1.041-.659 1.569-.545.532-.847.65-1.673.65-.926 0-1.084.084-1.949 1.027-.937 1.023-.941 1.032-.654 1.838.271.758.258.846-.203 1.298-.383.381-.74.487-1.623.487-1.059 0-1.129.033-1.129.54 0 .3-.073.663-.162.812-.088.15-.333.269-.541.269-.208-.003-.842-.538-1.406-1.19-.928-1.073-.995-1.22-.688-1.512.188-.18.48-.324.649-.325.171 0 .407-.194.526-.432.152-.303.136-.594-.054-.97-.234-.462-.212-.598.162-.991.238-.251.773-.655 1.19-.9.642-.376.84-.402 1.298-.18.497.243.603.193 1.352-.62.664-.723.788-.991.675-1.478q-.135-.595.271-1.298c.223-.385.699-.86 1.055-1.055.357-.195.917-.316 1.244-.27.46.064.789-.111 1.477-.784.811-.792.864-.911.63-1.406-.142-.297-.199-.76-.128-1.028s.373-.632.671-.811c.393-.236.66-.266.974-.109a.92.92 0 0 0 .865 0 .71.71 0 0 0 .396-.605v-.322c.015-.204.07-.383.145-.442.099-.08.383-.149.632-.153m.516.629c-.289-.16-.37-.111-.379.236-.006.242-.328.695-.715 1.004-.487.39-.87.528-1.245.45a1.03 1.03 0 0 0-.915.248c-.356.342-.356.393 0 .935.37.565.364.587-.382 1.491-.418.506-1.002 1.092-1.298 1.302-.379.266-.655.323-.919.184-.223-.114-.581-.117-.866-.005-.269.105-.682.403-.919.663-.342.374-.402.64-.285 1.27.136.75.075.867-1.083 2.053-1.163 1.192-1.28 1.257-2.202 1.216-.534-.024-1.094-.031-1.244-.014-.188.02-.234.276-.147.84.084.553.015.965-.216 1.298-.186.268-.608.586-.935.71l-.594.22c1.168 1.167 1.585 1.508 1.675 1.508.089-.002.161-.223.157-.491s.167-.652.379-.85c.225-.215.831-.394 1.466-.433.813-.052 1.07-.15 1.034-.394-.027-.18-.108-.617-.184-.973-.121-.584.001-.782 1.237-1.984 1.268-1.233 1.433-1.328 2.131-1.218.664.104.833.028 1.374-.61.513-.61.59-.857.476-1.488-.128-.686-.047-.853.848-1.785.744-.776 1.145-1.027 1.633-1.028.354 0 .691.098.753.216.061.119.182.214.271.21.088-.004.381-.199.649-.432.415-.366.447-.487.216-.853-.196-.31-.209-.587-.047-1.027.139-.374.463-.68.865-.809.352-.114.688-.236.75-.27.061-.037-.136-.317-.432-.626-.299-.307-.706-.652-.907-.764m-305.539-2.881c-1.843-.07-2.817.045-3.351.21-.536.162-1.093.45-1.243.638-.225.283-.161.487.377 1.208l.65.865c-.921 1.496-1.287 1.937-1.406 1.944-.12.007-.728-.21-1.353-.48-.623-.27-1.176-.442-1.23-.383-.052.058-.71 1.227-1.46 2.597l-1.366 2.487c.085 3.269.182 4.214.27 4.208.091-.01.718-.909 1.394-2.001 1.111-1.797 1.218-2.07 1.082-2.806-.091-.5-.065-.816.067-.818.12-.001.387.39.595.87.354.815.439.872 1.297.894.507.01 1.136.084 1.4.162.279.08.805.683 1.25 1.438.424.713.768 1.367.765 1.46-.005.089-.373.316-.819.504l-.81.343a17.4 17.4 0 0 0 2.704 2.227c.772.51 1.795 1.124 2.271 1.362.476.235 1.084.49 1.352.566.445.123.487.062.487-.73 0-.475.074-.898.162-.942.09-.04.985.03 1.989.162l1.825.24.891 2.084c1.95-.217 2.869-.535 3.732-1.013.744-.411 1.352-.844 1.352-.963-.001-.12-.488-.558-1.082-.973-.595-.417-1.085-.83-1.09-.92s.14-.309.327-.486c.185-.18.385-.69.441-1.136l.106-.811 2.657.324c-.253-1.845-.608-2.99-.953-3.731-.417-.909-.747-1.352-1-1.353-.208.002-.769.104-1.245.228l-.865.226-2.003-2.293c.963-1.087 1.245-1.454 1.246-1.514s-.366-.457-.811-.88c-.446-.426-1.396-1.052-2.11-1.394-.713-.34-1.48-.648-1.703-.687-.235-.039-.592.172-.865.516-.378.48-.413.645-.19.92.216.268.216.356 0 .447-.15.063-.71-.034-1.243-.22-.537-.184-1.168-.33-1.407-.328-.337.004-.504-.245-.758-1.132zM11.636 65.663c-.236-.067-.6.286-1.136 1.095-.434.657-.79 1.243-.79 1.303.003.06.757.39 1.677.733.922.342 2.237.781 2.92.974.684.192 1.268.352 1.299.356s.332-.41.67-.919c.34-.51 1.021-1.29 1.514-1.731l.899-.803c-2.278.01-2.343.037-1.948.32.238.169.359.38.269.472-.089.09-.82-.145-1.623-.522-.803-.378-1.897-.797-2.432-.931a57 57 0 0 1-1.319-.347M8.9 68.597c-.03.002-.055.054-.055.112 0 .06.414.342.92.628.506.287 1.258.581 1.676.657.555.1.324-.067-.866-.634-.888-.419-1.637-.761-1.675-.763M-27.772 51.52c-.051.026-3.084 2.976-6.76 6.572l-6.707 6.563c1.309 1.969 2.128 3.124 2.665 3.838a66 66 0 0 0 1.16 1.514c.117.134 2.697-2.304 6.758-6.382l6.572-6.598a70 70 0 0 0-2.468-3.84c-.64-.922-1.188-1.669-1.22-1.667m141.775 14.145c.108.06.13.234.048.383-.084.15-.742.98-1.46 1.847-.72.868-1.383 1.55-1.472 1.515s-.157-.16-.151-.28c.008-.12.648-.974 1.424-1.897s1.498-1.627 1.611-1.568m1.147.33c.162 0-.351.778-1.138 1.728-.787.951-1.456 1.682-1.486 1.622-.026-.065.485-.84 1.137-1.729.653-.89 1.323-1.62 1.487-1.622m-94.045-.088c-.042-.052-.764.338-1.606.866-.843.53-1.786 1.278-2.093 1.666-.307.386-.558.775-.56.865 0 .09.743-.299 1.647-.865.905-.565 1.879-1.344 2.165-1.731.285-.385.486-.747.447-.8m91.343-.103c.24-.512.407-.662.56-.498.151.162.026.492-.406 1.058a26 26 0 0 1-1.515 1.742c-.488.507-.959.92-1.049.918-.087-.001.341-.563.954-1.246s1.268-1.572 1.456-1.974m-.69-1.108c.153 0 .326.074.383.162.053.09-.247.504-.666.92-.422.415-1.101 1.22-1.508 1.784-.406.565-.887 1.027-1.064 1.028-.18 0-.326-.048-.326-.109.005-.063.538-.742 1.191-1.513.653-.774 1.306-1.6 1.449-1.84.143-.237.385-.431.541-.432m-204.59-1.934c-.061.01-.901 1.207-1.868 2.659-1.267 1.905-1.704 2.73-1.568 2.964.119.203.25.244.352.108.091-.12.723-1.067 1.406-2.11.684-1.04 1.366-1.892 1.515-1.895.15-.002.415-.09.595-.199.287-.173.287-.27 0-.87-.18-.37-.374-.667-.433-.657m203.618 1.285c.095 0 .173.074.178.162.002.089-.253.407-.571.703-.316.299-1.047 1.102-1.627 1.785-.58.684-1.104 1.147-1.162 1.028-.06-.12.109-.486.373-.812.266-.327.967-1.105 1.561-1.73.592-.624 1.154-1.134 1.248-1.136M9.492 59.863c-.134-1.241-.147-1.263-.5-.811-.332.423-.321.541.563 2.312q.116.225.237.465c.519 1.04 1.006 2.11 1.082 2.38.045.159.05.299.024.388-.018.069-.054.11-.106.11-.119 0-.218-.121-.222-.27-.002-.092-.182-.537-.45-1.14-.151-.33-.328-.705-.518-1.089-.4-.804-.746-1.54-.893-1.895l-.188-.391c-1.197 1.443-1.61 1.987-1.692 2.135-.082.149.287 1.27.822 2.488.532 1.22 1.103 2.412 1.265 2.65.284.411.344.367 1.205-.866l.91-1.298c1.743.411 2.267.509 2.29.483.015-.032-.517-.499-1.19-1.04-.764-.613-1.473-1.435-1.867-2.164a7.1 7.1 0 0 1-.772-2.447m-97.13-3.97c1.66.059 1.994.148 3.452.918.887.469 2.085 1.341 2.665 1.936s1.296 1.568 1.593 2.163c.447.896.53 1.331.471 2.53-.062 1.317-.137 1.515-.827 2.227-.51.526-1.146.892-1.946 1.121-.785.227-1.558.296-2.272.207-.595-.076-1.666-.412-2.38-.752-.713-.337-1.835-1.05-2.488-1.58-.655-.532-1.544-1.545-1.976-2.252-.433-.707-.856-1.674-.938-2.15-.08-.476-.045-1.255.078-1.73.124-.479.541-1.176.935-1.556.391-.381.954-.794 1.253-.92.296-.125 1.367-.198 2.38-.161m-9.736 7.97-1.3 2.142c1.753.818 2.272 1.04 2.283 1.02.009-.03.67-1.07 1.468-2.318.8-1.247 1.451-2.341 1.448-2.434-.005-.088-.276-.162-.602-.162-.327.003-.91-.087-1.296-.195l-.7-.194zm207.04-.681c.115 0 .244.121.287.27s-.662 1.022-1.568 1.939c-.904.915-1.72 1.622-1.809 1.568-.086-.057.409-.71 1.102-1.452.694-.744 1.378-1.57 1.519-1.839s.352-.486.469-.486m-185.372 1.514c-.923-.119-.936-.11-1.13.65-.174.668-.137.817.284 1.141.267.206.56.377.648.38.09 0 .37-.41.627-.916.254-.502.472-.964.486-1.027.01-.059-.4-.163-.915-.228M12.2 55.84c-.767 0-1.033.1-1.28.486-.17.266-.474 1.072-.67 1.785-.293 1.05-.317 1.493-.127 2.326.128.564.368 1.293.533 1.622.164.326.876 1.13 1.582 1.785.705.653 1.763 1.43 2.351 1.724.768.385 1.528.56 2.691.623 1.551.085 1.692.05 3.171-.75l1.547-.84c-.637-1.927-.92-2.438-1.04-2.38-.119.06-.411.498-.65.974-.237.476-.748 1.08-1.135 1.341-.385.262-1.14.517-1.677.57-.558.053-1.433-.055-2.054-.254-.686-.221-1.556-.77-2.38-1.505-.714-.636-1.435-1.49-1.604-1.9-.205-.497-.259-1.095-.166-1.822.1-.766.396-1.447 1.008-2.325.478-.686.87-1.294.87-1.353-.002-.06-.437-.107-.97-.107m-102.327 4.555a6 6 0 0 0-.863.124c-.238.054-.406.188-.379.298.03.11.563.234 1.188.273.633.039 1.662.317 2.326.629.653.307 1.654 1.03 2.223 1.605.571.576 1.203 1.46 1.407 1.967.205.503.445.915.534.919.088 0 .21-.097.27-.216.059-.12.018-.583-.092-1.028-.113-.446-.632-1.298-1.156-1.893-.547-.623-1.45-1.326-2.122-1.659-.644-.316-1.562-.682-2.038-.81-.476-.127-1.06-.221-1.298-.209m.041 1.49c-.512-.001-.575.057-.4.377.112.207.7.841 1.309 1.406.607.565 1.713 1.32 2.458 1.677.742.356 1.47.648 1.622.65.149 0 .27-.05.27-.11 0-.059-.138-.377-.307-.702-.169-.327-.68-.955-1.135-1.394-.457-.439-1.366-1.047-2.019-1.35-.655-.302-1.462-.551-1.798-.553m1.04-2.664c-.594-.067-1.419-.029-1.83.086-.41.114-.725.303-.703.42.026.114.654.192 1.398.169 1.111-.033 1.603.078 2.758.623.85.4 1.865 1.123 2.562 1.826.636.638 1.343 1.527 1.568 1.972.227.446.413 1.006.413 1.245q0 .432.38.376c.237-.035.397-.275.432-.649.03-.327-.105-.909-.297-1.296-.195-.387-.705-1.17-1.136-1.744-.432-.571-1.224-1.322-1.758-1.666-.537-.344-1.364-.763-1.84-.932-.475-.168-1.352-.363-1.947-.43m197.57 2.886a.25.25 0 0 1 .261.263c-.002.15-.556.902-1.226 1.677-.673.774-1.327 1.525-1.454 1.668-.128.145-.362.195-.522.108-.213-.115-.087-.375.496-1.02a33 33 0 0 0 1.478-1.778c.382-.5.817-.913.967-.919m-195.947-5.52q-1.19-.118-2.055.208c-.476.181-.925.41-1.001.509s.41.136 1.08.082 1.706.011 2.3.147c.595.134 1.398.44 1.786.675.386.238.678.482.648.545s-.687-.089-1.46-.34c-.774-.25-1.942-.458-2.596-.465-.676-.004-1.493.143-1.893.342-.385.19-.7.37-.703.402 0 .03.755.055 1.677.057 1.425 0 1.889.1 3.083.668.772.368 1.93 1.147 2.57 1.731.685.623 1.42 1.573 1.784 2.304.341.683.628 1.414.637 1.622.013.325.043.316.201-.053.102-.239.19-.726.196-1.083.004-.357-.181-1.062-.417-1.568q-.428-.92-.158-.847c.15.038.49.451.753.918.266.465.489 1.14.493 1.497.011.593.033.613.251.217.132-.238.193-.775.137-1.19-.059-.416-.34-1.232-.626-1.809-.288-.577-1.032-1.525-1.657-2.11-.626-.581-1.744-1.347-2.488-1.7-.744-.352-1.888-.693-2.542-.758m195.155 4.647c.075 0 .128.094.115.206-.016.114-.588.892-1.271 1.73-.682.84-1.363 1.528-1.513 1.534-.149.004.196-.507.769-1.136.571-.63 1.201-1.412 1.398-1.739.198-.326.423-.593.502-.595m-.054-9.431c-.076-.048-.21.279-.299.728-.089.45-.118 1.256-.066 1.792.052.535.454 1.726.893 2.65.617 1.293 1.209 2.088 2.585 3.472 1.287 1.298 2.237 2.032 3.407 2.633.892.46 2.11.965 2.705 1.123.595.156 1.666.28 2.379.277.861-.005 1.553-.146 2.055-.42l.758-.415c-2.012-.007-3.277-.217-4.11-.472-.833-.253-1.954-.681-2.489-.95-.536-.268-1.728-1.086-2.649-1.815-.948-.748-2.093-1.912-2.636-2.675-.526-.745-1.201-1.89-1.497-2.543-.298-.655-.622-1.663-.72-2.243s-.24-1.094-.316-1.142m-94.554 5.821c-.29.385-.714 1.014-.943 1.4-.379.629-.39.783-.123 1.623.184.58.668 1.282 1.298 1.883.551.528 1.49 1.184 2.086 1.456.808.37 1.3.46 1.946.364.476-.072.959-.214 1.071-.318.121-.11-.08-.188-.487-.188-.38 0-1.202-.191-1.827-.42-.623-.232-1.281-.581-1.461-.78-.27-.301-.136-.286.811.094.626.251 1.697.507 2.38.57l1.244.114 1.514-2.105c-1.676-.244-2.552-.492-3.028-.706a11.7 11.7 0 0 1-1.73-1.027c-.477-.348-1.171-1.09-1.546-1.648l-.68-1.015zm-46.87-8.276c-.165 0-2.21 1.87-4.544 4.159a3552 3552 0 0 1-6.735 6.58l-2.488 2.418c3.352 1.008 4.642 1.356 5.03 1.426.675.12.883-.049 5.192-4.254 2.468-2.408 5.489-5.354 6.711-6.544s2.22-2.213 2.22-2.272c-.006-.061-1.152-.425-2.547-.811-1.398-.385-2.676-.7-2.84-.702m140.876 10.85c.117.035.249.184.29.333s-.605 1.002-1.438 1.894c-.832.892-1.562 1.523-1.622 1.406-.059-.12.442-.875 1.109-1.677.67-.802 1.272-1.585 1.333-1.739.063-.153.211-.25.328-.217m4.905-11.718c-.575 0-1.365.201-1.934.489-.744.376-1.056.707-1.38 1.46-.312.727-.383 1.22-.277 1.947.08.534.472 1.655.872 2.487s1.248 2.134 1.886 2.889c.636.757 1.742 1.815 2.455 2.351.714.535 1.833 1.247 2.489 1.578.653.33 1.773.757 2.487.945s1.688.342 2.164.342c.476-.003 1.278-.195 1.784-.429.506-.236 1.033-.649 1.171-.915.141-.268.329-.829.422-1.244.095-.429.066-1.227-.063-1.839-.128-.595-.572-1.763-.987-2.596-.549-1.105-1.233-1.981-2.526-3.245-1.231-1.2-2.3-2.008-3.492-2.63-.946-.494-2.254-1.054-2.908-1.247-.655-.19-1.628-.346-2.163-.343m-93.836 2.828c-.088.008-.356.103-.594.212-.238.11-.994.395-1.677.635-1.131.396-1.286.53-1.705 1.465-.44.978-.445 1.078-.123 2.11.199.636.733 1.527 1.296 2.163.525.594 1.434 1.343 2.016 1.666s1.545.679 2.14.794c.623.12 1.495.131 2.055.03.744-.139 1.14-.377 1.683-1.01.668-.786.708-.925.703-2.508-.006-1.641-.018-1.674-.494-1.516-.268.088-.828.153-1.243.144-.417-.009-1.22-.277-1.785-.593-.565-.318-1.24-.895-1.5-1.28-.256-.387-.501-1.069-.54-1.514-.039-.448-.143-.804-.232-.798m96.04-.025c.835 0 1.526.18 2.505.649.744.356 1.802 1.112 2.354 1.676.549.565 1.22 1.467 1.486 2.001.268.537.554 1.266.639 1.623.095.413.026.944-.191 1.46-.211.506-.562.9-.934 1.047-.327.128-.985.197-1.461.15s-1.445-.373-2.154-.723c-.71-.35-1.805-1.146-2.434-1.771-.629-.626-1.389-1.623-1.685-2.218-.299-.595-.535-1.43-.524-1.856.011-.542.199-.96.632-1.406.528-.543.779-.632 1.767-.632m39.508 4.381c-.08-.047-.13.385-.108.963.041 1.025.069 1.065 1.123 1.636.619.335 1.778.694 2.704.84 1.373.219 1.888.205 3.353-.098.977-.201 2.085-.592 2.542-.897.737-.49.811-.627.811-1.511 0-.536-.071-.945-.162-.911-.089.036-.746.352-1.46.703-1.198.59-1.48.64-3.678.64s-2.477-.05-3.677-.64a68 68 0 0 1-1.448-.725m-39.436-3.85c-.688-.109-.953-.053-1.283.278-.262.26-.403.671-.379 1.101.021.376.137.685.256.686.118 0 .168.145.108.324s.169.738.506 1.244 1.042 1.277 1.568 1.714 1.488 1.045 2.144 1.35c.655.307 1.458.556 1.785.558a3 3 0 0 0 1.142-.268c.433-.214.545-.429.539-1.028-.005-.424-.282-1.233-.627-1.838-.342-.595-1.096-1.516-1.675-2.045-.582-.53-1.543-1.184-2.138-1.45-.595-.268-1.47-.549-1.946-.626m53.32 4.687c-.059.007-.571.373-1.14.812-.57.438-.91.83-.757.874.151.04.667-.325 1.14-.812s.815-.882.757-.874m-2.165-2.393c-.242 0-.493.13-.559.29-.064.163-.088.961-.049 1.779l.071 1.486 1.463-1.283c-.441-2.052-.574-2.271-.926-2.272m-94.427-3.42c-.642-.064-.965.016-1.246.312-.21.22-.33.571-.27.781.06.208.208.33.327.27s.31.305.422.811c.149.66.502 1.206 1.244 1.935.57.558 1.306 1.119 1.633 1.244s.91.233 1.297.237c.388.007.85-.148 1.029-.345.233-.258.279-.561.162-1.091-.089-.405-.478-1.18-.865-1.726-.388-.543-1.19-1.294-1.785-1.666-.595-.37-1.472-.714-1.948-.762m97.893.634c-.061.011-.663.619-1.342 1.348l-1.233 1.328.548 2.164c2.106-2.01 2.807-2.767 2.914-2.974.138-.27.054-.596-.292-1.134-.268-.414-.536-.743-.595-.732m-9.52.513c-.774-.054-1.942.022-2.595.17-.656.148-1.518.461-1.923.697-.402.236-.867.625-1.036.863-.273.388-.244.507.299 1.15.37.439 1.022.856 1.686 1.08.744.252 1.722.358 3.137.34 1.341-.014 2.393-.15 3.029-.389.534-.201 1.194-.577 1.467-.839.27-.261.488-.647.486-.854-.004-.21-.275-.625-.601-.926-.327-.303-1.034-.693-1.569-.87-.536-.177-1.607-.368-2.38-.422m-254.123 2.527-.471.935c1.103.54 1.192.52 1.532.066.205-.274.373-.548.376-.607.002-.061-.215-.384-.483-.719l-.484-.612zm115.052-3.717c-.34 0-.796.178-1.013.396-.218.216-.38.484-.361.595.02.108.154.076.299-.072.145-.149.342-.27.437-.27s.123.195.065.433c-.06.238.037.675.217.973.177.297.64.736 1.027.972.387.238.921.432 1.19.433s.64-.219.826-.485l.34-.487c-.11.843-.366 1.186-.68 1.344l-.54.272c.837.015 1.259-.153 1.477-.365.277-.27.36-.565.27-.98-.069-.33-.441-.953-.828-1.387-.388-.435-1.02-.921-1.407-1.081s-.98-.29-1.319-.29M172.747 47.4c-.512 0-.891.176-1.285.595-.307.327-.655.837-.774 1.136-.119.296-.225.393-.236.217-.01-.18.211-.691.49-1.137.28-.447.449-.81.374-.81s-.472.345-.883.767c-.66.684-.744.902-.744 1.932 0 .841.125 1.329.454 1.772.251.337.688.646.973.69.481.073.495.05.195-.32-.314-.387-.305-.387.27-.026.327.207.864.378 1.191.383.326.004.863-.19 1.189-.433.327-.242.703-.804.837-1.25.134-.448.182-1.177.108-1.623a2.2 2.2 0 0 0-.783-1.352c-.409-.341-.917-.54-1.376-.54m-1.302 1.064c.228-.317.412-.423.452-.264.037.15-.03.465-.149.703a2.4 2.4 0 0 0-.215.92c.001.268.146.755.326 1.081.285.528.284.595-.003.595-.18 0-.422-.242-.541-.54-.119-.297-.225-.86-.238-1.251-.01-.39.154-.95.368-1.244m35.824-47.368c.901 0 1.017.085 5.907 4.999l1.119.042c.857.032 1.253.165 1.696.58.321.297.716.81.885 1.137.167.326.303.911.301 1.298 0 .612.351 1.054 2.706 3.408 2.271 2.268 2.706 2.807 2.702 3.352-.002.357-.076.764-.165.904-.086.141-2.249 2.383-4.808 4.979a1430 1430 0 0 0-7.626 7.803c-2.782 2.881-3.027 3.08-3.787 3.085-.752.002-1.012-.2-3.623-2.81-2.074-2.074-2.983-2.84-3.461-2.914-.396-.06-.965-.442-1.46-.977-.446-.482-.881-1.144-.965-1.47-.094-.36-1.251-1.666-2.923-3.3-2.088-2.039-2.767-2.835-2.767-3.244 0-.299.359-1.078.796-1.73.438-.654 3.468-3.918 6.736-7.249 3.269-3.331 6.363-6.47 6.874-6.976.804-.796 1.056-.92 1.863-.917m-5.476 24.885c-.071 0-.31.18-.526.398-.218.216-.38.484-.363.595.017.108 1.155 1.293 2.527 2.633 1.371 1.336 2.567 2.433 2.656 2.433.089.002.392-.168.671-.378l.508-.379c-4.133-4.102-5.397-5.298-5.473-5.303m15.009-15.079c-.092-.024-.946.778-1.896 1.783-.952 1.005-4.166 4.315-7.14 7.357l-5.408 5.53c2.513 2.523 3.714 3.66 4.29 4.158l1.045.902c10.851-10.888 14.052-14.202 14.111-14.386.058-.2-.851-1.279-2.369-2.812-1.356-1.367-2.541-2.507-2.633-2.532M-82.661 3.324c1.077.035 1.733.205 2.813.729.876.428 1.923 1.2 2.78 2.055.913.909 1.594 1.84 2.03 2.774.358.774.743 1.99.852 2.704q.199 1.298-.04 2.38c-.131.595-.424 1.373-.649 1.73-.225.358-3.115 3.345-6.423 6.637-5.894 5.865-6.04 5.993-7.312 6.35-.97.272-1.629.322-2.596.199-.75-.095-1.893-.46-2.704-.867-.937-.468-1.837-1.165-2.69-2.076-.748-.802-1.55-1.957-1.931-2.779-.491-1.053-.675-1.811-.742-3.03-.067-1.223.006-1.86.304-2.595.264-.653 1.07-1.65 2.455-3.035 1.135-1.136 4.057-4.014 6.498-6.395 3.046-2.973 4.67-4.407 5.192-4.578.415-.136 1.389-.227 2.163-.203m194.214.798c.283.81.528 1.134.974 1.298.54.197.644.147 1.135-.541.348-.486.714-.754 1.028-.75.268.002 1.071.32 3.083 1.4v1.153c0 1.01.073 1.202.594 1.568.483.335.781.385 1.569.253.869-.145 1.03-.104 1.493.379.286.296.774.93 1.088 1.406.313.476.566 1.035.562 1.243s-.245.647-.537.974c-.463.517-.494.652-.248 1.028.156.238.746.578 1.313.757.569.177 1.11.422 1.203.541s.203 1.008.244 1.977c.071 1.693.046 1.8-.629 2.758-.699.991-.701 1.002-.325 1.649.374.647.37.666-.353 2-.402.742-.888 1.527-1.081 1.742-.229.257-.522.35-.838.27-.404-.099-.577.044-1.027.853-.311.563-.84 1.126-1.244 1.331-.675.344-.729.339-1.352-.115-.356-.26-.722-.469-.811-.465-.089.002-.478.45-1.569 1.978l-4.11-.132-.344-1.082c-.27-.846-.472-1.117-.92-1.244-.486-.137-.683-.043-1.981 1.386l-1.622-.74c-.891-.404-1.744-.9-1.894-1.097-.149-.198-.22-.458-.162-.577.061-.119.06-.606-.108-1.947h-3.028l-.974-1.46c-.536-.802-.974-1.63-.974-1.839 0-.208.24-.745.534-1.19.318-.485.457-.898.344-1.028-.104-.119-.562-.35-1.02-.514-.457-.162-.957-.407-1.11-.541-.187-.16-.277-.806-.27-1.92.006-1.303.103-1.82.44-2.324.307-.461.396-.855.31-1.353-.091-.526.004-.877.379-1.394.277-.38.891-1.252 1.367-1.94.476-.686 1.386-1.763 2.024-2.393.638-.627 1.297-1.141 1.461-1.141.167 0 .617.195 1.004.432.386.236.751.434.811.439.061.003.422-.483.804-1.08l.696-1.09h3.692zM-24.639.663c.391.002 1.146.22 1.676.486a3.94 3.94 0 0 1 1.573 1.458c.443.714.603 1.25.601 2.002-.002.805-.108 1.112-.488 1.417-.268.212-1.85 1.77-6.545 6.527l.593 1.137c.324.628.68 1.627.786 2.222.112.63.114 1.376.002 1.785-.104.387-.483.946-.84 1.244-.357.297-.918.552-1.244.565-.327.01-.887.004-1.243-.016s-1.281-.33-2.056-.69c-.772-.358-1.674-.84-2.596-1.482l-.703.572c-.387.316-3.016 2.797-5.84 5.516-3.208 3.089-5.3 4.945-5.572 4.946-.238 0-.65-.11-.919-.243-.268-.134-.708-.452-.98-.703-.36-.337-.487-.692-.476-1.326.013-.841.17-1.018 11.461-12.007l-.445-.703a16 16 0 0 1-.878-1.676c-.238-.536-.522-1.363-.63-1.839-.117-.519-.117-1.168 0-1.623.108-.417.375-.98.589-1.254.216-.273.733-.58 1.148-.68.43-.103 1.177-.097 1.73.017.537.11 1.49.466 3.263 1.376l2.534-2.498c1.393-1.375 3.039-2.957 3.66-3.515C-25.615.897-25.187.66-24.64.663m182.968-.78c.262-.27.602-.315 1.629-.21.714.074 1.361.254 1.439.4.078.144.196 2.26.265 4.698.07 2.438.155 4.45.185 4.467.046.02 2.208.39 4.817.827 2.617.436 5.002.91 5.3 1.051.513.245.544.362.665 4.364l-4.498 4.666c-2.472 2.566-5.176 5.417-6.01 6.336-1.352 1.493-1.594 1.67-2.271 1.658-.415-.009-1.194-.117-1.731-.24-.534-.126-2.774-.562-4.976-.971-2.2-.41-4.022-.769-4.043-.797-.024-.033-.122-.86-.392-3.598l-1.406-.259c-.772-.142-1.476-.368-1.563-.5-.089-.13-.161-2.722-.161-11.271l5.286-5.138C156.091.281 156.155.23 157.072.23c.564 0 1.058-.135 1.257-.345M66.771.032c.625-.01 1.647.09 2.272.225.625.134 1.672.48 2.325.77.656.29 1.712.935 2.348 1.433.638.5 1.522 1.393 1.968 1.987s.984 1.421 1.196 1.84c.214.415.52 1.194.682 1.73.16.537.349 1.703.418 2.596.1 1.27.028 2-.331 3.354-.253.952-.79 2.266-1.195 2.92-.402.653-1.25 1.69-1.881 2.3-.632.607-1.586 1.354-2.123 1.657-.534.3-1.362.65-1.838.774-.476.123-1.135.277-1.461.342-.331.066-.537.212-.583.41l-.015.132c-.046.238-.438.787-.914 1.268-.904.918-.95.936-2.437.962-.984.017-1.953-.122-4.025-.814l-3.961 4.11-1.2.072c-1.063.064-1.314-.01-2.246-.65-.72-.493-1.217-1.06-1.58-1.802-.42-.856-.497-1.261-.38-1.947.123-.703.504-1.231 3.926-4.759l-.508-1.082c-.277-.594-.569-1.518-.645-2.054-.078-.537-.033-1.314.097-1.732.132-.417.583-1.123 1-1.568.662-.705.762-.954.762-1.893 0-.595.11-1.592.244-2.217.132-.626.536-1.72.895-2.434.36-.714 1.25-1.915 1.976-2.665.813-.846 1.817-1.614 2.617-2.008.714-.353 1.785-.774 2.38-.938A10.7 10.7 0 0 1 66.77.03M-87.766 7.16c-.03.007-2.302 2.218-5.056 4.922-4.117 4.04-5.075 5.095-5.36 5.896-.254.707-.314 1.356-.217 2.38.086.914.363 1.875.794 2.757.38.78 1.142 1.816 1.798 2.45.625.603 1.623 1.332 2.217 1.622.595.287 1.617.638 2.272.779 1.038.22 1.35.201 2.44-.162 1.162-.387 1.597-.76 6.007-5.175 2.606-2.608 4.738-4.745 4.751-4.76l-1.356-.023c-.883-.013-1.725-.187-2.432-.5-.595-.262-1.603-.885-2.241-1.385-.638-.498-1.543-1.488-2.008-2.202-.467-.714-1.053-1.98-1.304-2.813-.309-1.03-.424-1.88-.36-2.65.053-.624.078-1.134.055-1.136M114.73 25.37c-.143-.121-.554.31-1.136 1.185l-.911 1.376 2.704-.032 1.839-2.348c-1.761.004-2.373-.078-2.496-.182M19.718 2.838c.327-.009 1.155.158 1.839.37s1.77.723 2.412 1.136 1.531 1.188 1.973 1.724c.44.537 1.075 1.51 1.406 2.163.402.799.637 1.653.708 2.596.056.772-.002 1.747-.132 2.164-.173.56-1.983 2.499-6.958 7.463-3.948 3.941-7.052 6.864-7.526 7.092-.6.283-1.224.367-2.429.322-1.24-.045-1.904-.197-2.813-.642-.653-.323-1.711-1.101-2.347-1.73-.68-.676-1.437-1.727-1.837-2.554-.491-1.019-.699-1.793-.755-2.812-.043-.775.04-1.844.185-2.38.236-.867.992-1.7 6.944-7.626 5.942-5.918 6.793-6.686 7.708-6.96.564-.172 1.295-.317 1.622-.326m93.886 20.768c-.089.003-.515.563-.946 1.245-.707 1.122-.761 1.31-.562 1.997l.219.756c1.821-2.405 1.869-2.54 1.668-3.245-.119-.417-.29-.754-.379-.753m-156.095-3.405c-3.638 3.556-5.578 5.605-5.577 5.887.002.238.174.592.389.787.212.192.58.41.818.479.346.1 1.566-.975 6.057-5.348l5.625-5.474-1.73-1.784zm95.47 2.969c-.118 0-.271.266-.345.595-.09.409.028.895.387 1.568.326.61.837 1.153 1.374 1.456.47.266 1.144.487 1.5.491.358.005.827-.117 1.044-.268.356-.247.304-.303-.541-.576-.539-.173-1.372-.722-1.964-1.297-.567-.548-1.078-1.217-1.136-1.483-.058-.268-.202-.486-.318-.486m113.123-4.541c-3.253 3.367-5.75 5.78-6.058 5.852-.288.069-1.837-.098-3.441-.37-1.607-.273-3.652-.651-4.543-.841-.893-.19-1.792-.39-2.001-.442-.335-.082-.373.067-.325 1.259l.054 1.35c7.54 1.418 9.891 1.808 10.085 1.783.194-.03 1.695-1.461 3.336-3.187a514 514 0 0 1 5.764-5.949l2.779-2.812-.114-2.372zm-156.013-7c-4.367 4.42-5.576 5.766-5.79 6.452-.159.502-.229 1.41-.166 2.164.065.766.331 1.739.651 2.379.299.595.996 1.543 1.545 2.11.552.564 1.512 1.282 2.137 1.596.71.357 1.623.608 2.435.669.878.067 1.542-.01 2.054-.234.449-.196 2.956-2.536 6.16-5.75 4.913-4.933 5.343-5.421 4.76-5.42-.355 0-1.18-.153-1.834-.343s-1.628-.62-2.163-.956c-.536-.335-1.346-1.035-1.798-1.55-.454-.517-1.124-1.522-1.49-2.236-.47-.915-.714-1.768-.824-2.882l-.158-1.586zm109.133 11.324c-.091 0-.345.121-.559.27-.333.23-.358.386-.174 1.028.168.58.146.87-.089 1.244-.273.43-.264.524.071.805.208.173.452.32.541.324.089.002.31-.165.491-.372.18-.21.615-.72.967-1.136l.641-.757c-1.332-1.089-1.796-1.405-1.889-1.406m-11.518-.004c-.06.002-.523.54-1.027 1.195-.504.653-.892 1.226-.861 1.271.03.046.564.338 1.189.65.625.31 1.234.516 1.353.457.119-.061.615-.62 1.103-1.243l.885-1.136c-1.956-.926-2.577-1.195-2.642-1.194m52.362 2.157c.119 0 .216.341.216.756 0 .433-.093.712-.216.65-.119-.06-.216-.4-.216-.757s.097-.649.216-.65m48.081-1.733c.207.002.67.197 1.027.435.357.237.696.627.757.865.058.238-.005.65-.141.919-.136.268-.354.559-.486.645-.13.089-.483.165-.779.171-.299.006-.81-.188-1.136-.43-.432-.318-.604-.643-.623-1.184-.024-.567.096-.827.487-1.084.283-.186.686-.337.894-.337m-9.367-1.175c-.383-.095-.674-.01-.959.273-.271.268-.396.66-.364 1.148.024.407.165.958.31 1.225.143.268.554.682.911.92s.945.432 1.309.432c.363 0 .778-.121.923-.268.145-.15.26-.563.258-.92-.002-.356-.2-.967-.435-1.352-.238-.387-.651-.843-.919-1.014a4.2 4.2 0 0 0-1.034-.444M54.265 22.9c-.203-.445-.446-.746-.541-.667s-.158.395-.139.702c.017.307.281.9.584 1.317.305.415.965.972 1.465 1.233.502.262 1.277.482 1.723.487.445.006.81-.087.81-.205 0-.12-.073-.175-.162-.123-.09.049-.552-.08-1.027-.292a8 8 0 0 1-1.606-1.013c-.406-.346-.906-.993-1.107-1.439m153.699 1.774c-.403 0-.54.098-.486.354.041.197.219.454.398.574a.87.87 0 0 0 .703.078c.298-.11.333-.234.162-.573-.132-.266-.433-.433-.777-.433m-95.767-1.718c-.207-.002-.376.12-.372.269.003.147-.29.683-.649 1.19-.361.503-.632.958-.602 1.006.031.047.243.12.472.162.303.054.647-.254 1.246-1.114.606-.872.756-1.234.557-1.35a1.6 1.6 0 0 0-.652-.163m96.219.874c-.3.009-.331.047-.107.125.177.063.542.371.81.687q.487.577.494.248c.003-.178-.167-.494-.378-.697-.212-.205-.581-.37-.819-.363M55.117 21.548c-.335-.575-.389-.599-.462-.216-.046.238-.003.724.096 1.081.1.357.398.876.662 1.155.266.28.775.66 1.132.846a6.7 6.7 0 0 0 1.406.5c.543.117.833.076 1.028-.143.224-.253.153-.32-.433-.402-.441-.06-1.14-.484-1.876-1.136-.645-.569-1.343-1.328-1.553-1.685M108.02 4.927l.136 1.039-1.851.741-2.082-1.607c-1.232 1.17-1.641 1.535-1.702 1.562s.255.489.701 1.027c.796.96.807.998.541 1.866l-.271.886c-2.461-.255-2.488-.246-2.488.284 0 .382-.093.508-.324.432q-.324-.108-.974.974c-.495.826-.651 1.348-.658 2.218l-.006 1.135c1.447-1.821 1.681-2.302 1.601-2.596-.065-.238-.011-.506.121-.595.153-.104.238.014.236.325-.004.417.184.532 1.328.81 1.082.264 1.367.427 1.519.866.102.296.296.736.431.974.205.367.148.505-.379.918-.344.267-.696.486-.785.486s-.163.1-.163.219c.001.12.367.73.812 1.356l.81 1.14c2.129-.314 2.354-.273 2.925.153.619.459.649.552.541 1.623l-.112 1.136c2.009 1.005 2.668 1.26 2.758 1.218.089-.044.308-.39.487-.766.177-.379.422-.681.541-.675s.654.143 1.19.303c.886.264 1.012.39 1.406 1.404l.432 1.111h2.921l-.108-2.198 1.839-.614 2.054 1.679 2.165-1.89-2.056-1.952.58-1.839 2.017.109v-2.813c-2.337-.731-2.447-.829-2.832-1.785l-.414-1.027 1.407-1.05c-1.006-1.403-1.42-1.9-1.57-2.005-.158-.11-.653-.108-1.189.007-.872.188-.967.157-1.841-.595-.889-.766-.917-.827-.811-1.82l.11-1.028-2.272-1.134-1.297 1.54c-2.012-.491-2.131-.596-2.484-1.487l-.383-.973-2.693-.132zm95.722 12.33c-.493-.116-.842.152-2.92 2.242-1.893 1.904-2.263 2.373-1.874 2.373.269-.002.844.314 1.279.701.437.387.947 1.065 1.136 1.506l.343.805 4.705-4.636c-.796-1.646-1.269-2.289-1.568-2.49a4 4 0 0 0-1.101-.5m-96.354 3.967c-.035.003-.434.456-.887 1.008-.577.707-.811 1.192-.783 1.623l.043.614c1.112-1.426 1.493-2.157 1.562-2.542.07-.387.099-.702.065-.703m48.377-5.26c-3.169 3.254-5.713 5.956-5.652 6.004.06.046 1.57.374 3.353.726 1.785.35 3.952.773 4.815.935l1.573.297c8.965-9.186 11.593-11.912 11.626-11.986.029-.071-.36-.201-.865-.29-.509-.086-2.761-.484-5.006-.88l-4.082-.724zm-96.124-3.4c-.084.002-.426.299-.757.658-.333.36-.776.652-.984.648-.208-.002-.555-.307-.767-.677-.357-.62-.405-.642-.623-.27-.15.255-.18.84-.08 1.592.086.655.442 1.726.786 2.38.346.653 1.287 1.847 2.09 2.65 1.127 1.127 1.916 1.68 3.46 2.427 1.102.532 1.807.967 1.57.97-.239 0-1.115-.33-1.948-.734-.833-.405-2.137-1.303-2.898-1.997-.762-.692-1.647-1.65-1.97-2.126s-.793-1.424-1.048-2.11c-.255-.683-.467-1.51-.472-1.838-.006-.578-.018-.582-.342-.163-.248.324-.299.703-.193 1.514.078.595.398 1.618.712 2.272.314.655 1.168 1.824 1.897 2.596.948 1.008 1.842 1.679 3.144 2.365 1.579.832 2.033.97 3.441 1.049l1.623.088 1.73-1.778c-1.256.007-1.84-.075-2.109-.175-.268-.101-.553-.32-.637-.487-.087-.177.119-.735.486-1.332.35-.563.638-1.074.639-1.136 0-.058-.22-.11-.488-.113-.268-.002-.875-.181-1.351-.4-.476-.218-1.352-.833-1.947-1.365-.595-.534-1.396-1.45-1.777-2.034-.383-.586-.772-1.382-.865-1.771-.095-.39-.24-.705-.322-.703m-3.585 8.119c-.197-.588-.233-.61-.387-.216-.112.285-.028.69.244 1.19.23.415.903 1.077 1.497 1.466.749.493 1.316.703 1.84.686.69-.024.708-.042.215-.19a8.6 8.6 0 0 1-1.19-.505c-.356-.188-.953-.664-1.326-1.062-.372-.396-.774-1.012-.893-1.37m50.949-.751c-.149.002-.683.587-1.189 1.299-.506.709-.872 1.388-.812 1.507.059.12.23.214.379.21.15-.004.684-.587 1.189-1.299.507-.71.87-1.388.812-1.507a.44.44 0 0 0-.379-.21m85.475-3.26c-.078.004-.273.305-.433.668l-.292.66c3.684 3.667 4.807 4.731 4.867 4.73.061-.005.276-.224.477-.488.361-.47.327-.522-2.056-3.028-1.331-1.4-2.483-2.544-2.563-2.542m-134.784 4.66c-1.028-1.002-1.08-1.028-.699-.349.227.405.68.941 1.004 1.19.325.25.64.407.698.349.058-.062-.394-.595-1.003-1.19m154.615-1.634c.119-.008.485.184.811.426.402.296.592.632.588 1.034-.002.327-.172.769-.378.98-.203.213-.566.387-.804.387s-.702-.199-1.029-.441c-.345-.255-.592-.643-.59-.926.001-.268.078-.584.168-.705s.358-.338.591-.48c.234-.145.524-.268.643-.275m-107.019.228c-.731 0-.898.119-1.792 1.298l-.983 1.297c1.522.018 1.726-.107 2.472-1.018.467-.569.908-1.159.98-1.307.091-.192-.108-.27-.677-.27m-3.825-1.294-.897 1.292 1.406 2.405c.794-.94 1.304-1.532 1.648-1.919.342-.387.525-.753.407-.811-.12-.062-.543-.594-.941-1.184l-.726-1.077zm55.624.858c.445-.004 1.08.124 1.406.286.327.163.669.479.76.704.104.253.042.592-.163.895-.199.296-.643.538-1.138.62-.445.074-1.103.07-1.46-.01-.356-.079-.822-.307-1.034-.51s-.401-.587-.418-.851c-.021-.33.165-.58.602-.803.348-.177.999-.326 1.445-.33m54.869 1.506c-.274 0-.416.109-.354.27.056.15.257.368.445.487.19.119.424.145.52.057.095-.09.099-.308.01-.488-.089-.179-.368-.326-.621-.326M159.517.45c-.666 0-1.061.272-3.083 2.139-1.276 1.177-2.661 2.495-3.076 2.926-.417.432-.878.781-1.028.78-.149-.002-.27-.052-.27-.112.001-.06.511-.57 1.136-1.134.625-.565 1.743-1.612 2.485-2.325.742-.716 1.35-1.375 1.352-1.463 0-.089-.132-.138-.298-.108s-2.549 2.27-5.301 4.976l-4.999 4.92.108 10.245 2.254.465c.123-9.981.11-10.177-.308-10.389-.237-.123-.462-.415-.499-.648-.038-.247.307-.912.811-1.565.541-.698 1.045-1.135 1.312-1.135.237 0 .427.073.425.162-.004.088-.467.638-1.027 1.22-1.001 1.036-1.013 1.06-.541 1.298.437.219.699.033 2.921-2.092a532 532 0 0 1 5.417-5.084c1.636-1.51 2.974-2.822 2.974-2.914 0-.088-.346-.162-.765-.162m-2.324 19.465c-.39 0-.855.148-1.033.325-.237.238-.25.324-.049.325.153 0 .253.12.223.27-.034.175.267.29.865.324.558.033.876-.03.811-.162-.06-.119.088-.217.325-.217s.433-.097.433-.215c-.001-.12-.195-.314-.433-.433s-.751-.217-1.142-.217m50.136-18.172c-.285.002-2.875 2.486-7.464 7.161l-7.026 7.157 5.111 5.048c11.213-11.234 14.465-14.544 14.46-14.602-.009-.066-1.054-1.16-2.325-2.438-1.44-1.446-2.484-2.327-2.756-2.326M66.824.903c-.418.015-1.198.112-1.732.216-.537.104-1.607.5-2.379.881-.779.383-1.891 1.18-2.495 1.787-.597.604-1.401 1.73-1.786 2.503s-.803 2.04-.929 2.813c-.125.774-.162 1.747-.082 2.163.08.417.236 1.001.344 1.297l.201.541c1.715-1.76 1.924-1.864 2.636-1.801l.81.071c-.008-1.626.19-2.336.604-3.137.379-.733.982-1.465 1.575-1.91.528-.397 1.495-.87 2.15-1.052.974-.272 1.405-.288 2.38-.085.654.137 1.627.529 2.163.87.535.342 1.227.948 1.536 1.346.31.398.745 1.064.963 1.48.288.543.4 1.218.4 2.38 0 1.217-.112 1.839-.45 2.488a10.4 10.4 0 0 1-.982 1.514c-.294.356-1.06.915-1.705 1.237-.642.324-1.534.64-1.98.703-.782.11-.808.143-.765.926.03.57-.145 1.127-.595 1.876l-.64 1.066c3.98-.192 4.534-.309 5.625-.839.714-.346 1.808-1.145 2.433-1.772.68-.684 1.443-1.77 1.902-2.71.439-.896.872-2.218 1.012-3.083.186-1.138.185-1.863-.004-2.921-.138-.772-.61-2.135-1.05-3.028-.506-1.026-1.243-2.067-2.006-2.828-.703-.703-1.792-1.49-2.612-1.891-.774-.379-1.943-.785-2.596-.906-.655-.121-1.531-.21-1.947-.195m145.649 19.223c-.149.002-.268.079-.264.167s.247.333.541.541c.372.264.536.296.538.108.002-.149-.121-.394-.27-.546-.152-.149-.396-.272-.545-.27M155.099 6.223l-5.445 5.367.134 9.216 11.141-11.488-.387-8.463zm-43.925 2.28c1.04.048 1.785.247 2.866.764.802.382 1.957 1.159 2.568 1.723.607.565 1.387 1.588 1.731 2.272.342.683.681 1.61.753 2.055.069.446.021 1.225-.108 1.73-.132.507-.555 1.269-.942 1.695-.493.545-1.058.876-1.892 1.111-1.004.284-1.409.295-2.596.072-.774-.147-1.846-.488-2.38-.76-.536-.274-1.493-.972-2.129-1.55-.718-.653-1.395-1.547-1.787-2.351-.346-.714-.69-1.689-.762-2.164-.077-.504-.012-1.227.155-1.73.158-.477.534-1.15.837-1.498.3-.348.939-.813 1.415-1.034.631-.294 1.244-.385 2.271-.335m97.994 2.771c-.06-.002-1.374 1.263-2.921 2.81-2.221 2.226-2.706 2.813-2.321 2.813.268 0 .883.364 1.367.81.483.447.995 1.128 1.136 1.518l.255.705c4.311-4.316 5.3-5.467 5.294-5.74-.005-.238-.223-.802-.487-1.254a3.37 3.37 0 0 0-1.345-1.24c-.475-.23-.913-.418-.978-.422m-85.98 7.354c-.364 0-.572.151-.665.486-.076.266-.035.584.091.703.153.145.372.076.672-.216.245-.238.442-.556.438-.703-.005-.15-.245-.27-.536-.27m-12.484-7.099c-.556-.097-1.432-.114-1.947-.04s-1.058.2-1.207.279c-.149.078-.27.387-.27.683 0 .299.188 1.051.417 1.676.249.681.879 1.642 1.569 2.401.735.81 1.618 1.496 2.448 1.905 1.032.51 1.621.649 2.875.683 1.194.03 1.629-.037 1.796-.283.121-.177.18-.811.13-1.406-.052-.636-.346-1.563-.714-2.248-.344-.643-.978-1.471-1.41-1.84-.431-.37-1.21-.889-1.732-1.152a8.5 8.5 0 0 0-1.955-.658M-36.878 7.16c-.683 0-1.055.124-1.351.455-.299.33-.4.733-.368 1.46.028.65.312 1.543.8 2.52.418.834 1.162 2.002 1.658 2.596.493.595 1.446 1.55 2.117 2.12.672.572 1.806 1.324 2.52 1.67.81.394 1.664.637 2.272.648.62.009 1.16-.126 1.488-.372.41-.31.513-.587.509-1.361-.002-.537-.167-1.364-.363-1.84-.197-.475-.5-1.085-.671-1.35l-.314-.488c-.921 1.053-1.385 1.436-1.623 1.53s-.822.07-1.298-.053c-.586-.149-1.216-.582-1.95-1.337-.596-.614-1.217-1.503-1.379-1.98-.162-.475-.233-1.132-.16-1.459.076-.329.307-.65.515-.712.207-.065.5-.307.65-.54.245-.39.169-.47-.92-.966-.686-.313-1.589-.54-2.132-.54m252.382 8.43c.251-.092.727-.057 1.077.079.344.134.789.506.989.826.307.489.322.671.095 1.136-.149.305-.524.675-.831.824-.48.231-.677.208-1.351-.162-.649-.355-.803-.57-.851-1.19-.032-.416.05-.89.18-1.051.132-.162.443-.37.692-.461M63.096 11.606c-.776-.328-.807-.324-.812.095-.002.24-.175.498-.382.572s-.597.025-.866-.109c-.432-.216-.486-.19-.484.242 0 .269.229.974.508 1.569s.934 1.508 1.458 2.027 1.341 1.17 1.817 1.445 1.149.58 1.497.677c.6.169.625.15.474-.363-.117-.39-.052-.647.231-.926.217-.212.565-.383.773-.379.207.004.38-.064.38-.155.002-.09-.281-.6-.63-1.136-.345-.534-.858-1.228-1.137-1.54a10 10 0 0 0-1.264-1.123 9.5 9.5 0 0 0-1.563-.896m97.619 3.992c.242.004.214.086-.108.326-.238.177-.506.32-.595.318s-.162.093-.162.212.145.216.324.216c.192 0 .281.133.216.325-.084.253.086.324.758.324.7 0 .835-.063.703-.329-.127-.256-.056-.304.324-.216.268.063.489.04.491-.05.002-.088-.121-.286-.27-.437-.151-.149-.177-.272-.059-.272.119 0 .34.123.491.272.15.151.273.494.271.762-.002.296-.238.63-.6.85-.409.25-.907.334-1.596.271-.597-.056-1.188-.27-1.467-.526-.255-.238-.476-.604-.488-.814-.011-.22.292-.564.711-.81.402-.236.876-.426 1.056-.422M111.498 9.23c-.798-.076-1.562-.02-1.986.142-.378.147-.735.329-.794.404-.058.076.299.046.796-.066.499-.115 1.22-.127 1.618-.03.393.097.686.272.649.391-.037.12-.311.227-.607.242-.299.013-.93.05-1.406.08-.752.048-.684.081.54.25.83.114 1.973.48 2.791.893a8.6 8.6 0 0 1 2.449 1.888c.601.67 1.248 1.686 1.482 2.326.229.625.426 1.451.435 1.839.017.694.023.69.529-.379.344-.727.472-1.294.39-1.73-.065-.358-.335-1.136-.597-1.731-.264-.595-.969-1.57-1.568-2.164-.601-.595-1.617-1.341-2.257-1.66a8 8 0 0 0-2.464-.696m104.122 7.43c-.084.005-.205.107-.27.226s.052.413.26.655c.207.242.5.437.649.433s.335-.128.413-.277c.08-.153-.083-.437-.379-.658-.287-.214-.59-.385-.673-.379m.65-.865c-.084.005-.195.082-.247.17-.054.09.186.432.53.759.558.53.64.553.768.215.094-.257-.026-.504-.378-.765-.288-.214-.591-.385-.673-.38M103.22 14.74c-.089.005-.479.444-.866.974s-.769 1.135-.852 1.343.186.037.597-.378c.411-.418.921-.855 1.138-.974.242-.134.344-.36.268-.595-.067-.207-.196-.373-.285-.37M-82.556 4.232c-.714-.054-1.59.011-1.948.143s-.92.496-1.25.808c-.331.311-.755.958-.941 1.433-.249.63-.31 1.303-.228 2.489.09 1.267.277 1.95.866 3.136a8.7 8.7 0 0 0 1.908 2.574c.638.582 1.646 1.288 2.241 1.563.595.277 1.52.567 2.056.645.534.077 1.338.079 1.784.005.476-.08 1.147-.439 1.623-.865.445-.4.943-1.106 1.105-1.568.19-.537.264-1.426.206-2.462-.068-1.224-.245-1.943-.72-2.92-.349-.718-1.166-1.835-1.828-2.497-.658-.658-1.734-1.464-2.387-1.793a6.9 6.9 0 0 0-2.487-.69m183.964 9.725c-.233-.069-.664.275-1.269 1.013-.503.613-.906 1.2-.892 1.303.013.104.245.233.513.287s.632.155.812.226c.22.089.653-.29 1.352-1.179l1.027-1.308c-.921-.184-1.348-.284-1.543-.342m97.397-.532c.387 0 .844.21 1.175.54.296.298.54.76.543 1.028 0 .268-.145.705-.325.973-.235.35-.538.487-1.083.487-.519 0-.929-.171-1.298-.54-.299-.297-.552-.723-.563-.946-.013-.221.188-.66.445-.974q.47-.568 1.106-.568M66.931 6.082c-.742.007-1.576.158-1.946.353-.357.188-.927.6-1.264.91-.34.314-.8.935-1.027 1.383-.227.445-.416.98-.418 1.19-.005.257.394.545 1.244.902.88.37 1.698.976 2.773 2.055.84.841 1.704 1.922 1.923 2.398.216.475.407.892.42.927.015.035.366-.072.783-.238.416-.165 1.123-.705 1.569-1.198a5.5 5.5 0 0 0 1.162-2.142c.302-1.075.313-1.408.07-2.434-.155-.655-.582-1.58-.947-2.055-.383-.498-1.174-1.123-1.856-1.465-.917-.463-1.482-.595-2.486-.586m131.666 8.424c-.106 0-.301.147-.433.324-.177.24-.17.412.031.658.149.184.489.33.757.325s.534-.106.595-.225-.087-.412-.325-.65c-.238-.237-.519-.432-.625-.432M19.755 3.903c-1.001.005-1.489.124-2.056.502-.408.273-.866.737-1.02 1.029-.173.33-.253 1.103-.212 2.045.048 1.054.226 1.844.59 2.597.29.595 1.03 1.616 1.646 2.272a8.2 8.2 0 0 0 2.5 1.828c.988.458 1.717.64 2.57.644.854.007 1.419-.128 2-.476.606-.361.902-.744 1.172-1.51a4.24 4.24 0 0 0 .217-2.11c-.078-.594-.379-1.568-.669-2.162-.292-.595-.949-1.556-1.461-2.133-.61-.684-1.461-1.307-2.45-1.79-1.226-.599-1.765-.74-2.827-.736m179.251 9.952c-.2.002-.077.202.324.526.413.333.68.43.732.27.043-.138-.102-.377-.324-.528-.225-.149-.555-.27-.732-.268m-281.16-7.14c.87-.003 1.338.14 2.14.65.565.357 1.366 1.114 1.779 1.679.41.564.861 1.513 1.002 2.108.188.812.19 1.286.007 1.894-.158.523-.494.969-.949 1.257-.527.333-.97.424-1.784.368-.746-.052-1.379-.274-2.045-.715-.527-.353-1.265-1.03-1.637-1.505-.377-.48-.802-1.396-.96-2.056-.165-.692-.216-1.462-.123-1.838.089-.357.453-.918.81-1.244.53-.487.853-.595 1.76-.597M164.75 11.91c.411 0 .676.093.616.216-.06.119-.302.217-.54.217s-.58.05-.757.108c-.179.06-.324.206-.325.324 0 .12.219.225.487.234.268.008.366.058.217.108s-.271.189-.271.308c.001.118.34.215.757.216.528 0 .758-.098.758-.325q.002-.322.378-.195c.309.104.348.044.216-.324-.127-.358-.081-.444.216-.399.258.037.397.283.434.758.047.625-.036.738-.758 1.045-.532.225-1.071.294-1.568.201-.418-.08-.976-.283-1.244-.452s-.495-.498-.508-.727c-.01-.23.249-.62.575-.866s.919-.447 1.317-.447m49.455-5.066c-.411-.13-.822.175-2.65 1.972l-2.163 2.13c1.254.523 1.83.96 2.088 1.31.257.35.572.903.702 1.231l.236.595c3.394-3.491 4.105-4.387 4.107-4.705.002-.268-.143-.779-.321-1.136s-.593-.783-.92-.947a9 9 0 0 0-1.079-.45M-29.357 5.6c-1.298 1.28-2.944 2.844-3.658 3.476l-1.3 1.149c.397 1.224.883 1.975 1.338 2.456.454.48 1.168.99 1.584 1.135l.756.26 7.012-7.03c-1.41-.851-2.074-1.436-2.386-1.847-.311-.413-.662-1.014-.777-1.339l-.21-.588zM-83.06 8.232c-.338 0-.695.065-.794.145-.1.078-.164.225-.145.324.02.1.255.183.524.185.268.002.876.233 1.351.514.476.28 1.118.838 1.428 1.238.31.402.725 1.047.92 1.434.197.387.356.948.356 1.244 0 .298.08.54.174.54.095 0 .292-.12.437-.27.145-.148.26-.464.257-.702-.004-.239-.234-.92-.51-1.515-.28-.595-.911-1.447-1.405-1.892-.495-.446-1.144-.91-1.44-1.029a3.7 3.7 0 0 0-1.153-.216m-.415 1.291c-.268.005-.487.105-.488.223 0 .119.412.435.911.703.502.268 1.14.827 1.42 1.244.276.418.564 1.002.636 1.298.071.298.236.613.365.7.132.088.312.161.4.161.09.002.163-.19.163-.428 0-.239-.22-.89-.488-1.444-.294-.613-.871-1.3-1.46-1.738-.536-.398-1.191-.723-1.46-.719m234.973.915c.329.048.47.246.513.714.035.368-.13.955-.379 1.353-.257.413-.617.703-.87.703-.337 0-.433-.146-.433-.65.001-.357.161-.995.358-1.416.268-.573.474-.753.811-.703m-234.338.819c-.392-.227-.708-.32-.703-.206.007.117.442.673.965 1.237s1.01.954 1.082.866c.071-.088-.041-.459-.249-.822s-.701-.846-1.095-1.075M20.475 5.649c.387-.006 1.069.139 1.514.323s1.23.744 1.738 1.244c.551.54 1.098 1.37 1.351 2.044.234.625.427 1.38.427 1.677s-.121.787-.27 1.09c-.15.3-.613.7-1.029.889q-.757.339-1.513.192c-.418-.082-1.148-.372-1.623-.644-.476-.273-1.145-.825-1.487-1.227a9.5 9.5 0 0 1-1.027-1.545c-.225-.445-.407-1.224-.41-1.73 0-.506.157-1.145.347-1.422.193-.277.559-.586.814-.69.255-.101.78-.192 1.168-.2m182.641 4.314c.238 0 .676.245.974.54.296.3.538.712.534.92-.002.207-.173.552-.379.764-.203.212-.64.383-.966.378-.327-.004-.79-.201-1.028-.439-.237-.238-.432-.627-.432-.865s.194-.628.432-.865c.238-.238.627-.433.865-.433M-81.852 7.364c-.325 0-.592.053-.595.11 0 .059.463.34 1.027.622.565.28 1.344.865 1.732 1.298.387.432.897 1.175 1.136 1.65.237.476.429 1.036.427 1.244-.002.303.052.325.27.108.224-.218.22-.447-.012-1.189a8.5 8.5 0 0 0-.811-1.73c-.288-.446-.987-1.106-1.551-1.463-.565-.36-1.297-.652-1.623-.65M19.74 7.263c-.49-.106-.689-.067-.708.14-.016.158.34.498.79.753.447.255 1.135.793 1.527 1.19.389.399.888 1.212 1.11 1.806.289.785.524 1.097.857 1.136.376.045.458-.06.458-.595 0-.357-.16-.964-.357-1.351-.199-.387-.563-.981-.811-1.32-.252-.338-.844-.84-1.32-1.115-.476-.274-1.172-.564-1.547-.644m-.414 1.618c-.282 0-.294.077-.069.487.147.269.714.952 1.257 1.523.542.568 1.109 1.031 1.259 1.028.192-.007.156-.24-.134-.82-.223-.446-.76-1.128-1.19-1.515-.433-.387-.936-.703-1.123-.703m183.557 2.159c-.069.003-.191.079-.27.167-.078.089-.022.288.127.441.146.156.389.277.539.271.149-.004.271-.082.274-.17.002-.09-.121-.287-.27-.438-.151-.15-.331-.273-.4-.271M20.704 6.353c-.716-.093-.985-.059-.92.116.052.136.267.247.474.247.208-.002.818.273 1.353.61.536.338 1.261.995 1.614 1.462.352.467.8 1.288.995 1.824.257.71.4.884.523.649.093-.178.108-.617.035-.974-.072-.357-.427-1.112-.784-1.677-.359-.564-1.02-1.273-1.465-1.576s-1.267-.61-1.825-.681m133.661 1.23c.16 0 .352.22.428.487.084.3-.024.776-.283 1.243-.255.463-.581.758-.839.758-.35 0-.411-.134-.366-.815.03-.45.214-1.01.411-1.244.195-.236.487-.429.649-.429m-51.885.096c-.342-.448-.353-.443-.898.432-.305.487-.486.954-.402 1.036.083.085.538.22 1.014.3.778.133.883.096 1.051-.369.132-.365.1-.575-.119-.728-.166-.12-.458-.423-.646-.671m103.805-2.042c.16 0 .34.097.401.216.058.118-.039.216-.216.216-.179 0-.326.074-.331.162-.002.09.264.305.595.478s.746.32.923.325c.176.005.347.18.379.387.031.208-.189.623-.485.92-.409.408-.686.51-1.136.417-.326-.07-.815-.338-1.088-.595-.27-.26-.497-.732-.505-1.052-.011-.389.179-.724.579-1.027.326-.246.724-.447.884-.447m-.292 1.29c-.142.005-.328.13-.413.278-.09.16.062.426.368.65.422.31.576.332.796.109.225-.22.203-.346-.108-.657-.21-.212-.5-.384-.643-.38m-48.874-2.096c.134.046.273.414.312.822.043.47-.073.931-.324 1.262-.266.35-.518.473-.773.378-.231-.087-.387-.385-.4-.764-.013-.35.186-.87.461-1.198.265-.32.592-.545.724-.5M-25.784 3.693c-.218-.417-.402-.635-.406-.486-.007.15.123.539.287.865.162.327.626.894 1.028 1.257.4.366.973.735 1.27.826.298.089.582.106.632.04.048-.067-.075-.122-.27-.122-.2 0-.763-.365-1.254-.81-.489-.446-1.07-1.154-1.287-1.57m1.303-2.163c-.303 0-.688.117-.855.26-.166.143-.283.459-.258.703.024.245.263.8.53 1.237s.73.992 1.026 1.232c.299.24.863.514 1.259.61.545.133.764.1.915-.147.11-.18.201-.617.201-.974.002-.357-.19-.965-.428-1.352-.237-.388-.748-.898-1.135-1.136s-.952-.433-1.255-.433M159.47 2.614c.207-.004.425.188.486.426.059.238-.026.7-.19 1.027-.165.327-.456.717-.649.867-.242.186-.45.202-.674.053s-.282-.398-.183-.811c.078-.327.297-.812.487-1.075.188-.264.515-.482.723-.487m-189.997-49.85c.43-.303.829-.357 1.947-.268a7.3 7.3 0 0 1 2.704.757c.887.44 1.811 1.184 2.921 2.35.893.938 1.938 2.236 2.323 2.883.385.65.91 2.006 1.17 3.018.422 1.65.44 1.915.165 2.583-.175.426-1.225 1.598-2.468 2.756-1.8 1.676-2.309 2.034-3.029 2.134-.476.064-1.352-.015-3.029-.474l-2.92 2.68a5142 5142 0 0 0-6.02 5.532c-1.706 1.567-3.361 3.023-3.678 3.23-.32.21-.989.378-1.497.378-.507.002-1.286-.151-1.732-.34a8.2 8.2 0 0 1-1.568-.941c-.416-.329-1.066-1.075-1.444-1.66-.379-.581-.806-1.546-.949-2.14-.205-.855-.202-1.265.014-1.948.197-.625.755-1.315 2.014-2.487.958-.891 2.061-1.915 2.453-2.272s1.31-1.183 2.042-1.839c.733-.655 1.88-1.688 2.549-2.296.67-.61 1.802-1.629 3.813-3.422l-.079-1.847c-.058-1.333.01-2.025.242-2.494.178-.357 1.041-1.29 1.92-2.074.877-.78 1.84-1.592 2.136-1.8m-50.298-.279c.779.035 1.687.242 2.272.52.536.256 1.746 1.13 2.69 1.94.979.84 2.158 2.126 2.744 2.99.603.886 1.304 2.32 1.693 3.46.366 1.071.665 2.167.662 2.435 0 .268-.135.755-.297 1.081-.163.327-1.26 1.506-2.435 2.62-1.174 1.113-2.33 2.164-2.57 2.336-.35.253-.657.268-1.622.08-.654-.125-1.482-.376-1.84-.553-.607-.305-.683-.294-1.189.165-.296.27-.835.782-1.194 1.14-.359.356-1.764 1.67-3.122 2.92-1.359 1.25-3.206 2.946-4.108 3.77-.9.825-1.927 1.776-2.285 2.116-.356.34-.94.673-1.297.74s-.99.054-1.407-.028c-.415-.082-.999-.277-1.297-.43-.297-.154-1.07-.803-1.716-1.44-.686-.677-1.396-1.655-1.707-2.349-.41-.91-.513-1.456-.448-2.323.08-1.064.167-1.214 1.387-2.38.718-.686 2.118-1.977 3.113-2.868.995-.894 2.127-1.915 2.514-2.272s1.274-1.155 1.97-1.776c.697-.619 1.736-1.545 3.343-2.983l-.253-1.19c-.139-.655-.192-1.653-.117-2.218q.135-1.028.837-1.933c.388-.498 1.037-1.205 1.446-1.569a18 18 0 0 1 1.577-1.222c.458-.307.954-.623 1.096-.697.146-.075.847-.112 1.56-.082m202.004 1.023c.582-.004 1.425.176 1.946.416.506.233 1.39.89 1.963 1.46.664.66 1.194 1.45 1.46 2.172.229.625.42 1.403.42 1.73.002.327-.169 1.078-.379 1.668-.34.956-1.365 2.041-9.424 9.952-6.571 6.455-9.258 8.956-9.843 9.166-.452.163-1.269.243-1.881.189-.595-.054-1.472-.295-1.948-.532-.476-.24-1.261-.86-1.746-1.38-.484-.519-1.014-1.334-1.176-1.81-.163-.476-.293-1.351-.289-1.946.007-.6.185-1.42.399-1.84.215-.418 4.39-4.785 9.281-9.706 4.889-4.924 9.183-9.082 9.54-9.24.357-.16 1.112-.295 1.677-.3m38.67 1.093c.417-.009 1.391.086 2.163.212.774.125 2.138.472 3.029.768.894.296 2.256.913 3.029 1.37a25 25 0 0 1 2.675 1.88c.697.577 1.786 1.685 2.417 2.457s1.542 2.232 2.027 3.244.991 2.424 1.123 3.138.197 1.979.145 2.811c-.054.833-.288 1.952-.524 2.489-.234.534-.979 1.729-1.656 2.65-.677.922-1.695 2.012-2.259 2.423-.565.409-1.709.965-2.542 1.233-1.17.377-1.982.483-3.57.463-1.276-.015-2.669-.186-3.677-.45-.892-.234-2.255-.742-3.03-1.127a25 25 0 0 1-2.704-1.616c-.714-.502-1.957-1.635-2.764-2.516-.835-.913-1.822-2.297-2.298-3.223-.459-.894-1.012-2.16-1.233-2.813-.276-.822-.398-1.791-.389-3.137.008-1.696.095-2.129.662-3.353.359-.772.995-1.942 1.415-2.596s1.19-1.572 1.711-2.042c.523-.47 1.388-1.04 1.923-1.272s1.557-.548 2.271-.7c.714-.153 1.641-.285 2.056-.293M-96.379-28.155c-.484-.091-.79.029-1.358.528-.567.5-.73.813-.727 1.382.005.402.214 1.147.467 1.653.255.506.823 1.358 1.264 1.893.45.547 1.31 1.235 1.97 1.57.645.329 1.368.602 1.606.604s.7-.193 1.027-.435c.506-.374.596-.595.591-1.469-.004-.755-.197-1.369-.73-2.325-.397-.714-1.102-1.594-1.563-1.958-.46-.361-1.084-.81-1.38-.993a4 4 0 0 0-1.167-.45m198.273.913c-.126 0-.338.188-.47.42-.134.23-.233.91-.223 1.513.011.615.202 1.45.433 1.907.227.445.74 1.123 1.136 1.504.398.38 1.087.843 1.533 1.027s1.225.335 1.731.335c.571 0 1.207-.182 1.676-.476l.758-.473c-1.845-.282-2.769-.591-3.245-.87-.476-.277-1.181-.859-1.568-1.29-.388-.432-.84-1.053-1.006-1.38s-.356-.96-.416-1.406c-.063-.444-.214-.81-.339-.811m-147.068-.865a.47.47 0 0 0-.379.215c-.064.12.124.217.422.217.297 0 .81.136 1.136.303.327.164 1.105.846 1.73 1.515.625.665 1.136 1.331 1.136 1.481.002.15-.46-.258-1.027-.902-.565-.645-1.417-1.35-1.893-1.564s-1.2-.392-1.612-.396c-.439-.002-.837.134-.967.33-.12.185-.199.722-.173 1.191s.243 1.244.48 1.72c.239.476.798 1.27 1.244 1.766.446.493 1.2 1.074 1.677 1.293.476.216 1.231.396 1.677.398.527.002.962-.148 1.244-.429.348-.348.406-.61.304-1.351-.071-.506-.36-1.406-.644-2.001-.286-.595-.932-1.486-1.44-1.98-.509-.495-1.314-1.103-1.79-1.352-.475-.251-.981-.454-1.125-.454m58.672-18.578c.714-.017 2.856.11 4.76.284 1.904.173 3.672.392 3.927.487.256.094 1.119.9 1.919 1.793a73 73 0 0 1 2.803 3.353c.74.952 1.605 2.12 2.497 3.461l-.234 3.03c-.13 1.665-.3 3.92-.38 5.008-.117 1.559-.243 2.088-.595 2.488-.25.279-1.26 1.434-2.25 2.563a358 358 0 0 0-1.933 2.215c-.071.089-1.2.307-2.509.483-1.309.177-3.719.398-8.329.656l-8.872-8.87.02-4.002c.01-2.202.084-4.457.164-5.013.132-.937.374-1.253 3.325-4.368 2.336-2.464 3.345-3.382 3.786-3.447.333-.05 1.188-.103 1.901-.12m137.19 10.57c-.082.654-.054 1.725.06 2.38.115.654.297 1.483.403 1.84.106.356.461 1.183.79 1.838.328.653.867 1.579 1.2 2.055.331.476 1.27 1.509 2.086 2.294.818.785 2.068 1.8 2.782 2.256.714.454 2.029 1.092 2.92 1.417.893.324 2.378.696 3.3.826 1.131.16 2.152.17 3.136.03.805-.114 1.9-.363 2.434-.553.537-.19 1.292-.535 1.677-.766.386-.231.678-.469.648-.527-.028-.06-.443.046-.919.239-.476.192-1.449.433-2.163.535-.763.11-2.075.099-3.191-.024-1.147-.128-2.637-.487-3.788-.914-1.043-.387-2.468-1.044-3.169-1.46-.699-.417-1.974-1.438-2.828-2.27-.857-.834-1.979-2.15-2.496-2.922-.517-.774-1.182-1.942-1.476-2.596s-.696-2.018-.896-3.028l-.361-1.839zM216.097-48c.18-.006.667.078 1.082.188.418.111 1.267.598 1.893 1.082.64.496 1.336 1.28 1.598 1.798.255.506.467 1.26.472 1.676.004.441-.202 1.074-.993 2.273l1.14 2.704-.448.594c-.389.517-.417.71-.223 1.46.178.682.16.959-.082 1.298-.171.238-1.264 1.443-4.547 4.924l-4.976.167-1.568 1.512c-.861.828-1.565 1.554-1.569 1.618 0 .06-.607.72-1.351 1.467a70 70 0 0 0-2.482 2.65c-1.103 1.261-1.158 1.294-2.38 1.376-.986.067-1.501-.028-2.44-.445-.656-.292-1.607-.963-2.12-1.491-.656-.68-1.026-1.31-1.262-2.15-.199-.715-.269-1.45-.179-1.84.085-.357.767-1.33 1.517-2.163s2.297-2.488 3.441-3.678c1.145-1.19 2.382-2.552 3.427-3.893l-.931-3.354.748-.92c.411-.506 1.384-1.576 2.163-2.378.778-.803 1.49-1.413 1.579-1.357.089.058.673-.479 1.298-1.19.625-.712 1.307-1.294 1.514-1.294s.89.196 1.515.433c.625.238 1.305.434 1.514.439.207.002.608-.255.887-.573.281-.318.719-.655.974-.748.255-.096.612-.178.789-.185m-149.11.206c.507-.002 1.431.106 2.056.24.625.135 1.817.584 2.65 1.001 1.058.53 2.005 1.258 3.141 2.406.896.907 1.889 2.135 2.211 2.73.32.595.727 1.764.904 2.597.232 1.096.264 1.782.12 2.487-.12.571-.548 1.422-1.04 2.056-.46.594-1.167 1.228-1.572 1.406-.426.188-1.283.311-2.034.292-.714-.017-1.687-.174-2.163-.347-.828-.3-.9-.29-1.702.25-.46.308-.973.83-1.136 1.157-.164.326-.64.765-1.06.973s-.758.476-.757.595-.946 1.142-2.106 2.271-2.279 2.323-2.487 2.65-.647.689-.974.803c-.326.113-.765.454-.973.757s-.695.708-1.082.9c-.388.195-1.288.375-2.001.401-.714.026-2.07.134-4.723.44l.174-1.407c.095-.772.188-2.088.205-2.92.024-1.06.154-1.71.437-2.164.223-.357.537-.723.697-.811.16-.09.44-.529.627-.974.184-.446.55-1.032.811-1.305.26-.27.572-.487.69-.48.12.006.462-.353.758-.8.298-.448.843-1.01 1.213-1.25.37-.241.775-.68.903-.978.125-.297.52-.736.878-.974.359-.238.95-.846 1.315-1.352.368-.506.91-1.016 1.207-1.135.439-.175.565-.407.662-1.244.07-.574.013-1.314-.128-1.677-.136-.357-.255-1.184-.263-1.84-.01-.672.13-1.472.318-1.838.184-.357.611-.982.953-1.389.342-.406 1.01-.917 1.486-1.131.476-.215 1.28-.394 1.785-.396M26.95-26.81c-1.708.054-2.546.102-2.962.141s-1.973.177-3.456.305l-2.7.234c-1.177 1.402-2.006 2.321-2.603 2.946-.597.627-1.003 1.211-.906 1.298.097.089 1.702.03 3.569-.128 1.864-.158 3.855-.378 4.42-.486.843-.162 1.213-.4 2.07-1.335a65 65 0 0 0 1.807-2.055zm172.325-3.439c-.09.014-.771.694-1.515 1.514-.973 1.075-1.352 1.66-1.35 2.087 0 .327.227 1.082.504 1.677.275.595.836 1.365 1.242 1.71s1.056.76 1.443.92 1.167.291 1.731.293c.991.002 1.078-.052 2.397-1.46l1.367-1.463c-1.283-.188-1.997-.423-2.412-.646-.418-.223-1.185-.849-1.711-1.394-.523-.543-1.084-1.304-1.244-1.691s-.29-.898-.29-1.136-.074-.422-.162-.411M9.708-34.16c-.06.01-1.009.984-2.11 2.169-1.098 1.183-1.995 2.224-1.991 2.315.006.09 1.247 1.41 2.757 2.929 1.513 1.523 3.263 3.204 3.886 3.732l1.136.965 3.678-4.327c-4.442-4.612-6.073-6.367-6.49-6.875-.415-.51-.805-.918-.866-.908m93.708 5.187c-.101 0-.364.177-.58.396-.242.242-.38.665-.356 1.082.021.376.19 1.051.379 1.497.186.446.653 1.2 1.04 1.677.387.476 1.233 1.133 1.88 1.462.768.391 1.512.597 2.148.597.534 0 1.192-.147 1.46-.327s.486-.4.484-.49c-.001-.088-.439-.185-.972-.215-.535-.03-1.435-.284-1.999-.567-.565-.282-1.345-.866-1.732-1.298-.387-.43-.898-1.175-1.136-1.65-.237-.476-.432-1.158-.432-1.515s-.082-.648-.184-.649m-146.743.026c-.441-.102-.945-.1-1.136.005-.272.147-.107.31.782.78.618.326 1.596 1.082 2.171 1.677.576.595 1.288 1.569 1.582 2.164s.535 1.3.533 1.568c-.002.285.11.456.267.415.15-.039.36-.307.47-.595.143-.378.084-.824-.21-1.605-.223-.595-.774-1.545-1.226-2.11-.45-.564-1.184-1.271-1.63-1.57s-1.168-.628-1.603-.73M-95.5-29.19c-.279 0-.571.05-.65.108-.08.06.345.376.942.703s1.497.997 2.001 1.488 1.229 1.465 1.611 2.163c.383.699.7 1.489.704 1.757.002.268.103.487.222.488.12 0 .314-.195.433-.433s.154-.702.078-1.028c-.078-.327-.359-1.032-.625-1.569-.266-.534-.983-1.436-1.593-2-.608-.565-1.447-1.173-1.862-1.352-.417-.177-.984-.325-1.26-.325m149.644 5.408c-.638-.645-.749-.692-.744-.325.002.239-.044.652-.1.92-.095.433-.021.487.651.487.415 0 .798-.074.85-.162.051-.09-.244-.503-.657-.92m.17-4.759c-.099 0-.341.292-.54.648-.202.357-.364.894-.364 1.19 0 .3.138.81.307 1.137s.68.952 1.137 1.386c.454.437 1.217.913 1.693 1.06.71.22.998.215 1.597-.034.402-.167.813-.4.913-.52.111-.134-.2-.34-.824-.54-.554-.178-1.441-.714-1.971-1.19s-1.144-1.231-1.367-1.677c-.22-.446-.403-.956-.403-1.136 0-.177-.08-.324-.177-.324m106.618-15.864a12.7 12.7 0 0 0-2.38.069c-.655.093-1.63.331-2.164.528-.536.197-1.315.619-1.731.937s-.932.774-1.148 1.014c-.216.243-.63.926-.922 1.521-.29.595-.59 1.616-.666 2.272-.078.661-.024 1.814.121 2.595.149.805.695 2.283 1.277 3.453.735 1.484 1.432 2.49 2.529 3.655.833.884 2.098 2.002 2.811 2.485.714.48 2.004 1.196 2.868 1.59.954.435 2.395.857 3.677 1.075 1.726.294 2.404.319 3.732.126.891-.13 2.086-.439 2.65-.686.565-.246 1.43-.814 1.919-1.26.491-.445 1.135-1.297 1.432-1.892.357-.716.578-1.594.651-2.596.082-1.13-.008-1.98-.356-3.353a11.9 11.9 0 0 0-1.411-3.354c-.517-.832-1.463-2.087-2.103-2.788-.638-.7-1.744-1.687-2.458-2.191a24 24 0 0 0-2.649-1.593c-.745-.372-2.058-.86-2.921-1.09-.863-.229-2.105-.461-2.758-.517M-42.66-30.06c-.426.003-.842.078-.92.166-.08.09.343.382.938.65s1.622.997 2.284 1.622 1.442 1.623 1.732 2.218c.292.594.526 1.325.52 1.622-.011.486.022.509.33.217.189-.178.339-.617.33-.974-.007-.357-.188-1.039-.402-1.515-.212-.476-.772-1.288-1.239-1.805-.47-.517-1.29-1.227-1.825-1.574-.623-.404-1.253-.629-1.748-.627m-51.61-.424c-.252-.002-.57.143-.702.32-.189.253-.158.35.138.443.208.067.807.336 1.33.596.524.262 1.44 1.012 2.035 1.665.594.655 1.26 1.603 1.48 2.11.222.506.401 1.114.401 1.352s.097.432.216.433c.12 0 .265-.145.325-.325.059-.177.108-.593.106-.92-.002-.326-.232-1.082-.513-1.676-.283-.595-.986-1.556-1.568-2.135-.58-.58-1.443-1.235-1.92-1.456-.475-.22-1.072-.403-1.327-.407m198.939.058c-.378.38-.491.717-.457 1.357.026.47.222 1.242.436 1.717s.722 1.208 1.131 1.625c.408.418 1.179.976 1.715 1.242a4.95 4.95 0 0 0 2.055.485c.612.002 1.293-.137 1.568-.32.269-.18.488-.4.488-.49-.001-.088-.365-.184-.812-.21-.445-.026-1.176-.196-1.622-.378-.445-.181-1.211-.696-1.698-1.142-.489-.445-1.066-1.103-1.287-1.46-.219-.357-.537-1.162-.708-1.79l-.307-1.142zm-146.193-.712c-.337 0-.694.066-.794.144-.1.08-.165.227-.146.324.02.1.182.182.362.182.177 0 .64.16 1.028.36.387.196 1.271.901 1.968 1.567.696.665 1.417 1.502 1.601 1.859s.442 1.005.572 1.442c.24.79.242.793.592.325.327-.436.32-.552-.1-1.659-.287-.76-.885-1.65-1.65-2.462-.66-.698-1.565-1.454-2.01-1.676-.446-.223-1.088-.406-1.423-.406m-51.352-.22c-.44.003-.854.101-.92.22-.064.12.076.217.314.217s.993.425 1.677.942c.683.519 1.633 1.466 2.109 2.106s1.025 1.653 1.218 2.25c.333 1.014.37 1.054.595.598.134-.269.243-.682.243-.92s-.159-.749-.351-1.136-.71-1.19-1.148-1.784c-.442-.595-1.283-1.4-1.87-1.79-.73-.485-1.32-.707-1.867-.702m149.135.437c-.1 0-.409.226-.69.5-.384.379-.501.712-.473 1.352.024.523.29 1.248.692 1.88.357.564 1.04 1.27 1.516 1.568.476.296 1.231.628 1.677.736.638.154.95.115 1.46-.181.357-.206.793-.543.973-.745.296-.337.273-.37-.27-.36-.326.006-1.049-.21-1.603-.477-.553-.269-1.284-.803-1.622-1.19a9 9 0 0 1-1.048-1.568c-.238-.476-.432-1.013-.432-1.19 0-.18-.08-.325-.18-.325m50.641-1.724c-.089.004-.334.246-.541.54s-.376.85-.374 1.238c.002.387.179 1.092.393 1.568.212.476.733 1.256 1.157 1.732.427.476 1.247 1.1 1.827 1.392.646.322 1.446.532 2.074.541.783.009 1.136-.101 1.508-.473l.487-.487a6.4 6.4 0 0 1-2.043-.314c-.537-.176-1.46-.742-2.055-1.261-.606-.528-1.345-1.46-1.678-2.118-.329-.647-.597-1.443-.595-1.77 0-.326-.072-.592-.16-.589m93.065 1.655c-.093.078-.154.441-.135.806.018.368.306 1.107.641 1.643.333.534.943 1.228 1.354 1.542s1.089.74 1.506.95c.416.21 1.129.381 1.581.381.455-.002.938-.113 1.072-.249.183-.181.083-.244-.392-.242-.35.002-1.125-.234-1.72-.524s-1.465-.95-1.934-1.465c-.468-.514-1.067-1.395-1.328-1.958-.264-.561-.554-.959-.645-.884m-240.462-1.225c-.307-.002-.64.061-.74.139-.1.08-.164.227-.145.324.02.1.182.182.362.182.177 0 .69.188 1.136.42s1.224.79 1.728 1.244c.504.452 1.259 1.408 1.679 2.122.42.713.757 1.492.75 1.73-.01.387.024.399.332.109.188-.18.337-.57.33-.866-.004-.298-.292-1.027-.638-1.622-.344-.595-1.05-1.515-1.566-2.043-.517-.525-1.328-1.133-1.804-1.345-.476-.214-1.117-.392-1.424-.394m-50.77-.184c-.713-.157-.984-.136-1.196.095-.22.242-.218.301.002.301.154 0 .732.27 1.287.596.556.326 1.456 1.081 2.001 1.678.546.598 1.21 1.523 1.476 2.055.266.534.48 1.214.476 1.513-.007.486.028.508.337.216.189-.18.34-.64.333-1.028-.004-.387-.142-1.019-.304-1.406-.165-.387-.613-1.092-1-1.568a11.4 11.4 0 0 0-1.596-1.556c-.49-.38-1.31-.783-1.815-.896m52.192-.752c-.357-.067-.79-.072-.963-.01-.17.061-.294.202-.27.31s.214.204.422.208c.21.005.69.175 1.07.378s1.197.858 1.815 1.453c.617.594 1.4 1.568 1.74 2.163s.614 1.324.61 1.623c-.007.484.028.507.335.215.19-.18.34-.569.333-.865-.007-.298-.24-1.028-.519-1.623s-.982-1.527-1.566-2.072c-.582-.545-1.352-1.142-1.71-1.326a5.6 5.6 0 0 0-1.297-.454m96.79.619c-.396.426-.508.763-.467 1.41.03.467.189 1.116.35 1.445.163.327.773 1.013 1.352 1.526.582.51 1.399 1.02 1.814 1.132.417.113.928.207 1.136.207.21 0 .67-.243 1.027-.54s.651-.614.653-.703c.001-.09-.362-.233-.811-.317-.448-.087-1.253-.431-1.79-.769-.534-.335-1.211-.947-1.505-1.358a9 9 0 0 1-.887-1.67l-.352-.924zm143.561.096c-.227 0-.325.229-.325.758.001.416.182 1.123.405 1.569s.76 1.126 1.19 1.513c.433.387 1.151.886 1.597 1.11.445.223 1.103.47 1.46.55s.917.043 1.244-.083c.326-.123.596-.298.599-.386.001-.089-.364-.232-.811-.317s-1.4-.528-2.114-.984q-.041-.028-.083-.057c-.145-.044-.451-.233-.777-.486-.345-.27-.694-.644-.862-.911a4 4 0 0 1-.288-.341c-.391-.528-.757-1.179-.812-1.447-.054-.268-.246-.487-.423-.488M14.212-45.633c-1.51-.002-2.784.073-2.836.166-.05.093-.242 1.578-.432 3.3-.189 1.722-.41 3.956-.49 4.969-.117 1.477-.077 1.977.206 2.542.193.387 1.885 2.271 3.758 4.188l3.407 3.488c2.012-.208 4.201-.377 6.166-.51 2.19-.146 3.626-.334 3.712-.486.08-.135.202-.974.27-1.867l.345-4.38.215-2.758c-1.735-2.432-2.666-3.672-3.192-4.328a44 44 0 0 0-2.207-2.487l-1.255-1.298c-3.812-.417-6.157-.539-7.667-.539M-90.526-33.516c-.396 0-.786.072-.866.163-.08.089.366.408.99.709.626.3 1.576 1.02 2.11 1.596.537.578 1.21 1.403 1.497 1.833.286.43.577 1.142.649 1.581.101.64.182.747.407.541a.97.97 0 0 0 .27-.636c-.006-.21-.16-.744-.343-1.19-.186-.448-.66-1.153-1.054-1.568-.396-.418-.805-.918-.911-1.113-.104-.195-.604-.705-1.11-1.135-.655-.558-1.124-.78-1.64-.78m198.691-.396c-.411.424-.467.654-.357 1.475.071.535.418 1.485.772 2.11s.961 1.367 1.348 1.65c.387.284 1.042.686 1.46.896.463.231 1.177.366 1.839.346.696-.021 1.218-.167 1.467-.409.212-.205.383-.424.378-.482-.005-.06-.372-.136-.817-.171s-1.201-.234-1.677-.443c-.476-.21-1.279-.79-1.785-1.29s-1.113-1.298-1.351-1.774-.513-1.214-.611-1.638l-.177-.774zm-145.226-1.125c-.441.002-.855.102-.92.22-.065.12.1.215.368.212.268-.002.682.141.92.319.237.177.334.322.216.322-.12.002-.607-.086-1.082-.192-.569-.13-1.015-.117-1.298.034-.387.205-.32.271.65.617.698.251 1.52.813 2.324 1.594.684.662 1.487 1.692 1.786 2.287.296.595.54 1.277.54 1.515 0 .24.122.4.271.361s.303-.308.344-.596c.038-.288-.227-1.229-.595-2.091-.368-.864-.621-1.569-.56-1.569.059.002.4.512.755 1.136.354.625.642 1.428.64 1.785-.009.584.026.616.335.324.188-.18.34-.64.333-1.027-.004-.387-.167-1.02-.361-1.406-.193-.387-.662-1.093-1.042-1.569-.383-.476-1.173-1.183-1.76-1.573-.728-.484-1.317-.707-1.864-.703m-52.33 1.089c-.14 0-.162.116-.054.294.1.162.667.715 1.262 1.23s1.49 1.478 1.99 2.14c.5.66.986 1.514 1.08 1.895.14.556.231.643.456.433.153-.143.274-.48.27-.746a2.7 2.7 0 0 0-.257-.974c-.137-.268-.745-1.11-1.353-1.869-.725-.908-1.458-1.56-2.133-1.893-.563-.281-1.13-.51-1.26-.51m292.229 1.458c-.448-.852-.58-.971-.781-.703-.171.229-.178.58-.026 1.191.119.476.496 1.181.837 1.568l.05.054c.146.104.362.287.655.557.174.16.333.317.47.457q.15.117.285.209c.463.316 1.353.681 1.976.811.679.143 1.332.163 1.622.05.452-.173.435-.2-.27-.35-.416-.091-1.195-.387-1.731-.66-.534-.272-1.326-.87-1.759-1.326a10 10 0 0 1-1.328-1.858m-291.669-2.532c-.406-.002-.847.197-1.18.535-.388.387-.444.536-.207.536.18 0 .44-.121.579-.27.199-.214.49-.153 1.395.294.63.31 1.612 1.04 2.183 1.622s1.226 1.448 1.458 1.924c.229.476.415 1.108.41 1.406-.006.489.03.51.351.216.266-.242.324-.534.227-1.136-.074-.445-.279-1.102-.456-1.46-.18-.356-.69-1.049-1.136-1.536-.445-.486-1.297-1.166-1.892-1.507-.595-.342-1.375-.623-1.732-.623m249.438-3.584c.549-.208 1.261-.29 1.947-.223.599.06 1.757.435 2.596.844.942.46 1.827 1.094 2.344 1.682.457.52 1.065 1.406 1.353 1.971.35.69.523 1.403.527 2.164.005.923-.116 1.306-.648 2.055-.448.63-.911.997-1.467 1.166-.467.14-1.361.19-2.109.114a7.9 7.9 0 0 1-2.489-.729c-.655-.328-1.629-1.04-2.163-1.579-.536-.538-1.241-1.515-1.57-2.166-.339-.672-.597-1.54-.595-1.999 0-.445.134-1.126.296-1.513s.478-.873.703-1.08.799-.526 1.275-.707M60.346-35.25c-.11 0-.414.256-.671.57-.292.356-.46.845-.447 1.297.013.4.205 1.094.428 1.54.222.446.783 1.145 1.244 1.552s1.155.87 1.543 1.027c.387.158 1.019.29 1.406.292.5.005.889-.184 1.351-.653.625-.634.632-.658.162-.653-.268.002-.949-.228-1.513-.511-.565-.281-1.393-.915-1.839-1.406s-.958-1.183-1.136-1.54c-.18-.357-.325-.844-.325-1.082s-.09-.433-.203-.433m50.034-.858c-.099.004-.353.246-.56.54s-.376.753-.374 1.021.123.87.27 1.339c.145.47.703 1.337 1.239 1.93.541.599 1.455 1.299 2.056 1.58.608.28 1.507.505 2.055.51.659.006 1.094-.115 1.345-.377.206-.211.377-.434.381-.493.002-.06-.311-.138-.698-.173s-1.092-.238-1.568-.448c-.476-.212-1.243-.718-1.702-1.127a10 10 0 0 1-1.458-1.714c-.343-.536-.666-1.338-.715-1.784-.05-.445-.171-.808-.271-.804m93.222 1.29c-.145 0-.325.269-.399.595-.097.427.041.93.483 1.77.465.883.954 1.406 1.97 2.11.745.514 1.669.995 2.056 1.069s.971.073 1.298 0c.327-.074.595-.232.595-.351s-.219-.216-.487-.214-1.017-.267-1.662-.596c-.651-.33-1.6-1.08-2.126-1.678-.521-.595-1.064-1.447-1.207-1.893-.14-.445-.376-.81-.521-.811m-291.314-1.297c-.397 0-.802.065-.902.145-.1.078-.165.225-.145.325.019.097.255.176.523.174s.924.28 1.46.628c.535.349 1.387 1.082 1.893 1.627.507.548 1.115 1.385 1.353 1.86s.433 1.06.433 1.298.073.433.162.433c.088 0 .283-.195.432-.433.2-.318.212-.619.05-1.135-.123-.388-.462-1.117-.757-1.623-.296-.507-.903-1.27-1.348-1.699-.446-.428-1.177-.964-1.622-1.19s-1.136-.41-1.532-.41m248.967-.416c-.357.013-.978.137-1.378.273-.713.242-.726.27-.605 1.222.078.601.418 1.406.891 2.11.422.624 1.214 1.45 1.759 1.838.545.387 1.397.867 1.893 1.069.495.203 1.365.372 1.929.378s1.173-.034 1.353-.094c.22-.074.324-.402.322-1.029-.002-.506-.23-1.406-.505-2-.301-.645-.975-1.504-1.674-2.125-.763-.679-1.549-1.15-2.254-1.354-.595-.171-1.374-.301-1.731-.288m-197.209.204c-.307-.002-.64.06-.74.14-.099.078-.166.2-.147.271.018.07.351.242.74.385.388.143 1.143.589 1.68.989.534.4 1.39 1.354 1.9 2.12.511.766.972 1.707 1.028 2.094.084.601.147.664.433.433.183-.15.328-.563.32-.92-.007-.357-.206-1.063-.441-1.569s-.892-1.421-1.457-2.033c-.564-.612-1.416-1.291-1.892-1.51-.476-.216-1.117-.398-1.424-.4m240.41.753c-.121-.076-.227.13-.245.473-.015.36.225.964.591 1.474.34.476.976 1.181 1.413 1.568s1.062.837 1.389 1.001c.326.165.935.365 1.352.445l.757.142a96 96 0 0 1-2.81-2.248l-1.895-1.568c-.208-.173-.368-.502-.357-.733.013-.232-.076-.48-.195-.554M10.262-44.287c-.026-.03-1.107 1.073-2.405 2.453-1.3 1.378-2.423 2.767-2.5 3.085-.075.318-.148 2.28-.165 4.363L5.163-30.6l4.3-4.543c.384-4.86.574-6.904.67-7.68.094-.773.153-1.431.129-1.464m7.995 1.557c.601.04 1.586.325 2.218.638.625.312 1.581.98 2.129 1.486.545.507 1.268 1.359 1.605 1.893.335.536.776 1.558.98 2.272.248.873.323 1.616.225 2.271-.08.537-.338 1.316-.576 1.732-.238.417-.787 1.001-1.22 1.297-.668.461-1.032.541-2.424.541-1.393 0-1.829-.098-2.912-.649-.72-.368-1.755-1.164-2.384-1.839-.61-.653-1.373-1.724-1.693-2.38-.32-.653-.644-1.677-.72-2.271-.075-.595-.033-1.495.1-2.001.142-.552.562-1.248 1.049-1.743.454-.461 1.192-.933 1.677-1.072.476-.136 1.351-.215 1.946-.175m200.704 7.949c-.09.021-.913.093-1.832.162-1.648.125-1.681.14-2.775 1.209-.608.595-1.416 1.462-1.792 1.928l-.686.845c3.766-.22 3.927-.268 4.407-.852a54 54 0 0 1 1.676-1.866c.641-.684 1.164-1.295 1.164-1.353 0-.06-.073-.093-.162-.073m-305.563-2.41c-.32-.003-.63.07-.688.158-.056.089.396.404 1.003.703.61.296 1.552.936 2.095 1.42s1.257 1.41 1.586 2.057c.326.644.594 1.392.594 1.66-.002.269.074.487.17.487.095 0 .291-.122.436-.27.145-.15.262-.418.258-.595-.003-.18-.249-.835-.545-1.46s-1-1.638-1.567-2.25c-.564-.612-1.417-1.291-1.893-1.51-.476-.216-1.127-.398-1.45-.4m295.828-1.3c-.091.002-.917.83-1.839 1.839-.919 1.007-1.646 1.864-1.622 1.907.03.041.833.702 1.785 1.47.952.765 2.072 1.652 2.487 1.97l.757.575c2.367-2.578 3.121-3.449 3.204-3.6.093-.166-.237-.627-.849-1.19a37 37 0 0 0-2.38-1.946c-.759-.564-1.452-1.027-1.543-1.025m-243.652 1.168c-.556-.095-.848-.037-1.082.224-.285.316-.274.353.113.347.238-.004.919.275 1.513.618.595.344 1.392.953 1.768 1.35.378.399.94 1.212 1.25 1.806s.56 1.35.559 1.677c-.005.433.082.565.318.487.18-.06.384-.376.456-.703.08-.36-.024-.98-.262-1.568-.218-.536-.764-1.437-1.214-2.002s-1.233-1.269-1.739-1.565c-.504-.297-1.26-.6-1.68-.671m-50.822-6.581c-.114 0-.461.316-.768.703-.521.65-.554.818-.444 2.271.065.864.217 1.617.336 1.677s.337-.044.486-.225c.15-.184.514-.328.812-.32.297.007.93.188 1.406.398.476.212 1.285.723 1.8 1.131.515.412 1.273 1.234 1.686 1.829.415.594.89 1.616 1.061 2.271.288 1.11.279 1.237-.119 1.893-.233.386-.4.744-.372.798.03.051.639.244 1.353.428 1.204.31 1.326.308 1.689-.04.214-.206.495-.715.623-1.133.201-.655.156-.93-.353-2.054-.322-.714-1.031-2.03-1.579-2.921-.547-.894-1.39-2.042-1.878-2.555-.484-.513-1.224-1.138-1.64-1.387-.417-.248-1.464-.9-2.331-1.447-.866-.545-1.57-1.066-1.569-1.155.005-.089-.087-.162-.199-.162m196.988 6.419c-.51.534-.566.727-.438 1.48.08.475.363 1.302.627 1.838.264.534.859 1.28 1.322 1.657.463.379 1.28.887 1.815 1.131.536.247 1.339.45 1.785.452a2.06 2.06 0 0 0 1.406-.506l.595-.51c-1.676-.225-2.553-.519-3.029-.8-.475-.28-1.278-.96-1.785-1.509-.504-.547-1.029-1.265-1.166-1.592-.138-.326-.316-.97-.398-1.425l-.147-.832zm-49.462.289c-.12 0-.411.316-.647.703-.238.387-.43.849-.429 1.028 0 .178.228.812.502 1.406.277.595.836 1.363 1.242 1.71.407.345 1.058.758 1.443.918.387.16 1.069.295 1.514.297.591.005.962-.145 1.353-.546l.541-.55c-.753.008-1.434-.209-1.997-.477s-1.343-.802-1.73-1.19a8.3 8.3 0 0 1-1.178-1.559c-.26-.472-.454-1.057-.433-1.299s-.06-.441-.181-.441M18.15-41.898a3.66 3.66 0 0 0-1.84.332c-.475.222-1.01.57-1.19.774-.29.329-.284.366.055.357.207-.004.377.09.378.208 0 .12-.195.264-.433.325-.237.06-.53.303-.648.54-.203.407-.162.424.703.299.601-.089 1.37-.005 2.217.242 1.04.302 1.54.619 2.52 1.596.67.669 1.423 1.655 1.67 2.19.28.601.446 1.387.438 2.055l-.016 1.082c-.586-1.845-.967-2.793-1.225-3.3-.257-.505-.832-1.274-1.278-1.706-.446-.433-1.2-.96-1.677-1.172a8.5 8.5 0 0 0-1.721-.526c-.474-.076-1.078-.037-1.353.09-.271.127-.495.305-.499.394 0 .089.461.24 1.027.334.57.095 1.324.311 1.681.484s.991.591 1.407.933c.415.34 1.066 1.191 1.447 1.894.378.701.767 1.692.865 2.2.151.796.25.922.716.916.296-.005.649-.078.781-.166.132-.087.413-.498.623-.915.275-.548.344-1.013.247-1.677-.076-.506-.381-1.407-.678-2.001-.298-.595-.82-1.398-1.159-1.785-.34-.388-1.192-1.017-1.892-1.4-.701-.383-1.494-.699-1.762-.703s-.536-.104-.595-.223c-.06-.118.038-.264.217-.325.18-.06.543-.105.81-.101.269.004 1.063.32 1.766.703.7.383 1.612 1.086 2.019 1.562s.997 1.352 1.306 1.947c.437.839.565 1.409.576 2.54.006.799.06 1.459.12 1.468.06.005.29-.361.511-.811.312-.634.373-1.086.269-2.007-.074-.655-.36-1.677-.637-2.272-.275-.594-.98-1.573-1.565-2.174-.584-.6-1.552-1.324-2.147-1.61-.594-.283-1.52-.55-2.054-.59m144.296 3.931c-.534-.039-1.169-.017-1.407.05a3.5 3.5 0 0 0-.865.422c-.387.268-.287.3.974.295.774-.004 1.844.147 2.379.337.534.188 1.321.603 1.748.924.426.318 1.108.965 1.514 1.436.407.472.948 1.396 1.199 2.056.281.73.506 1.072.578.874.062-.178.021-.765-.096-1.3-.117-.533-.391-1.264-.609-1.621-.219-.357-.871-1.082-1.446-1.611-.577-.53-1.489-1.15-2.023-1.376-.534-.23-1.412-.447-1.946-.486m-147.38.99c-.207-.003-.378.116-.378.265-.002.15.203.66.452 1.136.25.476.859 1.288 1.354 1.804.494.517 1.385 1.223 1.98 1.567.594.345 1.154.628 1.244.629.088.001.1-.314.027-.7-.076-.388-.356-1.14-.629-1.677-.272-.534-.77-1.236-1.11-1.556-.338-.32-1.054-.781-1.588-1.023-.536-.242-1.144-.443-1.351-.446m-100.33-1.186c-.415-.08-.845-.073-.954.015-.108.087-.181.241-.16.34.02.098.256.182.522.184.268.004.968.32 1.551.703.585.385 1.363 1.05 1.731 1.478.368.43.878 1.209 1.136 1.73.26.524.56 1.195.668 1.493l.2.54c.446-.867.432-1.209.177-2.054-.221-.738-.684-1.47-1.46-2.3-.623-.669-1.476-1.389-1.894-1.6a7 7 0 0 0-1.516-.53m56.568-8.497c-1.032-.102-1.149-.059-2.163.798-.59.5-1.538 1.363-2.105 1.919l-1.032 1.012c.007 2.43.106 3.184.225 3.246.119.06.29-.001.379-.135.102-.151.442-.186.92-.091.415.082 1.146.375 1.622.65.476.276 1.328.999 1.892 1.607.565.608 1.27 1.616 1.567 2.24.296.626.538 1.405.54 1.731s-.094.79-.213 1.028c-.19.383-.122.457.595.636.445.113 1.14.136 1.54.054.402-.082.827-.344.948-.582.12-.238.177-.872.123-1.406-.063-.651-.479-1.655-1.251-3.028-.634-1.13-1.503-2.432-1.934-2.891-.428-.46-1.558-1.352-2.51-1.981-.951-.63-2.022-1.39-2.38-1.688-.356-.296-.574-.599-.486-.668.09-.069.868.292 1.73.805.864.512 2.08 1.146 2.705 1.406s1.257.473 1.406.474c.15 0 .855-.536 1.569-1.19l1.297-1.188c-1.51-1.39-2.385-1.988-2.92-2.224s-1.465-.476-2.064-.534m-4.904 8.387c-.439-.002-.853.093-.92.212-.064.118.053.216.26.216.21-.002.769.204 1.245.452.476.252 1.287.86 1.801 1.355.515.493 1.164 1.287 1.439 1.763.277.475.562 1.18.634 1.568.075.413.24.673.398.632.15-.04.302-.355.339-.703.037-.349-.101-1.072-.309-1.606-.21-.536-.824-1.449-1.367-2.033-.543-.582-1.378-1.237-1.854-1.456-.476-.216-1.225-.398-1.666-.4m-47.548-8.448c-.744.002-1.23.176-2.056.734-.595.402-1.255.913-1.467 1.135-.37.392-.36.422.217.827.331.231 1.136.724 1.791 1.096.653.372 1.775.892 2.488 1.154 1.244.456 1.32.46 1.84.101.522-.365.533-.363.354.048-.104.236-.237.573-.297.75-.058.177.154.91.475 1.623.32.714 1.107 2.077 1.75 3.028.64.952 1.315 1.95 1.497 2.218.181.268.28.584.222.703-.063.126-.292.059-.548-.162-.421-.363-.438-.361-.43.054.007.238.093.58.195.757.147.257.504.013 1.74-1.19.853-.832 1.597-1.684 1.65-1.892.054-.208-.063-.988-.26-1.732s-.582-1.839-.859-2.433c-.274-.595-.99-1.69-1.59-2.434-.994-1.235-1.12-1.324-1.466-1.034-.207.177-.476.326-.595.333-.119.006-.022-.193.216-.444l.433-.454c-1.341-1.144-2.315-1.771-3.029-2.132-.88-.446-1.612-.656-2.271-.654m194.602 7.488c-.181.287-.333.863-.333 1.278 0 .417.128 1.075.285 1.46.156.387.669 1.129 1.136 1.65s1.314 1.178 1.878 1.461c.565.284 1.441.575 1.947.649.777.114 1.019.052 1.569-.403l.649-.538c-1.592-.214-2.445-.472-2.921-.71s-1.266-.845-1.755-1.351c-.488-.504-1.04-1.212-1.224-1.569a11 11 0 0 1-.616-1.55l-.28-.899zm-50.08 1c-.14.51-.2 1.17-.134 1.467.067.299.37.93.675 1.407.303.476.864 1.086 1.244 1.352.381.268 1.106.634 1.61.812.595.21 1.16.268 1.594.162.372-.089.762-.284.866-.433.132-.186.006-.362-.405-.567-.326-.162-1.18-.777-1.893-1.365-.714-.587-1.748-1.675-2.297-2.414l-1.002-1.348zm-96.12-.899c-.341.009-.163.158.596.5.595.269 1.508.872 2.03 1.341.518.467 1.195 1.289 1.502 1.823.307.537.628 1.266.71 1.623l.15.65c.034-.922-.168-1.603-.425-2.11-.258-.504-.915-1.39-1.46-1.97-.545-.578-1.356-1.236-1.804-1.461-.446-.225-1.03-.402-1.299-.396m-51.277.283c-.447-.136-.856-.185-.911-.108-.054.076.361.353.924.62.562.263 1.402.797 1.867 1.189.465.389 1.14 1.146 1.499 1.68.359.537.783 1.316.941 1.732.264.69.279.698.164.107-.07-.357-.34-1.073-.596-1.594-.26-.521-1.059-1.494-1.775-2.163-.73-.683-1.657-1.324-2.113-1.463m147.657-3c-.35-.92-.456-1.077-.367-.54.07.417.406 1.34.748 2.054s1.082 1.833 1.644 2.488c.56.656 1.467 1.56 2.012 2.012.547.454 1.675 1.15 2.508 1.549.833.398 1.95.78 2.487.848l.974.124c-1.845-.602-3.011-1.11-3.781-1.519-.773-.407-2.07-1.376-2.886-2.148s-1.79-1.894-2.166-2.489c-.374-.595-.903-1.666-1.173-2.38m-86.798-1.407c-.117 0-.796.56-1.51 1.244l-1.3 1.244c.599 1.677 1.248 2.943 1.828 3.895.577.952 1.18 1.877 1.333 2.055.155.177.282.445.285.594.004.15-.14.223-.318.162q-.325-.108-.325.326c0 .237.09.408.198.378.109-.032.74-.566 1.406-1.19.664-.625 1.3-1.307 1.412-1.514.13-.245.102-.874-.082-1.785-.156-.772-.551-1.94-.88-2.596-.327-.656-.874-1.556-1.216-2.001-.341-.446-.716-.811-.83-.812m90.205-3.68c-.536 0-1.3.172-1.7.381-.4.208-.917.72-1.148 1.136-.325.58-.397 1.01-.308 1.839.067.632.455 1.75.933 2.69.547 1.077 1.32 2.115 2.334 3.136 1.057 1.069 2.036 1.8 3.245 2.425.95.493 2.239 1.004 2.864 1.136.783.166 1.404.173 2 .024.518-.13 1.085-.478 1.407-.865.296-.357.606-1.016.684-1.461.09-.51.006-1.335-.223-2.217-.203-.772-.68-1.924-1.061-2.556-.383-.629-1.236-1.7-1.896-2.379-.66-.677-1.78-1.538-2.488-1.913-.71-.376-1.825-.838-2.479-1.029-.655-.192-1.63-.349-2.164-.346m48.676 5.627c-.084 0-.331.179-.547.397-.259.26-.383.668-.357 1.19.021.436.166 1.11.324 1.496.156.388.669 1.13 1.137 1.649.467.521 1.336 1.192 1.931 1.488.649.327 1.491.554 2.103.57.757.019 1.135-.088 1.46-.408l.439-.432c-1.76-.256-2.66-.558-3.136-.837-.476-.277-1.218-.935-1.651-1.456-.43-.524-.941-1.268-1.136-1.656-.192-.387-.366-.994-.383-1.351s-.1-.65-.184-.65m94.735-5.194c-.07.002-.361.315-.648.697-.286.381-.64.892-.783 1.136a2.4 2.4 0 0 0-.278.982c-.006.298.181 1.172.416 1.947.234.772.723 1.82 1.086 2.326s1.366 1.449 2.229 2.098c.863.646 2.005 1.334 2.542 1.527.761.272 1.395.319 2.92.206l1.947-.145c-.112-1.222-.034-1.82.1-2.118.194-.432.164-.733-.159-1.514l-.4-.974c-1.425 2.011-2.053 2.714-2.312 2.858-.262.144-.79.268-1.177.27-.387.004-1.045-.138-1.46-.316-.418-.177-1.26-.787-1.872-1.352s-1.292-1.417-1.508-1.893c-.218-.475-.4-1.23-.402-1.676-.005-.645.195-1.056.969-2.001.534-.655.974-1.237.974-1.298-.001-.06-.464-.255-1.028-.435s-1.084-.327-1.156-.325m-2.95 2.815c-.114 0-.939.803-1.83 1.785l-1.625 1.785c.809 3.017 1.112 4.023 1.193 4.182.104.2.636-.228 1.743-1.407 1.581-1.68 1.594-1.703 1.477-2.668a27 27 0 0 0-.434-2.325c-.175-.743-.411-1.351-.524-1.352m-90 .439c-.089.004-.333.247-.541.541-.207.294-.379.876-.379 1.291 0 .418.154 1.124.342 1.57s.65 1.184 1.028 1.643c.388.471 1.25 1.108 1.984 1.465.742.361 1.646.629 2.109.627a2 2 0 0 0 1.406-.538l.595-.535c-1.425-.01-2.18-.16-2.596-.337-.417-.178-1.248-.788-1.849-1.353s-1.283-1.44-1.515-1.946-.422-1.26-.422-1.677c0-.415-.073-.754-.162-.751m3.57-2.389c-.874.002-1.155.12-1.893.786-.748.675-.866.904-.861 1.676.002.491.181 1.283.395 1.759s.725 1.244 1.132 1.705c.407.46 1.176 1.062 1.713 1.335.534.273 1.363.52 1.839.55.476.028 1.084-.014 1.352-.094.268-.078.584-.337.703-.575.18-.361.154-.415-.162-.322-.207.058-.736.131-1.173.162-.436.028-.876-.023-.973-.117-.1-.092.186-.165.632-.162.445.004 1.103-.14 1.46-.318.356-.177.708-.543.777-.811.071-.269.054-.877-.037-1.353-.093-.476-.474-1.305-.848-1.839-.385-.55-1.194-1.28-1.856-1.679-.889-.534-1.422-.705-2.2-.703m91.78 5.917c.415.454 1.049.98 1.406 1.166s.918.422 1.244.524c.374.117.595.104.595-.032 0-.12-.147-.216-.324-.216-.18 0-.738-.206-1.244-.457a9 9 0 0 1-1.677-1.136l-.757-.679zM69.306-44.034c.387-.28.5-.23 1.299.575.813.824.932.877 1.79.76.788-.106.967-.054 1.253.363.316.459.299.517-.982 1.568l.643.866c.354.475.65.962.659 1.082.008.119-.14.363-.331.54-.31.292-.44.216-1.276-.757-.885-1.027-.96-1.069-1.503-.812-.314.15-.718.27-.896.27-.18 0-.446-.248-.596-.55-.246-.506-.214-.596 1.029-1.545l-.758-1.028c-.737-.998-.746-1.034-.331-1.332m144.133-1.097c-.061-.56-.072-.566-.418-.162-.195.23-.459.683-.586 1.01-.128.326-.169.864-.091 1.19.078.327.268.79.426 1.028q.286.432.076.703c-.147.19-.002.5.493 1.045.387.426 1.093.96 1.568 1.185.476.227 1.205.416 1.623.42.598.004.832-.121 1.118-.593a8.3 8.3 0 0 1 .811-1.084l.45-.487c-1.434-.312-2.338-.785-2.974-1.28-.625-.485-1.33-1.224-1.569-1.64-.237-.415-.53-.757-.649-.758-.119 0-.244-.26-.278-.577M71.125-42.145c-.261-.253-.313-.214-.356.269a3.4 3.4 0 0 1-.267 1c-.118.237-.165.432-.107.433.06 0 .377-.1.703-.223.445-.166.64-.153.776.054q.184.275.054-.102c-.082-.242.029-.476.306-.65.24-.149.434-.343.432-.432s-.278-.138-.619-.107c-.34.03-.755-.08-.922-.242m142.596-1.489c.004-.243.167-.11.459.378.251.417.802 1.05 1.228 1.406.424.357 1.264.816 1.866 1.022.633.214.888.373.607.378-.269.004-.95-.225-1.514-.508-.564-.281-1.393-.915-1.838-1.406-.446-.489-.81-1.062-.808-1.27m-94.848-.27c.136-.247.213-.167.31.324.073.357.298.99.499 1.406.203.417.372.805.377.865.002.06-.152-.037-.342-.216-.19-.178-.5-.714-.686-1.19-.2-.519-.266-.994-.158-1.19m92.798.787c-.104.082-.171.403-.149.71.021.307.122.705.226.883.104.177.299.25.431.162.132-.09.236-.334.231-.541-.002-.208-.129-.602-.278-.872-.149-.273-.357-.426-.461-.342m4.408-4.032c-.246 0-.733.292-1.081.649-.571.586-.61.718-.409 1.352.123.387.337.847.476 1.027.14.18.503.602.805.94s.917.8 1.363 1.027 1.127.415 1.514.42c.398.004.866-.16 1.076-.38.205-.211.376-.7.378-1.087a3.3 3.3 0 0 0-.298-1.298c-.169-.327-.632-.906-1.028-1.287-.398-.38-1.088-.844-1.534-1.028s-1.013-.335-1.262-.335"/></g></svg>