<svg xmlns="http://www.w3.org/2000/svg" fill="none" viewBox="0 0 32 32"><mask id="a" width="32" height="32" x="0" y="0" maskUnits="userSpaceOnUse" style="mask-type:alpha"><path fill="#d9d9d9" d="M0 0h32v32H0z"/></mask><g mask="url(#a)"><path fill="#e31e24" d="M-140.771 98.158c.521-.09 2.17-.125 3.661-.075s3.201.21 3.797.357c.597.146 1.483.484 1.971.754.486.267 1.241.792 2.459 1.842l-.008-1.04c-.003-.835.071-1.112.384-1.4.329-.31.637-.362 2.077-.362 1.381 0 1.75.06 2.014.322.271.271.317.59.275 1.988-.025.917-.129 1.748-.228 1.848a.65.65 0 0 0-.179.407c.002.148.36.241 2.083.317l.04 5.875c.033 4.441-.014 5.931-.182 6.109-.123.13-.602.231-1.079.226-.473-.004-.9.074-.949.173-.05.1.035.283.189.408.222.179.277.627.27 2.169-.007 1.905-.018 1.95-.504 2.31-.396.293-.766.367-1.808.361-1.211-.005-1.352-.047-1.853-.547-.47-.468-.53-.641-.452-1.266.049-.398.049-.723 0-.723-.053.002-.601.41-1.22.908-.622.498-1.699 1.144-2.395 1.433s-1.796.613-2.442.718c-.647.107-2.111.192-3.254.192-1.243-.002-2.552-.114-3.254-.282-.647-.154-1.705-.557-2.35-.896a13.4 13.4 0 0 1-2.17-1.493c-.548-.481-1.37-1.439-1.829-2.13-.459-.688-1.041-1.782-1.296-2.427-.253-.647-.55-1.663-.658-2.26a15 15 0 0 1-.196-2.215c0-.622.13-1.761.289-2.531s.552-1.97.875-2.666c.326-.696.961-1.754 1.413-2.351.452-.596 1.137-1.336 1.518-1.643a19 19 0 0 1 1.466-1.04 13 13 0 0 1 1.673-.842c.497-.199 1.33-.436 1.852-.528m10.431 16.713c-.248-.227-.342-.138-.807.773-.316.622-1.101 1.606-1.979 2.482-.808.808-1.937 1.716-2.539 2.047q-1.082.593-.542.462c.298-.07.868-.187 1.265-.26.398-.072.58-.141.408-.154-.176-.013-.278-.103-.227-.202.05-.099.557-.179 1.13-.179.6.002 1.192-.103 1.401-.25.334-.233.306-.249-.361-.227-.398.012-.745-.058-.772-.158-.027-.099.299-.204.723-.233.43-.028.73.018.847.129l.078.103c.111.092.358-.02.864-.38a10 10 0 0 0 1.378-1.22c.322-.362.584-.841.58-1.066-.001-.224.16-.568.359-.767.2-.199.325-.424.278-.498-.051-.074-.475-.137-.945-.141-.485-.002-.982-.116-1.139-.261m-9.257-15.987c-.522.01-1.275.095-1.673.19s-1.252.43-1.897.749c-.685.338-1.704 1.081-2.442 1.781-.894.848-1.488 1.616-2.019 2.621-.416.781-.898 1.949-1.073 2.597q-.319 1.173-.312 3.073c.006 1.502.1 2.18.445 3.254.243.744.813 1.965 1.269 2.712.457.744 1.268 1.744 1.803 2.221s1.582 1.177 2.329 1.557c.923.47 1.728.734 2.53.83.645.076 1.419.083 1.718.015.54-.123.538-.125-.452-.578-.548-.25-1.43-.795-1.963-1.21-.533-.416-1.279-1.162-1.658-1.66-.38-.497-.975-1.474-1.322-2.169s-.76-1.855-.919-2.577c-.157-.721-.285-1.86-.283-2.531s.123-1.79.268-2.486.633-2.018 1.081-2.938c.622-1.27 1.112-1.966 2.039-2.899.723-.727 1.68-1.463 2.35-1.809.618-.319 1.127-.62 1.13-.67-.001-.05-.429-.084-.949-.073m2.667.624c-.316-.056-.883.039-1.356.227-.449.179-1.297.645-1.888 1.037-.589.394-1.362 1.063-1.717 1.488-.354.425-.95 1.278-1.322 1.899-.372.618-.855 1.776-1.072 2.572-.286 1.045-.392 1.924-.381 3.164.011 1.318.121 2.054.475 3.164.255.795.779 1.934 1.164 2.53.385.597 1.225 1.576 1.863 2.174.849.799 1.535 1.245 2.561 1.672l1.402.584c1.784-.927 2.795-1.705 3.536-2.441.898-.891 1.476-1.666 1.952-2.621.564-1.131.711-1.676.893-3.285l.217-1.93c-.853-.644-1.046-1.01-1.175-1.655a12.4 12.4 0 0 1-.18-1.989c0-.596.101-1.285.225-1.529.199-.394.165-.534-.303-1.221-.292-.427-.942-1.182-1.447-1.681-.504-.497-1.365-1.164-1.911-1.482-.547-.318-1.237-.622-1.536-.677m12.023 16.896c-2.336 0-3.083.054-3.164.119-.084.067-.138.718-.122 1.446.026 1.131.076 1.327.347 1.327.275 0 .31-.163.272-1.265-.038-1.024.005-1.266.225-1.266.219 0 .263.241.227 1.266l-.045 1.265h2.26zm-6.779 1.627c.562 0 .795.07.754.225-.033.125-.396.246-.813.272-.569.034-.754-.022-.754-.226 0-.201.211-.271.813-.271m1.32-.65c.13.009.233.098.23.197-.006.1-.416.202-.915.227-.513.025-.905-.033-.906-.136 0-.099.306-.208.678-.242s.783-.055.913-.046m.669-.89c.099.018.181.148.181.289 0 .186-.239.256-.859.256-.471 0-.86-.081-.864-.18-.004-.1.302-.23.677-.289.376-.06.764-.094.865-.076m.11-.992c.504 0 .703.077.703.272 0 .206-.229.273-.948.278-.842.007-.923-.024-.704-.271.142-.161.542-.279.949-.279m3.211-.325c-.543-.029-1.058.005-1.146.075-.086.071-.145.198-.129.28.018.083.56.151 1.206.151.85 0 1.159-.063 1.116-.226-.037-.137-.449-.247-1.047-.28m3.276-11.245c-5.75 0-6.707.061-6.861.226-.118.124-.172.47-.119.768.05.299.226 1.112.388 1.808.212.906.272 1.752.206 2.983-.05.944-.224 2.205-.386 2.802-.163.596-.252 1.268-.198 1.492.098.403.123.406 3.536.406h3.434zm-5.345.236c.131.044.194 1.672.194 5.02 0 4.579-.024 4.957-.317 5.002-.294.043-.317-.304-.346-4.894-.017-2.716.04-4.995.125-5.066a.41.41 0 0 1 .344-.062m-2.591.928c-.091-.055-.165.371-.167.949-.002.577.09 1.416.208 1.863.148.569.318.833.573.883.336.067.351.013.216-.811a22 22 0 0 0-.407-1.834c-.143-.522-.335-.993-.423-1.05m-4.991-6.148c.199.159.421.286.498.285.074-.002.521.259.995.577.471.32 1.25.95 1.731 1.4.481.452 1.126 1.23 1.436 1.727.308.496.589.943.622.995.033.048.181-.095.327-.316.211-.324.436-.408 1.081-.408.446 0 .854-.081.904-.18.048-.101-.48-.751-1.176-1.447-.696-.695-1.346-1.265-1.446-1.265s-.14.081-.09.181c.049.099-.094.229-.316.289-.224.059-.673.059-.994 0-.324-.06-.588-.19-.588-.289.001-.1.385-.178.858-.174.774.007.832-.02.588-.275-.186-.191-.669-.294-1.522-.323-.819-.027-1.272-.121-1.311-.268-.036-.137.138-.236.438-.254.272-.015.008-.082-.588-.149-.597-.067-1.248-.185-1.447-.259l-.361-.137zm9.481 3.538c-1.22 0-1.267.016-1.084.361.163.305.349.354 1.229.316.828-.036 1.046-.108 1.084-.361.04-.276-.118-.316-1.229-.316m-3.534-.143c.511.029.93.15.977.279.058.162-.2.225-.934.225-.559 0-1.054-.062-1.103-.136-.047-.074-.03-.2.038-.278.069-.079.529-.12 1.022-.09m5.173-3.293c-2.334 0-3.082.054-3.164.12-.084.066-.138.678-.122 1.356.017.679.091 1.27.166 1.314s.217.023.317-.046c.099-.067.181-.631.181-1.253 0-.633.079-1.128.18-1.127s.182.514.182 1.175v1.173h2.26zm-6.078 2.208c.512.029.932.15.979.279.058.162-.201.225-.935.225-.558 0-1.054-.061-1.103-.135-.047-.074-.031-.201.038-.279s.528-.12 1.021-.09m5.537-2.026c.101 0 .18.482.18 1.084s-.079 1.085-.18 1.085c-.102-.001-.181-.484-.181-1.085 0-.602.079-1.083.181-1.084m-8.09-51.888c.174 0 .724.204 2.124.904v10.486l.542.271c.298.148.694.577.881.95.3.6.608.806 2.667 1.793a132 132 0 0 0 4.045 1.868v2.712l-.768.62c-.423.342-2.03 1.667-3.57 2.941a4360 4360 0 0 0-7.097 5.888c-2.361 1.961-4.437 3.57-4.61 3.573-.177.002-2.069-.988-4.204-2.2l-6.327-3.591.02-12.799 3.74-3.161c2.059-1.74 5.654-4.76 7.991-6.71 2.336-1.949 4.392-3.544 4.566-3.545m9.489 17.362c-.026.006-.655.52-1.401 1.144-.745.626-3.104 2.584-5.243 4.352-2.136 1.768-4.881 4.039-6.096 5.047-2.037 1.69-2.211 1.884-2.224 2.466-.011.586.011.613.304.362.175-.15 2.516-2.104 5.205-4.341s5.931-4.923 7.202-5.966c2.112-1.73 2.313-1.947 2.306-2.484-.004-.322-.028-.584-.053-.58m-20.655 9.815c-.1-.018-.405.063-.678.18-.485.209-.429.252 2.35 1.84 1.565.895 2.948 1.648 3.074 1.673.142.029.223-.169.221-.543-.003-.569-.082-.629-2.395-1.852-1.316-.696-2.472-1.28-2.572-1.298m15.095-12.89c-.049.01-.341.275-.646.592-.306.318-.787.78-1.069 1.028-.282.25-.804.681-1.161.96-.358.276-.893.708-1.191.957-.298.25-1.519 1.264-2.712 2.256-1.193.993-2.535 2.121-2.983 2.508-.447.389-1.22 1.042-1.717 1.452a89 89 0 0 0-1.561 1.325c-.361.319-.85.705-1.085.863-.426.283-.418.291 1.2 1.157.894.479 1.951 1.06 2.349 1.294l.724.423a1139 1139 0 0 1 8.026-6.664c1.531-1.255 3.748-3.073 4.927-4.044l2.143-1.763c-1.752-.806-2.911-1.336-3.706-1.7-.796-.363-1.487-.652-1.538-.645m97.63-14.182a6.2 6.2 0 0 1 2.124-.194c.622.05 1.333.17 1.582.27.247.1.513.305.587.457.1.2-.394.805-1.811 2.215-1.811 1.803-1.938 1.976-1.826 2.48.065.298.187.706.266.904.081.2.293.546.47.772.192.239.736.519 2.314.938l1.898-1.909c1.326-1.332 2.004-1.889 2.248-1.847.25.041.42.32.596.962.144.533.215 1.423.17 2.17a6.5 6.5 0 0 1-.595 2.418 6.2 6.2 0 0 1-1.47 2.034c-.522.484-1.336 1.06-1.808 1.278-.67.313-1.272.412-4.655.522l-2.35 2.648a3640 3640 0 0 1-3.893 4.375c-.848.953-2.683 3.071-4.08 4.713-1.994 2.343-2.701 3.052-3.294 3.3-.416.173-.938.316-1.162.314-.224 0-.713-.081-1.085-.18-.373-.098-.937-.404-1.251-.677-.316-.273-.721-.823-.9-1.22a4.5 4.5 0 0 1-.327-1.537c0-.449.142-1.114.314-1.48.17-.369 2.433-2.972 5.025-5.786 2.593-2.815 5.44-5.92 6.328-6.9.887-.977 1.679-1.953 1.76-2.168.08-.214.064-.838-.037-1.384a6.8 6.8 0 0 1-.032-1.988c.081-.546.305-1.36.497-1.808.19-.448.708-1.207 1.151-1.687.443-.481 1.13-1.065 1.529-1.298.397-.233 1.169-.552 1.716-.707m104.045.57c.2-.051.605-.052.903 0 .299.05.787.213 1.086.361.298.148.813.526 1.146.837.33.313.771.894.976 1.291.206.398.381 1.065.39 1.483.015.636-.087.871-.63 1.446-.639.674-.647.7-.422 1.41.127.398.237 1.007.246 1.356.015.497-.12.768-.621 1.265-.35.347-.636.795-.631.994.003.22-.58.939-2.986 3.309l-1.536.146c-1.448.138-1.572.184-2.123.788-.321.352-.585.72-.586.82 0 .1-.657.831-1.46 1.627-.802.795-2.859 2.936-4.567 4.757-3.059 3.26-3.117 3.31-3.79 3.253-.648-.052-.75.02-3.516 3.018l-.973-.013c-.536-.007-1.237-.148-1.561-.316-.324-.166-.936-.65-1.36-1.072s-.964-1.175-1.197-1.672c-.318-.68-.405-1.137-.356-1.848.063-.914.112-.989 1.645-2.531 1.336-1.341 1.582-1.678 1.582-2.175.002-.519.49-1.096 4.197-4.971 2.306-2.412 4.747-4.914 6.652-6.735l.002-2.35 1.67-1.672c1.228-1.23 1.79-1.671 2.125-1.67.248.002.777-.238 1.175-.536.397-.299.845-.546.995-.551.149-.005.659.195 1.988.903l.588-.429c.324-.236.75-.471.95-.522m-57.322.5.216.813c.117.449.256 1.016.31 1.266.08.376.287.507 2.378 1.098l.873-.82c.479-.45.966-.816 1.084-.815.116.004.925.534 1.794 1.176.867.641 1.578 1.227 1.582 1.304 0 .075-.213.625-.95 2.306l1.222 1.935 1.31-.109c1.133-.094 1.333-.065 1.474.208.089.175.363 1.05.61 1.944.436 1.58.44 1.645.132 2.26-.231.464-.56.74-1.241 1.038-.895.393-.93.433-.93 1.13 0 .687.053.756 1.083 1.402.649.406 1.084.804 1.085.994.002.173-.19.824-.425 1.446a29 29 0 0 1-.995 2.26c-.374.745-.676 1.129-.884 1.127-.174-.002-.805-.126-1.4-.276-.971-.246-1.127-.245-1.492.002-.224.152-.408.379-.408.503-.002.125.122.592.274 1.04.235.69.243.924.042 1.536-.222.682-.35.778-4.202 2.65l-.417-.42a8.6 8.6 0 0 1-.814-1.007c-.377-.56-.45-.588-2.747-.597L12.766 75c-.298.6-.624 1.123-.723 1.162-.101.038-1.076-.216-2.17-.565-1.093-.35-2.097-.729-2.229-.84-.164-.144-.203-.433-.124-.93.062-.397.152-.928.199-1.175.072-.378-.07-.567-1.823-1.865l-1.265.404c-.696.222-1.366.356-1.492.3-.125-.058-.714-.857-1.312-1.777-.596-.92-1.084-1.792-1.083-1.943.002-.15.124-.598.274-.995.165-.432.492-.85.814-1.04.499-.292.531-.372.427-1.084-.06-.423-.13-.81-.156-.859s-.557-.295-1.178-.543C.303 63-.254 62.717-.31 62.617s-.085-.546-.063-.994c.021-.448.139-1.538.261-2.423.174-1.262.3-1.66.584-1.84.201-.126.883-.223 1.538-.216 1.079.009 1.187-.024 1.33-.422.12-.338.034-.628-.4-1.336-.486-.791-.54-1.003-.427-1.706.116-.72.278-.928 1.576-2.04.794-.68 1.546-1.233 1.672-1.23.124.003.673.33 1.22.728.752.546 1.116.7 1.491.638.273-.047.584-.19.69-.317.11-.126.301-.596.428-1.045.126-.448.344-1.08.481-1.406l.251-.593zm-95.478.157c.342-.15.867-.211 1.297-.153.398.054 1.17.32 1.717.59.588.29 1.548 1.045 2.35 1.847.745.745 1.539 1.72 1.761 2.17.223.447.458 1.097.525 1.446.07.372.03.857-.103 1.175-.123.299-.582.848-1.021 1.22-.573.486-.966.676-1.387.673-.324-.004-1.036-.165-1.582-.356-.547-.192-1.055-.353-1.13-.357-.075-.002-1.99 2.173-4.254 4.831-2.265 2.66-5.39 6.342-9.766 11.525l-2.368 1.311c-1.304.721-2.45 1.27-2.55 1.22-.1-.048-.18-.21-.181-.36 0-.152.46-1.433 2.041-5.424l2.378-2.803c1.309-1.54 4.05-4.795 6.09-7.232 2.044-2.437 4.074-4.877 5.31-6.418l-.348-.723a5.2 5.2 0 0 1-.421-1.536c-.062-.689.016-.935.498-1.604.314-.435.83-.904 1.144-1.042M50.53 69.385c-1.234 1.249-1.398 1.488-1.365 2.024.02.335.182.934.361 1.332.18.397.624 1.028.991 1.4.365.375.89.79 1.162.928.273.137.783.307 1.13.378.606.123.68.075 1.782-1.109l1.149-1.236c-1.08-.309-1.637-.522-1.936-.674s-.848-.611-1.22-1.021c-.373-.409-.677-.847-.675-.972.002-.123.211-.429.462-.678l.459-.452-.897-1.338zM-30.264 48.07c-.831.009-1.607.146-2.26.4-.629.243-1.336.722-1.92 1.3-.65.643-1.047 1.24-1.33 2-.355.955-.389 1.292-.286 2.803.069.985.044 1.91-.055 2.17-.096.25-.894 1.227-1.773 2.176-.879.948-3.223 3.509-5.212 5.693a552 552 0 0 1-4.903 5.326c-1.069 1.126-1.312 1.498-1.426 2.172-.114.672-.064.967.292 1.695.239.484.676 1.03.975 1.215.31.19.89.335 1.356.339.474.002 1.016-.13 1.3-.312.268-.174 1.853-1.895 3.525-3.822 1.67-1.929 3.404-3.933 3.853-4.454.447-.523 1.891-2.179 3.209-3.68 1.318-1.503 2.578-2.788 2.803-2.856.225-.067 1.179-.132 2.124-.145 1.468-.018 1.847-.089 2.62-.488.498-.259 1.277-.864 1.731-1.347.519-.551.957-1.251 1.172-1.875.213-.61.347-1.493.349-2.288.002-.712-.06-1.363-.138-1.446s-.934.642-1.898 1.61c-1.313 1.315-1.871 1.76-2.21 1.75-.249-.005-.867-.146-1.373-.314-.588-.194-1.123-.536-1.472-.939-.3-.347-.638-.958-.748-1.355-.11-.398-.201-.906-.203-1.13 0-.27.577-.999 1.715-2.17.946-.969 1.656-1.825 1.582-1.903-.074-.076-.703-.134-1.399-.125m38.93 25.663c-.065.002-.168.125-.226.275-.057.148-.045.305.03.347s.827.29 1.673.554c1.227.383 1.561.431 1.668.242.072-.132.136-.28.14-.33.003-.05-.706-.317-1.578-.591-.873-.275-1.64-.497-1.707-.497M111.298 49.35c.696-.013 1.955.096 2.801.244.845.146 2.107.465 2.803.705.696.242 2.16.84 3.254 1.332 1.094.49 2.211.948 2.486 1.013.273.067.826.427 1.231.799.403.372.87 1.043 1.04 1.49.217.578.302 1.34.293 2.623-.011 1.294-.128 2.218-.421 3.254-.224.795-.787 2.178-1.25 3.073-.579 1.12-1.212 2.002-2.022 2.828-.948.967-1.37 1.26-2.17 1.502-.754.228-1.148.259-1.627.123-.349-.097-1.326-.484-2.17-.862-1.231-.55-1.754-.685-2.621-.684-.751.002-1.307.12-1.808.384-.398.21-.899.572-1.11.805-.214.233-.651.953-.975 1.6-.322.645-.805 1.5-1.072 1.898-.266.398-.58.967-.696 1.266-.115.298-.436.76-.71 1.03a4.5 4.5 0 0 1-1.177.768 4.6 4.6 0 0 1-1.447.279c-.423-.002-1.175-.112-1.672-.244-.498-.132-1.434-.503-2.079-.825a15.5 15.5 0 0 1-2.152-1.338 14 14 0 0 1-1.741-1.66 17 17 0 0 1-1.314-1.807 10 10 0 0 1-.857-1.989c-.206-.726-.269-1.352-.19-1.898.068-.465.476-1.434.953-2.26.46-.795 1.034-1.977 1.278-2.622.242-.647.647-1.582.9-2.079.254-.497.805-1.392 1.226-1.988.423-.597 1.376-1.655 2.119-2.35.745-.697 1.994-1.645 2.778-2.107a21 21 0 0 1 3.011-1.4c.87-.31 2.09-.634 2.712-.72.62-.087 1.7-.169 2.396-.183m-91.03 24.226c-.15.001-.756.212-1.347.466-.593.255-1.06.533-1.04.62s.096.153.171.15c.075-.006.664-.285 1.311-.623.646-.34 1.053-.615.904-.613M16.1 72.144c-.045.018-.533.063-1.085.1-.621.041-1.119.182-1.312.374-.172.168-.311.365-.31.44.004.075.595.132 1.315.129l1.31-.007c.84 1.142 1.145 1.47 1.221 1.468.074-.006.176-.13.227-.278.048-.15-.22-.72-.597-1.266-.377-.547-.724-.979-.769-.96m-147.923-12.685c-.225.004-.539.09-.7.196-.161.105-.383.387-.497.628-.115.247-.36.437-.566.437-.199 0-.357.101-.354.226.004.124.147.328.317.455.249.184.214.184-.178 0-.414-.195-.555-.183-.949.087-.255.173-.462.397-.463.497 0 .099.081.22.181.271.099.049.181.172.181.272 0 .103-.214.133-.498.07-.374-.083-.633.004-1.039.347l-.542.46c.769.3 1.033.47 1.084.569.049.1-.187.038-.527-.136-.596-.303-.641-.304-1.13.03-.289.197-.414.375-.286.408.124.032.226.121.226.195s-.237.136-.528.136c-.318 0-.712.179-.992.452l-.465.451c1.116.91 1.442 1.257 1.442 1.357 0 .099-.263-.02-.587-.266s-.832-.452-1.13-.46c-.304-.004-.778.173-1.078.402l-.533.414c.663.14.904.298.962.44.087.214-.025.238-.616.132-.526-.096-.836-.057-1.131.145-.365.248-.379.31-.141.594.148.173.27.378.272.452s-.24.053-.537-.046c-.432-.144-.633-.115-.989.136-.246.173-.449.378-.453.452-.003.074.178.306.402.512.37.343.375.364.046.247a8 8 0 0 0-.724-.215c-.199-.049-.544.002-.769.114-.224.11-.448.384-.499.608-.049.213-.234.41-.478.515l-.217.078c-.264.106-.6.316-.8.504a1.33 1.33 0 0 0-.406.982c.004.323.087.75.187.949.099.199.424.443.722.542q.543.18.994 0c.248-.1.677-.466.95-.814s.618-.63.768-.626c.148.003.412-.14.582-.317.172-.177.315-.423.317-.548.004-.125.29-.349.638-.497.347-.15.723-.454.831-.678.11-.225.149-.611.087-.859l-.114-.452.709.904c.728-.7.974-1.026 1.018-1.174.041-.15.324-.334.626-.408.33-.081.676-.35.866-.675.173-.299.459-.543.633-.543.173-.002.503-.227.733-.5s.577-.583.769-.692c.193-.107.493-.452.667-.768.173-.315.356-.491.407-.392q.09.18.452 0c.199-.1.442-.385.542-.633.108-.27.325-.452.542-.452.199 0 .525-.204.723-.452.199-.25.402-.452.453-.452.049 0 .253-.205.452-.453.198-.248.462-.449.587-.446s.367-.139.537-.316c.172-.177.314-.586.316-.91q.004-.587-.446-1.04c-.25-.249-.635-.45-.859-.446m85.26 11.38c.554-.002.852.105 1.134.407.21.227.428.616.486.864.058.25-.012.716-.155 1.04-.143.323-.423.668-.622.767-.199.1-.605.182-.903.182q-.543 0-1.085-.543c-.335-.334-.55-.745-.565-1.07-.012-.338.157-.731.47-1.085.395-.452.629-.556 1.24-.562m-34.595-16.417c-.084-.033-.217.071-.3.232a.42.42 0 0 0 .078.513c.126.12.227.32.225.446 0 .124-.125.225-.273.225-.15 0-.332-.125-.406-.278-.103-.21-.513.174-1.686 1.582-.853 1.023-2.677 3.201-4.054 4.843a3656 3656 0 0 0-4.851 5.786c-2.332 2.783-2.344 2.806-2.137 3.39.152.43.153.623.007.722-.112.074-.27.013-.352-.136-.083-.149-.181-.23-.22-.18-.035.049-.285.599-.55 1.22-.268.622-.486 1.191-.488 1.266s.262-.118.587-.427c.325-.307.734-.612.908-.677.173-.064.314-.218.312-.342-.001-.125.1-.322.226-.438.175-.162.377-.146.862.067l.633.277c.84-1.061 2.259-2.76 3.694-4.459s3.795-4.464 5.243-6.148a809 809 0 0 0 3.673-4.294l1.04-1.232c-1.567-1.471-2.09-1.925-2.171-1.958m179.18 8.511c-1.088-.038-1.51.026-2.049.315-.372.2-.788.587-.923.86a6 6 0 0 0-.358.949c-.063.25.01.94.164 1.536.152.596.49 1.452.75 1.899s1.01 1.368 1.664 2.046c.655.677 1.678 1.548 2.275 1.937.596.387 1.572.878 2.169 1.092.596.213 1.533.394 2.079.401.681.01 1.178-.096 1.578-.335.322-.193.761-.675.978-1.073.324-.595.373-.897.279-1.718-.067-.568-.394-1.573-.767-2.35-.481-.998-.995-1.692-1.949-2.63-.962-.948-1.711-1.483-2.907-2.08-1.425-.708-1.775-.81-2.983-.849M10.866 51.68c-1.05.434-1.732.7-2.19.868l-.832.307c-1.37-1.177-1.85-1.523-1.955-1.53-.101-.003-.691.4-1.311.897l-1.124.904 1.486 2.26-1.33 2.531-2.777.181c-.356 2.363-.357 2.748-.205 2.85.112.075.732.3 1.38.499l1.174.361c.463 1.888.648 2.58.706 2.754.073.215-.082.486-.479.842-.324.289-.776.676-1.006.859l-.417.332 1.85 2.712 2.42-1.032 2.983 2.208c-.197 1.33-.256 1.91-.262 2.147-.009.382.15.476 1.437.859.795.236 1.548.43 1.673.43.124 0 .4-.47.616-1.04.213-.572.437-1.092.497-1.155.059-.062.82-.164 1.689-.226l1.582-.112c1.19 1.69 1.637 2.18 1.762 2.177s.754-.252 1.402-.55c.645-.298 1.176-.604 1.176-.678.002-.075-.163-.624-.363-1.22l-.37-1.084 2.268-2.3c1.958.576 2.54.726 2.557.709.014-.023.277-.628.587-1.348.53-1.232.544-1.324.246-1.558a15 15 0 0 0-1.085-.723l-.767-.476.09-2.966c1.675-.696 2.19-.903 2.223-.91.029-.005-.114-.681-.316-1.502l-.37-1.492h-2.712l-1.67-2.44c.619-1.4.832-1.93.874-2.08.046-.17-.34-.573-1.043-1.084-.615-.447-1.204-.841-1.313-.875-.107-.034-.577.33-1.045.813l-.853.875c-1.622-.609-2.316-.833-2.589-.89-.443-.092-.519-.22-.688-1.143-.105-.57-.229-1.14-.272-1.266-.056-.157-.569-.226-1.707-.226h-1.627zM-93.786 72.832c-.185 0-.456.142-.604.317a3.6 3.6 0 0 0-.388.543c-.065.123.205.04.603-.182.396-.224.72-.468.723-.542 0-.076-.15-.136-.334-.136m-55.346-5.473-.013 5.745c.817.403.826.385.96-.97.076-.76.139-3.312.145-5.669l.006-4.29-1.085-.56zm102.626 4.209a1.18 1.18 0 0 0-.735.316.76.76 0 0 0-.206.723c.056.222.263.488.462.588.198.1.524.138.723.09.199-.051.443-.253.542-.452.132-.263.107-.486-.09-.813-.166-.278-.436-.452-.696-.452m108.368-9.036c-.242.09-.417.25-.393.357.028.107-1.139 1.45-2.588 2.988-2.601 2.758-2.636 2.807-2.591 3.56.043.728.084.78.86 1.063.447.167.812.413.813.548s-.164.27-.363.297c-.199.029-.726-.135-1.174-.362-.666-.336-.83-.519-.905-1.007l-.09-.597-1.989 1.971c.84.51 1.411.718 1.809.79.398.074 1.15.138 1.672.142l.949.006a336 336 0 0 1 5.283-5.513l2.31-2.35c-1.47-.614-2.162-1.082-2.486-1.434-.323-.355-.607-.64-.633-.633-.025.005-.242.085-.484.174m37.01 2.168c.533.001 1.211.17 1.804.45.522.248 1.405.878 1.963 1.4.557.523 1.205 1.275 1.438 1.673.231.398.478 1.049.549 1.446.083.477.042.926-.126 1.32-.161.38-.485.702-.886.882-.38.172-.923.255-1.356.207-.398-.044-1.212-.317-1.808-.608s-1.45-.898-1.898-1.349-1.016-1.224-1.264-1.72c-.293-.585-.452-1.207-.452-1.775-.002-.759.076-.944.59-1.401.477-.426.754-.527 1.446-.525M6.03 69.218c-.076 0-.542.189-1.039.418s-.966.554-1.04.722c-.076.168-.076.306 0 .308.074.002.543-.167 1.04-.379l.903-.381c1.4 1.037 1.949 1.412 2.124 1.5.24.123.337.076.408-.2.07-.286-.162-.536-1.085-1.175-.648-.449-1.237-.815-1.31-.813m91.519-3.314c-.078.065-.128.37-.11.675.018.308.212.924.429 1.373.219.446.767 1.186 1.219 1.641s1.146.996 1.544 1.202c.397.206 1.008.433 1.355.503.349.073.858.08 1.131.018s.497-.192.497-.291c0-.1-.102-.137-.227-.083s-.672-.069-1.219-.273a9.3 9.3 0 0 1-1.854-1.004c-.471-.347-1.059-.895-1.306-1.216-.246-.324-.645-1.056-.883-1.625-.24-.572-.499-.985-.576-.92m13.566-15.827c-.398.01-1.211.092-1.808.178-.596.087-1.533.29-2.079.447-.547.159-1.605.571-2.35.916-.747.346-1.844.98-2.441 1.406s-1.615 1.344-2.26 2.044c-.648.698-1.44 1.707-1.761 2.24-.322.535-.873 1.663-1.226 2.508-.352.845-.744 1.74-.87 1.988l-.23.452c2.331-.12 3.022-.046 3.725.178.546.174 1.523.607 2.17.963.649.358 1.742 1.217 2.447 1.924.7.701 1.552 1.762 1.892 2.359s.75 1.573.911 2.17l.293 1.084c1.329-2.672 1.841-3.418 2.321-3.823.398-.337 1.089-.735 1.538-.883.446-.148 1.138-.265 1.536-.262.397.006 1.17.163 1.717.35.544.188 1.01.327 1.04.312.025-.018-.069-.317-.209-.666-.141-.347-.314-1.12-.382-1.716-.073-.624-.031-1.7.093-2.532.122-.795.424-2.016.673-2.712.248-.696.707-1.75 1.02-2.343.313-.592.982-1.527 1.486-2.079.505-.551 1.279-1.18 1.718-1.4l.799-.402c-1.962-.868-3.224-1.366-4.069-1.662-.846-.299-2.31-.66-3.254-.801-.945-.143-2.042-.25-2.44-.238m-48.541 6.341c-.12-.41-.125-.407-.73.19-.457.45-.602.738-.572 1.138.024.292.205.898.406 1.346.198.446.357.935.354 1.085-.005.148-.232.498-.503.773-.271.276-.636.498-.81.497-.173-.002-.412.179-.528.403s-1.235 1.489-2.485 2.81c-1.765 1.862-2.365 2.389-2.678 2.35-.345-.046-.405.032-.407.534-.004.438-.235.867-.907 1.673-.497.596-.904 1.166-.905 1.266 0 .099.062.183.136.187s1.825-1.705 3.888-3.797 3.872-4.047 4.022-4.345c.2-.401.472-.595 1.04-.745.422-.113.89-.29 1.04-.393.2-.137.412-.09.813.188.298.208.907.544 1.355.749.447.206.956.375 1.13.377s.54-.185.814-.416l.498-.422a11.7 11.7 0 0 1-2.368-1.906c-.603-.625-1.41-1.588-1.79-2.133-.382-.548-.748-1.18-.813-1.409m-194.849-6.891c-.074.007-1.235.946-2.576 2.085a2383 2383 0 0 1-7.447 6.267l-5.006 4.197c-.018 7.042.044 8.587.159 8.587.1 0 .568-.33 1.039-.73.472-.401 1.712-1.441 2.757-2.31 1.043-.87 2.182-1.78 2.531-2.02a10 10 0 0 0 1.1-.899c.257-.253 1.092-.947 1.855-1.543.764-.597 1.755-1.431 2.2-1.854s1.036-.878 1.309-1.016c.273-.135.625-.44.783-.677.157-.237.546-.552.866-.703l.58-.27c-.011-7.064-.076-9.117-.15-9.114M98.68 65.24c-.062 0-.155.081-.21.18-.053.1-.021.486.073.86.094.372.46 1.062.813 1.536.353.472.987 1.092 1.41 1.38.423.285 1.094.653 1.492.817s.947.295 1.22.293.477-.096.452-.208-.412-.298-.859-.412c-.447-.116-1.18-.46-1.627-.766-.446-.303-1.051-.832-1.34-1.168-.289-.338-.703-1.043-.92-1.563-.217-.523-.443-.95-.504-.95M1.555 67.407c-.048 0-.088.062-.085.135.004.076.268.614.588 1.196.32.583.726 1.193.904 1.356.274.253.322.256.318.025-.005-.15-.373-.82-.82-1.492-.447-.67-.854-1.22-.905-1.22m21.15 1.152c-.1-.038-.284.094-.407.293-.21.343-.159.377.864.59.598.124 1.13.185 1.18.137.051-.051.09-.18.085-.29-.004-.108-.352-.3-.773-.428-.42-.127-.847-.262-.95-.302m77.304-2.965c-.242-.128-.355-.128-.362 0-.005.103.132.485.306.848.173.361.683.99 1.13 1.392s1.159.879 1.582 1.058c.422.178.808.303.86.28.051-.025.031-.2-.045-.385-.076-.189-.381-.438-.679-.555s-.9-.536-1.335-.926c-.436-.39-.863-.895-.95-1.117-.086-.224-.314-.492-.507-.595M58.77 59.691a229 229 0 0 1-4 4.238c-1.833 1.89-2.322 2.5-2.322 2.893 0 .272.163.76.361 1.084.2.323.424.591.498.595s.226-.096.336-.226c.11-.129.192-.49.181-.803-.012-.341.123-.72.342-.954.199-.211.524-.388.723-.388.225 0 1.136-.813 2.44-2.185 1.143-1.204 2.223-2.42 2.396-2.706s.46-.518.633-.514c.174.003.46-.159.633-.361.257-.298.276-.444.108-.775a10 10 0 0 1-.43-1.073l-.221-.667zm63.463-6.255a2.4 2.4 0 0 0-.939.045 5.5 5.5 0 0 0-.995.412c-.279.154-.911.714-1.405 1.247-.556.602-1.187 1.588-1.663 2.597-.421.894-.889 2.154-1.043 2.801-.152.646-.278 1.866-.282 2.712-.002.873.11 1.888.26 2.35.146.447.513 1.079.815 1.402.456.487.684.588 1.321.584a3.2 3.2 0 0 0 1.491-.427c.398-.233 1.11-.862 1.582-1.397.472-.537 1.117-1.463 1.431-2.06.315-.596.761-1.654.995-2.35.231-.696.51-1.876.619-2.621.142-.987.14-1.65-.008-2.44-.11-.597-.342-1.32-.512-1.61a3.3 3.3 0 0 0-.762-.84c-.25-.174-.657-.356-.905-.405m-108.88 2.417c.125-.007.654.078 1.176.188a9.2 9.2 0 0 1 1.808.633c.472.237 1.19.775 1.594 1.198s.892 1.094 1.084 1.492c.191.397.423 1.171.513 1.717.101.602.102 1.335.002 1.854-.09.472-.359 1.245-.594 1.717s-.744 1.138-1.13 1.48a7.5 7.5 0 0 1-1.514.991c-.618.282-1.185.373-2.35.374-1.288.002-1.699-.074-2.532-.473-.546-.26-1.348-.788-1.782-1.175-.443-.392-1.02-1.175-1.317-1.784-.29-.597-.576-1.533-.635-2.08a5.3 5.3 0 0 1 .17-1.989c.154-.546.556-1.359.894-1.807.336-.448 1.009-1.057 1.495-1.356a7.2 7.2 0 0 1 1.888-.754c.552-.115 1.104-.217 1.23-.226m-.045 2.768c-.506-.037-1.26.05-1.716.2a7 7 0 0 0-1.514.767c-.385.275-.893.824-1.126 1.222-.235.398-.427.967-.427 1.265 0 .299.168.909.374 1.357a8.3 8.3 0 0 0 .944 1.51c.347.423 1.038.922 1.749 1.262.947.453 1.402.562 2.35.56.858-.002 1.437-.123 2.15-.446.537-.246 1.25-.75 1.583-1.123.457-.514.605-.845.607-1.357.002-.374-.116-1.084-.259-1.58-.16-.563-.562-1.249-1.055-1.81-.516-.585-1.143-1.055-1.776-1.331-.539-.235-1.386-.458-1.884-.496m107.978-2.783c.412 0 .748.162 1.13.543.394.394.557.745.595 1.282.028.406.02 1.2-.02 1.762s-.269 1.554-.512 2.2c-.242.645-.722 1.56-1.065 2.033-.344.471-.889 1.021-1.213 1.22-.324.197-.851.36-1.175.362a1.52 1.52 0 0 1-1.013-.407c-.234-.224-.518-.732-.632-1.13a6.3 6.3 0 0 1-.204-1.447c.001-.398.123-1.23.269-1.852.148-.622.432-1.456.631-1.854a7.8 7.8 0 0 1 .949-1.387c.324-.363.832-.81 1.13-.992s.806-.33 1.13-.333m.165.726c-.085-.002-.085.18 0 .404.083.223.143 1.017.132 1.764-.015 1.052-.136 1.636-.543 2.617-.309.748-.871 1.649-1.381 2.215-.786.873-.824.953-.438.953.241 0 .691-.268 1.04-.618.339-.34.837-1.053 1.106-1.582.268-.53.615-1.453.769-2.05s.282-1.39.282-1.762c-.002-.374-.089-.902-.197-1.175-.107-.274-.289-.556-.407-.63a.9.9 0 0 0-.363-.136m-.843.178c-.099 0-.191.06-.202.136-.013.075-.004.543.018 1.04.023.496-.096 1.392-.268 1.989-.17.596-.472 1.41-.671 1.807a6.4 6.4 0 0 1-.93 1.31c-.384.396-.508.65-.387.777.123.126.438-.092.985-.68.443-.476 1.007-1.313 1.253-1.859.284-.633.477-1.457.531-2.26.047-.696.032-1.49-.033-1.762-.063-.275-.196-.497-.296-.498m-57.153 5.422c-.11 0-.166.103-.123.226.043.125.48.449.97.72s1.155.495 1.48.497c.323.002.587-.056.587-.132 0-.074-.244-.155-.542-.18s-.868-.21-1.266-.408c-.397-.199-.762-.442-.813-.542a.36.36 0 0 0-.293-.18M1.429 62.01C.42 61.71.309 61.705.337 61.965c.018.172.474.474 1.12.741.6.25 1.154.393 1.228.319.074-.073.074-.258 0-.407-.075-.15-.64-.424-1.256-.608m118.239-4.363c-.071 0-.161.06-.202.136-.044.075-.136.543-.206 1.039a8.3 8.3 0 0 1-.521 1.784c-.215.486-.496.974-.624 1.085-.13.112-.228.407-.221.656l.015.452a8.4 8.4 0 0 0 1.221-1.898c.249-.548.501-1.502.559-2.124.058-.62.047-1.13-.021-1.13m-106.36-.896c-.596.01-1.41.138-1.807.287-.398.15-.96.448-1.251.665-.29.216-.743.721-1.009 1.119l-.481.723c1.422-.929 2.244-1.316 2.74-1.46.498-.144 1.292-.261 1.764-.26.471 0 1.285.16 1.807.351.53.195 1.376.736 1.915 1.22.532.48 1.183 1.3 1.446 1.823.263.521.493.926.512.904.016-.025-.045-.434-.136-.906-.092-.474-.318-1.164-.505-1.537-.186-.374-.775-1.068-1.31-1.545-.535-.475-1.338-.985-1.786-1.132s-1.302-.259-1.899-.252m-145.627 3.797c.15 0 .416.141.593.313.177.17.319.474.301 1.034l-.199-.362a2.9 2.9 0 0 0-.582-.674c-.28-.228-.309-.31-.113-.31m-.732-12.24c-.511-.193-.606-.16-1.312.467-.419.37-3.041 2.58-5.827 4.908a3312 3312 0 0 1-6.814 5.68c-.959.795-1.752 1.487-1.765 1.538-.008.05.231.192.532.316.544.224.576.203 3.032-1.898 1.367-1.168 4.762-4.024 7.548-6.343 2.786-2.321 5.088-4.274 5.113-4.339.024-.067-.204-.215-.507-.329m197.473 3.406-1.09 1.14-.165 3.256c1.43 2.071 2.354 3.149 2.976 3.731.622.584 1.23 1.06 1.356 1.062.125.002.633-.406 1.13-.907.497-.498 1.047-.907 1.22-.905s.318.063.32.137-.424.524-.948 1c-.524.475-.886.921-.805.994s.771.031 1.536-.09c1.278-.204 1.463-.291 2.318-1.085.512-.475.939-.926.95-1 .008-.074-.695-.131-1.563-.128l-1.582.007a65 65 0 0 0-2.424-3.321c-1.03-1.33-1.451-1.746-1.688-1.672-.174.054-.358.016-.407-.083-.051-.1-.015-.325.076-.498.097-.183.106-.834.023-1.547l-.142-1.231zm3.176-2.32-.847.568c-.02 3.03.022 3.222.477 3.844.273.374.944 1.236 1.492 1.918.63.785 1.29 1.387 1.807 1.647.447.228 1.26.515 1.808.64l.995.229c1.676-1.714 1.722-1.813 1.619-2.493-.06-.397-.142-.784-.186-.858s-.526.313-1.072.858c-.547.548-1.136.995-1.31.995s-.805-.23-1.402-.51c-.638-.3-1.329-.802-1.677-1.22a8.8 8.8 0 0 1-.946-1.434c-.195-.397-.358-1.048-.362-1.446-.007-.656.087-.808 1.036-1.65l1.045-.93c-1.19-.593-1.557-.756-1.582-.745-.027.012-.428.276-.895.588m-148.43 7.092c.189-.217.305-.228.59-.053.198.117.357.319.355.443 0 .125-.104.26-.228.298-.125.04-.389-.04-.587-.173-.3-.206-.323-.291-.13-.515m-.769-5.078c.06.398.32 1.09.576 1.538.257.446.672 1.057.921 1.355.25.298.826.85 1.281 1.225a7.7 7.7 0 0 0 1.825 1.05c.546.202 1.157.344 1.356.313.231-.036-.028-.2-.723-.46-.597-.223-1.534-.76-2.08-1.196a13 13 0 0 1-1.756-1.765c-.422-.537-.932-1.382-1.138-1.879l-.372-.903zm152.535-1.716c-.081 0-.62.468-1.199 1.039-1.02 1.008-1.046 1.061-.922 1.762.07.398.311 1.01.535 1.357.225.349.563.76.75.918.186.157.726.503 1.198.768.47.266.938.482 1.039.483.1 0 .181-.081.181-.18 0-.1-.183-.22-.407-.264-.33-.07-.363-.13-.176-.317.188-.19.305-.188.633.007.37.224.467.175 1.263-.633.473-.479.86-.934.858-1.009-.002-.073-.184-.136-.408-.138s-.753-.207-1.176-.452-1.015-.794-1.319-1.217c-.302-.423-.585-1.074-.628-1.447-.041-.371-.142-.676-.222-.677m-150.749-.364c-.406.001-.806.056-.89.122-.082.066-.135.453-.117.86.019.405.208 1.104.423 1.55.216.449.926 1.346 1.58 1.995.653.649 1.595 1.375 2.092 1.614s1.23.468 1.627.514c.537.058.792-.004.994-.24.148-.176.253-.572.23-.881-.024-.308-.222-.926-.44-1.374-.22-.447-.934-1.347-1.587-2-.663-.663-1.623-1.401-2.18-1.674-.593-.291-1.293-.488-1.732-.486m83.08 4.9c-.109-.038-.033.206.17.544.202.337.472.65.599.692.134.045.063-.185-.168-.543-.219-.34-.49-.652-.6-.692m65.931-1.653a.28.28 0 0 1 .317-.12c.11.037.23.224.262.416.03.191-.071.408-.226.482-.2.095-.313.028-.376-.227-.05-.198-.04-.445.023-.55m3.416-3.788c-.468 0-.681.104-.837.407-.153.303-.155.579-.004 1.085.11.372.467.973.79 1.335.324.361.894.808 1.266.994s.864.338 1.094.338c.227 0 .514-.101.635-.226s.22-.45.218-.724-.136-.761-.295-1.085a5.7 5.7 0 0 0-.768-1.1c-.262-.282-.702-.628-.975-.769-.273-.139-.779-.255-1.124-.255m-2.448 2.893c.101 0 .233.102.295.227.06.124.057.388-.006.587-.109.34-.134.343-.427.054-.188-.188-.26-.418-.178-.588.07-.153.213-.28.316-.28m.633-.903c.05 0 .177.224.28.497.115.312.121.563.015.678-.11.117-.245.023-.382-.272-.118-.247-.166-.553-.11-.678.055-.124.144-.225.197-.225M-85.143 2.325c.204 0 1.45.538 2.768 1.196s3.352 1.716 4.52 2.35c1.166.634 2.181 1.253 2.256 1.38.074.124.687 1.446 1.364 2.938.835 1.845 1.427 3.49 1.856 5.152.345 1.342.627 2.582.628 2.757-.002.174-.783 1.761-1.74 3.525-.954 1.765-1.869 3.349-2.034 3.52-.163.171-2.047 1.29-4.183 2.486-2.353 1.32-4.081 2.176-4.384 2.177-.273-.002-1.29-.402-2.26-.89-.969-.486-2.918-1.523-6.893-3.721l-2.183-4.43c-1.202-2.435-2.182-4.573-2.18-4.746 0-.175.447-1.518.99-2.982a134 134 0 0 1 2.356-5.891l1.627-.994c.895-.548 2.865-1.633 4.374-2.412 1.51-.778 2.913-1.415 3.118-1.415m205.222-.006c.592-.004.989.126 1.523.506.398.28.922.832 1.164 1.226.279.448.447.998.453 1.48.01.753-.039.817-5.775 6.53l.346.51c.19.28.497.957.681 1.505.185.545.332 1.258.333 1.582a3.8 3.8 0 0 1-.245 1.174c-.132.324-.437.718-.677.875a3.5 3.5 0 0 1-1.025.408c-.345.07-1.017.003-1.628-.162-.571-.153-1.488-.527-3.028-1.382l-2.445 2.504a5870 5870 0 0 0-6.193 6.345c-3.563 3.654-3.778 3.842-4.424 3.842-.372-.002-.942-.164-1.265-.361a1.78 1.78 0 0 1-.786-1.04c-.11-.373-.143-.883-.075-1.13.068-.25.497-.859.955-1.356s3.217-3.365 11.431-11.841l-.55-.86c-.3-.472-.667-1.265-.813-1.762-.148-.498-.265-1.23-.262-1.627.002-.398.105-.924.226-1.168.123-.245.508-.639.857-.875.521-.356.792-.417 1.536-.345.498.047 1.393.332 3.074 1.183l2.905-2.878c2.865-2.84 2.915-2.878 3.707-2.883m-153.911-.705c.372-.094 1.166-.125 1.763-.07.596.055 1.572.274 2.168.488.597.211 1.572.67 2.166 1.017.595.347 1.742 1.282 2.546 2.077 1.143 1.13 1.63 1.783 2.23 2.984.583 1.167.79 1.819.865 2.712.054.645.008 1.52-.102 1.943-.141.539-.512 1.086-1.24 1.83-.706.72-1.273 1.127-1.763 1.265-.398.11-1.13.2-1.627.2a9 9 0 0 1-1.809-.234c-.896-.232-.907-.23-1.355.298-.25.293-.677.642-.95.778-.334.166-.535.44-.613.835-.063.323-.245.785-.406 1.025-.16.24-.555.546-.88.678-.322.132-.587.363-.587.511s-.244.414-.54.587c-.322.188-.54.466-.537.68.003.198-.18.599-.408.89-.226.29-.677.636-1 .768-.467.19-.586.343-.582.737.003.287-.187.706-.453.994-.25.273-.661.539-.909.588-.32.063-.502.262-.622.677-.094.324-.46.852-.813 1.175-.355.324-.827.626-1.051.671-.224.047-.813.12-1.31.164s-1.699.314-2.67.596c-1.564.455-1.793.482-2.026.242-.22-.226-.233-.554-.08-1.99.099-.945.13-2.165.067-2.711-.079-.701-.029-1.208.17-1.718.156-.397.529-.906.828-1.13.416-.309.545-.547.541-.994-.003-.345.163-.806.407-1.117.226-.291.676-.637 1-.769.479-.195.588-.337.588-.78 0-.354.182-.73.527-1.085.291-.298.636-.54.768-.539.14.002.299-.305.377-.723.097-.526.311-.864.772-1.224.349-.273.68-.702.733-.95.056-.249.218-.634.36-.858.144-.224.544-.53.891-.678.38-.162.633-.398.631-.587 0-.174.194-.601.864-1.582l-.341-.859c-.217-.548-.338-1.3-.336-2.079.003-.788.121-1.477.335-1.943.18-.398.565-.998.854-1.336.288-.336.83-.763 1.202-.95a8 8 0 0 1 1.357-.504m50.124 2.713c.943-.009 2.407.102 3.254.247.844.144 2.146.478 2.892.744.745.264 2 .859 2.788 1.32s1.971 1.368 2.631 2.014 1.495 1.705 1.855 2.35c.36.646.78 1.663.936 2.26.18.689.28 1.875.28 3.254 0 1.401-.1 2.553-.285 3.255a13 13 0 0 1-.837 2.169c-.302.596-1.046 1.606-1.654 2.242-.605.636-1.673 1.533-2.369 1.996-.696.461-1.977 1.099-2.847 1.419-.87.318-2.334.712-3.255.873-1.225.213-2.274.265-3.931.19-1.376-.061-2.862-.25-3.797-.485-.846-.21-2.148-.667-2.893-1.015-.746-.35-1.843-.982-2.44-1.407a14 14 0 0 1-1.945-1.75 13.7 13.7 0 0 1-1.487-2.153c-.343-.646-.746-1.745-.898-2.442-.15-.696-.277-1.955-.278-2.801s.083-2.025.19-2.621c.108-.597.47-1.655.804-2.35.332-.697 1.04-1.747 1.567-2.333.53-.587 1.45-1.416 2.047-1.839a20 20 0 0 1 2.35-1.393c.696-.344 1.672-.757 2.17-.921.497-.163 1.473-.41 2.168-.55s2.038-.262 2.984-.273m93.655 9.93c-.076 0-2.409 2.34-5.188 5.197s-5.516 5.705-6.082 6.328c-.567.62-1.03 1.291-1.03 1.49s.203.568.45.815c.25.25.657.451.905.451.349 0 1.222-.791 3.84-3.48 1.862-1.914 4.608-4.718 6.101-6.232l2.714-2.75c-1.221-1.408-1.637-1.82-1.71-1.82m-183.331 5.242c-.088 0-.207.082-.26.181-.055.1-1.057.74-2.224 1.419-1.168.681-2.572 1.48-3.119 1.775-.922.498-1.11.722-2.562 3.056-.86 1.382-1.53 2.533-1.491 2.564.041.025.625-.25 1.296-.61.67-.36 2.22-1.235 3.442-1.943l2.223-1.29a865 865 0 0 1 2.623-4.745c.128-.224.16-.406.072-.407M70.856 4.081a2.7 2.7 0 0 1 1.48-.246c.447.042 1.14.241 1.538.442a9 9 0 0 1 1.446.987c.398.34 1 1.141 1.34 1.777.437.823.642 1.474.703 2.244.047.596-.004 1.368-.112 1.717-.147.465-1.148 1.548-3.777 4.077a1047 1047 0 0 1-7.022 6.689 516 516 0 0 1-5.288 4.918c-1.26 1.142-2.03 1.706-2.432 1.78-.332.063-1.018-.014-1.582-.177-.547-.157-1.33-.553-1.74-.876-.41-.326-1.01-.917-1.33-1.315a10.4 10.4 0 0 1-.99-1.536c-.226-.449-.46-1.12-.524-1.492a4 4 0 0 1 .056-1.356c.137-.542.801-1.296 3.3-3.753 1.72-1.692 5.634-5.434 8.697-8.316 3.064-2.884 5.87-5.386 6.237-5.564M-92.818 8.565c-.198-.042-.583.002-.858.096-.437.15-.63.514-1.603 3.017-1.082 2.784-1.105 2.88-1.033 4.294.069 1.397.128 1.566 1.782 4.978l1.712 3.528c1.962 1.146 3.651 2.06 5.018 2.768 1.863.97 2.61 1.27 2.982 1.203.275-.05.715-.314.979-.588.264-.276.977-1.291 1.582-2.262 1.054-1.686 1.1-1.811 1.1-2.937 0-1.034-.162-1.592-1.363-4.656-.766-1.955-1.655-3.902-2.033-4.449-.369-.532-.997-1.157-1.395-1.387s-2.024-1.12-3.615-1.974c-1.59-.857-3.056-1.591-3.255-1.631M-45.14 25.9c-.356-.454-.412-.476-.407-.163.002.199-.056.79-.13 1.312-.123.878-.107.951.228.939.199-.008.808-.153 1.356-.323l.994-.31c-1.261-.723-1.813-1.168-2.04-1.455m48.242-6.175c-.005.074.183.563.418 1.085s.804 1.457 1.265 2.079 1.389 1.543 2.06 2.047c.67.504 1.748 1.168 2.395 1.474.645.305 1.947.748 2.893.985.943.237 2.53.48 3.525.542 1.323.081 2.318.027 3.706-.204 1.043-.174 2.387-.494 2.983-.71s1.655-.708 2.351-1.093c.777-.432 1.788-1.23 2.621-2.073.933-.946 1.539-1.754 1.944-2.595.323-.67.588-1.321.592-1.446.004-.124-.207.1-.467.497-.26.398-.976 1.235-1.587 1.86-.613.627-1.725 1.493-2.47 1.927-.747.432-1.926.99-2.622 1.24s-1.998.592-2.893.762c-1.243.237-2.204.287-4.067.215-1.878-.073-2.837-.205-4.158-.575-.946-.264-2.329-.8-3.074-1.19-.746-.39-1.824-1.077-2.395-1.525-.571-.449-1.345-1.205-1.718-1.682a37 37 0 0 1-.985-1.31c-.168-.244-.31-.383-.317-.31M-135.05 1.422c.161.002.658.112 1.104.247.449.134 1.181.43 1.627.654.449.226 1.426.834 2.17 1.353 1.183.823 1.531 1.207 2.73 3.005 1.263 1.895 1.421 2.237 1.949 4.23.503 1.9.542 2.215.321 2.532-.137.199-.554.726-.926 1.175-.373.446-1.136 1.198-1.699 1.667-.56.47-1.12.857-1.245.859-.125.004-.49.334-.813.735-.324.402-.71.769-.86.818-.149.046-.903-.16-3.073-1.005l-1.039.932c-.571.514-2.215 1.999-3.65 3.3a1876 1876 0 0 1-4.339 3.921c-.951.855-1.912 1.647-2.136 1.763-.224.114-.793.206-1.265.204s-1.204-.164-1.627-.361c-.424-.198-1.226-.786-1.783-1.308-.582-.544-1.239-1.392-1.537-1.988-.287-.572-.572-1.346-.634-1.718a4.9 4.9 0 0 1 0-1.356c.087-.52.394-.96 1.334-1.898.671-.671 3.05-2.84 5.288-4.821a865 865 0 0 1 4.305-3.797c.197-.161.182-.357-.386-2.003l1.253-3.797 1.255-.956a58 58 0 0 1 2.32-1.673c.585-.394 1.195-.715 1.356-.714M54.54 21.126c-.353 0-.752.138-.928.317-.231.238-.287.537-.23 1.22.044.497.254 1.27.47 1.717.213.448.779 1.209 1.254 1.69.477.482 1.173 1.03 1.545 1.22s1.023.348 1.446.354c.505.005.863-.097 1.04-.3.152-.172.268-.633.262-1.047-.005-.445-.224-1.166-.542-1.803-.293-.582-.9-1.402-1.346-1.822-.449-.42-1.16-.938-1.583-1.153-.422-.215-1.046-.393-1.388-.393m-203.944-1.077c-.398.002-.852.085-1.011.186-.157.1-.382.503-.497.897-.116.396-.158.942-.095 1.215.065.273.31.884.543 1.355.235.472.771 1.232 1.194 1.686.423.456 1.176 1.024 1.673 1.267.497.244 1.172.44 1.499.44.396-.001.746-.154 1.039-.454.324-.327.446-.652.446-1.176-.001-.398-.16-1.15-.353-1.672-.194-.522-.702-1.346-1.131-1.833-.428-.488-1.183-1.117-1.681-1.401-.585-.333-1.158-.512-1.626-.51m104.794 1.439c-.085 0-.284.143-.439.316-.157.174-.367.52-.465.769-.123.309-.111.705.033 1.256.138.528.477 1.076.98 1.582.423.429 1.237.992 1.808 1.254.796.366 1.21.453 1.763.373.493-.07.88-.278 1.22-.658.273-.303.497-.635.497-.734-.002-.1-.387-.262-.858-.361-.472-.098-1.368-.505-1.99-.905-.621-.397-1.377-1.068-1.678-1.491-.302-.423-.586-.911-.633-1.085-.045-.173-.153-.316-.238-.316M68.49 7.07c-1.41 1.318-4.313 4.057-6.454 6.089a750 750 0 0 0-5.567 5.333c-.92.902-1.672 1.7-1.672 1.776.002.074.186.135.41.137.224 0 .813.236 1.31.521s1.291.935 1.763 1.445 1.06 1.352 1.306 1.875c.245.522.47 1.254.497 1.626.027.37.07.675.096.678.025 0 2.137-1.972 4.693-4.384 2.558-2.411 6.157-5.83 8-7.598 1.844-1.768 3.452-3.396 3.571-3.617.121-.22.224-.747.226-1.17s-.138-1.155-.313-1.626c-.177-.472-.604-1.217-.949-1.655s-1.036-1.026-1.533-1.308c-.678-.385-1.145-.514-1.862-.516l-.959-.002zM17.196 5.13c-.846-.04-2.148.011-2.893.11-.746.102-2.088.42-2.983.708-.895.289-2.238.887-2.983 1.328-.747.443-1.798 1.197-2.34 1.677-.54.48-1.297 1.36-1.68 1.957-.384.596-.86 1.615-1.054 2.26a9.2 9.2 0 0 0-.353 2.395 6.8 6.8 0 0 0 .452 2.441c.248.673.756 1.662 1.13 2.198.374.537 1.047 1.3 1.495 1.698.446.395 1.22.985 1.717 1.31.497.324 1.513.838 2.26 1.142.744.302 1.965.69 2.712.862.978.226 2.112.31 4.068.304 2.177-.01 2.996-.088 4.158-.399.796-.211 2.219-.767 3.164-1.234 1.381-.683 2.003-1.134 3.184-2.304 1.104-1.095 1.61-1.764 2.057-2.718.326-.696.677-1.712.778-2.26.13-.7.124-1.369-.019-2.26-.125-.783-.463-1.781-.887-2.616-.404-.8-1.09-1.765-1.678-2.36A16 16 0 0 0 25.33 7.6c-.646-.42-1.806-1.005-2.576-1.302-.77-.296-1.991-.665-2.712-.817s-2.003-.31-2.847-.35m-165.245 13.743c-.455-.085-.71-.037-.909.165-.246.252-.246.28 0 .283.152.002.703.203 1.225.45.523.248 1.342.839 1.823 1.31s1.099 1.307 1.376 1.853c.274.548.553 1.376.618 1.843.094.695.159.81.363.633.172-.15.224-.518.172-1.21-.04-.546-.269-1.402-.51-1.899-.239-.497-.846-1.302-1.347-1.786-.502-.486-1.198-1.027-1.545-1.202a5.7 5.7 0 0 0-1.266-.44m105.397-.09c-.047.005-.358.145-.688.311-.513.26-.548.313-.227.355.319.043.376.177.376.864 0 .448-.08.813-.18.813s-.243-.246-.317-.546-.196-.543-.27-.542-.135.146-.133.32c.002.173.165.662.362 1.085s.703 1.11 1.126 1.527c.423.418 1.215.962 1.763 1.21.58.262 1.347.456 1.839.461.663.009.945-.085 1.314-.441.26-.248.47-.595.466-.769-.002-.197-.191-.356-.5-.42a14 14 0 0 1-1.04-.28c-.298-.095-.868-.36-1.266-.59-.397-.231-1.023-.776-1.388-1.214-.367-.437-.775-1.1-.907-1.473-.134-.372-.28-.674-.33-.67m-104.609-1.088c-.211-.002-.476.12-.587.267-.166.226-.054.319.657.55.472.154 1.286.602 1.809.994.533.403 1.267 1.211 1.678 1.846.426.66.82 1.557.949 2.155.121.564.281.992.355.95s.138-.504.14-1.026c.004-.522-.11-1.232-.253-1.581-.141-.347-.57-1.054-.953-1.57-.383-.515-.982-1.155-1.329-1.42a9 9 0 0 0-1.356-.822c-.397-.186-.897-.34-1.11-.343m222.7-7.685c.105.062.18.228.17.37-.01.144-1.216 1.38-2.68 2.746a1011 1011 0 0 0-4.658 4.385 939 939 0 0 1-4.66 4.384c-1.682 1.569-2.764 2.453-2.935 2.395-.148-.048-.275-.151-.279-.225s1.318-1.4 2.938-2.946a1479 1479 0 0 1 7.43-7.014c2.467-2.312 4.57-4.153 4.674-4.095m-167.216 3.156c.555-.265.983-.342 1.537-.271.423.052 1.074.25 1.447.44.372.187 1.074.695 1.558 1.13.487.431 1.199 1.274 1.587 1.87s.869 1.616 1.066 2.261.359 1.643.357 2.214-.112 1.304-.244 1.628c-.134.324-.519.82-.858 1.106-.56.47-.722.511-1.725.451-.938-.056-1.268-.177-2.157-.79-.579-.397-1.4-1.17-1.827-1.716s-.977-1.402-1.221-1.899-.582-1.433-.748-2.079c-.177-.687-.266-1.514-.214-1.99.05-.446.223-1.076.384-1.4.182-.368.576-.725 1.058-.955m-54.478 3.623c-.257 0-.523.06-.59.134s.428.39 1.1.703c.88.409 1.498.87 2.216 1.65.545.597 1.19 1.482 1.43 1.965.239.484.482 1.18.542 1.547.087.545.152.629.353.452.18-.158.213-.458.123-1.12-.067-.497-.342-1.305-.608-1.796s-.891-1.298-1.388-1.795c-.498-.496-1.311-1.09-1.808-1.32s-1.113-.418-1.37-.42m54.573-2.894c-.072 0-.248.183-.388.407-.143.223-.314.732-.382 1.13-.078.46-.014 1.148.174 1.898.164.646.537 1.622.828 2.17.293.545.884 1.4 1.312 1.898.443.513 1.204 1.12 1.763 1.403.54.275 1.227.497 1.525.493.298-.002.644-.065.767-.137.14-.084-.161-.3-.814-.582-.593-.257-1.492-.876-2.095-1.447-.772-.726-1.262-1.408-1.808-2.52-.709-1.435-.75-1.612-.75-3.116 0-.878-.06-1.596-.132-1.597m15.56-5.562c-.133-.023-.813.27-1.51.654-.695.385-2.28 1.305-3.524 2.047-1.78 1.063-2.272 1.442-2.32 1.789-.034.24.398 1.617.96 3.058a304 304 0 0 0 1.824 4.566c.441 1.07.863 1.944.937 1.947.077.001 1.275-.66 2.667-1.472s2.98-1.772 3.525-2.134c.884-.585.987-.717.931-1.194-.036-.295-.372-1.595-.748-2.888s-1.093-3.245-1.592-4.338c-.499-1.094-1.017-2.01-1.15-2.035m-68.705 7.496c-.405-.06-.794-.007-.994.136-.299.213-.272.244.303.34.349.06 1.157.455 1.797.882.64.426 1.468 1.182 1.841 1.68.374.497.843 1.27 1.048 1.717.202.448.371 1.038.373 1.31.002.274.085.498.184.498.1 0 .222-.122.271-.271s.093-.536.095-.859c.001-.324-.236-1.076-.527-1.673-.291-.596-.882-1.455-1.314-1.907-.431-.452-1.151-1.032-1.599-1.29-.446-.256-1.112-.508-1.478-.563m54.383-2.296c-.128 0-.3.055-.383.12-.083.068-.139.699-.122 1.401.014.705.176 1.729.359 2.276s.582 1.36.886 1.808.91 1.162 1.343 1.589c.434.425 1.113.928 1.511 1.116s.924.369 1.172.4c.284.037.468-.04.506-.212.04-.181-.233-.39-.808-.62-.486-.198-1.274-.755-1.788-1.266-.594-.593-1.163-1.428-1.61-2.362-.57-1.2-.7-1.688-.76-2.848-.05-.987-.141-1.401-.306-1.402m48.803 3.265c-.372.282-.494.523-.48.951.012.317.178.9.368 1.298.191.398.76 1.11 1.264 1.582.502.472 1.262 1.02 1.683 1.217.423.197 1.175.364 1.672.37.615.006 1.03-.094 1.302-.314.217-.177.421-.48.452-.672.043-.275-.093-.383-.624-.498-.373-.082-1.063-.344-1.536-.582-.472-.237-1.257-.786-1.743-1.22-.489-.432-1.105-1.174-1.373-1.65l-.486-.86zm-101.709-2.132c-.556-.061-.883-.012-1.033.158-.177.2-.044.32.726.649.518.22 1.418.832 2.001 1.356a6.8 6.8 0 0 1 1.675 2.218c.342.696.668 1.551.726 1.899.078.473.144.563.262.361.088-.148.161-.577.163-.95.001-.372-.08-.901-.181-1.174s-.143-.537-.095-.588c.051-.048.167.115.257.362.092.25.273.696.402.994l.235.543c.088-.97-.082-1.541-.431-2.215a10 10 0 0 0-1.355-1.899c-.45-.472-1.204-1.03-1.678-1.24-.472-.211-1.225-.423-1.674-.474m53.988-.78c-.09.007-.116.55-.056 1.23.074.835.278 1.56.652 2.304.3.597.814 1.406 1.14 1.798a7 7 0 0 0 1.409 1.222c.448.28.915.51 1.04.508s.226-.165.226-.364c0-.213-.205-.465-.497-.613-.274-.138-.86-.645-1.302-1.13a9.4 9.4 0 0 1-1.31-1.963c-.28-.596-.56-1.41-.623-1.807-.063-.398-.206-.831-.316-.96-.11-.128-.273-.229-.364-.225m105.744-3.411c.298-.01 1.031.072 1.628.183a10 10 0 0 1 2.079.673c.547.263 1.257.743 1.58 1.069s.751.916.95 1.314c.226.454.36 1.078.358 1.673-.002.537-.15 1.264-.34 1.672-.186.398-.65 1.023-1.036 1.389-.385.367-1.146.886-1.694 1.155-.546.27-1.522.575-2.169.678-.862.135-1.511.126-2.44-.037-.72-.126-1.727-.471-2.334-.8-.586-.317-1.344-.902-1.682-1.3-.343-.405-.736-1.161-.893-1.718-.178-.623-.233-1.23-.154-1.627.069-.349.271-.916.446-1.265.178-.35.617-.898.977-1.221a8.2 8.2 0 0 1 1.425-.984c.423-.218 1.217-.497 1.762-.618.548-.12 1.238-.227 1.537-.236m-56.305 4.143c-.11 0-.3.206-.422.457-.18.369-.175.608.027 1.22.158.483.622 1.133 1.266 1.77.57.565 1.47 1.219 2.054 1.492.584.271 1.357.484 1.762.484.398 0 .765-.08.814-.18.05-.1-.336-.297-.859-.44-.52-.14-1.372-.567-1.887-.949-.517-.38-1.275-1.137-1.682-1.684-.408-.548-.771-1.259-.807-1.583-.038-.323-.158-.587-.266-.588m-102.229-1.085c-.489 0-.889.107-1.04.279-.214.244-.183.278.25.27.275-.003.722.091.995.21.274.12.972.548 1.554.95s1.246.976 1.474 1.274c.229.298.627.991.884 1.537.258.548.466 1.198.463 1.446-.006.41.022.427.294.181.216-.195.277-.474.221-.994-.043-.398-.273-1.13-.51-1.627s-.801-1.3-1.253-1.783c-.452-.485-1.208-1.074-1.681-1.31-.514-.26-1.175-.432-1.651-.432m159.077.058c-1.237-.054-1.846.008-2.54.252-.501.177-1.194.513-1.537.746-.344.233-.863.762-1.154 1.176l-.53.752c.541.98 1.105 1.532 1.602 1.863s1.31.717 1.808.86c.497.144 1.432.263 2.08.263.646 0 1.58-.119 2.078-.263a6.7 6.7 0 0 0 1.673-.816c.423-.303.97-.837 1.22-1.184.416-.582.432-.675.197-1.13-.141-.275-.486-.713-.768-.977-.283-.262-.963-.7-1.508-.975-.81-.405-1.295-.51-2.621-.567m-104.117 2.022c-.697-.741-.829-.823-.733-.452.065.247.314.898.55 1.446.24.546.798 1.36 1.245 1.808.444.446.845.77.89.723.043-.051-.187-.66-.51-1.355-.324-.697-.973-1.673-1.442-2.17m49.335-2.62c-.1.005-.403.21-.677.456-.317.285-.496.627-.495.943.004.273.156.823.342 1.22.185.398.69 1.063 1.126 1.477a9 9 0 0 0 1.693 1.226c.645.334 1.177.468 1.853.465.705-.002 1.043-.098 1.31-.366.2-.199.362-.482.362-.632 0-.237-.04-.235-.316.01-.22.2-.37.227-.497.091q-.18-.192.048-.418c.127-.125.229-.287.227-.361s-.227-.176-.501-.225c-.273-.049-.986-.4-1.582-.779-.597-.382-1.32-.97-1.608-1.313a7.4 7.4 0 0 1-.813-1.212c-.159-.325-.372-.587-.472-.582m-103.231-.72c-.199.003-.517.089-.709.19-.19.101-.332.262-.316.356.018.094.234.172.482.172.249 0 .911.224 1.472.497.591.287 1.41.915 1.951 1.492.58.62 1.082 1.386 1.33 2.033.22.571.399 1.202.399 1.401 0 .201.102.335.227.302.128-.033.247-.407.274-.858.035-.546-.087-1.085-.378-1.703-.237-.498-.828-1.346-1.314-1.884-.575-.633-1.27-1.16-1.972-1.49-.596-.282-1.247-.51-1.446-.508m2.319-6.605c-.399-.083-.607-.046-.677.12-.055.135-.307.832-.556 1.551-.427 1.237-.436 1.346-.17 1.899l.284.588c.613-.595.972-.86 1.196-.972.225-.112.713-.204 1.085-.206.373 0 1.085.197 1.582.441s1.364.917 1.926 1.493c.561.579 1.233 1.5 1.491 2.045.261.548.525 1.443.588 1.99.107.928.076 1.039-.454 1.671-.312.374-.527.758-.477.859.048.1.477.304.949.456.472.15.94.274 1.04.276.1.001.416-.427.705-.95.455-.832.508-1.075.403-1.861-.083-.622-.494-1.579-1.318-3.073-.66-1.194-1.573-2.563-2.032-3.043-.458-.481-1.32-1.121-1.916-1.423a40 40 0 0 1-2.079-1.144c-.548-.329-1.253-.652-1.57-.717m-1.091 5.694c-.417 0-.8.063-.851.137s.373.313.94.53c.568.217 1.44.756 1.937 1.2s1.189 1.284 1.536 1.866.765 1.467.93 1.964c.245.743.321.84.433.542.074-.2.084-.87.021-1.491-.065-.62-.177-1.126-.253-1.128-.074.001-.27-.223-.433-.498-.165-.275-.631-.844-1.039-1.267a10.4 10.4 0 0 0-1.602-1.312c-.608-.387-1.082-.545-1.619-.543m250.432-3.645c-.298-.049-.721-.056-.939-.018-.219.036-.545.235-.724.439-.224.255-.325.664-.325 1.31 0 .726.161 1.26.712 2.375.526 1.066 1.063 1.79 2.079 2.804.981.982 1.75 1.557 2.722 2.04.937.462 1.596.67 2.125.666.423-.002.902-.064 1.065-.14.164-.074.416-.38.56-.679.179-.369.223-.771.136-1.265-.07-.397-.302-1.112-.513-1.59-.213-.473-.428-.856-.479-.851-.049.007-.436.336-.859.73-.422.394-.85.716-.95.716s-.484-.125-.858-.278c-.372-.156-.993-.582-1.378-.95-.383-.368-.85-.995-1.034-1.393-.186-.397-.339-.925-.343-1.175-.005-.28.229-.69.621-1.085.347-.347.591-.692.546-.768-.048-.075-.43-.285-.852-.469-.422-.182-1.014-.37-1.312-.419m-248.181 1.66c-.222.001-.508.063-.63.135-.141.083.157.3.808.584.568.25 1.4.787 1.851 1.195.45.409 1.051 1.06 1.335 1.447.316.431.473.826.406 1.02-.06.175-.168.32-.244.321-.075.003-.237-.2-.362-.452-.123-.251-.571-.832-.994-1.29-.421-.46-1.093-1.027-1.491-1.262s-1.007-.508-1.356-.608c-.347-.1-.815-.142-1.039-.094-.222.047-.409.146-.412.22-.001.076.243.197.543.272s.975.408 1.496.739c.522.333 1.254.942 1.627 1.356.374.414.922 1.282 1.22 1.927.298.647.542 1.338.542 1.537 0 .202.101.334.226.3.148-.04.227-.432.229-1.13.004-.87.062-1.075.317-1.113.233-.033.341.128.424.633.1.6.135.635.293.316.1-.199.131-.606.068-.904-.062-.299-.32-.99-.573-1.537-.254-.546-.843-1.387-1.309-1.868-.468-.48-1.235-1.07-1.709-1.31-.472-.24-1.041-.436-1.266-.435M-36.781 10.5c-.176.237-.29.714-.279 1.173.01.425.17 1.078.359 1.45.186.375.694 1.031 1.13 1.461.433.432 1.236.997 1.782 1.257.556.266 1.326.477 1.748.483.57.007.868-.102 1.217-.444.253-.247.423-.51.376-.587-.048-.074-.554-.378-1.126-.675-.572-.296-1.522-.968-2.112-1.49a22 22 0 0 1-1.934-1.991l-.865-1.038zm-91.917 4.881c-.331-.206-.363-.18-.365.319-.003.498.028.526.361.318.198-.125.361-.268.363-.318.001-.052-.161-.195-.359-.319m91.848-8.63c-.007.453.197 1.162.548 1.898.306.647.953 1.663 1.438 2.26.484.596 1.433 1.505 2.107 2.016.676.51 1.636 1.131 2.134 1.379.497.25 1.35.584 1.898.745.546.161 1.44.285 1.989.275l.994-.02c-2.383-.5-3.562-.864-4.159-1.132-.596-.267-1.572-.835-2.168-1.261-.597-.427-1.534-1.263-2.08-1.858-.547-.595-1.257-1.52-1.577-2.059-.318-.537-.7-1.424-.846-1.972l-.265-.994zm54.046 4.576c-.546-.047-1.36-.029-1.809.042a8 8 0 0 0-1.626.479c-.449.195-1.1.6-1.447.9s-.775.844-.949 1.207-.32.804-.323.979c-.005.23.212.11.813-.452.452-.423 1.208-.938 1.68-1.143s1.386-.435 2.033-.511 1.664-.07 2.26.012c.598.083 1.573.388 2.17.675.596.29 1.35.817 1.673 1.175.354.39.586.541.587.38 0-.15-.109-.538-.24-.86-.134-.323-.643-.938-1.13-1.366-.49-.427-1.297-.924-1.794-1.104a9 9 0 0 0-1.898-.413m-146.159-5.53c-.024-.028-.442.266-.929.652-.49.386-1.105.899-1.367 1.137-.416.376-.466.537-.391 1.243.047.449.292 1.221.543 1.718s.844 1.555 1.318 2.35c.473.796 1.054 1.584 1.291 1.75.417.297.454.283 1.565-.632.627-.515 1.135-1.017 1.128-1.117-.006-.1-.222-.996-.484-1.99-.391-1.487-.665-2.093-1.553-3.434a250 250 0 0 0-1.121-1.678m96.17-3.465c-.597.004-1.367.107-1.714.232-.345.123-.834.492-1.085.817-.39.508-.455.78-.455 1.902 0 1.142.085 1.482.678 2.699.515 1.06 1.034 1.748 2.17 2.884.82.82 1.939 1.754 2.485 2.075s1.482.761 2.079.978c.729.266 1.531.401 2.44.41 1.049.013 1.498-.065 1.977-.345.342-.2.79-.647.994-.994.268-.452.374-.947.374-1.73 0-.934-.119-1.338-.799-2.712-.629-1.267-1.093-1.906-2.172-2.97-.912-.9-1.827-1.595-2.725-2.065-.745-.39-1.76-.815-2.258-.947-.497-.13-1.393-.235-1.99-.234m147.888 5.198-2.839 2.839c.3.997.767 1.628 1.293 2.124.527.495 1.084.858 1.319.86.289.002 1.186-.81 3.119-2.818 2.139-2.227 2.653-2.856 2.441-2.983-.15-.088-.312-.16-.362-.158-.051.001-.411-.305-.802-.68-.39-.377-.849-.985-1.021-1.353l-.311-.667zm-153.106 4.556c-.134 0-.392.148-.574.33-.182.18-.316.385-.299.453.018.066.277 0 .575-.15.298-.148.542-.353.542-.452s-.11-.18-.244-.18m-47.166-9.034c-.026.004-1.266.638-2.757 1.413-1.491.774-3.265 1.727-3.941 2.12-.96.552-1.178.755-.994.91.129.113 1.374.813 2.765 1.559 1.392.747 3.202 1.692 4.023 2.105.82.41 1.614.745 1.762.746.149 0 1.838-.93 3.752-2.07 1.914-1.138 3.602-2.142 3.751-2.227.2-.118-.267-.442-1.807-1.255a247 247 0 0 0-4.294-2.202c-1.217-.607-2.231-1.1-2.26-1.099m54.67 1.983c.086 0 .562.367 1.059.814.855.77.925.798 1.31.54.224-.15.528-.269.678-.266s.416.147.594.319c.177.17.317.433.314.582-.006.148-.232.443-.998 1.034l1.347 1.768-.912.904-.715-.859c-.393-.471-.836-.858-.986-.858s-.56.143-1.551.633l-.88-1.085 1.346-1.145-.677-.875c-.635-.816-.66-.893-.38-1.19.162-.172.367-.315.452-.316m1.104 2.186c.211.522.191.588-.317 1.027-.35.305-.413.417-.18.32.198-.085.625-.18.949-.215.373-.04.587-.163.588-.334 0-.148.224-.436.497-.635.273-.2.422-.41.334-.467-.091-.055-.359.046-.597.228-.423.323-.447.322-.967-.075l-.533-.408zm-105.582-4.885c-.292.008-.942.343-1.582.82-.596.445-1.165.882-1.265.971-.118.105-.045.372.206.762.242.374.885.87 1.718 1.321.732.398 1.656.86 2.053 1.029.398.17.866.31 1.039.316.174.005.67-.253 1.1-.576a30 30 0 0 0 1.446-1.176c.365-.323.661-.648.659-.723-.001-.075-.712-.597-1.581-1.159-.867-.564-1.965-1.153-2.437-1.31-.472-.16-1.082-.282-1.356-.275m254.128 2.79c-.287-.497-.521-.783-.523-.633-.004.148.226.636.51 1.084.303.48.824.98 1.268 1.221.414.224.751.345.747.27-.003-.074-.337-.34-.743-.586-.445-.273-.944-.81-1.259-1.357m.852-2.08c-.137 0-.362.13-.497.286-.199.232-.204.41-.027.95.12.365.487.932.814 1.261.453.456.766.606 1.317.633.704.033.726.018.775-.599.036-.43-.086-.835-.375-1.265-.234-.349-.725-.776-1.09-.95s-.778-.316-.917-.316"/></g></svg>