<svg xmlns="http://www.w3.org/2000/svg" fill="none" viewBox="0 0 32 32"><mask id="a" width="32" height="32" x="0" y="0" maskUnits="userSpaceOnUse" style="mask-type:alpha"><path fill="#d9d9d9" d="M0 0h32v32H0z"/></mask><g mask="url(#a)"><path fill="#e31e24" d="M-40.667 144.864c2.23-.008 3.631.089 4.488.314.684.179 1.755.584 2.38.902.623.316 1.6 1.024 3.206 2.56l-.009-1.461c-.006-1.248.057-1.491.427-1.677.238-.119 1.115-.216 1.947-.216 1.163 0 1.594.088 1.86.378.269.292.33.706.262 1.785-.047.774-.132 1.553-.186 1.731-.072.238.106.344.66.398.415.039.882.186 1.036.324.214.193.279 1.483.274 5.552-.004 3.863-.078 5.373-.27 5.571-.145.149-.585.27-.976.27-.393 0-.774.124-.845.271-.072.149-.022.367.112.486.145.13.24.978.236 4.002l-.811.348c-.51.221-1.22.321-1.912.271-.604-.041-1.266-.223-1.47-.402-.255-.223-.367-.643-.36-1.353.006-.564-.04-1.026-.098-1.027-.06 0-.427.301-.812.667-.387.363-1.092.895-1.568 1.178-.476.286-1.45.716-2.163.958-1.078.364-1.911.446-4.868.474-3.003.028-3.76-.032-4.764-.378-.658-.225-1.765-.751-2.464-1.169-.699-.415-1.722-1.291-2.275-1.946-.554-.653-1.368-1.919-1.807-2.813-.506-1.027-.891-2.215-1.054-3.245-.192-1.244-.192-2.025.005-3.353a12 12 0 0 1 1.031-3.353 11.7 11.7 0 0 1 1.996-2.888c.67-.697 1.657-1.521 2.193-1.831.534-.309 1.508-.732 2.163-.938.898-.283 1.985-.379 4.436-.39m-.654.878c-2.18.02-3.057.1-3.353.191-.299.091-1.077.439-1.73.772-.656.335-1.702 1.127-2.327 1.763-.686.699-1.434 1.778-1.889 2.724a11.3 11.3 0 0 0-.98 3.191c-.124.893-.166 2.061-.095 2.596s.316 1.557.541 2.271.784 1.883 1.24 2.597c.46.714 1.314 1.726 1.9 2.247.588.521 1.555 1.166 2.15 1.432s1.592.593 2.217.727 1.378.244 1.677.244c.296 0 .538-.071.534-.162-.003-.089-.416-.355-.919-.591-.502-.233-1.497-.979-2.21-1.652-.715-.675-1.613-1.748-1.998-2.386-.383-.636-.895-1.937-1.138-2.889s-.437-2.265-.435-2.92c.004-.654.156-1.822.34-2.596.184-.772.644-1.986 1.025-2.697.379-.71 1.18-1.781 1.778-2.38.6-.597 1.67-1.403 2.38-1.785zm1.514.431c-.238-.002-1.114.327-1.946.731a9.3 9.3 0 0 0-2.617 1.889c-.605.636-1.349 1.642-1.652 2.236a16 16 0 0 0-.902 2.272c-.193.655-.351 1.823-.349 2.596 0 .774.148 1.966.327 2.65.178.686.56 1.707.848 2.271.288.567 1.04 1.6 1.677 2.296a8.4 8.4 0 0 0 2.668 2.005c.832.407 1.685.738 1.892.736.208-.005.939-.266 1.622-.586.74-.344 1.782-1.112 2.565-1.893.727-.722 1.577-1.824 1.892-2.449.316-.623.664-1.55.777-2.056a24 24 0 0 0 .324-1.946c.108-.921.072-1.045-.365-1.212-.338-.13-.58-.511-.792-1.244-.188-.658-.264-1.594-.2-2.466.096-1.27.05-1.477-.466-2.163-.314-.415-.965-1.097-1.446-1.515-.48-.415-1.447-1.07-2.148-1.451-.703-.383-1.47-.699-1.71-.701m8.072 15.24c-.986-.699-1.004-.683-1.744.621-.459.814-1.243 1.742-2.024 2.398-.7.588-1.341 1.124-1.422 1.189-.082.065.357.087.973.048.617-.037 1.413-.175 1.77-.305.357-.129 1.081-.586 1.611-1.012.528-.427 1.232-1.214 1.563-1.748.328-.537.538-1.072.467-1.191-.074-.122-.212-.05-.318.163-.13.266-.442.378-1.052.378-.475 0-.864-.097-.865-.216 0-.119.234-.24.52-.27zm1.772 2.488c0 .714.097 1.345.216 1.407.131.064.216-.362.216-1.082 0-.655.097-1.189.216-1.19.119.001.24.496.27 1.099l.055 1.101 2.272.18v-2.812h-3.245zm-3.189.027c.089-.019.162.109.162.288 0 .24-.254.324-.973.324-.536 0-.972-.097-.974-.216 0-.119.366-.249.812-.288.445-.039.885-.089.973-.108m.837-.865c.073-.019.115.084.09.233-.023.156-.424.295-.944.325-.495.03-.9-.043-.902-.162 0-.119.365-.249.81-.288s.872-.089.946-.108m-.134-.686c.534 0 .974.098.974.217-.002.118-.44.216-.974.216-.535 0-.971-.098-.973-.216 0-.119.437-.217.973-.217m4.108-1.071c-.913 0-1.19.075-1.19.324 0 .253.245.312 1.118.27.675-.032 1.147-.162 1.19-.324.053-.192-.273-.27-1.118-.27m3.137-10.818c-3.94.035-5.424.128-5.841.232-.415.101-.831.264-.922.357-.09.094-.004.607.193 1.143.234.638.366 1.718.381 3.137.017 1.574-.08 2.457-.361 3.245-.212.594-.333 1.252-.27 1.46.077.259.334.379.817.379h.703c-.089-7.825-.03-9.52.108-9.52.138.003.216 1.734.216 4.76v4.76h4.976zm-7.771 1.225c-.078-.099-.212-.075-.296.055s-.097.698-.028 1.262c.071.565.164 1.173.208 1.353.043.177.279.398.523.486.361.132.441.074.444-.324.002-.268-.158-.974-.353-1.568-.197-.595-.42-1.165-.498-1.264m-3.803-5.104.649.466c.357.258 1.073.91 1.59 1.453.52.543 1.086 1.279 1.26 1.636l.317.65c.677-.79 1.08-.974 1.484-.974.357 0 .65-.098.65-.217-.002-.12-.562-.699-1.245-1.287-1.237-1.066-1.248-1.07-2.382-.919-.847.113-1.137.082-1.135-.119.002-.164.298-.27.759-.271.432 0 .712-.093.649-.216-.06-.119-.67-.212-1.353-.21zm8.378 2.409c-.88-.052-1.11.002-1.12.27-.009.264.245.335 1.205.335.878 0 1.188-.076 1.118-.27-.057-.156-.567-.299-1.203-.335m-4.09-.019c.379.024.788.095.907.162.117.067-.224.184-.757.26-.535.075-.995.1-1.029.056-.03-.044.001-.178.068-.298.067-.121.433-.202.811-.18m2.753-2.911c-.229.08-.302.425-.27 1.283.033.878.123 1.171.368 1.171.25 0 .324-.289.324-1.299 0-.712-.023-1.286-.054-1.28zm.863 1.147-.008 1.307 1.947-.108v-2.38l-1.93-.126zm-4.767.687c.52.039.973.19 1.013.339.044.173-.18.275-.632.279-.387.007-.842-.148-1.013-.338-.28-.315-.22-.341.632-.28m-42.83-49.676c.534.06 1.354.327 1.82.591.464.264 1.146.852 1.514 1.309.66.821.668.863.733 3.677.046 2.001-.018 3.036-.217 3.477-.155.344-.647.951-1.092 1.351-.448.398-.959.723-1.136.723-.18 0-.365.074-.417.162-.05.091.097.844.326 1.677.23.833.416 1.686.416 1.894 0 .21-.442 1.036-.98 1.838-.876 1.305-1.24 1.621-5.835 4.444l-1.19-.237c-1.03-.205-1.252-.187-1.64.13-.246.204-.956.952-1.575 1.666-.618.713-1.12 1.37-1.118 1.46.002.091-.14.162-.318.162-.18 0-.324.098-.324.217s-.513.758-1.136 1.415c-1.073 1.129-1.195 1.196-2.163 1.19-.567-.005-1.347-.143-1.732-.307-.387-.164-1.064-.675-1.5-1.136-.44-.46-.902-1.103-1.028-1.432a4.1 4.1 0 0 1-.23-1.244c0-.481.427-1.19 1.664-2.758.915-1.16 1.98-2.45 2.367-2.867.475-.511.737-1.036.806-1.623.078-.664-.045-1.153-1.159-3.353l.582-.811c.32-.445 1.17-1.541 1.889-2.434.72-.891 1.553-2.109 2.397-3.785l1.297-.109c1.19-.097 1.303-.152 1.36-.649.035-.297.198-.931.367-1.406.236-.658.505-.952 1.13-1.236.453-.205 1.796-.763 2.985-1.24 1.77-.712 2.339-.849 3.137-.756m-56.897.31c1.836-1.749 1.839-1.75 2.813-1.634.534.065 2.036.435 5.693 1.527l.935 1.298c.513.714 1.566 2.298 3.756 5.734l-1.101 2.757c-.603 1.518-1.163 2.854-1.244 2.975-.078.119-3.211 3.256-13.773 13.725l-1.081.008c-.594.005-1.86-.103-2.812-.242-1.729-.249-1.733-.251-3.206-1.677a43 43 0 0 1-2.704-2.924c-1.026-1.249-1.233-1.645-1.255-2.38-.013-.487-.093-1.809-.329-4.995l6.235-6.207c3.429-3.416 7.061-6.998 8.073-7.963zm250.49-1.729c.486 0 .828.184 1.217.649.297.356.662 1.042.811 1.52.147.478.368.872.487.874s.362-.148.541-.339c.178-.188.617-.342.974-.34.519.005.98.34 2.314 1.688 1.175 1.183 1.668 1.841 1.672 2.222.002.298-.188.761-.424 1.027-.233.268-.378.584-.318.703.058.119.472.327.92.461.446.134.993.394 1.216.575.272.223.398.584.379 1.108-.026.724-.617 1.368-8.52 9.27-5.496 5.496-8.642 8.49-8.922 8.491-.237.003-.653-.144-.919-.324-.268-.179-.634-.619-.811-.976-.18-.357-.324-.843-.324-1.081s-.098-.481-.217-.541c-.119-.059-.485.134-.812.43-.328.294-.839.536-1.135.538-.392.002-1.039-.493-2.328-1.78-1.276-1.274-1.787-1.938-1.792-2.325-.002-.297.241-.784.538-1.082.298-.296.494-.612.438-.703-.058-.089-.542-.357-1.075-.595-.537-.238-1.144-.686-1.352-.995-.29-.433-.328-.682-.162-1.065.122-.277 3.978-4.304 8.571-8.954 7.453-7.539 8.431-8.456 9.033-8.456M73.99 94.992c.504-.188 1.18-.272 1.623-.2.415.066 1.05.287 1.406.488.357.204.868.805 1.136 1.337.27.532.486 1.308.484 1.724-.002.417-.223 1.184-.489 1.705s-.774 1.127-1.13 1.346c-.358.218-1.065.402-1.57.404-.84.006-1.019.115-2.055 1.248-.625.684-1.816 1.952-2.65 2.819-1.28 1.333-1.624 1.577-2.92 1.564v5.409c0 4.374-.063 5.533-.325 6.057-.179.357-.643.832-1.028 1.055a8.7 8.7 0 0 1-1.46.643c-.6.188-.792.383-.924.945-.09.392-.162 1.126-.162 1.63.002.846-.056.947-.753 1.243-.417.18-1.001.325-1.297.325-.299 0-.884-.145-2.056-.649v-3.245l-.81-.123c-.448-.069-1.228-.362-1.732-.65-.506-.287-1.06-.791-1.229-1.12-.25-.482-.313-2.17-.335-8.923-.021-7.183.022-8.395.31-8.817.184-.266.846-.729 1.47-1.025.624-.297 1.818-.647 2.651-.779a9.5 9.5 0 0 1 2.92-.034c.772.115 1.965.465 2.65.779.736.339 1.397.824 1.623 1.187.222.363.51.573.703.518.177-.055 1.03-.795 1.895-1.643 1.168-1.148 1.603-1.737 1.705-2.302.074-.415.257-.999.408-1.297s.453-.71.673-.918c.22-.207.792-.521 1.268-.7M-93.313 119.77c-.1 0-.411.225-.69.502-.323.313-.496.716-.47 1.082.022.318.187.871.366 1.228.177.357.64.891 1.028 1.186.387.294 1.069.636 1.514.758.558.153.995.151 1.406-.007.472-.182.528-.267.27-.409-.179-.1-.25-.288-.162-.422.089-.132.358-.241.596-.241.237 0 .479-.097.54-.215.058-.119-.137-.217-.433-.217-.299 0-.906-.182-1.352-.405-.445-.222-1.11-.733-1.475-1.135-.364-.403-.73-.95-.812-1.218-.08-.266-.229-.487-.326-.487m-93.706-20.535c.653-.01 1.301.053 1.44.14.141.086.384.618.541 1.183.197.698.427 1.057.723 1.131.238.06.577.114.757.121.177.006.591-.381.92-.861.534-.787.664-.863 1.298-.759.385.065 1.385.448 2.218.852.863.42 1.955 1.181 3.58 2.817l-.835 1.947.464.58c.407.504.55.551 1.117.376a5.2 5.2 0 0 1 1.244-.199c.471 0 .703.191 1.125.92.292.506.684 1.358.872 1.892.188.537.435 1.534.552 2.218.199 1.187.174 1.313-.548 2.758-.629 1.258-.718 1.599-.524 2.001.204.424.031.82-1.351 3.063-.871 1.415-1.731 2.621-1.91 2.685-.18.06-.96.526-1.732 1.034-1.317.865-1.517.931-4.844 1.06l-.445-.822c-.402-.742-.543-.83-1.471-.919-.96-.091-1.053-.052-1.406.556-.225.383-.558.648-.811.648-.238-.002-1.043-.296-1.786-.653s-1.424-.794-1.513-.976c-.091-.179-.091-.374 0-.432.091-.055.795.187 1.568.543.772.357 1.503.601 1.622.541s.62-.814 1.113-1.677c.49-.86 1.026-1.736 1.189-1.946.266-.342.164-.442-1.058-1.054a35 35 0 0 1-2.758-1.588c-.775-.502-1.724-1.218-2.812-2.28l-.801 1.244a41 41 0 0 1-1.406 2.055c-.333.447-.558.907-.498 1.027.058.119.79.753 1.623 1.406.833.656 1.481 1.314 1.44 1.461-.039.149-.209.299-.377.333-.169.035-1.067-.647-1.998-1.514-.929-.867-1.645-1.674-1.589-1.793.056-.12-.079-.752-.299-1.407-.359-1.062-.496-1.222-1.28-1.514-.485-.178-.981-.47-1.1-.65-.128-.185-.197-1.385-.162-2.811.03-1.367-.011-2.586-.093-2.705-.081-.12.442-1.385 1.164-2.812.723-1.428 1.423-2.722 1.56-2.876.134-.153.465-.274.733-.269.378.006.623-.265 1.111-1.236.346-.683.955-1.479 1.353-1.769.4-.29 1.214-.645 1.809-.788.594-.143 1.616-.27 2.271-.282m41.911 12.323c-.03.004-.42.32-.866.703l-.811.694c.333 3.521.381 4.69.321 4.868-.069.2.63 1.16 1.808 2.488 1.056 1.189 2.152 2.374 2.438 2.634.337.308 1.156.597 2.356.835 1.034.208 2.17.308 2.596.23.415-.076.882-.257 1.036-.404.154-.145.277-.485.271-.753-.005-.267.225-1.143.512-1.948l.52-1.46c-2.354-3.184-3.32-4.62-3.661-5.246-.344-.622-.698-1.089-.787-1.034s-1.405-.287-2.921-.757c-1.509-.469-2.769-.851-2.812-.85m262.532-13.805c-.389-.25-1.116.425-8.79 8.167-5.448 5.498-8.345 8.573-8.311 8.82.03.217.538.608 1.189.919.625.297 1.234.686 1.351.866.117.177.214.446.214.595.001.148-.234.537-.526.865l-.528.595 3.395 3.461c.839-.992 1.224-1.198 1.611-1.196.372.004.716.188.922.493.179.266.324.753.324 1.082-.002.344.203.779.484 1.032.268.24.584.436.703.439.122-.001 3.945-3.772 8.497-8.387 7.592-7.696 8.259-8.43 8.058-8.876-.134-.296-.414-.487-.708-.489-.268 0-.802-.195-1.189-.433-.513-.313-.706-.593-.71-1.025-.005-.329.19-.791.43-1.029l.438-.432c-3.344-3.346-3.352-3.351-3.782-2.925-.238.236-.628.429-.866.429-.237 0-.549-.07-.694-.158-.143-.087-.448-.695-.675-1.348-.227-.655-.603-1.313-.837-1.465m-56.468 24.745c-.433-.153-.478-.106-.433.439.035.43.208.669.59.807.297.106.908.132 1.353.059.727-.123.81-.206.81-.788 0-.573-.055-.631-.485-.497a3.7 3.7 0 0 1-.92.151c-.238 0-.652-.076-.915-.171m-87.453-24.366c.177-.004.835.137 1.46.318.735.212 1.488.65 2.143 1.245.554.506 1.285 1.358 1.625 1.892.504.796.617 1.212.612 2.272-.002.871-.128 1.484-.38 1.858-.208.307-4.076 4.375-8.597 9.039-6.269 6.466-8.403 8.536-8.979 8.718-.417.13-1.146.192-1.622.138-.476-.056-1.341-.335-1.919-.623-.58-.289-1.402-.914-1.826-1.39s-.945-1.256-1.16-1.732c-.211-.476-.389-1.278-.39-1.784-.003-.504.101-1.186.229-1.515.13-.327 2.248-2.681 4.705-5.231 2.46-2.55 6.223-6.416 8.365-8.59 2.278-2.31 4.208-4.087 4.652-4.277.415-.18.902-.331 1.082-.338m-153.17 19.042c-.061.009-.683 1.058-1.379 2.334l-1.272 2.317c.627 1.091.858 1.408.919 1.409.059-.004.614-.806 1.23-1.788.616-.981 1.186-1.978 1.269-2.216.091-.262-.01-.756-.255-1.251-.222-.449-.453-.809-.512-.805m6.07.666c-.067.009-.608.31-1.203.669-.753.452-1.445.676-2.272.739-.655.048-1.259.16-1.342.251-.082.089-.641.968-1.243 1.947l-1.092 1.786c1.747 0 2.267-.197 3.515-.967 1.361-.842 1.711-1.198 2.663-2.705.6-.953 1.036-1.724.974-1.72m186.58-21.54c.57-.218 1.347-.305 2.272-.251.773.046 2.088.307 2.92.586.833.277 2.341 1.054 3.354 1.725 1.01.672 2.4 1.843 3.089 2.604.705.777 1.66 2.185 2.185 3.219.513 1.012 1.006 2.326 1.093 2.921.09.631.06 1.466-.076 2.001-.13.506-.708 1.529-1.285 2.271-.6.774-1.41 1.534-1.893 1.776-.528.267-1.408.45-3.87.567l-1.731 1.993a479 479 0 0 0-3.786 4.433c-1.13 1.339-2.3 2.524-2.596 2.631-.299.105-.859.25-1.243.319-.388.069-1.264.022-1.948-.108-.685-.129-1.823-.543-2.533-.919-.707-.377-1.809-1.22-2.447-1.875-.636-.654-1.415-1.725-1.729-2.38-.316-.654-.614-1.628-.666-2.164-.05-.535-.03-1.337.045-1.785.106-.631.674-1.419 2.57-3.569 1.337-1.516 2.988-3.441 3.668-4.273 1.221-1.497 1.233-1.523 1.003-2.379-.125-.476-.194-1.407-.15-2.069.064-1.003.244-1.453 1.081-2.704.554-.823 1.184-1.665 1.405-1.869.221-.201.793-.517 1.269-.701m-41.207 4.354c-.132-.599-.265-.486-4.347 3.691a1846 1846 0 0 0-8.05 8.297c-3.36 3.493-3.856 4.099-3.975 4.856-.08.509-.017 1.223.15 1.732.155.476.631 1.241 1.055 1.702s1.233 1.068 1.798 1.351c.564.284 1.295.516 1.622.518.489.004 1.38-.793 5.03-4.489 2.437-2.471 5.969-6.075 7.842-8.007 1.873-1.934 3.455-3.515 3.516-3.515.057.001.042.122-.036.271-.079.146.12.025.438-.271.32-.298.579-.614.577-.703-.005-.091-.42-.257-.926-.372-.53-.121-1.445-.626-2.163-1.19-.826-.652-1.436-1.361-1.82-2.116-.317-.625-.637-1.415-.711-1.755m-93.804 6.649c-.016-.032-2.755 2.686-6.092 6.04-5.946 5.981-6.077 6.131-6.529 7.509-.251.774-.458 1.479-.456 1.568 0 .091 2.702-2.537 5.999-5.841l5.999-6.004c.853-2.483 1.091-3.235 1.079-3.272m29.826 10.953a.73.73 0 0 0-.39.145c-.1.08-.165.372-.146.649s.174.772.34 1.099c.169.328.533.802.812 1.057.279.253.823.619 1.21.812.388.192.996.348 1.353.348s.794-.048.974-.108c.177-.059.324-.205.324-.324s-.245-.217-.541-.217c-.299 0-.906-.184-1.352-.409-.445-.225-1.086-.686-1.42-1.028-.333-.339-.685-.934-.778-1.321-.095-.385-.269-.703-.386-.703m154.073 2.812c-1.356 0-1.406.02-1.406.541 0 .439.132.566.702.674.388.072.996.042 1.353-.071.426-.134.666-.365.703-.675.05-.439-.038-.469-1.352-.469M9.994 105.493c-.076 0-.24.195-.362.433-.123.238-.187.554-.144.703s-.005.441-.109.648c-.116.241-.106.34.03.271.12-.06.216-.01.217.108 0 .119-.147.217-.325.217-.18 0-.321.074-.317.162 0 .09-.486.724-1.082 1.407-.699.798-1.136 1.145-1.22.972-.071-.15.156-.562.508-.919.35-.357.97-1.112 1.374-1.677.404-.564.664-1.075.575-1.135-.089-.058-.478.305-.865.809-.387.502-1.75 2.11-3.028 3.57-2.322 2.645-2.326 2.654-2.33 3.788-.005.826.168 1.488.633 2.433.364.74 1.134 1.772 1.79 2.4.631.605 1.66 1.361 2.286 1.676.625.316 1.599.679 2.164.807.707.158 1.295.162 1.892.011.764-.195 1.22-.648 3.892-3.856 1.665-1.998 3.32-3.898 3.677-4.222.491-.444.572-.611.328-.68a39 39 0 0 1-1.407-.465c-.594-.205-1.763-.791-2.596-1.302-.833-.51-2.11-1.547-2.834-2.299-.725-.755-1.61-1.933-1.962-2.617-.355-.683-.707-1.242-.785-1.243m-152.558 8.856c.238-.002.92.233 1.515.523.594.288 1.414.897 1.821 1.354.407.456.918 1.218 1.132 1.694s.393 1.231.395 1.677c.005.633-.149.963-.698 1.499-.612.597-.816.673-1.568.582-.476-.059-1.305-.355-1.839-.66-.573-.327-1.312-1.035-1.792-1.718-.586-.83-.832-1.424-.869-2.07-.026-.498-.024-1.155.009-1.46.036-.357.306-.708.758-.987.387-.235.898-.432 1.136-.434m-39.579 2.467c-.242-.11-.289.009-.216.541.074.525-.13 1.054-.879 2.304-.536.893-.973 1.72-.973 1.839s.26.192.578.162c.478-.043.794-.409 1.823-2.109.686-1.129 1.253-2.177 1.262-2.326.008-.16-.252-.271-.634-.271-.357 0-.79-.063-.961-.14m90.4.725c-.09.076-.15.39-.135.696.017.308.324.974.685 1.478.446.625.95 1.027 1.575 1.257.506.186 1.3.307 1.767.27s.881-.188.92-.338c.038-.151-.048-.213-.2-.142-.149.069-.611.024-1.027-.102-.417-.125-1.147-.502-1.623-.84-.475-.337-1.074-1.018-1.332-1.515-.255-.495-.54-.839-.63-.764m-51.318-2.325c-.095 0-.31.117-.477.26s-.285.508-.263.81.151.895.29 1.31c.136.415.552 1.082.922 1.479.372.396.966.924 1.323 1.17.614.424.605.402-.134-.397a12 12 0 0 1-1.347-1.82c-.31-.536-.567-1.094-.57-1.244-.002-.149.07-.272.158-.272.089-.001.277.314.417.703.141.387.628 1.082 1.082 1.54s1.143.969 1.53 1.136c.387.164.897.3 1.135.301.24-.001.433-.146.433-.325s-.171-.326-.378-.331c-.337-.006-.333-.043.054-.342.43-.333.427-.337-.068-.696-.274-.199-.76-.572-1.081-.829-.32-.26-.534-.528-.473-.6.059-.07.377.068.703.308.326.237.594.36.595.273-.003-.089-.252-.455-.557-.812-.348-.411-.586-.549-.647-.378-.052.149-.192.27-.311.271-.119-.001-.314-.293-.433-.65-.14-.423-.361-.649-.637-.649-.349 0-.399.104-.288.595.12.547.102.569-.241.271-.205-.179-.415-.495-.469-.703-.052-.207-.173-.378-.268-.379m53.002.57c-.119-.065-.39.059-.603.275-.212.214-.366.625-.34.913.023.287.261.857.525 1.263s.967 1.012 1.562 1.35c.594.335 1.42.616 1.838.623.424.007.9-.14 1.082-.333.292-.309.251-.344-.432-.342-.418 0-1.1-.185-1.515-.415-.417-.227-.709-.418-.648-.42s.596.139 1.19.319c.594.177 1.324.317 1.622.308q.542-.013-.865-.54c-.928-.348-1.72-.842-2.33-1.45-.506-.506-.91-1.036-.896-1.179a.42.42 0 0 0-.19-.372m146.58-3.483c.056 4.17.158 5.968.35 6.278.148.238.75.673 1.338.965.83.415 1.495.552 3.013.619 1.337.059 2.32-.021 3.137-.253.683-.192 1.488-.616 1.892-.995l.704-.66c0-9.035-.024-11.674-.054-11.689-.03-.002-.59.236-1.244.53-.656.294-1.824.636-2.596.76a8.9 8.9 0 0 1-2.812.006c-.775-.119-1.947-.483-2.607-.809l-1.201-.595zm62.448-9.86c.247-.003.873.362 1.385.812.715.625.919.947.865 1.36-.047.374-.219.558-.556.595-.268.031-.592.273-.72.541-.169.35-.169.547.002.703.132.119.237.388.235.595-.002.208-.394.671-.869 1.027-.474.356-.936.645-1.027.643-.089-.002-.31-.147-.488-.319-.285-.28-.434-.209-1.25.598-.806.798-.926 1.037-.919 1.837.004.746-.119 1.041-.66 1.568-.545.533-.846.65-1.673.65-.925 0-1.083.084-1.949 1.027-.936 1.023-.941 1.032-.653 1.839.27.757.257.846-.203 1.298-.383.381-.741.486-1.623.486-1.06 0-1.129.033-1.129.541 0 .299-.074.663-.162.812s-.334.268-.541.268c-.208-.002-.842-.537-1.406-1.19-.928-1.073-.995-1.22-.688-1.512.188-.179.48-.324.648-.324.171 0 .408-.195.527-.433.151-.302.135-.593-.055-.969-.233-.463-.212-.598.162-.992.238-.251.773-.655 1.191-.899.642-.376.839-.402 1.298-.18.497.242.603.192 1.351-.621.664-.722.788-.991.676-1.477q-.136-.596.27-1.298c.223-.385.699-.861 1.056-1.056.357-.194.917-.316 1.243-.27.461.064.79-.111 1.478-.784.811-.791.863-.911.63-1.406-.143-.296-.2-.759-.128-1.027.071-.268.372-.632.671-.812.393-.235.66-.266.973-.108a.92.92 0 0 0 .865 0 .72.72 0 0 0 .397-.606v-.322c.015-.203.07-.383.144-.441.1-.08.384-.149.632-.154m.517.63c-.29-.16-.37-.113-.379.236-.007.242-.329.694-.716 1.004-.486.389-.87.527-1.244.45a1.03 1.03 0 0 0-.915.248c-.357.342-.357.392 0 .934.37.565.363.588-.383 1.492-.417.506-1.001 1.091-1.298 1.301-.378.266-.655.323-.919.185-.222-.115-.58-.117-.866-.005-.268.104-.681.403-.919.662-.342.374-.402.64-.285 1.27.136.75.075.868-1.082 2.053-1.163 1.192-1.281 1.257-2.202 1.216-.534-.024-1.094-.031-1.244-.013-.188.019-.234.275-.148.839.085.554.016.965-.216 1.298-.186.268-.608.587-.934.71l-.595.221c1.17 1.168 1.586 1.509 1.676 1.508.088-.003.16-.224.156-.491-.004-.269.167-.652.379-.851.225-.214.831-.394 1.467-.433.812-.052 1.069-.149 1.033-.393-.026-.18-.108-.617-.183-.974-.122-.584 0-.781 1.237-1.983 1.267-1.233 1.432-1.328 2.131-1.218.663.104.833.028 1.374-.61.512-.61.59-.857.475-1.489-.127-.685-.047-.852.849-1.785.744-.776 1.144-1.027 1.633-1.027.354 0 .691.097.753.216.06.118.182.214.27.21s.382-.2.65-.433c.414-.365.446-.487.215-.853-.196-.309-.209-.586-.046-1.027.138-.374.462-.679.865-.808.352-.115.688-.236.75-.271.06-.037-.137-.316-.433-.625-.298-.307-.705-.651-.906-.764m-305.54-2.882c-1.843-.07-2.816.045-3.351.209s-1.094.45-1.244.638c-.225.284-.161.488.378 1.208l.649.865c-.921 1.497-1.287 1.938-1.406 1.945-.119.006-.726-.21-1.351-.481-.624-.27-1.178-.442-1.232-.383-.052.059-.709 1.228-1.46 2.597l-1.365 2.487c.084 3.269.182 4.215.271 4.208.09-.008.716-.907 1.392-2 1.112-1.798 1.218-2.071 1.082-2.806-.091-.5-.064-.816.068-.819.119-.001.387.391.594.871.355.815.439.872 1.298.893.506.011 1.135.084 1.4.162.279.08.805.684 1.25 1.439.424.712.767 1.367.764 1.46-.004.088-.373.315-.818.504l-.811.341a17.4 17.4 0 0 0 2.704 2.229c.773.51 1.796 1.123 2.272 1.361.476.236 1.083.491 1.351.567.446.123.488.062.488-.73 0-.475.073-.899.162-.942.09-.041.985.03 1.988.162l1.826.24.891 2.083c1.949-.216 2.869-.534 3.732-1.013.744-.411 1.352-.843 1.352-.962-.002-.12-.488-.558-1.082-.973-.595-.418-1.086-.831-1.09-.92-.006-.091.14-.309.326-.486.186-.18.385-.691.442-1.136l.106-.812 2.656.325c-.253-1.845-.607-2.99-.951-3.732-.417-.908-.749-1.352-1.002-1.352-.208.002-.768.104-1.244.227l-.865.227-2.003-2.293c.962-1.088 1.245-1.454 1.246-1.514-.001-.061-.366-.457-.812-.881-.445-.426-1.395-1.052-2.109-1.393-.713-.34-1.479-.649-1.702-.688-.236-.039-.593.173-.865.517-.379.48-.414.645-.191.92.216.267.216.356 0 .447-.149.063-.71-.035-1.244-.221-.536-.184-1.168-.33-1.406-.328-.338.004-.504-.245-.757-1.132zm100.47 13.828c-.235-.067-.599.285-1.135 1.094-.435.658-.79 1.244-.79 1.303.002.062.757.39 1.677.734.921.341 2.237.781 2.92.973.684.193 1.267.352 1.298.357s.332-.41.671-.919c.34-.511 1.02-1.29 1.514-1.732l.898-.803c-2.277.011-2.343.038-1.947.321.238.168.359.38.269.471s-.82-.145-1.623-.521c-.803-.379-1.898-.798-2.432-.932a57 57 0 0 1-1.32-.346m-2.736 2.933c-.03.002-.054.054-.055.113 0 .06.414.342.92.627.507.288 1.26.582 1.677.658.556.099.324-.068-.865-.634-.89-.42-1.64-.763-1.677-.764m-36.672-17.077c-.055.031-3.086 2.979-6.759 6.572l-6.707 6.564c1.308 1.968 2.129 3.124 2.666 3.838a67 67 0 0 0 1.159 1.513c.117.135 2.698-2.303 6.759-6.381l6.572-6.598a71 71 0 0 0-2.469-3.84c-.641-.922-1.189-1.67-1.221-1.668m141.777 14.147c.107.06.13.233.048.382-.085.15-.742.981-1.46 1.848-.72.866-1.381 1.546-1.472 1.515-.089-.035-.158-.161-.151-.28.006-.119.647-.973 1.423-1.897.776-.925 1.5-1.63 1.612-1.568m1.146.329c.161.001-.35.779-1.137 1.728-.785.949-1.453 1.678-1.487 1.622-.028-.061.484-.836 1.138-1.728.653-.891 1.323-1.621 1.486-1.622m-94.046-.088c-.042-.052-.763.337-1.604.866-.844.53-1.788 1.278-2.095 1.665-.307.386-.557.776-.558.865 0 .091.742-.298 1.646-.865.904-.565 1.879-1.343 2.164-1.73.285-.385.486-.747.447-.801m91.345-.103c.24-.512.406-.662.56-.498.15.163.026.493-.407 1.059a26 26 0 0 1-1.514 1.741c-.488.507-.958.919-1.05.919-.088 0 .34-.563.955-1.246.612-.684 1.268-1.572 1.456-1.975m-.69-1.107c.153 0 .326.073.382.162.053.09-.247.505-.666.919-.421.415-1.1 1.22-1.507 1.785-.407.564-.887 1.026-1.065 1.027-.179 0-.324-.048-.325-.108.002-.061.536-.741 1.19-1.514.653-.774 1.306-1.6 1.45-1.839.142-.238.385-.432.54-.432m-204.592-1.936c-.061.012-.901 1.209-1.867 2.659-1.268 1.906-1.705 2.731-1.569 2.964.119.204.251.245.353.109.091-.12.723-1.067 1.406-2.11.684-1.04 1.365-1.893 1.515-1.895s.415-.091.594-.199c.288-.173.288-.27 0-.87-.179-.371-.374-.668-.432-.658m203.62 1.286a.18.18 0 0 1 .178.163c.001.089-.254.407-.572.703-.316.298-1.047 1.101-1.627 1.785-.578.682-1.102 1.144-1.162 1.027-.06-.119.11-.485.373-.811.267-.327.967-1.106 1.562-1.731.592-.625 1.154-1.135 1.248-1.136m-101.295-4.184c-.134-1.241-.148-1.263-.5-.812-.331.422-.322.541.55 2.287.08.157.166.322.25.492.52 1.04 1.007 2.111 1.083 2.38.044.156.049.294.023.383-.018.071-.053.114-.106.114-.12 0-.218-.122-.223-.271-.001-.091-.178-.53-.443-1.127-.152-.332-.33-.712-.524-1.1-.4-.807-.747-1.545-.894-1.898l-.188-.39c-1.197 1.444-1.61 1.987-1.691 2.135-.082.149.287 1.271.821 2.488.532 1.221 1.104 2.413 1.266 2.651.283.411.344.367 1.205-.866l.91-1.298c1.743.411 2.266.508 2.29.482.016-.03-.517-.498-1.19-1.04-.764-.612-1.473-1.435-1.867-2.164a7.1 7.1 0 0 1-.772-2.446m-97.13-3.969c1.661.059 1.995.147 3.452.917.887.47 2.086 1.342 2.665 1.937s1.297 1.568 1.593 2.163c.448.895.53 1.331.472 2.529-.063 1.317-.137 1.516-.827 2.228-.511.525-1.147.891-1.947 1.121-.785.227-1.557.295-2.271.207-.595-.076-1.666-.413-2.38-.752-.714-.338-1.835-1.05-2.488-1.58-.656-.533-1.544-1.545-1.977-2.252-.432-.707-.855-1.675-.937-2.151-.08-.476-.045-1.254.078-1.73.123-.478.541-1.175.934-1.556.392-.381.955-.793 1.253-.919.297-.125 1.368-.199 2.38-.162m-9.736 7.969-1.3 2.141c1.751.818 2.27 1.041 2.282 1.02.009-.03.67-1.07 1.469-2.317.8-1.248 1.451-2.342 1.447-2.434-.004-.089-.275-.162-.601-.162-.327.002-.911-.087-1.296-.195l-.7-.195zm207.04-.681c.115.001.245.122.288.271.041.151-.663 1.022-1.568 1.938-.903.913-1.718 1.62-1.809 1.569-.088-.055.407-.709 1.101-1.453.695-.744 1.378-1.57 1.52-1.838.142-.269.352-.487.469-.487m-185.371 1.514c-.924-.119-.938-.11-1.132.648-.173.669-.137.819.285 1.143.266.205.559.377.648.379.089.001.369-.41.626-.915.256-.504.475-.968.488-1.029.007-.058-.403-.161-.915-.226m87.905-8.857c-.768 0-1.034.1-1.28.487-.171.266-.474 1.071-.671 1.785-.292 1.049-.316 1.492-.125 2.325.127.564.367 1.293.531 1.622.164.327.877 1.13 1.582 1.785.705.654 1.763 1.431 2.352 1.725.768.385 1.527.56 2.691.623 1.55.084 1.692.049 3.171-.751l1.547-.84c-.638-1.928-.921-2.438-1.04-2.379-.12.059-.412.497-.65.973-.237.476-.748 1.08-1.135 1.342-.385.261-1.14.517-1.677.569-.558.054-1.434-.055-2.055-.254-.685-.22-1.555-.769-2.38-1.505-.713-.636-1.434-1.49-1.603-1.899-.206-.498-.26-1.096-.166-1.822.1-.766.396-1.448 1.008-2.326.478-.685.87-1.294.87-1.352-.002-.061-.437-.108-.97-.108m-102.326 4.557a6 6 0 0 0-.863.123c-.238.054-.407.189-.379.299.03.11.564.234 1.187.272.634.039 1.662.318 2.326.629.654.308 1.655 1.031 2.224 1.606.571.575 1.203 1.46 1.406 1.967.205.503.445.915.534.919.089-.001.21-.098.271-.216.058-.119.017-.582-.093-1.028-.112-.445-.632-1.298-1.155-1.893-.547-.623-1.45-1.326-2.122-1.659-.645-.316-1.562-.681-2.038-.809s-1.06-.223-1.298-.21m.041 1.49c-.513-.002-.575.056-.401.376.114.208.702.842 1.309 1.407.608.564 1.714 1.319 2.458 1.676.743.357 1.472.649 1.622.65.149 0 .27-.051.271-.109 0-.058-.138-.376-.307-.703s-.679-.954-1.136-1.393-1.365-1.047-2.018-1.35c-.655-.303-1.463-.551-1.798-.554m1.04-2.665c-.595-.067-1.419-.028-1.83.086-.411.115-.727.303-.703.42.027.114.654.193 1.397.169 1.112-.032 1.604.078 2.759.623.85.4 1.865 1.123 2.561 1.826.636.638 1.344 1.527 1.569 1.973.227.445.413 1.006.413 1.244q0 .433.379.376c.237-.035.398-.275.432-.648.031-.327-.104-.909-.296-1.296-.195-.387-.706-1.171-1.136-1.744-.433-.571-1.225-1.322-1.759-1.666-.536-.344-1.363-.763-1.839-.932s-1.352-.364-1.947-.431m197.57 2.886a.253.253 0 0 1 .261.264c-.003.15-.557.903-1.227 1.676-.672.775-1.326 1.526-1.454 1.668-.127.145-.361.195-.521.109-.214-.115-.088-.375.496-1.02a32 32 0 0 0 1.477-1.778c.383-.502.818-.915.967-.919m-195.947-5.519q-1.19-.118-2.056.207c-.475.182-.925.41-1.001.509s.411.136 1.081.082c.671-.054 1.705.012 2.3.148.595.134 1.398.439 1.785.675s.679.482.649.544c-.032.063-.689-.089-1.46-.339-.774-.251-1.943-.459-2.596-.465-.677-.005-1.493.143-1.893.342-.387.189-.702.371-.704.402.009.03.761.054 1.677.057 1.425 0 1.889.099 3.083.668.773.367 1.93 1.147 2.57 1.731.686.623 1.421 1.573 1.785 2.304.341.683.627 1.414.636 1.622.013.324.044.316.202-.054.101-.238.189-.725.196-1.082.004-.357-.182-1.062-.417-1.568q-.43-.922-.158-.848c.149.04.489.452.753.919.265.465.488 1.14.493 1.497.011.592.032.612.251.217.132-.238.193-.775.136-1.191-.058-.415-.34-1.231-.626-1.808-.287-.578-1.032-1.525-1.657-2.109-.625-.581-1.743-1.348-2.487-1.701-.744-.352-1.889-.694-2.542-.759m195.154 4.647c.076 0 .128.094.116.206-.018.115-.589.893-1.271 1.73-.682.838-1.363 1.527-1.514 1.534-.149.004.197-.507.77-1.136.57-.63 1.2-1.413 1.397-1.739.2-.327.424-.595.502-.595m-.054-9.433c-.076-.047-.21.279-.298.729-.089.45-.12 1.255-.068 1.792.052.534.455 1.726.894 2.649.616 1.294 1.209 2.088 2.585 3.473 1.287 1.298 2.237 2.031 3.407 2.633.891.46 2.11.965 2.704 1.123.595.155 1.666.28 2.38.276.861-.004 1.554-.145 2.056-.42l.756-.415c-2.011-.006-3.277-.216-4.11-.472-.833-.253-1.954-.68-2.488-.949-.537-.268-1.728-1.086-2.65-1.815-.947-.749-2.092-1.912-2.635-2.676-.526-.744-1.2-1.889-1.497-2.542-.299-.655-.623-1.664-.72-2.244s-.24-1.094-.316-1.142m-94.554 5.822c-.29.385-.714 1.014-.944 1.399-.378.63-.389.784-.123 1.623.184.58.669 1.283 1.298 1.884.552.528 1.491 1.183 2.086 1.456.809.37 1.3.46 1.947.363.475-.071.958-.213 1.07-.317.122-.11-.08-.189-.486-.189-.38 0-1.203-.19-1.828-.42-.623-.231-1.28-.581-1.46-.78-.271-.301-.136-.286.81.095.626.251 1.697.506 2.38.569l1.245.114 1.514-2.104c-1.677-.244-2.553-.492-3.029-.706a12 12 0 0 1-1.73-1.027c-.476-.349-1.17-1.091-1.545-1.649l-.68-1.015zm-46.871-8.278c-.165 0-2.209 1.872-4.543 4.16a3109 3109 0 0 1-6.735 6.581l-2.488 2.417c3.353 1.009 4.643 1.357 5.03 1.426.675.121.884-.049 5.192-4.254 2.468-2.407 5.488-5.354 6.711-6.544s2.219-2.213 2.219-2.271c-.005-.061-1.15-.425-2.545-.812-1.399-.385-2.678-.7-2.841-.703M9.912 108.555c.116.035.249.184.29.333.04.151-.607 1.003-1.439 1.893-.83.891-1.56 1.521-1.622 1.407-.06-.119.441-.875 1.11-1.677.67-.802 1.271-1.585 1.333-1.739s.21-.252.328-.217m4.904-11.72c-.575 0-1.366.202-1.935.49-.743.376-1.055.707-1.38 1.46-.311.726-.382 1.22-.276 1.947.08.534.471 1.654.871 2.487s1.249 2.134 1.887 2.889c.636.757 1.741 1.815 2.455 2.351.714.534 1.833 1.246 2.488 1.577.654.331 1.775.757 2.489.946.713.188 1.687.341 2.163.341.476-.002 1.278-.195 1.784-.428.506-.236 1.032-.649 1.17-.915.141-.269.33-.829.423-1.245.095-.428.067-1.226-.063-1.838-.128-.595-.572-1.763-.987-2.596-.55-1.105-1.233-1.982-2.527-3.245-1.23-1.2-2.299-2.008-3.49-2.631-.946-.493-2.256-1.054-2.909-1.246-.655-.19-1.629-.346-2.163-.344m-93.836 2.828c-.089.009-.357.104-.595.212-.238.11-.993.396-1.676.636-1.132.396-1.286.53-1.706 1.465-.439.977-.445 1.077-.123 2.109.2.636.734 1.527 1.296 2.163.526.595 1.435 1.344 2.017 1.666s1.545.679 2.14.794c.623.121 1.494.132 2.054.03.744-.138 1.14-.377 1.684-1.01.668-.785.707-.924.703-2.507-.007-1.642-.018-1.675-.493-1.517-.268.089-.829.153-1.244.145-.418-.009-1.22-.277-1.786-.593-.564-.318-1.239-.895-1.499-1.28-.257-.388-.502-1.069-.54-1.515-.04-.447-.143-.804-.232-.798m96.041-.023c.835 0 1.525.179 2.505.648.744.357 1.802 1.112 2.354 1.677.549.564 1.22 1.467 1.486 2.001.268.536.554 1.266.639 1.623.094.413.025.943-.191 1.46-.212.506-.563.9-.934 1.047-.327.127-.986.197-1.461.149s-1.445-.372-2.155-.722c-.71-.351-1.804-1.147-2.433-1.772-.63-.625-1.39-1.623-1.686-2.218-.298-.594-.534-1.429-.523-1.855.01-.543.199-.961.632-1.406.527-.543.778-.632 1.767-.632m39.507 4.38c-.08-.048-.13.385-.108.963.04 1.025.069 1.064 1.122 1.635.62.336 1.779.694 2.705.841 1.373.219 1.888.203 3.352-.1.978-.201 2.086-.59 2.542-.895.738-.491.812-.627.812-1.512 0-.536-.072-.945-.162-.911-.09.037-.747.353-1.46.703-1.199.591-1.48.641-3.678.641s-2.477-.05-3.678-.641a66 66 0 0 1-1.447-.724m-39.436-3.85c-.687-.108-.952-.052-1.283.278-.262.26-.403.671-.379 1.102.022.376.137.685.256.685.119.001.169.146.108.326-.06.18.17.737.506 1.243.338.506 1.043 1.277 1.569 1.714.525.437 1.488 1.044 2.143 1.349.656.307 1.459.557 1.785.559.327.002.843-.119 1.143-.269.432-.214.544-.428.538-1.027-.004-.424-.28-1.233-.627-1.839-.342-.595-1.095-1.515-1.675-2.045s-1.542-1.183-2.137-1.449c-.595-.268-1.47-.549-1.947-.627m53.32 4.687c-.06.007-.572.373-1.14.811-.571.439-.91.831-.757.874.152.04.666-.325 1.14-.811.473-.489.814-.882.757-.874m-2.165-2.393c-.243 0-.494.13-.559.29-.065.162-.089.961-.05 1.778l.072 1.487 1.462-1.284c-.44-2.052-.573-2.271-.925-2.271m-94.427-3.42c-.642-.065-.965.015-1.246.312-.21.22-.331.571-.27.781.06.207.208.329.326.27.12-.06.31.305.422.811.15.66.502 1.205 1.244 1.934.572.558 1.307 1.119 1.633 1.245.327.125.91.232 1.298.237.387.006.849-.149 1.028-.346.234-.257.28-.561.163-1.091-.09-.404-.479-1.181-.866-1.726-.387-.543-1.19-1.293-1.785-1.665-.595-.37-1.471-.714-1.947-.762m97.893.634c-.061.01-.663.619-1.342 1.347l-1.233 1.329.547 2.164c2.106-2.011 2.808-2.767 2.914-2.975.138-.27.054-.595-.292-1.134-.267-.414-.535-.743-.594-.731m-9.52.513c-.773-.055-1.942.021-2.596.17-.655.147-1.518.461-1.923.697-.402.235-.867.625-1.036.863-.272.387-.242.507.301 1.149.37.439 1.02.857 1.685 1.081.744.251 1.722.358 3.136.34 1.342-.015 2.394-.151 3.03-.389.534-.202 1.194-.577 1.466-.839.27-.262.489-.647.487-.855-.005-.21-.275-.625-.602-.925-.327-.303-1.034-.693-1.568-.871-.537-.177-1.607-.367-2.38-.421m-254.123 2.527-.472.933c1.103.541 1.193.522 1.532.068.205-.274.374-.548.376-.608.002-.061-.214-.383-.482-.718l-.484-.613zm115.052-3.717c-.34 0-.796.177-1.012.396-.218.216-.38.484-.361.594.02.108.153.076.297-.071.145-.15.343-.27.438-.27s.123.195.064.432c-.06.238.038.675.217.974.178.296.64.736 1.028.971.387.238.92.433 1.189.433.268.002.641-.218.827-.484l.339-.488c-.11.844-.365 1.186-.679 1.344l-.54.273c.836.015 1.258-.154 1.477-.366.277-.27.359-.565.27-.98-.069-.329-.44-.952-.828-1.387s-1.019-.922-1.406-1.082-.98-.289-1.32-.289m152.407-3.245c-.513 0-.892.175-1.285.595-.307.326-.656.837-.775 1.135-.119.297-.225.394-.236.216-.01-.18.21-.69.49-1.135.28-.448.449-.81.373-.811-.076 0-.472.346-.883.767-.66.684-.744.903-.744 1.932 0 .842.126 1.33.454 1.773.251.337.689.646.974.689.48.074.496.05.195-.319-.313-.387-.305-.388.27-.027.327.208.864.379 1.19.383.327.004.863-.19 1.19-.432.326-.243.703-.805.838-1.25.134-.448.18-1.178.107-1.624a2.2 2.2 0 0 0-.783-1.351c-.409-.342-.917-.54-1.375-.541m-1.303 1.064c.23-.317.413-.423.452-.263.037.15-.03.465-.148.703a2.4 2.4 0 0 0-.215.92c0 .268.146.754.325 1.08.285.528.284.596-.003.596-.18 0-.422-.242-.54-.54-.12-.297-.225-.86-.238-1.251-.01-.39.153-.95.367-1.245m35.823-47.369c.902 0 1.018.086 5.909 5l1.118.041c.856.033 1.253.167 1.696.582.32.297.716.81.885 1.136.166.327.303.91.301 1.298 0 .612.35 1.054 2.706 3.407 2.271 2.27 2.706 2.809 2.702 3.354-.002.356-.076.763-.164.904s-2.251 2.382-4.81 4.977c-2.557 2.599-5.99 6.11-7.626 7.803-2.782 2.882-3.027 3.08-3.786 3.085-.752.002-1.012-.199-3.623-2.81-2.074-2.074-2.984-2.84-3.462-2.913-.396-.061-.965-.442-1.46-.976-.445-.483-.88-1.145-.965-1.472-.094-.36-1.25-1.666-2.923-3.299-2.087-2.04-2.766-2.836-2.766-3.245 0-.298.359-1.077.796-1.73.437-.654 3.468-3.916 6.736-7.247a1700 1700 0 0 1 6.873-6.978c.805-.796 1.056-.919 1.863-.917m-5.475 24.885c-.072 0-.309.18-.526.398-.218.217-.381.485-.364.595.017.108 1.156 1.294 2.527 2.633 1.371 1.336 2.567 2.432 2.657 2.434s.392-.169.671-.378l.507-.38c-4.135-4.104-5.398-5.299-5.472-5.302m15.009-15.078c-.093-.024-.946.778-1.897 1.782-.952 1.006-4.165 4.316-7.14 7.358l-5.408 5.53c2.514 2.522 3.715 3.66 4.29 4.157l1.045.902c10.86-10.896 14.057-14.207 14.112-14.386.056-.2-.852-1.28-2.37-2.812-1.356-1.367-2.541-2.507-2.632-2.531M-179.88 51.68c1.077.034 1.733.205 2.812.728.876.429 1.924 1.201 2.78 2.056.913.909 1.595 1.839 2.03 2.773.359.775.744 1.99.852 2.704q.2 1.3-.039 2.38c-.132.595-.424 1.374-.649 1.73-.225.358-3.115 3.346-6.423 6.639-5.895 5.864-6.041 5.991-7.313 6.348-.969.273-1.628.323-2.595.2-.751-.096-1.893-.461-2.704-.868-.937-.467-1.837-1.164-2.69-2.075-.748-.802-1.551-1.957-1.931-2.78-.491-1.053-.676-1.81-.743-3.029-.067-1.224.008-1.86.306-2.595.264-.654 1.069-1.651 2.453-3.035 1.136-1.136 4.058-4.013 6.498-6.395 3.046-2.972 4.671-4.407 5.193-4.578.415-.136 1.388-.227 2.163-.203m194.214.798c.283.809.527 1.133.973 1.297.54.197.645.148 1.136-.54.348-.486.714-.755 1.027-.75.269.002 1.072.32 3.083 1.399v1.153c0 1.01.074 1.203.595 1.569.482.335.781.384 1.568.252.87-.144 1.03-.103 1.493.38.286.296.775.93 1.088 1.406s.567 1.036.563 1.244-.244.647-.536.973c-.463.517-.496.651-.25 1.028.157.238.747.577 1.313.757.57.177 1.11.422 1.203.54.093.12.204 1.009.245 1.978.072 1.694.045 1.8-.63 2.758-.698.99-.7 1.002-.324 1.648.375.647.37.667-.353 2.001-.402.742-.888 1.528-1.081 1.743-.23.257-.521.35-.837.27-.405-.1-.579.043-1.028.852-.312.562-.84 1.125-1.245 1.33-.674.344-.728.34-1.351-.115-.357-.259-.723-.468-.812-.464-.089.002-.479.451-1.568 1.977l-4.11-.132-.344-1.082c-.27-.845-.472-1.116-.92-1.244-.486-.136-.684-.043-1.981 1.387l-1.623-.74c-.89-.404-1.744-.9-1.893-1.096-.15-.2-.22-.46-.162-.578.06-.12.06-.607-.109-1.947H4.436l-.974-1.46c-.536-.803-.973-1.632-.973-1.84 0-.207.24-.743.534-1.189.318-.484.457-.898.345-1.028-.104-.119-.563-.35-1.022-.515-.456-.162-.955-.407-1.11-.54-.185-.16-.276-.805-.27-1.92.007-1.304.104-1.82.442-2.325.307-.46.395-.855.308-1.352-.09-.526.005-.876.38-1.393.276-.38.89-1.253 1.366-1.94.476-.686 1.388-1.763 2.026-2.393.638-.627 1.295-1.143 1.46-1.143.167 0 .617.195 1.004.433.387.236.753.435.811.44.062 0 .423-.485.805-1.08l.694-1.09h3.693zm-136.193-3.46c.392.003 1.147.222 1.677.488a3.94 3.94 0 0 1 1.573 1.458c.443.714.603 1.248.601 2-.002.805-.108 1.113-.489 1.418-.268.212-1.849 1.77-6.543 6.526l.592 1.139c.325.627.679 1.627.785 2.222.113.629.115 1.375.002 1.784-.103.387-.483.945-.839 1.244-.357.296-.917.551-1.244.564-.326.011-.887.005-1.244-.014-.357-.02-1.281-.331-2.055-.69-.773-.36-1.675-.84-2.596-1.482l-.703.57c-.387.316-3.016 2.798-5.841 5.517-3.208 3.088-5.3 4.945-5.571 4.945-.238 0-.651-.11-.919-.242-.269-.134-.708-.452-.981-.703-.359-.338-.486-.693-.475-1.326.013-.841.171-1.019 11.462-12.006l-.447-.703c-.244-.387-.64-1.14-.878-1.677a12 12 0 0 1-.63-1.839c-.116-.52-.116-1.169 0-1.623.109-.418.375-.98.589-1.255.217-.272.734-.58 1.149-.679.43-.103 1.177-.097 1.73.018.537.11 1.489.465 3.263 1.376l2.533-2.5c1.393-1.375 3.039-2.956 3.66-3.515.863-.78 1.292-1.016 1.839-1.014M61.11 48.24c.262-.27.601-.316 1.629-.21.713.074 1.36.253 1.438.398s.197 2.261.266 4.7c.07 2.437.154 4.448.184 4.466.036.018 2.202.39 4.818.827 2.618.437 5.004.91 5.3 1.05.513.245.544.364.665 4.365l-4.498 4.666c-2.473 2.565-5.177 5.416-6.01 6.336-1.352 1.493-1.595 1.67-2.272 1.657-.415-.008-1.194-.117-1.73-.24-.534-.126-2.773-.562-4.976-.97-2.198-.41-4.019-.768-4.044-.797-.023-.028-.12-.85-.391-3.597l-1.406-.26c-.772-.143-1.477-.368-1.564-.5-.089-.13-.16-2.722-.16-11.272l5.285-5.137c5.229-5.086 5.292-5.138 6.21-5.138.563 0 1.057-.134 1.256-.344m-91.558.147a12 12 0 0 1 2.272.225c.625.135 1.672.48 2.325.77.656.29 1.712.935 2.348 1.433.638.5 1.523 1.393 1.968 1.988s.985 1.421 1.197 1.839c.214.415.518 1.194.68 1.73.16.537.35 1.703.418 2.596.1 1.27.028 2-.33 3.353-.254.952-.79 2.267-1.195 2.92-.402.653-1.25 1.69-1.882 2.3-.631.608-1.585 1.354-2.122 1.657-.534.301-1.363.651-1.839.775-.476.123-1.134.277-1.46.342-.332.066-.537.212-.584.41l-.014.132c-.046.238-.439.786-.915 1.268-.904.917-.95.935-2.435.961-.984.017-1.954-.121-4.026-.813l-3.961 4.11-1.199.071c-1.064.065-1.315-.008-2.248-.648-.72-.493-1.215-1.06-1.579-1.803-.42-.856-.497-1.26-.38-1.946.123-.703.504-1.232 3.926-4.76l-.509-1.082c-.277-.595-.568-1.518-.644-2.055-.078-.536-.033-1.313.097-1.73.132-.418.582-1.123 1-1.569.661-.705.761-.954.761-1.893 0-.595.11-1.592.244-2.217.132-.625.537-1.72.896-2.434.36-.714 1.249-1.915 1.975-2.666.814-.845 1.817-1.614 2.618-2.007.714-.353 1.785-.774 2.38-.939a10.7 10.7 0 0 1 2.217-.318m-154.538 7.128c-.033.011-2.305 2.22-5.055 4.922-4.117 4.04-5.075 5.095-5.361 5.895-.253.708-.314 1.357-.217 2.38.087.915.364 1.875.794 2.758.381.779 1.143 1.815 1.798 2.45.625.603 1.623 1.331 2.218 1.621.595.288 1.616.639 2.271.78 1.039.22 1.351.2 2.441-.163 1.161-.387 1.597-.76 6.008-5.174a3472 3472 0 0 0 4.75-4.76c-.016 0-.622-.01-1.357-.024-.882-.013-1.724-.186-2.431-.5-.595-.261-1.603-.885-2.242-1.385-.638-.497-1.541-1.488-2.006-2.202-.468-.713-1.054-1.98-1.305-2.812-.309-1.03-.424-1.88-.359-2.65.051-.624.077-1.134.053-1.136M17.511 73.724c-.143-.12-.554.31-1.136 1.185l-.91 1.376 2.704-.032 1.84-2.348c-1.762.005-2.374-.077-2.498-.181M-77.5 51.195c.326-.008 1.155.158 1.839.37s1.77.723 2.412 1.136 1.532 1.187 1.973 1.724 1.076 1.51 1.406 2.163c.403.798.636 1.654.707 2.597.057.772-.002 1.745-.131 2.163-.173.56-1.982 2.499-6.957 7.464-3.947 3.94-7.05 6.861-7.527 7.09-.599.284-1.225.368-2.43.323-1.239-.046-1.903-.196-2.812-.642-.653-.322-1.712-1.102-2.348-1.731-.679-.675-1.435-1.727-1.835-2.553-.492-1.019-.7-1.794-.756-2.813-.044-.774.04-1.842.184-2.379.236-.867.991-1.698 6.944-7.626 5.943-5.918 6.793-6.687 7.708-6.961.565-.171 1.296-.316 1.623-.325m93.885 20.768c-.088.002-.514.563-.945 1.244-.707 1.123-.761 1.312-.562 1.997l.218.757c1.821-2.405 1.87-2.54 1.668-3.245-.119-.417-.29-.755-.379-.753m-156.094-3.405c-3.638 3.556-5.579 5.605-5.578 5.886.003.238.175.593.389.788.212.192.581.409.818.478.347.101 1.566-.974 6.058-5.348l5.624-5.473-1.73-1.784zm95.47 2.968c-.119 0-.272.267-.345.595-.091.409.027.896.386 1.569.327.61.838 1.153 1.374 1.456.47.266 1.144.486 1.501.49s.827-.116 1.043-.268c.357-.246.305-.302-.54-.575-.54-.173-1.372-.723-1.965-1.298-.566-.547-1.077-1.216-1.135-1.482-.059-.268-.202-.486-.319-.487m113.122-4.54c-3.253 3.367-5.75 5.779-6.057 5.851-.289.069-1.837-.098-3.442-.37-1.607-.273-3.651-.65-4.543-.84-.892-.191-1.792-.39-2-.442-.336-.082-.373.067-.326 1.258l.055 1.35c7.538 1.418 9.89 1.809 10.085 1.783.193-.029 1.694-1.461 3.336-3.187a517 517 0 0 1 5.764-5.95l2.779-2.811-.115-2.371zm-156.012-7c-4.367 4.42-5.577 5.766-5.791 6.452-.158.501-.228 1.409-.165 2.164.065.765.331 1.738.651 2.379.299.595.995 1.542 1.545 2.109.552.565 1.512 1.283 2.138 1.597a6.9 6.9 0 0 0 2.433.669c.878.067 1.542-.01 2.055-.235.448-.195 2.956-2.535 6.16-5.75 4.913-4.933 5.343-5.42 4.759-5.419-.355 0-1.179-.153-1.832-.343-.656-.19-1.63-.621-2.164-.957-.537-.335-1.346-1.035-1.798-1.55-.454-.516-1.125-1.522-1.49-2.236-.47-.915-.714-1.767-.825-2.882l-.158-1.586zM22.003 71.31c-.091 0-.344.121-.558.27-.333.23-.36.385-.176 1.028.169.58.147.87-.089 1.244-.272.43-.264.523.072.804.207.173.452.32.54.325.09.002.31-.165.492-.372.18-.21.614-.721.966-1.136l.641-.757c-1.332-1.09-1.795-1.406-1.888-1.406m-11.518-.004c-.06.002-.524.538-1.027 1.193-.504.653-.892 1.227-.862 1.273s.565.337 1.19.649c.625.311 1.233.516 1.352.458.12-.061.615-.622 1.104-1.244l.884-1.136c-1.957-.927-2.577-1.195-2.641-1.193m52.362 2.157c.119 0 .217.342.217.757 0 .432-.094.71-.217.65-.119-.06-.215-.4-.216-.758 0-.356.097-.649.216-.649m48.081-1.732c.208.002.671.197 1.028.434.356.238.696.628.756.865.059.238-.004.651-.14.92-.136.267-.355.558-.486.645-.13.088-.484.164-.78.17-.298.007-.809-.188-1.136-.43-.432-.318-.603-.643-.623-1.183-.023-.567.096-.827.488-1.085.283-.185.686-.336.893-.336m-9.368-1.176c-.383-.095-.672-.01-.958.272-.27.268-.396.66-.364 1.149.024.406.165.958.309 1.224.143.269.555.682.912.92.356.238.945.433 1.308.433s.779-.122.924-.269c.145-.15.26-.562.258-.919s-.2-.967-.436-1.352c-.238-.387-.65-.844-.919-1.015a4.2 4.2 0 0 0-1.034-.443m-144.514.701c-.204-.445-.446-.746-.541-.667s-.159.394-.14.701.283.9.586 1.317c.305.416.964.972 1.464 1.234.502.262 1.277.482 1.722.486.446.007.81-.086.81-.205s-.073-.175-.161-.123c-.09.05-.552-.08-1.028-.292a8 8 0 0 1-1.605-1.013c-.407-.346-.906-.992-1.108-1.438m153.7 1.774c-.404 0-.541.098-.487.355.042.197.219.454.399.573.177.12.495.156.703.078.298-.11.332-.234.162-.573-.132-.266-.434-.432-.777-.433m-95.768-1.718c-.207-.002-.376.119-.372.268.002.147-.29.683-.65 1.19-.36.503-.63.957-.6 1.005s.242.122.472.164c.302.053.647-.254 1.246-1.115.605-.871.754-1.233.556-1.35a1.6 1.6 0 0 0-.652-.162m96.22.875c-.301.008-.332.048-.108.126.178.063.543.37.811.685q.486.576.493.25c.004-.178-.166-.495-.378-.698-.212-.206-.58-.37-.818-.363m-153.3-2.284c-.335-.575-.39-.598-.463-.215-.045.238-.002.724.098 1.08.1.358.397.877.66 1.156.267.279.776.66 1.133.846s.989.41 1.406.5c.543.116.833.075 1.027-.143.225-.253.154-.32-.432-.402-.442-.06-1.14-.485-1.876-1.136-.645-.569-1.343-1.329-1.553-1.686M10.8 53.283l.137 1.037-1.851.743-2.082-1.608c-1.231 1.172-1.641 1.536-1.703 1.563-.06.029.256.489.702 1.027.796.96.807.998.54 1.865l-.27.887c-2.462-.255-2.488-.247-2.488.283 0 .383-.093.508-.324.433q-.326-.108-.974.973c-.496.827-.65 1.349-.657 2.218l-.007 1.136c1.447-1.822 1.68-2.303 1.6-2.597-.064-.238-.01-.506.121-.595.154-.103.239.014.237.325-.005.417.184.532 1.328.811 1.081.264 1.367.427 1.519.866.101.296.296.735.43.973.206.368.149.504-.379.917-.344.268-.696.487-.785.487s-.162.1-.162.22c0 .119.366.729.812 1.356l.81 1.14c2.128-.314 2.354-.273 2.925.153.619.458.649.552.54 1.623l-.111 1.135c2.011 1.006 2.67 1.261 2.758 1.218.09-.044.308-.39.487-.765.177-.379.422-.682.54-.675.12.007.654.143 1.19.302.887.264 1.013.39 1.406 1.405l.433 1.111h2.92l-.108-2.198 1.84-.614 2.055 1.678 2.163-1.89-2.055-1.951.58-1.84 2.016.11V63.73c-2.336-.73-2.447-.828-2.832-1.785l-.413-1.027 1.406-1.049c-1.005-1.403-1.419-1.9-1.568-2.006-.158-.11-.654-.107-1.19.007-.872.188-.968.158-1.841-.595-.89-.765-.918-.826-.812-1.819l.11-1.028-2.271-1.134-1.298 1.54c-2.011-.492-2.13-.596-2.483-1.487l-.383-.974-2.693-.132zm95.723 12.33c-.493-.116-.842.152-2.921 2.242-1.893 1.903-2.262 2.373-1.873 2.373.268-.002.844.314 1.278.7.437.388.948 1.065 1.136 1.507l.344.804 4.705-4.635c-.796-1.647-1.27-2.29-1.568-2.49a4 4 0 0 0-1.101-.5M10.169 69.58c-.036.005-.435.457-.887 1.008-.578.707-.811 1.193-.783 1.623l.044.614c1.111-1.425 1.492-2.157 1.561-2.542.07-.386.099-.702.065-.703m48.377-5.259c-3.169 3.254-5.713 5.956-5.653 6.003s1.57.374 3.354.727c1.784.35 3.952.772 4.815.934l1.572.297c8.963-9.183 11.593-11.91 11.626-11.985.03-.071-.36-.201-.865-.29-.509-.087-2.76-.484-5.006-.88l-4.082-.724zm-96.125-3.401c-.084.002-.425.3-.756.658-.333.361-.777.653-.985.649-.207-.002-.553-.307-.765-.677-.357-.62-.405-.642-.623-.27-.15.255-.18.838-.08 1.591.086.656.44 1.727.785 2.38s1.287 1.848 2.09 2.65c1.126 1.127 1.916 1.681 3.46 2.427 1.101.532 1.806.968 1.569.97-.239 0-1.115-.329-1.947-.733-.833-.405-2.137-1.303-2.899-1.997-.761-.693-1.646-1.651-1.969-2.127-.322-.476-.793-1.423-1.049-2.109-.255-.683-.467-1.51-.471-1.839-.007-.577-.018-.582-.342-.163-.249.325-.298.704-.192 1.515.078.595.397 1.618.71 2.271.314.656 1.169 1.825 1.898 2.597.948 1.008 1.841 1.678 3.144 2.364 1.579.833 2.034.971 3.442 1.05l1.622.088 1.73-1.778c-1.256.006-1.84-.076-2.109-.175-.268-.102-.553-.32-.638-.487-.086-.178.12-.736.487-1.332.35-.564.637-1.074.638-1.136 0-.059-.219-.111-.487-.114-.268-.002-.876-.18-1.351-.399-.476-.218-1.353-.833-1.948-1.365-.595-.534-1.395-1.45-1.776-2.034-.383-.587-.772-1.383-.865-1.772-.095-.389-.24-.705-.323-.703m-3.584 8.12c-.197-.589-.234-.61-.387-.218-.113.286-.029.691.244 1.19.23.416.902 1.078 1.497 1.468.748.493 1.315.702 1.839.685.69-.024.71-.041.217-.19a8.6 8.6 0 0 1-1.19-.504c-.358-.188-.955-.665-1.327-1.063-.372-.396-.775-1.012-.893-1.369m50.949-.752c-.15.003-.684.587-1.19 1.298-.506.71-.872 1.39-.811 1.509.058.119.23.213.379.209.15-.003.683-.587 1.19-1.298.505-.71.869-1.389.81-1.508a.44.44 0 0 0-.378-.21m85.474-3.26c-.078.005-.272.305-.432.668l-.292.66c3.682 3.665 4.805 4.73 4.867 4.73.06-.005.275-.223.476-.487.361-.471.328-.522-2.055-3.029-1.332-1.4-2.484-2.544-2.564-2.541m-134.783 4.66c-1.027-1.001-1.08-1.027-.7-.348.228.404.68.94 1.005 1.19s.64.406.698.348c.058-.061-.393-.595-1.003-1.19m154.615-1.632c.12-.008.486.184.812.426.402.296.592.632.588 1.034-.003.326-.173.768-.378.98-.203.212-.567.386-.805.387-.238 0-.702-.2-1.028-.442-.346-.255-.592-.642-.59-.925 0-.268.077-.584.168-.705s.357-.338.591-.48c.233-.146.523-.269.642-.275m-107.02.226c-.73 0-.897.12-1.79 1.298l-.985 1.298c1.523.017 1.727-.108 2.473-1.018.467-.569.908-1.16.98-1.307.09-.193-.109-.27-.677-.27m-3.824-1.294-.898 1.291 1.406 2.407c.794-.941 1.305-1.532 1.649-1.92.342-.386.525-.752.406-.81-.12-.062-.543-.594-.94-1.184l-.725-1.078zm55.625.86c.445-.004 1.08.124 1.406.286s.669.478.76.703c.103.253.042.593-.163.896-.2.296-.643.537-1.138.62-.446.073-1.103.069-1.46-.011-.357-.078-.822-.307-1.034-.51s-.4-.587-.418-.85c-.022-.331.164-.58.601-.803.349-.177 1-.327 1.446-.331m54.869 1.506c-.275 0-.417.108-.355.27.057.15.258.368.446.486.19.12.424.146.519.057.095-.088.099-.307.011-.486-.089-.18-.368-.327-.621-.327M62.297 48.805c-.666 0-1.06.272-3.083 2.139-1.276 1.176-2.66 2.493-3.076 2.924-.417.432-.877.783-1.027.782-.15-.003-.27-.052-.27-.113 0-.059.51-.57 1.135-1.134a132 132 0 0 0 2.486-2.325c.741-.716 1.35-1.374 1.352-1.463 0-.088-.133-.138-.299-.108-.164.03-2.548 2.27-5.3 4.977l-5 4.92.109 10.244 2.254.465c.123-9.979.11-10.176-.307-10.388-.238-.123-.463-.415-.5-.649-.039-.246.308-.91.812-1.564.54-.699 1.044-1.136 1.31-1.136.238 0 .428.074.426.162-.004.089-.467.639-1.027 1.22-1.002 1.037-1.013 1.06-.541 1.299.437.218.699.032 2.92-2.092 1.342-1.283 3.78-3.57 5.417-5.084 1.636-1.51 2.974-2.823 2.975-2.914 0-.089-.346-.162-.766-.162M59.974 68.27c-.39 0-.855.147-1.032.325-.238.237-.25.324-.05.324.153 0 .254.121.224.27-.034.176.266.29.865.325.557.032.874-.03.81-.162-.06-.12.088-.217.326-.217.237 0 .432-.097.432-.216s-.195-.314-.432-.433c-.238-.118-.751-.216-1.143-.216m50.136-18.173c-.286.002-2.876 2.486-7.464 7.16l-7.026 7.157 5.112 5.049c11.212-11.234 14.463-14.544 14.459-14.603-.009-.065-1.054-1.16-2.325-2.437-1.44-1.447-2.485-2.328-2.756-2.326m-140.506-.84c-.417.016-1.196.113-1.73.217-.537.103-1.608.5-2.38.88-.779.383-1.89 1.18-2.494 1.788-.597.603-1.402 1.73-1.788 2.503-.385.774-.803 2.04-.928 2.812-.126.775-.162 1.748-.082 2.163.08.418.235 1.002.343 1.298l.202.541c1.715-1.76 1.924-1.864 2.635-1.802l.81.072c-.008-1.627.191-2.337.604-3.137.379-.733.983-1.466 1.576-1.911.528-.396 1.495-.87 2.15-1.051.973-.273 1.404-.288 2.38-.085.653.136 1.627.528 2.163.87.534.342 1.227.948 1.536 1.346.31.398.745 1.064.963 1.48.288.542.4 1.218.4 2.38 0 1.217-.112 1.838-.45 2.486a10.4 10.4 0 0 1-.982 1.515c-.294.357-1.06.915-1.704 1.238-.642.324-1.534.64-1.98.703-.783.11-.81.143-.766.925.03.571-.145 1.128-.595 1.876l-.64 1.067c3.98-.193 4.534-.31 5.624-.84.714-.345 1.809-1.144 2.434-1.772.68-.683 1.444-1.769 1.902-2.71.44-.895.871-2.217 1.012-3.083.186-1.137.184-1.863-.004-2.92-.139-.773-.61-2.135-1.05-3.029-.506-1.025-1.243-2.066-2.007-2.828-.703-.703-1.791-1.49-2.611-1.89-.774-.379-1.942-.785-2.596-.907-.655-.12-1.531-.21-1.947-.194m145.65 19.225c-.149.002-.268.078-.263.166.005.09.247.334.541.541.371.264.535.296.538.109.002-.15-.122-.395-.271-.546-.151-.149-.395-.272-.545-.27M57.879 54.578l-5.445 5.367.135 9.216 11.14-11.487-.386-8.463zM13.956 56.86c1.04.048 1.784.247 2.866.764.802.383 1.957 1.16 2.567 1.724.608.564 1.388 1.588 1.732 2.271.341.684.681 1.61.753 2.056.069.446.02 1.224-.109 1.73-.132.507-.554 1.269-.941 1.695-.493.545-1.058.875-1.893 1.111-1.003.283-1.408.294-2.596.071-.774-.147-1.845-.488-2.38-.76-.536-.273-1.492-.972-2.128-1.55-.718-.652-1.396-1.546-1.787-2.35-.346-.714-.69-1.689-.762-2.165-.078-.504-.012-1.226.154-1.73.158-.476.534-1.15.837-1.497.3-.349.94-.814 1.415-1.035.632-.294 1.244-.384 2.272-.335m97.993 2.771c-.061-.002-1.374 1.263-2.921 2.81-2.222 2.225-2.706 2.812-2.321 2.812.268 0 .882.364 1.367.81.482.447.995 1.129 1.136 1.518l.255.705c4.312-4.315 5.3-5.466 5.293-5.739-.004-.238-.222-.803-.486-1.255a3.4 3.4 0 0 0-1.346-1.24c-.475-.23-.913-.418-.977-.421m-85.98 7.354c-.364 0-.572.15-.665.486-.075.266-.034.584.091.703.154.145.372.075.673-.217.244-.238.44-.556.436-.703-.004-.149-.244-.27-.536-.27m-12.483-7.098c-.556-.098-1.432-.115-1.947-.041s-1.058.201-1.207.28c-.15.077-.27.386-.27.683 0 .299.188 1.05.417 1.675.249.682.879 1.643 1.568 2.402.736.809 1.618 1.495 2.449 1.904 1.031.51 1.621.65 2.876.684 1.192.03 1.628-.037 1.795-.283.12-.178.18-.812.13-1.407-.053-.636-.347-1.562-.714-2.248-.344-.642-.978-1.47-1.41-1.839-.43-.37-1.21-.889-1.732-1.153a8.5 8.5 0 0 0-1.955-.657m-147.583-4.371c-.683 0-1.055.124-1.352.455-.298.329-.4.733-.368 1.46.028.649.312 1.543.801 2.52.418.833 1.162 2.001 1.657 2.596.493.595 1.448 1.549 2.118 2.12.673.571 1.806 1.324 2.52 1.67.809.394 1.663.637 2.271.648.621.008 1.16-.127 1.489-.373.411-.31.513-.587.508-1.36-.002-.537-.166-1.364-.363-1.84s-.5-1.085-.671-1.351l-.313-.488c-.921 1.053-1.384 1.436-1.622 1.53s-.823.071-1.299-.052c-.586-.15-1.216-.582-1.951-1.337-.595-.614-1.216-1.504-1.378-1.98-.162-.475-.234-1.133-.16-1.46.075-.328.307-.648.514-.711.208-.065.5-.308.65-.541.246-.39.17-.47-.92-.965-.686-.314-1.588-.541-2.131-.541m252.383 8.431c.251-.092.727-.058 1.077.079.344.134.789.506.988.826.307.488.323.67.096 1.135-.149.305-.524.675-.831.825-.48.231-.678.207-1.352-.163-.649-.354-.803-.57-.85-1.19-.033-.415.05-.888.179-1.05.132-.163.444-.37.693-.462m-152.41-3.985c-.776-.329-.807-.325-.811.095-.002.24-.175.497-.383.571s-.597.026-.865-.108c-.432-.217-.486-.19-.484.242 0 .268.228.973.507 1.568.28.595.935 1.508 1.458 2.028.524.519 1.342 1.17 1.818 1.445.476.274 1.149.58 1.497.677.599.168.625.149.474-.364-.117-.389-.052-.646.23-.925.217-.212.566-.383.773-.38.208.005.381-.064.381-.155.002-.089-.282-.6-.63-1.135-.346-.535-.858-1.229-1.137-1.54a10 10 0 0 0-1.263-1.123 9.5 9.5 0 0 0-1.565-.896m97.62 3.992c.242.005.214.087-.108.326-.237.177-.505.32-.594.319-.09-.002-.163.093-.163.212 0 .118.145.215.325.215.192 0 .28.133.215.326-.084.252.086.324.758.324.7 0 .835-.064.703-.33-.127-.257-.056-.304.325-.215.267.062.488.038.49-.05s-.12-.286-.27-.437c-.151-.15-.177-.273-.058-.273s.34.124.49.273c.15.151.274.493.271.761-.002.297-.238.63-.6.851-.408.249-.906.333-1.596.27-.596-.056-1.187-.269-1.467-.526-.255-.238-.475-.603-.488-.813-.01-.221.293-.564.712-.81.402-.237.876-.427 1.056-.423M14.28 57.586c-.798-.076-1.562-.02-1.986.143-.379.147-.736.33-.794.405-.057.075.3.045.796-.068.499-.114 1.22-.127 1.618-.03.393.098.686.273.649.392s-.312.227-.607.242c-.299.013-.93.05-1.407.08-.752.048-.684.08.54.25.831.114 1.974.48 2.791.893a8.6 8.6 0 0 1 2.45 1.888c.6.671 1.248 1.685 1.481 2.325.23.626.427 1.452.436 1.84.017.693.023.689.529-.38.344-.726.472-1.293.39-1.73-.065-.357-.335-1.136-.597-1.73-.264-.595-.97-1.569-1.569-2.163-.6-.595-1.616-1.343-2.256-1.66a8 8 0 0 0-2.464-.697m104.122 7.432c-.084.004-.206.105-.271.224-.064.12.053.413.26.656.208.242.5.437.65.432.149-.004.335-.127.413-.276.08-.154-.083-.438-.379-.658-.287-.214-.59-.384-.673-.378m.649-.867c-.084.005-.195.083-.247.171-.054.09.187.432.531.758.557.53.64.553.767.216.095-.257-.026-.504-.378-.766-.287-.213-.59-.384-.673-.379M6.001 63.097c-.09.004-.478.444-.866.973-.387.53-.77 1.135-.852 1.343s.186.037.596-.378c.411-.417.922-.854 1.138-.973.242-.135.344-.36.269-.596-.067-.207-.197-.373-.285-.37m-185.777-10.508c-.714-.054-1.59.01-1.947.143-.357.131-.919.496-1.25.807s-.755.958-.941 1.434c-.249.63-.31 1.303-.228 2.488.089 1.268.277 1.951.865 3.137a8.7 8.7 0 0 0 1.908 2.574c.639.582 1.647 1.288 2.242 1.563.595.276 1.519.566 2.055.644.534.078 1.339.08 1.784.006.476-.08 1.148-.44 1.624-.865.445-.4.943-1.106 1.105-1.569.19-.536.263-1.426.205-2.462-.067-1.224-.244-1.942-.72-2.92-.348-.718-1.166-1.835-1.828-2.497-.657-.657-1.733-1.464-2.387-1.793a6.9 6.9 0 0 0-2.487-.69M4.189 62.313c-.234-.07-.664.274-1.27 1.011-.503.614-.905 1.202-.891 1.305.013.104.244.232.513.286.268.054.632.155.811.227.22.088.654-.29 1.353-1.179l1.027-1.309c-.921-.184-1.348-.283-1.543-.341m97.397-.532c.388 0 .844.21 1.175.54.296.299.541.76.543 1.029 0 .268-.145.704-.324.972-.236.35-.539.488-1.084.488a1.73 1.73 0 0 1-1.298-.541c-.298-.297-.551-.723-.562-.946-.013-.22.188-.66.445-.973q.47-.57 1.105-.569m-131.873-7.343c-.742.006-1.578.157-1.948.352-.357.188-.926.6-1.264.911-.339.314-.8.934-1.027 1.382-.227.446-.415.98-.418 1.19-.004.258.394.546 1.244.903.88.37 1.699.975 2.774 2.055.84.841 1.704 1.921 1.923 2.397.216.475.406.892.42.928.015.034.365-.072.783-.239.415-.164 1.123-.705 1.568-1.198a5.5 5.5 0 0 0 1.162-2.141c.303-1.075.314-1.409.072-2.434-.156-.655-.582-1.58-.948-2.056-.383-.497-1.175-1.123-1.856-1.465-.917-.462-1.482-.594-2.486-.585m131.665 8.424c-.106 0-.3.147-.432.325-.177.24-.171.411.03.658.15.183.49.33.758.324.268-.004.534-.106.595-.225s-.088-.411-.326-.649c-.237-.238-.518-.432-.625-.433M-77.464 52.26c-1.002.004-1.49.123-2.056.502-.409.272-.867.736-1.02 1.028-.173.331-.253 1.103-.212 2.046.047 1.054.226 1.844.59 2.597.29.595 1.03 1.616 1.646 2.271a8.2 8.2 0 0 0 2.499 1.827c.989.459 1.718.642 2.57.646.855.006 1.42-.128 2.001-.477.606-.36.903-.744 1.173-1.51a4.24 4.24 0 0 0 .216-2.109c-.078-.595-.378-1.568-.668-2.163-.292-.595-.95-1.555-1.463-2.133-.61-.683-1.46-1.306-2.45-1.789-1.226-.599-1.764-.74-2.826-.736m179.252 9.952c-.202.002-.078.202.324.526.412.333.679.43.731.27.044-.137-.101-.376-.324-.527-.225-.15-.554-.27-.731-.269m-281.16-7.139c.87-.004 1.338.14 2.14.65.565.357 1.365 1.114 1.778 1.678.411.565.862 1.514 1.002 2.109.188.81.191 1.286.007 1.893-.158.524-.494.97-.948 1.257-.528.333-.971.425-1.784.368-.746-.052-1.379-.273-2.045-.714-.528-.353-1.266-1.03-1.638-1.505-.376-.48-.802-1.396-.96-2.056-.164-.692-.216-1.462-.123-1.839.089-.357.454-.917.811-1.244.53-.487.852-.594 1.76-.597m246.903 5.195c.41 0 .676.092.616.215-.06.12-.302.217-.54.217s-.58.05-.758.109c-.18.06-.324.205-.324.324s.219.225.486.233c.268.009.366.059.217.109-.15.05-.27.188-.27.307.001.119.34.216.756.216.527 0 .758-.097.758-.324q.003-.323.378-.195c.309.103.349.042.217-.325-.128-.358-.082-.443.216-.398.257.037.397.282.433.758.048.624-.035.738-.757 1.045-.532.225-1.072.294-1.569.2-.417-.08-.975-.283-1.244-.451-.268-.171-.495-.498-.508-.728-.01-.23.249-.619.575-.865.327-.246.92-.447 1.318-.447m49.454-5.068c-.411-.13-.823.175-2.65 1.973l-2.164 2.129c1.255.523 1.831.961 2.088 1.311.258.349.574.902.703 1.23l.236.596c3.394-3.492 4.104-4.388 4.106-4.706.002-.268-.143-.778-.32-1.135-.18-.357-.593-.783-.92-.947a9 9 0 0 0-1.079-.45m-243.562-1.244c-1.297 1.28-2.944 2.845-3.658 3.477l-1.299 1.148c.396 1.225.884 1.976 1.338 2.456s1.168.991 1.583 1.136l.757.26 7.012-7.03c-1.411-.852-2.074-1.436-2.386-1.847-.311-.413-.663-1.015-.777-1.34l-.209-.588zm-53.701 2.634c-.337 0-.694.065-.794.145-.099.077-.164.225-.144.325.021.099.256.181.523.183.269.003.876.234 1.352.515.475.279 1.118.837 1.427 1.237.31.403.726 1.048.92 1.435.197.387.357.948.357 1.244 0 .298.079.541.174.541s.292-.122.436-.27c.145-.15.26-.466.258-.704-.004-.238-.234-.92-.511-1.514-.279-.595-.911-1.447-1.404-1.893-.495-.445-1.144-.909-1.44-1.028a3.7 3.7 0 0 0-1.154-.216m-.415 1.291c-.268.004-.487.105-.487.224.002.12.412.435.911.703.502.268 1.14.826 1.419 1.243.277.417.565 1.001.637 1.298.071.298.235.613.365.699.132.089.312.162.4.162.089.001.162-.19.162-.428 0-.237-.219-.89-.487-1.445-.294-.612-.872-1.3-1.46-1.737-.536-.398-1.191-.723-1.46-.719m234.974.915c.328.048.47.245.513.714.034.368-.13.955-.38 1.352-.257.413-.616.703-.87.704-.337 0-.432-.146-.432-.65 0-.357.16-.995.357-1.417.268-.573.474-.753.812-.703m-234.338.818c-.393-.227-.709-.32-.703-.206.007.118.442.675.965 1.239.523.563 1.01.953 1.082.865.071-.089-.042-.46-.249-.822-.208-.364-.701-.846-1.095-1.076m103.313-5.607c.388-.006 1.07.138 1.515.322.446.184 1.23.745 1.737 1.244.552.541 1.099 1.37 1.352 2.044.234.625.427 1.38.427 1.677 0 .299-.122.787-.27 1.09-.15.3-.614.701-1.03.89q-.756.339-1.513.192c-.417-.082-1.147-.372-1.623-.645-.476-.272-1.144-.824-1.486-1.226a9.5 9.5 0 0 1-1.027-1.545c-.225-.446-.407-1.224-.41-1.73 0-.507.157-1.146.347-1.422.193-.277.558-.586.813-.69.256-.102.781-.192 1.168-.201m182.642 4.313c.238 0 .675.245.974.541.296.299.538.712.534.92-.003.207-.174.551-.379.763-.203.212-.64.383-.967.379s-.789-.202-1.027-.44c-.238-.237-.433-.627-.433-.865s.195-.627.433-.865.627-.433.865-.433m-284.969-2.597c-.326 0-.594.052-.594.11.004.06.465.34 1.027.62.564.282 1.344.866 1.731 1.298.388.433.898 1.176 1.136 1.651s.43 1.037.428 1.245c-.002.302.052.323.27.107.223-.218.219-.448-.012-1.19a8.5 8.5 0 0 0-.812-1.73c-.288-.445-.986-1.106-1.551-1.463-.564-.359-1.296-.65-1.623-.648m101.592-.103c-.49-.106-.688-.066-.708.14-.014.159.34.499.79.754.448.255 1.136.792 1.527 1.19.39.398.89 1.211 1.11 1.806.29.785.524 1.098.857 1.137.376.045.458-.062.458-.596 0-.357-.16-.964-.356-1.352-.2-.387-.563-.98-.812-1.32-.25-.337-.843-.839-1.32-1.113-.475-.275-1.171-.566-1.546-.646m-.413 1.618c-.283 0-.294.077-.07.488.148.268.715.952 1.258 1.522.542.569 1.109 1.032 1.258 1.029.192-.007.156-.242-.133-.82-.223-.446-.76-1.128-1.191-1.516-.432-.386-.935-.702-1.122-.703m183.557 2.16c-.07.002-.191.078-.271.167-.078.088-.022.287.127.441.147.155.39.277.539.27.149-.004.272-.082.275-.17.002-.089-.121-.286-.27-.438-.151-.149-.331-.272-.4-.27m-182.18-4.688c-.717-.093-.986-.059-.919.116.052.136.266.247.474.247.208-.001.818.273 1.352.61.537.338 1.262.995 1.614 1.463.353.467.8 1.288.995 1.824.258.709.4.884.524.648.093-.177.107-.617.034-.973-.071-.357-.426-1.112-.783-1.676-.359-.564-1.018-1.274-1.464-1.577s-1.268-.61-1.826-.682m133.662 1.23c.16.001.352.22.428.488.084.3-.024.776-.283 1.243-.255.462-.582.757-.84.758-.35 0-.41-.135-.365-.816.03-.45.214-1.01.41-1.244.195-.236.488-.428.65-.428m-51.887.095c-.341-.447-.352-.443-.897.433-.305.487-.487.954-.402 1.036.082.084.538.219 1.014.299.778.134.882.097 1.05-.368.133-.366.1-.575-.118-.729-.167-.119-.459-.422-.647-.67m103.807-2.04c.16 0 .34.096.4.215.058.119-.039.217-.215.217-.18 0-.327.073-.332.162 0 .09.265.305.595.477.331.174.747.321.924.326.175.004.346.179.379.386.03.208-.189.624-.485.92-.409.409-.687.51-1.136.417-.327-.069-.815-.337-1.088-.594-.27-.26-.497-.732-.506-1.052-.011-.39.179-.725.579-1.028.327-.246.725-.446.885-.447m-.292 1.29c-.143.005-.329.128-.413.278-.09.16.061.425.368.65.422.309.575.331.796.108.225-.22.203-.346-.108-.657-.21-.212-.5-.383-.643-.379m-48.874-2.096c.134.046.273.414.311.822.044.47-.073.93-.324 1.262-.266.35-.517.472-.772.378-.232-.087-.388-.386-.4-.764-.013-.35.186-.87.46-1.198.266-.32.593-.546.725-.5m-182.904-1.14c-.219-.416-.402-.634-.407-.485-.006.149.123.538.288.865.162.327.625.893 1.028 1.257.4.365.973.735 1.269.826.299.088.582.106.632.039.049-.067-.074-.121-.27-.121-.199 0-.762-.365-1.253-.81-.489-.446-1.071-1.155-1.287-1.57m1.302-2.162c-.302 0-.687.117-.854.26-.167.142-.284.458-.258.703.024.244.262.8.53 1.237.266.437.729.991 1.026 1.232.298.24.863.514 1.259.609.544.134.763.1.915-.147.11-.18.201-.617.201-.973.002-.357-.19-.966-.428-1.353s-.749-.898-1.136-1.136-.952-.432-1.255-.432M62.253 50.97c.207-.004.425.188.486.426.058.238-.026.7-.19 1.027-.165.327-.456.717-.649.866-.242.186-.45.203-.675.054s-.282-.399-.183-.812c.078-.326.297-.81.488-1.075.188-.264.515-.482.722-.486M-127.746 1.12c.431-.304.83-.358 1.948-.27a7.3 7.3 0 0 1 2.704.758c.887.439 1.811 1.183 2.921 2.35.893.938 1.938 2.236 2.323 2.883.385.649.911 2.005 1.171 3.017.422 1.65.438 1.915.164 2.584-.175.426-1.225 1.599-2.469 2.756-1.799 1.676-2.308 2.034-3.028 2.133-.476.065-1.352-.015-3.028-.474l-2.921 2.68a4701 4701 0 0 0-6.021 5.532c-1.706 1.568-3.361 3.023-3.678 3.23-.32.21-.988.379-1.497.379-.506.002-1.284-.152-1.73-.34a8.2 8.2 0 0 1-1.569-.94c-.415-.33-1.066-1.076-1.445-1.66-.378-.583-.805-1.547-.948-2.142-.205-.854-.203-1.263.014-1.947.197-.625.754-1.315 2.013-2.488a550 550 0 0 1 2.453-2.271c.392-.357 1.312-1.184 2.043-1.84.734-.655 1.88-1.686 2.548-2.294.671-.61 1.803-1.63 3.815-3.423l-.08-1.848c-.059-1.332.01-2.024.242-2.494.177-.357 1.041-1.289 1.919-2.072.878-.78 1.84-1.592 2.136-1.8m-50.297-.28c.778.035 1.687.242 2.271.521.537.256 1.746 1.13 2.691 1.939.978.841 2.157 2.126 2.744 2.99.603.886 1.305 2.321 1.694 3.461.365 1.07.663 2.165.661 2.434 0 .268-.136.754-.298 1.08s-1.259 1.507-2.433 2.62c-1.175 1.115-2.332 2.166-2.571 2.338-.35.253-.658.268-1.623.08-.653-.126-1.482-.377-1.839-.555-.607-.305-.683-.293-1.189.165-.296.27-.835.783-1.194 1.14s-1.764 1.67-3.122 2.92c-1.359 1.25-3.206 2.947-4.108 3.771-.9.824-1.928 1.777-2.285 2.116s-.941.673-1.298.74-.989.053-1.406-.029c-.415-.082-.999-.276-1.298-.43-.296-.153-1.069-.803-1.716-1.439-.685-.677-1.394-1.654-1.706-2.348-.409-.911-.513-1.457-.448-2.325.08-1.063.167-1.213 1.387-2.379a162 162 0 0 1 3.113-2.869c.995-.893 2.126-1.914 2.514-2.271s1.274-1.156 1.97-1.776c.697-.62 1.736-1.545 3.343-2.983l-.254-1.19c-.138-.656-.192-1.654-.116-2.218q.133-1.028.837-1.934c.387-.497 1.036-1.205 1.445-1.568a18 18 0 0 1 1.577-1.223c.459-.307.954-.623 1.097-.696.145-.076.846-.112 1.56-.082M23.961 1.864c.581-.004 1.426.175 1.947.415.506.234 1.389.892 1.962 1.46.664.66 1.194 1.45 1.46 2.172.229.625.42 1.405.42 1.732.002.326-.17 1.077-.38 1.668-.34.956-1.365 2.04-9.422 9.95-6.572 6.456-9.26 8.957-9.844 9.167-.452.162-1.27.242-1.882.188-.595-.054-1.471-.294-1.947-.532-.476-.24-1.262-.859-1.746-1.378-.485-.519-1.014-1.334-1.177-1.81-.162-.476-.291-1.353-.287-1.948.007-.599.183-1.419.397-1.838.216-.42 4.391-4.787 9.282-9.708 4.889-4.923 9.183-9.082 9.54-9.24.357-.16 1.112-.293 1.677-.298m38.67 1.092c.417-.008 1.39.087 2.162.212.775.126 2.139.472 3.03.769.893.296 2.256.912 3.028 1.369a25 25 0 0 1 2.676 1.88c.697.577 1.785 1.685 2.417 2.458.63.772 1.543 2.232 2.027 3.245.487 1.012.99 2.423 1.122 3.137.132.713.198 1.98.146 2.812-.054.833-.288 1.95-.524 2.487-.233.535-.98 1.73-1.657 2.65-.677.922-1.694 2.012-2.259 2.423-.564.41-1.709.966-2.542 1.234-1.17.376-1.981.482-3.569.463-1.276-.015-2.67-.186-3.678-.45-.891-.234-2.255-.742-3.029-1.127a25 25 0 0 1-2.704-1.617c-.714-.502-1.958-1.635-2.765-2.515-.835-.913-1.82-2.298-2.297-3.224-.458-.893-1.012-2.159-1.233-2.812-.277-.822-.398-1.792-.39-3.137.009-1.696.096-2.13.663-3.354.359-.772.995-1.942 1.414-2.595.42-.656 1.19-1.573 1.711-2.042.524-.47 1.389-1.041 1.923-1.273.537-.231 1.559-.546 2.273-.698.714-.153 1.64-.286 2.054-.295M-193.599 20.2c-.484-.09-.79.03-1.358.529-.567.5-.731.813-.727 1.381.004.403.214 1.148.467 1.654.255.506.822 1.358 1.263 1.892.45.548 1.311 1.235 1.971 1.57.645.33 1.368.602 1.606.604s.7-.192 1.027-.434c.506-.375.595-.595.591-1.47-.005-.754-.198-1.368-.73-2.324-.398-.714-1.102-1.595-1.563-1.958a20 20 0 0 0-1.381-.993 4 4 0 0 0-1.166-.45m198.272.913c-.125 0-.337.189-.47.42s-.233.91-.222 1.514c.01.614.201 1.45.433 1.906.227.446.74 1.123 1.135 1.504.398.38 1.089.844 1.535 1.027.445.184 1.224.335 1.73.335.571 0 1.207-.181 1.677-.475l.757-.474c-1.846-.281-2.77-.59-3.246-.87-.475-.277-1.18-.858-1.568-1.289-.387-.432-.839-1.053-1.006-1.38-.166-.326-.355-.96-.416-1.406-.062-.445-.213-.81-.339-.812m-147.067-.865a.47.47 0 0 0-.379.216c-.065.119.123.217.422.217.296 0 .809.136 1.136.302s1.105.847 1.73 1.515c.625.666 1.135 1.332 1.136 1.482.002.149-.461-.258-1.027-.903-.565-.644-1.417-1.349-1.893-1.563s-1.201-.392-1.612-.397c-.439-.002-.837.135-.967.331-.121.184-.199.721-.173 1.19.026.47.243 1.245.481 1.72.238.476.797 1.27 1.243 1.766.445.493 1.2 1.075 1.676 1.293.476.216 1.232.396 1.677.398.528.003.963-.147 1.244-.428.348-.348.407-.61.305-1.352-.071-.506-.361-1.406-.645-2-.285-.596-.932-1.487-1.44-1.98-.508-.495-1.313-1.104-1.789-1.353-.476-.25-.982-.454-1.125-.454m58.672-18.577c.714-.017 2.856.111 4.76.284s3.671.391 3.926.487c.256.093 1.12.9 1.92 1.793.802.892 2.063 2.401 2.803 3.353s1.605 2.12 2.496 3.462l-.233 3.028c-.13 1.666-.301 3.92-.381 5.008-.117 1.56-.242 2.088-.595 2.488-.249.28-1.26 1.435-2.25 2.564a331 331 0 0 0-1.931 2.216c-.072.088-1.202.307-2.51.482-1.31.177-3.72.398-8.33.655l-8.871-8.87.02-4.002c.01-2.202.084-4.456.164-5.012.132-.937.374-1.254 3.324-4.369 2.336-2.463 3.345-3.38 3.787-3.445.333-.05 1.187-.105 1.9-.122m137.19 10.57c-.083.654-.055 1.725.06 2.38.114.653.296 1.482.402 1.84.106.356.461 1.182.79 1.838.329.653.867 1.579 1.2 2.055.331.476 1.27 1.508 2.086 2.294.818.785 2.069 1.799 2.783 2.255.713.455 2.028 1.093 2.92 1.417.893.325 2.378.697 3.3.827 1.13.16 2.152.17 3.136.03.805-.115 1.9-.363 2.434-.554.536-.19 1.291-.534 1.676-.765.386-.231.678-.468.65-.528s-.445.047-.92.24c-.476.192-1.45.433-2.163.535-.764.11-2.075.098-3.192-.025-1.146-.127-2.637-.487-3.788-.913-1.042-.387-2.468-1.045-3.169-1.46-.698-.417-1.973-1.439-2.828-2.271-.856-.833-1.979-2.149-2.496-2.921-.517-.775-1.181-1.943-1.475-2.596-.295-.655-.697-2.018-.896-3.028l-.361-1.84zM118.877.357c.179-.007.666.077 1.082.187s1.267.598 1.892 1.082c.64.495 1.337 1.279 1.599 1.798.255.506.467 1.261.471 1.677.005.441-.2 1.073-.992 2.271l1.14 2.704-.448.595c-.39.517-.418.71-.223 1.46.177.681.16.96-.082 1.299-.172.239-1.265 1.444-4.547 4.924l-4.976.166-1.569 1.512c-.862.83-1.567 1.557-1.568 1.619-.003.063-.609.722-1.352 1.466-.744.749-1.86 1.94-2.481 2.65-1.103 1.26-1.158 1.294-2.38 1.376-.987.067-1.502-.028-2.441-.446-.655-.292-1.607-.962-2.12-1.49-.655-.679-1.025-1.309-1.26-2.15-.2-.714-.27-1.45-.18-1.84.085-.356.766-1.33 1.517-2.163.748-.833 2.297-2.488 3.441-3.678s2.382-2.552 3.427-3.893l-.93-3.354.746-.919c.411-.506 1.385-1.577 2.163-2.38.779-.802 1.49-1.412 1.579-1.356.089.058.674-.48 1.299-1.19.625-.712 1.306-1.293 1.514-1.294.208 0 .889.195 1.514.433.626.238 1.307.434 1.515.438.208.002.608-.255.887-.573.281-.318.718-.655.973-.748.256-.095.612-.177.79-.183m-149.11.205c.506-.003 1.43.106 2.056.24.625.134 1.816.584 2.65 1.002 1.057.53 2.005 1.256 3.14 2.405.896.907 1.89 2.136 2.212 2.73.32.596.727 1.763.904 2.596.232 1.097.264 1.783.12 2.489-.12.57-.548 1.42-1.039 2.054-.46.595-1.169 1.229-1.573 1.407-.426.188-1.283.31-2.033.292-.714-.018-1.688-.173-2.164-.346-.829-.3-.9-.29-1.703.248-.46.31-.973.831-1.135 1.158-.165.327-.641.765-1.06.973s-.76.476-.758.595c0 .12-.946 1.144-2.104 2.272-1.16 1.129-2.28 2.322-2.489 2.65-.207.326-.646.687-.973.802-.327.112-.766.455-.974.758-.207.302-.694.707-1.08.9-.388.194-1.288.374-2.002.4s-2.068.134-4.722.44l.172-1.407a35 35 0 0 0 .206-2.921c.023-1.06.154-1.709.437-2.163.223-.357.536-.723.696-.812s.441-.528.627-.973c.184-.446.55-1.032.812-1.305.26-.27.571-.486.69-.48.12.006.46-.353.757-.8.299-.448.844-1.01 1.214-1.25s.775-.68.902-.979c.126-.296.521-.736.878-.973.36-.239.95-.846 1.316-1.352s.91-1.017 1.207-1.136c.439-.175.564-.407.662-1.244.069-.573.012-1.313-.128-1.677-.136-.357-.255-1.183-.264-1.838-.008-.673.13-1.474.319-1.84.184-.356.612-.981.954-1.388s1.01-.918 1.486-1.132 1.278-.393 1.784-.395m-40.037 20.984c-1.709.054-2.546.102-2.962.14-.418.04-1.973.178-3.457.305l-2.7.235c-1.176 1.401-2.005 2.32-2.602 2.946-.596.627-1.004 1.21-.907 1.298.098.088 1.704.03 3.57-.128s3.854-.378 4.42-.486c.843-.163 1.213-.401 2.07-1.335a65 65 0 0 0 1.806-2.056zm172.324-3.44c-.09.015-.77.695-1.513 1.514-.974 1.075-1.353 1.66-1.351 2.088 0 .327.227 1.082.504 1.677.275.595.835 1.365 1.242 1.709.407.346 1.056.76 1.443.92.388.16 1.167.292 1.731.294.99.002 1.077-.052 2.396-1.46l1.368-1.463c-1.283-.188-1.997-.424-2.413-.647-.417-.223-1.185-.848-1.71-1.393-.524-.543-1.084-1.304-1.245-1.692-.16-.387-.29-.897-.29-1.135s-.073-.422-.162-.412m-189.566-3.912c-.06.01-1.01.986-2.11 2.17-1.098 1.183-1.995 2.224-1.992 2.316.007.09 1.248 1.409 2.76 2.928 1.511 1.523 3.26 3.205 3.884 3.733l1.136.965 3.677-4.327c-4.441-4.613-6.072-6.367-6.49-6.875-.415-.51-.804-.92-.865-.91m93.708 5.189c-.102 0-.363.177-.58.395-.242.243-.38.665-.357 1.082.022.377.191 1.052.38 1.498.185.445.652 1.2 1.04 1.676.386.476 1.232 1.133 1.88 1.462.767.392 1.512.598 2.148.598.534 0 1.191-.148 1.46-.327s.487-.4.485-.49c-.002-.088-.44-.185-.974-.215s-1.434-.284-1.999-.568c-.564-.281-1.343-.865-1.73-1.298a9 9 0 0 1-1.136-1.65c-.238-.476-.433-1.158-.433-1.515 0-.356-.083-.648-.184-.648m-146.742.025c-.441-.101-.945-.099-1.136.005-.273.147-.109.311.78.78.619.327 1.597 1.082 2.172 1.677s1.288 1.57 1.582 2.164.534 1.3.532 1.569c-.002.285.11.455.268.415.149-.04.359-.308.47-.595.142-.379.084-.825-.21-1.605-.223-.596-.775-1.545-1.227-2.11-.45-.564-1.183-1.272-1.629-1.57-.445-.3-1.167-.628-1.602-.73m-52.174-.242c-.279 0-.571.05-.65.108-.079.061.345.377.942.704s1.497.997 2.001 1.488c.504.49 1.228 1.464 1.611 2.163s.699 1.488.703 1.757c.002.268.104.487.223.487s.315-.195.433-.433c.119-.238.153-.701.078-1.028-.078-.327-.359-1.032-.625-1.568-.267-.535-.982-1.437-1.592-2.001-.608-.565-1.448-1.173-1.863-1.353-.418-.177-.984-.324-1.261-.324m149.643 5.408c-.638-.644-.748-.691-.744-.324.002.238-.043.652-.1.92-.094.432-.02.486.652.486.415 0 .797-.073.85-.162.051-.089-.245-.502-.658-.92m.171-4.759c-.1 0-.342.292-.54.649-.202.357-.364.894-.364 1.19 0 .299.139.81.308 1.136.168.327.679.952 1.135 1.387.455.437 1.218.912 1.694 1.06.71.22.997.214 1.596-.035.403-.166.814-.4.913-.52.112-.133-.199-.34-.824-.54-.553-.178-1.44-.714-1.97-1.19s-1.145-1.23-1.368-1.677c-.22-.445-.402-.956-.402-1.135 0-.178-.08-.324-.178-.325M63.713 3.951a12.7 12.7 0 0 0-2.38.07c-.656.093-1.63.331-2.163.528-.537.197-1.317.618-1.732.936-.417.318-.932.775-1.148 1.015-.217.243-.63.926-.922 1.52-.29.595-.59 1.617-.666 2.272-.078.662-.024 1.815.12 2.596.15.805.695 2.283 1.277 3.453.736 1.484 1.433 2.49 2.53 3.654.832.885 2.098 2.003 2.812 2.486.714.48 2.003 1.196 2.866 1.59.954.434 2.395.856 3.678 1.075 1.726.294 2.403.318 3.731.126.892-.13 2.086-.44 2.65-.687s1.43-.813 1.92-1.259 1.135-1.297 1.431-1.892c.357-.716.578-1.595.652-2.597.082-1.131-.009-1.98-.357-3.352a11.9 11.9 0 0 0-1.41-3.354c-.518-.833-1.463-2.087-2.103-2.788-.639-.701-1.745-1.687-2.458-2.192a24 24 0 0 0-2.65-1.592c-.744-.372-2.058-.86-2.92-1.09-.864-.23-2.105-.461-2.759-.518M-139.88 18.297c-.426.002-.842.077-.92.166-.08.089.343.381.937.65.595.268 1.623.996 2.284 1.622.662.625 1.443 1.622 1.733 2.217.292.595.526 1.326.519 1.622-.01.487.022.51.331.217.189-.177.338-.617.33-.974-.007-.357-.189-1.038-.403-1.514-.212-.476-.77-1.289-1.237-1.806-.47-.517-1.292-1.227-1.826-1.573-.623-.405-1.253-.63-1.748-.627m-51.61-.425c-.253-.002-.571.143-.703.32-.188.254-.157.35.139.444.208.067.807.336 1.33.596.523.261 1.439 1.011 2.034 1.665s1.261 1.603 1.482 2.109c.22.506.4 1.114.4 1.352s.098.433.217.433.263-.145.324-.324c.058-.178.108-.593.105-.92-.002-.327-.231-1.082-.512-1.677-.284-.595-.987-1.555-1.569-2.135-.579-.58-1.443-1.235-1.919-1.456-.475-.22-1.072-.402-1.328-.407m198.939.059c-.379.38-.492.716-.457 1.356.026.47.221 1.242.435 1.718s.722 1.207 1.131 1.625 1.18.975 1.716 1.241a4.95 4.95 0 0 0 2.056.486c.612.002 1.293-.137 1.568-.32.268-.18.486-.401.486-.49s-.364-.184-.811-.21c-.446-.026-1.177-.196-1.622-.378s-1.212-.697-1.698-1.142c-.49-.446-1.067-1.103-1.288-1.46-.218-.357-.537-1.162-.708-1.79l-.306-1.142zm-146.194-.712c-.337 0-.694.066-.794.143-.099.08-.163.227-.144.325.02.099.181.181.36.181.178 0 .641.16 1.029.36.387.197 1.272.902 1.968 1.568.697.664 1.417 1.502 1.601 1.858s.441 1.006.571 1.443c.24.79.243.792.593.325.327-.437.32-.552-.1-1.66-.287-.758-.884-1.65-1.65-2.461-.66-.699-1.564-1.454-2.01-1.677s-1.088-.405-1.424-.405m-51.351-.22c-.441.001-.855.101-.92.22s.076.217.314.217c.239 0 .993.424 1.676.941.684.52 1.634 1.466 2.11 2.107.475.64 1.026 1.652 1.218 2.25.333 1.014.37 1.053.595.597.134-.268.242-.682.242-.92s-.158-.748-.35-1.136c-.193-.387-.71-1.19-1.149-1.785-.441-.594-1.283-1.4-1.869-1.789-.731-.484-1.32-.707-1.867-.703m149.136.437c-.1 0-.41.225-.69.5-.386.378-.502.711-.474 1.351.023.524.29 1.248.692 1.88.357.565 1.04 1.27 1.517 1.568.475.297 1.23.629 1.675.737.638.153.95.114 1.461-.182.357-.205.794-.544.974-.745.296-.337.272-.369-.27-.36-.327.006-1.05-.209-1.604-.477s-1.285-.802-1.622-1.19a9 9 0 0 1-1.047-1.568c-.238-.476-.434-1.013-.434-1.19 0-.18-.08-.324-.178-.324M9.68 15.71c-.09.004-.334.247-.542.541-.207.294-.376.85-.374 1.237s.18 1.093.394 1.569c.212.476.733 1.255 1.157 1.731.426.476 1.246 1.1 1.826 1.393.647.322 1.447.532 2.074.54.783.01 1.136-.1 1.508-.473l.488-.486a6.4 6.4 0 0 1-2.043-.315c-.536-.175-1.46-.741-2.055-1.26-.606-.528-1.346-1.46-1.679-2.119-.329-.646-.597-1.442-.595-1.77 0-.325-.071-.592-.16-.588m93.065 1.655c-.093.078-.154.442-.134.807.017.368.304 1.106.64 1.643.333.534.943 1.228 1.354 1.542.411.313 1.088.74 1.506.95.415.21 1.129.38 1.581.38.454-.002.937-.112 1.071-.248.184-.182.084-.245-.391-.243-.351.003-1.125-.233-1.72-.523s-1.465-.95-1.935-1.465c-.467-.515-1.066-1.395-1.328-1.958-.263-.562-.553-.96-.644-.885m-240.462-1.224c-.307-.002-.639.06-.74.138-.099.08-.164.227-.145.325.019.1.182.181.361.181.178 0 .691.189 1.136.42.446.232 1.225.79 1.729 1.244.504.452 1.259 1.409 1.678 2.122.42.714.757 1.492.751 1.73-.011.388.024.4.331.11.188-.18.338-.57.331-.866-.004-.299-.292-1.027-.638-1.622-.344-.595-1.05-1.515-1.567-2.043-.517-.526-1.328-1.134-1.803-1.346-.476-.214-1.117-.391-1.424-.393m-50.77-.184c-.713-.158-.984-.136-1.196.095-.221.242-.219.3.002.3.154 0 .731.27 1.287.596.556.327 1.456 1.082 2.001 1.679s1.209 1.523 1.476 2.055c.266.534.48 1.214.476 1.512-.006.487.028.508.337.216.188-.18.339-.64.333-1.027-.004-.387-.142-1.02-.305-1.406-.164-.388-.612-1.093-.999-1.569a11.4 11.4 0 0 0-1.596-1.555c-.491-.381-1.31-.783-1.816-.896m52.192-.753c-.357-.067-.79-.071-.963-.009-.171.06-.294.202-.271.31.024.108.214.204.422.208.21.004.69.175 1.07.378s1.197.857 1.816 1.452c.616.595 1.399 1.568 1.739 2.163s.614 1.323.61 1.622c-.006.485.028.509.335.217.191-.18.34-.569.333-.865-.006-.299-.239-1.028-.518-1.623s-.983-1.527-1.567-2.073c-.581-.545-1.352-1.142-1.709-1.326a5.6 5.6 0 0 0-1.297-.454m96.79.62c-.396.425-.508.763-.467 1.41.03.467.188 1.116.35 1.445.163.327.772 1.013 1.352 1.525.582.51 1.398 1.02 1.813 1.133.418.113.929.206 1.136.206.21 0 .67-.243 1.028-.539.356-.299.65-.614.653-.703.001-.091-.362-.233-.812-.317-.447-.087-1.252-.432-1.789-.77-.534-.334-1.211-.947-1.505-1.357a9 9 0 0 1-.887-1.67l-.353-.924zm143.56.096c-.227 0-.324.228-.324.758 0 .415.182 1.123.404 1.568s.76 1.127 1.191 1.514 1.151.885 1.596 1.11c.446.223 1.104.47 1.46.55.357.08.918.042 1.245-.083.326-.123.596-.298.598-.387.002-.088-.363-.232-.81-.316-.448-.085-1.401-.528-2.115-.985q-.04-.026-.083-.056c-.144-.044-.45-.232-.775-.486-.345-.27-.696-.645-.863-.912a4 4 0 0 1-.288-.34c-.392-.528-.757-1.18-.811-1.448s-.247-.487-.425-.487M-83.007 2.723c-1.51-.002-2.785.073-2.836.166s-.242 1.578-.433 3.3c-.188 1.721-.409 3.956-.49 4.968-.116 1.478-.076 1.978.207 2.542.192.388 1.884 2.272 3.758 4.189l3.407 3.487c2.012-.208 4.2-.377 6.165-.509 2.191-.147 3.626-.335 3.713-.486.08-.135.201-.974.27-1.867l.344-4.381.217-2.758c-1.735-2.431-2.668-3.672-3.193-4.327a44 44 0 0 0-2.207-2.487l-1.255-1.3c-3.812-.417-6.157-.537-7.667-.537M-187.746 14.84c-.395 0-.784.071-.865.162-.08.089.365.408.99.709.626.3 1.575 1.021 2.11 1.597.536.577 1.209 1.402 1.497 1.833.285.43.578 1.142.649 1.58.102.64.182.747.407.542a.97.97 0 0 0 .27-.636c-.006-.21-.16-.745-.344-1.19-.186-.448-.66-1.153-1.053-1.569-.396-.417-.806-.917-.912-1.112-.104-.195-.603-.706-1.109-1.136-.655-.558-1.125-.78-1.64-.78m198.692-.396c-.411.423-.468.653-.358 1.475.072.534.418 1.484.773 2.11s.96 1.366 1.348 1.65c.387.283 1.043.686 1.46.895.463.232 1.178.366 1.84.347.695-.022 1.216-.167 1.465-.41.212-.205.383-.423.38-.482-.006-.06-.373-.136-.818-.17-.446-.035-1.201-.234-1.677-.444s-1.279-.79-1.785-1.289c-.506-.5-1.114-1.298-1.352-1.774s-.513-1.214-.61-1.638l-.178-.774zm-145.227-1.126c-.44.003-.853.102-.919.221-.065.12.099.214.368.212.268-.002.682.141.919.318.238.178.335.323.216.323-.119.002-.605-.087-1.081-.193-.569-.13-1.015-.117-1.299.034-.387.206-.319.272.65.618.698.25 1.52.813 2.325 1.593.684.662 1.487 1.693 1.785 2.288.296.594.541 1.276.541 1.514 0 .24.121.4.271.362.149-.04.302-.309.343-.596.039-.288-.227-1.23-.594-2.092-.368-.863-.621-1.568-.561-1.568s.401.51.755 1.135c.355.626.643 1.429.641 1.786-.009.583.025.616.335.324.188-.18.339-.64.333-1.028-.005-.387-.167-1.019-.362-1.406-.192-.387-.661-1.092-1.042-1.568-.383-.476-1.172-1.184-1.758-1.573-.729-.485-1.318-.708-1.866-.703m-52.329 1.09c-.14 0-.163.116-.054.293.099.162.666.716 1.261 1.23.595.516 1.491 1.478 1.99 2.14.5.66.986 1.515 1.082 1.896.138.556.23.642.455.433.153-.143.274-.48.27-.747a2.7 2.7 0 0 0-.258-.973c-.136-.268-.744-1.11-1.352-1.87-.725-.908-1.458-1.56-2.133-1.893-.564-.28-1.13-.51-1.261-.51m292.229 1.457c-.448-.852-.58-.97-.782-.703-.17.23-.176.58-.025 1.192.119.476.495 1.18.837 1.568l.05.054q.216.154.656.557c.173.16.332.316.469.456q.15.116.285.21c.463.315 1.353.681 1.976.81.679.144 1.332.163 1.622.05.452-.172.434-.199-.271-.35-.415-.09-1.194-.387-1.73-.66-.535-.272-1.326-.869-1.759-1.325a9.8 9.8 0 0 1-1.328-1.859m-291.669-2.53c-.407-.003-.848.196-1.181.533-.387.387-.443.536-.206.536.18 0 .44-.12.578-.27.199-.214.49-.153 1.396.295.629.31 1.611 1.04 2.182 1.622s1.227 1.448 1.458 1.924.416 1.107.411 1.406c-.006.488.029.51.351.216.266-.242.324-.535.227-1.136-.074-.445-.279-1.103-.456-1.46-.18-.357-.691-1.05-1.136-1.536-.446-.487-1.298-1.166-1.893-1.508s-1.374-.623-1.731-.623M63.388 9.75c.55-.207 1.262-.29 1.947-.223.6.061 1.757.436 2.596.844.943.46 1.828 1.095 2.345 1.683.456.52 1.065 1.406 1.353 1.97.35.69.522 1.403.527 2.165.004.923-.117 1.306-.649 2.054-.447.63-.91.998-1.466 1.166-.468.14-1.361.19-2.11.114a7.9 7.9 0 0 1-2.488-.728c-.655-.329-1.629-1.04-2.163-1.58-.537-.538-1.242-1.514-1.57-2.165-.34-.673-.597-1.54-.595-2 0-.445.134-1.126.296-1.513s.478-.872.703-1.08.798-.525 1.274-.707m-100.262 3.357c-.11 0-.413.256-.67.569-.292.357-.46.846-.448 1.298.013.4.206 1.094.43 1.54.222.445.781 1.145 1.242 1.552.461.406 1.156.869 1.543 1.027.388.158 1.02.29 1.407.292.499.004.888-.184 1.351-.654.625-.633.631-.657.162-.653-.268.002-.95-.227-1.514-.51-.564-.282-1.393-.916-1.838-1.407-.446-.49-.959-1.183-1.136-1.54-.18-.357-.325-.844-.325-1.082 0-.237-.091-.432-.203-.432m50.035-.859c-.1.005-.353.247-.56.541s-.377.752-.375 1.02c.002.269.124.87.27 1.34.146.469.704 1.336 1.24 1.93.54.598 1.454 1.298 2.056 1.58.607.28 1.508.505 2.055.51.66.005 1.094-.115 1.345-.377.205-.212.376-.434.38-.493.003-.06-.31-.138-.697-.173-.388-.035-1.093-.238-1.569-.448-.476-.212-1.242-.718-1.701-1.127a10 10 0 0 1-1.458-1.714c-.344-.536-.666-1.339-.716-1.784s-.17-.809-.27-.805m93.221 1.291c-.144 0-.324.268-.398.595-.097.426.041.929.482 1.77.465.883.955 1.406 1.971 2.109.744.515 1.668.996 2.056 1.07.387.073.971.073 1.298 0 .326-.074.594-.232.594-.351 0-.12-.218-.216-.486-.214s-1.017-.267-1.662-.596c-.651-.331-1.601-1.08-2.126-1.679-.521-.595-1.064-1.447-1.207-1.892-.141-.446-.377-.811-.522-.812m-291.313-1.298c-.398 0-.803.066-.902.146-.1.078-.164.225-.145.324.02.097.255.177.523.175.269-.002.924.28 1.46.628s1.387 1.082 1.893 1.627c.506.547 1.115 1.384 1.353 1.86.237.476.432 1.06.432 1.298s.074.432.162.433c.089 0 .284-.195.433-.433.199-.318.212-.619.05-1.136-.124-.387-.463-1.117-.757-1.623a9.5 9.5 0 0 0-1.348-1.698c-.445-.428-1.177-.965-1.623-1.19-.445-.227-1.135-.41-1.531-.41m248.968-.414c-.357.013-.978.136-1.378.273-.714.242-.727.27-.606 1.221.078.602.418 1.407.892 2.11.422.625 1.214 1.452 1.759 1.839s1.397.868 1.892 1.069c.496.203 1.366.371 1.93.378.565.006 1.173-.034 1.353-.095.22-.074.324-.402.322-1.028-.002-.506-.23-1.406-.505-2.001-.3-.645-.976-1.503-1.674-2.124-.763-.68-1.549-1.151-2.254-1.355-.594-.17-1.374-.3-1.731-.287m-197.21.202c-.307-.002-.64.061-.74.141-.099.078-.166.2-.147.27.018.07.351.243.74.385.388.143 1.143.59 1.679.99.534.4 1.391 1.354 1.901 2.12.511.765.971 1.706 1.028 2.093.084.602.147.664.432.433.184-.15.329-.562.321-.919-.007-.357-.206-1.063-.442-1.57-.236-.506-.891-1.42-1.456-2.032-.564-.612-1.417-1.292-1.892-1.51-.476-.216-1.117-.398-1.424-.4m240.41.753c-.121-.075-.227.13-.244.474-.015.36.224.963.59 1.474.339.476.976 1.18 1.413 1.568.437.387 1.062.836 1.388 1 .327.165.935.365 1.353.445l.757.143a97 97 0 0 1-2.811-2.248l-1.894-1.569c-.208-.173-.369-.502-.358-.733.013-.231-.075-.48-.194-.554M-78.961 5.627c.601.04 1.586.324 2.217.638.626.311 1.582.98 2.13 1.486.544.506 1.267 1.358 1.605 1.893.335.536.776 1.557.98 2.271.248.874.322 1.616.225 2.272-.08.536-.338 1.316-.576 1.731-.238.418-.788 1.002-1.22 1.298-.668.46-1.032.54-2.425.54s-1.829-.097-2.912-.648c-.72-.368-1.754-1.165-2.384-1.84-.61-.652-1.372-1.724-1.692-2.38-.32-.652-.644-1.676-.72-2.27s-.033-1.495.099-2.002c.143-.551.563-1.247 1.05-1.743.454-.46 1.192-.933 1.676-1.071.476-.136 1.352-.216 1.947-.175m-7.996-1.559c-.027-.03-1.108 1.074-2.406 2.454-1.3 1.377-2.423 2.766-2.499 3.085s-.148 2.28-.166 4.363l-.028 3.786 4.299-4.543c.385-4.86.575-6.905.67-7.68s.153-1.432.13-1.465m208.699 9.506c-.091.022-.914.093-1.832.162-1.649.126-1.681.141-2.776 1.21-.607.594-1.414 1.462-1.791 1.927l-.686.846c3.766-.22 3.927-.269 4.407-.853A54 54 0 0 1 120.741 15c.64-.684 1.163-1.294 1.163-1.352 0-.06-.074-.093-.162-.074m-305.564-2.41c-.32-.002-.629.07-.687.158-.056.09.396.405 1.004.704.61.296 1.551.936 2.093 1.42.543.483 1.258 1.41 1.586 2.056.327.644.595 1.393.595 1.661-.002.268.074.486.169.486s.292-.12.437-.27c.144-.15.262-.417.257-.595-.002-.18-.248-.835-.545-1.46-.296-.625-.999-1.637-1.566-2.25-.565-.612-1.418-1.29-1.893-1.51-.476-.216-1.127-.398-1.45-.4m295.829-1.3c-.088 0-.915.828-1.838 1.838-.919 1.008-1.647 1.865-1.624 1.909.031.04.834.701 1.786 1.47.951.765 2.072 1.652 2.487 1.97l.758.575c2.366-2.578 3.119-3.45 3.203-3.6.093-.166-.238-.628-.85-1.19a37 37 0 0 0-2.38-1.946c-.757-.564-1.448-1.027-1.542-1.027m-243.653 1.168c-.555-.095-.847-.036-1.081.225-.286.316-.275.353.112.347.239-.004.92.274 1.515.618s1.39.951 1.767 1.35c.378.397.939 1.211 1.251 1.806.309.595.559 1.35.557 1.677-.004.432.083.565.319.487.179-.06.384-.377.456-.703.08-.361-.024-.981-.262-1.57-.219-.536-.763-1.436-1.213-2s-1.233-1.27-1.739-1.567c-.504-.296-1.262-.598-1.682-.67m-50.821-6.58c-.115 0-.461.315-.768.702-.521.652-.554.818-.444 2.272.065.863.217 1.616.336 1.677s.337-.044.486-.226c.15-.184.513-.329.812-.32.296.006.93.188 1.406.398.476.212 1.285.723 1.8 1.132.515.411 1.272 1.233 1.685 1.828.416.595.891 1.616 1.062 2.272.287 1.109.279 1.237-.118 1.892-.233.386-.402.744-.373.798.03.052.638.245 1.352.429 1.205.31 1.326.307 1.69-.041.214-.206.495-.715.623-1.132.201-.655.155-.93-.353-2.055-.322-.714-1.032-2.03-1.579-2.92-.547-.894-1.391-2.043-1.878-2.555-.485-.513-1.224-1.138-1.64-1.387-.417-.249-1.464-.9-2.332-1.447-.865-.546-1.57-1.067-1.568-1.156.004-.088-.087-.162-.199-.162M14.522 10.87c-.51.535-.567.727-.44 1.48.08.476.364 1.302.627 1.839.264.534.86 1.28 1.323 1.657.463.378 1.281.886 1.815 1.13.537.247 1.339.45 1.784.453a2.06 2.06 0 0 0 1.407-.506l.594-.51c-1.676-.226-2.552-.52-3.028-.802-.476-.279-1.279-.958-1.785-1.507-.504-.548-1.03-1.266-1.166-1.592-.139-.327-.315-.97-.398-1.426l-.147-.831zm-49.464.29c-.12 0-.41.316-.646.702-.238.387-.431.85-.429 1.029 0 .178.227.811.502 1.406.277.595.835 1.363 1.242 1.709s1.058.759 1.444.919c.387.16 1.068.295 1.513.297.59.004.961-.146 1.353-.546l.54-.55c-.752.008-1.434-.21-1.996-.478-.565-.268-1.344-.802-1.73-1.189a8.3 8.3 0 0 1-1.178-1.56c-.26-.471-.454-1.056-.432-1.298.021-.242-.062-.442-.183-.442m-44.127-4.7a3.66 3.66 0 0 0-1.839.33c-.475.223-1.01.571-1.19.775-.29.328-.285.366.055.357.207-.004.378.09.378.208-.001.119-.196.264-.433.324-.238.06-.53.303-.648.541-.204.407-.163.424.703.298.6-.088 1.369-.003 2.216.243 1.04.303 1.541.618 2.52 1.596.671.668 1.424 1.655 1.67 2.19a5 5 0 0 1 .438 2.055l-.015 1.081c-.586-1.844-.968-2.792-1.225-3.299-.257-.506-.833-1.274-1.278-1.707-.446-.432-1.201-.96-1.677-1.172a8.5 8.5 0 0 0-1.722-.526c-.473-.076-1.077-.037-1.352.09-.273.128-.497.307-.5.395.004.09.463.24 1.028.333.569.096 1.324.312 1.68.485.358.173.992.59 1.407.932.415.34 1.067 1.192 1.447 1.895.379.7.768 1.692.866 2.2.15.796.249.922.715.915.296-.004.65-.077.782-.166.132-.087.413-.498.623-.915.274-.547.344-1.013.247-1.677-.076-.506-.382-1.406-.678-2-.298-.595-.82-1.398-1.16-1.786-.339-.387-1.191-1.016-1.892-1.4-.7-.382-1.493-.698-1.761-.702s-.536-.104-.595-.223c-.06-.119.037-.265.217-.325s.542-.106.81-.102c.269.005 1.063.32 1.766.703.7.383 1.612 1.087 2.018 1.563.41.476.998 1.351 1.307 1.946.437.84.564 1.409.575 2.54.007.801.06 1.462.121 1.469.06.002.291-.362.511-.81.311-.634.372-1.087.269-2.008-.074-.656-.36-1.677-.636-2.272-.275-.595-.98-1.573-1.567-2.175-.584-.599-1.551-1.323-2.146-1.61-.595-.282-1.52-.549-2.055-.59m144.296 3.93c-.534-.038-1.168-.016-1.406.05a3.5 3.5 0 0 0-.865.422c-.388.269-.288.299.973.294.775-.004 1.845.147 2.38.337.533.188 1.321.604 1.747.924.426.318 1.108.965 1.515 1.437.407.471.947 1.396 1.198 2.055.281.73.507 1.072.578.874.063-.177.021-.763-.096-1.298-.116-.534-.39-1.265-.609-1.623-.218-.356-.87-1.081-1.445-1.61-.578-.53-1.49-1.15-2.024-1.377-.534-.229-1.412-.445-1.946-.484m-147.379.989c-.207-.002-.378.117-.379.266s.204.66.452 1.135c.252.476.86 1.288 1.355 1.805.493.517 1.385 1.223 1.98 1.566.594.346 1.155.63 1.244.63s.1-.315.027-.7c-.076-.388-.356-1.141-.629-1.678-.272-.534-.77-1.235-1.11-1.555-.338-.32-1.054-.781-1.588-1.024-.536-.242-1.144-.442-1.352-.445m-100.331-1.186c-.415-.08-.846-.073-.954.015-.108.087-.181.24-.159.34.02.097.255.181.52.184.269.004.968.32 1.552.703.584.385 1.363 1.049 1.731 1.477.367.43.878 1.21 1.135 1.73.26.524.561 1.195.669 1.494l.201.54c.446-.867.43-1.21.175-2.055-.22-.737-.683-1.469-1.46-2.3-.623-.668-1.476-1.388-1.893-1.6a7 7 0 0 0-1.517-.528m56.569-8.498c-1.032-.101-1.15-.058-2.165.798-.59.5-1.537 1.363-2.104 1.92l-1.032 1.012c.006 2.431.106 3.184.225 3.245s.29 0 .378-.135c.102-.15.442-.186.92-.09.416.082 1.146.374 1.622.649.476.277 1.329 1 1.894 1.607.564.608 1.269 1.616 1.565 2.242s.539 1.403.541 1.73-.095.79-.214 1.027c-.19.383-.121.457.595.637.446.113 1.14.136 1.54.054.402-.082.827-.344.948-.582.121-.239.177-.872.123-1.407-.062-.65-.478-1.654-1.251-3.028-.633-1.13-1.503-2.432-1.933-2.89-.429-.461-1.558-1.352-2.51-1.982s-2.023-1.389-2.38-1.687c-.356-.296-.574-.599-.486-.668.089-.07.868.292 1.73.804.863.513 2.079 1.147 2.704 1.407.625.259 1.257.473 1.407.473.149 0 .854-.535 1.568-1.19l1.299-1.188c-1.51-1.39-2.387-1.988-2.921-2.223-.536-.236-1.464-.476-2.063-.535m-4.905 8.387c-.438-.002-.854.093-.92.212-.065.119.052.217.26.217.21-.002.768.203 1.244.452.476.251 1.287.86 1.802 1.355.515.493 1.164 1.286 1.438 1.762.277.476.563 1.181.634 1.569.076.413.241.673.399.631.149-.039.303-.355.34-.703.036-.348-.102-1.071-.31-1.605-.21-.537-.824-1.45-1.367-2.033-.543-.582-1.379-1.238-1.855-1.457-.475-.216-1.223-.397-1.665-.4m-47.549-8.447c-.744.002-1.229.175-2.055.733-.595.403-1.255.913-1.467 1.136-.37.391-.361.422.217.826.331.232 1.135.725 1.791 1.097.653.372 1.774.891 2.488 1.153 1.244.457 1.32.46 1.839.102.523-.366.534-.363.354.048-.103.235-.235.572-.296.75-.058.177.154.909.474 1.623s1.108 2.076 1.75 3.028c.64.952 1.315 1.95 1.497 2.218s.281.584.223.703c-.063.125-.292.058-.547-.162-.422-.364-.439-.362-.431.053.007.238.093.58.195.757.147.258.504.014 1.739-1.19.854-.831 1.597-1.683 1.65-1.892.054-.208-.062-.987-.259-1.731-.196-.744-.582-1.839-.859-2.434-.275-.595-.991-1.69-1.59-2.433-.995-1.235-1.121-1.324-1.467-1.035-.207.178-.475.327-.594.333s-.022-.192.216-.443l.432-.454c-1.341-1.144-2.314-1.772-3.028-2.133-.881-.445-1.612-.655-2.272-.653M16.235 9.122c-.182.288-.333.863-.333 1.278 0 .418.127 1.075.285 1.46.156.388.669 1.13 1.136 1.65s1.313 1.178 1.878 1.462c.564.283 1.44.575 1.947.648.777.115 1.019.052 1.568-.402l.65-.538c-1.592-.214-2.445-.472-2.921-.71s-1.266-.846-1.755-1.352c-.489-.504-1.04-1.212-1.224-1.57A11 11 0 0 1 16.85 9.5l-.28-.9zm-50.08 1.001c-.14.51-.2 1.17-.134 1.467.067.298.37.93.675 1.406.303.476.863 1.087 1.244 1.353.38.268 1.105.634 1.61.811.594.21 1.16.268 1.594.162.372-.088.761-.283.865-.432.132-.186.007-.362-.404-.568-.327-.162-1.179-.776-1.893-1.365-.713-.586-1.748-1.674-2.297-2.414l-1.002-1.348zm-96.119-.9c-.342.01-.165.159.594.5.595.27 1.508.872 2.03 1.342.519.467 1.195 1.289 1.503 1.823.307.536.627 1.266.71 1.623l.149.65c.035-.922-.166-1.604-.424-2.11-.257-.504-.916-1.392-1.461-1.972-.545-.577-1.356-1.235-1.803-1.46s-1.03-.401-1.298-.395m-51.279.284c-.447-.136-.856-.186-.911-.108-.054.075.362.353.924.619.563.264 1.402.798 1.867 1.19.465.389 1.14 1.146 1.499 1.68.359.536.784 1.316.942 1.731.263.69.278.698.164.108-.07-.357-.34-1.073-.597-1.594-.26-.521-1.058-1.495-1.774-2.163-.731-.684-1.657-1.324-2.114-1.463m147.658-3.001c-.35-.919-.456-1.076-.368-.54.07.418.407 1.341.749 2.055.341.714 1.081 1.832 1.644 2.488.56.655 1.467 1.56 2.012 2.012.547.454 1.675 1.15 2.507 1.548s1.951.78 2.488.848l.974.124c-1.846-.601-3.012-1.11-3.782-1.518-.772-.407-2.07-1.377-2.886-2.149-.815-.772-1.79-1.893-2.166-2.488-.374-.595-.902-1.666-1.172-2.38M-120.383 5.1c-.117 0-.796.56-1.51 1.244l-1.301 1.244c.599 1.677 1.249 2.943 1.828 3.895.578.951 1.18 1.877 1.333 2.054.156.177.283.446.286.595.004.15-.141.223-.318.162q-.325-.107-.325.325c0 .238.089.408.197.378.109-.031.741-.565 1.406-1.19.665-.624 1.3-1.306 1.413-1.514.129-.244.101-.874-.082-1.784-.156-.772-.552-1.941-.88-2.597s-.874-1.555-1.216-2-.716-.812-.831-.812m90.206-3.68c-.537 0-1.301.171-1.701.38s-.917.721-1.149 1.137c-.324.58-.396 1.01-.307 1.838.067.632.454 1.751.932 2.69.547 1.077 1.32 2.116 2.335 3.137 1.058 1.068 2.035 1.8 3.244 2.425.95.493 2.24 1.003 2.865 1.135.783.167 1.404.174 2.002.025.516-.13 1.084-.478 1.406-.866.296-.357.605-1.015.683-1.46.091-.511.006-1.335-.223-2.217-.204-.773-.681-1.924-1.062-2.556-.383-.63-1.235-1.7-1.895-2.38-.66-.677-1.78-1.538-2.488-1.912-.71-.376-1.826-.839-2.48-1.03s-1.628-.348-2.162-.346m48.675 5.627c-.085 0-.331.178-.547.396-.26.26-.384.669-.358 1.19.022.437.168 1.11.326 1.497.155.387.668 1.13 1.135 1.648.468.522 1.337 1.192 1.932 1.489.649.326 1.49.554 2.102.569.758.02 1.136-.087 1.46-.407l.44-.433c-1.76-.255-2.66-.558-3.137-.837-.476-.277-1.218-.934-1.65-1.456-.43-.523-.941-1.268-1.136-1.655-.193-.387-.365-.995-.383-1.352-.017-.356-.1-.649-.184-.649m94.736-5.194c-.069 0-.362.314-.649.697-.286.38-.641.891-.784 1.136a2.4 2.4 0 0 0-.276.981c-.007.299.179 1.173.415 1.947.234.773.723 1.82 1.086 2.327s1.365 1.448 2.228 2.097c.864.647 2.006 1.335 2.542 1.527.762.273 1.396.319 2.92.207l1.948-.146c-.113-1.221-.035-1.819.099-2.117.195-.433.164-.734-.158-1.515l-.4-.973c-1.426 2.011-2.053 2.714-2.313 2.857-.262.145-.789.268-1.177.27-.387.005-1.044-.138-1.46-.315-.417-.177-1.258-.788-1.871-1.352-.612-.565-1.291-1.417-1.507-1.893-.219-.476-.401-1.231-.403-1.677-.004-.644.195-1.056.969-2 .534-.656.973-1.237.974-1.299-.001-.06-.464-.255-1.028-.434-.563-.18-1.082-.327-1.155-.325m-2.951 2.814c-.115 0-.939.803-1.83 1.785l-1.625 1.785c.809 3.018 1.112 4.024 1.192 4.182.104.2.636-.228 1.743-1.406 1.582-1.681 1.595-1.703 1.478-2.668a28 28 0 0 0-.435-2.325c-.175-.744-.411-1.352-.523-1.353m-90 .44c-.089.004-.334.246-.541.54s-.379.876-.38 1.292c0 .417.154 1.123.343 1.569.188.446.65 1.185 1.028 1.644.387.471 1.25 1.107 1.983 1.464.742.362 1.647.63 2.11.627.553-.002 1-.172 1.406-.538l.595-.534c-1.426-.01-2.18-.16-2.596-.338-.418-.177-1.248-.788-1.85-1.352-.6-.565-1.283-1.44-1.514-1.947-.232-.506-.422-1.259-.422-1.676 0-.415-.074-.755-.162-.751m3.57-2.39c-.875.003-1.156.12-1.894.787-.748.675-.865.904-.86 1.676.001.49.18 1.283.395 1.759.214.475.725 1.244 1.131 1.705.407.46 1.178 1.062 1.714 1.335.535.272 1.364.52 1.84.55.475.027 1.083-.014 1.35-.094.27-.078.585-.338.704-.576.18-.36.153-.415-.162-.322-.208.059-.736.132-1.173.162-.437.028-.876-.023-.974-.116-.1-.093.187-.165.632-.163.446.004 1.104-.14 1.461-.317.357-.178.707-.544.777-.812s.053-.877-.038-1.352c-.093-.476-.473-1.305-.847-1.84-.385-.549-1.195-1.28-1.857-1.678-.889-.534-1.421-.705-2.2-.703m91.779 5.918c.416.454 1.05.98 1.407 1.166a9 9 0 0 0 1.244.523c.374.117.595.104.595-.032-.001-.119-.148-.216-.325-.216-.179 0-.738-.206-1.244-.457a9 9 0 0 1-1.677-1.136l-.756-.678zM-27.912 4.322c.387-.279.5-.23 1.298.576.813.823.933.876 1.791.76.787-.107.967-.055 1.252.363.316.458.299.517-.981 1.568l.642.865c.355.476.65.963.66 1.082.007.12-.142.363-.331.54-.31.292-.44.216-1.277-.757-.884-1.027-.96-1.068-1.503-.811-.313.149-.717.27-.895.27-.18 0-.447-.249-.596-.551-.246-.506-.215-.595 1.028-1.544l-.757-1.029c-.738-.998-.747-1.033-.332-1.332m144.131-1.097c-.06-.56-.072-.567-.418-.162-.194.229-.458.683-.586 1.01s-.168.863-.09 1.19.267.79.425 1.027q.286.432.077.703c-.148.19-.003.5.493 1.045.387.426 1.092.96 1.568 1.186.476.227 1.205.415 1.622.42.599.004.834-.122 1.119-.593a8 8 0 0 1 .811-1.084l.45-.487c-1.434-.312-2.339-.785-2.975-1.28-.625-.485-1.33-1.225-1.568-1.64s-.53-.758-.649-.758-.244-.26-.279-.577M-26.093 6.21c-.262-.253-.313-.214-.357.27a3.4 3.4 0 0 1-.266 1c-.12.237-.166.432-.108.432.061 0 .378-.1.704-.222.445-.167.64-.154.776.053q.183.274.053-.101c-.081-.243.03-.476.306-.649.24-.148.434-.343.433-.432 0-.089-.278-.139-.62-.109-.339.03-.754-.08-.921-.242m142.596-1.488c.004-.245.166-.111.458.378.252.417.803 1.05 1.229 1.406.424.357 1.264.816 1.865 1.021.633.214.888.374.608.378-.269.004-.95-.224-1.514-.507-.564-.282-1.393-.916-1.839-1.407-.445-.488-.809-1.06-.807-1.27m-94.848-.27c.136-.247.212-.168.31.323.073.358.297.992.498 1.407.204.417.373.807.377.865.002.06-.152-.038-.341-.217-.19-.177-.5-.714-.686-1.19-.201-.518-.266-.994-.158-1.189m92.797.785c-.104.083-.171.403-.15.71s.124.706.228.883.298.25.43.162c.131-.089.235-.333.231-.54-.002-.208-.129-.602-.278-.873-.149-.272-.357-.425-.461-.342m4.409-4.032c-.247 0-.734.293-1.082.65-.571.586-.61.718-.409 1.351.123.387.338.848.476 1.027.141.18.502.602.805.94s.917.8 1.362 1.027 1.128.416 1.515.42c.398.004.865-.16 1.075-.379.206-.212.377-.7.379-1.088.004-.387-.132-.97-.299-1.297-.169-.327-.631-.907-1.027-1.288-.398-.38-1.089-.844-1.534-1.028s-1.012-.335-1.261-.335"/></g></svg>