<svg xmlns="http://www.w3.org/2000/svg" fill="none" viewBox="0 0 32 32"><mask id="a" width="32" height="32" x="0" y="0" maskUnits="userSpaceOnUse" style="mask-type:alpha"><path fill="#d9d9d9" d="M0 0h32v32H0z"/></mask><g mask="url(#a)"><path fill="#e31e24" d="M-124.214 90.824c2.087-.008 3.399.084 4.201.294.639.168 1.642.546 2.227.844.583.295 1.5.958 3.002 2.395l-.009-1.366c-.006-1.168.054-1.395.4-1.57.223-.11 1.043-.202 1.822-.202 1.089 0 1.492.083 1.741.354.251.274.308.66.245 1.671-.044.725-.123 1.454-.173 1.62-.067.223.099.322.617.372.388.037.827.174.97.304.201.18.261 1.388.257 5.196-.004 3.616-.073 5.03-.253 5.215-.135.14-.546.253-.913.253-.368 0-.724.115-.792.253-.067.14-.02.345.106.456.135.122.225.917.22 3.746l-.759.326c-.478.207-1.142.3-1.79.253-.565-.038-1.185-.208-1.375-.376-.239-.208-.344-.602-.338-1.265.006-.529-.037-.962-.092-.962-.058.001-.399.281-.759.623-.362.34-1.023.838-1.469 1.103-.445.267-1.356.671-2.024.898-1.008.34-1.788.417-4.557.443-2.81.026-3.519-.03-4.459-.354-.615-.211-1.652-.703-2.306-1.094-.654-.389-1.612-1.209-2.13-1.822-.519-.612-1.28-1.797-1.692-2.633-.473-.962-.834-2.074-.986-3.037-.18-1.165-.18-1.896.004-3.14.156-1.052.495-2.15.967-3.138a11 11 0 0 1 1.866-2.704c.628-.652 1.552-1.423 2.054-1.713.5-.29 1.412-.686 2.025-.879.84-.265 1.858-.354 4.152-.364m-.612.822c-2.041.019-2.862.093-3.139.178-.28.085-1.009.411-1.621.723-.613.314-1.591 1.055-2.176 1.65-.642.654-1.343 1.665-1.768 2.55-.449.938-.781 2.02-.917 2.987-.117.836-.157 1.93-.09 2.43.067.502.297 1.458.507 2.126s.733 1.762 1.16 2.431c.43.668 1.23 1.615 1.779 2.103.55.488 1.455 1.092 2.012 1.341s1.49.555 2.075.681c.585.125 1.29.228 1.57.228.277 0 .505-.067.501-.152s-.391-.333-.862-.553c-.469-.219-1.401-.917-2.069-1.547-.668-.632-1.509-1.636-1.869-2.233-.358-.596-.839-1.812-1.065-2.703-.227-.891-.409-2.121-.407-2.735.004-.611.146-1.705.318-2.43.172-.722.603-1.859.96-2.525.354-.664 1.104-1.666 1.665-2.227s1.563-1.313 2.227-1.671zm1.417.403c-.223-.002-1.043.306-1.822.684a8.7 8.7 0 0 0-2.448 1.768c-.567.595-1.264 1.538-1.547 2.095a15 15 0 0 0-.845 2.126c-.18.613-.328 1.706-.326 2.429 0 .725.138 1.841.306 2.481.166.642.524 1.598.793 2.127.27.53.975 1.496 1.57 2.148a7.9 7.9 0 0 0 2.497 1.877c.779.381 1.577.69 1.771.689.195-.005.879-.25 1.519-.549.692-.322 1.667-1.041 2.4-1.772.681-.676 1.476-1.708 1.772-2.293.295-.583.622-1.45.727-1.924.106-.471.241-1.291.304-1.822.101-.862.066-.978-.343-1.134-.315-.121-.543-.477-.741-1.164-.176-.615-.247-1.492-.186-2.308.089-1.189.047-1.384-.437-2.026-.294-.388-.904-1.026-1.353-1.417-.45-.388-1.355-1.003-2.011-1.359-.658-.358-1.377-.654-1.6-.656m7.556 14.266c-.924-.654-.94-.64-1.633.581-.429.762-1.164 1.631-1.895 2.245a242 242 0 0 1-1.331 1.113c-.076.061.335.081.912.045.577-.035 1.322-.165 1.656-.286.334-.122 1.013-.549 1.509-.948.494-.399 1.153-1.136 1.462-1.636.308-.502.504-1.002.437-1.114-.069-.115-.198-.048-.297.153-.121.249-.414.353-.984.353-.446 0-.811-.091-.811-.202s.219-.225.487-.253zm1.658 2.329c0 .668.091 1.26.202 1.317.124.06.203-.339.203-1.013 0-.613.091-1.114.202-1.114s.225.464.253 1.029l.051 1.03 2.127.168v-2.632h-3.038zm-2.984.025c.083-.018.151.102.151.269 0 .225-.238.304-.911.304-.502 0-.911-.092-.911-.203.001-.111.343-.232.76-.269.416-.036.828-.083.911-.101m.783-.811c.068-.018.108.08.086.219-.023.146-.398.275-.886.304-.463.028-.843-.04-.844-.152 0-.111.342-.233.759-.269s.815-.083.885-.102m-.125-.641c.5 0 .911.091.911.203-.002.111-.412.202-.911.202-.501 0-.909-.091-.911-.202 0-.112.409-.203.911-.203m3.845-1.003c-.854 0-1.113.071-1.114.303 0 .237.229.293 1.047.254.631-.03 1.072-.152 1.113-.303.049-.181-.255-.254-1.046-.254m2.936-10.125c-3.687.032-5.077.12-5.468.217-.388.095-.776.246-.862.334-.085.087-.004.567.18 1.069.218.597.342 1.608.356 2.936.016 1.474-.075 2.3-.338 3.038-.198.556-.311 1.172-.253 1.367.073.243.314.354.766.354h.658c-.083-7.318-.029-8.907.101-8.91.129 0 .203 1.62.203 4.455v4.455h4.657zm-7.273 1.146c-.073-.093-.2-.07-.279.051-.078.122-.09.655-.025 1.183.067.528.154 1.097.194 1.265.041.166.261.372.49.455.338.124.414.069.416-.303.002-.252-.148-.911-.331-1.468s-.392-1.089-.465-1.183m-3.561-4.777.608.435c.334.241 1.004.853 1.488 1.36.486.509 1.016 1.198 1.179 1.532l.297.608c.634-.74 1.011-.912 1.39-.912.334 0 .607-.09.607-.202 0-.111-.525-.654-1.165-1.205-1.158-.998-1.168-1.002-2.229-.86-.793.105-1.064.076-1.063-.112.003-.153.279-.253.71-.254.405 0 .667-.086.608-.202-.055-.11-.626-.198-1.266-.196zm7.843 2.254c-.824-.049-1.039.002-1.049.253-.008.247.229.314 1.128.314.822 0 1.112-.072 1.047-.254-.054-.145-.531-.279-1.126-.313m-3.829-.018c.354.022.737.089.848.152.111.062-.208.172-.708.243-.5.07-.93.094-.961.052-.029-.04-.001-.165.062-.279.063-.113.405-.188.759-.168m2.578-2.724c-.215.075-.283.397-.253 1.2.03.823.115 1.096.344 1.096.235 0 .303-.269.303-1.214 0-.668-.022-1.206-.05-1.2zm.808 1.073-.008 1.223 1.822-.101v-2.228l-1.807-.117zm-4.463.642c.488.037.911.18.948.319.042.161-.169.256-.592.26-.362.007-.787-.137-.947-.315-.263-.296-.207-.32.591-.264m-40.092-46.499c.5.057 1.268.306 1.703.553s1.074.799 1.418 1.226c.617.769.626.808.686 3.442.043 1.873-.016 2.84-.203 3.254-.145.322-.605.891-1.022 1.266-.419.372-.897.676-1.064.676s-.342.07-.39.153c-.046.087.091.79.305 1.57.215.779.389 1.576.389 1.77 0 .197-.413.971-.917 1.722-.82 1.221-1.161 1.517-5.462 4.16l-1.113-.221c-.964-.193-1.173-.177-1.535.12-.231.191-.895.892-1.474 1.56-.579.669-1.052 1.284-1.048 1.368.002.084-.131.15-.297.15-.168 0-.303.093-.303.204-.002.113-.481.71-1.064 1.324-1.004 1.057-1.118 1.12-2.025 1.114-.531-.004-1.26-.134-1.62-.287-.363-.154-.997-.633-1.406-1.064-.411-.431-.844-1.033-.961-1.34a3.8 3.8 0 0 1-.214-1.165c0-.45.398-1.114 1.556-2.582.857-1.085 1.854-2.292 2.216-2.683.446-.477.69-.97.755-1.52.073-.62-.042-1.079-1.085-3.138l.544-.758a72 72 0 0 1 1.769-2.279c.674-.834 1.453-1.975 2.243-3.544l1.216-.101c1.113-.092 1.218-.142 1.271-.608.032-.277.186-.87.344-1.316.22-.616.472-.891 1.057-1.156.424-.193 1.681-.715 2.794-1.163 1.657-.666 2.19-.794 2.937-.707m-53.258.291c1.718-1.637 1.721-1.64 2.632-1.53.5.06 1.906.407 5.33 1.43l.875 1.215c.48.668 1.466 2.15 3.516 5.366l-1.032 2.582c-.565 1.421-1.089 2.673-1.164 2.785-.076.115-3.012 3.054-12.891 12.847l-1.013.008c-.557.004-1.741-.097-2.632-.227-1.618-.233-1.622-.235-3.001-1.57a41 41 0 0 1-2.531-2.738c-.96-1.168-1.155-1.539-1.175-2.227-.012-.456-.087-1.694-.308-4.676l5.836-5.81c3.21-3.197 6.61-6.55 7.558-7.454m234.472-1.619c.455 0 .776.172 1.14.608.278.334.62.976.76 1.423.137.448.344.817.455.819s.338-.14.506-.319c.166-.176.577-.32.911-.318.486.004.918.319 2.167 1.58 1.1 1.108 1.561 1.724 1.566 2.08.001.28-.177.712-.397.961-.218.251-.354.547-.298.658.055.112.441.307.86.432.418.126.93.37 1.138.54.255.208.373.545.355 1.035-.025.679-.577 1.28-7.975 8.678-5.143 5.143-8.087 7.946-8.35 7.948-.223.002-.613-.135-.862-.303-.25-.169-.592-.58-.758-.914-.169-.334-.304-.79-.304-1.012 0-.223-.092-.45-.203-.507-.112-.054-.454.126-.76.403-.307.276-.785.502-1.063.504-.366.002-.972-.461-2.178-1.666C9 67.296 8.522 66.674 8.518 66.311c-.002-.277.225-.733.502-1.012.28-.278.464-.573.411-.659-.053-.082-.506-.333-1.006-.556-.502-.223-1.072-.642-1.266-.932-.272-.405-.308-.638-.152-.996.112-.258 3.723-4.028 8.024-8.382 6.975-7.056 7.89-7.916 8.454-7.916m-40.373-1.716c.471-.177 1.103-.256 1.518-.189.389.063.982.269 1.317.457.334.19.812.754 1.063 1.252.253.498.455 1.226.453 1.614-.002.391-.208 1.108-.457 1.596s-.725 1.054-1.06 1.259c-.333.204-.995.377-1.467.379-.788.006-.954.108-1.924 1.169-.585.64-1.7 1.826-2.48 2.638-1.2 1.248-1.522 1.476-2.735 1.464v5.063c0 4.096-.058 5.18-.303 5.67-.169.334-.602.78-.962.988-.363.21-.978.48-1.367.601-.563.177-.741.359-.865.885-.085.367-.151 1.053-.151 1.525.002.791-.053.887-.705 1.165-.391.168-.938.303-1.215.303-.28 0-.827-.135-1.924-.607v-3.038l-.76-.115c-.419-.065-1.148-.339-1.62-.608-.474-.27-.992-.74-1.15-1.049-.235-.451-.293-2.031-.314-8.353-.02-6.723.021-7.857.29-8.252.173-.25.792-.683 1.377-.96.584-.278 1.701-.605 2.48-.729a9 9 0 0 1 2.734-.033c.723.107 1.839.436 2.48.73.689.318 1.31.77 1.52 1.111s.478.537.658.484c.167-.051.964-.744 1.774-1.537 1.093-1.075 1.5-1.626 1.596-2.154.068-.389.24-.935.382-1.215a3.7 3.7 0 0 1 .63-.86c.207-.194.741-.486 1.187-.654m-156.606 23.192c-.093 0-.385.21-.646.47-.302.293-.464.67-.44 1.011.021.298.175.817.343 1.15.166.335.599.836.962 1.111.362.275 1 .595 1.417.708.522.144.932.142 1.316-.006.442-.17.494-.249.253-.383-.167-.093-.234-.269-.151-.394.073-.108.274-.2.473-.22l.168-.009c.193-.019.373-.102.422-.199.054-.111-.128-.202-.405-.202-.279 0-.848-.17-1.266-.379-.417-.208-1.038-.686-1.38-1.062-.341-.377-.683-.89-.76-1.141-.075-.249-.215-.455-.306-.455m-87.714-19.222c.612-.01 1.219.05 1.349.13.132.082.358.58.506 1.108.184.654.399.99.677 1.058.222.057.54.108.708.114.166.006.553-.357.861-.806.5-.737.622-.808 1.215-.711.36.06 1.296.42 2.075.798.808.393 1.831 1.106 3.352 2.636l-.782 1.824.436.542c.381.471.514.516 1.045.352a4.9 4.9 0 0 1 1.164-.186c.441 0 .658.179 1.053.86.273.475.64 1.272.816 1.772.176.503.407 1.437.517 2.077.186 1.11.163 1.228-.513 2.58-.589 1.18-.673 1.498-.49 1.875.19.396.028.767-1.266 2.867-.816 1.326-1.622 2.455-1.788 2.513-.168.056-.897.492-1.62.967-1.233.81-1.42.871-4.534.993l-.417-.77c-.377-.694-.509-.777-1.377-.86-.899-.085-.987-.049-1.317.52-.21.358-.522.607-.759.608-.222-.002-.976-.278-1.67-.612-.697-.334-1.335-.743-1.418-.913-.085-.168-.085-.35 0-.405.083-.053.744.174 1.468.508.723.334 1.407.563 1.519.507s.579-.762 1.041-1.57c.459-.805.961-1.625 1.113-1.822.249-.32.154-.413-.99-.986a33 33 0 0 1-2.582-1.487c-.725-.47-1.613-1.14-2.632-2.134l-.749 1.163a39 39 0 0 1-1.316 1.924c-.312.42-.523.85-.466.962.055.112.739.705 1.518 1.317.78.613 1.387 1.23 1.349 1.367-.036.14-.197.279-.354.311-.159.033-.999-.605-1.87-1.417-.87-.81-1.539-1.566-1.488-1.678.053-.112-.073-.703-.279-1.317-.336-.994-.464-1.144-1.199-1.418-.454-.166-.917-.44-1.029-.607-.119-.172-.184-1.296-.152-2.633.028-1.28-.01-2.42-.087-2.531-.076-.114.414-1.297 1.09-2.632s1.332-2.547 1.46-2.691c.125-.144.435-.257.686-.253.355.006.584-.248 1.041-1.157.324-.64.893-1.386 1.266-1.657.375-.271 1.136-.602 1.692-.736a12 12 0 0 1 2.127-.264m39.231 11.534c-.029.005-.393.3-.81.659l-.76.65c.312 3.294.357 4.388.3 4.556-.065.186.589 1.086 1.693 2.329.988 1.113 2.014 2.223 2.282 2.466.316.288 1.082.559 2.206.782.968.194 2.031.288 2.43.215.388-.071.826-.242.969-.38.144-.135.259-.452.253-.703-.004-.25.211-1.07.481-1.824l.486-1.366c-2.203-2.98-3.107-4.326-3.427-4.911-.322-.583-.654-1.02-.737-.968-.085.05-1.315-.27-2.733-.709-1.418-.44-2.602-.799-2.633-.796M23.768 46.724c-.365-.234-1.048.4-8.228 7.645-5.097 5.144-7.809 8.022-7.78 8.256.028.202.505.57 1.114.861.585.278 1.155.642 1.264.81.11.166.2.417.2.556.002.138-.219.503-.492.811l-.494.557 3.178 3.24c.785-.93 1.146-1.122 1.508-1.12.349.004.67.176.863.462.168.249.303.704.303 1.012-.002.322.191.73.454.966.252.225.547.41.659.411.122-.01 3.696-3.537 7.952-7.851 7.11-7.207 7.731-7.892 7.543-8.309a.75.75 0 0 0-.662-.457c-.251 0-.752-.182-1.114-.405-.48-.294-.66-.555-.665-.96-.004-.308.179-.74.404-.962l.409-.405c-3.13-3.133-3.137-3.136-3.54-2.738-.223.22-.587.4-.81.4-.222 0-.514-.064-.65-.147-.134-.08-.42-.65-.632-1.261-.212-.614-.565-1.23-.784-1.371m-52.856 23.163c-.405-.144-.448-.1-.406.41.033.404.195.627.553.757.277.099.848.123 1.266.054.68-.115.76-.192.76-.737 0-.536-.054-.591-.457-.466a3.5 3.5 0 0 1-.86.142c-.223 0-.61-.071-.857-.16m-81.863-22.808c.166-.004.782.128 1.367.298.689.198 1.394.608 2.007 1.165.519.474 1.203 1.271 1.521 1.771.471.745.577 1.134.573 2.126-.002.816-.12 1.39-.356 1.74-.197.29-3.817 4.096-8.048 8.46-5.867 6.052-7.864 7.99-8.404 8.162-.39.121-1.074.18-1.519.13-.446-.053-1.256-.315-1.796-.584-.543-.272-1.312-.857-1.709-1.302s-.886-1.175-1.086-1.62c-.198-.446-.364-1.197-.366-1.671-.002-.472.095-1.11.215-1.417.121-.306 2.104-2.51 4.404-4.897 2.302-2.387 5.826-6.006 7.831-8.042 2.132-2.162 3.938-3.824 4.353-4.003.389-.168.845-.31 1.013-.316m-143.376 17.824c-.056.008-.638.991-1.29 2.186l-1.19 2.169c.587 1.022.803 1.317.86 1.317.056-.004.574-.754 1.15-1.672.578-.92 1.112-1.853 1.189-2.076.085-.245-.011-.706-.239-1.17-.209-.42-.425-.759-.48-.754m5.682.624c-.065.01-.571.29-1.126.626-.705.423-1.353.634-2.126.693-.612.044-1.176.149-1.255.234-.077.083-.602.906-1.165 1.823l-1.022 1.67c1.636 0 2.122-.184 3.291-.905 1.273-.788 1.601-1.12 2.492-2.531.562-.895.971-1.617.911-1.61m174.651-20.163c.533-.204 1.26-.286 2.126-.235.723.042 1.954.288 2.734.549.78.259 2.192.986 3.14 1.614.945.63 2.247 1.726 2.89 2.438.66.727 1.554 2.045 2.046 3.013.48.948.941 2.177 1.022 2.734.085.592.058 1.373-.07 1.874-.122.473-.663 1.43-1.203 2.126-.561.724-1.32 1.436-1.772 1.663-.494.249-1.319.42-3.623.53l-1.62 1.865a445 445 0 0 0-3.544 4.15c-1.058 1.252-2.151 2.361-2.43 2.461s-.804.235-1.165.3c-.362.065-1.182.02-1.822-.101-.642-.122-1.707-.508-2.37-.86-.663-.353-1.694-1.143-2.29-1.757-.596-.611-1.326-1.613-1.62-2.227-.295-.612-.574-1.522-.623-2.025-.047-.5-.028-1.251.043-1.67.1-.592.63-1.33 2.405-3.342 1.252-1.42 2.797-3.22 3.433-4 1.144-1.4 1.154-1.425.94-2.227-.118-.445-.183-1.316-.142-1.935.06-.94.229-1.362 1.012-2.533.519-.77 1.11-1.558 1.317-1.749.206-.188.74-.484 1.186-.656m-38.573 4.076c-.124-.56-.247-.455-4.068 3.455a1768 1768 0 0 0-7.536 7.766c-3.146 3.27-3.61 3.837-3.721 4.546-.075.476-.016 1.144.139 1.62.146.445.592 1.162.989 1.594.397.431 1.154 1 1.682 1.265.529.266 1.213.483 1.519.485.458.004 1.293-.742 4.709-4.202a1499 1499 0 0 0 7.341-7.495c1.751-1.808 3.23-3.287 3.29-3.29.054 0 .04.113-.033.252-.074.138.112.025.41-.252.299-.28.542-.575.541-.659-.005-.085-.394-.241-.868-.348-.496-.114-1.353-.585-2.025-1.114-.773-.609-1.344-1.274-1.702-1.98-.298-.585-.598-1.325-.667-1.643m-87.805 6.223c-.015-.029-2.58 2.516-5.703 5.654-5.566 5.599-5.688 5.74-6.111 7.029-.235.724-.429 1.385-.427 1.468.005.08 2.532-2.378 5.615-5.467l5.616-5.62c.799-2.328 1.022-3.032 1.01-3.064m27.919 10.253a.7.7 0 0 0-.367.136c-.093.075-.153.348-.135.607.018.26.162.723.318 1.028.158.308.498.752.759.99.262.238.772.58 1.134.76.363.18.932.327 1.266.327s.743-.045.911-.102c.166-.055.304-.192.304-.304-.001-.11-.229-.202-.506-.202-.28 0-.849-.172-1.266-.383-.417-.21-1.017-.642-1.329-.962-.312-.318-.641-.875-.728-1.237-.089-.36-.251-.657-.361-.658m144.22 2.633c-1.269 0-1.315.018-1.315.506 0 .41.123.53.658.631.362.067.931.04 1.265-.066.399-.126.624-.342.659-.632.046-.41-.035-.44-1.266-.44m-48.56-14.578c-.07 0-.224.181-.337.404-.102.195-.161.446-.147.6l.022.117c.017.148-.028.378-.113.549-.11.224-.099.318.028.253.112-.056.203-.01.204.101s-.139.203-.305.203c-.168 0-.3.069-.297.151.002.084-.454.677-1.013 1.317-.654.747-1.063 1.073-1.142.911-.067-.14.147-.526.476-.86s.907-1.041 1.285-1.57c.38-.528.623-1.006.54-1.063-.084-.055-.449.286-.811.758-.363.47-1.638 1.974-2.835 3.34-2.173 2.477-2.177 2.485-2.18 3.546-.005.774.158 1.394.593 2.279.34.692 1.061 1.659 1.675 2.246.591.567 1.555 1.273 2.14 1.57.585.295 1.497.635 2.025.754.662.148 1.213.152 1.772.01.714-.181 1.142-.606 3.643-3.609 1.559-1.87 3.108-3.647 3.442-3.952.46-.415.535-.572.306-.637-.168-.046-.76-.242-1.316-.434-.557-.192-1.65-.742-2.43-1.22s-1.974-1.447-2.652-2.152c-.679-.707-1.507-1.808-1.837-2.448-.332-.64-.662-1.164-.736-1.164m-142.802 8.288c.223-.002.861.219 1.418.49.556.27 1.324.84 1.705 1.267.38.428.858 1.141 1.058 1.586s.369 1.153.371 1.57c.004.593-.14.901-.654 1.403-.573.559-.764.63-1.469.545-.445-.055-1.22-.333-1.72-.618-.537-.306-1.228-.968-1.677-1.608-.549-.777-.78-1.332-.815-1.937a11 11 0 0 1 .009-1.367c.035-.334.287-.663.71-.924.363-.22.841-.405 1.064-.407m-37.048 2.31c-.227-.103-.272.009-.203.507.068.492-.122.986-.823 2.156-.501.835-.909 1.608-.911 1.721 0 .111.244.18.541.152.448-.04.744-.383 1.707-1.974.642-1.057 1.173-2.037 1.181-2.177.008-.15-.235-.253-.594-.253-.334 0-.738-.059-.898-.132m84.619.679c-.085.071-.141.364-.127.651.016.288.303.912.642 1.384.417.585.889.962 1.474 1.177.474.174 1.217.287 1.654.253.438-.035.824-.177.861-.317.036-.141-.045-.2-.187-.133-.14.064-.573.022-.962-.095-.39-.118-1.073-.47-1.518-.786s-1.006-.954-1.247-1.42c-.239-.463-.507-.785-.59-.714m-48.037-2.177c-.089 0-.29.11-.445.243-.156.134-.268.476-.248.76.021.283.142.836.272 1.225.128.388.516 1.012.862 1.384.349.371.905.865 1.239 1.096.575.397.567.377-.125-.372-.402-.435-.972-1.2-1.261-1.703-.29-.502-.531-1.025-.533-1.165s.065-.255.148-.255.259.295.391.658c.131.363.587 1.013 1.012 1.442s1.07.907 1.432 1.063c.362.154.84.281 1.062.281.225 0 .406-.135.406-.303s-.161-.306-.355-.31c-.315-.006-.311-.04.051-.32.403-.312.401-.316-.062-.652a30 30 0 0 1-1.013-.776c-.3-.243-.5-.494-.444-.56s.353.062.659.287c.305.222.555.338.556.256-.002-.084-.235-.426-.52-.76-.326-.385-.549-.514-.606-.355-.048.14-.18.253-.291.253s-.294-.273-.405-.607c-.132-.397-.339-.608-.598-.608-.326 0-.372.098-.269.558.113.511.097.532-.225.253-.192-.168-.388-.464-.439-.658-.049-.194-.162-.354-.251-.355m49.613.534c-.111-.06-.365.055-.565.257-.199.2-.342.585-.318.855.023.269.245.802.492 1.182s.906.948 1.462 1.264c.557.314 1.33.578 1.721.584.397.006.843-.132 1.013-.312.273-.29.234-.322-.405-.32-.391 0-1.029-.174-1.417-.388-.391-.213-.665-.392-.608-.394s.558.13 1.113.298c.557.166 1.239.298 1.519.29q.508-.013-.81-.507c-.868-.326-1.609-.788-2.18-1.356-.474-.474-.853-.97-.839-1.104a.39.39 0 0 0-.178-.349m137.208-3.26c.053 3.904.148 5.587.328 5.877.138.222.7.63 1.251.903.778.389 1.4.516 2.822.579 1.25.055 2.17-.02 2.935-.237.64-.18 1.394-.577 1.773-.931l.658-.618c0-8.464-.023-10.932-.051-10.942-.028-.002-.553.221-1.164.496-.614.276-1.708.596-2.43.712a8.3 8.3 0 0 1-2.634.005c-.725-.111-1.822-.45-2.44-.757l-1.123-.556zm58.454-9.23c.231-.004.817.339 1.297.76.67.585.86.887.81 1.273-.045.35-.205.522-.52.557-.252.028-.555.256-.675.507-.158.328-.158.512.002.658.123.112.223.363.221.557s-.37.628-.814.962c-.445.333-.878.604-.962.601-.083-.002-.29-.138-.456-.3-.267-.26-.407-.194-1.17.56-.756.748-.867.971-.86 1.72.003.699-.113.974-.619 1.468-.51.498-.792.608-1.565.608-.867 0-1.015.08-1.825.962-.876.957-.88.966-.61 1.721.252.709.24.792-.191 1.215-.359.356-.693.456-1.519.456-.992 0-1.057.03-1.057.506 0 .28-.069.62-.152.76s-.312.25-.507.25c-.194-.001-.788-.502-1.316-1.113-.869-1.004-.931-1.142-.644-1.415.176-.168.45-.304.608-.304.16 0 .38-.183.492-.405.142-.284.127-.556-.05-.908-.22-.433-.199-.559.152-.927.223-.235.722-.614 1.113-.842.601-.352.785-.377 1.215-.168.465.226.565.179 1.265-.582.622-.676.737-.928.632-1.383q-.127-.556.253-1.215c.209-.36.654-.806.988-.988s.86-.295 1.165-.253c.431.06.74-.104 1.383-.733.76-.741.808-.853.59-1.317-.134-.277-.187-.71-.12-.962.067-.25.348-.59.628-.759.368-.22.617-.249.911-.101q.405.202.81 0a.67.67 0 0 0 .37-.566v-.303c.015-.19.067-.357.136-.412.094-.075.358-.14.591-.145m.485.59c-.272-.15-.347-.105-.355.22-.007.228-.308.65-.67.94-.455.364-.815.494-1.165.421a.96.96 0 0 0-.856.233c-.334.32-.334.367 0 .874.346.529.34.55-.359 1.396-.39.474-.937 1.022-1.215 1.219-.354.248-.613.302-.86.173-.208-.108-.543-.11-.81-.004-.252.097-.638.376-.86.619-.32.35-.378.6-.268 1.188.127.703.07.813-1.013 1.922-1.09 1.116-1.2 1.177-2.062 1.139-.5-.022-1.023-.029-1.164-.013-.176.018-.218.258-.137.786.079.518.014.903-.202 1.215-.175.251-.57.549-.875.664l-.557.207c1.097 1.095 1.486 1.413 1.57 1.411.082-.003.149-.21.145-.46s.156-.61.354-.796c.211-.2.778-.368 1.373-.405.76-.048 1.002-.14.968-.368a19 19 0 0 0-.172-.911c-.113-.547 0-.732 1.158-1.858 1.186-1.153 1.34-1.242 1.994-1.14.622.098.78.027 1.287-.57.48-.571.552-.802.445-1.393-.12-.642-.044-.798.794-1.67.696-.728 1.072-.963 1.53-.963.33 0 .646.091.703.202s.171.2.254.197c.084-.005.357-.187.608-.405.388-.342.418-.456.202-.798-.185-.29-.196-.548-.044-.961.13-.35.433-.637.81-.758.33-.108.646-.22.703-.253.055-.036-.13-.297-.406-.585-.279-.287-.66-.61-.848-.715m-286.004-2.698c-1.725-.065-2.637.042-3.137.196-.502.152-1.024.421-1.164.598-.211.265-.15.455.354 1.13l.608.81c-.862 1.4-1.205 1.814-1.317 1.82s-.68-.197-1.265-.45c-.585-.252-1.103-.414-1.153-.358-.048.054-.663 1.149-1.366 2.43l-1.278 2.329c.079 3.056.17 3.943.253 3.94.083-.008.671-.85 1.305-1.874 1.04-1.683 1.14-1.938 1.012-2.627-.085-.468-.061-.764.063-.766.111-.001.362.366.556.815.332.763.412.816 1.215.836.474.01 1.064.08 1.311.152.261.075.753.64 1.17 1.347.396.667.717 1.28.715 1.366-.005.083-.348.297-.765.473l-.76.32a16.3 16.3 0 0 0 2.531 2.085c.723.478 1.681 1.05 2.126 1.273.446.221 1.015.46 1.266.532.417.115.456.058.456-.683 0-.445.069-.841.151-.883.084-.038.923.028 1.862.152l1.709.224.835 1.95c1.824-.202 2.685-.5 3.493-.947.696-.385 1.265-.79 1.265-.901 0-.112-.456-.523-1.012-.911-.556-.39-1.016-.777-1.021-.86-.006-.086.132-.29.306-.457s.36-.646.413-1.063l.099-.759 2.487.304c-.237-1.728-.57-2.799-.892-3.493-.39-.85-.7-1.266-.937-1.266-.195.002-.719.098-1.164.213l-.81.212-1.876-2.147c.902-1.019 1.167-1.361 1.167-1.417s-.343-.427-.76-.824c-.417-.399-1.306-.985-1.974-1.305-.668-.318-1.385-.607-1.594-.643-.221-.036-.555.162-.809.484-.355.45-.387.603-.178.86.202.251.202.335 0 .42-.14.058-.665-.032-1.165-.207-.502-.172-1.094-.31-1.317-.308-.315.004-.471-.229-.708-1.059zm94.047 12.944c-.221-.063-.562.267-1.064 1.024-.406.614-.737 1.162-.739 1.22 0 .056.707.364 1.57.686.863.32 2.094.732 2.734.912.639.18 1.185.33 1.214.334s.311-.384.628-.861c.318-.478.956-1.207 1.417-1.62l.841-.752c-2.132.01-2.193.035-1.822.3.222.158.336.356.251.442-.083.085-.767-.136-1.519-.489-.751-.354-1.776-.746-2.276-.872a54 54 0 0 1-1.235-.324m-2.562 2.746c-.028.002-.051.051-.051.106.002.057.388.32.861.587.473.269 1.178.544 1.569.615.52.093.304-.062-.81-.593-.834-.394-1.538-.715-1.569-.715m-34.326-15.986c-.028.006-2.876 2.775-6.328 6.152l-6.279 6.145c1.225 1.842 1.993 2.923 2.496 3.592.502.668.99 1.306 1.085 1.418.114.12 2.529-2.16 6.327-5.974l6.151-6.177a66 66 0 0 0-2.311-3.595c-.599-.861-1.109-1.56-1.141-1.561m132.71 13.242c.102.057.121.219.045.358-.08.14-.695.918-1.367 1.73-.674.81-1.293 1.448-1.377 1.418-.083-.033-.148-.15-.142-.262s.607-.911 1.333-1.775c.727-.867 1.406-1.528 1.509-1.469m1.074.309c.15.002-.33.73-1.065 1.617-.735.888-1.36 1.57-1.392 1.52-.028-.055.452-.783 1.065-1.619.612-.834 1.24-1.518 1.392-1.518m-88.033-.082c-.039-.05-.714.315-1.502.81-.79.496-1.673 1.196-1.961 1.559-.288.362-.522.727-.523.81.002.085.696-.28 1.542-.81.846-.529 1.758-1.258 2.025-1.62.267-.36.455-.699.419-.75m85.504-.097c.225-.48.38-.62.524-.466.141.152.024.46-.38.99a24 24 0 0 1-1.419 1.63c-.456.475-.896.861-.981.862-.083 0 .317-.528.893-1.168.573-.64 1.187-1.471 1.363-1.848m-.647-1.037c.144 0 .306.07.359.152.05.084-.232.472-.624.86a16 16 0 0 0-1.412 1.671c-.38.528-.83.962-.996.962s-.303-.045-.303-.101c.001-.056.5-.693 1.113-1.417.611-.725 1.224-1.5 1.357-1.722.134-.223.36-.405.506-.405m-191.51-1.81c-.059.014-.843 1.132-1.747 2.489-1.186 1.783-1.596 2.555-1.468 2.774.111.19.235.228.33.1a97 97 0 0 0 1.316-1.974c.64-.974 1.278-1.772 1.418-1.773.14-.003.389-.086.557-.187.269-.162.269-.253 0-.813-.168-.349-.351-.626-.406-.617m190.601 1.202c.089 0 .162.07.166.153.001.083-.237.381-.534.658-.296.28-.98 1.03-1.523 1.67s-1.032 1.072-1.087.962c-.057-.112.1-.454.347-.759a38 38 0 0 1 1.463-1.62c.555-.585 1.08-1.063 1.168-1.064m-94.818-3.917c-.126-1.161-.138-1.181-.468-.758-.312.397-.301.506.529 2.169q.108.207.221.431c.486.974.942 1.977 1.013 2.228a.75.75 0 0 1 .026.34c-.015.077-.051.125-.104.125-.112 0-.204-.114-.208-.253-.002-.082-.154-.463-.384-.986a35 35 0 0 0-.522-1.1 36 36 0 0 1-.844-1.79l-.168-.35c-1.122 1.352-1.509 1.86-1.584 1.998-.077.14.269 1.19.769 2.33.498 1.14 1.033 2.256 1.185 2.48.265.384.322.344 1.128-.81l.85-1.216c1.626.383 2.119.476 2.145.452.019-.025-.48-.464-1.114-.974-.714-.573-1.379-1.342-1.748-2.025a6.6 6.6 0 0 1-.722-2.29m-90.919-3.715c1.554.055 1.867.138 3.231.859.83.44 1.953 1.256 2.495 1.812.543.557 1.213 1.47 1.491 2.026.418.838.496 1.245.441 2.367-.059 1.233-.128 1.42-.773 2.085-.478.492-1.074.835-1.823 1.05a5.3 5.3 0 0 1-2.127.194c-.556-.07-1.559-.387-2.227-.705-.668-.316-1.717-.983-2.328-1.478-.614-.498-1.447-1.446-1.852-2.108s-.8-1.568-.877-2.014c-.075-.445-.042-1.173.073-1.619.116-.447.507-1.1.875-1.456.367-.356.894-.744 1.173-.861s1.281-.186 2.228-.151m-10.33 9.465c1.648.77 2.129.976 2.135.953.009-.028.628-1 1.375-2.168.748-1.167 1.358-2.19 1.356-2.278-.004-.083-.258-.152-.564-.152-.305.002-.852-.081-1.212-.183l-.657-.181zm195.018-2.642c.108 0 .23.113.27.253.039.14-.621.956-1.469 1.814-.845.855-1.607 1.516-1.692 1.468-.083-.05.38-.662 1.03-1.358s1.29-1.471 1.422-1.722c.133-.251.33-.455.44-.455m-173.519 1.417c-.865-.111-.877-.103-1.059.607-.162.626-.127.766.268 1.07.249.192.522.352.605.354.084 0 .347-.384.587-.856.239-.471.442-.904.455-.962.01-.055-.375-.153-.856-.213m82.285-8.29c-.719 0-.968.093-1.198.455-.16.249-.444 1.003-.628 1.67-.274.983-.296 1.398-.117 2.178.119.528.344 1.21.498 1.518.153.306.819 1.057 1.479 1.67.66.612 1.651 1.34 2.202 1.615.719.36 1.43.524 2.519.583 1.452.08 1.583.046 2.969-.703l1.448-.785c-.597-1.806-.863-2.284-.975-2.228s-.385.467-.607.912c-.223.445-.7 1.01-1.063 1.255-.36.245-1.068.484-1.57.533-.522.05-1.342-.052-1.923-.238-.642-.206-1.456-.72-2.227-1.409-.669-.595-1.344-1.395-1.501-1.778-.193-.466-.244-1.025-.157-1.705.093-.717.372-1.355.945-2.177.447-.642.813-1.211.813-1.266-.001-.056-.408-.1-.907-.1m-95.783 4.264a6 6 0 0 0-.809.116c-.222.05-.38.176-.353.279s.526.22 1.111.256c.593.036 1.555.297 2.177.589.611.287 1.549.964 2.082 1.503.534.538 1.126 1.367 1.316 1.84.192.472.417.859.5.86.083 0 .196-.091.253-.202.054-.112.016-.546-.087-.962-.105-.417-.591-1.215-1.081-1.772-.512-.583-1.358-1.24-1.987-1.553-.604-.295-1.462-.638-1.907-.757-.446-.12-.992-.209-1.215-.197m.038 1.396c-.48-.002-.538.052-.374.352.105.194.656.788 1.224 1.316.569.528 1.605 1.235 2.301 1.57.697.333 1.379.607 1.519.607s.252-.047.253-.101c0-.055-.13-.353-.287-.658-.158-.306-.637-.894-1.064-1.305s-1.278-.98-1.89-1.264c-.613-.283-1.368-.515-1.682-.517m.974-2.495c-.556-.063-1.329-.026-1.713.08-.385.108-.681.284-.659.393.026.108.613.18 1.309.159 1.04-.03 1.501.072 2.582.583.796.374 1.745 1.05 2.397 1.709.595.597 1.257 1.43 1.468 1.846.213.417.387.943.387 1.165q0 .405.354.353c.223-.033.373-.259.406-.609.028-.305-.098-.85-.278-1.212-.182-.363-.66-1.096-1.063-1.632-.405-.535-1.147-1.238-1.647-1.56-.502-.322-1.275-.714-1.72-.872s-1.266-.34-1.823-.403m184.936 2.701c.14-.004.249.108.245.247-.003.14-.521.845-1.148 1.57-.63.724-1.24 1.427-1.36 1.56-.12.136-.34.183-.489.102-.2-.107-.083-.35.464-.954a30 30 0 0 0 1.383-1.664c.358-.47.765-.857.905-.861m-183.417-5.166q-1.114-.111-1.924.194c-.445.17-.866.384-.937.477s.385.127 1.012.076c.628-.05 1.596.011 2.153.139.556.125 1.308.41 1.671.63.362.223.635.452.607.511s-.645-.083-1.367-.318c-.725-.235-1.818-.428-2.43-.435-.634-.004-1.398.133-1.772.32-.363.178-.659.348-.659.377.006.028.711.05 1.57.052 1.334 0 1.768.094 2.885.626.723.345 1.807 1.074 2.407 1.62.641.584 1.33 1.472 1.67 2.157.319.64.587 1.324.595 1.518.013.304.041.296.189-.05.095-.223.178-.678.184-1.012.004-.334-.171-.995-.391-1.469q-.4-.863-.148-.794c.14.037.459.424.705.861.249.436.458 1.068.462 1.402.01.554.03.572.235.202.123-.223.18-.726.128-1.114-.055-.39-.319-1.152-.586-1.693-.27-.54-.966-1.427-1.551-1.974-.585-.545-1.633-1.262-2.329-1.592s-1.768-.65-2.379-.711m182.676 4.35c.07 0 .12.088.107.193-.016.107-.55.835-1.188 1.62-.64.784-1.278 1.43-1.418 1.436-.14.003.184-.475.72-1.064.535-.59 1.125-1.322 1.309-1.628.186-.306.397-.556.47-.556m-.051-8.83c-.07-.044-.196.262-.28.683-.082.421-.111 1.175-.063 1.677.049.5.426 1.616.837 2.48.577 1.211 1.132 1.954 2.42 3.25 1.205 1.215 2.094 1.902 3.19 2.465.834.431 1.974.903 2.53 1.05.558.147 1.56.265 2.228.26.806-.003 1.454-.136 1.924-.393l.709-.389c-1.883-.006-3.068-.202-3.848-.44s-1.829-.639-2.329-.89c-.502-.25-1.617-1.016-2.48-1.699-.887-.7-1.959-1.79-2.467-2.505-.492-.696-1.124-1.768-1.401-2.38-.28-.613-.583-1.557-.674-2.1-.091-.542-.225-1.024-.296-1.069m-88.508 5.45c-.271.36-.668.95-.883 1.31-.354.59-.365.733-.116 1.519.172.542.627 1.2 1.216 1.763.516.495 1.395 1.109 1.952 1.364.757.346 1.217.43 1.822.34.446-.067.897-.201 1.002-.298.113-.103-.074-.176-.455-.176-.356 0-1.126-.178-1.712-.393-.583-.216-1.198-.545-1.366-.731-.253-.282-.128-.267.759.089.585.235 1.588.474 2.227.533l1.165.107 1.417-1.97c-1.569-.23-2.389-.46-2.835-.66a11 11 0 0 1-1.62-.962c-.445-.326-1.095-1.021-1.445-1.543l-.636-.95zm-43.875-7.747c-.157.003-2.069 1.753-4.252 3.893a3473 3473 0 0 1-6.304 6.16l-2.329 2.262c3.139.944 4.346 1.27 4.708 1.335.632.113.827-.045 4.861-3.982 2.31-2.253 5.137-5.012 6.281-6.125s2.078-2.072 2.078-2.126c-.004-.057-1.077-.398-2.384-.76-1.31-.36-2.507-.655-2.659-.657m131.871 10.157c.11.033.233.173.272.312.036.142-.569.94-1.347 1.772-.779.835-1.464 1.426-1.52 1.316-.056-.111.414-.818 1.04-1.57.627-.75 1.189-1.482 1.247-1.627.058-.144.199-.236.308-.203m4.59-10.97c-.539 0-1.278.189-1.81.458-.697.352-.989.662-1.293 1.366-.291.68-.358 1.143-.258 1.824.075.5.442 1.548.816 2.328.375.78 1.168 1.997 1.766 2.704.595.709 1.63 1.699 2.298 2.201.668.5 1.715 1.166 2.329 1.475.611.31 1.66.71 2.329.886.668.176 1.579.32 2.024.32.446-.002 1.197-.182 1.671-.4.474-.221.966-.61 1.096-.858.131-.252.307-.776.394-1.164.09-.401.063-1.149-.058-1.722-.12-.557-.534-1.65-.923-2.43-.514-1.034-1.155-1.854-2.365-3.037-1.152-1.124-2.153-1.88-3.269-2.463-.885-.461-2.11-.985-2.722-1.166-.613-.178-1.525-.324-2.025-.322m-87.836 2.647c-.083.008-.334.097-.557.198-.222.103-.929.37-1.569.596-1.059.37-1.203.496-1.596 1.37-.411.916-.417 1.01-.115 1.975.187.596.687 1.43 1.213 2.025.492.556 1.343 1.258 1.888 1.56.544.3 1.445.635 2.002.742.583.114 1.399.124 1.924.029.696-.13 1.067-.352 1.576-.946.625-.735.662-.865.658-2.347-.006-1.537-.017-1.567-.462-1.42-.251.084-.776.145-1.165.136-.391-.008-1.142-.259-1.67-.554-.528-.298-1.16-.839-1.403-1.2-.241-.362-.471-1-.507-1.417-.037-.42-.134-.753-.217-.747m89.9-.022c.782 0 1.428.168 2.345.608.697.334 1.687 1.04 2.203 1.569s1.143 1.373 1.392 1.873c.25.502.518 1.184.597 1.519.089.386.024.883-.178 1.367-.199.473-.527.842-.875.98-.306.12-.922.184-1.367.14-.446-.045-1.353-.35-2.017-.677s-1.689-1.073-2.278-1.658c-.59-.585-1.3-1.52-1.577-2.076-.28-.557-.5-1.339-.49-1.738.01-.508.185-.899.59-1.316.494-.508.73-.59 1.656-.59m36.981 4.1c-.075-.044-.122.36-.102.901.039.96.065.997 1.051 1.531.58.314 1.665.65 2.531.788 1.286.205 1.77.19 3.14-.093.915-.189 1.952-.553 2.379-.838.69-.46.76-.588.76-1.416 0-.502-.068-.885-.153-.853-.083.035-.699.33-1.367.658-1.121.553-1.385.6-3.442.6s-2.319-.047-3.442-.6a62 62 0 0 1-1.355-.677m-36.914-3.604c-.644-.101-.892-.049-1.201.26-.245.244-.377.63-.355 1.032.02.352.128.642.24.642.11 0 .158.136.101.303-.056.169.158.692.474 1.166.316.473.976 1.194 1.468 1.603s1.393.978 2.006 1.264c.614.287 1.366.52 1.671.522a2.8 2.8 0 0 0 1.07-.25c.404-.201.51-.402.504-.963-.005-.397-.263-1.154-.587-1.721-.32-.557-1.025-1.417-1.568-1.913-.544-.497-1.444-1.109-2-1.358-.557-.25-1.377-.514-1.823-.587m49.91 4.388c-.056.007-.535.35-1.066.76-.535.41-.853.776-.71.817.143.038.625-.303 1.068-.759.443-.457.762-.826.708-.818m-2.026-2.24c-.227 0-.462.122-.523.271-.06.152-.083.9-.047 1.665l.067 1.392 1.369-1.201c-.413-1.921-.537-2.126-.866-2.126m-88.389-3.201c-.601-.061-.904.014-1.167.291-.196.207-.309.535-.253.73.057.195.194.309.306.255.111-.057.29.285.395.759.14.617.47 1.128 1.164 1.81.535.523 1.224 1.047 1.53 1.164a4.2 4.2 0 0 0 1.214.223c.363.006.794-.14.962-.323.219-.241.261-.525.152-1.02-.083-.38-.447-1.107-.81-1.617-.362-.508-1.114-1.211-1.671-1.56-.556-.346-1.376-.668-1.822-.712m91.633.593c-.057.01-.62.58-1.256 1.262l-1.154 1.243.512 2.025c1.972-1.883 2.629-2.59 2.728-2.785.13-.253.05-.556-.273-1.06-.251-.388-.502-.695-.557-.685m-8.91.48c-.725-.05-1.82.02-2.431.16-.613.138-1.421.431-1.8.652-.376.22-.811.585-.97.808-.255.362-.227.474.282 1.075.346.411.955.802 1.577 1.013.696.235 1.612.334 2.936.318 1.256-.014 2.24-.142 2.835-.365.5-.188 1.118-.54 1.373-.785.253-.245.458-.606.456-.8-.004-.197-.257-.586-.563-.867-.306-.284-.968-.648-1.468-.814-.502-.166-1.504-.345-2.227-.395m-237.875 2.365-.442.875c1.033.506 1.117.488 1.435.063.192-.257.349-.514.351-.569.002-.057-.2-.359-.451-.673l-.454-.573zm107.695-3.479c-.318 0-.745.166-.947.37-.205.203-.356.454-.338.557.018.102.143.072.279-.066.136-.14.32-.253.409-.253s.115.183.061.405c-.057.223.034.632.202.911.166.278.6.689.962.91s.863.404 1.114.404c.251.002.6-.204.774-.453l.317-.456c-.103.79-.342 1.11-.636 1.257l-.506.255c.784.014 1.179-.143 1.383-.342.259-.253.336-.528.253-.917-.065-.307-.413-.891-.775-1.298s-.954-.862-1.317-1.012c-.362-.15-.917-.271-1.235-.272m142.662-3.038c-.48 0-.834.165-1.203.558-.288.306-.614.783-.726 1.063-.11.277-.21.368-.22.203-.01-.169.197-.647.458-1.064.263-.418.42-.759.35-.76-.07 0-.441.324-.826.72-.618.639-.697.844-.697 1.808 0 .787.118 1.243.426 1.658.235.316.643.606.91.646.45.07.465.047.183-.3-.293-.362-.285-.362.253-.024.306.194.808.354 1.114.359.305.004.808-.178 1.114-.405s.657-.754.783-1.17c.126-.42.17-1.102.102-1.52a2.07 2.07 0 0 0-.734-1.265c-.382-.32-.858-.507-1.287-.507m-1.219.997c.215-.297.387-.396.423-.247.034.14-.028.436-.14.659-.11.222-.202.609-.2.86 0 .251.136.707.304 1.013.267.493.267.556-.002.556-.168 0-.395-.226-.507-.506-.111-.277-.21-.804-.222-1.17-.01-.365.144-.89.344-1.165m33.532-44.34c.844 0 .952.08 5.53 4.68l1.048.038c.801.03 1.172.157 1.587.545.3.278.67.758.828 1.064.156.306.284.852.282 1.215 0 .573.328.986 2.533 3.19 2.126 2.123 2.534 2.627 2.53 3.138-.003.334-.072.715-.155.846-.084.135-2.108 2.232-4.502 4.66-2.393 2.432-5.607 5.719-7.137 7.304-2.604 2.697-2.834 2.884-3.544 2.888-.705.002-.948-.187-3.392-2.63-1.942-1.943-2.793-2.66-3.24-2.728-.37-.057-.904-.413-1.367-.914-.417-.45-.825-1.07-.904-1.376-.087-.337-1.17-1.56-2.735-3.09-1.954-1.909-2.59-2.654-2.59-3.036 0-.28.336-1.009.745-1.62.41-.612 3.246-3.666 6.306-6.785 3.06-3.118 5.955-6.056 6.433-6.53.754-.745.989-.86 1.744-.858M11.74 24.807c-.067 0-.29.168-.493.373-.204.202-.356.453-.34.556.017.102 1.082 1.212 2.366 2.465 1.282 1.25 2.401 2.277 2.486 2.278.083.002.367-.158.628-.354l.476-.355c-3.874-3.845-5.056-4.962-5.123-4.963M25.79 10.69c-.086-.024-.886.728-1.777 1.67-.891.941-3.899 4.04-6.683 6.886l-5.062 5.176c2.353 2.36 3.477 3.427 4.015 3.892l.98.845C27.425 18.962 30.418 15.863 30.47 15.693c.055-.186-.796-1.197-2.217-2.633-1.269-1.279-2.379-2.346-2.465-2.369m-280.315-7.093c1.008.032 1.622.192 2.632.682.82.401 1.8 1.124 2.602 1.924.855.85 1.493 1.722 1.9 2.597.336.725.696 1.863.798 2.53q.186 1.216-.037 2.229c-.123.556-.396 1.284-.607 1.619s-2.916 3.13-6.013 6.213c-5.518 5.49-5.654 5.609-6.844 5.943-.907.255-1.525.302-2.43.186-.703-.089-1.772-.43-2.531-.811-.877-.438-1.72-1.09-2.518-1.943-.701-.75-1.452-1.833-1.808-2.602-.46-.986-.632-1.695-.695-2.835-.063-1.146.007-1.741.286-2.43.247-.611 1-1.545 2.296-2.84a943 943 0 0 1 6.083-5.987c2.851-2.782 4.373-4.125 4.861-4.285.389-.128 1.3-.213 2.025-.19m181.795.748c.265.757.494 1.06.911 1.214.506.185.603.137 1.063-.506.325-.456.668-.706.961-.703.252.003 1.004.3 2.886 1.31v1.08c0 .946.07 1.126.558 1.468.451.314.73.36 1.468.237.813-.135.964-.097 1.397.355.267.277.725.87 1.019 1.315.293.446.53.97.526 1.165s-.229.606-.502.911c-.433.484-.464.61-.233.962.145.223.699.541 1.23.71.532.165 1.038.394 1.125.505.087.112.19.944.229 1.85.066 1.586.042 1.686-.59 2.583-.653.927-.655.937-.303 1.543.35.605.346.624-.33 1.873-.377.694-.833 1.43-1.013 1.63-.214.241-.488.328-.784.254-.378-.093-.54.04-.962.797-.291.527-.785 1.053-1.164 1.245-.632.322-.682.318-1.266-.107-.334-.243-.676-.44-.76-.435-.083.003-.448.424-1.467 1.851l-3.848-.124-.321-1.013c-.253-.791-.442-1.044-.861-1.164-.456-.127-.64-.04-1.855 1.298l-1.518-.692c-.835-.379-1.633-.842-1.773-1.027-.14-.186-.206-.43-.151-.54.056-.113.056-.569-.102-1.823h-2.835l-.91-1.367c-.503-.75-.912-1.526-.912-1.72 0-.195.225-.698.5-1.115.297-.454.426-.84.321-.962-.097-.111-.526-.328-.955-.481-.427-.152-.895-.382-1.039-.507-.174-.15-.259-.754-.253-1.796.006-1.221.097-1.705.413-2.177.288-.431.37-.8.29-1.266-.086-.492.004-.82.354-1.304.26-.357.835-1.173 1.28-1.817a19 19 0 0 1 1.896-2.239c.597-.587 1.211-1.069 1.366-1.07.156 0 .577.183.94.406.362.22.704.407.759.411.057.004.395-.452.753-1.01l.65-1.021h3.457zm-127.484-3.239c.366.002 1.073.206 1.569.455a3.7 3.7 0 0 1 1.472 1.366c.416.668.565 1.168.563 1.873-.002.753-.101 1.04-.457 1.326-.251.198-1.732 1.656-6.126 6.11l.555 1.065c.303.587.636 1.523.735 2.08.105.589.107 1.288.002 1.67-.097.363-.452.885-.786 1.165-.334.277-.859.516-1.164.528-.306.01-.83.005-1.164-.014-.334-.018-1.199-.31-1.924-.646a16 16 0 0 1-2.431-1.387l-.657.534c-.362.296-2.823 2.619-5.468 5.164-3.003 2.892-4.961 4.629-5.215 4.63-.222 0-.609-.104-.86-.227a5 5 0 0 1-.918-.659c-.336-.315-.455-.648-.445-1.24.012-.788.158-.953 10.728-11.24l-.417-.658a15 15 0 0 1-.822-1.57 11.4 11.4 0 0 1-.589-1.72c-.109-.486-.109-1.094 0-1.52.101-.39.351-.916.551-1.174.202-.255.686-.542 1.075-.635.403-.097 1.102-.092 1.62.015.502.104 1.394.436 3.054 1.288l2.371-2.338c1.304-1.288 2.846-2.769 3.427-3.291.807-.731 1.208-.952 1.721-.95m171.269-.73c.245-.252.563-.295 1.524-.195.669.068 1.274.237 1.347.373.073.137.184 2.117.25 4.398.064 2.278.143 4.16.171 4.182.033.016 2.061.364 4.51.773 2.45.41 4.684.853 4.962.985.48.228.507.338.62 4.083l-4.21 4.369c-2.314 2.401-4.844 5.07-5.624 5.931-1.266 1.397-1.493 1.563-2.127 1.551-.389-.008-1.117-.11-1.62-.225-.5-.117-2.596-.526-4.658-.909-2.05-.38-3.749-.716-3.784-.745-.022-.026-.114-.796-.367-3.368l-1.316-.243c-.723-.134-1.383-.344-1.464-.468-.083-.126-.15-2.554-.15-10.55l4.948-4.81C-31.04.75-30.98.7-30.122.7c.529 0 .99-.126 1.177-.322m-85.703.139c.585-.01 1.541.085 2.126.21.585.126 1.565.45 2.177.721.613.272 1.602.875 2.197 1.341.597.468 1.426 1.304 1.843 1.861s.921 1.33 1.12 1.721c.2.389.486 1.118.637 1.62.15.502.326 1.594.391 2.43.093 1.188.027 1.872-.309 3.14-.237.89-.74 2.121-1.119 2.733-.376.611-1.17 1.581-1.761 2.152-.592.57-1.484 1.268-1.987 1.552-.5.281-1.276.61-1.721.725s-1.061.26-1.367.32c-.354.07-.555.239-.555.466.001.195-.385.747-.861 1.228-.846.859-.889.875-2.28.9-.921.016-1.829-.114-3.768-.762l-3.708 3.848-1.121.067c-.997.06-1.232-.008-2.105-.608-.674-.461-1.138-.992-1.479-1.687-.392-.802-.465-1.18-.356-1.822.116-.658.472-1.153 3.676-4.455l-.476-1.013c-.259-.557-.532-1.422-.603-1.924-.073-.502-.031-1.23.091-1.62.123-.39.544-1.05.935-1.468.62-.66.713-.893.713-1.772 0-.557.103-1.49.229-2.075.123-.586.502-1.61.838-2.279.337-.668 1.169-1.792 1.849-2.495.761-.791 1.701-1.51 2.45-1.879.668-.33 1.671-.725 2.228-.879a10 10 0 0 1 2.076-.297m-144.656 6.672c-.021 0-2.151 2.072-4.733 4.607-3.853 3.782-4.751 4.77-5.018 5.518-.237.663-.294 1.27-.202 2.228.081.856.34 1.756.743 2.582.356.729 1.069 1.699 1.682 2.292.586.565 1.52 1.247 2.076 1.518.557.27 1.513.598 2.126.73.972.206 1.264.188 2.285-.152 1.087-.363 1.494-.711 5.623-4.844 2.447-2.45 4.448-4.454 4.447-4.455l-1.27-.023c-.826-.012-1.614-.174-2.276-.467-.557-.245-1.5-.829-2.098-1.296-.597-.466-1.443-1.394-1.879-2.062-.437-.668-.986-1.852-1.221-2.632-.29-.964-.397-1.76-.336-2.481.048-.583.072-1.059.051-1.063m189.549 17.044c-.134-.113-.52.29-1.064 1.11l-.852 1.289 2.53-.03 1.722-2.198c-1.648.004-2.221-.073-2.337-.17m-88.938-21.088c.306-.008 1.082.148 1.722.346.64.199 1.656.677 2.257 1.064.602.386 1.434 1.112 1.847 1.614a13.4 13.4 0 0 1 1.317 2.024c.376.748.595 1.548.662 2.43.052.724-.003 1.634-.124 2.025-.162.525-1.855 2.34-6.512 6.987-3.695 3.689-6.602 6.425-7.046 6.638-.561.266-1.146.345-2.273.302-1.161-.042-1.783-.184-2.633-.602-.612-.301-1.602-1.03-2.197-1.62-.636-.631-1.345-1.616-1.719-2.39-.46-.953-.655-1.678-.707-2.632-.041-.725.036-1.725.172-2.228.22-.811.928-1.59 6.5-7.137 5.562-5.54 6.359-6.26 7.215-6.517.529-.16 1.213-.295 1.519-.304m87.883 19.44c-.083.003-.483.527-.886 1.165-.662 1.05-.713 1.227-.526 1.87l.205.708c1.705-2.252 1.749-2.378 1.56-3.038-.11-.39-.27-.705-.353-.704m-146.114-3.187c-3.406 3.33-5.223 5.247-5.221 5.51.002.223.164.555.364.737.199.18.543.383.766.448.324.095 1.464-.912 5.67-5.006l5.265-5.123-1.62-1.671zm89.366 2.779c-.112 0-.256.249-.324.556-.085.383.027.838.363 1.468.306.571.783 1.08 1.285 1.363.439.25 1.071.456 1.405.46s.774-.11.977-.252c.334-.23.285-.283-.506-.538-.504-.162-1.284-.676-1.839-1.215-.53-.512-1.009-1.138-1.063-1.387-.055-.251-.189-.455-.298-.455m105.888-4.251c-3.045 3.152-5.381 5.41-5.67 5.477-.27.065-1.719-.09-3.221-.346-1.505-.255-3.419-.61-4.253-.788a98 98 0 0 1-1.873-.413c-.314-.076-.348.064-.304 1.18l.05 1.263c7.059 1.328 9.26 1.692 9.441 1.668.181-.027 1.587-1.367 3.123-2.983a484 484 0 0 1 5.395-5.568l2.602-2.633-.107-2.22zm-146.037-6.551c-4.087 4.136-5.22 5.396-5.421 6.038-.147.47-.212 1.319-.153 2.025.061.717.31 1.628.609 2.228.28.557.931 1.444 1.446 1.975.516.528 1.416 1.2 2.001 1.494.664.334 1.519.569 2.278.626.822.062 1.444-.009 1.924-.22.419-.182 2.767-2.373 5.766-5.382 4.599-4.617 5.001-5.074 4.455-5.072-.332 0-1.105-.144-1.716-.322-.614-.179-1.524-.581-2.025-.895-.502-.314-1.26-.968-1.683-1.45-.425-.484-1.053-1.426-1.395-2.094-.439-.856-.668-1.654-.771-2.697l-.149-1.485zm102.156 10.599c-.085 0-.323.113-.523.253-.312.214-.336.36-.164.961.158.543.138.815-.083 1.165-.255.403-.247.49.067.753.194.162.423.3.506.304.084.002.29-.154.46-.348l.905-1.063.6-.709c-1.247-1.02-1.68-1.316-1.768-1.317m-10.782-.004c-.056.002-.49.504-.962 1.118-.47.61-.833 1.146-.806 1.19.028.043.529.316 1.114.608.585.291 1.154.484 1.266.43.111-.058.575-.583 1.033-1.166l.828-1.062c-1.831-.867-2.412-1.12-2.473-1.118m49.014 2.02c.111 0 .203.32.203.708 0 .404-.088.666-.203.608-.111-.055-.202-.375-.202-.71 0-.333.09-.606.202-.607m45.007-1.623c.195.003.628.185.962.407.334.223.652.587.709.81.054.223-.005.61-.132.86-.128.251-.333.523-.456.604-.122.083-.451.154-.729.16-.279.006-.757-.176-1.063-.402-.405-.298-.565-.603-.583-1.109-.022-.53.088-.774.455-1.015.265-.174.643-.315.837-.315m-8.769-1.1c-.358-.089-.63-.01-.897.255-.253.252-.37.618-.34 1.076.022.38.153.897.289 1.146.134.251.519.638.853.86.334.223.885.406 1.225.406s.729-.114.864-.251c.136-.14.244-.527.242-.862s-.187-.905-.408-1.265c-.222-.363-.609-.79-.86-.95a4 4 0 0 0-.968-.415m-135.274.656c-.19-.417-.417-.698-.506-.623-.089.073-.148.368-.13.656s.264.842.547 1.232c.286.39.903.91 1.371 1.155.47.245 1.194.452 1.611.456.418.006.76-.081.76-.193 0-.11-.069-.163-.152-.115-.084.046-.517-.075-.962-.273a7.4 7.4 0 0 1-1.502-.949c-.381-.324-.849-.93-1.037-1.346m143.872 1.66c-.378.001-.506.092-.455.333a1 1 0 0 0 .372.537.81.81 0 0 0 .658.072c.28-.103.312-.218.152-.536-.123-.249-.405-.405-.727-.405m-89.644-1.608c-.194-.002-.352.112-.348.252.002.137-.272.64-.608 1.114-.337.47-.59.895-.563.941s.228.114.442.152c.284.05.606-.237 1.166-1.043.567-.815.707-1.154.52-1.263a1.5 1.5 0 0 0-.609-.152m90.068.819c-.282.008-.312.045-.102.118.166.06.51.346.76.642q.455.54.462.232c.004-.166-.157-.461-.355-.651-.198-.192-.543-.347-.765-.341m-143.498-2.137c-.314-.538-.365-.56-.434-.202-.042.223-.002.679.091 1.013s.373.82.62 1.08c.249.262.726.619 1.06.793s.924.384 1.315.468c.508.109.78.07.962-.134.21-.237.144-.3-.404-.377-.413-.057-1.068-.453-1.756-1.063-.604-.532-1.258-1.244-1.454-1.578M-76.037 5.1l.127.971-1.733.695-1.948-1.504c-1.154 1.096-1.537 1.437-1.594 1.462-.055.028.24.458.656.961.745.9.756.934.507 1.746l-.254.83c-2.304-.24-2.328-.23-2.328.265 0 .358-.088.476-.304.406q-.303-.101-.911.91c-.464.774-.61 1.262-.616 2.076l-.006 1.063c1.354-1.704 1.573-2.154 1.498-2.43-.06-.222-.01-.474.114-.557.144-.096.223.013.221.304-.004.39.172.498 1.243.76 1.012.247 1.28.4 1.421.81.095.277.278.688.403.911.193.344.14.472-.354.859-.321.25-.65.454-.734.455-.084 0-.153.093-.153.205s.343.682.76 1.27l.759 1.067c1.992-.294 2.203-.256 2.738.143.579.43.607.517.506 1.519l-.106 1.063c1.883.942 2.5 1.18 2.582 1.14.084-.04.288-.365.456-.717.166-.354.395-.637.506-.632.112.006.612.135 1.115.285.83.246.948.364 1.316 1.313l.404 1.041h2.735l-.102-2.057 1.722-.575 1.924 1.571 2.024-1.77-1.924-1.826.543-1.722 1.888.102v-2.633c-2.187-.685-2.291-.775-2.651-1.67l-.387-.962 1.316-.982c-.94-1.313-1.328-1.777-1.468-1.877-.147-.104-.612-.102-1.114.005-.816.177-.906.148-1.724-.556-.832-.717-.858-.774-.758-1.703l.103-.962-2.127-1.062-1.215 1.44c-1.883-.46-1.994-.557-2.324-1.39l-.358-.912-2.522-.124zm89.6 11.542c-.46-.11-.787.143-2.733 2.098-1.77 1.782-2.118 2.22-1.753 2.22.25-.001.79.295 1.197.657.409.363.886.997 1.062 1.41l.322.753 4.405-4.34c-.745-1.54-1.188-2.142-1.468-2.33a3.7 3.7 0 0 0-1.031-.469m-90.192 3.711c-.03 0-.404.426-.83.945-.54.662-.76 1.115-.733 1.518l.041.575c1.04-1.334 1.397-2.019 1.462-2.38s.093-.657.06-.658m45.285-4.922c-2.967 3.045-5.35 5.575-5.292 5.62.056.043 1.469.35 3.138.68 1.67.327 3.7.723 4.508.874l1.473.278c8.391-8.598 10.851-11.15 10.882-11.219.027-.067-.337-.188-.81-.27-.476-.082-2.584-.454-4.686-.825l-3.82-.678zm-89.979-3.183c-.079.002-.399.28-.709.615-.311.338-.726.611-.921.608-.194-.002-.518-.288-.717-.634-.334-.581-.379-.601-.584-.253-.139.239-.167.786-.074 1.49.081.614.413 1.616.735 2.228.324.611 1.204 1.729 1.956 2.48 1.055 1.055 1.794 1.574 3.24 2.273 1.03.497 1.69.904 1.469.907-.223 0-1.044-.308-1.824-.687-.779-.378-2-1.219-2.712-1.869-.713-.648-1.541-1.544-1.843-1.99s-.744-1.333-.983-1.975c-.239-.64-.437-1.414-.441-1.721-.006-.54-.017-.544-.32-.152-.233.304-.279.658-.18 1.417.073.557.372 1.515.666 2.126.294.614 1.094 1.708 1.776 2.43.887.944 1.724 1.572 2.943 2.214 1.478.78 1.903.91 3.221.982l1.519.083 1.62-1.664c-1.176.006-1.723-.07-1.975-.164-.251-.095-.518-.3-.597-.456-.081-.166.112-.688.456-1.247.328-.529.597-1.007.597-1.064 0-.054-.205-.103-.456-.105s-.82-.17-1.265-.374c-.446-.204-1.266-.78-1.822-1.278-.557-.5-1.307-1.357-1.664-1.904-.358-.548-.722-1.293-.809-1.658-.089-.364-.225-.66-.302-.658m-3.355 7.6c-.185-.551-.219-.571-.363-.203-.105.268-.026.646.229 1.114.215.389.844 1.008 1.401 1.373.701.461 1.232.658 1.722.641.645-.022.663-.038.202-.177a8 8 0 0 1-1.114-.472c-.334-.176-.893-.622-1.241-.994-.349-.37-.725-.948-.836-1.282m47.691-.704c-.14.002-.64.55-1.114 1.216-.474.664-.816 1.3-.759 1.411.055.112.215.2.355.197s.64-.55 1.113-1.215c.473-.663.813-1.299.76-1.411a.42.42 0 0 0-.355-.198m80.009-3.051c-.073.004-.256.286-.405.626l-.274.618c3.45 3.434 4.5 4.429 4.557 4.427.057-.005.257-.21.445-.457.338-.44.308-.488-1.924-2.834-1.247-1.312-2.325-2.383-2.4-2.38m-126.165 4.362c-.962-.937-1.011-.962-.655-.326.213.378.636.881.94 1.114.303.235.599.38.654.326.054-.057-.368-.557-.939-1.114m144.73-1.528c.111-.007.453.172.758.398.377.277.555.592.55.969-.001.306-.161.719-.354.917-.19.198-.53.362-.753.362s-.656-.186-.962-.413c-.323-.239-.554-.6-.552-.866 0-.251.073-.547.158-.66.085-.114.334-.317.553-.45.218-.136.49-.251.601-.257m-100.178.212c-.684 0-.84.111-1.676 1.214l-.922 1.216c1.425.016 1.616-.102 2.314-.954.438-.532.852-1.086.918-1.224.085-.18-.102-.252-.634-.252m-3.58-1.211-.84 1.209 1.316 2.252a97 97 0 0 1 1.543-1.796c.32-.362.492-.705.38-.76-.11-.057-.507-.555-.88-1.108l-.679-1.008zm52.068.804c.417-.004 1.01.115 1.316.267s.626.448.711.658c.097.237.04.556-.152.839-.186.277-.601.504-1.065.581-.416.069-1.033.065-1.367-.01-.334-.073-.769-.288-.968-.478s-.375-.55-.391-.796c-.02-.31.154-.543.563-.751.326-.166.936-.306 1.353-.31m51.36 1.41c-.257 0-.39.1-.332.252.053.14.242.345.418.456.178.111.396.136.485.053.09-.083.094-.288.011-.456s-.345-.305-.582-.306M-27.833.906c-.624 0-.993.256-2.886 2.003-1.195 1.102-2.49 2.335-2.88 2.738-.39.405-.821.732-.961.73-.14-.001-.254-.048-.254-.105.002-.056.48-.533 1.063-1.06.586-.529 1.633-1.509 2.327-2.177.695-.67 1.264-1.286 1.266-1.37 0-.082-.123-.129-.28-.1-.153.028-2.385 2.124-4.961 4.658l-4.68 4.606.102 9.589 2.11.435c.115-9.342.103-9.526-.288-9.724-.223-.116-.433-.389-.468-.608-.036-.23.288-.852.76-1.463.506-.654.977-1.064 1.227-1.064.222 0 .401.07.399.152-.005.085-.438.598-.962 1.142-.937.97-.948.992-.507 1.215.41.204.655.03 2.735-1.958 1.255-1.201 3.537-3.342 5.07-4.759 1.532-1.414 2.784-2.643 2.784-2.728 0-.083-.324-.152-.717-.152m-2.175 18.222c-.365 0-.8.138-.966.303-.223.223-.235.304-.046.304.143 0 .236.114.208.253-.032.164.25.271.81.304.522.03.82-.028.76-.152-.057-.11.08-.202.303-.202s.405-.091.405-.203c0-.111-.183-.294-.405-.405s-.703-.202-1.07-.202m46.93-17.01c-.267.001-2.692 2.326-6.987 6.702l-6.577 6.7 4.785 4.725C18.639 9.729 21.683 6.631 21.678 6.576c-.01-.062-.988-1.087-2.177-2.282-1.347-1.354-2.325-2.178-2.579-2.177M-114.6 1.331c-.391.014-1.12.105-1.62.202-.503.097-1.505.468-2.228.824-.729.359-1.769 1.104-2.334 1.673-.559.565-1.312 1.62-1.673 2.343-.36.725-.751 1.91-.869 2.633s-.152 1.635-.077 2.024c.075.391.221.938.322 1.216l.189.506c1.605-1.648 1.8-1.745 2.467-1.687l.758.067c-.008-1.523.179-2.188.566-2.937.354-.686.919-1.37 1.473-1.788.494-.37 1.4-.813 2.014-.983.911-.255 1.314-.27 2.228-.08.611.128 1.522.494 2.024.814.5.32 1.148.887 1.437 1.26.29.372.697.996.902 1.385.269.508.375 1.14.375 2.227 0 1.14-.105 1.722-.421 2.33a10 10 0 0 1-.92 1.417c-.275.334-.992.857-1.596 1.158-.601.304-1.435.6-1.852.659-.733.103-.757.133-.717.866.028.534-.136 1.055-.558 1.756l-.598.998c3.725-.18 4.244-.29 5.264-.785.669-.324 1.694-1.072 2.279-1.66.635-.64 1.351-1.656 1.78-2.537.411-.838.816-2.076.947-2.885.174-1.065.172-1.744-.004-2.734-.129-.723-.571-1.998-.982-2.835-.474-.96-1.164-1.934-1.879-2.646-.658-.658-1.677-1.396-2.444-1.77-.725-.355-1.818-.736-2.43-.85-.614-.113-1.434-.195-1.823-.181M21.738 19.326c-.14.002-.252.073-.247.156.004.084.23.312.505.506.348.247.503.278.505.102.002-.14-.114-.368-.254-.51-.141-.14-.37-.256-.51-.254M-31.968 6.311l-5.097 5.024.125 8.627 10.429-10.753-.363-7.922zm-41.117 2.135c.974.045 1.672.231 2.684.715.751.359 1.832 1.085 2.403 1.613.57.529 1.299 1.488 1.62 2.127.32.64.639 1.507.706 1.924.064.417.02 1.147-.102 1.62-.124.474-.519 1.186-.88 1.585-.463.51-.991.82-1.772 1.041-.94.265-1.32.276-2.431.068-.725-.138-1.727-.458-2.228-.713s-1.397-.91-1.992-1.45c-.672-.612-1.306-1.448-1.673-2.202-.324-.668-.646-1.58-.713-2.025-.072-.472-.012-1.149.144-1.62.148-.446.5-1.076.784-1.402.282-.326.88-.76 1.324-.967.592-.276 1.165-.36 2.126-.314m91.728 2.594c-.058 0-1.287 1.183-2.734 2.63-2.08 2.084-2.533 2.633-2.172 2.633.251 0 .826.34 1.279.757.451.42.932 1.057 1.063 1.421l.24.66c4.035-4.039 4.96-5.116 4.955-5.372-.004-.222-.21-.751-.456-1.174a3.16 3.16 0 0 0-1.26-1.16c-.445-.217-.856-.393-.915-.395m-80.482 6.883c-.34 0-.535.142-.623.456-.07.249-.032.547.085.658.144.136.349.07.63-.203.23-.223.413-.52.41-.658-.005-.14-.23-.253-.502-.253m-11.685-6.644c-.52-.09-1.34-.108-1.822-.039-.482.071-.99.189-1.13.262s-.253.362-.253.64c0 .28.176.984.39 1.569.233.638.822 1.537 1.468 2.248.689.757 1.516 1.4 2.293 1.782.966.478 1.517.607 2.69.64 1.118.028 1.526-.035 1.682-.266.114-.166.168-.76.121-1.316-.048-.596-.324-1.462-.668-2.104-.322-.601-.915-1.377-1.32-1.722a9.8 9.8 0 0 0-1.62-1.079 8 8 0 0 0-1.831-.615M-211.67 7.19c-.639 0-.988.115-1.265.424-.28.308-.375.687-.345 1.367.026.608.292 1.444.75 2.36.391.78 1.087 1.873 1.551 2.43.462.556 1.355 1.45 1.982 1.984.63.534 1.691 1.24 2.36 1.563.757.369 1.557.596 2.126.606.581.008 1.085-.118 1.393-.349.385-.29.48-.549.476-1.273-.002-.502-.156-1.276-.34-1.722s-.468-1.017-.628-1.266l-.294-.455c-.862.986-1.296 1.345-1.519 1.432-.222.089-.769.067-1.214-.049-.549-.14-1.139-.544-1.827-1.25-.557-.576-1.138-1.409-1.29-1.854-.151-.446-.219-1.06-.15-1.367.071-.307.288-.608.482-.667.195-.06.468-.287.608-.505.231-.365.159-.44-.861-.904-.642-.293-1.486-.506-1.995-.506M24.575 15.08c.235-.087.68-.054 1.008.073.322.126.739.474.925.774.287.457.302.627.09 1.062-.14.286-.49.633-.778.773-.45.216-.635.193-1.266-.153-.607-.332-.75-.533-.795-1.114-.03-.389.047-.832.168-.983.124-.152.415-.347.648-.432m-142.664-3.73c-.727-.308-.755-.304-.759.088-.002.225-.164.467-.359.535-.194.07-.559.024-.81-.101-.405-.202-.455-.178-.453.226 0 .252.214.912.475 1.47.262.556.875 1.41 1.365 1.897.491.486 1.256 1.095 1.702 1.352s1.075.543 1.401.634c.561.158.585.14.443-.34-.109-.365-.048-.606.217-.867.203-.198.528-.358.723-.354s.356-.061.356-.146c.002-.083-.264-.561-.59-1.063-.323-.5-.803-1.15-1.064-1.442a9.3 9.3 0 0 0-1.183-1.052 9 9 0 0 0-1.464-.837m91.377 3.736c.227.004.201.081-.1.306-.223.165-.474.299-.558.297-.082-.001-.151.088-.151.199 0 .11.136.203.304.203.18 0 .262.123.202.303-.079.237.08.304.709.304.655 0 .78-.059.658-.308-.12-.24-.053-.286.304-.203.25.059.457.037.46-.046.002-.082-.114-.267-.253-.409-.142-.14-.166-.255-.055-.255s.317.116.459.255c.14.142.256.462.254.713-.003.277-.224.59-.562.796-.382.233-.848.312-1.494.253-.558-.053-1.111-.251-1.373-.492-.239-.223-.445-.565-.458-.762-.01-.206.274-.528.666-.759.377-.22.82-.399.988-.395m-46.069-5.96c-.747-.07-1.461-.018-1.858.134-.354.137-.688.308-.743.379-.055.07.279.042.745-.063.467-.107 1.142-.12 1.514-.028.368.09.642.255.608.366s-.292.212-.57.226c-.279.013-.87.047-1.316.076-.705.044-.64.075.507.233.777.108 1.847.45 2.612.836a8 8 0 0 1 2.292 1.768c.563.627 1.168 1.577 1.387 2.176.214.586.399 1.36.407 1.722.016.65.022.646.496-.354.322-.68.442-1.212.365-1.62-.06-.335-.314-1.064-.56-1.62-.246-.557-.906-1.468-1.467-2.025-.563-.557-1.513-1.256-2.112-1.554a7.4 7.4 0 0 0-2.307-.652m97.465 6.956c-.079.004-.192.1-.253.21-.06.112.049.387.243.614.195.227.468.41.608.405a.51.51 0 0 0 .386-.258c.075-.144-.077-.41-.354-.617-.269-.2-.553-.36-.63-.354m.607-.81c-.079.005-.181.078-.23.16-.05.084.174.404.496.71.522.495.6.517.719.202.089-.241-.025-.472-.355-.717-.269-.2-.552-.36-.63-.355m-105.822-.988c-.083.005-.447.415-.81.911-.362.496-.72 1.064-.797 1.258s.174.034.558-.354c.385-.391.863-.8 1.066-.912.226-.125.322-.336.25-.557-.062-.194-.184-.35-.267-.346m-173.897-9.836c-.668-.05-1.488.01-1.823.134-.334.123-.861.463-1.171.755-.309.291-.706.897-.88 1.343-.233.589-.289 1.219-.212 2.329.083 1.186.258 1.826.809 2.936a8.2 8.2 0 0 0 1.786 2.41c.598.544 1.541 1.204 2.098 1.461.557.26 1.422.53 1.924.604.5.073 1.254.075 1.671.007.445-.075 1.073-.412 1.518-.81.417-.376.884-1.035 1.035-1.469.179-.502.248-1.334.193-2.304-.063-1.146-.23-1.819-.675-2.734-.326-.672-1.091-1.717-1.711-2.337-.615-.615-1.622-1.37-2.233-1.678a6.5 6.5 0 0 0-2.329-.647m172.202 9.103c-.219-.065-.622.258-1.189.948-.471.575-.848 1.125-.834 1.22.013.098.229.218.48.268.25.05.592.145.76.212.206.083.611-.271 1.265-1.103l.962-1.225c-.862-.172-1.262-.266-1.444-.32m91.17-.498c.362 0 .79.197 1.1.506.276.28.505.711.507.962 0 .252-.136.66-.304.911-.22.328-.504.455-1.014.456-.486 0-.869-.16-1.215-.506-.28-.277-.516-.676-.526-.885-.013-.207.176-.618.417-.911q.439-.533 1.035-.533M-114.5 6.18c-.694.006-1.476.147-1.822.33a6.8 6.8 0 0 0-1.183.852c-.317.294-.749.875-.961 1.294-.213.417-.389.918-.391 1.114-.004.241.369.51 1.164.844.824.346 1.589.914 2.596 1.924.785.788 1.596 1.799 1.8 2.244.202.444.38.833.393.868.014.033.343-.066.733-.222.389-.154 1.051-.66 1.468-1.122a5.1 5.1 0 0 0 1.088-2.004c.284-1.007.293-1.319.066-2.279-.145-.613-.544-1.478-.886-1.923-.359-.466-1.1-1.052-1.738-1.372-.858-.433-1.387-.557-2.327-.548M8.749 14.065c-.099 0-.281.138-.405.304-.166.225-.16.385.028.615.14.172.458.311.71.305.25-.004.5-.1.556-.211s-.081-.385-.304-.607c-.222-.223-.485-.405-.585-.406m-167.408-9.924c-.937.004-1.393.115-1.924.47-.382.254-.811.688-.955.961-.162.31-.237 1.033-.199 1.916.045.986.214 1.725.554 2.43.271.557.964 1.512 1.541 2.126a7.6 7.6 0 0 0 2.339 1.71c.925.43 1.607.6 2.405.604.8.006 1.328-.119 1.873-.445.567-.338.845-.696 1.098-1.413a4 4 0 0 0 .202-1.975c-.073-.557-.354-1.468-.625-2.025-.274-.557-.89-1.456-1.369-1.996-.571-.64-1.367-1.223-2.292-1.675-1.149-.56-1.654-.693-2.648-.688M9.132 13.456c-.188.002-.073.188.304.492.386.311.635.402.684.253.04-.13-.096-.352-.304-.494-.21-.14-.518-.253-.684-.251m-263.181-6.683c.813-.004 1.251.13 2.002.608.529.334 1.279 1.043 1.666 1.571.384.529.805 1.418.937 1.975.176.759.178 1.202.006 1.771-.148.49-.462.908-.887 1.177-.494.312-.91.397-1.671.345-.698-.049-1.29-.256-1.914-.67-.494-.33-1.184-.963-1.532-1.408-.352-.45-.752-1.307-.899-1.924-.154-.648-.203-1.369-.116-1.721.083-.334.425-.86.759-1.165.496-.456.798-.557 1.649-.559m231.115 4.863c.384 0 .633.087.577.202-.057.111-.284.202-.507.202-.222 0-.542.047-.708.102-.168.056-.304.192-.305.303 0 .111.206.21.456.219.251.008.342.055.203.101-.14.047-.253.176-.253.288 0 .11.318.203.709.203.493 0 .708-.092.709-.304q.002-.301.354-.183c.289.097.326.04.202-.303-.12-.336-.077-.416.202-.373.241.034.371.264.406.709.044.585-.033.69-.71.978-.497.21-1.002.276-1.467.189-.39-.075-.913-.266-1.164-.424-.251-.16-.464-.466-.477-.68-.01-.216.234-.58.54-.81.305-.231.86-.42 1.233-.42m46.292-4.744c-.385-.121-.77.164-2.482 1.847l-2.024 1.993c1.174.49 1.713.899 1.954 1.227.241.326.537.844.658 1.152l.22.557c3.178-3.268 3.842-4.107 3.844-4.404.002-.251-.133-.729-.3-1.063s-.555-.734-.86-.888a9 9 0 0 0-1.01-.42m-227.989-1.164c-1.214 1.2-2.756 2.663-3.424 3.254l-1.215 1.076c.37 1.146.827 1.849 1.252 2.298s1.094.927 1.482 1.063l.708.243 6.564-6.58c-1.32-.797-1.942-1.344-2.234-1.729-.291-.386-.62-.95-.727-1.253l-.197-.551zm-50.267 2.465c-.316 0-.65.06-.743.135-.093.073-.154.212-.136.305.019.093.24.17.49.172.251.002.821.218 1.266.481.445.261 1.047.784 1.337 1.158.289.377.678.98.86 1.343.184.362.334.888.334 1.165 0 .28.073.506.162.506s.274-.114.409-.253c.136-.14.244-.436.242-.658-.004-.223-.22-.861-.479-1.418-.261-.557-.852-1.354-1.313-1.772-.464-.416-1.071-.85-1.349-.962a3.5 3.5 0 0 0-1.08-.202m-.389 1.208c-.251.004-.455.098-.455.21.001.11.385.406.853.657.469.252 1.067.774 1.328 1.164.259.391.529.939.596 1.216.066.28.22.573.341.654.124.083.292.152.375.152s.152-.18.152-.401c0-.223-.204-.833-.455-1.353-.276-.573-.817-1.217-1.368-1.626-.502-.372-1.115-.676-1.367-.673m219.95.858c.307.044.439.229.479.668.032.344-.122.893-.355 1.265-.24.387-.576.658-.813.659-.316 0-.405-.136-.405-.608 0-.334.15-.931.334-1.326.25-.537.444-.705.76-.658m-219.354.764c-.368-.212-.663-.299-.658-.192.006.11.413.631.903 1.16.49.527.946.892 1.013.809.066-.084-.04-.43-.234-.77s-.656-.792-1.024-1.007m96.707-5.248c.363-.006 1.001.13 1.418.302s1.15.697 1.626 1.164c.516.506 1.029 1.283 1.266 1.914.218.585.398 1.292.398 1.57 0 .279-.113.737-.253 1.02-.14.281-.573.656-.962.832a2.3 2.3 0 0 1-1.417.18c-.39-.076-1.073-.348-1.518-.603s-1.072-.772-1.392-1.148a9 9 0 0 1-.962-1.447c-.21-.417-.381-1.146-.383-1.62 0-.473.146-1.07.324-1.33.181-.259.523-.548.762-.645.239-.095.731-.18 1.093-.189M12.98 9.813c.223 0 .632.23.911.506.277.28.504.666.5.86-.002.195-.162.517-.354.715-.19.199-.6.359-.906.355-.305-.004-.739-.189-.962-.411-.222-.223-.405-.587-.405-.81s.183-.588.405-.81.588-.405.81-.405m-266.748-2.432c-.306 0-.557.049-.557.103.003.056.435.319.962.581.529.264 1.258.81 1.62 1.215a8.5 8.5 0 0 1 1.064 1.545c.222.446.402.97.4 1.165-.002.283.049.303.253.1.208-.204.205-.418-.012-1.113a8 8 0 0 0-.76-1.62c-.269-.417-.922-1.035-1.451-1.369-.528-.336-1.213-.609-1.519-.607m95.095-.095c-.459-.1-.643-.063-.662.13-.013.149.319.467.74.706a8 8 0 0 1 1.429 1.113c.365.373.833 1.135 1.039 1.692.272.734.49 1.027.802 1.063.352.043.429-.058.429-.558 0-.334-.15-.903-.334-1.265a11 11 0 0 0-.759-1.235c-.235-.316-.79-.786-1.235-1.043-.446-.258-1.098-.528-1.449-.603m-.386 1.515c-.265 0-.275.07-.065.455.138.251.668.891 1.176 1.425.508.533 1.039.966 1.179.963.18-.007.146-.226-.125-.768-.209-.417-.712-1.055-1.114-1.417-.405-.362-.877-.658-1.051-.658m171.82 2.02c-.065.002-.179.073-.254.156-.072.084-.02.27.12.413.138.146.365.26.504.253.14-.004.255-.077.257-.16s-.113-.267-.253-.409c-.141-.139-.309-.254-.374-.253m-170.53-4.388c-.672-.087-.923-.054-.861.11.05.127.25.23.444.23.195-.001.766.256 1.265.572.503.316 1.181.93 1.511 1.368.33.437.75 1.206.932 1.708.24.663.374.827.489.607.087-.166.102-.578.033-.912-.067-.334-.399-1.04-.733-1.57-.336-.528-.954-1.191-1.371-1.475-.417-.283-1.187-.57-1.709-.638m125.114 1.153c.15 0 .33.204.401.455.08.281-.022.727-.265 1.164-.239.433-.544.708-.785.709-.328 0-.386-.126-.343-.764.028-.42.2-.945.385-1.164.182-.22.455-.4.607-.4m-48.568.088c-.32-.42-.33-.415-.841.405-.286.456-.455.893-.376.97.077.079.504.205.95.28.728.126.826.09.983-.345.124-.342.094-.539-.11-.682-.157-.112-.43-.395-.606-.628m97.169-1.911c.15 0 .318.091.375.203.054.11-.037.202-.203.202-.167 0-.305.068-.31.151-.002.083.248.287.558.448s.698.3.864.304c.164.004.324.168.354.362.028.195-.176.584-.453.86-.382.383-.642.478-1.063.391-.306-.064-.764-.315-1.019-.556-.253-.243-.465-.685-.473-.985-.01-.364.167-.678.541-.961.306-.231.679-.42.829-.42m-.274 1.209c-.133.004-.308.12-.386.26-.085.15.057.398.344.609.395.289.539.309.745.1.21-.206.19-.324-.101-.615-.197-.198-.468-.358-.602-.354M-30.077 5.01c.126.043.256.387.292.77.04.438-.069.87-.303 1.18-.25.328-.485.443-.724.354-.217-.08-.362-.36-.374-.714-.012-.328.173-.815.43-1.123.25-.3.556-.51.68-.467m-171.209-1.066c-.204-.39-.375-.595-.38-.456-.006.14.115.505.269.81.152.306.585.836.962 1.177.374.342.912.689 1.189.774.279.083.544.099.591.036s-.069-.113-.253-.113c-.186 0-.713-.343-1.173-.76-.457-.417-1.002-1.079-1.205-1.468m1.22-2.025c-.283 0-.644.11-.8.243-.156.134-.265.43-.241.658.022.23.245.75.496 1.158.249.41.683.928.96 1.153.279.224.808.482 1.179.571.51.125.714.093.856-.138.103-.168.189-.577.189-.91.002-.335-.179-.905-.402-1.267a3.9 3.9 0 0 0-1.063-1.063c-.363-.222-.891-.405-1.174-.405m172.19 1.014c.195-.003.4.177.456.4s-.024.656-.178.962-.428.67-.608.81c-.226.173-.421.19-.631.05s-.263-.372-.17-.759c.072-.305.277-.76.455-1.006.176-.247.482-.452.676-.457m-177.848-46.662c.403-.283.775-.335 1.822-.252.891.071 1.709.303 2.531.71.831.41 1.696 1.107 2.735 2.199.836.878 1.814 2.093 2.174 2.699.361.607.853 1.877 1.096 2.825.395 1.545.411 1.792.153 2.418-.164.399-1.146 1.497-2.31 2.58-1.685 1.57-2.161 1.903-2.835 1.996-.446.06-1.266-.014-2.835-.443l-2.733 2.509c-1.503 1.379-4.04 3.708-5.636 5.178-1.597 1.468-3.146 2.83-3.443 3.024-.299.196-.925.354-1.401.354-.474.002-1.203-.142-1.62-.318a7.7 7.7 0 0 1-1.469-.881c-.389-.308-.998-1.007-1.352-1.554-.355-.544-.753-1.447-.887-2.004-.192-.8-.191-1.183.012-1.823.184-.585.707-1.23 1.885-2.328.897-.834 1.93-1.793 2.296-2.127a488 488 0 0 1 1.912-1.72c.687-.614 1.76-1.58 2.386-2.149.628-.571 1.686-1.526 3.57-3.204l-.075-1.73c-.054-1.247.01-1.895.227-2.335.166-.334.974-1.206 1.796-1.939.822-.73 1.723-1.49 2.001-1.685m-47.082-.261c.729.032 1.579.227 2.126.488.502.239 1.634 1.057 2.519 1.814.915.788 2.019 1.991 2.568 2.8.565.83 1.221 2.171 1.586 3.238.342 1.003.622 2.027.62 2.279 0 .25-.129.707-.281 1.013s-1.178 1.409-2.277 2.452-2.183 2.027-2.406 2.187c-.328.237-.616.25-1.519.074-.611-.117-1.387-.351-1.721-.517-.569-.286-.64-.276-1.114.153-.277.253-.782.733-1.118 1.067-.336.335-1.65 1.564-2.922 2.734-1.271 1.17-3.001 2.759-3.845 3.53a211 211 0 0 0-2.139 1.98c-.334.318-.881.63-1.215.693s-.926.05-1.316-.026c-.389-.077-.936-.26-1.215-.404-.278-.144-1-.751-1.606-1.346-.642-.634-1.306-1.55-1.597-2.2-.383-.852-.481-1.362-.42-2.174.075-.996.157-1.136 1.299-2.228.672-.642 1.981-1.85 2.913-2.684a361 361 0 0 0 2.353-2.127c.363-.335 1.193-1.082 1.845-1.662s1.624-1.447 3.129-2.794l-.238-1.113c-.129-.613-.18-1.547-.109-2.076q.127-.961.784-1.81c.363-.465.97-1.128 1.353-1.468s1.047-.856 1.476-1.144.893-.583 1.027-.652c.136-.071.792-.106 1.46-.077m189.087.958c.544-.004 1.335.164 1.823.388.474.22 1.3.835 1.836 1.367.622.618 1.118 1.357 1.367 2.034.215.585.393 1.314.393 1.62.001.306-.159 1.008-.355 1.56-.318.896-1.277 1.91-8.82 9.316-6.151 6.041-8.667 8.383-9.214 8.58-.423.152-1.189.226-1.762.176-.557-.05-1.378-.276-1.823-.498-.446-.225-1.18-.805-1.634-1.29-.453-.486-.95-1.25-1.101-1.695s-.274-1.266-.27-1.823c.006-.56.173-1.328.373-1.72.201-.392 4.11-4.48 8.688-9.087 4.575-4.608 8.594-8.5 8.93-8.649.333-.15 1.04-.275 1.569-.28m36.197 1.022c.39-.008 1.302.08 2.025.198.725.118 2.001.442 2.835.72.836.276 2.112.854 2.835 1.281.725.428 1.851 1.22 2.505 1.76.652.54 1.672 1.578 2.263 2.3.59.724 1.444 2.09 1.897 3.038.456.948.928 2.268 1.051 2.937.123.668.184 1.853.136 2.632-.05.78-.27 1.826-.49 2.328-.22.5-.918 1.618-1.551 2.48-.634.863-1.586 1.885-2.115 2.27-.528.382-1.6.903-2.38 1.154-1.095.352-1.854.452-3.34.433-1.195-.014-2.5-.175-3.444-.422-.834-.218-2.11-.694-2.834-1.054a23.5 23.5 0 0 1-2.532-1.513c-.668-.47-1.832-1.531-2.588-2.355-.781-.855-1.705-2.15-2.15-3.017-.43-.836-.948-2.021-1.154-2.633-.26-.77-.373-1.677-.365-2.936.008-1.588.089-1.993.62-3.139a25 25 0 0 1 1.325-2.43c.393-.613 1.113-1.472 1.601-1.912.49-.44 1.3-.974 1.8-1.19.502-.217 1.459-.513 2.127-.654.668-.144 1.534-.268 1.923-.276m-239.844 16.142c-.453-.085-.74.026-1.272.494-.531.467-.684.761-.68 1.294.004.377.201 1.073.437 1.547.239.474.77 1.271 1.183 1.771.421.512 1.227 1.157 1.845 1.47.603.309 1.279.563 1.502.565.222.002.656-.18.962-.406.473-.35.556-.557.552-1.375-.004-.707-.183-1.283-.681-2.178-.373-.668-1.034-1.491-1.465-1.832a19 19 0 0 0-1.292-.93 3.8 3.8 0 0 0-1.091-.42m185.594.854c-.117 0-.316.176-.44.393-.125.214-.219.853-.209 1.418.01.575.19 1.357.406 1.784.212.417.693 1.05 1.063 1.407.373.357 1.019.79 1.436.962s1.146.314 1.62.314c.534 0 1.13-.17 1.57-.446l.708-.443c-1.727-.263-2.592-.553-3.038-.815-.445-.259-1.105-.804-1.468-1.207-.362-.405-.785-.986-.941-1.292-.156-.305-.332-.899-.389-1.316-.059-.417-.2-.759-.318-.759m-137.664-.81a.44.44 0 0 0-.354.203c-.06.111.115.202.395.202.277 0 .758.127 1.063.283.306.154 1.035.793 1.62 1.418.585.623 1.062 1.246 1.063 1.387.002.14-.431-.24-.962-.844-.528-.603-1.326-1.264-1.771-1.465-.446-.2-1.124-.366-1.509-.37-.411-.002-.784.126-.906.31-.113.172-.186.674-.162 1.114.025.44.227 1.164.45 1.61.222.445.747 1.188 1.165 1.652.417.461 1.123 1.006 1.569 1.21s1.152.372 1.569.374c.494.002.901-.139 1.164-.402.326-.326.382-.57.286-1.265-.066-.474-.338-1.317-.603-1.873-.267-.557-.873-1.391-1.349-1.853-.475-.463-1.229-1.033-1.674-1.265-.446-.235-.92-.426-1.054-.426m54.921-17.389c.668-.016 2.673.104 4.455.266s3.437.367 3.676.456c.239.087 1.046.842 1.795 1.678a68 68 0 0 1 2.625 3.14 54 54 0 0 1 2.337 3.24l-.218 2.834c-.122 1.56-.282 3.67-.357 4.688-.109 1.46-.226 1.954-.556 2.329-.233.261-1.179 1.342-2.107 2.4a283 283 0 0 0-1.808 2.072c-.067.084-1.124.289-2.349.453-1.225.166-3.482.372-7.797.613l-8.305-8.303.019-3.746c.01-2.061.079-4.172.154-4.692.124-.877.351-1.173 3.112-4.088 2.187-2.307 3.131-3.166 3.544-3.227.313-.046 1.112-.097 1.78-.113m128.418 9.895c-.077.611-.051 1.613.056 2.227.108.611.277 1.386.376 1.72.1.335.432 1.109.74 1.723.307.611.812 1.478 1.124 1.923.31.446 1.188 1.412 1.952 2.147.765.735 1.936 1.685 2.604 2.112.669.425 1.9 1.023 2.734 1.326.836.304 2.226.652 3.089.774 1.058.15 2.014.16 2.935.028.753-.107 1.778-.34 2.278-.518.503-.179 1.21-.5 1.57-.717.362-.217.636-.44.607-.494-.028-.056-.416.044-.86.224-.446.18-1.357.406-2.026.501-.714.103-1.941.093-2.986-.022-1.073-.12-2.469-.456-3.546-.855-.976-.362-2.31-.978-2.967-1.367-.654-.39-1.846-1.346-2.646-2.126-.802-.78-1.853-2.012-2.337-2.734-.484-.725-1.105-1.819-1.38-2.43-.276-.614-.654-1.89-.84-2.835l-.338-1.722zm61.226-11.126c.168-.005.624.073 1.013.176.39.104 1.186.56 1.771 1.013.6.464 1.253 1.197 1.497 1.683.24.474.438 1.18.442 1.569.004.413-.189 1.004-.93 2.126l1.068 2.531-.42.558c-.364.483-.39.664-.208 1.366.166.638.15.898-.077 1.216-.161.223-1.185 1.352-4.257 4.608l-4.657.156-1.47 1.416c-.806.776-1.464 1.455-1.467 1.514 0 .057-.57.675-1.266 1.373-.696.7-1.74 1.816-2.322 2.48-1.033 1.181-1.084 1.212-2.228 1.289-.923.063-1.405-.026-2.284-.417-.613-.274-1.505-.902-1.985-1.396-.613-.635-.96-1.225-1.18-2.012-.187-.668-.254-1.357-.169-1.721.08-.334.718-1.246 1.42-2.026.7-.78 2.15-2.328 3.222-3.442 1.071-1.114 2.23-2.39 3.208-3.645l-.871-3.14.698-.86c.385-.473 1.297-1.476 2.026-2.227s1.395-1.322 1.478-1.27c.084.054.63-.448 1.215-1.114s1.223-1.21 1.418-1.21.832.182 1.417.405c.585.222 1.223.407 1.418.41.194.002.569-.239.83-.536.263-.298.672-.614.911-.7.239-.09.573-.166.74-.172m-139.575.193c.474-.002 1.339.099 1.924.224.585.126 1.701.547 2.48.938.991.496 1.878 1.177 2.941 2.252.838.849 1.767 1.999 2.069 2.556.3.557.681 1.65.847 2.43.216 1.026.247 1.668.111 2.328-.111.535-.512 1.331-.972 1.924-.431.557-1.094 1.15-1.472 1.316-.399.176-1.201.291-1.904.273-.668-.016-1.579-.161-2.025-.323-.775-.282-.842-.272-1.594.232-.431.29-.91.777-1.062 1.083-.154.306-.6.718-.992.912-.393.195-.711.446-.709.557.001.112-.886 1.07-1.971 2.126s-2.133 2.174-2.328 2.48-.607.645-.912.753c-.306.105-.717.424-.911.707-.195.284-.651.663-1.013.843-.363.182-1.205.35-1.873.375s-1.936.126-4.42.411l.162-1.316c.089-.723.175-1.955.191-2.734.023-.992.145-1.6.41-2.025.208-.334.502-.677.652-.76s.413-.494.587-.91c.172-.418.515-.966.76-1.221.243-.253.535-.457.646-.45.112.004.431-.331.708-.75.28-.419.791-.946 1.137-1.17.346-.225.724-.636.844-.916.117-.277.488-.688.822-.91.336-.224.889-.793 1.231-1.266.345-.474.853-.952 1.13-1.064.411-.164.529-.38.62-1.164.065-.537.012-1.229-.12-1.57-.127-.333-.239-1.107-.247-1.72-.008-.63.122-1.38.298-1.722.172-.334.574-.919.894-1.3.319-.38.945-.858 1.39-1.059.446-.2 1.197-.368 1.671-.37m-37.477 19.643c-1.6.05-2.384.094-2.773.13-.391.037-1.847.167-3.235.287l-2.528.218c-1.101 1.312-1.877 2.173-2.436 2.758-.558.587-.939 1.133-.849 1.215.092.083 1.595.029 3.342-.12 1.745-.147 3.608-.354 4.137-.455.789-.152 1.136-.375 1.938-1.25a60 60 0 0 0 1.691-1.923zM9.382-27.83c-.084.013-.721.651-1.417 1.418-.911 1.006-1.265 1.553-1.263 1.954 0 .306.212 1.012.471 1.57.257.556.782 1.277 1.162 1.599.38.324.988.711 1.35.861s1.092.273 1.621.276c.927.002 1.009-.05 2.244-1.368l1.28-1.369c-1.201-.176-1.87-.397-2.258-.605-.391-.209-1.11-.794-1.602-1.304-.49-.508-1.014-1.221-1.164-1.584-.15-.362-.271-.84-.271-1.063s-.07-.395-.153-.385m-177.445-3.661c-.058.011-.945.923-1.974 2.03-1.028 1.108-1.869 2.082-1.865 2.168.004.083 1.167 1.319 2.582 2.742 1.415 1.426 3.054 3 3.637 3.493l1.063.904 3.443-4.051c-4.158-4.317-5.685-5.96-6.076-6.436-.388-.477-.753-.86-.81-.85m87.717 4.856c-.096 0-.34.166-.543.37-.227.227-.357.622-.334 1.013.02.352.178.984.354 1.401.174.417.611 1.124.974 1.57.362.445 1.154 1.06 1.76 1.369.718.366 1.415.558 2.01.558.5 0 1.117-.137 1.368-.305.25-.168.455-.374.454-.457 0-.083-.412-.175-.913-.204-.5-.028-1.342-.265-1.87-.53-.53-.263-1.258-.81-1.62-1.215a8.5 8.5 0 0 1-1.063-1.544c-.223-.446-.405-1.084-.405-1.418s-.077-.607-.172-.608m-137.361.024c-.412-.095-.884-.093-1.062.004-.255.138-.102.293.73.732.579.306 1.495 1.012 2.033 1.57.539.556 1.206 1.467 1.481 2.024s.5 1.217.498 1.468c-.002.267.103.427.251.389.14-.037.336-.288.439-.558.134-.354.079-.77-.196-1.501-.208-.557-.725-1.447-1.148-1.975-.421-.528-1.108-1.19-1.525-1.47-.417-.281-1.094-.587-1.501-.683m-48.837-.226c-.26 0-.533.046-.607.1-.075.057.322.353.881.659s1.401.934 1.873 1.393c.472.46 1.15 1.37 1.509 2.025.358.654.653 1.393.657 1.644.002.251.098.456.209.456s.294-.182.405-.405.143-.656.072-.962c-.073-.306-.336-.966-.585-1.468-.249-.5-.919-1.344-1.49-1.873-.569-.528-1.354-1.097-1.743-1.265-.391-.166-.921-.304-1.181-.304m140.076 5.063c-.598-.604-.702-.649-.698-.304.002.223-.04.61-.092.86-.089.405-.021.455.609.455.389 0 .747-.068.796-.151.048-.083-.229-.47-.615-.86m.16-4.456c-.093 0-.321.274-.507.608-.188.334-.34.836-.34 1.113 0 .28.129.758.287 1.064.158.305.636.89 1.064 1.297.425.41 1.14.855 1.586.993.664.206.933.2 1.494-.033.376-.156.761-.375.854-.486.105-.126-.186-.318-.771-.506-.519-.166-1.349-.669-1.845-1.114s-1.072-1.152-1.28-1.57c-.207-.416-.376-.894-.376-1.062 0-.166-.075-.303-.166-.304m99.799-14.85a12 12 0 0 0-2.228.065c-.613.087-1.524.31-2.024.494-.503.185-1.232.58-1.62.877-.391.298-.873.725-1.076.95-.202.226-.59.866-.863 1.423-.271.557-.552 1.514-.623 2.127-.073.62-.022 1.7.113 2.43.14.753.65 2.136 1.195 3.232.688 1.389 1.34 2.33 2.367 3.42.78.828 1.964 1.875 2.633 2.326.668.45 1.875 1.12 2.683 1.489.893.407 2.242.802 3.443 1.007 1.615.275 2.25.297 3.493.117.834-.122 1.952-.411 2.48-.642.529-.23 1.339-.761 1.796-1.178.46-.418 1.063-1.215 1.34-1.772.335-.67.541-1.493.61-2.43.077-1.06-.008-1.854-.334-3.14a11.1 11.1 0 0 0-1.32-3.138 21.4 21.4 0 0 0-1.969-2.61c-.597-.656-1.631-1.58-2.3-2.051a23 23 0 0 0-2.48-1.491c-.697-.349-1.926-.806-2.734-1.02-.808-.215-1.97-.432-2.582-.484M-217.083-27.65c-.398.002-.787.073-.86.156-.075.083.32.356.877.607s1.518.934 2.138 1.519 1.35 1.518 1.622 2.075c.273.557.492 1.242.486 1.52-.01.455.02.475.31.202.176-.166.315-.577.307-.912-.006-.334-.175-.972-.376-1.418-.198-.445-.721-1.206-1.158-1.69-.439-.484-1.209-1.148-1.709-1.473-.583-.378-1.173-.588-1.637-.587m-48.309-.397c-.237-.002-.534.133-.657.299-.177.237-.149.329.128.416.195.063.757.314 1.247.556.49.246 1.346.948 1.903 1.56s1.18 1.5 1.387 1.974c.206.473.374 1.042.375 1.265 0 .223.09.405.202.406.111 0 .247-.136.303-.304.055-.166.102-.555.1-.86-.002-.306-.217-1.013-.48-1.57-.266-.557-.923-1.456-1.468-1.999-.543-.543-1.351-1.157-1.796-1.363-.446-.207-1.005-.376-1.244-.38m186.218.055c-.354.356-.46.67-.427 1.27.024.439.207 1.161.407 1.607s.676 1.13 1.059 1.52 1.104.914 1.606 1.163c.567.28 1.294.451 1.924.453.573.002 1.21-.127 1.468-.3.25-.167.455-.373.456-.456 0-.084-.341-.172-.76-.197a5.7 5.7 0 0 1-1.519-.354c-.417-.17-1.134-.652-1.59-1.07-.457-.417-.998-1.033-1.204-1.367s-.503-1.087-.663-1.675l-.287-1.069zm-136.845-.667c-.316 0-.65.06-.743.133-.093.075-.154.213-.136.304.018.093.17.17.338.17.166 0 .599.15.962.337.362.184 1.191.844 1.842 1.468.653.622 1.327 1.405 1.5 1.74.172.333.412.94.534 1.35.224.739.226.74.554.303.306-.408.3-.516-.092-1.552-.27-.711-.829-1.546-1.545-2.305-.618-.654-1.465-1.36-1.882-1.57-.417-.208-1.018-.378-1.332-.378m-48.069-.206c-.412.002-.798.095-.86.206s.071.203.293.203c.223 0 .93.397 1.569.88.64.487 1.529 1.373 1.975 1.972.446.6.96 1.548 1.141 2.107.311.95.346.986.556.558.126-.25.227-.637.227-.86s-.148-.701-.328-1.063c-.181-.363-.665-1.114-1.075-1.67-.414-.557-1.202-1.31-1.75-1.675-.685-.454-1.235-.662-1.748-.658m139.6.409c-.093 0-.383.21-.646.468-.361.354-.47.666-.444 1.265.023.49.272 1.169.649 1.76.334.528.973 1.188 1.419 1.468.445.277 1.152.587 1.569.688.597.144.889.108 1.367-.17.334-.192.743-.508.911-.696.278-.316.255-.347-.253-.339-.305.006-.982-.194-1.501-.445s-1.202-.751-1.518-1.113a8.4 8.4 0 0 1-.98-1.47c-.222-.444-.405-.946-.405-1.112 0-.168-.075-.304-.168-.304m47.401-1.614c-.083.004-.311.23-.505.505-.195.276-.353.796-.351 1.159.002.362.169 1.023.37 1.468.198.446.685 1.175 1.082 1.62.4.446 1.166 1.03 1.71 1.304.605.302 1.354.499 1.942.507.732.008 1.062-.096 1.41-.444l.457-.455a6 6 0 0 1-1.912-.294c-.503-.164-1.367-.695-1.924-1.181-.567-.494-1.26-1.367-1.571-1.982-.308-.606-.56-1.35-.557-1.657 0-.305-.068-.554-.15-.55m87.116 1.548c-.087.073-.145.414-.126.756.016.345.285 1.035.6 1.537.311.5.882 1.15 1.267 1.444.384.293 1.018.692 1.409.888.389.197 1.057.357 1.48.357.426-.002.878-.105 1.003-.233.172-.17.079-.228-.367-.226-.328.002-1.053-.22-1.61-.49-.556-.272-1.37-.89-1.81-1.371-.437-.482-.998-1.307-1.243-1.834-.247-.525-.518-.897-.603-.828m-225.086-1.145c-.288-.002-.6.056-.694.129-.093.075-.152.212-.134.303.018.094.169.171.337.171.167 0 .647.176 1.064.393s1.146.739 1.617 1.164c.472.423 1.179 1.318 1.571 1.986.393.668.709 1.397.704 1.62-.011.363.022.373.309.102.176-.168.317-.532.311-.81-.004-.279-.274-.962-.598-1.519-.322-.557-.982-1.417-1.466-1.911-.484-.492-1.244-1.061-1.689-1.26s-1.045-.366-1.332-.368m-47.524-.173c-.668-.148-.921-.127-1.12.09-.206.227-.204.281.002.281.144 0 .685.251 1.205.557.521.306 1.363 1.012 1.873 1.571s1.132 1.426 1.381 1.924c.249.5.449 1.136.445 1.416-.006.455.027.475.317.202.176-.168.317-.6.311-.962-.004-.362-.133-.954-.285-1.316-.154-.363-.573-1.023-.935-1.468a10.8 10.8 0 0 0-1.495-1.456c-.46-.356-1.225-.734-1.699-.839m48.854-.704c-.334-.063-.739-.067-.902-.009-.159.057-.275.189-.252.29.022.101.2.19.394.195.197.004.647.164 1.003.354s1.12.802 1.699 1.358c.577.557 1.31 1.469 1.628 2.026s.575 1.239.571 1.518c-.006.454.027.477.314.204.178-.169.317-.534.311-.811-.006-.28-.224-.962-.485-1.519s-.92-1.43-1.467-1.94c-.544-.51-1.265-1.07-1.599-1.241a5.3 5.3 0 0 0-1.215-.425m90.601.58c-.37.398-.476.714-.437 1.32.028.437.176 1.044.328 1.352.152.306.723.948 1.266 1.428.544.477 1.308.955 1.697 1.06.391.105.869.193 1.063.193.197 0 .628-.227.962-.504.334-.28.61-.576.612-.659.001-.085-.339-.218-.76-.297-.419-.081-1.173-.403-1.675-.72-.5-.313-1.134-.886-1.409-1.27a8.3 8.3 0 0 1-.83-1.564l-.33-.864zm134.382.09c-.212 0-.305.213-.305.709 0 .389.17 1.05.38 1.468.208.417.71 1.055 1.114 1.418.405.362 1.077.828 1.494 1.039.417.208 1.033.438 1.367.513s.858.04 1.164-.077c.306-.115.56-.28.562-.362 0-.083-.342-.216-.76-.295-.42-.079-1.31-.495-1.979-.922l-.079-.054c-.136-.041-.42-.217-.724-.454-.326-.255-.658-.609-.813-.86a4 4 0 0 1-.265-.313c-.366-.494-.709-1.103-.76-1.354-.05-.25-.23-.456-.396-.456M-163.846-42.23c-1.415-.002-2.61.07-2.656.157-.047.09-.227 1.478-.405 3.088a202 202 0 0 0-.457 4.65c-.109 1.384-.073 1.851.192 2.38.181.362 1.764 2.127 3.518 3.92l3.19 3.265a167 167 0 0 1 5.771-.476c2.051-.138 3.393-.314 3.475-.455.075-.126.188-.912.253-1.748.064-.835.21-2.682.322-4.1l.202-2.583c-1.624-2.276-2.497-3.436-2.989-4.05a41 41 0 0 0-2.066-2.329l-1.174-1.215c-3.567-.39-5.763-.504-7.176-.504m-98.042 11.342c-.371 0-.736.067-.811.152-.073.084.343.383.928.665.585.281 1.474.955 1.974 1.494.503.54 1.133 1.313 1.402 1.716.267.402.54 1.068.607 1.479.095.6.171.7.381.507a.9.9 0 0 0 .253-.596c-.006-.196-.15-.696-.322-1.113-.174-.42-.618-1.08-.987-1.469-.37-.39-.753-.858-.852-1.04-.097-.182-.564-.66-1.038-1.063-.614-.523-1.053-.732-1.535-.732m185.986-.37c-.385.397-.437.612-.334 1.38.067.501.392 1.39.724 1.976.332.584.898 1.28 1.26 1.544.363.266.977.642 1.368.838.433.217 1.102.343 1.721.325.652-.02 1.14-.157 1.373-.383.198-.192.359-.397.355-.451-.004-.057-.349-.128-.766-.16-.417-.033-1.124-.22-1.57-.416s-1.196-.739-1.67-1.207c-.474-.467-1.043-1.214-1.266-1.66-.222-.445-.48-1.136-.571-1.533l-.166-.725zm-135.939-1.053c-.413.002-.801.095-.862.206-.06.112.094.2.345.199s.638.132.86.297c.223.166.314.302.202.302-.112.002-.566-.081-1.011-.18-.533-.122-.951-.109-1.216.033-.362.192-.298.253.608.577.654.235 1.424.761 2.177 1.492.64.62 1.391 1.584 1.67 2.14.277.557.507 1.195.507 1.418 0 .224.113.375.253.339.139-.037.284-.289.322-.558.036-.27-.213-1.15-.557-1.958-.343-.806-.58-1.464-.525-1.468.055 0 .375.478.707 1.063s.602 1.336.6 1.67c-.008.547.024.578.313.304.176-.168.319-.6.313-.962-.005-.362-.157-.954-.339-1.316-.181-.363-.62-1.023-.976-1.468-.358-.445-1.098-1.108-1.646-1.472-.682-.454-1.233-.662-1.745-.658m-48.984 1.019c-.131 0-.152.11-.051.275.094.153.625.67 1.181 1.152.557.482 1.395 1.383 1.862 2.003.468.617.924 1.418 1.013 1.774.13.52.215.602.426.405.144-.133.257-.45.253-.699a2.5 2.5 0 0 0-.241-.911c-.128-.251-.697-1.04-1.266-1.75-.678-.85-1.365-1.46-1.997-1.772-.528-.262-1.057-.477-1.18-.477m273.543 1.364c-.419-.797-.543-.909-.731-.658-.16.215-.167.543-.025 1.116.112.446.465 1.106.784 1.468l.048.052q.203.144.613.52c.164.15.313.298.443.43q.138.108.263.193c.433.296 1.266.637 1.85.759.635.134 1.246.152 1.518.047.423-.162.406-.187-.253-.328-.389-.085-1.118-.362-1.62-.617-.5-.256-1.242-.815-1.647-1.243a9.2 9.2 0 0 1-1.243-1.739M-260.3-32.296c-.381-.002-.795.184-1.107.5-.362.362-.415.502-.192.502.168 0 .411-.113.541-.253.186-.2.458-.144 1.306.275.59.29 1.509.975 2.043 1.52s1.148 1.354 1.365 1.8c.214.445.388 1.037.384 1.316-.006.458.027.478.329.202.248-.226.303-.5.212-1.062a5.8 5.8 0 0 0-.426-1.367c-.168-.334-.647-.982-1.064-1.438s-1.214-1.092-1.771-1.412-1.286-.583-1.62-.583m233.488-3.355c.514-.195 1.18-.271 1.822-.208.561.056 1.644.407 2.43.79.883.43 1.711 1.024 2.195 1.575.427.486.996 1.316 1.266 1.845.328.645.49 1.312.494 2.025.004.864-.11 1.223-.607 1.923-.42.589-.853.934-1.374 1.092-.437.131-1.274.178-1.974.107a7.4 7.4 0 0 1-2.328-.683c-.614-.307-1.525-.973-2.026-1.477-.502-.504-1.162-1.418-1.47-2.028-.317-.63-.559-1.441-.557-1.87 0-.418.125-1.056.277-1.419.152-.362.448-.816.659-1.01.21-.195.747-.492 1.193-.663m-93.851 3.142c-.103 0-.387.24-.628.533a1.9 1.9 0 0 0-.419 1.215c.013.375.192 1.024.401 1.442.208.417.733 1.071 1.165 1.452.431.38 1.081.814 1.443.962.363.147.954.271 1.317.273.467.004.832-.172 1.265-.611.585-.593.592-.616.153-.612-.252.002-.89-.213-1.418-.478-.529-.263-1.304-.857-1.721-1.317s-.897-1.107-1.064-1.44c-.168-.335-.303-.79-.303-1.014 0-.222-.086-.405-.191-.405m46.835-.804c-.093.004-.33.231-.524.506-.194.276-.353.705-.35.956.001.251.114.815.252 1.254.136.44.658 1.251 1.16 1.806.507.56 1.361 1.215 1.924 1.478.57.264 1.412.475 1.924.479.617.006 1.025-.108 1.26-.353.192-.198.352-.407.356-.461.002-.057-.292-.13-.654-.163-.363-.032-1.022-.222-1.468-.419-.445-.198-1.162-.672-1.592-1.054a9.2 9.2 0 0 1-1.365-1.605c-.322-.502-.623-1.254-.67-1.67-.046-.417-.16-.757-.253-.754m87.261 1.21c-.136 0-.304.25-.373.556-.091.399.039.87.452 1.657.435.826.893 1.316 1.845 1.974.696.482 1.561.932 1.924 1 .362.07.909.07 1.215 0 .305-.068.556-.216.556-.327s-.205-.203-.456-.201c-.251.001-.951-.25-1.555-.557-.61-.31-1.499-1.01-1.99-1.571-.489-.557-.997-1.355-1.13-1.772s-.352-.759-.488-.76m-272.687-1.215c-.372 0-.751.06-.844.135-.093.073-.154.21-.136.304.018.091.239.166.49.164s.865.261 1.367.587c.501.326 1.298 1.013 1.772 1.523.474.513 1.043 1.296 1.266 1.742.222.445.405.992.405 1.215 0 .222.068.404.151.405.083 0 .266-.183.405-.405.187-.298.199-.58.047-1.064-.115-.363-.433-1.045-.709-1.519a9 9 0 0 0-1.261-1.59c-.417-.4-1.102-.902-1.519-1.113-.417-.212-1.063-.384-1.434-.385m233.05-.39a5.5 5.5 0 0 0-1.29.256c-.669.227-.682.253-.568 1.144.073.563.39 1.317.834 1.975.395.585 1.136 1.358 1.646 1.72.51.363 1.31.813 1.773 1.002s1.277.348 1.805.354c.529.006 1.098-.033 1.266-.09.206-.069.304-.375.302-.962-.002-.473-.215-1.316-.472-1.873-.281-.603-.913-1.407-1.567-1.988-.715-.636-1.45-1.077-2.11-1.268-.556-.16-1.285-.281-1.62-.27m-184.601.191c-.288-.002-.599.056-.693.131-.093.073-.156.187-.137.254.017.065.328.227.692.36.362.134 1.069.55 1.571.925.5.375 1.303 1.269 1.781 1.986.477.716.909 1.597.961 1.96.079.562.139.621.406.405.172-.14.308-.527.3-.862-.007-.334-.193-.994-.414-1.467s-.834-1.33-1.363-1.904c-.528-.573-1.326-1.21-1.771-1.414-.446-.202-1.046-.372-1.333-.374m225.038.704c-.114-.07-.213.122-.23.444-.014.336.212.902.554 1.38a10.6 10.6 0 0 0 1.322 1.467c.41.363.994.784 1.3.938s.875.34 1.266.415l.709.134a91 91 0 0 1-2.631-2.105c-.781-.645-1.579-1.305-1.774-1.468-.194-.162-.345-.47-.335-.686.013-.217-.07-.45-.181-.519m-181.778-8.156c-.024-.028-1.037 1.004-2.252 2.296-1.216 1.29-2.267 2.59-2.338 2.888-.071.297-.139 2.135-.156 4.085l-.026 3.544 4.023-4.253c.361-4.55.539-6.464.628-7.189s.144-1.34.121-1.37m7.486 1.458c.563.037 1.484.304 2.075.598.585.291 1.481.917 1.993 1.39.51.474 1.186 1.273 1.502 1.773.314.502.728 1.458.918 2.126.233.818.301 1.512.21 2.126-.075.502-.315 1.231-.538 1.62-.223.39-.738.938-1.143 1.216-.625.43-.966.506-2.269.506s-1.712-.092-2.726-.608c-.674-.344-1.643-1.09-2.232-1.721-.571-.612-1.283-1.614-1.583-2.228-.3-.611-.604-1.57-.675-2.126-.071-.557-.03-1.4.094-1.873.133-.516.526-1.17.981-1.633.425-.431 1.117-.872 1.571-1.002.445-.127 1.265-.202 1.822-.164M27.81-32.07c-.085.02-.856.087-1.715.152-1.543.117-1.573.132-2.598 1.132-.568.556-1.324 1.368-1.676 1.803l-.643.793c3.526-.207 3.675-.252 4.125-.798.263-.32.97-1.108 1.57-1.747.598-.64 1.088-1.21 1.09-1.266 0-.057-.07-.088-.153-.07m-286.025-2.256c-.3-.002-.589.065-.644.148-.051.084.371.378.939.657.571.278 1.452.878 1.96 1.331.509.452 1.177 1.319 1.485 1.924.305.603.557 1.303.557 1.555-.002.25.069.455.158.456.089 0 .273-.113.409-.253s.245-.392.241-.558c-.002-.168-.233-.781-.51-1.366s-.936-1.533-1.467-2.106c-.528-.573-1.326-1.209-1.771-1.413-.446-.203-1.056-.373-1.357-.375m276.913-1.217c-.084 0-.857.776-1.721 1.722-.86.942-1.54 1.742-1.52 1.785.029.038.78.656 1.671 1.375.891.717 1.94 1.548 2.33 1.845l.707.539c2.217-2.416 2.923-3.23 3-3.37.087-.155-.223-.588-.796-1.114a35 35 0 0 0-2.227-1.822c-.71-.528-1.359-.962-1.444-.96m-228.074 1.094c-.52-.09-.794-.035-1.012.21-.268.295-.257.33.105.324.223-.004.861.257 1.418.579s1.302.891 1.654 1.264c.355.372.88 1.134 1.171 1.691.29.557.525 1.264.523 1.57-.004.404.076.527.297.454.168-.056.361-.352.427-.658.075-.338-.022-.917-.245-1.468-.204-.502-.714-1.344-1.135-1.872-.422-.53-1.156-1.189-1.629-1.466-.472-.278-1.181-.561-1.574-.628m-47.571-6.16c-.107 0-.432.295-.72.658-.487.609-.518.765-.415 2.126.061.808.203 1.512.315 1.57.111.056.315-.042.455-.212.14-.172.48-.308.76-.3.277.007.871.177 1.316.373.446.199 1.203.677 1.685 1.06.482.385 1.19 1.154 1.577 1.71.389.558.835 1.513.995 2.127.269 1.039.26 1.158-.112 1.771-.219.363-.376.7-.348.748.031.05.599.229 1.266.4 1.127.29 1.241.288 1.581-.037.2-.193.464-.67.584-1.06.188-.613.145-.871-.331-1.924-.301-.668-.966-1.899-1.478-2.733-.512-.836-1.302-1.912-1.758-2.392-.453-.48-1.146-1.065-1.535-1.298-.391-.232-1.371-.842-2.183-1.354-.81-.51-1.47-1-1.468-1.082s-.081-.151-.186-.151m184.393 6.007c-.478.5-.53.681-.412 1.386.075.446.341 1.219.588 1.72.248.501.804 1.2 1.238 1.553a9.5 9.5 0 0 0 1.698 1.058c.502.231 1.254.421 1.67.423.511.002.943-.152 1.317-.474l.557-.477c-1.57-.21-2.39-.486-2.835-.75-.445-.26-1.197-.897-1.67-1.411-.473-.513-.964-1.185-1.092-1.49-.13-.306-.296-.907-.373-1.335l-.138-.778zm-46.3.272c-.111 0-.385.296-.606.658-.222.363-.403.794-.401.962 0 .166.213.76.47 1.316.259.557.781 1.276 1.162 1.6s.991.71 1.351.86c.363.15 1 .276 1.417.278.553.004.9-.136 1.266-.51l.506-.517c-.704.008-1.342-.194-1.868-.445-.529-.251-1.258-.752-1.62-1.114a7.7 7.7 0 0 1-1.102-1.46c-.243-.442-.425-.988-.405-1.215s-.057-.413-.17-.413m-41.307-4.4a3.4 3.4 0 0 0-1.721.31c-.446.209-.946.534-1.114.725-.271.307-.267.342.051.334.194-.004.354.083.355.194-.001.111-.183.247-.406.304-.222.056-.496.284-.607.506-.19.38-.152.397.658.28.563-.083 1.282-.004 2.075.226.974.284 1.443.58 2.36 1.494.627.626 1.332 1.55 1.563 2.05a4.7 4.7 0 0 1 .409 1.924l-.014 1.013c-.549-1.727-.905-2.615-1.146-3.09-.241-.473-.78-1.192-1.197-1.597s-1.124-.899-1.569-1.097a8 8 0 0 0-1.613-.493c-.443-.07-1.008-.033-1.265.086-.255.12-.466.286-.468.368.001.084.432.225.962.312.532.09 1.24.292 1.574.454s.927.553 1.315.873c.389.318 1 1.116 1.356 1.774.354.656.718 1.583.809 2.06.142.744.233.862.67.856.278-.004.608-.074.732-.157.123-.081.387-.466.583-.856.257-.512.322-.948.231-1.57-.071-.473-.356-1.316-.634-1.872-.279-.557-.768-1.309-1.086-1.671-.317-.363-1.115-.952-1.771-1.31s-1.397-.654-1.648-.658-.502-.098-.557-.21c-.057-.11.034-.246.202-.303s.508-.099.759-.094c.251.004.995.3 1.653.658.656.358 1.508 1.016 1.889 1.462a11.5 11.5 0 0 1 1.223 1.822c.409.785.528 1.318.539 2.377.006.749.056 1.367.113 1.375.055.002.272-.339.478-.759.292-.593.348-1.017.251-1.879a8.2 8.2 0 0 0-.595-2.127c-.258-.557-.918-1.472-1.466-2.035-.547-.56-1.452-1.24-2.009-1.507-.557-.265-1.424-.514-1.924-.552m135.07 3.68c-.5-.037-1.094-.017-1.317.046a3.3 3.3 0 0 0-.81.395c-.362.25-.269.279.912.275.725-.004 1.727.138 2.227.316.5.176 1.237.565 1.636.865.399.297 1.037.903 1.418 1.344.38.442.887 1.307 1.122 1.924.263.684.473 1.004.54.819.059-.166.02-.715-.089-1.215-.11-.5-.367-1.186-.571-1.52-.205-.334-.814-1.013-1.353-1.509-.54-.496-1.393-1.074-1.893-1.287-.5-.214-1.322-.417-1.822-.454m-137.956.925c-.194-.002-.354.11-.354.249-.002.14.191.618.424 1.063.235.446.804 1.205 1.267 1.689s1.296 1.144 1.853 1.466 1.08.589 1.164.59c.083 0 .095-.295.026-.657-.07-.362-.333-1.067-.589-1.569-.255-.5-.721-1.156-1.039-1.456-.315-.3-.986-.731-1.486-.958-.502-.227-1.071-.415-1.266-.417m-93.915-1.11c-.388-.075-.791-.069-.892.014-.101.081-.171.224-.151.318.019.09.24.17.489.172.251.004.905.3 1.452.658.547.36 1.276.982 1.62 1.383a9.5 9.5 0 0 1 1.063 1.62c.242.49.524 1.118.625 1.397l.189.507c.417-.812.403-1.132.164-1.924-.207-.69-.64-1.375-1.367-2.152-.583-.626-1.381-1.3-1.772-1.5a6.5 6.5 0 0 0-1.42-.493m52.951-7.955c-.966-.095-1.075-.054-2.025.748a44 44 0 0 0-1.97 1.795l-.966.949c.006 2.276.099 2.98.211 3.037s.27 0 .353-.125c.095-.142.414-.174.861-.085.389.077 1.074.35 1.519.607.445.26 1.243.935 1.772 1.504.528.57 1.189 1.514 1.466 2.099.278.585.504 1.314.506 1.62s-.089.74-.2.962c-.178.358-.113.426.557.595.417.105 1.067.127 1.442.05.376-.077.773-.322.887-.545s.166-.816.115-1.316c-.059-.61-.448-1.55-1.171-2.835-.593-1.057-1.407-2.276-1.81-2.705-.4-.431-1.458-1.265-2.349-1.855-.891-.589-1.894-1.3-2.228-1.58-.334-.277-.538-.56-.455-.626.086-.063.814.275 1.62.754.808.48 1.947 1.074 2.532 1.317.584.242 1.175.443 1.315.443s.801-.5 1.469-1.114l1.215-1.111c-1.413-1.302-2.234-1.862-2.734-2.083-.502-.22-1.371-.445-1.932-.5m-4.591 7.851c-.411-.002-.8.088-.861.2-.06.11.049.201.244.201.196-.002.718.19 1.164.423.445.235 1.205.804 1.687 1.268.482.462 1.09 1.205 1.347 1.65.259.446.526 1.107.593 1.469.071.387.225.63.373.59.139-.036.283-.332.317-.657.034-.326-.095-1.002-.289-1.502-.196-.502-.772-1.357-1.28-1.904-.509-.544-1.29-1.158-1.736-1.363-.445-.202-1.146-.373-1.559-.375m-44.508-7.907c-.697.002-1.15.164-1.924.686-.556.377-1.174.854-1.373 1.063-.346.366-.337.396.203.774.31.217 1.064.678 1.677 1.027.612.348 1.66.834 2.328 1.079 1.164.427 1.236.432 1.722.095.49-.342.5-.34.332.044-.097.221-.221.537-.278.703-.054.167.144.851.444 1.52.3.667 1.036 1.943 1.638 2.834.599.891 1.231 1.825 1.401 2.076s.263.547.209.658c-.059.117-.274.054-.513-.152-.394-.34-.41-.338-.402.05.006.224.086.544.182.71.137.24.472.011 1.628-1.114.8-.78 1.496-1.577 1.545-1.772.051-.194-.059-.924-.243-1.62s-.544-1.721-.804-2.278c-.257-.557-.927-1.582-1.488-2.279-.931-1.156-1.049-1.239-1.373-.968-.194.167-.446.306-.557.312s-.02-.18.203-.415l.404-.425c-1.255-1.07-2.167-1.659-2.835-1.997-.824-.417-1.508-.613-2.126-.611m182.16 7.009c-.17.269-.312.807-.312 1.196 0 .39.12 1.007.267 1.367.146.362.625 1.057 1.063 1.545.437.486 1.229 1.102 1.758 1.367.528.266 1.349.539 1.823.608.727.107.953.048 1.468-.377l.607-.504c-1.49-.2-2.288-.442-2.733-.664s-1.185-.792-1.643-1.266c-.458-.472-.974-1.134-1.147-1.469a11 11 0 0 1-.577-1.449l-.26-.843zm-46.878.937c-.131.478-.189 1.096-.126 1.373.063.28.347.871.632 1.317.284.445.809 1.016 1.165 1.265.357.251 1.035.593 1.507.759.557.196 1.085.252 1.492.152.348-.083.712-.265.81-.405.123-.174.005-.338-.379-.53-.306-.152-1.104-.728-1.772-1.278s-1.636-1.568-2.15-2.26l-.938-1.262zm-89.974-.843c-.32.009-.153.148.557.468.557.251 1.412.817 1.9 1.256.486.437 1.119 1.207 1.407 1.707.287.502.587 1.184.664 1.519l.14.607c.032-.863-.156-1.5-.397-1.975-.241-.471-.857-1.302-1.367-1.844-.51-.54-1.269-1.156-1.689-1.367-.417-.21-.964-.377-1.215-.37m-47.999.266c-.419-.127-.802-.174-.853-.102-.05.071.339.33.865.58a9.6 9.6 0 0 1 1.747 1.114c.436.364 1.068 1.073 1.404 1.573.336.502.733 1.231.881 1.62.247.646.261.654.154.1-.065-.334-.318-1.004-.559-1.491-.243-.488-.991-1.4-1.661-2.025-.684-.64-1.551-1.24-1.978-1.369m138.216-2.809c-.328-.86-.427-1.008-.344-.507.064.391.381 1.256.701 1.924.32.669 1.012 1.716 1.539 2.33.524.613 1.372 1.459 1.883 1.882.512.425 1.568 1.078 2.347 1.45.78.373 1.826.732 2.328.794l.912.116c-1.727-.563-2.819-1.04-3.539-1.422-.723-.38-1.939-1.288-2.703-2.011s-1.673-1.771-2.026-2.328c-.35-.557-.844-1.56-1.098-2.228m-81.248-1.316c-.109 0-.745.524-1.414 1.164l-1.217 1.164c.561 1.57 1.169 2.755 1.711 3.646.541.89 1.105 1.757 1.248 1.923.146.166.265.417.267.557.004.14-.132.21-.298.152q-.303-.1-.303.304c0 .223.083.383.184.355.102-.029.693-.53 1.316-1.115.622-.584 1.217-1.222 1.323-1.417.121-.228.095-.818-.077-1.67-.146-.723-.517-1.817-.825-2.43-.305-.614-.817-1.457-1.137-1.874s-.67-.758-.778-.759m84.438-3.444c-.502 0-1.217.16-1.592.356-.374.194-.858.674-1.075 1.063-.304.542-.371.946-.288 1.721.063.592.425 1.638.873 2.517.512 1.008 1.236 1.98 2.185 2.936.991 1 1.906 1.686 3.037 2.27.889.462 2.096.94 2.681 1.063.733.156 1.315.163 1.874.023.484-.122 1.014-.447 1.316-.81.277-.334.567-.95.64-1.367.085-.478.006-1.25-.209-2.076-.19-.723-.638-1.8-.994-2.392-.358-.589-1.157-1.591-1.774-2.227-.618-.634-1.666-1.44-2.328-1.79-.665-.353-1.71-.786-2.322-.964-.613-.18-1.524-.325-2.024-.323m45.562 5.266c-.08 0-.31.167-.511.371-.243.243-.359.626-.334 1.114.02.409.156 1.038.303 1.401.146.362.626 1.057 1.063 1.543.437.488 1.252 1.116 1.808 1.394.608.305 1.396.517 1.97.532.708.018 1.062-.081 1.365-.381l.411-.404c-1.647-.24-2.49-.523-2.935-.785-.445-.259-1.14-.874-1.546-1.362-.403-.49-.88-1.187-1.062-1.55-.18-.362-.343-.931-.359-1.265s-.094-.608-.173-.608m88.679-4.862c-.065 0-.338.294-.607.652-.268.357-.6.835-.734 1.064-.135.227-.25.641-.259.919-.006.28.168 1.097.39 1.822.218.723.675 1.703 1.016 2.177s1.278 1.357 2.086 1.965c.808.605 1.876 1.249 2.378 1.43.713.254 1.307.297 2.735.192l1.822-.136c-.105-1.144-.033-1.703.093-1.983.182-.404.154-.686-.147-1.417l-.375-.912c-1.335 1.883-1.922 2.541-2.166 2.675-.245.136-.739.252-1.101.254-.363.004-.978-.13-1.366-.296-.391-.166-1.18-.737-1.752-1.265-.573-.529-1.209-1.327-1.411-1.773-.205-.445-.375-1.152-.377-1.57-.004-.602.182-.988.907-1.872.5-.614.911-1.158.911-1.215s-.434-.24-.962-.407c-.528-.168-1.013-.306-1.081-.304m-2.763 2.635c-.108.002-.88.752-1.712 1.67l-1.521 1.672c.757 2.824 1.04 3.766 1.115 3.914.097.188.596-.213 1.633-1.317 1.48-1.573 1.492-1.594 1.383-2.497-.061-.5-.246-1.48-.407-2.177-.164-.696-.385-1.265-.49-1.265m-84.245.41c-.083.005-.311.232-.506.507-.194.275-.354.82-.354 1.209s.144 1.051.32 1.468.608 1.11.962 1.54c.363.44 1.17 1.037 1.857 1.37.694.339 1.54.59 1.974.588a1.88 1.88 0 0 0 1.317-.504l.556-.501c-1.334-.01-2.04-.15-2.43-.316s-1.168-.737-1.73-1.265c-.564-.529-1.202-1.349-1.419-1.823-.217-.473-.394-1.178-.394-1.569 0-.389-.07-.707-.153-.703m3.342-2.235c-.818.002-1.082.111-1.772.735-.701.632-.81.847-.806 1.57.002.46.17 1.2.37 1.646s.679 1.164 1.06 1.595c.38.432 1.1.995 1.603 1.25.5.255 1.276.487 1.722.515.445.026 1.014-.013 1.265-.088.251-.073.547-.315.659-.538.168-.338.143-.389-.153-.302-.194.055-.689.123-1.097.152-.41.026-.82-.023-.911-.11-.093-.087.175-.153.591-.151.417.004 1.032-.132 1.367-.298s.662-.509.727-.76c.067-.251.05-.82-.034-1.265-.087-.446-.444-1.221-.794-1.721-.36-.514-1.118-1.199-1.737-1.571-.833-.5-1.331-.66-2.06-.659m85.912 5.539c.389.425.982.917 1.316 1.091.334.175.859.395 1.165.49.35.11.556.097.556-.03 0-.111-.138-.203-.303-.203-.169 0-.69-.192-1.165-.427a8.4 8.4 0 0 1-1.569-1.063l-.709-.636zm-134.367-4.037c.362-.262.468-.215 1.215.538.761.77.873.82 1.677.71.736-.099.905-.05 1.172.34.296.43.28.485-.919 1.47l.601.809c.332.445.61.9.618 1.012s-.131.341-.309.507c-.29.273-.412.202-1.196-.709-.828-.962-.899-1-1.407-.76-.293.14-.671.253-.838.253-.168 0-.418-.232-.557-.515-.231-.474-.203-.558.962-1.447l-.708-.961c-.691-.936-.7-.968-.311-1.247M22.64-41.76c-.057-.524-.067-.53-.39-.152a4 4 0 0 0-.55.946c-.119.306-.157.808-.084 1.113.073.306.251.74.399.962q.267.405.07.659c-.137.178-.002.468.462.978.363.399 1.023.899 1.468 1.11s1.129.388 1.52.392c.56.004.78-.113 1.046-.555.187-.308.528-.763.76-1.014l.421-.456c-1.343-.291-2.19-.735-2.785-1.199-.585-.453-1.245-1.146-1.468-1.535-.223-.388-.496-.708-.607-.708-.112 0-.23-.243-.262-.54m-133.212 2.795c-.245-.237-.293-.2-.334.253a3.1 3.1 0 0 1-.249.935c-.111.223-.156.405-.101.406.055 0 .353-.094.658-.21.417-.155.6-.143.727.052q.172.256.05-.095c-.077-.227.027-.446.286-.608.224-.139.407-.322.405-.405 0-.083-.26-.13-.58-.101-.317.028-.706-.075-.862-.227m133.479-1.394c.004-.228.155-.102.428.355.235.39.752.982 1.15 1.316s1.183.764 1.746.956c.592.2.832.35.57.355-.252.004-.89-.212-1.418-.477-.528-.263-1.304-.855-1.721-1.315-.418-.458-.757-.995-.755-1.19m-88.785-.253c.128-.23.2-.155.29.304.07.334.28.928.468 1.317.19.39.348.753.353.81.001.055-.143-.035-.32-.203-.179-.166-.468-.668-.642-1.113-.188-.486-.25-.932-.149-1.114m86.864.738c-.097.077-.16.377-.14.664s.116.66.213.826.28.234.403.152c.123-.084.22-.312.216-.506-.002-.195-.121-.564-.26-.817-.14-.255-.335-.398-.432-.32m4.127-3.776c-.231 0-.686.274-1.012.608-.535.549-.571.672-.383 1.265.116.363.316.794.445.962.132.169.47.563.753.88.284.315.86.749 1.277.961.417.213 1.054.39 1.417.394.372.004.81-.15 1.006-.355.193-.198.353-.656.355-1.018a3.1 3.1 0 0 0-.28-1.216c-.158-.306-.592-.848-.962-1.204-.373-.356-1.019-.79-1.436-.962s-.947-.314-1.18-.314"/></g></svg>