<svg xmlns="http://www.w3.org/2000/svg" fill="none" viewBox="0 0 32 32"><mask id="a" width="32" height="32" x="0" y="0" maskUnits="userSpaceOnUse" style="mask-type:alpha"><path fill="#d9d9d9" d="M0 0h32v32H0z"/></mask><g mask="url(#a)"><path fill="#e31e24" d="m11.116.205.453.209 1.475.68c1.032.48 3.422 1.57 8.722 3.978l.485.22.548.547c.362.36.64.72.814 1.055.147.28.334.788.415 1.128.147.607.15.795.15 18.849l-1.527 3.057-.382.178c-.197.091-.337.133-.457.138l-.019.002a.5.5 0 0 1-.119-.013q-.03-.009-.062-.022l-.028-.01a.53.53 0 0 1-.216-.164 10 10 0 0 1-.277-.59c-.21-.462-.557-1.235-1.097-2.467l-.072-17.32-.219-.39c-.12-.216-.3-.45-.4-.52l-.049-.027c-.188-.102-.78-.384-1.406-.665-.558-.25-1.739-.786-2.874-1.31l-.838-.384-.546-.252c-1.13-.523-2.13-.987-2.35-1.08a5 5 0 0 0-.462-.195l-.062-.017c-.03 0-.048 1.041-.059 4.96a4181 4181 0 0 0-.007 11.669l-.662 1.419q-.147.307-.28.582c-.164.34-.3.623-.387.787a2 2 0 0 1-.083.153 1 1 0 0 1-.058.047c-.075.058-.2.135-.32.195-.188.092-.369.13-.51.103-.12-.022-.254-.083-.3-.135-.019-.023-.1-.19-.28-.591-.225-.497-.603-1.353-1.202-2.742v-8.9c0-4.572.009-6.956.036-8.187.015-.712.036-1.038.065-1.18q.008-.038.02-.08a4 4 0 0 1 .262-.756c.057-.111.137-.237.216-.346.064-.088.127-.166.179-.215.11-.102.633-.444 1.157-.757.29-.173.58-.334.802-.45.177-.094.31-.157.362-.172.117-.03.49-.049 1.45-.02m12.381 26.927c-.036-.006-.316.096-.643.236-.336.144-.639.289-.684.327-.037.046-.124.5-.188 1.017q-.023.173-.042.333c-.049.38-.086.68-.087.72q0 .021.008.033c.016.018.048.016.106-.006l.102-.046c.113-.057.216-.185.41-.533.109-.194.247-.456.426-.814.171-.342.324-.655.432-.884.108-.23.17-.375.163-.383zM72.43-.711c.136 0 .362.028.568.07l.195.045c.24.062.732.255 1.092.43a10.313 10.313 0 0 1 1.273.765c.22.158.51.397.768.623.145.126.28.247.385.35.147.142.314.32.465.494.151.173.285.341.369.461.16.24.357.567.43.728.065.16.13.43.13.597 0 .132-.025.293-.062.41a1 1 0 0 1-.04.103q-.009.014-.02.03a3.5 3.5 0 0 1-.474.556c-.172.172-.277.266-.392.327-.123.067-.256.094-.503.132-.295.045-.892.059-2.329-.012l-.405.567c-.223.311-.679.942-1.014 1.402s-1.266 1.754-2.073 2.875-2.428 3.365-3.602 4.985l-.967 1.335-2.09 2.886c-.507.7-1.876 2.6-3.041 4.22q-.336.466-.652.9c-.355.49-.683.938-.956 1.306-.374.505-.644.858-.734.96l-.017.022c-.109.109-.758.615-1.544 1.204q-.244.186-.498.38c-.987.735-1.836 1.34-1.892 1.345a.1.1 0 0 1-.041-.008.32.32 0 0 1-.145-.104c-.072-.088-.043-.24.16-.823.128-.355.465-1.277.779-2.125l.079-.217c.569-1.539.639-1.684 1.156-2.403.303-.42 1.005-1.403 1.56-2.183.554-.781 1.762-2.467 2.681-3.747.92-1.28 2.018-2.803 2.438-3.384l.298-.411c.32-.445.696-.96.988-1.356l.171-.235c.381-.52 1.008-1.372 1.392-1.893.385-.52.948-1.29 1.25-1.71.172-.24.582-.804 1.079-1.49.374-.52.797-1.109 1.208-1.676a167 167 0 0 0 1.797-2.496c.023-.064-.08-.498-.235-.978-.158-.49-.316-1.072-.353-1.292q-.009-.061-.015-.116c-.026-.216-.021-.39.028-.54.022-.07.072-.177.133-.295a5 5 0 0 1 .165-.29l.037-.062c.139-.218.35-.459.474-.531s.357-.131.546-.131M8.387 1.69c-.102 0-.292.058-.43.131a1.6 1.6 0 0 0-.451.379 1 1 0 0 0-.09.133c-.09.158-.181.378-.227.558-.024.09-.041.222-.056.473-.047.819-.056 2.897-.056 8.879l-.004 4.15v4.765c.764 1.883 1.003 2.413 1.023 2.392.016-.019.054-.221.095-.48q.014-.093.029-.194c.033-.233.056-.95.071-2.429.014-1.48.02-3.721.022-7.003.001-5.137.026-8.344.066-8.972q.003-.083.008-.103v-.003c.04-.152.17-.355.29-.456a.67.67 0 0 1 .383-.173q.075-.009.164-.009l.119.013c.327.062 1.047.376 3.283 1.411 1.018.472 2.232 1.03 3.263 1.501.681.312 1.283.587 1.697.773 1.386.628 1.88.88 2.129 1.1l.048.042q.023.025.048.053c.154.163.323.402.402.565.146.32.145.452.182 8.989l.037 8.66c.516 1.127.749 1.644.844 1.877.077.184.129.288.165.321q.034.03.053-.028c.018-.053.053-.299.09-.606.013-.115.03-.239.041-.364.016-.14.029-.374.04-.728.03-1.074.038-3.256.03-7.277l-.004-1.747c-.006-2.171-.011-3.816-.017-5.07-.01-1.98-.024-2.98-.05-3.526-.021-.451-.05-.591-.094-.718a8 8 0 0 0-.29-.71l-.008-.018a3 3 0 0 0-.078-.14l-.047-.079a4 4 0 0 0-.276-.4l-.03-.034a4 4 0 0 0-.372-.376 3 3 0 0 0-.134-.11c-.165-.127-.809-.46-1.429-.738l-.247-.112c-.483-.217-1.084-.49-1.546-.703l-.317-.145-1.053-.49-1.494-.69c-.191-.092-.383-.18-.565-.264-.634-.294-1.165-.54-1.29-.595-.11-.048-.485-.225-.949-.443-.216-.102-.453-.21-.69-.322a53 53 0 0 0-1.397-.633 7 7 0 0 0-.35-.142 3.4 3.4 0 0 0-.427-.114 1 1 0 0 0-.154-.02M57.35 26.223c-.085.108-.27.356-.462.612q-.083.11-.161.218a63 63 0 0 0-.685.964l-.083.12a4 4 0 0 0-.17.27c-.068.118-.09.181-.047.156.072-.04.33-.232.575-.427a55.11 55.11 0 0 1 1.142-.864c.385-.284.698-.525.698-.547.007-.022-.102-.087-.233-.145a.52.52 0 0 1-.231-.198.6.6 0 0 1-.076-.158l-.075-.245zm.14-.838c-.044.026-.1.063-.163.103a1 1 0 0 1-.162.082.7.7 0 0 1-.238.065.5.5 0 0 1-.108-.015c-.069-.015-.132-.04-.16-.073-.051-.051-.11-.08-.125-.059l-.01.022c-.036.078-.147.361-.291.743a73.828 73.828 0 0 0-.71 1.942l-.03.093c.068-.072.475-.634.961-1.322l.217-.308c.427-.606.777-1.106.822-1.174.05-.076.083-.14.074-.14a.4.4 0 0 0-.078.04M10.495.615c-.445-.028-.512-.01-1.076.282a8 8 0 0 0-.308.17c-.176.102-.293.182-.289.201 0 .03.052.059.11.059l.11.04c.452.186 2.235.993 4.31 1.952 2.372 1.096 4.902 2.26 5.623 2.585l.611.285q.237.116.427.218.201.108.356.202.206.125.338.232c.232.19.554.54.715.78.16.241.38.7.486 1.02l.197.581c.029 13.965.043 18.055.057 18.085.007 0 .129-.052.313-.128.13-.055.294-.12.466-.194l.764-.327.002-1.315c.022-10.493.024-14.379-.008-15.947-.016-.792-.04-.992-.076-1.155q-.02-.085-.049-.183a6 6 0 0 0-.313-.836 2 2 0 0 0-.115-.21 5.5 5.5 0 0 0-.51-.693 5 5 0 0 0-.394-.38 2 2 0 0 0-.283-.215 29 29 0 0 0-1.184-.569c-.267-.123-.558-.259-.854-.393-.362-.165-.774-.355-1.185-.541l-1.762-.802c-.26-.118-.666-.307-1.145-.528l-.978-.45-1.48-.682a63 63 0 0 0-1.95-.881l-.213-.085c-.345-.133-.512-.165-.713-.178m61.57 3.193q-.01.001-.056.054a6 6 0 0 0-.196.259c-.05.069-.108.144-.163.225-.075.106-.144.21-.204.3-.065.099-.12.181-.151.236a.3.3 0 0 0-.031.067c.003.034.1.18.218.326.062.078.114.157.147.22.03.06.046.105.035.126-.022.043-.102.072-.181.072-.08 0-.226-.109-.32-.232l-.175-.24c-.353.508-.456.671-.456.69 0 .011.025.053.065.111l.158.217c.118.152.168.228.17.285a.1.1 0 0 1-.013.055.3.3 0 0 1-.049.06l-.012.01c-.047.042-.08.058-.13.035-.05-.021-.116-.085-.229-.205l-.247-.276c-.28.45-.362.622-.361.673 0 .033.04.107.097.193q.047.069.104.138c.096.118.143.18.15.228q.003.029-.012.053l-.008.013a.5.5 0 0 1-.066.073c-.061.057-.097.083-.143.068-.047-.014-.103-.07-.205-.18-.116-.13-.225-.233-.24-.219q-.006.003-.016.014c-.038.042-.131.16-.23.293l-.19.26-.022.03c.16.21.26.36.317.464a.7.7 0 0 1 .056.124q.013.044.005.066a.17.17 0 0 1-.146.11c-.06 0-.174-.098-.254-.217-.08-.12-.17-.217-.2-.217-.026 0-.117.104-.217.239l-.049.071c-.068.093-.282.39-.563.783-.229.32-.502.702-.78 1.088-.466.648-1.006 1.392-1.368 1.891l-.288.401-.415.57-.907 1.25-1.848 2.548c-.581.8-2.098 2.912-3.37 4.693-1.268 1.777-2.327 3.273-2.357 3.333a.12.12 0 0 0-.006.074.3.3 0 0 0 .03.08.303.303 0 0 0 .102.1c.064.033.133.02.265-.029l.027-.013a1 1 0 0 0 .072-.041c.15-.096.385-.29.592-.491.261-.255.53-.466.603-.466a.13.13 0 0 1 .074.024c.03.02.05.05.05.085 0 .056-.137.323-.312.618q-.025.047-.052.095c-.21.342-.363.684-.363.8 0 .132.072.256.218.38.123.102.276.181.35.181.065 0 .232-.152.37-.341.139-.19.809-1.121 1.492-2.06a760 760 0 0 0 2.263-3.13c.568-.778 1.682-2.321 2.475-3.42.8-1.099 2.045-2.817 2.766-3.821.438-.6.96-1.323 1.406-1.938l.731-1.01.344-.472.474-.655c-.267-.154-.44-.256-.551-.324q-.1-.06-.142-.088a.3.3 0 0 1-.05-.044q-.078-.081-.044-.177l.018-.03c.032-.057.09-.1.143-.1l.07.018c.096.036.252.12.402.217.068.044.134.08.19.113.07.039.126.07.16.083a.1.1 0 0 0 .033.005h.003c.015-.023.11-.153.219-.291v-.001c.105-.14.191-.286.193-.327 0-.023-.057-.075-.145-.137a3 3 0 0 0-.216-.133 2 2 0 0 1-.146-.09c-.128-.085-.219-.167-.22-.204-.003-.05.046-.14.109-.2.076-.073.11-.091.17-.051q.03.02.072.058c.066.065.233.174.364.24q.058.029.115.053c.056.025.106.044.14.055a.2.2 0 0 0 .036.008q.007 0 .017-.009c.046-.032.141-.135.23-.26l.195-.276q-.208-.139-.35-.236c-.283-.19-.387-.266-.404-.288a.1.1 0 0 1-.003-.03c0-.042.026-.111.068-.174q.034-.054.062-.08a.07.07 0 0 1 .068-.015c.048.009.117.051.24.132l.082.05q.016.012.034.022c.185.12.365.215.413.217.05 0 .19-.138.31-.308l.217-.31c-.524-.28-.713-.418-.758-.488-.058-.092-.054-.15.014-.218q.028-.03.067-.039c.055-.01.133.015.268.083q.081.039.192.1l.436.235c.615-.815.796-1.086.797-1.127 0-.03-.114-.131-.277-.247a5 5 0 0 0-.178-.118 7 7 0 0 1-.852-.67q-.107-.1-.2-.182a5 5 0 0 0-.19-.166.2.2 0 0 0-.046-.03M9.956 21.654l-.105.04-.08.033c-.103.044-.231.1-.366.162l-.59.266c-.016.011-.052.17-.094.407a19 19 0 0 0-.081.506l-.02.128c-.074.523-.116.976-.103 1.058q0 .008.002.011c.03.028.138-.022.247-.109.054-.045.136-.167.243-.35.135-.235.309-.573.503-.992.286-.616.497-1.124.494-1.174a.3.3 0 0 0-.05.014M9.144 4.177a.55.55 0 0 0-.217.14l-.001.001c-.131.146-.139.422-.153 8.806-.015 6.89 0 8.639.072 8.622.06-.021.382-.149.724-.29l.637-.262V4.53c-.646-.283-.901-.364-.99-.364a.3.3 0 0 0-.072.012M71.542.672c-.055.003-.069.122-.04.382q.007.064.028.167c.052.235.15.613.26.979l.05.164.299.928q.407.348.71.596c.495.406.804.634 1 .757l.508.32c2.016.03 2.447.008 2.548-.05.098-.055.115-.077.006-.103l-.151-.028a6 6 0 0 1-.445-.105c-.074-.02-.147-.037-.21-.055q-.031-.012-.068-.027a6 6 0 0 1-.601-.245q-.07-.03-.132-.061c-.24-.12-.732-.417-1.092-.657a11.537 11.537 0 0 1-1.36-1.135c-.51-.51-.702-.736-.884-1.098l-.08-.165q-.018-.039-.037-.078c-.132-.272-.261-.483-.309-.486m1.106-.906c-.208-.027-.394-.01-.51.051-.074.04-.12.078-.15.142a.9.9 0 0 0-.046.298 1.335 1.335 0 0 0 .046.438.7.7 0 0 0 .056.137c.04.08.157.25.303.442.093.123.198.255.303.38a9.5 9.5 0 0 0 .988.99c.183.15.417.33.611.477.1.075.187.143.255.19q.053.038.123.081c.223.141.557.335.822.467q.102.052.22.106c.14.063.293.125.436.178a2.979 2.979 0 0 0 .981.216 1 1 0 0 0 .128-.006.8.8 0 0 0 .346-.152.4.4 0 0 0 .086-.173.5.5 0 0 0 .021-.136c0-.097-.086-.341-.194-.573l-.044-.093-.018-.032c-.145-.27-.458-.692-.76-1.014-.3-.32-.808-.778-1.128-1.017-.24-.18-.568-.406-.827-.573l-.23-.144a6.7 6.7 0 0 0-.981-.458q-.055-.019-.112-.037a5 5 0 0 0-.725-.185"/></g></svg>