<svg xmlns="http://www.w3.org/2000/svg" fill="none" viewBox="0 0 32 32"><mask id="a" width="32" height="32" x="0" y="0" maskUnits="userSpaceOnUse" style="mask-type:alpha"><path fill="#d9d9d9" d="M0 0h32v32H0z"/></mask><g mask="url(#a)"><path fill="#e31e24" d="M-135.499 146.642c2.23-.009 3.632.089 4.489.314.683.179 1.754.584 2.379.902.623.316 1.602 1.023 3.206 2.559l-.008-1.46c-.007-1.249.057-1.491.426-1.677.239-.119 1.114-.216 1.947-.216 1.164 0 1.595.088 1.861.378.268.292.329.706.262 1.785-.048.774-.133 1.553-.187 1.731-.071.238.107.344.66.398.416.039.883.186 1.037.324.214.193.278 1.483.274 5.551-.004 3.863-.078 5.374-.271 5.571-.145.149-.584.271-.975.271-.394 0-.774.123-.846.27-.071.15-.021.368.112.487.145.129.241.978.237 4.002l-.812.348c-.51.221-1.22.32-1.912.271-.603-.041-1.265-.223-1.469-.403-.255-.222-.367-.643-.361-1.352.007-.564-.039-1.026-.098-1.027s-.426.3-.811.666c-.387.363-1.092.896-1.568 1.179-.476.286-1.45.716-2.164.958-1.077.364-1.91.446-4.868.474-3.002.028-3.76-.033-4.763-.379-.658-.225-1.766-.751-2.464-1.168-.699-.415-1.722-1.292-2.276-1.947-.553-.654-1.367-1.918-1.806-2.812-.506-1.027-.892-2.215-1.054-3.245-.192-1.244-.192-2.025.005-3.353a12 12 0 0 1 1.031-3.354 11.7 11.7 0 0 1 1.995-2.888c.671-.696 1.657-1.52 2.194-1.83a13 13 0 0 1 2.163-.939c.897-.284 1.984-.378 4.435-.389m-.653.878c-2.18.02-3.057.1-3.354.19-.298.091-1.077.44-1.73.773-.655.335-1.701 1.127-2.326 1.763-.686.698-1.435 1.778-1.889 2.723a11.3 11.3 0 0 0-.979 3.192c-.126.893-.167 2.061-.096 2.595.071.537.316 1.558.541 2.272s.783 1.882 1.239 2.596c.459.713 1.314 1.726 1.901 2.248.588.521 1.554 1.166 2.149 1.432a13.5 13.5 0 0 0 2.218.727c.625.134 1.378.244 1.677.244.296 0 .538-.071.534-.162-.003-.089-.416-.355-.919-.591-.502-.234-1.497-.98-2.211-1.652-.714-.675-1.612-1.749-1.997-2.387-.383-.636-.896-1.936-1.138-2.888s-.438-2.265-.435-2.921c.004-.653.156-1.821.339-2.595.184-.773.645-1.986 1.026-2.698.378-.709 1.179-1.78 1.778-2.379.599-.598 1.67-1.403 2.38-1.786zm1.514.431c-.239-.002-1.114.327-1.947.731a9.3 9.3 0 0 0-2.616 1.888c-.606.636-1.349 1.642-1.652 2.237a16 16 0 0 0-.903 2.272c-.192.655-.35 1.823-.348 2.595 0 .775.147 1.967.327 2.651.177.685.56 1.707.848 2.271.287.567 1.04 1.6 1.676 2.296a8.4 8.4 0 0 0 2.668 2.005c.833.407 1.685.738 1.893.735s.939-.266 1.622-.586c.74-.344 1.78-1.111 2.563-1.892.727-.723 1.578-1.824 1.894-2.449.316-.623.664-1.55.776-2.056.113-.504.258-1.38.325-1.946.108-.922.071-1.046-.366-1.212-.337-.13-.58-.511-.792-1.244-.188-.658-.264-1.595-.199-2.466.095-1.27.05-1.478-.467-2.163-.313-.416-.965-1.097-1.445-1.515-.48-.415-1.448-1.07-2.148-1.451-.703-.383-1.471-.699-1.709-.701m8.071 15.24c-.986-.698-1.004-.683-1.743.621-.459.813-1.245 1.742-2.026 2.398-.7.587-1.34 1.123-1.421 1.189-.082.065.358.087.974.048.617-.037 1.413-.176 1.77-.306s1.081-.586 1.611-1.012c.528-.426 1.231-1.213 1.562-1.748.329-.536.539-1.071.467-1.19-.073-.123-.211-.051-.317.163-.13.266-.442.378-1.052.378-.475 0-.864-.097-.865-.216 0-.119.234-.24.519-.27zm1.772 2.488c0 .714.097 1.345.216 1.406.132.065.217-.361.217-1.082 0-.654.097-1.188.216-1.189.119 0 .24.495.27 1.099l.055 1.101 2.271.18v-2.813h-3.245zm-3.189.027c.089-.02.162.108.162.288 0 .239-.254.324-.974.324-.535 0-.972-.097-.973-.216 0-.119.366-.249.811-.288s.884-.089.974-.108m.837-.866c.073-.019.114.085.091.234-.025.155-.425.295-.946.325-.494.03-.899-.044-.901-.162 0-.119.365-.249.811-.288.444-.039.869-.089.945-.109m-.134-.685c.534 0 .974.098.974.217-.003.118-.441.215-.974.215-.535 0-.971-.097-.974-.215 0-.119.438-.217.974-.217m4.108-1.071c-.912 0-1.189.075-1.189.324 0 .253.244.311 1.118.27.675-.032 1.147-.162 1.191-.324.051-.192-.274-.27-1.12-.27m3.137-10.818c-3.939.035-5.423.128-5.841.232-.415.101-.83.264-.922.357-.09.094-.003.606.194 1.142.233.638.366 1.718.381 3.137.017 1.575-.08 2.458-.362 3.245-.212.595-.333 1.253-.27 1.46.078.26.335.379.817.379h.703c-.088-7.824-.03-9.519.109-9.519.138.003.216 1.734.216 4.76v4.759h4.975zm-7.77 1.225c-.078-.099-.212-.076-.296.053-.085.13-.098.7-.029 1.264.072.565.164 1.173.207 1.353.044.177.28.397.525.486.361.132.441.074.443-.324.002-.269-.158-.974-.352-1.569-.197-.594-.42-1.164-.498-1.263m-3.803-5.104.648.466c.357.257 1.073.91 1.59 1.453.519.543 1.087 1.279 1.26 1.636l.317.649c.677-.789 1.08-.973 1.485-.973.357 0 .649-.098.649-.217-.001-.12-.561-.699-1.244-1.287-1.237-1.067-1.248-1.071-2.382-.919-.847.112-1.137.082-1.136-.119.003-.165.299-.271.759-.271.433 0 .712-.093.65-.217-.06-.118-.67-.212-1.353-.21zm8.378 2.408c-.88-.051-1.109.003-1.12.271-.009.264.245.335 1.205.335.878 0 1.187-.076 1.118-.271-.057-.155-.568-.298-1.203-.335m-4.091-.018c.378.024.787.095.906.162s-.222.184-.757.26c-.535.075-.997.101-1.028.055-.03-.043.001-.177.068-.297.067-.122.433-.202.811-.18m2.754-2.911c-.229.08-.303.425-.271 1.283.033.878.124 1.17.369 1.17.25 0 .324-.288.324-1.298 0-.713-.024-1.287-.054-1.28zm.854 2.453 1.948-.108v-2.379l-1.93-.126zm-4.759-.619c.521.039.973.189 1.012.339.045.172-.18.275-.631.279-.388.006-.842-.148-1.013-.338-.281-.315-.22-.341.632-.28m-42.829-49.677c.534.061 1.354.327 1.819.591s1.146.853 1.514 1.309c.659.822.668.863.733 3.677.045 2-.017 3.035-.216 3.477-.156.344-.647.952-1.093 1.352-.447.398-.958.723-1.135.723-.18 0-.365.073-.417.162-.05.091.097.844.326 1.677.229.832.415 1.684.415 1.892 0 .21-.441 1.037-.98 1.839-.876 1.305-1.24 1.62-5.835 4.444l-1.189-.236c-1.03-.205-1.253-.188-1.64.13-.246.203-.956.952-1.575 1.666-.618.714-1.122 1.371-1.118 1.46.002.091-.141.162-.318.162-.18 0-.325.098-.325.217-.001.12-.513.757-1.135 1.414-1.073 1.129-1.195 1.197-2.164 1.19-.567-.004-1.346-.143-1.731-.307-.387-.165-1.064-.675-1.501-1.136-.439-.461-.902-1.103-1.027-1.432a4.1 4.1 0 0 1-.23-1.244c0-.48.426-1.19 1.663-2.758.915-1.16 1.98-2.449 2.368-2.867.475-.51.737-1.036.806-1.622.078-.664-.045-1.153-1.159-3.353l.582-.812c.32-.446 1.171-1.54 1.889-2.433.72-.892 1.553-2.11 2.396-3.787l1.298-.107c1.19-.097 1.302-.152 1.358-.649.035-.297.2-.931.369-1.407.235-.657.504-.952 1.129-1.235.452-.206 1.796-.763 2.986-1.241 1.769-.712 2.338-.849 3.137-.756m-56.289-.266c1.244-1.17 1.353-1.16 2.205-1.057.534.065 2.036.435 5.693 1.527l.935 1.298c.512.714 1.566 2.297 3.755 5.732l-1.101 2.759c-.603 1.518-1.163 2.854-1.243 2.975-.078.119-3.211 3.256-13.773 13.724l-1.081.008c-.595.005-1.861-.104-2.812-.242-1.729-.249-1.734-.251-3.206-1.676a43 43 0 0 1-2.705-2.926c-1.025-1.248-1.233-1.643-1.254-2.378-.013-.487-.094-1.81-.33-4.996l6.235-6.207c3.429-3.416 7.062-6.999 8.074-7.963zm249.88-1.153c.487 0 .83.184 1.22.65.295.356.66 1.042.81 1.52.147.478.368.872.487.874s.362-.15.541-.34c.178-.188.616-.341.973-.339.519.005.98.339 2.315 1.687 1.175 1.183 1.667 1.842 1.672 2.222.002.299-.188.762-.424 1.028-.233.268-.379.584-.318.703.058.119.472.327.92.461.445.134.993.393 1.216.575.272.223.398.584.378 1.107-.026.725-.617 1.368-8.52 9.271-5.495 5.496-8.64 8.49-8.921 8.491-.238.002-.654-.145-.92-.325-.268-.18-.633-.619-.81-.976-.18-.356-.325-.843-.326-1.081 0-.237-.097-.48-.216-.541-.118-.058-.484.135-.811.431-.329.294-.84.536-1.136.538-.391.002-1.038-.493-2.327-1.78-1.276-1.274-1.787-1.938-1.792-2.325-.002-.297.24-.784.537-1.082.299-.297.495-.613.439-.704-.057-.088-.542-.356-1.076-.594-.536-.238-1.143-.686-1.351-.995-.29-.433-.329-.682-.162-1.065.12-.276 3.977-4.304 8.571-8.954 7.451-7.537 8.43-8.457 9.031-8.457m-43.13-1.834c.504-.188 1.18-.272 1.623-.201.415.067 1.049.287 1.406.488.357.203.867.805 1.136 1.337.27.532.486 1.31.484 1.725-.002.417-.223 1.183-.49 1.705-.266.521-.773 1.127-1.13 1.345-.357.219-1.065.403-1.569.405-.841.006-1.02.114-2.055 1.248-.625.683-1.818 1.952-2.65 2.819-1.28 1.332-1.625 1.577-2.92 1.564v5.408c0 4.375-.063 5.534-.325 6.057-.18.357-.643.833-1.028 1.056a8.7 8.7 0 0 1-1.46.643c-.601.188-.792.383-.924.945-.09.391-.162 1.125-.162 1.629.002.846-.056.948-.753 1.244-.417.18-1.001.324-1.298.324s-.883-.144-2.055-.648v-3.245l-.811-.123c-.448-.07-1.227-.362-1.731-.65-.506-.287-1.06-.791-1.229-1.12-.25-.482-.313-2.171-.335-8.925-.022-7.181.021-8.393.309-8.815.184-.266.846-.729 1.471-1.025.624-.297 1.818-.647 2.65-.779a9.6 9.6 0 0 1 2.92-.035c.773.115 1.965.466 2.651.779.735.34 1.397.824 1.622 1.188.223.363.51.572.703.516.178-.054 1.03-.793 1.896-1.641 1.168-1.149 1.603-1.737 1.705-2.302.073-.415.257-1 .408-1.298.15-.296.452-.71.673-.918.22-.207.792-.52 1.268-.7m-167.303 24.776c-.1 0-.412.226-.691.502-.322.314-.495.717-.469 1.082.021.318.186.872.366 1.229.177.357.64.891 1.027 1.185s1.069.636 1.515.757c.558.154.995.152 1.406-.006.471-.181.528-.266.271-.409-.18-.099-.252-.287-.164-.422.089-.132.358-.24.596-.24s.479-.097.54-.216c.058-.119-.136-.216-.432-.216-.299-.001-.907-.182-1.352-.405s-1.11-.733-1.476-1.135c-.363-.403-.729-.95-.811-1.218-.08-.266-.229-.487-.326-.488m-93.706-20.534c.653-.011 1.302.052 1.44.139.141.086.383.618.541 1.183.197.698.426 1.058.723 1.131.238.061.577.115.757.121.177.007.591-.381.92-.861.534-.787.664-.862 1.297-.759.386.065 1.385.448 2.218.853.863.42 1.956 1.181 3.58 2.816l-.835 1.948.465.579c.407.504.55.552 1.116.377.357-.109.916-.2 1.244-.2.472 0 .704.191 1.125.92.293.507.684 1.359.873 1.893.188.536.435 1.534.551 2.218.199 1.187.175 1.313-.548 2.757-.629 1.259-.718 1.599-.523 2.001.203.424.031.821-1.352 3.064-.871 1.417-1.733 2.623-1.911 2.685-.18.061-.958.526-1.73 1.034-1.317.865-1.517.93-4.844 1.06l-.445-.822c-.403-.742-.544-.831-1.472-.92-.96-.091-1.053-.051-1.405.557-.225.382-.559.648-.812.648-.238-.002-1.043-.296-1.785-.653-.744-.357-1.425-.794-1.513-.976-.091-.179-.091-.374 0-.432.09-.055.795.186 1.568.543.772.356 1.503.601 1.622.541s.619-.814 1.112-1.677c.491-.861 1.027-1.738 1.19-1.947.266-.342.164-.442-1.058-1.054a35 35 0 0 1-2.759-1.588c-.774-.502-1.724-1.217-2.812-2.279l-.8 1.243a41 41 0 0 1-1.406 2.055c-.333.448-.558.908-.498 1.028.058.119.79.753 1.623 1.406.832.655 1.48 1.312 1.44 1.46-.039.149-.209.298-.378.333-.168.035-1.067-.646-1.997-1.514-.93-.867-1.646-1.675-1.59-1.794.056-.12-.078-.751-.299-1.406-.359-1.062-.496-1.221-1.281-1.513-.484-.178-.979-.47-1.098-.65-.128-.184-.197-1.385-.163-2.812.031-1.367-.01-2.585-.092-2.705-.082-.119.441-1.384 1.164-2.812s1.423-2.721 1.559-2.875.466-.275.734-.271c.378.007.622-.264 1.111-1.235.346-.683.955-1.48 1.353-1.769.4-.29 1.213-.645 1.808-.788.595-.142 1.616-.27 2.272-.281m41.911 12.323c-.03.004-.421.32-.866.703l-.811.694c.333 3.521.381 4.69.32 4.868-.068.2.631 1.16 1.809 2.487 1.055 1.19 2.152 2.375 2.437 2.635.338.307 1.156.597 2.357.835 1.034.208 2.17.308 2.596.23.415-.076.882-.258 1.036-.405.153-.145.277-.484.27-.753-.004-.266.225-1.142.513-1.947l.52-1.46c-2.354-3.184-3.32-4.621-3.662-5.246-.343-.622-.698-1.09-.787-1.034-.089.054-1.404-.287-2.921-.757-1.508-.469-2.768-.851-2.811-.85M22.593 99.53c-.39-.251-1.117.424-8.79 8.167-5.449 5.498-8.345 8.573-8.312 8.82.031.216.54.608 1.19.919.625.296 1.234.686 1.35.865s.214.447.214.596c.002.147-.233.537-.525.865l-.528.595 3.394 3.461c.84-.993 1.224-1.198 1.611-1.196.373.004.717.188.922.493.18.266.325.753.325 1.082-.003.344.203.779.484 1.032.268.24.584.436.703.439.121-.001 3.944-3.772 8.496-8.387 7.596-7.699 8.26-8.432 8.059-8.877-.134-.296-.414-.486-.708-.488-.269-.001-.803-.195-1.19-.433-.512-.314-.705-.593-.71-1.025-.004-.329.191-.791.431-1.029l.438-.432c-3.345-3.347-3.352-3.351-3.783-2.925-.238.236-.627.428-.865.429-.238-.001-.55-.07-.694-.159-.143-.087-.448-.694-.675-1.347-.227-.656-.603-1.314-.837-1.465m-56.469 24.745c-.432-.154-.478-.106-.432.438.034.431.208.67.59.808.297.106.907.132 1.353.059.727-.124.81-.207.81-.788 0-.573-.055-.632-.486-.498a3.7 3.7 0 0 1-.92.152c-.238 0-.65-.076-.915-.171m-87.453-24.366c.178-.004.835.137 1.46.318.736.212 1.488.649 2.144 1.244.554.506 1.285 1.358 1.625 1.893.504.796.616 1.211.612 2.271-.002.872-.128 1.484-.381 1.859-.208.308-4.076 4.374-8.597 9.038-6.268 6.465-8.402 8.536-8.978 8.719-.417.129-1.146.192-1.622.138-.476-.056-1.341-.335-1.919-.623-.58-.29-1.402-.916-1.826-1.391-.424-.476-.945-1.255-1.159-1.731-.212-.476-.39-1.279-.392-1.785-.002-.504.101-1.185.229-1.514.13-.327 2.248-2.681 4.706-5.231a1334 1334 0 0 1 8.365-8.591c2.277-2.31 4.207-4.086 4.651-4.276.415-.18.903-.332 1.082-.338M-274.5 118.95c-.063.013-.683 1.06-1.378 2.334l-1.271 2.317c.626 1.091.858 1.407.919 1.408.059-.003.613-.805 1.229-1.787s1.188-1.98 1.27-2.218c.09-.262-.012-.755-.256-1.25-.223-.449-.454-.81-.513-.804m6.072.666c-.067.008-.609.31-1.204.669-.752.452-1.445.676-2.271.739-.655.048-1.259.16-1.342.251-.082.089-.642.967-1.243 1.947l-1.093 1.785c1.748 0 2.268-.197 3.516-.967 1.36-.842 1.711-1.197 2.663-2.705.599-.952 1.035-1.723.974-1.719m186.58-21.54c.57-.219 1.347-.305 2.272-.251.772.045 2.087.307 2.92.586.833.277 2.341 1.054 3.354 1.724 1.01.673 2.4 1.843 3.088 2.605.706.776 1.66 2.184 2.186 3.219.513 1.012 1.005 2.325 1.092 2.92.09.632.06 1.467-.075 2.001-.13.507-.708 1.53-1.286 2.272-.599.774-1.41 1.534-1.892 1.776-.528.266-1.409.45-3.87.567l-1.732 1.992a481 481 0 0 0-3.785 4.433c-1.131 1.339-2.3 2.524-2.597 2.63s-.859.251-1.244.321c-.387.069-1.263.021-1.946-.109-.686-.13-1.824-.542-2.533-.919-.708-.376-1.81-1.22-2.448-1.876-.635-.653-1.414-1.724-1.728-2.38-.316-.653-.614-1.626-.666-2.163-.05-.534-.03-1.336.045-1.784.106-.632.673-1.42 2.57-3.57 1.337-1.517 2.988-3.44 3.667-4.273 1.222-1.496 1.233-1.523 1.004-2.38-.125-.475-.194-1.405-.151-2.067.065-1.004.244-1.455 1.08-2.705.554-.824 1.186-1.664 1.407-1.868.22-.201.793-.518 1.269-.701m-41.207 4.354c-.132-.599-.265-.486-4.347 3.691a1870 1870 0 0 0-8.05 8.296c-3.361 3.493-3.856 4.1-3.975 4.857-.08.508-.018 1.222.148 1.73.156.476.633 1.243 1.057 1.704s1.232 1.068 1.797 1.351c.564.283 1.296.516 1.623.518.489.004 1.38-.793 5.029-4.49 2.438-2.47 5.969-6.075 7.843-8.006 1.873-1.934 3.455-3.515 3.515-3.515.058.001.043.122-.035.27-.079.147.12.026.438-.27.319-.298.578-.614.577-.703-.005-.091-.42-.258-.926-.372-.53-.121-1.445-.626-2.163-1.191-.826-.651-1.437-1.36-1.819-2.115-.318-.625-.639-1.415-.712-1.755m-93.804 6.649c-.017-.031-2.756 2.687-6.092 6.04-5.946 5.981-6.077 6.131-6.529 7.508-.251.774-.458 1.48-.456 1.569 0 .09 2.702-2.538 5.999-5.841l5.999-6.004c.852-2.482 1.091-3.235 1.079-3.272m29.826 10.953a.73.73 0 0 0-.392.144c-.099.081-.163.373-.144.65s.173.772.34 1.098c.169.329.532.803.811 1.058.279.253.824.619 1.211.811s.996.349 1.353.349.794-.048.973-.108c.177-.059.324-.206.325-.325-.001-.118-.245-.216-.541-.216-.299 0-.907-.185-1.353-.409-.446-.226-1.086-.686-1.419-1.028-.333-.339-.685-.934-.778-1.321-.095-.385-.269-.703-.386-.703m154.072 2.811c-1.355 0-1.406.02-1.406.541 0 .439.133.567.703.675.387.071.996.041 1.353-.071.426-.134.666-.366.703-.675.05-.439-.038-.47-1.353-.47m-51.877-15.573c-.075 0-.24.195-.36.433-.124.238-.189.554-.146.703s-.004.441-.108.648c-.117.24-.106.34.03.271.12-.061.216-.011.216.108s-.147.216-.324.216c-.18 0-.323.074-.318.163 0 .09-.485.724-1.081 1.406-.7.798-1.137 1.146-1.221.973-.07-.15.157-.563.509-.919.35-.357.97-1.112 1.374-1.677.404-.564.663-1.075.575-1.136-.089-.058-.478.306-.865.81-.388.502-1.751 2.109-3.03 3.569-2.32 2.646-2.324 2.655-2.329 3.788-.004.827.169 1.489.634 2.434.364.74 1.134 1.772 1.79 2.399.63.606 1.66 1.361 2.285 1.677s1.6.679 2.164.807c.708.158 1.296.162 1.893.011.763-.195 1.22-.648 3.892-3.856 1.665-1.999 3.32-3.898 3.677-4.222.491-.444.572-.611.327-.68-.18-.05-.811-.26-1.406-.465s-1.764-.791-2.597-1.302c-.832-.51-2.109-1.547-2.834-2.3-.724-.755-1.609-1.932-1.961-2.616-.355-.683-.707-1.242-.786-1.243m-152.558 8.856c.238-.003.92.233 1.514.523.595.288 1.415.897 1.822 1.353.406.457.917 1.219 1.132 1.695s.393 1.231.395 1.677c.004.633-.149.962-.698 1.499-.612.596-.816.672-1.569.582-.475-.059-1.304-.356-1.838-.661-.574-.326-1.312-1.034-1.792-1.717-.586-.831-.833-1.424-.87-2.071-.025-.497-.023-1.154.009-1.46.037-.356.307-.707.759-.986.387-.236.898-.432 1.136-.434m-39.578 2.466c-.242-.11-.29.01-.216.541.073.526-.131 1.055-.879 2.305-.536.892-.972 1.717-.974 1.838 0 .119.26.193.578.163.478-.043.794-.41 1.824-2.109.685-1.13 1.253-2.177 1.261-2.327.009-.159-.251-.27-.633-.27-.357 0-.79-.063-.961-.141m90.4.726c-.091.076-.152.389-.137.696.018.307.326.974.687 1.478.445.625.949 1.027 1.574 1.257.506.186 1.3.307 1.768.27s.881-.189.92-.338c.038-.151-.048-.214-.2-.142-.149.069-.612.023-1.027-.102-.417-.125-1.147-.502-1.623-.84s-1.075-1.018-1.332-1.515c-.255-.496-.541-.839-.63-.764m-51.319-2.325c-.096 0-.31.117-.477.259-.166.144-.285.509-.263.811s.151.894.29 1.31c.136.415.551 1.081.92 1.479.372.396.968.923 1.325 1.17.614.424.606.403-.134-.397a12.2 12.2 0 0 1-1.348-1.82c-.309-.536-.566-1.094-.569-1.244-.002-.149.07-.272.158-.272.089-.002.277.314.417.703.141.387.628 1.081 1.082 1.54.454.458 1.142.969 1.529 1.135.387.165.898.301 1.136.301.24 0 .432-.145.433-.324 0-.179-.171-.327-.378-.331-.337-.007-.333-.044.054-.342.43-.333.428-.338-.068-.697a33 33 0 0 1-1.081-.828c-.319-.259-.533-.528-.474-.6.06-.07.378.068.704.308.325.237.593.36.594.272-.002-.088-.251-.454-.556-.811-.348-.411-.586-.549-.647-.378-.052.149-.193.27-.311.27-.119 0-.314-.293-.433-.649-.141-.424-.362-.649-.639-.649-.347 0-.397.105-.287.595.121.547.104.569-.24.271-.205-.18-.415-.496-.47-.703-.052-.208-.172-.379-.267-.379m53.003.57c-.119-.065-.391.058-.605.274-.212.215-.365.626-.339.914.024.287.262.856.526 1.263.264.405.966 1.012 1.561 1.35.595.335 1.421.616 1.839.623.424.006.9-.141 1.082-.333.292-.309.251-.344-.432-.342-.418 0-1.1-.186-1.515-.415-.418-.227-.709-.418-.649-.42.061-.004.596.139 1.19.318.595.178 1.324.318 1.623.309q.541-.013-.866-.54c-.928-.348-1.719-.842-2.329-1.45-.507-.506-.912-1.036-.897-1.179a.42.42 0 0 0-.189-.372m146.58-3.483c.056 4.17.158 5.968.35 6.278.147.238.749.673 1.337.965.83.415 1.495.552 3.014.619 1.337.058 2.319-.023 3.137-.254.683-.193 1.488-.617 1.892-.995l.703-.659c0-9.029-.023-11.67-.053-11.689-.03-.002-.591.235-1.244.53-.656.294-1.824.636-2.596.759a8.9 8.9 0 0 1-2.813.007c-.774-.119-1.946-.483-2.606-.809l-1.201-.595zm62.447-9.86c.247-.004.872.362 1.385.812.715.625.919.947.865 1.36-.048.374-.22.558-.557.595-.268.03-.592.273-.72.541-.168.35-.168.547.003.703.131.119.237.387.235.595s-.394.67-.87 1.027c-.474.356-.937.646-1.027.643-.088-.003-.31-.147-.487-.32-.285-.279-.434-.208-1.25.599-.806.798-.926 1.037-.92 1.837.005.746-.119 1.041-.659 1.568-.545.532-.847.65-1.673.65-.925 0-1.084.084-1.949 1.027-.936 1.023-.941 1.032-.653 1.839.27.757.257.846-.203 1.298-.383.38-.741.486-1.623.486-1.06 0-1.13.033-1.13.541 0 .298-.073.662-.162.812-.089.149-.333.268-.54.268-.209-.003-.843-.538-1.407-1.19-.927-1.073-.994-1.22-.687-1.512.188-.179.48-.324.648-.324.17 0 .407-.195.527-.433.15-.303.135-.593-.055-.97-.234-.462-.212-.598.162-.991.238-.251.773-.655 1.19-.899.643-.377.84-.403 1.298-.18.498.242.604.192 1.352-.621.664-.722.788-.991.675-1.478q-.135-.594.271-1.297c.223-.385.699-.861 1.056-1.056.356-.195.916-.316 1.243-.271.46.065.79-.11 1.477-.783.811-.791.864-.911.63-1.406-.142-.296-.199-.759-.128-1.027s.373-.632.671-.812c.394-.236.66-.266.974-.108a.92.92 0 0 0 .865 0 .72.72 0 0 0 .397-.606v-.322c.014-.203.07-.383.144-.441.1-.08.383-.149.632-.154m.517.63c-.29-.16-.37-.113-.38.235-.006.243-.328.695-.715 1.004-.487.389-.87.528-1.244.451a1.03 1.03 0 0 0-.915.248c-.357.341-.357.392 0 .934.37.565.363.587-.383 1.491-.418.506-1.002 1.092-1.298 1.302-.378.266-.656.323-.92.185-.223-.115-.58-.118-.865-.005-.268.104-.681.403-.92.662-.34.374-.402.641-.285 1.269.136.751.076.869-1.081 2.054-1.163 1.192-1.281 1.257-2.202 1.216-.534-.024-1.095-.031-1.245-.014-.187.02-.234.276-.147.84.084.554.015.965-.216 1.298-.186.268-.608.587-.934.71l-.596.221c1.17 1.167 1.586 1.508 1.677 1.508.088-.003.16-.224.156-.492s.167-.651.379-.85c.225-.214.83-.394 1.466-.433.813-.052 1.07-.149 1.034-.393a20 20 0 0 0-.184-.974c-.12-.584 0-.781 1.237-1.983 1.268-1.233 1.433-1.328 2.131-1.218.664.104.834.027 1.374-.611.513-.609.59-.857.476-1.488-.128-.686-.047-.853.849-1.785.743-.776 1.144-1.027 1.632-1.027.355 0 .692.097.753.215.06.119.182.214.27.21.09-.004.382-.199.65-.432.415-.366.447-.487.216-.853-.197-.309-.21-.586-.048-1.027.139-.374.464-.679.866-.809.351-.114.688-.235.75-.27.061-.037-.136-.316-.432-.625-.299-.307-.705-.651-.906-.764m-305.539-2.883c-1.843-.069-2.818.046-3.352.21-.536.162-1.093.45-1.243.638-.225.283-.161.488.378 1.208l.649.865c-.921 1.497-1.287 1.938-1.406 1.945-.119.006-.727-.211-1.353-.481-.624-.27-1.177-.442-1.23-.383s-.709 1.228-1.46 2.597l-1.365 2.487c.084 3.269.182 4.215.27 4.208.09-.009.717-.908 1.393-2.001 1.111-1.797 1.218-2.07 1.082-2.805-.091-.5-.065-.817.067-.819.119-.001.388.391.595.87.355.816.439.872 1.298.894.506.011 1.135.084 1.399.162.279.08.806.684 1.251 1.439.424.712.767 1.367.764 1.459-.004.089-.373.316-.819.504l-.81.342a17.4 17.4 0 0 0 2.704 2.229c.772.51 1.796 1.123 2.272 1.361.475.236 1.083.491 1.351.566.446.124.487.063.487-.729 0-.476.074-.899.163-.942.089-.041.985.03 1.988.162l1.825.24.892 2.083c1.949-.216 2.869-.535 3.732-1.013.744-.411 1.352-.844 1.352-.963-.002-.119-.488-.559-1.082-.973-.595-.418-1.086-.831-1.09-.919-.007-.091.14-.309.326-.487.186-.179.385-.69.441-1.135l.107-.812 2.656.324c-.253-1.845-.607-2.989-.951-3.731-.418-.908-.749-1.352-1.002-1.353-.208.003-.768.105-1.244.228l-.866.226-2.002-2.292c.964-1.091 1.246-1.457 1.246-1.515-.003-.063-.368-.457-.812-.88-.446-.426-1.395-1.052-2.109-1.394-.714-.339-1.479-.648-1.702-.687-.236-.039-.594.173-.867.517-.378.48-.412.645-.189.919.216.268.216.357 0 .448-.149.062-.71-.035-1.244-.221-.537-.184-1.168-.33-1.406-.328-.338.004-.505-.245-.758-1.132zm100.47 13.828c-.236-.067-.599.286-1.135 1.095-.435.657-.79 1.244-.791 1.303.004.061.758.39 1.677.733.922.342 2.238.78 2.921.973.684.192 1.268.353 1.298.357.031.006.332-.41.671-.92.34-.51 1.021-1.289 1.514-1.73l.898-.803c-2.278.011-2.343.037-1.947.321.237.168.358.38.268.471-.088.091-.82-.145-1.623-.521-.802-.379-1.897-.798-2.431-.932a52 52 0 0 1-1.32-.347m-2.736 2.934c-.03.002-.055.054-.055.112 0 .061.414.343.92.628.506.288 1.259.582 1.677.657.555.1.323-.067-.866-.633-.889-.42-1.639-.763-1.676-.764m-36.672-17.077c-.055.031-3.087 2.979-6.76 6.572l-6.707 6.564c1.309 1.968 2.13 3.124 2.666 3.838a67 67 0 0 0 1.159 1.513c.117.134 2.698-2.304 6.758-6.382l6.573-6.597a71 71 0 0 0-2.468-3.84c-.642-.923-1.189-1.67-1.221-1.668m141.775 14.146c.109.061.13.234.048.383-.085.151-.742.981-1.46 1.848-.72.867-1.383 1.549-1.471 1.514s-.158-.16-.152-.279.648-.974 1.424-1.897c.776-.925 1.5-1.63 1.611-1.569m1.147.329c.162 0-.35.779-1.138 1.729-.786.95-1.454 1.681-1.486 1.622-.028-.061.483-.837 1.138-1.728.652-.89 1.322-1.62 1.486-1.623m-94.045-.087c-.042-.052-.763.336-1.604.865-.844.53-1.788 1.279-2.095 1.666-.307.386-.557.775-.558.865 0 .091.741-.298 1.646-.865.904-.565 1.878-1.343 2.164-1.731.285-.385.486-.746.447-.8m91.344-.103c.24-.512.406-.662.56-.498.15.162.026.492-.407 1.059a26 26 0 0 1-1.515 1.741c-.488.507-.959.92-1.048.919-.087-.002.34-.564.954-1.246.612-.684 1.267-1.572 1.456-1.975m-.69-1.107c.153 0 .326.073.382.162.053.089-.247.504-.666.919-.422.415-1.101 1.22-1.508 1.785-.406.564-.886 1.027-1.064 1.027s-.325-.048-.325-.108c.002-.061.536-.741 1.19-1.514.653-.774 1.306-1.6 1.45-1.839.142-.238.385-.432.54-.432m-204.592-1.936c-.06.011-.9 1.208-1.867 2.659-1.267 1.906-1.704 2.73-1.568 2.964.119.203.251.244.352.109.092-.12.723-1.068 1.407-2.11.683-1.04 1.365-1.893 1.514-1.895s.416-.091.595-.2c.288-.173.288-.27 0-.869-.179-.372-.374-.668-.433-.658m203.62 1.286c.095 0 .173.074.177.162.002.09-.254.408-.57.703-.317.299-1.048 1.102-1.628 1.786-.58.682-1.103 1.145-1.162 1.027-.06-.119.11-.485.373-.812.266-.326.967-1.105 1.562-1.73.591-.624 1.153-1.134 1.248-1.136m-101.294-4.184c-.134-1.242-.148-1.264-.5-.812-.335.426-.322.543.577 2.342q.11.21.223.436c.519 1.041 1.006 2.112 1.082 2.38.044.16.049.3.022.389-.018.068-.053.108-.104.108-.119 0-.219-.121-.223-.27-.002-.089-.171-.51-.425-1.085a39 39 0 0 0-.543-1.143 38 38 0 0 1-.893-1.897l-.188-.39c-1.197 1.444-1.611 1.987-1.691 2.135-.083.149.287 1.27.821 2.488.532 1.219 1.103 2.41 1.266 2.65.283.411.344.368 1.205-.866l.909-1.297c1.743.411 2.267.508 2.291.482.016-.03-.517-.498-1.191-1.04-.763-.612-1.473-1.435-1.867-2.164a7.1 7.1 0 0 1-.771-2.446m-97.131-3.969c1.661.058 1.994.147 3.452.917.887.469 2.085 1.341 2.665 1.936s1.296 1.569 1.593 2.163c.447.896.53 1.331.471 2.53-.062 1.316-.137 1.516-.827 2.227-.51.526-1.146.892-1.946 1.121-.785.227-1.558.296-2.271.207-.595-.075-1.667-.412-2.38-.752-.714-.337-1.835-1.05-2.489-1.58-.655-.532-1.544-1.544-1.976-2.252-.433-.707-.855-1.674-.938-2.15-.08-.476-.045-1.255.078-1.73.124-.478.541-1.175.935-1.556.391-.381.954-.793 1.253-.919.297-.125 1.368-.199 2.38-.162m-9.736 7.969-1.299 2.141c1.761.822 2.275 1.043 2.282 1.019.014-.038.673-1.074 1.469-2.317.799-1.247 1.45-2.34 1.447-2.433-.005-.089-.275-.162-.602-.162-.326.002-.911-.088-1.296-.196l-.7-.194zm207.04-.681c.115 0 .244.121.288.27.042.151-.663 1.022-1.569 1.939-.904.915-1.72 1.622-1.808 1.568s.407-.708 1.101-1.452c.694-.743 1.377-1.57 1.519-1.839.142-.267.353-.486.47-.486m-185.372 1.514c-.923-.119-.936-.111-1.13.648-.173.668-.137.818.285 1.143.266.205.559.376.647.379.089 0 .37-.41.627-.915.255-.504.474-.968.487-1.029.008-.058-.403-.162-.916-.226m87.907-8.858c-.768 0-1.034.1-1.281.488-.17.266-.474 1.071-.67 1.785-.292 1.049-.317 1.492-.126 2.325.127.564.367 1.293.532 1.622.164.327.877 1.13 1.582 1.785.705.653 1.763 1.43 2.351 1.725.768.385 1.528.56 2.692.623 1.55.084 1.691.049 3.171-.751l1.547-.84c-.638-1.928-.921-2.439-1.04-2.379-.119.058-.412.497-.65.973s-.748 1.08-1.136 1.341c-.385.262-1.14.518-1.676.57-.558.054-1.434-.055-2.055-.254-.686-.221-1.556-.77-2.38-1.506-.714-.636-1.435-1.491-1.603-1.899-.206-.498-.259-1.095-.166-1.822.099-.765.395-1.447 1.007-2.325.478-.686.87-1.294.87-1.352-.001-.061-.436-.109-.969-.109m-102.327 4.558a6 6 0 0 0-.864.123c-.237.054-.407.188-.379.299.03.11.564.233 1.188.272.634.039 1.662.318 2.326.629.653.307 1.655 1.03 2.224 1.606.571.575 1.203 1.46 1.406 1.966.205.503.445.915.534.919.089 0 .21-.097.271-.216.058-.118.017-.581-.093-1.027-.113-.446-.632-1.299-1.155-1.893-.548-.623-1.45-1.326-2.123-1.66-.644-.315-1.562-.682-2.038-.809-.475-.128-1.059-.222-1.297-.209m.041 1.49c-.513-.002-.576.056-.401.376.113.208.701.842 1.309 1.406.608.565 1.714 1.32 2.458 1.677.743.356 1.471.649 1.622.649.149 0 .27-.05.27-.108s-.138-.377-.306-.703c-.169-.327-.68-.954-1.136-1.394s-1.365-1.046-2.019-1.349-1.462-.552-1.797-.554m1.04-2.665c-.595-.067-1.42-.029-1.83.086s-.727.303-.704.42c.028.114.655.193 1.398.169 1.112-.033 1.604.078 2.759.623.85.4 1.865 1.123 2.561 1.826.636.638 1.344 1.527 1.569 1.973.227.445.413 1.006.413 1.244q0 .432.379.376c.237-.035.397-.275.432-.649.03-.326-.104-.908-.297-1.296-.194-.387-.705-1.17-1.135-1.744-.433-.571-1.225-1.322-1.759-1.666-.537-.344-1.363-.763-1.839-.931s-1.353-.364-1.947-.431m197.569 2.886a.25.25 0 0 1 .262.263c-.004.151-.557.904-1.227 1.677-.673.774-1.326 1.525-1.454 1.668-.128.145-.362.195-.522.109-.213-.115-.087-.376.497-1.02a33 33 0 0 0 1.477-1.778c.383-.502.817-.914.967-.919m-195.946-5.519q-1.19-.12-2.056.207c-.475.182-.925.409-1.001.509-.074.099.412.136 1.081.082.671-.054 1.705.011 2.3.148.595.134 1.398.439 1.785.674.387.238.679.482.648.545-.034.062-.69-.089-1.459-.34-.775-.25-1.943-.458-2.596-.464-.677-.005-1.494.142-1.894.341-.386.19-.702.372-.703.403.007.03.76.054 1.677.056 1.425 0 1.889.099 3.083.668.772.368 1.93 1.148 2.57 1.732.686.623 1.421 1.572 1.784 2.303.342.684.628 1.415.637 1.623.013.323.044.315.201-.054.102-.238.19-.725.197-1.082.004-.357-.182-1.062-.417-1.569q-.429-.92-.159-.847c.15.039.489.452.753.919.266.465.489 1.14.493 1.497.011.592.033.612.251.217.132-.238.192-.776.136-1.191-.058-.415-.339-1.231-.625-1.808-.288-.578-1.032-1.525-1.657-2.109-.625-.582-1.743-1.348-2.487-1.701s-1.889-.694-2.542-.759m195.154 4.647c.076 0 .128.093.115.206-.018.115-.588.893-1.27 1.73-.683.838-1.364 1.528-1.514 1.533-.148.004.197-.507.77-1.135.57-.629 1.2-1.413 1.397-1.74.198-.325.424-.593.502-.594m-.054-9.433c-.075-.047-.209.279-.298.729-.088.45-.119 1.255-.067 1.792.052.534.455 1.726.894 2.649.616 1.294 1.209 2.088 2.584 3.473 1.288 1.298 2.237 2.031 3.408 2.632.891.461 2.109.966 2.704 1.124.595.155 1.666.28 2.38.276.86-.004 1.553-.145 2.055-.42l.757-.415c-2.012-.007-3.277-.217-4.11-.472-.833-.253-1.954-.681-2.488-.949-.537-.268-1.728-1.086-2.65-1.815-.947-.749-2.093-1.913-2.636-2.676-.525-.744-1.2-1.889-1.497-2.542-.298-.656-.622-1.665-.72-2.244s-.24-1.094-.316-1.142m-94.553 5.821a19 19 0 0 0-.944 1.4c-.378.629-.389.784-.123 1.623.184.58.669 1.282 1.298 1.884.552.527 1.491 1.183 2.086 1.456.809.369 1.3.46 1.946.363.476-.071.959-.214 1.071-.317.121-.111-.08-.189-.486-.189-.381 0-1.203-.191-1.828-.42-.623-.231-1.281-.581-1.461-.78-.27-.301-.136-.286.812.095.625.251 1.696.506 2.38.569l1.244.114 1.513-2.104c-1.676-.245-2.552-.492-3.028-.706a11.7 11.7 0 0 1-1.73-1.028c-.476-.348-1.171-1.09-1.545-1.648l-.68-1.015zm-46.872-8.277c-.164 0-2.208 1.872-4.543 4.16a3143 3143 0 0 1-6.734 6.581l-2.488 2.417c3.353 1.008 4.643 1.357 5.03 1.426.675.121.883-.05 5.191-4.254 2.469-2.408 5.489-5.354 6.711-6.544s2.22-2.213 2.22-2.271c-.005-.062-1.151-.425-2.547-.812-1.398-.385-2.676-.7-2.84-.703m140.877 10.853c.117.034.25.183.29.333s-.606 1.003-1.438 1.893c-.83.891-1.561 1.522-1.622 1.406-.06-.119.441-.874 1.11-1.676s1.27-1.584 1.332-1.74c.063-.153.212-.251.328-.216m4.906-11.72c-.576 0-1.366.201-1.935.49-.744.375-1.055.707-1.38 1.459-.311.727-.382 1.22-.276 1.947.08.535.47 1.655.87 2.488.401.833 1.25 2.133 1.888 2.888.636.757 1.74 1.815 2.455 2.352.714.534 1.832 1.246 2.488 1.577.653.331 1.773.757 2.487.945.714.189 1.689.342 2.164.342.476-.002 1.279-.195 1.785-.429.506-.235 1.032-.649 1.17-.915.141-.268.33-.829.422-1.244.095-.428.068-1.227-.062-1.839-.128-.595-.572-1.763-.988-2.595-.549-1.106-1.232-1.982-2.526-3.245-1.23-1.201-2.3-2.008-3.492-2.631-.945-.493-2.254-1.054-2.907-1.246-.656-.19-1.629-.346-2.163-.344m-93.836 2.827c-.089.009-.357.105-.595.213-.238.11-.993.396-1.677.636-1.131.395-1.285.53-1.705 1.464-.439.978-.445 1.078-.123 2.109.199.636.734 1.528 1.296 2.164.526.595 1.435 1.344 2.017 1.666s1.544.679 2.139.794c.623.121 1.495.132 2.055.03.744-.138 1.141-.377 1.684-1.011.668-.785.707-.924.703-2.506-.007-1.642-.018-1.675-.493-1.517-.269.089-.829.153-1.245.145s-1.22-.277-1.785-.593c-.564-.318-1.239-.895-1.499-1.281-.257-.387-.502-1.069-.541-1.514-.039-.448-.143-.805-.231-.799m96.04-.022c.835 0 1.525.179 2.505.648.744.357 1.801 1.112 2.353 1.677.55.564 1.22 1.466 1.487 2.001.268.536.554 1.266.638 1.623.095.413.026.943-.19 1.46-.212.505-.563.899-.935 1.047-.327.127-.985.197-1.46.149-.477-.048-1.446-.372-2.155-.723-.71-.35-1.804-1.146-2.434-1.771s-1.389-1.623-1.685-2.218c-.299-.594-.534-1.429-.524-1.855.011-.543.2-.961.632-1.407.528-.543.78-.631 1.768-.631m39.508 4.379c-.08-.047-.13.386-.109.963.041 1.026.07 1.065 1.123 1.636.62.335 1.779.694 2.704.841 1.374.218 1.889.203 3.353-.1.978-.201 2.085-.59 2.542-.895.737-.491.811-.627.811-1.512 0-.536-.071-.945-.162-.911-.088.037-.746.353-1.46.703-1.198.591-1.48.641-3.677.641s-2.478-.05-3.678-.641a64 64 0 0 1-1.447-.725m-39.437-3.849c-.687-.108-.952-.053-1.283.278-.262.26-.403.671-.38 1.102.023.375.138.684.257.685.118 0 .168.145.107.324-.06.181.17.739.507 1.245.338.506 1.043 1.276 1.568 1.713s1.489 1.045 2.144 1.35c.655.307 1.458.556 1.785.559.327.002.842-.12 1.143-.269.432-.214.544-.429.538-1.027-.005-.424-.281-1.233-.627-1.839-.342-.595-1.095-1.515-1.675-2.045-.582-.53-1.543-1.183-2.138-1.449-.594-.268-1.47-.549-1.946-.627m53.32 4.686c-.06.008-.571.373-1.14.812-.57.439-.91.831-.756.874.152.04.666-.325 1.14-.812s.814-.882.756-.874m-2.165-2.392c-.242 0-.493.13-.558.29-.065.162-.089.96-.05 1.778l.071 1.486 1.463-1.283c-.441-2.052-.573-2.271-.926-2.271m-94.426-3.42c-.643-.065-.965.015-1.247.311-.209.221-.331.572-.27.782.061.207.208.328.327.27.119-.06.31.305.422.811.149.659.502 1.205 1.244 1.934.571.558 1.306 1.118 1.633 1.243.327.126.911.234 1.298.239.387.006.849-.149 1.028-.346.234-.257.279-.561.162-1.091-.089-.404-.478-1.181-.865-1.726-.387-.543-1.19-1.293-1.785-1.665-.595-.37-1.471-.715-1.947-.762m97.892.634c-.06.01-.662.618-1.342 1.347l-1.232 1.328.547 2.164c2.106-2.01 2.807-2.766 2.914-2.974.138-.271.054-.596-.292-1.134-.268-.414-.536-.743-.595-.731m-9.52.512c-.774-.054-1.942.022-2.595.171-.655.147-1.518.461-1.923.696-.402.236-.867.626-1.036.864-.273.387-.242.507.3 1.149.37.439 1.022.856 1.685 1.081.744.251 1.722.357 3.137.34 1.341-.015 2.393-.152 3.03-.39.534-.201 1.194-.577 1.466-.838.27-.262.488-.647.486-.855-.004-.21-.275-.625-.601-.926-.327-.303-1.034-.692-1.569-.87-.536-.177-1.607-.368-2.38-.422m-254.122 2.527-.472.934c1.103.541 1.192.522 1.532.068.205-.274.373-.549.376-.608.002-.061-.214-.384-.482-.719l-.485-.612zm115.051-3.716c-.339 0-.796.177-1.012.395-.219.217-.38.485-.361.595.02.108.153.076.298-.071.145-.149.342-.271.438-.271.094.001.122.195.064.433-.06.238.037.675.217.974.177.296.64.735 1.027.971.387.238.921.433 1.19.433.268.002.641-.219.827-.485l.339-.487c-.111.844-.365 1.186-.679 1.344l-.541.272c.837.015 1.259-.153 1.478-.365.276-.27.359-.565.27-.98-.069-.329-.442-.952-.829-1.387s-1.018-.922-1.405-1.082c-.388-.16-.981-.289-1.321-.289m152.407-3.245c-.513 0-.891.175-1.285.594-.307.327-.655.838-.774 1.136s-.226.393-.236.216c-.01-.18.21-.69.489-1.136.28-.447.45-.81.374-.81s-.472.345-.883.767c-.66.684-.744.903-.744 1.932 0 .841.125 1.329.454 1.772.251.338.688.646.974.69.48.073.496.049.195-.32-.314-.388-.306-.387.27-.026.326.208.863.379 1.19.383s.863-.19 1.19-.433c.326-.242.703-.805.837-1.251.134-.447.181-1.176.108-1.622-.089-.532-.36-1-.784-1.352-.408-.342-.917-.54-1.375-.54m-1.303 1.064c.229-.318.413-.423.452-.263.037.149-.03.465-.148.703a2.4 2.4 0 0 0-.215.92c0 .268.145.754.325 1.081.285.527.285.594-.003.594-.18 0-.422-.242-.541-.54-.119-.296-.224-.859-.237-1.25-.011-.39.153-.95.367-1.245M15.218 51.23c.902 0 1.018.085 5.908 5l1.118.04c.857.032 1.253.167 1.697.582.32.296.716.81.885 1.136.166.326.302.911.3 1.299 0 .612.351 1.054 2.706 3.407 2.271 2.269 2.706 2.808 2.703 3.353-.003.356-.077.763-.166.904-.086.14-2.249 2.382-4.808 4.978-2.557 2.598-5.99 6.109-7.626 7.803-2.782 2.881-3.027 3.08-3.786 3.085-.753.002-1.013-.2-3.623-2.81-2.075-2.074-2.984-2.84-3.462-2.914-.396-.06-.965-.442-1.46-.976-.446-.483-.88-1.144-.965-1.47-.093-.36-1.25-1.667-2.923-3.3-2.087-2.04-2.766-2.836-2.767-3.245 0-.299.36-1.077.796-1.73.438-.654 3.468-3.917 6.737-7.248 3.268-3.332 6.362-6.47 6.873-6.977.804-.796 1.056-.92 1.863-.917M9.742 76.114c-.07 0-.31.18-.526.398-.218.216-.38.485-.363.595.017.108 1.156 1.294 2.527 2.633 1.371 1.336 2.567 2.432 2.656 2.433.09.002.392-.168.671-.378l.508-.379c-4.135-4.104-5.398-5.299-5.473-5.302m15.01-15.078c-.093-.024-.947.777-1.897 1.782-.952 1.006-4.165 4.316-7.14 7.357l-5.408 5.53c2.513 2.523 3.714 3.66 4.29 4.158l1.045.902c10.86-10.897 14.057-14.207 14.111-14.386.057-.2-.852-1.28-2.369-2.812-1.356-1.367-2.541-2.507-2.633-2.531m-299.464-7.578c1.078.034 1.734.205 2.813.728.876.428 1.923 1.201 2.78 2.056.913.908 1.595 1.839 2.029 2.773.359.775.745 1.99.853 2.704q.2 1.299-.039 2.38c-.132.595-.425 1.374-.649 1.73-.226.359-3.116 3.346-6.423 6.637-5.895 5.865-6.041 5.993-7.313 6.35-.969.272-1.629.322-2.596.2-.75-.096-1.892-.461-2.704-.868-.936-.467-1.837-1.164-2.689-2.075-.748-.803-1.551-1.957-1.932-2.78-.491-1.053-.675-1.81-.742-3.029-.067-1.224.007-1.86.306-2.596.264-.653 1.068-1.65 2.453-3.035 1.136-1.135 4.058-4.013 6.498-6.395 3.046-2.972 4.671-4.406 5.192-4.577.416-.137 1.389-.227 2.163-.203m194.214.797c.284.81.528 1.134.974 1.298.54.197.645.147 1.136-.54.348-.487.713-.755 1.027-.75.268.002 1.071.32 3.083 1.399v1.153c0 1.01.073 1.203.595 1.568.482.336.78.385 1.568.253.87-.145 1.03-.103 1.493.38.286.296.775.93 1.088 1.405.313.476.567 1.036.563 1.244s-.245.647-.537.973c-.463.517-.495.652-.249 1.029.157.237.747.577 1.313.756.569.178 1.11.422 1.203.541s.203 1.008.244 1.977c.072 1.694.046 1.8-.629 2.759-.698.99-.701 1.002-.325 1.648.374.647.37.666-.352 2.001-.403.742-.889 1.526-1.082 1.741-.229.258-.521.35-.837.27-.405-.098-.578.045-1.028.853-.311.563-.84 1.126-1.244 1.332-.674.343-.729.338-1.351-.116-.357-.26-.723-.469-.812-.465s-.478.451-1.568 1.978l-4.11-.133-.344-1.08c-.27-.847-.473-1.117-.92-1.245-.487-.136-.684-.043-1.982 1.387l-1.622-.74c-.891-.405-1.744-.9-1.893-1.097-.13-.174-.201-.395-.178-.527l.035-.114c.038-.192.02-.711-.128-1.884h-3.028l-.974-1.46c-.536-.802-.973-1.63-.974-1.839 0-.207.24-.744.535-1.19.318-.484.457-.897.344-1.027-.103-.12-.562-.35-1.021-.515-.456-.162-.956-.407-1.11-.541-.186-.16-.276-.805-.27-1.919.007-1.304.104-1.821.441-2.325.308-.46.396-.855.31-1.353-.092-.525.004-.876.378-1.393.277-.381.891-1.253 1.367-1.94.476-.686 1.387-1.764 2.025-2.393.639-.627 1.296-1.142 1.46-1.142.167 0 .617.195 1.004.433.386.235.751.433.811.438.06.004.423-.482.806-1.079l.694-1.09h3.692zm-136.192-3.459c.391.003 1.147.22 1.677.487a3.94 3.94 0 0 1 1.572 1.458c.443.714.604 1.248.601 2-.002.805-.108 1.113-.488 1.418-.268.212-1.85 1.77-6.545 6.527l.593 1.138c.324.627.68 1.627.786 2.222.113.629.115 1.376.002 1.785-.104.387-.483.945-.84 1.244-.357.296-.917.551-1.244.564-.327.011-.886.004-1.243-.015-.357-.02-1.281-.33-2.056-.69-.772-.359-1.674-.84-2.595-1.482l-.704.571c-.387.316-3.015 2.797-5.84 5.517-3.208 3.088-5.301 4.944-5.572 4.945-.238 0-.65-.11-.919-.242-.268-.134-.707-.453-.98-.703-.359-.338-.486-.693-.476-1.327.013-.84.17-1.018 11.461-12.006l-.445-.703c-.244-.388-.64-1.14-.878-1.676-.238-.537-.522-1.363-.63-1.84-.117-.518-.117-1.168 0-1.622.108-.418.375-.98.589-1.255.217-.273.733-.58 1.148-.679.431-.104 1.177-.098 1.731.017.536.11 1.489.465 3.263 1.376l2.533-2.498c1.393-1.376 3.039-2.958 3.66-3.516.863-.78 1.292-1.017 1.839-1.015m182.969-.779c.261-.27.601-.316 1.628-.21.714.074 1.36.254 1.439.399s.196 2.26.266 4.699c.069 2.438.154 4.45.184 4.467.043.019 2.206.39 4.818.826 2.617.437 5.004.91 5.3 1.052.513.244.543.362.664 4.363l-4.498 4.667c-2.472 2.565-5.176 5.416-6.01 6.336-1.351 1.492-1.594 1.67-2.27 1.657-.416-.009-1.195-.117-1.731-.24-.535-.126-2.774-.562-4.976-.971-2.2-.409-4.022-.769-4.044-.797-.024-.034-.122-.86-.392-3.597l-1.406-.26c-.771-.143-1.476-.367-1.563-.5-.089-.13-.16-2.722-.16-11.27l5.285-5.138c5.228-5.086 5.291-5.138 6.209-5.138.564 0 1.058-.135 1.257-.345m-91.558.148c.625-.011 1.646.09 2.271.224.626.134 1.672.48 2.326.77s1.711.935 2.347 1.432c.638.5 1.523 1.394 1.969 1.989s.984 1.42 1.196 1.839c.215.415.519 1.194.681 1.73.16.538.349 1.703.418 2.597.099 1.27.028 1.999-.331 3.353-.253.952-.79 2.267-1.194 2.92s-1.251 1.69-1.882 2.3c-.632.608-1.586 1.354-2.122 1.657-.534.3-1.363.651-1.839.775-.476.123-1.134.276-1.461.341-.331.067-.537.213-.583.41l-.015.132c-.046.239-.438.787-.914 1.269-.904.917-.95.935-2.436.96-.984.018-1.954-.12-4.026-.813l-3.961 4.11-1.199.072c-1.064.065-1.315-.01-2.247-.65-.72-.493-1.216-1.06-1.579-1.801-.42-.857-.498-1.262-.381-1.948.123-.702.505-1.231 3.926-4.758l-.508-1.082c-.277-.595-.569-1.518-.644-2.055-.078-.537-.034-1.314.096-1.731.132-.418.583-1.123 1-1.569.662-.705.762-.954.762-1.892 0-.595.11-1.593.244-2.218.132-.625.537-1.72.896-2.434s1.248-1.914 1.975-2.665c.814-.846 1.817-1.614 2.617-2.008.714-.352 1.785-.774 2.38-.938a10.7 10.7 0 0 1 2.218-.318m-154.538 7.127c-.033.011-2.304 2.22-5.056 4.922-4.116 4.041-5.074 5.096-5.36 5.896-.253.707-.314 1.356-.217 2.379.087.915.364 1.876.794 2.759.381.778 1.142 1.815 1.798 2.449.625.603 1.623 1.332 2.218 1.622.595.288 1.616.639 2.271.78 1.038.22 1.35.2 2.441-.164 1.161-.387 1.597-.76 6.006-5.174 2.602-2.604 4.731-4.737 4.751-4.76l-1.356-.023c-.883-.013-1.724-.186-2.432-.5-.595-.262-1.603-.885-2.241-1.385-.638-.497-1.543-1.488-2.008-2.202-.467-.714-1.052-1.98-1.303-2.812-.31-1.03-.425-1.88-.36-2.65.052-.625.078-1.135.054-1.137m202.497 18.21c-.143-.121-.554.31-1.136 1.185l-.91 1.376 2.704-.032 1.839-2.348c-1.76.004-2.374-.078-2.497-.182m-95.013-22.53c.327-.008 1.156.158 1.839.37.684.212 1.77.723 2.412 1.136.643.413 1.533 1.188 1.974 1.725.441.536 1.075 1.51 1.406 2.163.402.798.636 1.653.707 2.596.056.772-.002 1.746-.132 2.163-.173.561-1.983 2.5-6.958 7.463-3.947 3.942-7.052 6.865-7.526 7.092-.599.283-1.224.368-2.429.322-1.239-.045-1.904-.197-2.812-.642-.654-.322-1.712-1.101-2.348-1.73-.679-.675-1.436-1.727-1.836-2.553-.491-1.02-.699-1.794-.756-2.813-.043-.774.04-1.843.185-2.38.236-.867.992-1.7 6.944-7.626 5.943-5.918 6.793-6.686 7.708-6.96.565-.171 1.296-.317 1.622-.326m93.886 20.769c-.089.002-.515.563-.945 1.244-.708 1.123-.762 1.311-.563 1.997l.219.757c1.821-2.406 1.87-2.54 1.668-3.245-.119-.418-.29-.755-.379-.753m-156.095-3.406c-3.638 3.556-5.578 5.605-5.577 5.887.002.238.175.593.389.787.212.193.58.41.818.479.347.1 1.566-.975 6.058-5.348l5.624-5.474-1.731-1.785zm95.471 2.97c-.119 0-.272.265-.346.594-.09.409.028.896.387 1.568.327.61.838 1.154 1.374 1.456.469.266 1.144.487 1.501.492.357.004.827-.118 1.043-.269.357-.246.305-.303-.541-.575-.539-.173-1.371-.724-1.964-1.299-.567-.547-1.077-1.215-1.136-1.481-.058-.269-.201-.487-.318-.487m113.122-4.542c-3.253 3.368-5.75 5.78-6.058 5.852-.288.069-1.836-.098-3.441-.37a142 142 0 0 1-4.543-.842 107 107 0 0 1-2-.44c-.336-.083-.374.066-.326 1.258l.055 1.35c7.538 1.418 9.89 1.808 10.084 1.783.194-.029 1.695-1.462 3.336-3.187a518 518 0 0 1 5.764-5.95l2.78-2.811-.115-2.371zm-156.013-6.999c-4.367 4.419-5.576 5.765-5.791 6.451-.158.502-.227 1.409-.165 2.163.065.766.332 1.74.652 2.38.298.595.995 1.543 1.545 2.11.551.564 1.512 1.283 2.137 1.596.71.357 1.623.609 2.434.67.878.066 1.542-.01 2.055-.235.448-.195 2.955-2.536 6.159-5.75 4.914-4.934 5.343-5.421 4.76-5.419-.355 0-1.18-.153-1.833-.344-.656-.19-1.629-.621-2.164-.957s-1.345-1.034-1.797-1.549c-.455-.517-1.125-1.522-1.491-2.236-.469-.915-.714-1.768-.824-2.882l-.158-1.586zm109.133 11.323c-.09 0-.344.122-.558.27-.333.23-.359.386-.175 1.028.168.58.147.87-.09 1.244-.272.43-.263.524.072.805.208.173.452.32.541.324.089.002.31-.164.491-.372.18-.21.615-.72.967-1.135l.64-.757c-1.331-1.09-1.794-1.406-1.888-1.407m-11.517-.004c-.061.003-.524.539-1.028 1.194-.504.653-.891 1.227-.861 1.272.03.046.564.338 1.19.65.625.311 1.233.516 1.352.458.12-.062.615-.622 1.103-1.244l.885-1.136c-1.957-.927-2.577-1.195-2.641-1.194m52.36 2.158c.12 0 .218.341.218.757 0 .432-.094.712-.217.649-.119-.059-.216-.4-.216-.757 0-.356.097-.648.216-.65m48.082-1.733c.208.003.67.197 1.027.435s.697.627.757.865c.058.238-.004.651-.14.92-.137.267-.355.558-.487.645-.13.088-.483.164-.78.17s-.808-.188-1.135-.43c-.432-.318-.603-.643-.623-1.184-.024-.566.096-.826.487-1.084.284-.186.686-.337.894-.337m-9.367-1.175c-.383-.096-.673-.011-.958.272-.27.268-.397.66-.364 1.148.023.407.164.959.31 1.225.142.268.553.682.91.92s.945.433 1.309.433c.363 0 .779-.122.924-.269.144-.15.26-.562.257-.919-.002-.357-.2-.967-.435-1.352-.238-.388-.65-.844-.919-1.015a4.2 4.2 0 0 0-1.034-.443m-144.515.7c-.203-.445-.446-.746-.541-.666-.095.078-.158.394-.139.7.018.308.283.9.585 1.318.305.416.965.972 1.464 1.234.502.261 1.277.482 1.723.486.445.006.81-.086.811-.205-.001-.119-.074-.175-.163-.123-.089.05-.552-.08-1.027-.292a8 8 0 0 1-1.605-1.013c-.407-.346-.907-.993-1.108-1.438m153.7 1.775c-.405 0-.54.097-.487.355.041.196.218.454.398.573.177.12.495.155.703.078.298-.11.333-.234.163-.573-.132-.266-.434-.433-.778-.433m-95.767-1.719c-.208-.002-.377.12-.372.269.002.147-.29.683-.65 1.19-.36.503-.63.957-.6 1.005s.241.122.47.163c.303.054.647-.253 1.246-1.114.606-.872.756-1.234.557-1.35a1.6 1.6 0 0 0-.651-.163m96.218.875c-.3.01-.331.048-.107.125.178.063.543.371.81.687q.488.577.494.248c.004-.177-.166-.493-.378-.696-.212-.206-.58-.37-.819-.364m-153.298-2.283c-.336-.575-.39-.598-.463-.216-.045.238-.003.725.096 1.081.1.357.399.877.663 1.156.266.279.774.66 1.131.845a6.7 6.7 0 0 0 1.407.5c.542.117.832.076 1.027-.142.225-.253.153-.32-.433-.403-.441-.06-1.14-.484-1.876-1.135-.644-.57-1.342-1.329-1.552-1.686m52.902-16.62.137 1.037-1.852.742-2.082-1.607c-1.232 1.171-1.64 1.536-1.702 1.563-.06.028.256.489.701 1.027.796.96.807.998.541 1.865l-.27.887c-2.462-.256-2.489-.247-2.489.283 0 .383-.092.508-.324.433q-.324-.108-.973.973c-.496.826-.651 1.348-.658 2.218l-.007 1.136c1.448-1.822 1.681-2.303 1.601-2.597-.065-.238-.01-.506.121-.595.154-.103.239.014.237.325-.005.417.183.532 1.328.811 1.08.264 1.367.426 1.518.865.102.297.297.736.43.974.206.368.15.504-.378.917-.344.268-.696.487-.785.487s-.162.1-.162.219c0 .12.366.73.811 1.356l.81 1.14c2.129-.313 2.355-.272 2.926.153.618.459.649.553.54 1.623l-.112 1.136c2.012 1.006 2.67 1.261 2.76 1.218.088-.044.306-.39.485-.766.178-.378.422-.681.541-.674.12.006.654.142 1.19.302.887.264 1.013.39 1.406 1.404l.433 1.112h2.92l-.108-2.198 1.84-.615 2.055 1.68 2.163-1.891-2.056-1.952.58-1.839 2.017.109v-2.813c-2.337-.73-2.447-.829-2.832-1.785l-.413-1.027 1.406-1.049c-1.005-1.403-1.419-1.9-1.568-2.006-.158-.11-.654-.108-1.19.007-.872.188-.968.158-1.842-.595-.889-.766-.917-.827-.811-1.82l.11-1.027-2.271-1.134-1.298 1.538c-2.012-.491-2.131-.595-2.484-1.485l-.382-.974-2.694-.132zm95.723 12.33c-.494-.117-.842.152-2.921 2.241-1.893 1.904-2.263 2.373-1.873 2.373.268-.001.843.315 1.278.702.437.387.948 1.064 1.136 1.505l.344.805 4.705-4.636c-.796-1.646-1.27-2.289-1.569-2.49a4 4 0 0 0-1.1-.5m-96.355 3.966c-.035.004-.434.457-.886 1.008-.578.707-.812 1.192-.784 1.623l.044.614c1.112-1.425 1.492-2.157 1.562-2.542.069-.387.099-.702.064-.703m48.378-5.26c-3.17 3.254-5.714 5.957-5.653 6.004.06.046 1.57.374 3.353.727 1.785.35 3.953.772 4.816.934l1.572.297c8.961-9.182 11.592-11.91 11.626-11.985.03-.072-.36-.202-.865-.29-.51-.087-2.76-.484-5.006-.88l-4.082-.726zm-96.125-3.4c-.084.002-.426.298-.757.657-.333.361-.776.653-.984.65s-.555-.307-.767-.677c-.357-.621-.403-.643-.622-.27-.149.254-.179.838-.08 1.591.087.656.441 1.727.785 2.38.347.653 1.288 1.848 2.09 2.65 1.127 1.127 1.917 1.68 3.461 2.427 1.101.532 1.806.967 1.568.97-.238 0-1.114-.33-1.947-.734s-2.137-1.302-2.898-1.997c-.762-.692-1.647-1.65-1.969-2.127s-.794-1.422-1.049-2.108c-.255-.683-.467-1.51-.471-1.839-.007-.577-.018-.582-.342-.163-.249.325-.299.704-.193 1.515.078.594.398 1.618.711 2.271.314.656 1.169 1.823 1.898 2.596.947 1.008 1.841 1.68 3.143 2.365 1.579.833 2.034.971 3.442 1.049l1.623.089 1.73-1.779c-1.257.007-1.841-.075-2.109-.174-.268-.102-.554-.321-.638-.488-.086-.177.119-.735.486-1.332.35-.563.638-1.073.639-1.135 0-.059-.219-.112-.487-.114s-.876-.18-1.352-.4c-.476-.218-1.352-.832-1.947-1.364-.595-.535-1.396-1.45-1.776-2.035-.383-.586-.773-1.382-.866-1.771-.095-.39-.24-.705-.322-.703m-3.585 8.119c-.197-.588-.233-.61-.387-.217-.112.286-.028.69.245 1.19.229.416.902 1.078 1.497 1.467.748.494 1.315.703 1.839.686.689-.024.709-.041.216-.19a8.6 8.6 0 0 1-1.19-.504c-.357-.189-.954-.665-1.326-1.063-.372-.396-.775-1.012-.894-1.369m50.95-.751c-.15.003-.684.587-1.19 1.298-.505.708-.87 1.387-.812 1.508.059.119.23.214.38.21.149-.003.683-.587 1.189-1.298.506-.71.87-1.39.811-1.508a.44.44 0 0 0-.379-.21m85.474-3.26c-.078.005-.273.305-.433.668l-.292.66c3.683 3.666 4.806 4.73 4.868 4.73.06-.005.275-.224.476-.487.361-.472.328-.522-2.056-3.029-1.331-1.4-2.484-2.545-2.563-2.542m-134.784 4.66c-1.028-1.001-1.079-1.028-.698-.348.227.404.679.94 1.003 1.19.325.25.64.406.699.348.057-.061-.395-.595-1.004-1.19M20.26 69.833c.119-.01.485.183.812.425.402.297.592.632.588 1.035-.003.326-.173.768-.378.98-.204.212-.567.386-.805.387-.238 0-.702-.2-1.029-.442-.345-.255-.591-.642-.59-.925 0-.268.078-.584.169-.706.09-.12.357-.337.59-.48.234-.145.524-.268.643-.274m-107.018.226c-.732 0-.898.12-1.791 1.298l-.985 1.298c1.523.017 1.727-.108 2.473-1.019.467-.568.907-1.158.98-1.306.09-.193-.109-.27-.677-.27m-3.826-1.294-.897 1.291 1.406 2.406c.794-.94 1.305-1.531 1.648-1.919.342-.387.526-.753.407-.811-.12-.061-.543-.594-.94-1.184l-.725-1.077zm55.624.86c.446-.005 1.08.124 1.407.286s.668.478.76.703c.103.253.041.593-.164.895-.2.296-.642.538-1.137.62-.446.074-1.104.07-1.46-.01-.357-.078-.822-.307-1.035-.51s-.4-.587-.418-.85c-.021-.332.165-.58.602-.803.348-.178 1-.327 1.445-.332m54.87 1.505c-.275 0-.418.109-.355.27.056.15.257.368.445.487.19.119.424.145.52.057.095-.089.1-.308.01-.487-.088-.18-.368-.327-.62-.327m-52.444-20.548c-.666 0-1.06.273-3.083 2.14-1.276 1.176-2.66 2.493-3.076 2.924-.417.432-.878.783-1.027.781-.15-.002-.27-.051-.27-.112 0-.06.51-.57 1.135-1.134s1.743-1.611 2.485-2.325c.742-.716 1.35-1.374 1.353-1.463 0-.088-.133-.138-.3-.108-.163.03-2.547 2.27-5.299 4.976l-5 4.921.108 10.244 2.254.465c.124-9.979.111-10.177-.306-10.389-.238-.123-.463-.414-.5-.648-.04-.247.307-.911.811-1.564.541-.699 1.045-1.136 1.31-1.136.239 0 .428.073.427.162-.005.089-.468.639-1.028 1.22-1.001 1.036-1.012 1.06-.54 1.298.436.219.698.032 2.92-2.092a541 541 0 0 1 5.417-5.083c1.635-1.51 2.973-2.822 2.975-2.914 0-.089-.347-.163-.766-.163m-2.324 19.466c-.39 0-.855.148-1.032.326-.237.237-.25.324-.05.324.153 0 .253.121.222.27-.033.175.269.29.867.325.557.032.875-.03.81-.163-.06-.118.088-.216.325-.216s.432-.098.433-.216c0-.12-.195-.314-.432-.433-.239-.119-.752-.217-1.143-.217m50.137-18.172c-.286.002-2.876 2.486-7.464 7.16L.788 66.194 5.9 71.242c11.212-11.235 14.464-14.544 14.46-14.603-.01-.065-1.054-1.16-2.325-2.437-1.44-1.447-2.485-2.328-2.756-2.326m-140.506-.84c-.418.016-1.196.113-1.731.216-.536.104-1.607.5-2.38.881-.778.383-1.891 1.18-2.495 1.787-.597.604-1.401 1.731-1.786 2.503-.385.775-.803 2.04-.929 2.813-.125.774-.162 1.748-.082 2.163.08.417.236 1.001.344 1.298l.201.54c1.716-1.76 1.924-1.864 2.636-1.8l.811.07c-.009-1.626.19-2.337.603-3.137.379-.734.983-1.465 1.575-1.91.528-.396 1.495-.87 2.151-1.051.973-.273 1.404-.289 2.38-.085.653.136 1.626.528 2.163.87.534.342 1.226.947 1.536 1.346.309.398.744 1.064.963 1.48.287.542.4 1.217.4 2.379 0 1.218-.113 1.838-.45 2.487a10.4 10.4 0 0 1-.983 1.515c-.294.357-1.06.915-1.705 1.237-.642.325-1.532.64-1.978.703-.783.11-.81.144-.767.926.031.571-.145 1.128-.594 1.876l-.641 1.067c3.98-.193 4.535-.31 5.625-.84.714-.346 1.808-1.145 2.434-1.772.679-.683 1.443-1.769 1.902-2.71.439-.895.871-2.218 1.012-3.083.186-1.138.184-1.863-.004-2.92-.139-.773-.611-2.136-1.05-3.029-.506-1.025-1.243-2.067-2.007-2.828-.703-.703-1.791-1.49-2.611-1.89-.775-.38-1.944-.786-2.597-.907-.655-.121-1.531-.21-1.946-.194M20.423 70.26c-.15.003-.269.079-.264.167.005.09.246.334.54.541.371.264.536.296.539.109.002-.15-.122-.395-.27-.546-.152-.15-.397-.273-.546-.27m-57.375-13.904-5.445 5.367.135 9.216 11.14-11.487-.387-8.463zm-43.925 2.281c1.04.048 1.785.247 2.867.764.802.383 1.957 1.159 2.567 1.724.608.564 1.387 1.587 1.731 2.271.342.684.682 1.61.753 2.056s.022 1.224-.108 1.73c-.132.506-.554 1.269-.942 1.694-.492.545-1.058.876-1.892 1.112-1.003.283-1.409.294-2.596.071-.774-.147-1.845-.488-2.38-.76-.536-.273-1.493-.972-2.129-1.55-.718-.653-1.395-1.546-1.787-2.351-.346-.714-.69-1.688-.761-2.164-.078-.504-.013-1.227.154-1.73.158-.476.534-1.15.837-1.498.3-.348.939-.813 1.415-1.034.631-.294 1.244-.385 2.271-.335m97.995 2.77c-.061-.001-1.375 1.264-2.921 2.81-2.222 2.226-2.707 2.813-2.322 2.813.269 0 .883.364 1.367.81.483.447.995 1.129 1.136 1.518l.256.705c4.311-4.315 5.3-5.466 5.293-5.74-.004-.237-.222-.802-.486-1.254a3.4 3.4 0 0 0-1.346-1.24c-.475-.23-.913-.418-.977-.421m-85.981 7.353c-.363 0-.571.152-.664.488-.076.266-.035.584.09.703.154.144.373.075.674-.217.244-.238.44-.556.436-.703-.005-.15-.245-.27-.536-.27m-12.483-7.096c-.556-.098-1.433-.115-1.948-.041s-1.058.201-1.207.279-.27.387-.27.684c0 .299.189 1.05.418 1.675.249.682.878 1.642 1.568 2.402.736.809 1.618 1.495 2.448 1.904 1.032.51 1.621.649 2.875.684 1.193.03 1.63-.038 1.796-.284.121-.177.18-.811.13-1.406-.052-.636-.346-1.562-.714-2.248-.344-.642-.977-1.471-1.41-1.839-.43-.37-1.21-.89-1.731-1.153a8.5 8.5 0 0 0-1.955-.657m-147.582-4.372c-.683 0-1.056.124-1.352.455-.299.328-.401.734-.368 1.46.028.65.312 1.543.801 2.521.417.833 1.162 2 1.657 2.596.493.595 1.446 1.549 2.117 2.12.673.57 1.807 1.324 2.521 1.67.808.393 1.663.635 2.271.646.621.009 1.16-.125 1.488-.372.411-.31.513-.586.509-1.36-.002-.537-.166-1.363-.363-1.839s-.5-1.086-.671-1.352l-.314-.487c-.921 1.053-1.385 1.436-1.623 1.53s-.822.07-1.297-.052c-.587-.15-1.216-.582-1.952-1.337-.595-.615-1.215-1.504-1.378-1.98s-.233-1.133-.16-1.46c.076-.328.307-.649.515-.712.208-.065.5-.307.649-.54.247-.39.17-.47-.92-.965-.685-.314-1.587-.541-2.13-.542m252.381 8.432c.251-.093.727-.058 1.078.078.344.134.789.506.988.826.307.49.323.671.096 1.136-.15.305-.524.675-.831.824-.48.232-.678.208-1.352-.162-.649-.354-.803-.57-.85-1.19-.033-.415.05-.888.179-1.05.132-.163.444-.37.692-.462m-152.408-3.985c-.776-.329-.807-.325-.811.095-.002.24-.176.497-.383.57-.208.074-.597.026-.865-.108-.433-.216-.487-.19-.485.243 0 .268.229.973.508 1.568s.935 1.508 1.458 2.027c.524.52 1.342 1.17 1.817 1.446.476.274 1.149.579 1.498.676.599.17.625.15.473-.363-.117-.39-.052-.647.232-.926.216-.212.564-.383.772-.379s.381-.064.381-.155c.002-.089-.282-.6-.63-1.136-.346-.534-.859-1.228-1.138-1.54a10 10 0 0 0-1.263-1.123 9.5 9.5 0 0 0-1.564-.895m97.62 3.992c.241.004.213.086-.11.326-.237.177-.505.32-.594.319s-.162.093-.162.211c0 .12.145.216.324.216.193 0 .281.133.216.326-.083.252.086.324.758.324.7 0 .835-.064.703-.33-.128-.257-.056-.304.324-.215.268.062.488.038.492-.05.002-.089-.122-.286-.271-.438-.151-.149-.177-.272-.059-.272.12 0 .34.123.492.272.149.152.272.494.27.762-.002.296-.238.63-.6.85-.408.25-.907.334-1.596.271-.597-.056-1.188-.269-1.467-.526-.255-.238-.475-.604-.488-.814-.01-.22.293-.564.712-.81.402-.236.875-.426 1.055-.422m-49.217-6.367c-.799-.076-1.563-.02-1.987.142-.378.148-.735.33-.794.406-.055.074.301.044.796-.068.5-.114 1.22-.127 1.618-.03.394.097.686.273.65.392-.038.118-.313.227-.609.242-.299.013-.93.05-1.405.08-.752.047-.683.08.54.249.83.114 1.973.48 2.791.893a8.6 8.6 0 0 1 2.45 1.888c.6.67 1.247 1.686 1.48 2.326.23.626.428 1.452.436 1.84.018.693.024.688.53-.38.343-.726.471-1.293.39-1.73-.066-.357-.336-1.136-.597-1.73-.264-.596-.97-1.57-1.569-2.165-.601-.595-1.616-1.34-2.257-1.659a8 8 0 0 0-2.463-.696M23.57 66.795c-.085.005-.206.106-.27.225s.052.413.259.655.5.437.65.433c.148-.005.334-.128.412-.276.08-.154-.082-.438-.378-.659-.288-.214-.591-.384-.673-.378m.649-.866c-.084.005-.195.083-.247.171-.053.09.187.432.53.758.558.53.64.553.768.216.095-.258-.026-.504-.378-.766-.287-.214-.59-.385-.673-.379m-113.05-1.055c-.088.004-.479.442-.866.972s-.769 1.136-.852 1.344.186.036.597-.379c.41-.417.921-.853 1.138-.973.242-.134.344-.36.268-.595-.067-.207-.196-.373-.285-.37m-185.776-10.508c-.714-.054-1.59.01-1.947.142s-.919.496-1.25.807-.756.959-.942 1.435c-.249.63-.31 1.302-.227 2.488.088 1.267.277 1.951.865 3.137a8.7 8.7 0 0 0 1.908 2.574c.638.582 1.646 1.288 2.241 1.562.595.277 1.519.567 2.056.645.534.078 1.339.08 1.784.006.476-.08 1.147-.44 1.623-.866.446-.4.943-1.105 1.106-1.568.19-.536.263-1.426.205-2.462-.067-1.224-.244-1.942-.72-2.92-.348-.718-1.166-1.835-1.828-2.497-.658-.657-1.733-1.464-2.387-1.793a6.9 6.9 0 0 0-2.487-.69m183.965 9.724c-.234-.069-.665.275-1.27 1.012-.503.614-.905 1.202-.891 1.305.013.104.244.232.512.286s.632.155.812.227c.22.088.654-.29 1.352-1.18l1.028-1.308c-.922-.184-1.349-.283-1.543-.342m97.396-.53c.387 0 .844.208 1.175.54.296.298.54.76.543 1.028 0 .268-.145.704-.324.972-.236.35-.54.487-1.084.487-.52 0-.928-.17-1.298-.54-.298-.297-.551-.723-.563-.946-.013-.22.188-.66.446-.974q.47-.568 1.105-.568m-131.873-7.345c-.742.007-1.577.158-1.947.353-.357.188-.926.6-1.264.911-.339.314-.8.934-1.027 1.382-.227.445-.416.98-.418 1.19-.004.258.394.546 1.244.903.88.37 1.698.975 2.773 2.054.84.842 1.705 1.922 1.923 2.398.216.475.407.892.42.927.016.035.366-.071.783-.238.416-.164 1.123-.705 1.569-1.198a5.5 5.5 0 0 0 1.162-2.142c.303-1.075.313-1.408.071-2.433-.156-.656-.581-1.58-.947-2.056-.383-.497-1.175-1.123-1.856-1.465-.918-.462-1.482-.594-2.486-.586M6.546 64.64c-.106 0-.3.147-.432.324-.177.24-.171.412.03.659.149.183.489.33.757.324.267-.005.534-.106.595-.225s-.087-.411-.325-.65c-.238-.237-.519-.432-.625-.432m-178.842-10.603c-1.001.004-1.489.123-2.055.502-.409.272-.867.735-1.021 1.027-.173.33-.253 1.104-.212 2.047.048 1.053.227 1.843.59 2.596.29.594 1.03 1.616 1.647 2.272a8.2 8.2 0 0 0 2.499 1.827c.988.459 1.718.641 2.57.646.854.006 1.419-.129 2.001-.477.605-.361.901-.744 1.172-1.51a4.26 4.26 0 0 0 .217-2.109c-.078-.595-.379-1.568-.668-2.163-.292-.595-.951-1.555-1.463-2.133-.61-.684-1.461-1.308-2.449-1.79-1.227-.599-1.766-.74-2.828-.735M6.955 63.989c-.2.002-.077.202.325.526.412.333.678.43.731.27.043-.138-.102-.376-.324-.528-.225-.149-.554-.27-.732-.268m-281.159-7.139c.87-.004 1.337.14 2.14.65.564.356 1.365 1.114 1.778 1.678.411.565.861 1.514 1.002 2.109.188.81.191 1.285.007 1.893-.158.523-.494.97-.948 1.257-.528.333-.972.424-1.784.368-.747-.052-1.379-.273-2.045-.715-.528-.352-1.266-1.029-1.638-1.505-.376-.48-.802-1.395-.96-2.055-.164-.692-.216-1.462-.123-1.839.089-.357.454-.918.81-1.244.53-.487.853-.595 1.761-.597m246.903 5.194c.41 0 .676.093.616.216-.061.119-.303.217-.54.217s-.58.05-.758.109c-.18.06-.324.205-.324.324 0 .118.218.224.486.233s.366.059.217.108c-.15.05-.27.19-.27.308.001.119.34.216.756.216.527 0 .757-.098.758-.324q.002-.322.378-.196c.31.104.348.044.217-.324-.128-.358-.082-.443.216-.398.257.036.396.282.433.758.047.624-.035.737-.758 1.044-.532.225-1.07.295-1.568.202-.418-.08-.976-.284-1.244-.453s-.495-.498-.508-.727c-.01-.23.249-.619.575-.865.327-.247.92-.447 1.317-.447m49.455-5.067c-.411-.13-.823.175-2.65 1.973l-2.164 2.129c1.255.523 1.83.96 2.088 1.31.257.348.573.903.703 1.232l.235.594c3.394-3.49 4.105-4.387 4.107-4.705.002-.268-.143-.779-.32-1.135-.18-.357-.594-.783-.92-.948a9 9 0 0 0-1.08-.45m-243.562-1.244c-1.298 1.28-2.944 2.845-3.658 3.477l-1.299 1.148c.396 1.224.883 1.976 1.337 2.456s1.169.99 1.584 1.136l.757.26 7.012-7.03c-1.411-.852-2.075-1.436-2.386-1.847-.312-.414-.663-1.015-.778-1.34l-.21-.588zm-53.702 2.634c-.337 0-.694.064-.794.144-.099.078-.164.226-.145.325.021.1.257.182.524.184.268.002.876.234 1.351.515.476.279 1.119.837 1.428 1.237.31.402.725 1.047.92 1.435.197.387.357.947.357 1.244s.078.54.173.54c.096 0 .292-.121.437-.27s.26-.465.258-.703c-.005-.238-.234-.92-.511-1.514-.279-.595-.911-1.447-1.404-1.893-.496-.446-1.144-.91-1.441-1.028a3.7 3.7 0 0 0-1.153-.216m-.415 1.29c-.268.005-.487.106-.487.224.002.12.412.435.911.703.502.268 1.14.826 1.419 1.244.276.417.564 1.001.635 1.297.072.299.237.613.367.7.131.088.311.162.4.162.089.002.162-.191.162-.429s-.219-.889-.487-1.444c-.294-.612-.872-1.3-1.46-1.737-.536-.398-1.192-.723-1.46-.72m234.973.916c.329.047.47.245.513.714.035.367-.13.954-.379 1.352-.257.413-.617.703-.87.703-.337 0-.432-.146-.432-.65 0-.356.16-.994.357-1.416.268-.573.474-.753.812-.703m-234.337.818c-.394-.227-.709-.32-.703-.206.007.118.442.674.964 1.237.523.564 1.009.953 1.082.867.072-.09-.041-.46-.249-.823-.207-.363-.701-.846-1.094-1.075m103.313-5.607c.387-.007 1.069.138 1.515.322s1.229.744 1.737 1.244c.552.54 1.099 1.37 1.352 2.044.233.625.426 1.38.426 1.677s-.121.787-.27 1.09c-.15.3-.613.701-1.028.89q-.758.338-1.514.192c-.418-.083-1.147-.372-1.623-.645-.476-.272-1.145-.824-1.486-1.226a9.4 9.4 0 0 1-1.028-1.545c-.225-.446-.407-1.225-.409-1.73 0-.507.156-1.145.347-1.423.192-.276.558-.585.813-.69.255-.1.781-.192 1.168-.2m182.642 4.313c.238 0 .675.245.973.541.297.299.539.711.534.92-.002.207-.173.551-.378.763-.204.212-.64.383-.967.379s-.79-.202-1.027-.44c-.238-.237-.433-.627-.433-.865s.195-.627.432-.865c.238-.238.628-.433.866-.433M-273.903 57.5c-.326 0-.593.052-.595.11.003.06.465.34 1.028.621.564.281 1.343.865 1.73 1.298s.898 1.175 1.136 1.651.43 1.035.429 1.243c-.003.303.052.325.27.109.223-.219.219-.448-.013-1.19a8.6 8.6 0 0 0-.811-1.73c-.288-.446-.986-1.106-1.551-1.463-.565-.36-1.296-.652-1.623-.65m101.592-.102c-.491-.106-.689-.067-.708.14-.015.159.34.499.79.754.448.255 1.136.792 1.527 1.19.389.398.889 1.21 1.11 1.806.289.785.524 1.096.857 1.135.376.046.458-.06.458-.594 0-.357-.16-.965-.356-1.352-.2-.387-.563-.98-.812-1.32-.251-.338-.844-.839-1.319-1.114-.476-.274-1.173-.565-1.547-.645m-.413 1.618c-.283 0-.295.077-.07.487.148.269.715.952 1.257 1.523.543.568 1.109 1.032 1.259 1.028.192-.006.156-.24-.134-.82-.223-.446-.76-1.127-1.19-1.515-.433-.387-.936-.702-1.122-.703m183.556 2.16c-.069.002-.19.078-.27.166-.077.09-.022.288.127.442.147.155.39.276.539.27.149-.004.271-.082.274-.17.002-.09-.121-.287-.27-.438-.151-.149-.33-.272-.4-.27m-182.178-4.688c-.718-.093-.987-.059-.92.116.052.136.266.247.473.247.208-.002.819.273 1.353.61.536.338 1.262.995 1.614 1.462.353.468.801 1.288.995 1.825.257.708.4.883.524.648.093-.178.107-.617.034-.974-.072-.357-.427-1.112-.783-1.676-.36-.565-1.02-1.274-1.465-1.576s-1.267-.61-1.825-.682m133.66 1.23c.16 0 .353.22.428.488.085.3-.023.776-.283 1.243-.255.462-.581.757-.839.758-.35 0-.411-.135-.366-.816.03-.45.215-1.01.411-1.244.195-.236.487-.428.65-.429m-51.885.095c-.342-.448-.353-.443-.898.433-.305.486-.486.954-.402 1.036.083.084.54.219 1.015.299.778.134.882.096 1.05-.368.132-.366.1-.576-.118-.729-.167-.12-.459-.422-.647-.67m103.806-2.041c.16 0 .34.097.4.216.058.119-.039.217-.216.217-.18 0-.327.073-.33.162-.002.089.264.305.594.477.33.173.746.321.924.325.175.005.346.18.379.387.03.208-.19.624-.486.92-.408.408-.686.51-1.136.417-.326-.07-.815-.337-1.087-.595-.27-.26-.497-.731-.506-1.051-.01-.39.18-.725.579-1.028.326-.246.724-.446.885-.447m-.292 1.291c-.143.005-.33.128-.413.277-.09.16.061.426.368.65.421.31.575.332.796.11.224-.221.203-.347-.109-.658-.21-.212-.5-.383-.642-.379m-48.874-2.097c.134.046.272.414.311.823.043.469-.073.93-.324 1.261-.266.35-.517.473-.773.378-.23-.086-.387-.385-.4-.763-.013-.35.187-.87.461-1.199.266-.32.593-.545.725-.5m-182.904-1.138c-.218-.417-.401-.636-.406-.487s.123.539.287.866c.162.326.626.893 1.029 1.256.4.366.973.736 1.269.827.299.088.582.106.632.039.049-.067-.074-.121-.271-.121-.199 0-.761-.366-1.253-.812-.488-.446-1.07-1.153-1.287-1.568m1.303-2.163c-.303 0-.688.117-.854.26-.167.142-.284.458-.258.703.024.244.262.8.53 1.237.266.437.729.991 1.025 1.231.299.24.863.514 1.259.61.545.134.764.1.915-.147.111-.18.201-.617.201-.974.003-.357-.189-.965-.427-1.352s-.749-.898-1.136-1.136-.952-.432-1.255-.432m183.952 1.085c.208-.005.426.188.486.425.059.238-.026.701-.19 1.028-.164.326-.456.717-.648.866-.242.186-.45.203-.675.054s-.282-.4-.183-.812c.078-.326.297-.811.487-1.075.189-.264.515-.482.723-.486M-222.577 2.897c.431-.303.829-.356 1.947-.268a7.3 7.3 0 0 1 2.705.757c.886.44 1.811 1.184 2.92 2.35.894.939 1.939 2.237 2.324 2.884.385.649.911 2.005 1.171 3.017.421 1.65.438 1.915.164 2.583-.176.426-1.225 1.599-2.469 2.756-1.8 1.677-2.308 2.034-3.028 2.134-.476.065-1.353-.016-3.03-.475l-2.92 2.681a5498 5498 0 0 0-6.02 5.532c-1.706 1.568-3.361 3.023-3.678 3.23-.32.21-.989.378-1.497.379-.506.002-1.285-.152-1.73-.34a8.2 8.2 0 0 1-1.57-.942c-.415-.329-1.066-1.075-1.444-1.659-.379-.582-.806-1.546-.948-2.141-.206-.855-.203-1.264.013-1.948.197-.625.755-1.315 2.014-2.487.958-.891 2.061-1.914 2.453-2.271.392-.358 1.311-1.184 2.042-1.84.733-.655 1.88-1.687 2.549-2.295.671-.61 1.803-1.629 3.814-3.422l-.08-1.848c-.058-1.332.011-2.025.242-2.494.178-.357 1.041-1.29 1.919-2.073.879-.78 1.841-1.592 2.137-1.8m-50.298-.278c.779.034 1.688.241 2.272.52.536.255 1.746 1.13 2.691 1.939.978.841 2.157 2.127 2.743 2.99.604.887 1.305 2.32 1.695 3.46.365 1.07.663 2.165.661 2.434 0 .269-.136.756-.298 1.082s-1.26 1.506-2.435 2.62c-1.173 1.114-2.33 2.165-2.569 2.336-.35.254-.658.269-1.623.08-.653-.125-1.482-.376-1.839-.553-.607-.305-.683-.294-1.189.165-.297.27-.836.783-1.195 1.14s-1.763 1.67-3.122 2.92-3.205 2.947-4.107 3.771c-.9.824-1.928 1.775-2.285 2.115s-.941.673-1.298.74-.989.054-1.406-.028-1-.277-1.298-.43c-.297-.154-1.069-.803-1.716-1.439-.686-.677-1.396-1.655-1.707-2.35-.409-.91-.512-1.456-.447-2.323.08-1.064.166-1.214 1.386-2.38.719-.686 2.119-1.977 3.114-2.868.995-.893 2.126-1.915 2.513-2.271.388-.357 1.275-1.156 1.971-1.777.697-.619 1.736-1.545 3.343-2.983l-.254-1.19c-.139-.655-.192-1.653-.116-2.217q.133-1.028.837-1.934c.387-.498 1.036-1.205 1.445-1.568a18 18 0 0 1 1.577-1.223c.459-.307.954-.623 1.097-.696.145-.076.846-.113 1.559-.082M-70.871 3.64c.582-.004 1.426.176 1.947.416.507.234 1.39.891 1.962 1.46.664.66 1.194 1.45 1.46 2.172.23.625.42 1.403.42 1.73.002.327-.169 1.078-.379 1.668-.34.957-1.365 2.041-9.424 9.953-6.57 6.454-9.258 8.955-9.842 9.166-.452.162-1.27.242-1.882.188-.595-.054-1.471-.294-1.947-.532-.476-.24-1.262-.86-1.746-1.379-.485-.52-1.015-1.335-1.177-1.81-.162-.477-.293-1.353-.288-1.948.006-.6.184-1.42.398-1.839.218-.42 4.392-4.786 9.281-9.706 4.89-4.924 9.183-9.082 9.54-9.24.358-.16 1.113-.295 1.677-.299m38.67 1.093c.418-.009 1.391.086 2.163.212.775.125 2.138.472 3.03.768.893.297 2.256.913 3.028 1.37a25 25 0 0 1 2.676 1.88c.696.577 1.785 1.685 2.417 2.457.629.773 1.542 2.232 2.027 3.245.487 1.012.99 2.423 1.122 3.137s.197 1.979.146 2.812c-.055.833-.288 1.951-.524 2.488-.234.534-.98 1.729-1.657 2.65-.677.922-1.694 2.012-2.259 2.423-.565.41-1.71.965-2.542 1.234-1.17.376-1.982.482-3.57.463-1.276-.015-2.669-.187-3.677-.45-.891-.234-2.255-.742-3.03-1.127a25 25 0 0 1-2.703-1.617c-.714-.502-1.958-1.635-2.765-2.515-.835-.913-1.82-2.298-2.297-3.224-.459-.893-1.013-2.16-1.233-2.812-.277-.823-.399-1.792-.39-3.137.009-1.696.095-2.13.662-3.354.36-.772.995-1.942 1.415-2.595.42-.656 1.19-1.574 1.711-2.043.524-.47 1.389-1.04 1.923-1.272.536-.231 1.558-.548 2.271-.7.714-.153 1.64-.284 2.056-.293m-256.228 17.244c-.485-.09-.79.029-1.359.528-.566.5-.731.814-.726 1.382.004.403.213 1.147.466 1.653.256.507.823 1.359 1.264 1.893.45.547 1.311 1.235 1.971 1.57.644.33 1.367.602 1.605.604s.701-.192 1.028-.435c.506-.374.595-.594.59-1.468-.004-.755-.197-1.37-.729-2.326-.398-.714-1.103-1.594-1.564-1.958-.46-.36-1.084-.809-1.38-.993a4 4 0 0 0-1.166-.45m198.272.913c-.125 0-.338.189-.47.42-.134.23-.233.91-.222 1.514.01.614.2 1.45.432 1.906.228.446.74 1.123 1.136 1.504.398.38 1.088.843 1.533 1.027.446.184 1.226.335 1.732.335.57 0 1.207-.181 1.676-.475l.757-.474c-1.845-.281-2.769-.591-3.245-.87-.476-.277-1.18-.859-1.568-1.29-.387-.432-.84-1.052-1.006-1.38-.167-.326-.355-.96-.416-1.405-.063-.445-.214-.81-.339-.812m-147.067-.865a.47.47 0 0 0-.379.216c-.065.119.123.216.422.216.296 0 .809.137 1.135.303.327.165 1.106.847 1.731 1.515.625.666 1.135 1.332 1.136 1.481.002.15-.461-.257-1.028-.902-.564-.644-1.416-1.35-1.892-1.564s-1.202-.392-1.613-.396c-.438-.002-.836.134-.966.331-.122.184-.199.721-.173 1.19.026.47.242 1.244.48 1.72s.798 1.27 1.243 1.765c.446.493 1.201 1.075 1.677 1.294.476.216 1.231.396 1.677.398.528.002.963-.147 1.244-.428.348-.348.406-.61.305-1.352-.072-.506-.362-1.406-.645-2-.285-.596-.932-1.487-1.44-1.98-.509-.496-1.313-1.104-1.789-1.353-.476-.25-.982-.454-1.125-.454m58.672-18.577c.714-.018 2.856.11 4.759.283s3.672.392 3.927.487c.256.094 1.119.9 1.919 1.793a73 73 0 0 1 2.804 3.354 57 57 0 0 1 2.496 3.46l-.234 3.03c-.129 1.666-.3 3.92-.38 5.008-.117 1.56-.243 2.088-.595 2.488-.249.28-1.259 1.434-2.25 2.564a362 362 0 0 0-1.932 2.214c-.071.09-1.201.308-2.51.483-1.308.177-3.719.399-8.329.656l-8.872-8.87.02-4.002c.011-2.202.084-4.456.164-5.013.132-.936.374-1.253 3.325-4.368 2.336-2.464 3.345-3.381 3.786-3.446.333-.05 1.188-.104 1.902-.121m137.189 10.57c-.082.653-.054 1.724.06 2.38.115.653.297 1.482.403 1.839s.461 1.183.79 1.839c.329.653.867 1.578 1.2 2.054.331.476 1.27 1.509 2.086 2.294.818.786 2.068 1.8 2.782 2.256.714.454 2.029 1.093 2.92 1.417.894.325 2.378.697 3.3.826 1.131.16 2.153.171 3.137.03.804-.114 1.9-.363 2.433-.553.537-.19 1.292-.534 1.677-.766.387-.231.679-.47.648-.528-.03-.06-.444.048-.918.24-.476.193-1.45.434-2.164.535-.763.11-2.075.1-3.19-.024-1.147-.128-2.638-.487-3.789-.913-1.043-.387-2.468-1.045-3.169-1.46-.699-.418-1.974-1.439-2.828-2.272-.857-.832-1.98-2.148-2.496-2.92-.517-.775-1.182-1.943-1.476-2.596-.294-.656-.696-2.018-.895-3.028l-.362-1.84zm65.41-11.886c.179-.006.666.079 1.081.189.418.11 1.268.597 1.893 1.082.64.495 1.337 1.279 1.598 1.798.256.506.468 1.26.472 1.675.004.442-.201 1.074-.993 2.272l1.14 2.705-.448.595c-.389.517-.417.71-.222 1.46.177.681.16.958-.082 1.298-.171.237-1.264 1.443-4.548 4.923l-4.976.167-1.568 1.512c-.861.829-1.565 1.555-1.568 1.618 0 .06-.608.72-1.352 1.467a69 69 0 0 0-2.482 2.65c-1.103 1.262-1.157 1.294-2.38 1.377-.986.067-1.501-.028-2.44-.446-.655-.292-1.607-.963-2.12-1.491-.655-.68-1.025-1.309-1.26-2.15-.2-.714-.271-1.45-.18-1.84.084-.357.766-1.33 1.516-2.162.749-.833 2.297-2.489 3.442-3.678 1.144-1.19 2.382-2.553 3.426-3.894l-.93-3.353.747-.92c.411-.506 1.384-1.577 2.163-2.38s1.49-1.412 1.579-1.356c.089.059.673-.478 1.298-1.19.625-.711 1.307-1.294 1.514-1.294s.89.195 1.515.433 1.306.435 1.514.44c.207.001.608-.256.887-.574.282-.318.719-.655.974-.748.255-.095.612-.178.79-.185m-149.11.206c.506-.002 1.43.107 2.055.24.626.135 1.817.584 2.65 1.002 1.058.53 2.006 1.257 3.141 2.406.896.906 1.889 2.134 2.211 2.73.321.594.727 1.763.905 2.596.231 1.096.264 1.782.119 2.487-.119.571-.548 1.422-1.039 2.056-.461.595-1.168 1.229-1.572 1.406-.427.188-1.283.312-2.034.292-.714-.017-1.688-.173-2.164-.346-.828-.301-.9-.29-1.702.249-.46.309-.973.83-1.136 1.157-.164.326-.641.766-1.06.973-.419.208-.758.476-.757.595.002.12-.945 1.143-2.104 2.272s-2.281 2.323-2.489 2.65-.647.688-.973.803c-.327.112-.766.454-.974.757-.208.302-.694.707-1.081.9-.387.195-1.288.374-2.002.4s-2.069.134-4.723.439l.174-1.405c.095-.773.188-2.088.205-2.921.024-1.06.154-1.71.438-2.163.223-.357.536-.723.696-.812s.441-.528.627-.974c.184-.445.55-1.032.811-1.304.26-.27.572-.487.691-.48.119.005.461-.353.757-.8.298-.448.844-1.011 1.214-1.251.369-.24.774-.68.902-.978.126-.296.521-.736.878-.974.359-.238.95-.845 1.315-1.351.368-.506.911-1.017 1.207-1.136.439-.175.565-.407.662-1.244.07-.573.013-1.313-.127-1.677-.137-.357-.256-1.183-.264-1.839-.009-.673.13-1.473.318-1.839.184-.357.613-.982.954-1.388.342-.407 1.01-.918 1.486-1.132s1.279-.393 1.785-.396M-165.1 23.324c-1.709.054-2.547.101-2.962.14-.418.04-1.973.178-3.457.305l-2.699.235c-1.177 1.401-2.006 2.32-2.603 2.946s-1.004 1.21-.907 1.298 1.703.03 3.57-.128c1.864-.158 3.854-.379 4.419-.487.844-.162 1.214-.4 2.07-1.335a65 65 0 0 0 1.807-2.055zm172.324-3.44c-.09.015-.77.695-1.514 1.514-.973 1.075-1.352 1.66-1.35 2.088 0 .326.227 1.082.504 1.677.274.595.835 1.365 1.242 1.709.406.346 1.056.76 1.443.92.388.16 1.166.291 1.73.293.991.003 1.078-.052 2.397-1.46l1.367-1.462c-1.282-.189-1.996-.424-2.412-.647-.417-.223-1.185-.848-1.71-1.393-.524-.543-1.085-1.305-1.245-1.692s-.29-.897-.29-1.136c0-.237-.073-.421-.162-.41m-189.566-3.912c-.06.01-1.009.985-2.11 2.17-1.098 1.183-1.995 2.224-1.992 2.316.007.09 1.247 1.41 2.758 2.928 1.512 1.523 3.262 3.205 3.886 3.733l1.135.965 3.678-4.328c-4.441-4.612-6.073-6.366-6.49-6.875-.415-.51-.804-.919-.865-.909m93.708 5.189c-.102 0-.364.177-.58.395-.243.242-.38.665-.357 1.082.022.377.19 1.052.379 1.497.186.446.653 1.201 1.04 1.677s1.233 1.133 1.88 1.462c.768.392 1.512.597 2.148.597.534 0 1.192-.147 1.46-.326s.488-.401.486-.49-.44-.185-.974-.216c-.534-.03-1.434-.284-2-.567-.564-.281-1.342-.865-1.73-1.298a9 9 0 0 1-1.135-1.65c-.238-.476-.434-1.158-.434-1.515s-.082-.648-.184-.648m-146.743.025c-.441-.102-.945-.099-1.135.005-.273.147-.109.31.78.78.618.327 1.596 1.082 2.172 1.677.575.595 1.288 1.57 1.582 2.164s.534 1.3.532 1.568c-.002.286.11.456.268.416.149-.04.359-.308.469-.595.143-.379.085-.825-.21-1.606-.223-.595-.774-1.544-1.226-2.11-.45-.564-1.184-1.27-1.629-1.57s-1.168-.627-1.603-.729m-52.173-.242c-.279 0-.572.05-.65.108-.079.061.345.377.941.703.598.327 1.497.998 2.001 1.489.504.49 1.229 1.464 1.612 2.163s.698 1.488.703 1.757c.002.268.104.486.223.487.119 0 .313-.196.432-.434s.154-.7.078-1.027c-.078-.327-.359-1.032-.625-1.568-.266-.535-.982-1.437-1.591-2.001-.608-.565-1.448-1.173-1.864-1.353-.417-.177-.983-.324-1.26-.324m149.643 5.408c-.638-.644-.748-.692-.744-.324a5 5 0 0 1-.1.92c-.095.432-.021.486.652.486.414 0 .797-.073.849-.162s-.244-.503-.657-.92m.171-4.759c-.1 0-.342.292-.541.649-.201.357-.363.894-.363 1.19 0 .299.139.81.307 1.136.169.327.68.952 1.136 1.387.454.437 1.218.912 1.693 1.06.71.22.998.214 1.597-.035.402-.167.814-.4.913-.52.112-.134-.199-.34-.824-.54-.554-.178-1.441-.714-1.971-1.19s-1.144-1.231-1.367-1.677c-.221-.445-.402-.956-.402-1.136 0-.177-.081-.324-.178-.324M-31.119 5.73a12.7 12.7 0 0 0-2.38.07c-.655.092-1.628.33-2.163.528-.536.197-1.316.618-1.731.936-.418.318-.932.775-1.149 1.015-.216.242-.63.926-.922 1.52-.29.595-.59 1.616-.666 2.272-.078.662-.023 1.815.122 2.596.149.804.694 2.282 1.276 3.453.735 1.484 1.432 2.49 2.53 3.654.832.885 2.098 2.003 2.812 2.485.714.48 2.003 1.197 2.866 1.59.954.435 2.395.857 3.678 1.075 1.726.295 2.403.319 3.731.126.891-.13 2.086-.44 2.65-.686s1.43-.813 1.92-1.259 1.135-1.298 1.431-1.892c.357-.717.578-1.596.651-2.597.082-1.131-.008-1.98-.356-3.353a11.9 11.9 0 0 0-1.411-3.353c-.517-.833-1.462-2.087-2.103-2.788-.638-.701-1.744-1.689-2.458-2.193a24 24 0 0 0-2.65-1.592c-.743-.372-2.057-.86-2.92-1.09-.863-.229-2.104-.46-2.758-.517M-234.71 20.075c-.426.002-.841.077-.92.166s.343.381.938.65c.595.268 1.622.996 2.284 1.621s1.443 1.623 1.733 2.218.525 1.325.519 1.622c-.011.487.022.509.331.217.188-.178.338-.617.329-.974-.006-.357-.188-1.038-.402-1.514-.212-.476-.77-1.29-1.237-1.806-.47-.517-1.292-1.227-1.827-1.573-.623-.405-1.252-.63-1.748-.627m-51.609-.425c-.253-.002-.571.143-.703.32-.188.253-.158.35.139.444.207.067.806.336 1.33.595.523.262 1.439 1.012 2.034 1.665.595.656 1.26 1.603 1.481 2.11s.401 1.114.401 1.352.097.433.216.433.264-.145.325-.324c.058-.178.107-.594.105-.92s-.231-1.082-.513-1.677-.986-1.555-1.568-2.135c-.58-.58-1.443-1.235-1.919-1.456s-1.073-.403-1.328-.407m198.938.059c-.378.38-.491.716-.457 1.356.026.47.222 1.242.436 1.718s.722 1.207 1.13 1.625c.41.417 1.18.975 1.717 1.241a4.95 4.95 0 0 0 2.055.485c.612.002 1.294-.136 1.569-.32.268-.18.486-.4.486-.49 0-.088-.364-.183-.811-.21-.446-.025-1.177-.195-1.623-.377s-1.211-.697-1.698-1.143c-.489-.445-1.066-1.103-1.287-1.46-.218-.357-.537-1.162-.708-1.789l-.307-1.142zm-146.193-.712c-.337 0-.694.065-.794.143-.099.08-.165.227-.145.324.019.1.182.182.361.182.177 0 .641.16 1.028.36.388.197 1.273.902 1.969 1.568.697.664 1.417 1.501 1.601 1.858s.441 1.006.571 1.443c.24.79.242.792.593.325.326-.437.32-.553-.1-1.66-.288-.76-.885-1.651-1.65-2.462-.66-.699-1.564-1.453-2.01-1.676s-1.089-.405-1.424-.405m-51.351-.221c-.441.002-.855.102-.92.22-.065.12.076.217.314.217.239.001.993.425 1.676.942.683.519 1.633 1.466 2.109 2.106s1.025 1.653 1.218 2.25c.333 1.015.371 1.054.596.598.134-.268.242-.682.242-.92s-.158-.749-.351-1.136-.709-1.19-1.148-1.785c-.441-.595-1.283-1.4-1.869-1.789-.731-.485-1.32-.707-1.867-.703m149.135.437c-.099 0-.409.226-.69.5-.385.379-.502.712-.474 1.352.024.523.29 1.248.693 1.88.357.564 1.04 1.27 1.516 1.568.476.296 1.23.628 1.676.737.638.153.95.113 1.461-.183.357-.206.794-.543.974-.744.295-.337.271-.37-.271-.361-.327.006-1.05-.208-1.603-.476-.554-.268-1.285-.802-1.623-1.19a9 9 0 0 1-1.047-1.568c-.238-.476-.433-1.013-.433-1.19 0-.18-.08-.324-.179-.325m50.64-1.724c-.089.004-.334.247-.541.54-.208.295-.376.85-.374 1.238.002.387.18 1.093.393 1.569.212.475.734 1.255 1.158 1.73.426.477 1.246 1.102 1.826 1.393.647.323 1.447.533 2.074.541.783.01 1.136-.101 1.508-.473l.487-.487a6.4 6.4 0 0 1-2.043-.314c-.536-.175-1.46-.742-2.055-1.26-.605-.529-1.345-1.461-1.678-2.119-.329-.647-.597-1.443-.595-1.77 0-.326-.072-.592-.16-.588m93.065 1.655c-.093.078-.153.441-.133.807.017.367.304 1.106.64 1.642.332.535.943 1.229 1.354 1.542.41.314 1.088.74 1.505.95s1.13.381 1.582.381c.454-.002.937-.112 1.07-.249.184-.181.085-.244-.39-.242-.351.002-1.126-.234-1.72-.523s-1.466-.95-1.935-1.465c-.467-.515-1.066-1.396-1.328-1.958-.264-.562-.554-.96-.645-.885m-240.462-1.224c-.306-.003-.639.06-.739.138-.099.08-.165.227-.145.324.019.1.181.182.361.182.177 0 .69.189 1.136.42s1.224.79 1.728 1.244c.504.452 1.259 1.408 1.679 2.122.419.714.757 1.492.751 1.73-.011.388.024.399.331.109.188-.18.338-.569.331-.865-.004-.299-.293-1.028-.639-1.623-.344-.595-1.049-1.515-1.566-2.042s-1.328-1.134-1.804-1.346c-.476-.214-1.116-.391-1.424-.393m-50.769-.184c-.714-.158-.984-.137-1.196.095-.221.242-.219.3.002.3.153 0 .731.269 1.287.595.556.327 1.455 1.083 2.001 1.68s1.209 1.522 1.475 2.055.481 1.214.477 1.512c-.007.486.027.508.337.216.188-.18.339-.64.333-1.027-.005-.387-.143-1.02-.305-1.407-.164-.387-.613-1.092-1-1.568a11.4 11.4 0 0 0-1.596-1.556c-.491-.38-1.309-.783-1.815-.895m52.191-.753c-.356-.067-.789-.071-.963-.009-.17.06-.294.202-.27.31s.214.203.422.208c.21.004.69.174 1.07.378.381.203 1.197.857 1.816 1.452.616.595 1.399 1.568 1.739 2.163.339.595.614 1.323.61 1.622-.006.485.028.509.335.217.19-.18.34-.57.333-.866-.006-.298-.239-1.028-.518-1.622-.28-.595-.983-1.528-1.567-2.073-.582-.545-1.352-1.142-1.709-1.326a5.6 5.6 0 0 0-1.298-.454m96.79.62c-.395.425-.508.763-.466 1.41.03.466.188 1.116.35 1.445.163.326.772 1.012 1.352 1.524.582.51 1.398 1.021 1.813 1.134.418.112.928.206 1.136.206.21 0 .671-.243 1.027-.54.357-.298.651-.614.654-.702.001-.091-.363-.233-.812-.318-.448-.086-1.253-.43-1.789-.768-.534-.336-1.212-.948-1.506-1.359a9 9 0 0 1-.887-1.67l-.352-.924zm143.56.096c-.226 0-.323.228-.323.758 0 .415.181 1.122.404 1.568s.76 1.126 1.19 1.514c.433.387 1.151.885 1.597 1.11.446.223 1.103.469 1.46.549s.918.043 1.244-.082c.326-.123.596-.298.599-.387.002-.089-.363-.232-.81-.316-.449-.085-1.401-.528-2.115-.985l-.083-.056c-.145-.045-.45-.232-.776-.486-.346-.27-.695-.645-.863-.912a4 4 0 0 1-.288-.34c-.391-.528-.756-1.18-.81-1.448s-.248-.487-.425-.487M-177.838 4.5c-1.509-.003-2.784.073-2.836.166-.049.093-.242 1.577-.432 3.3a216 216 0 0 0-.489 4.968c-.117 1.478-.078 1.977.206 2.542.192.387 1.884 2.272 3.757 4.189l3.408 3.487c2.011-.208 4.201-.377 6.165-.509 2.191-.147 3.626-.335 3.713-.486.08-.135.201-.974.27-1.867.069-.892.225-2.865.344-4.381l.217-2.758c-1.735-2.432-2.668-3.672-3.194-4.327a44 44 0 0 0-2.207-2.488l-1.255-1.298c-3.811-.418-6.157-.538-7.667-.538m-104.738 12.117c-.396 0-.786.071-.866.162-.078.09.367.409.991.709.625.3 1.575 1.021 2.11 1.596.536.578 1.209 1.403 1.497 1.834.285.43.578 1.142.649 1.58.102.64.181.747.406.542a.97.97 0 0 0 .271-.637c-.007-.21-.16-.744-.344-1.19-.186-.447-.66-1.153-1.054-1.568-.396-.418-.805-.918-.911-1.112-.104-.195-.603-.706-1.109-1.136-.655-.558-1.125-.78-1.64-.78m198.692-.397c-.411.424-.468.654-.358 1.476.072.534.418 1.484.773 2.11.354.624.96 1.366 1.347 1.65s1.043.685 1.46.895c.463.232 1.177.366 1.84.347.695-.022 1.217-.167 1.466-.41.212-.205.383-.423.379-.482-.005-.06-.373-.136-.818-.17-.445-.035-1.2-.234-1.676-.444s-1.28-.79-1.785-1.29c-.507-.499-1.114-1.298-1.352-1.774s-.513-1.213-.61-1.637l-.178-.775zm-145.227-1.125c-.441.002-.853.102-.919.22-.065.12.099.215.367.213s.682.14.92.318.335.322.216.322c-.119.003-.606-.086-1.081-.192-.569-.13-1.016-.117-1.299.034-.387.206-.32.271.65.617.698.251 1.52.814 2.325 1.594.683.662 1.486 1.692 1.785 2.287.296.595.541 1.277.541 1.515 0 .24.121.4.27.361s.303-.308.344-.595c.039-.289-.227-1.23-.595-2.092-.367-.863-.621-1.569-.56-1.569.059.001.4.512.755 1.136.354.625.642 1.428.64 1.785-.008.584.026.616.335.325.188-.18.34-.64.333-1.028-.004-.387-.166-1.019-.361-1.406-.193-.387-.661-1.092-1.042-1.568-.383-.476-1.173-1.184-1.759-1.574-.729-.484-1.318-.707-1.865-.703m-52.329 1.09c-.141 0-.163.116-.055.293.1.162.667.716 1.262 1.23.595.515 1.49 1.478 1.99 2.14.5.66.986 1.515 1.081 1.896.139.556.23.642.455.432.154-.142.275-.48.271-.746a2.7 2.7 0 0 0-.258-.973c-.136-.269-.745-1.11-1.353-1.87-.724-.908-1.457-1.56-2.132-1.893-.564-.281-1.13-.51-1.261-.51m292.228 1.457c-.447-.852-.58-.971-.78-.703-.172.23-.178.58-.027 1.191.119.476.496 1.181.838 1.569q.023.026.05.053c.145.104.36.288.655.558.173.16.331.315.469.455q.15.118.286.21c.463.316 1.352.682 1.975.812.68.142 1.332.162 1.622.05.452-.174.435-.2-.27-.351-.416-.091-1.194-.387-1.73-.66-.535-.272-1.327-.87-1.76-1.326a10 10 0 0 1-1.328-1.858m-291.669-2.531c-.406-.002-.847.197-1.18.534-.387.387-.444.536-.206.536.179 0 .439-.121.578-.27.199-.214.489-.153 1.395.295.63.309 1.612 1.04 2.183 1.622s1.226 1.447 1.458 1.924c.229.475.415 1.106.411 1.405-.006.489.028.51.351.217.266-.243.324-.535.226-1.136-.073-.446-.278-1.103-.456-1.46-.179-.357-.69-1.05-1.136-1.536-.445-.487-1.297-1.166-1.892-1.508s-1.375-.623-1.732-.623m249.438-3.584c.55-.208 1.262-.29 1.947-.223.6.06 1.757.435 2.596.844.943.46 1.828 1.094 2.345 1.683.456.519 1.065 1.406 1.352 1.97.35.69.523 1.403.527 2.164.005.923-.116 1.307-.648 2.055-.448.63-.911.997-1.467 1.166-.467.14-1.36.19-2.11.114a7.9 7.9 0 0 1-2.487-.728c-.656-.33-1.63-1.04-2.163-1.58-.537-.538-1.242-1.514-1.57-2.165-.34-.673-.597-1.54-.596-2 0-.445.134-1.126.296-1.513s.479-.872.703-1.08c.226-.208.8-.525 1.275-.707m-100.261 3.356c-.11 0-.413.256-.671.57-.292.356-.46.846-.447 1.297.013.4.206 1.095.429 1.54s.782 1.146 1.243 1.552 1.156.87 1.543 1.028 1.019.29 1.406.292c.5.004.889-.184 1.352-.654.625-.633.631-.657.162-.653-.269.002-.95-.228-1.514-.51s-1.393-.916-1.839-1.407-.958-1.183-1.135-1.54c-.18-.357-.326-.844-.326-1.082s-.09-.433-.203-.433m50.034-.858c-.1.005-.353.246-.56.54s-.376.753-.374 1.021c.002.269.123.87.27 1.34.145.469.703 1.336 1.24 1.929.54.6 1.454 1.299 2.055 1.58.608.281 1.508.505 2.055.51.66.006 1.095-.115 1.346-.376.205-.212.376-.435.38-.493.002-.06-.311-.139-.698-.173-.387-.035-1.092-.239-1.568-.448-.476-.212-1.243-.718-1.701-1.127a10 10 0 0 1-1.458-1.714c-.344-.537-.666-1.339-.716-1.784s-.171-.81-.27-.805m93.222 1.29c-.145 0-.325.27-.398.596-.098.426.04.929.482 1.77.465.883.954 1.406 1.97 2.109.745.514 1.67.995 2.056 1.069.388.073.972.073 1.298 0 .327-.074.595-.232.595-.35 0-.12-.218-.217-.486-.215-.269.003-1.018-.266-1.663-.595-.65-.331-1.6-1.08-2.125-1.679-.522-.595-1.065-1.447-1.207-1.893-.141-.445-.377-.81-.522-.811m-291.313-1.297c-.398 0-.803.065-.903.145-.099.078-.165.225-.145.325.019.097.256.177.524.175.269-.002.924.28 1.46.627.534.349 1.387 1.082 1.893 1.628.506.547 1.114 1.384 1.352 1.86s.433 1.06.433 1.298.073.432.162.432.283-.195.433-.432c.198-.318.212-.62.049-1.136-.123-.387-.462-1.117-.756-1.623-.297-.506-.903-1.27-1.348-1.698-.446-.429-1.178-.965-1.623-1.19-.446-.227-1.135-.41-1.531-.41m248.966-.415c-.357.013-.978.137-1.378.274-.713.242-.726.27-.605 1.221.078.601.417 1.407.89 2.11.422.625 1.214 1.451 1.76 1.838.545.388 1.398.867 1.893 1.069.495.203 1.365.372 1.93.379.563.006 1.17-.035 1.351-.095.22-.074.325-.401.323-1.028-.002-.507-.23-1.407-.504-2.001-.301-.645-.976-1.504-1.674-2.124-.764-.68-1.55-1.152-2.255-1.355-.595-.17-1.374-.3-1.73-.288m-197.209.203c-.306-.002-.639.06-.739.14-.099.079-.167.2-.147.271.017.07.351.242.74.385.387.143 1.142.59 1.679.99.534.4 1.391 1.354 1.901 2.12.51.765.971 1.706 1.027 2.093.085.601.148.664.433.433.184-.15.329-.563.32-.92-.006-.357-.205-1.062-.441-1.569s-.892-1.42-1.456-2.033c-.565-.612-1.417-1.29-1.893-1.51-.476-.216-1.116-.398-1.424-.4m240.41.753c-.12-.076-.227.13-.245.474-.015.359.226.963.591 1.473.34.476.976 1.181 1.413 1.569s1.062.836 1.389 1 .935.364 1.352.444l.757.144a97 97 0 0 1-2.81-2.248l-1.895-1.569c-.207-.173-.368-.502-.357-.733.013-.232-.076-.48-.194-.554m-186.199-7.155c.602.039 1.586.324 2.218.638.625.311 1.582.98 2.129 1.486.545.506 1.268 1.358 1.605 1.892.336.537.777 1.558.98 2.272.249.874.323 1.616.226 2.271-.081.537-.339 1.317-.577 1.732-.238.417-.787 1.002-1.219 1.298-.668.46-1.033.54-2.425.54-1.393 0-1.829-.097-2.912-.649-.721-.368-1.755-1.164-2.384-1.839-.61-.653-1.372-1.724-1.692-2.38-.32-.653-.644-1.676-.72-2.27-.076-.596-.033-1.496.098-2.002.143-.551.564-1.248 1.05-1.743.454-.46 1.192-.933 1.677-1.071.476-.137 1.352-.216 1.946-.175m-7.995-1.559c-.026-.03-1.107 1.074-2.405 2.453-1.3 1.378-2.423 2.767-2.499 3.085s-.149 2.28-.166 4.364l-.028 3.786 4.298-4.543c.385-4.861.575-6.906.67-7.68.095-.775.154-1.431.13-1.465m208.7 9.506c-.09.022-.914.093-1.833.162-1.648.126-1.68.14-2.775 1.21-.608.594-1.416 1.462-1.792 1.927l-.685.846c3.766-.221 3.926-.269 4.407-.853a53 53 0 0 1 1.677-1.866c.64-.684 1.162-1.294 1.163-1.353 0-.06-.074-.092-.163-.073m-305.564-2.41c-.32-.002-.629.07-.688.158-.055.09.397.405 1.004.703.61.297 1.551.937 2.094 1.421.543.482 1.257 1.408 1.586 2.055.327.644.595 1.394.595 1.662-.002.268.074.486.169.486s.292-.121.436-.27.262-.418.258-.595c-.002-.18-.249-.835-.545-1.46s-1-1.638-1.566-2.25c-.565-.612-1.418-1.291-1.894-1.51-.476-.216-1.127-.398-1.449-.4m295.83-1.3c-.09 0-.916.828-1.84 1.838-.92 1.008-1.647 1.865-1.623 1.908.03.041.833.701 1.785 1.469.952.766 2.072 1.654 2.488 1.972l.757.575c2.367-2.578 3.12-3.45 3.204-3.6.092-.167-.238-.628-.85-1.19a37 37 0 0 0-2.38-1.948c-.758-.563-1.449-1.025-1.542-1.025m-243.654 1.168c-.556-.095-.848-.037-1.081.225-.286.316-.275.353.112.346.238-.004.919.275 1.514.619.594.343 1.391.951 1.767 1.35.379.397.94 1.21 1.251 1.806.31.595.56 1.35.558 1.677-.004.432.082.564.318.486.18-.06.385-.376.456-.702.08-.362-.024-.981-.261-1.57-.219-.536-.764-1.436-1.213-2s-1.233-1.27-1.74-1.567c-.504-.296-1.262-.598-1.681-.67m-50.822-6.581c-.114 0-.461.316-.768.703-.521.651-.554.818-.443 2.272.064.863.217 1.616.335 1.676.12.06.338-.044.487-.225.149-.184.513-.33.811-.32.297.006.931.188 1.407.398.476.212 1.285.723 1.799 1.132.515.41 1.273 1.233 1.686 1.828.415.595.891 1.616 1.061 2.271.288 1.11.279 1.238-.119 1.893-.232.386-.401.744-.372.798.031.052.639.245 1.353.428 1.205.31 1.326.308 1.689-.04.214-.206.496-.715.623-1.132.201-.655.156-.93-.352-2.055-.323-.714-1.032-2.03-1.579-2.92-.548-.894-1.392-2.043-1.878-2.556-.485-.512-1.225-1.137-1.64-1.386-.417-.25-1.464-.9-2.332-1.448-.865-.545-1.57-1.066-1.568-1.155.004-.088-.087-.162-.2-.162m196.99 6.419c-.51.534-.567.727-.44 1.48.08.475.363 1.302.627 1.838.264.535.86 1.281 1.323 1.658.462.378 1.28.886 1.814 1.13.536.247 1.34.45 1.785.453a2.06 2.06 0 0 0 1.406-.506l.595-.511c-1.676-.225-2.552-.52-3.028-.8s-1.28-.96-1.785-1.509c-.504-.547-1.03-1.265-1.166-1.591-.139-.327-.316-.97-.398-1.426l-.147-.831zm-49.464.29c-.119 0-.411.316-.647.702-.238.387-.43.849-.428 1.028 0 .178.227.812.502 1.407.277.595.835 1.363 1.242 1.709s1.058.759 1.443.919c.387.16 1.068.294 1.514.297.59.004.961-.146 1.352-.546l.541-.552c-.752.008-1.434-.207-1.997-.476-.564-.268-1.343-.802-1.73-1.19a8.3 8.3 0 0 1-1.177-1.56c-.259-.471-.454-1.055-.433-1.297s-.061-.442-.182-.442m-44.129-4.701a3.66 3.66 0 0 0-1.839.33c-.476.224-1.01.572-1.189.775-.29.328-.285.366.053.358.208-.005.379.089.379.208-.001.119-.195.264-.432.324-.238.06-.531.303-.65.541-.202.406-.16.423.703.298.602-.089 1.37-.005 2.218.242 1.041.303 1.541.619 2.521 1.597.67.668 1.423 1.655 1.67 2.19.279.6.446 1.386.437 2.055l-.016 1.08c-.586-1.844-.967-2.792-1.224-3.298-.258-.506-.833-1.274-1.279-1.707s-1.2-.96-1.676-1.172a8.5 8.5 0 0 0-1.722-.526c-.474-.076-1.078-.037-1.352.09-.272.128-.497.305-.5.394.002.089.462.241 1.028.334.569.095 1.324.312 1.68.485.357.173.991.59 1.407.932.415.34 1.066 1.192 1.447 1.895.379.7.768 1.691.865 2.2.152.795.25.921.716.915.296-.004.649-.078.781-.166.132-.087.414-.498.623-.915.275-.547.345-1.013.247-1.677-.075-.506-.381-1.406-.677-2-.299-.596-.82-1.399-1.159-1.786s-1.192-1.017-1.893-1.4c-.701-.382-1.494-.698-1.762-.703-.267-.004-.536-.104-.595-.222-.06-.12.038-.265.217-.325.18-.06.543-.106.811-.102s1.062.32 1.765.703c.701.383 1.612 1.087 2.019 1.563.409.476.997 1.351 1.307 1.946.437.84.564 1.409.575 2.54.006.8.061 1.46.121 1.469.058.004.29-.362.511-.812.311-.633.372-1.086.268-2.007-.073-.655-.36-1.676-.636-2.271-.275-.595-.98-1.573-1.566-2.175-.584-.6-1.551-1.324-2.146-1.61-.595-.283-1.522-.549-2.056-.59m144.297 3.932c-.534-.04-1.168-.019-1.406.048a3.5 3.5 0 0 0-.866.422c-.386.268-.287.3.973.295.774-.004 1.845.147 2.38.337.534.188 1.322.604 1.748.924.426.318 1.108.965 1.515 1.436.406.472.947 1.396 1.198 2.056.28.73.506 1.072.578.874.063-.177.02-.764-.096-1.298-.117-.534-.392-1.266-.61-1.623-.219-.357-.87-1.081-1.445-1.611-.577-.53-1.489-1.149-2.023-1.376-.534-.23-1.412-.446-1.946-.485m-147.379.988c-.207-.002-.379.116-.379.265-.002.15.204.66.452 1.136.251.476.859 1.288 1.355 1.805.493.517 1.384 1.222 1.979 1.566.594.346 1.154.628 1.244.63.089 0 .101-.315.028-.701-.076-.387-.357-1.14-.629-1.677-.273-.534-.771-1.235-1.111-1.556-.337-.32-1.053-.78-1.588-1.023s-1.143-.443-1.351-.445m-100.33-1.187c-.415-.08-.846-.073-.954.016-.108.086-.181.24-.159.339.019.097.254.182.52.184.268.005.968.32 1.552.703.584.386 1.363 1.05 1.73 1.478.368.43.879 1.21 1.136 1.73.26.524.561 1.195.669 1.494l.201.54c.445-.867.43-1.21.175-2.055-.221-.738-.683-1.47-1.46-2.3-.623-.668-1.476-1.388-1.894-1.6a7 7 0 0 0-1.516-.529m56.568-8.497c-1.032-.101-1.149-.059-2.164.798-.59.5-1.538 1.363-2.104 1.919l-1.033 1.013c.007 2.43.106 3.183.225 3.245.119.06.29 0 .379-.135.102-.151.442-.186.92-.09.415.082 1.146.374 1.622.649.476.277 1.328 1 1.893 1.607.564.608 1.27 1.616 1.566 2.241s.539 1.404.541 1.73-.095.79-.214 1.028c-.19.383-.121.457.595.637.445.112 1.14.136 1.54.054.402-.083.827-.345.948-.582.121-.239.177-.873.123-1.407-.063-.651-.479-1.655-1.251-3.028-.634-1.13-1.503-2.432-1.933-2.89-.429-.462-1.558-1.353-2.51-1.982-.952-.63-2.023-1.39-2.38-1.688-.357-.296-.575-.6-.486-.669.09-.068.868.294 1.73.806.863.513 2.079 1.146 2.704 1.405s1.257.475 1.406.475.855-.535 1.569-1.19l1.299-1.188c-1.51-1.39-2.387-1.988-2.921-2.224-.537-.235-1.465-.475-2.064-.534m-4.905 8.387c-.439-.002-.853.093-.919.212-.065.119.052.217.26.217.21-.002.768.203 1.244.452.476.25 1.287.859 1.802 1.354.514.493 1.163 1.287 1.438 1.763.277.476.562 1.181.634 1.568.076.414.24.673.398.632.15-.04.303-.355.34-.703s-.102-1.071-.309-1.605c-.21-.537-.825-1.45-1.368-2.034-.543-.582-1.378-1.237-1.854-1.456-.476-.216-1.225-.398-1.666-.4m-47.548-8.447c-.744.002-1.229.174-2.056.732-.594.402-1.254.914-1.466 1.137-.37.39-.361.422.216.826.332.231 1.136.725 1.791 1.097.654.372 1.775.891 2.489 1.153 1.243.456 1.319.46 1.839.102.523-.366.534-.363.354.047-.104.236-.235.573-.296.75-.058.178.154.91.474 1.623.32.714 1.107 2.077 1.75 3.029.64.951 1.315 1.95 1.497 2.217.181.269.281.585.223.704-.063.125-.292.058-.547-.162-.422-.364-.44-.362-.431.053.006.238.093.58.194.757.147.257.504.013 1.74-1.19.854-.832 1.598-1.685 1.65-1.893.054-.208-.062-.987-.259-1.73-.197-.745-.582-1.84-.859-2.434-.275-.595-.991-1.69-1.59-2.434-.995-1.235-1.121-1.323-1.467-1.034-.207.177-.475.326-.595.333-.119.007-.022-.192.216-.443l.433-.454c-1.341-1.144-2.315-1.772-3.028-2.133-.881-.446-1.612-.655-2.272-.653M-78.596 10.9c-.182.288-.333.863-.333 1.278 0 .418.127 1.075.285 1.46.156.387.668 1.13 1.136 1.65s1.313 1.178 1.877 1.462c.565.283 1.442.574 1.948.648.776.115 1.019.052 1.568-.402l.65-.538c-1.593-.215-2.445-.472-2.921-.71s-1.266-.847-1.755-1.353c-.49-.504-1.04-1.211-1.224-1.568a11 11 0 0 1-.617-1.55l-.28-.898zm-50.079 1c-.141.511-.202 1.171-.135 1.468.067.298.37.93.675 1.406.302.476.863 1.086 1.244 1.353.38.268 1.105.633 1.609.81.595.21 1.16.27 1.595.163.372-.088.761-.283.865-.433.132-.186.007-.361-.404-.567-.327-.162-1.179-.777-1.893-1.365-.714-.586-1.748-1.674-2.298-2.414l-1.002-1.348zm-96.121-.899c-.341.01-.164.158.595.5.595.268 1.508.872 2.029 1.341.519.467 1.196 1.29 1.503 1.824.308.536.628 1.266.71 1.623l.15.648c.034-.92-.167-1.602-.424-2.108-.258-.504-.916-1.392-1.461-1.972-.545-.577-1.356-1.235-1.804-1.46-.445-.225-1.029-.402-1.298-.396m-51.278.284c-.447-.136-.856-.186-.911-.109-.054.076.361.353.924.62.562.263 1.402.797 1.867 1.189.465.39 1.14 1.146 1.499 1.68.359.537.783 1.317.941 1.732.264.69.279.698.164.107-.069-.357-.339-1.072-.596-1.593-.26-.522-1.059-1.496-1.775-2.164-.731-.684-1.656-1.324-2.113-1.462m147.657-3.001c-.35-.92-.456-1.077-.367-.54.07.417.407 1.34.748 2.054.342.714 1.082 1.833 1.645 2.489.56.655 1.466 1.56 2.011 2.011.548.455 1.675 1.151 2.508 1.55.833.397 1.951.78 2.488.847l.973.124c-1.845-.601-3.011-1.11-3.781-1.52-.772-.406-2.07-1.375-2.886-2.147-.815-.772-1.789-1.893-2.166-2.488-.374-.595-.902-1.666-1.173-2.38m-86.798-1.407c-.116 0-.796.561-1.509 1.245l-1.301 1.244c.599 1.676 1.248 2.941 1.828 3.893.578.952 1.179 1.878 1.333 2.056.156.177.283.445.285.595.005.149-.14.222-.317.162q-.325-.108-.325.325c0 .238.089.408.197.378.109-.031.74-.565 1.406-1.19.664-.625 1.3-1.307 1.412-1.514.13-.245.102-.874-.082-1.784-.156-.773-.551-1.942-.88-2.597-.326-.655-.874-1.555-1.215-2.001s-.717-.811-.832-.812m90.206-3.68c-.537 0-1.301.172-1.701.382-.4.207-.917.72-1.148 1.135-.325.58-.396 1.01-.308 1.84.067.63.455 1.75.933 2.689.547 1.077 1.319 2.115 2.334 3.136 1.058 1.069 2.036 1.8 3.245 2.425.949.493 2.239 1.004 2.864 1.136.783.167 1.405.174 2.002.024.517-.13 1.083-.479 1.405-.866.297-.357.607-1.014.685-1.46.091-.51.006-1.335-.224-2.217-.203-.773-.68-1.924-1.061-2.555-.383-.63-1.236-1.7-1.896-2.38-.659-.677-1.781-1.538-2.488-1.912-.709-.377-1.825-.84-2.478-1.03-.656-.192-1.63-.348-2.164-.346m48.675 5.628c-.084 0-.33.178-.547.396-.26.26-.383.668-.357 1.19a5.5 5.5 0 0 0 .325 1.497c.156.387.669 1.13 1.136 1.648.467.522 1.337 1.192 1.932 1.489.648.326 1.49.554 2.102.569.757.02 1.136-.087 1.46-.407l.44-.433c-1.761-.255-2.661-.558-3.137-.837-.476-.277-1.218-.935-1.65-1.456-.431-.524-.942-1.268-1.136-1.655s-.366-.995-.383-1.352-.1-.649-.185-.65M18.403 3.63c-.07 0-.362.315-.65.698-.285.38-.64.891-.783 1.135a2.4 2.4 0 0 0-.276.982c-.007.298.179 1.173.415 1.947.233.772.722 1.82 1.086 2.326.363.507 1.365 1.45 2.228 2.098s2.006 1.335 2.542 1.527c.761.273 1.395.319 2.92.206l1.947-.145c-.112-1.222-.034-1.819.1-2.117.195-.433.164-.734-.158-1.515l-.4-.974c-1.426 2.012-2.053 2.715-2.313 2.858-.262.145-.79.268-1.177.27-.387.005-1.045-.138-1.46-.315-.417-.178-1.259-.788-1.871-1.353-.612-.564-1.291-1.416-1.508-1.892s-.401-1.231-.403-1.677c-.004-.645.195-1.056.97-2.001.533-.655.972-1.236.973-1.298 0-.06-.463-.255-1.027-.434-.563-.18-1.082-.327-1.155-.326M15.45 6.445c-.114 0-.938.803-1.83 1.785l-1.625 1.785c.81 3.017 1.113 4.024 1.193 4.182.104.2.636-.228 1.743-1.406 1.581-1.681 1.594-1.704 1.478-2.668a27 27 0 0 0-.435-2.326c-.175-.743-.411-1.351-.524-1.352m-90 .44c-.088.004-.333.246-.54.54s-.38.876-.38 1.291c0 .418.154 1.123.342 1.569s.65 1.186 1.029 1.644c.387.472 1.25 1.108 1.983 1.465.742.361 1.646.63 2.11.627.553-.002.999-.173 1.406-.538l.594-.535c-1.425-.011-2.18-.16-2.595-.337-.418-.178-1.249-.788-1.85-1.353-.601-.564-1.283-1.44-1.515-1.946s-.421-1.26-.421-1.677c0-.415-.074-.754-.163-.75m3.57-2.39c-.874.003-1.155.12-1.893.787-.748.675-.865.904-.861 1.676.002.49.181 1.282.395 1.758s.725 1.245 1.132 1.705c.407.461 1.178 1.063 1.714 1.335.535.273 1.363.52 1.839.55.476.028 1.083-.013 1.352-.094.268-.078.584-.337.703-.575.18-.36.153-.415-.162-.322-.208.058-.736.132-1.173.162-.437.028-.877-.024-.974-.117-.098-.093.187-.164.632-.162.446.004 1.104-.14 1.46-.318.358-.177.708-.543.777-.811.072-.268.054-.877-.037-1.353-.093-.476-.473-1.304-.848-1.839-.385-.549-1.194-1.28-1.856-1.678-.889-.534-1.422-.705-2.2-.703m91.78 5.918c.415.454 1.05.98 1.406 1.166a9 9 0 0 0 1.244.523c.375.117.595.104.595-.032 0-.119-.147-.216-.324-.216-.18 0-.738-.206-1.244-.457a9 9 0 0 1-1.677-1.136l-.757-.68zM-122.745 6.1c.387-.279.501-.23 1.299.575.813.824.933.877 1.791.76.787-.106.966-.054 1.252.363.316.459.299.517-.981 1.569l.642.865c.355.476.651.963.659 1.082s-.141.363-.331.54c-.309.292-.439.216-1.276-.757-.885-1.027-.96-1.069-1.503-.811-.313.149-.718.27-.896.27s-.446-.249-.595-.552c-.247-.505-.215-.594 1.028-1.544l-.758-1.028c-.737-.998-.745-1.034-.331-1.332M21.388 5.002c-.06-.56-.072-.566-.418-.162-.195.23-.458.684-.586 1.01-.128.327-.169.864-.09 1.19.077.327.267.79.425 1.028q.285.432.076.703c-.147.19-.002.5.493 1.045.388.426 1.093.96 1.569 1.185.476.228 1.204.415 1.622.42.599.004.833-.122 1.119-.593.199-.329.564-.815.81-1.083l.45-.488c-1.434-.311-2.338-.785-2.974-1.28-.625-.484-1.33-1.224-1.568-1.64s-.53-.757-.65-.757c-.119-.001-.243-.26-.278-.578M-120.925 7.99c-.262-.253-.314-.214-.357.27a3.4 3.4 0 0 1-.267 1c-.118.236-.165.43-.108.432.058 0 .377-.1.703-.223.446-.166.641-.154.778.054q.183.275.053-.102c-.082-.241.029-.475.305-.648.24-.149.435-.345.434-.434-.001-.088-.278-.137-.62-.107-.339.03-.755-.08-.921-.242M21.67 6.5c.004-.245.167-.111.46.377.25.418.802 1.05 1.228 1.407.424.357 1.264.816 1.865 1.021.634.214.889.374.607.378-.268.004-.95-.225-1.513-.508-.565-.28-1.393-.915-1.84-1.406-.444-.488-.808-1.061-.807-1.27m-94.847-.271c.136-.247.212-.167.31.324.073.357.297.991.498 1.406.204.418.373.807.377.866.001.06-.152-.038-.342-.217-.19-.178-.5-.714-.685-1.19-.201-.518-.266-.994-.158-1.189m92.797.786c-.103.082-.17.403-.149.71s.124.706.227.883.298.25.43.162c.132-.089.236-.333.232-.541s-.13-.602-.279-.872c-.149-.272-.357-.426-.46-.342m4.409-4.032c-.247 0-.733.292-1.081.648-.572.587-.61.72-.41 1.353.124.387.338.848.477 1.027.14.18.502.602.805.94s.916.8 1.362 1.027 1.127.416 1.515.42c.398.004.865-.16 1.075-.379.205-.212.376-.7.379-1.088a3.3 3.3 0 0 0-.3-1.298c-.168-.326-.63-.906-1.026-1.287-.398-.38-1.089-.844-1.535-1.028s-1.013-.335-1.261-.335"/></g></svg>