<svg xmlns="http://www.w3.org/2000/svg" fill="none" viewBox="0 0 32 32"><mask id="a" width="32" height="32" x="0" y="0" maskUnits="userSpaceOnUse" style="mask-type:alpha"><path fill="#d9d9d9" d="M0 0h32v32H0z"/></mask><g mask="url(#a)"><path fill="#e31e24" d="M-39.945 98.369c.52-.09 2.17-.125 3.66-.075 1.492.05 3.2.21 3.798.357.596.146 1.482.484 1.97.754.487.267 1.241.792 2.46 1.842l-.008-1.04c-.004-.835.07-1.112.383-1.401.33-.309.637-.361 2.077-.361 1.381 0 1.75.06 2.014.322.271.271.317.59.276 1.988-.026.917-.13 1.748-.229 1.848a.66.66 0 0 0-.179.407c.003.148.36.241 2.083.316l.04 5.875c.033 4.442-.013 5.932-.181 6.11-.124.13-.602.231-1.08.225-.473-.003-.9.075-.949.174-.05.1.035.283.189.408.222.179.279.627.271 2.168-.007 1.906-.018 1.951-.505 2.311-.395.293-.766.367-1.807.361-1.211-.005-1.353-.047-1.854-.548-.47-.467-.53-.639-.452-1.264.049-.398.049-.724 0-.724-.053.002-.601.41-1.22.907-.621.499-1.699 1.145-2.395 1.434s-1.796.613-2.441.718c-.648.106-2.112.192-3.254.192-1.244-.002-2.553-.114-3.254-.282-.647-.154-1.705-.557-2.35-.897a13.3 13.3 0 0 1-2.17-1.492c-.547-.481-1.37-1.439-1.83-2.13-.459-.688-1.04-1.782-1.296-2.427-.253-.648-.55-1.664-.658-2.26a15 15 0 0 1-.195-2.215c0-.622.13-1.761.289-2.531.157-.77.551-1.97.875-2.666.325-.696.96-1.754 1.412-2.351.452-.596 1.137-1.336 1.518-1.643a19 19 0 0 1 1.466-1.04 13 13 0 0 1 1.673-.842c.497-.199 1.33-.436 1.853-.529m10.43 16.714c-.247-.227-.342-.139-.806.772-.317.622-1.101 1.605-1.98 2.482-.808.808-1.936 1.716-2.538 2.047q-1.083.593-.543.462c.298-.07.868-.187 1.266-.26.397-.072.58-.14.407-.153-.175-.013-.277-.104-.226-.203.049-.099.557-.179 1.13-.179.6.002 1.191-.103 1.4-.25.335-.233.306-.249-.36-.227-.398.012-.746-.058-.773-.158-.026-.099.3-.204.724-.233.49-.033.813.033.885.181.085.17.326.084.905-.329a10 10 0 0 0 1.377-1.22c.321-.362.583-.841.58-1.066-.002-.224.16-.569.358-.767.2-.199.325-.423.278-.497-.05-.074-.474-.138-.945-.142-.484-.002-.98-.115-1.139-.26m-9.257-15.987c-.522.01-1.275.094-1.672.19-.398.094-1.253.43-1.898.748-.685.338-1.704 1.081-2.441 1.781-.895.848-1.488 1.616-2.02 2.621-.416.781-.898 1.949-1.073 2.597q-.318 1.173-.312 3.073c.006 1.502.1 2.18.446 3.254.242.744.813 1.965 1.268 2.712.458.744 1.268 1.744 1.803 2.221s1.583 1.177 2.33 1.557c.923.47 1.727.734 2.53.83.645.076 1.419.083 1.717.015.54-.123.539-.125-.452-.578-.548-.25-1.43-.795-1.963-1.21-.533-.416-1.278-1.162-1.658-1.66-.38-.497-.974-1.474-1.321-2.17s-.76-1.854-.92-2.576c-.157-.721-.284-1.86-.282-2.531.001-.671.123-1.789.267-2.485s.633-2.019 1.081-2.939c.622-1.27 1.112-1.967 2.04-2.899.722-.727 1.68-1.463 2.35-1.809.618-.319 1.127-.62 1.13-.67-.002-.05-.43-.083-.95-.072m2.667.623c-.316-.056-.882.039-1.356.227-.448.179-1.297.645-1.888 1.037-.589.394-1.362 1.063-1.716 1.488-.355.425-.95 1.278-1.323 1.898-.372.619-.854 1.777-1.071 2.573-.286 1.045-.393 1.924-.382 3.164.011 1.318.122 2.054.476 3.164.255.795.779 1.935 1.164 2.531s1.224 1.575 1.862 2.173c.85.799 1.535 1.245 2.562 1.672l1.401.584c1.784-.928 2.795-1.705 3.536-2.441.899-.891 1.477-1.666 1.952-2.621.564-1.131.711-1.676.894-3.285l.217-1.931c-.853-.643-1.047-1.009-1.175-1.654-.1-.497-.18-1.393-.18-1.989s.1-1.285.225-1.529c.199-.394.164-.534-.304-1.221-.291-.427-.942-1.182-1.446-1.681-.505-.497-1.365-1.164-1.911-1.482-.548-.318-1.238-.623-1.537-.677m12.023 16.896c-2.335 0-3.082.054-3.164.119-.083.067-.137.718-.121 1.446.025 1.131.076 1.327.347 1.327.274 0 .309-.163.271-1.265-.038-1.025.006-1.266.227-1.266.218 0 .261.241.225 1.266l-.045 1.265h2.26zm-6.778 1.627c.561 0 .795.07.754.225-.033.125-.397.246-.814.272-.569.034-.753-.022-.754-.226 0-.201.212-.271.814-.271m1.319-.65c.13.009.233.098.23.197-.006.1-.416.202-.915.227-.512.025-.905-.033-.906-.136 0-.099.306-.208.678-.242a9 9 0 0 1 .913-.046m.669-.891c.1.019.18.149.18.29 0 .186-.238.256-.858.256-.47 0-.86-.081-.864-.18-.004-.1.302-.231.678-.29.375-.06.764-.093.864-.076m.11-.991c.505 0 .703.077.703.272 0 .206-.23.273-.949.278-.841.007-.921-.024-.703-.271.143-.161.543-.279.95-.279m3.211-.325c-.543-.029-1.057.005-1.145.075-.087.071-.145.198-.13.28.018.083.56.151 1.207.151.85 0 1.158-.063 1.115-.226-.037-.137-.449-.247-1.047-.28m3.277-11.245c-5.75 0-6.708.061-6.862.226-.117.124-.171.47-.119.768.05.298.226 1.112.389 1.808.211.905.27 1.752.206 2.983-.05.944-.224 2.205-.387 2.802-.162.596-.251 1.268-.197 1.492.097.403.122.406 3.535.406h3.435zm-5.345.236c.13.044.193 1.672.193 5.02 0 4.579-.023 4.957-.316 5.002-.294.043-.318-.303-.347-4.894-.016-2.715.04-4.992.124-5.066a.41.41 0 0 1 .346-.062m-2.592.928c-.09-.055-.164.371-.166.949-.002.577.09 1.416.207 1.863.148.569.319.833.573.883.337.067.352.013.216-.811a21 21 0 0 0-.407-1.834c-.143-.522-.334-.993-.423-1.05m-4.99-6.148c.198.158.42.286.497.285.074-.002.521.259.995.577.472.32 1.25.95 1.732 1.4.48.452 1.126 1.23 1.435 1.727l.622.995c.033.048.181-.095.327-.316.212-.324.436-.408 1.081-.408.447 0 .854-.081.905-.18.047-.101-.48-.751-1.176-1.447s-1.347-1.265-1.447-1.265c-.098 0-.14.081-.09.18.05.1-.093.23-.316.289-.224.06-.672.06-.994 0-.323-.059-.588-.189-.588-.289.001-.099.386-.177.859-.173.773.007.832-.02.588-.275-.187-.191-.67-.294-1.523-.323-.818-.027-1.272-.121-1.31-.268-.036-.137.137-.236.437-.255.273-.014.009-.081-.588-.148-.596-.067-1.247-.185-1.446-.259l-.361-.137zm9.48 3.538c-1.22 0-1.266.016-1.084.361.163.305.35.354 1.23.316.827-.036 1.046-.108 1.084-.361.04-.276-.118-.316-1.23-.316m-3.534-.143c.512.029.93.15.978.278.057.163-.201.226-.935.226-.558 0-1.054-.062-1.102-.136-.047-.074-.03-.2.038-.278.069-.079.528-.121 1.021-.09m5.173-3.293c-2.334 0-3.081.054-3.164.12s-.137.678-.121 1.356c.016.679.09 1.27.166 1.314.074.044.217.023.316-.046.1-.067.18-.631.18-1.253.001-.634.081-1.13.183-1.128.1.002.18.516.18 1.176v1.173h2.26zm-6.077 2.208c.511.029.931.15.978.278.058.163-.202.226-.935.226-.558 0-1.054-.062-1.103-.136-.046-.074-.03-.2.038-.278.07-.079.529-.121 1.022-.09m5.536-2.027c.101 0 .18.483.18 1.085 0 .601-.079 1.084-.18 1.085-.101-.001-.18-.484-.18-1.085 0-.602.079-1.084.18-1.085m-8.09-51.887c.174 0 .724.203 2.124.904v10.486l.542.271c.298.148.695.577.881.95.3.6.608.805 2.667 1.792 1.282.615 2.715 1.287 4.046 1.869v2.712l-.769.622c-.423.341-2.03 1.665-3.57 2.939a4911 4911 0 0 0-7.097 5.888c-2.359 1.96-4.432 3.567-4.609 3.573-.174.003-2.068-.987-4.204-2.2l-6.327-3.591.02-12.798 3.74-3.162a2118 2118 0 0 1 7.99-6.71c2.336-1.949 4.392-3.544 4.566-3.545m9.49 17.361c-.028.007-.657.52-1.402 1.145-.745.626-3.104 2.584-5.242 4.351-2.137 1.769-4.882 4.04-6.097 5.048-2.037 1.69-2.21 1.884-2.224 2.466-.01.586.011.613.304.361.175-.15 2.516-2.103 5.205-4.34 2.69-2.238 5.931-4.923 7.203-5.966 2.111-1.73 2.312-1.948 2.305-2.484-.003-.322-.027-.584-.053-.58M-43.88 74.73c-.1-.018-.405.063-.678.18-.484.208-.428.252 2.35 1.84 1.565.895 2.949 1.647 3.074 1.673.143.029.224-.168.222-.542-.004-.57-.082-.63-2.396-1.853-1.315-.696-2.472-1.28-2.572-1.298m15.096-12.89c-.05.01-.342.275-.647.592a21 21 0 0 1-1.069 1.03c-.282.249-.804.679-1.16.957-.358.277-.893.709-1.192.958-.298.25-1.518 1.264-2.712 2.256-1.193.993-2.534 2.121-2.983 2.508-.446.389-1.22 1.042-1.717 1.452a87 87 0 0 0-1.56 1.325c-.362.319-.85.705-1.085.863-.427.283-.419.291 1.199 1.157.895.479 1.952 1.06 2.35 1.294l.723.423c4.064-3.397 6.496-5.41 8.028-6.664 1.53-1.255 3.747-3.074 4.925-4.044l2.143-1.763c-1.752-.806-2.91-1.336-3.706-1.7s-1.487-.652-1.537-.645m97.629-14.182a6.2 6.2 0 0 1 2.125-.194c.621.049 1.332.17 1.582.27.247.1.512.306.587.458.099.2-.395.804-1.812 2.214-1.81 1.803-1.938 1.976-1.826 2.48.065.298.187.705.267.904s.292.547.47.773c.191.238.736.518 2.314.937l1.897-1.909c1.327-1.332 2.004-1.889 2.248-1.848.25.042.422.321.597.962.144.534.215 1.424.17 2.17a6.5 6.5 0 0 1-.596 2.42 6.2 6.2 0 0 1-1.47 2.034c-.522.484-1.335 1.058-1.807 1.277-.67.313-1.273.412-4.656.522l-2.35 2.648a3719 3719 0 0 1-3.893 4.375c-.848.953-2.682 3.071-4.08 4.713-1.994 2.343-2.7 3.052-3.294 3.3-.415.173-.937.316-1.162.314-.224 0-.712-.081-1.085-.18-.372-.098-.936-.405-1.25-.677-.317-.273-.722-.823-.901-1.22-.179-.398-.325-1.09-.325-1.537 0-.449.14-1.114.312-1.48.171-.369 2.434-2.972 5.026-5.786 2.592-2.815 5.44-5.92 6.328-6.9.887-.977 1.678-1.953 1.758-2.168.082-.214.066-.837-.036-1.383a6.8 6.8 0 0 1-.032-1.99c.082-.545.306-1.359.497-1.807.19-.448.709-1.206 1.152-1.687.442-.48 1.13-1.065 1.528-1.298s1.17-.552 1.717-.707m104.046.57c.199-.051.605-.052.903 0 .298.05.787.213 1.085.361s.814.526 1.146.837c.331.313.773.893.977 1.291.206.398.38 1.065.39 1.483.014.636-.087.871-.631 1.446-.638.674-.647.7-.421 1.41.126.398.237 1.007.246 1.355.014.498-.12.77-.622 1.266-.351.347-.636.796-.631.995.003.221-.581.94-2.985 3.308l-1.536.146c-1.448.138-1.572.184-2.124.787-.321.352-.585.72-.585.82s-.658.832-1.46 1.628c-.803.795-2.859 2.936-4.568 4.757-3.059 3.26-3.116 3.31-3.789 3.253-.649-.052-.751.019-3.516 3.018l-.973-.013c-.537-.007-1.238-.148-1.562-.316-.323-.166-.935-.648-1.36-1.071s-.963-1.176-1.196-1.673c-.318-.68-.406-1.138-.357-1.848.064-.914.113-.99 1.646-2.531 1.336-1.341 1.582-1.678 1.582-2.175.002-.519.489-1.096 4.196-4.972 2.307-2.411 4.747-4.913 6.652-6.734l.002-2.35 1.671-1.672c1.228-1.23 1.79-1.671 2.124-1.67.248.002.777-.238 1.175-.536s.845-.546.995-.551c.149-.005.659.195 1.989.903l.587-.429c.324-.236.751-.471.95-.522m-57.323.5.216.813c.118.448.256 1.016.311 1.266.079.376.286.507 2.378 1.098l.873-.82c.479-.451.967-.816 1.085-.814.117.005.924.534 1.793 1.175.868.643 1.58 1.23 1.582 1.305-.001.076-.215.627-.952 2.305l1.223 1.935 1.311-.109c1.133-.094 1.332-.065 1.473.208.089.175.363 1.05.611 1.944.435 1.58.439 1.645.132 2.26-.232.464-.561.74-1.242 1.038-.894.393-.929.433-.929 1.13 0 .687.052.756 1.083 1.402.648.406 1.084.804 1.085.994.001.173-.19.824-.425 1.446a29 29 0 0 1-.994 2.26c-.375.746-.677 1.129-.885 1.127-.174-.002-.805-.127-1.402-.277-.97-.245-1.126-.244-1.491.003-.224.152-.408.379-.408.503-.002.125.123.592.274 1.04.235.69.243.924.042 1.536-.222.682-.349.778-4.202 2.65l-.417-.42a9 9 0 0 1-.813-1.007c-.378-.56-.451-.588-2.747-.597l-.542 1.09c-.298.6-.623 1.12-.723 1.162-.099.038-1.076-.216-2.17-.565-1.093-.35-2.097-.729-2.229-.84-.164-.144-.204-.433-.124-.93.061-.397.151-.928.198-1.175.072-.378-.069-.566-1.822-1.864l-1.266.403c-.696.222-1.366.356-1.491.3-.125-.058-.715-.857-1.313-1.777-.596-.92-1.084-1.792-1.083-1.943.002-.15.125-.597.275-.994.164-.432.492-.85.813-1.04.499-.293.532-.373.427-1.085-.06-.423-.13-.81-.155-.859-.027-.05-.558-.295-1.179-.543s-1.177-.532-1.234-.632-.086-.547-.064-.995.139-1.538.262-2.424c.173-1.261.3-1.66.584-1.838.201-.127.883-.224 1.537-.217 1.079.009 1.187-.024 1.33-.422.121-.338.034-.628-.399-1.336-.486-.791-.541-1.003-.427-1.706.116-.72.277-.928 1.575-2.04.795-.68 1.546-1.233 1.672-1.23s.673.33 1.221.728c.751.546 1.115.7 1.491.638.273-.047.584-.19.69-.317.109-.127.301-.596.427-1.045.127-.448.344-1.08.481-1.406l.251-.593zm-95.477.157c.341-.15.866-.211 1.297-.153.397.054 1.17.32 1.718.59.587.29 1.547 1.045 2.35 1.847.744.745 1.537 1.72 1.76 2.17.222.447.457 1.096.524 1.445.07.373.03.858-.102 1.176-.123.299-.583.848-1.022 1.22-.573.486-.965.676-1.387.673-.323-.004-1.036-.165-1.582-.357-.547-.191-1.055-.352-1.13-.356-.075-.002-1.989 2.173-4.253 4.831a3586 3586 0 0 0-9.767 11.525L6.13 74.806c-1.302.72-2.447 1.268-2.549 1.22-.1-.048-.181-.21-.182-.36 0-.152.46-1.433 2.041-5.424l2.378-2.803c1.31-1.54 4.05-4.795 6.091-7.232 2.043-2.437 4.073-4.877 5.31-6.418l-.349-.722a5.2 5.2 0 0 1-.42-1.537c-.062-.689.016-.935.498-1.604.315-.436.83-.904 1.144-1.042m131.263 20.712c-1.234 1.249-1.397 1.488-1.365 2.024.02.335.184.934.363 1.331.179.398.623 1.03.99 1.402.365.374.889.789 1.162.927.273.137.783.307 1.13.378.605.123.68.075 1.781-1.109l1.149-1.236c-1.08-.31-1.637-.522-1.935-.674s-.848-.611-1.221-1.021c-.372-.409-.675-.847-.674-.972.003-.124.21-.429.461-.678l.459-.452-.896-1.338zM70.562 48.281c-.832.009-1.608.146-2.26.399-.63.244-1.336.723-1.92 1.302-.65.642-1.046 1.239-1.33 2-.355.954-.39 1.29-.286 2.801.068.986.043 1.912-.056 2.17-.096.25-.894 1.228-1.772 2.177-.88.948-3.224 3.509-5.212 5.693a552 552 0 0 1-4.904 5.326c-1.068 1.126-1.312 1.497-1.425 2.172-.114.672-.063.967.293 1.695.238.484.675 1.03.973 1.215.311.19.89.335 1.357.339.473.001 1.015-.13 1.3-.312.267-.174 1.853-1.895 3.525-3.822 1.67-1.929 3.404-3.933 3.852-4.454.447-.523 1.891-2.179 3.21-3.68 1.317-1.503 2.578-2.788 2.802-2.856.225-.067 1.18-.132 2.124-.145 1.468-.018 1.847-.089 2.621-.488.497-.259 1.277-.864 1.73-1.347.52-.551.957-1.251 1.172-1.875.214-.61.347-1.493.35-2.288 0-.712-.06-1.363-.139-1.446-.078-.082-.933.642-1.898 1.61-1.312 1.314-1.871 1.76-2.209 1.75-.25-.005-.868-.146-1.374-.314-.587-.194-1.123-.536-1.472-.939-.3-.347-.638-.958-.748-1.355-.11-.398-.201-.906-.203-1.13 0-.27.577-.999 1.716-2.17.945-.969 1.656-1.826 1.582-1.903-.075-.076-.704-.134-1.4-.125m38.929 25.663c-.065.002-.168.125-.225.275-.058.148-.046.305.03.347.074.041.827.29 1.673.554 1.227.384 1.562.431 1.669.242.072-.132.135-.28.138-.33s-.706-.317-1.578-.591c-.873-.275-1.64-.497-1.707-.497M212.123 49.56c.696-.013 1.956.096 2.802.244.844.146 2.106.465 2.803.705.696.242 2.16.84 3.253 1.332 1.094.49 2.212.948 2.487 1.013.273.067.826.426 1.231.799.403.372.869 1.043 1.039 1.492.217.576.302 1.338.293 2.62-.011 1.295-.128 2.22-.421 3.255-.224.795-.787 2.178-1.25 3.073-.578 1.12-1.21 2.002-2.02 2.828-.949.967-1.371 1.26-2.172 1.502-.754.228-1.148.259-1.627.123-.349-.097-1.326-.484-2.17-.862-1.231-.55-1.753-.686-2.621-.684-.75.002-1.307.12-1.808.384-.397.21-.898.572-1.11.805s-.651.952-.975 1.6c-.321.645-.804 1.5-1.072 1.898-.265.397-.579.967-.695 1.266-.116.298-.436.76-.711 1.03a4.5 4.5 0 0 1-1.177.768 4.6 4.6 0 0 1-1.446.279c-.423-.002-1.176-.113-1.673-.245s-1.434-.502-2.079-.824a15.5 15.5 0 0 1-2.151-1.338 14 14 0 0 1-1.741-1.66 17 17 0 0 1-1.314-1.807 10 10 0 0 1-.858-1.989c-.206-.726-.269-1.352-.189-1.898.067-.465.475-1.434.952-2.26.461-.795 1.034-1.977 1.278-2.622.243-.647.648-1.582.901-2.08.253-.496.804-1.39 1.225-1.987.424-.597 1.377-1.655 2.12-2.35.744-.697 1.994-1.645 2.779-2.107a21 21 0 0 1 3.01-1.4c.869-.31 2.09-.634 2.712-.72.62-.087 1.699-.169 2.395-.183m-91.03 24.226c-.151.001-.756.212-1.347.466-.592.255-1.059.533-1.04.62.02.087.096.153.172.15.074-.006.663-.285 1.31-.623.646-.34 1.053-.615.905-.614m-4.167-1.432c-.045.018-.534.063-1.085.1-.622.041-1.119.182-1.313.374-.171.167-.311.365-.309.44s.594.132 1.314.129l1.312-.007c.839 1.141 1.143 1.47 1.219 1.468.075-.006.176-.13.227-.279.048-.15-.219-.72-.597-1.265-.377-.547-.724-.98-.768-.96M-30.997 59.67c-.224.004-.54.09-.7.196-.161.104-.383.387-.497.627-.116.248-.36.438-.566.438-.199 0-.358.101-.354.226.003.124.146.33.316.456.25.184.215.184-.178 0-.413-.196-.555-.184-.949.086-.255.173-.462.398-.463.498 0 .099.082.22.181.27.1.049.181.172.182.272 0 .103-.215.133-.498.07-.374-.083-.633.004-1.04.348l-.541.459c.768.3 1.032.47 1.084.569.048.1-.188.038-.528-.136-.596-.304-.64-.303-1.13.031-.289.197-.414.374-.286.407.125.032.227.12.227.195 0 .074-.237.136-.529.136-.318 0-.712.179-.992.452l-.465.452c1.117.91 1.442 1.256 1.443 1.356 0 .099-.264-.02-.587-.266-.324-.246-.832-.452-1.13-.46-.304-.005-.778.173-1.078.402l-.533.414c.662.14.903.298.961.44.087.214-.025.238-.616.132-.526-.096-.835-.056-1.13.146-.365.248-.38.31-.141.593.148.173.27.378.271.452.003.074-.239.053-.537-.046-.432-.144-.633-.115-.989.136-.246.173-.447.378-.451.452s.177.306.401.512c.37.343.374.365.045.248a9 9 0 0 0-.724-.216c-.199-.049-.544.002-.768.114-.224.11-.447.384-.498.608-.05.213-.236.41-.48.515l-.216.078c-.264.106-.601.316-.8.504a1.33 1.33 0 0 0-.407.982c.004.323.088.75.187.949.1.199.425.443.723.542q.542.18.994 0c.248-.1.676-.466.949-.814s.618-.63.769-.627c.148.004.412-.139.582-.316.171-.177.314-.423.316-.548.004-.125.29-.349.639-.497.347-.15.722-.454.83-.678.11-.225.15-.611.088-.859l-.114-.452.708.904c.728-.7.975-1.026 1.019-1.175.042-.15.323-.333.625-.407.33-.081.676-.35.866-.676.174-.298.46-.543.633-.543.174-.001.504-.226.733-.499.23-.272.577-.584.769-.692s.493-.452.667-.769c.173-.314.356-.49.407-.391q.09.18.452 0c.2-.1.443-.385.542-.633.109-.271.326-.452.543-.452.2 0 .524-.205.723-.452.199-.25.401-.452.452-.452s.254-.205.452-.453c.199-.248.462-.449.587-.446s.367-.14.537-.316c.172-.178.315-.586.317-.91q.003-.586-.447-1.038c-.249-.25-.634-.451-.858-.448M54.26 71.05c.555-.003.853.105 1.136.406.21.228.428.617.486.865.058.249-.013.715-.155 1.039-.143.323-.424.669-.623.768-.198.1-.606.18-.904.18q-.542 0-1.084-.541c-.334-.334-.55-.745-.564-1.07-.013-.338.155-.731.468-1.085.395-.452.63-.557 1.24-.563M19.667 54.633c-.083-.034-.217.07-.3.23a.42.42 0 0 0 .078.514c.127.12.228.32.226.446 0 .124-.125.225-.273.225-.15 0-.333-.124-.407-.278-.103-.21-.512.174-1.684 1.582-.854 1.023-2.678 3.202-4.056 4.844-1.378 1.64-3.562 4.243-4.85 5.785-2.332 2.783-2.345 2.806-2.137 3.39.151.43.153.623.007.722-.112.074-.27.013-.353-.135-.083-.15-.18-.231-.219-.181-.036.048-.285.599-.55 1.22-.268.622-.487 1.19-.489 1.266-.001.074.262-.118.587-.427.325-.307.735-.612.908-.678.174-.063.315-.217.313-.341s.099-.322.225-.438c.176-.162.377-.146.863.067l.632.277c.841-1.061 2.26-2.76 3.695-4.459s3.794-4.464 5.242-6.148a805 805 0 0 0 3.674-4.294l1.04-1.232c-1.567-1.471-2.09-1.924-2.172-1.957m179.181 8.51c-1.089-.038-1.51.027-2.049.316-.372.2-.788.586-.924.859a5.7 5.7 0 0 0-.357.949c-.064.25.01.94.164 1.536.151.596.489 1.452.75 1.898.26.449 1.009 1.37 1.664 2.047.654.676 1.678 1.548 2.274 1.937.597.387 1.573.878 2.169 1.092.597.213 1.533.394 2.079.401.682.01 1.179-.096 1.578-.335.322-.193.762-.675.979-1.073.323-.595.372-.897.278-1.718-.067-.568-.394-1.573-.766-2.35-.481-.998-.995-1.692-1.95-2.63-.961-.948-1.71-1.483-2.907-2.08-1.424-.708-1.775-.81-2.982-.85M111.691 51.89c-1.05.434-1.732.7-2.189.868l-.833.307c-1.369-1.178-1.851-1.524-1.954-1.53-.102-.003-.691.4-1.311.897l-1.125.904 1.487 2.26-1.331 2.531-2.777.18c-.356 2.364-.356 2.749-.205 2.85.112.076.733.3 1.38.5l1.175.36c.462 1.89.647 2.58.705 2.755.074.215-.081.486-.479.842-.323.289-.776.676-1.005.859l-.417.332 1.85 2.712 2.42-1.032 2.982 2.208c-.196 1.33-.256 1.91-.261 2.147-.009.382.15.475 1.437.859.795.236 1.547.43 1.672.43s.401-.47.616-1.04c.214-.572.438-1.092.497-1.155s.82-.164 1.689-.226l1.582-.112c1.19 1.69 1.637 2.18 1.763 2.177.124-.004.754-.252 1.401-.55.645-.298 1.177-.604 1.177-.678.001-.076-.163-.624-.364-1.22l-.368-1.084 2.267-2.3c1.958.575 2.54.726 2.557.709.013-.023.276-.628.586-1.348.53-1.233.545-1.324.247-1.558a16 16 0 0 0-1.084-.723l-.769-.476.09-2.967c1.675-.695 2.189-.902 2.223-.909.029-.005-.113-.681-.316-1.502l-.37-1.492h-2.712l-1.669-2.44c.618-1.401.832-1.93.873-2.08.047-.17-.34-.573-1.043-1.084-.614-.447-1.204-.841-1.312-.875s-.577.33-1.045.813l-.854.875c-1.621-.609-2.316-.834-2.589-.89-.442-.092-.518-.22-.688-1.143-.105-.571-.228-1.14-.272-1.266-.056-.157-.568-.226-1.706-.226h-1.628zM7.039 73.043c-.184 0-.455.142-.603.317-.15.173-.324.418-.39.543-.064.122.207.041.604-.181.396-.224.722-.469.724-.543 0-.076-.15-.136-.335-.136m-55.346-5.473-.012 5.745c.817.403.826.385.96-.97.076-.76.139-3.312.144-5.669l.006-4.29-1.085-.56zM54.32 71.779c-.235 0-.566.14-.736.316a.76.76 0 0 0-.206.723c.056.222.264.488.463.588s.525.14.723.09c.2-.05.443-.253.542-.452.132-.264.108-.486-.09-.813-.166-.279-.435-.452-.696-.452m108.369-9.036c-.242.09-.418.25-.393.357.027.107-1.139 1.45-2.589 2.988-2.601 2.759-2.636 2.807-2.591 3.56.044.729.084.78.86 1.063.448.166.813.413.813.548s-.163.27-.362.297c-.199.029-.727-.135-1.175-.362-.665-.337-.83-.52-.904-1.007l-.09-.597-1.989 1.97c.84.51 1.41.719 1.808.79.398.075 1.15.139 1.672.143l.949.006a344 344 0 0 1 5.283-5.513l2.311-2.35c-1.471-.614-2.163-1.082-2.486-1.434-.324-.355-.608-.64-.633-.633-.026.005-.243.085-.484.173m37.008 2.166c.534.002 1.212.172 1.805.453.522.247 1.404.877 1.963 1.4.557.522 1.204 1.274 1.437 1.672.232.398.48 1.049.55 1.446.083.477.041.925-.127 1.32-.161.38-.484.702-.886.882a2.8 2.8 0 0 1-1.355.206c-.398-.043-1.211-.316-1.808-.607-.596-.291-1.45-.899-1.898-1.349s-1.016-1.224-1.264-1.72c-.293-.585-.452-1.207-.452-1.775-.002-.759.076-.944.589-1.401.477-.427.754-.528 1.446-.527m-92.841 4.521c-.076 0-.542.188-1.039.417s-.965.553-1.04.722-.075.306 0 .308.543-.167 1.04-.379l.904-.382c1.4 1.038 1.949 1.413 2.125 1.502.24.122.336.075.406-.202.07-.285-.161-.535-1.085-1.174-.647-.449-1.236-.814-1.311-.812m91.519-3.315c-.078.065-.127.37-.109.675.018.308.212.924.428 1.372.219.447.767 1.186 1.219 1.642s1.146.996 1.544 1.202 1.008.432 1.356.503.857.08 1.13.018.497-.192.497-.291c0-.1-.102-.138-.226-.083-.126.053-.673-.069-1.22-.273a9.2 9.2 0 0 1-1.853-1.004c-.472-.347-1.059-.895-1.307-1.217-.246-.323-.644-1.055-.883-1.625-.24-.57-.498-.984-.576-.92m13.566-15.828c-.397.011-1.211.092-1.807.18-.597.086-1.533.29-2.079.446-.548.16-1.606.571-2.351.916-.746.346-1.844.979-2.44 1.406-.597.425-1.615 1.344-2.26 2.044-.647.697-1.44 1.706-1.762 2.24s-.873 1.663-1.225 2.508-.745 1.74-.871 1.988l-.23.452c2.332-.12 3.022-.046 3.726.178.546.173 1.522.607 2.17.963.648.358 1.742 1.217 2.447 1.924.699.7 1.551 1.762 1.891 2.359.34.596.751 1.573.912 2.17l.293 1.084c1.328-2.672 1.84-3.418 2.321-3.823.398-.337 1.089-.734 1.537-.882.446-.148 1.138-.266 1.536-.263.398.005 1.17.163 1.718.35.543.188 1.009.327 1.039.312.025-.018-.068-.317-.209-.666-.141-.347-.313-1.12-.382-1.717-.072-.623-.031-1.7.094-2.53.121-.796.423-2.017.673-2.713a21 21 0 0 1 1.019-2.343c.313-.592.982-1.527 1.487-2.079.504-.551 1.278-1.18 1.717-1.401l.799-.401c-1.961-.868-3.224-1.366-4.068-1.662-.846-.299-2.311-.66-3.254-.801-.946-.143-2.043-.25-2.441-.239m-48.541 6.342c-.119-.41-.125-.407-.73.19-.457.45-.602.738-.571 1.137.023.293.204.899.405 1.347.199.446.358.934.354 1.085-.005.148-.231.498-.502.773-.272.276-.637.498-.81.497s-.413.179-.528.403c-.117.225-1.235 1.489-2.486 2.81-1.764 1.862-2.365 2.389-2.677 2.35-.346-.046-.406.032-.408.534-.003.438-.234.867-.907 1.673-.497.596-.904 1.166-.904 1.266 0 .099.062.183.136.187s1.824-1.705 3.887-3.797 3.873-4.047 4.023-4.345c.2-.402.471-.595 1.039-.745.423-.113.89-.29 1.04-.393.2-.137.412-.09.813.188.298.208.907.544 1.356.748.446.206.956.376 1.13.378s.54-.185.813-.417l.498-.421a11.8 11.8 0 0 1-2.367-1.906c-.604-.625-1.41-1.587-1.791-2.133-.381-.547-.747-1.181-.813-1.409m-194.848-6.891c-.075.007-1.235.946-2.576 2.085a2362 2362 0 0 1-7.448 6.267l-5.005 4.196c-.019 7.042.043 8.588.159 8.588.1 0 .567-.33 1.039-.73.472-.401 1.712-1.441 2.757-2.31 1.043-.87 2.182-1.78 2.53-2.02.348-.242.844-.645 1.1-.899.257-.253 1.092-.947 1.855-1.544.765-.596 1.755-1.43 2.2-1.853.447-.423 1.037-.878 1.31-1.016.273-.135.624-.44.782-.678.157-.236.546-.552.866-.702l.58-.27c-.01-7.067-.075-9.118-.15-9.114M199.505 65.45c-.062 0-.155.081-.209.18-.054.1-.022.486.072.86.094.372.461 1.062.814 1.536.352.472.987 1.092 1.41 1.38.423.285 1.093.652 1.491.817.398.163.948.295 1.221.293.272-.002.477-.096.452-.208s-.413-.298-.86-.412c-.446-.116-1.18-.46-1.626-.766-.447-.304-1.051-.83-1.34-1.167s-.703-1.044-.92-1.564c-.217-.523-.444-.95-.505-.95m-97.124 2.168c-.049 0-.088.06-.085.134.004.076.268.614.588 1.196.32.583.726 1.193.903 1.356.275.253.322.256.318.024-.004-.15-.372-.82-.82-1.49-.446-.671-.854-1.22-.904-1.22m21.149 1.15c-.099-.037-.284.095-.407.294-.209.343-.159.377.864.59.599.124 1.13.185 1.181.136.051-.05.089-.178.085-.289-.004-.108-.353-.3-.773-.428a22 22 0 0 1-.95-.302m77.304-2.964c-.242-.128-.354-.128-.361 0-.006.103.132.484.305.848.174.361.684.99 1.13 1.392.447.401 1.159.879 1.582 1.058.422.178.809.303.861.28.05-.025.031-.2-.045-.386-.076-.187-.382-.437-.68-.554s-.899-.536-1.335-.926-.862-.895-.949-1.117c-.087-.224-.315-.492-.508-.595m-41.238-5.903a230 230 0 0 1-4.001 4.238c-1.833 1.89-2.321 2.5-2.322 2.893.001.272.163.761.362 1.085s.424.59.498.594.226-.096.336-.226c.11-.129.191-.49.18-.803a1.4 1.4 0 0 1 .342-.954c.199-.211.524-.386.723-.387.226 0 1.136-.814 2.441-2.186 1.143-1.204 2.222-2.42 2.396-2.707.173-.285.459-.517.633-.513.173.003.459-.16.632-.361.257-.299.277-.444.109-.774a10 10 0 0 1-.431-1.074l-.221-.667zm63.463-6.255a2.5 2.5 0 0 0-.94.045 5.5 5.5 0 0 0-.995.412c-.279.154-.911.714-1.404 1.247-.557.602-1.188 1.588-1.663 2.597-.421.894-.889 2.154-1.043 2.801-.152.646-.279 1.866-.283 2.712-.001.873.11 1.888.26 2.35.147.447.514 1.078.816 1.402.455.487.684.588 1.32.584a3.2 3.2 0 0 0 1.491-.427c.398-.233 1.11-.862 1.582-1.397.472-.537 1.117-1.463 1.432-2.06.314-.596.761-1.653.994-2.35.231-.695.511-1.876.619-2.621.143-.987.141-1.65-.008-2.44-.11-.597-.341-1.32-.511-1.61a3.3 3.3 0 0 0-.763-.84c-.25-.174-.657-.356-.904-.405m-108.88 2.417c.124-.007.653.078 1.176.188a9.3 9.3 0 0 1 1.807.633c.472.237 1.19.775 1.595 1.198s.891 1.094 1.083 1.492.422 1.171.513 1.717c.101.602.101 1.335.002 1.854a8 8 0 0 1-.593 1.717c-.235.472-.745 1.138-1.13 1.48a7.5 7.5 0 0 1-1.515.991c-.618.282-1.185.373-2.35.374-1.287.002-1.698-.074-2.532-.473-.546-.26-1.348-.788-1.782-1.175-.443-.392-1.02-1.175-1.316-1.784-.291-.597-.577-1.533-.637-2.08a5.3 5.3 0 0 1 .172-1.989c.154-.546.555-1.359.893-1.807s1.009-1.058 1.496-1.357a7.2 7.2 0 0 1 1.886-.754 18 18 0 0 1 1.232-.225m-.045 2.768c-.506-.038-1.263.05-1.718.2a7 7 0 0 0-1.513.767c-.385.275-.892.825-1.126 1.223-.234.397-.426.966-.426 1.264s.168.909.374 1.357a8.3 8.3 0 0 0 .943 1.51c.347.423 1.038.921 1.748 1.261.947.454 1.404.563 2.351.56.858 0 1.437-.122 2.151-.445.537-.246 1.249-.751 1.582-1.123.457-.514.606-.845.607-1.357.002-.374-.116-1.084-.258-1.58-.161-.563-.562-1.249-1.056-1.81-.515-.585-1.143-1.055-1.775-1.331-.539-.236-1.387-.458-1.884-.496m107.977-2.783c.412 0 .749.162 1.13.543.394.394.557.745.595 1.281.029.407.02 1.2-.02 1.763-.039.562-.269 1.553-.511 2.198-.243.646-.722 1.563-1.066 2.034-.343.472-.889 1.022-1.213 1.221-.323.197-.851.36-1.174.362-.364 0-.751-.156-1.013-.408-.235-.224-.519-.732-.633-1.13a6.3 6.3 0 0 1-.204-1.446c.002-.398.123-1.23.269-1.852.149-.622.432-1.456.631-1.854a7.8 7.8 0 0 1 .95-1.387c.323-.363.831-.811 1.129-.992.299-.182.807-.33 1.13-.333m.165.726c-.084-.002-.084.181 0 .405.083.223.143 1.017.132 1.763-.014 1.052-.136 1.635-.543 2.617-.309.748-.871 1.649-1.381 2.215-.786.872-.824.953-.437.953.24 0 .69-.268 1.039-.618.34-.34.837-1.053 1.106-1.582.268-.53.615-1.453.769-2.05s.282-1.39.282-1.762c-.002-.374-.089-.902-.197-1.175-.107-.274-.289-.556-.406-.63a.9.9 0 0 0-.364-.136m-.842.178c-.1 0-.193.06-.204.136-.012.075-.003.543.019 1.04.024.497-.096 1.392-.268 1.989-.17.596-.472 1.41-.67 1.807a6.4 6.4 0 0 1-.931 1.31c-.383.396-.508.65-.387.777.123.126.438-.091.986-.68.442-.475 1.006-1.313 1.251-1.859.284-.633.478-1.457.533-2.26.047-.696.032-1.49-.034-1.763-.063-.274-.196-.496-.295-.497m-57.154 5.422c-.11 0-.166.103-.123.226.044.125.481.449.971.72s1.156.495 1.479.497.587-.056.587-.132c0-.074-.244-.155-.542-.18s-.868-.21-1.265-.408c-.398-.199-.763-.442-.814-.542a.36.36 0 0 0-.293-.18m-62.025-.154c-1.008-.302-1.12-.305-1.093-.045.018.172.474.474 1.121.741.6.25 1.153.393 1.228.319.074-.073.074-.258 0-.407-.076-.15-.641-.424-1.256-.608m118.238-4.363c-.07 0-.161.06-.202.136-.043.075-.136.542-.206 1.039a8.2 8.2 0 0 1-.521 1.784c-.215.486-.495.974-.624 1.085-.13.112-.227.407-.22.656l.014.452a8.4 8.4 0 0 0 1.22-1.898c.25-.548.503-1.502.561-2.124.058-.62.047-1.13-.022-1.13m-106.359-.896c-.597.01-1.41.138-1.808.286-.397.15-.96.449-1.251.665-.289.217-.743.722-1.009 1.12l-.481.723c1.422-.929 2.244-1.316 2.741-1.46s1.291-.261 1.763-.26c.472 0 1.285.16 1.807.351.53.195 1.377.736 1.916 1.22.531.48 1.182 1.3 1.446 1.823.262.522.493.927.512.904.016-.025-.046-.434-.136-.906-.092-.474-.319-1.165-.505-1.537-.187-.374-.776-1.068-1.311-1.545-.535-.475-1.337-.985-1.786-1.132-.446-.146-1.302-.259-1.898-.252M-31.493 60.76c.15 0 .415.141.593.313.177.17.317.473.3 1.034l-.199-.361a2.8 2.8 0 0 0-.582-.675c-.28-.228-.309-.31-.112-.31m-.732-12.24c-.511-.194-.606-.16-1.313.467-.418.37-3.04 2.58-5.826 4.908a3478 3478 0 0 1-6.815 5.68c-.958.795-1.751 1.487-1.764 1.538-.008.05.23.192.532.316.544.224.575.204 3.031-1.898 1.367-1.168 4.762-4.024 7.548-6.343 2.786-2.322 5.088-4.274 5.113-4.339.024-.067-.203-.215-.506-.33m197.472 3.406-1.09 1.14-.164 3.256c1.43 2.071 2.354 3.149 2.976 3.731.621.583 1.23 1.06 1.355 1.062.125.001.633-.406 1.13-.907.497-.498 1.047-.907 1.221-.905.173.002.318.063.32.137s-.425.524-.949 1c-.524.475-.885.921-.805.994s.773.031 1.537-.09c1.278-.204 1.463-.291 2.318-1.085.511-.475.938-.926.949-1 .008-.074-.694-.131-1.563-.128l-1.582.007a65 65 0 0 0-2.423-3.321c-1.03-1.33-1.452-1.746-1.689-1.672-.173.054-.358.016-.407-.083-.051-.1-.014-.324.076-.497.098-.183.107-.834.023-1.548l-.142-1.231zm3.177-2.32-.848.568c-.02 3.03.022 3.222.478 3.844a68 68 0 0 0 1.491 1.918c.631.784 1.291 1.387 1.808 1.647.446.228 1.26.515 1.808.64l.994.228c1.676-1.713 1.722-1.811 1.619-2.49-.059-.398-.142-.786-.185-.86s-.527.314-1.072.86c-.548.547-1.137.993-1.311.993s-.805-.23-1.401-.51c-.638-.3-1.329-.802-1.678-1.22a8.8 8.8 0 0 1-.945-1.434c-.196-.397-.358-1.048-.362-1.446-.007-.656.087-.808 1.035-1.65l1.045-.93c-1.183-.589-1.551-.754-1.581-.745-.025.01-.427.275-.895.588m-148.43 7.092c.188-.217.304-.228.589-.053.197.117.356.319.355.443 0 .125-.103.26-.228.298-.125.04-.39-.04-.588-.173-.3-.206-.321-.291-.128-.515m-.77-5.078c.06.398.32 1.09.577 1.538.256.446.671 1.057.92 1.355.25.298.826.85 1.282 1.225a7.7 7.7 0 0 0 1.824 1.05c.546.202 1.158.344 1.357.313.23-.036-.028-.2-.724-.461-.597-.222-1.533-.76-2.08-1.195a13 13 0 0 1-1.756-1.765c-.421-.537-.931-1.38-1.138-1.878l-.372-.904zm152.536-1.716c-.082 0-.621.468-1.199 1.039-1.02 1.008-1.047 1.061-.922 1.762.07.398.311 1.01.535 1.357.224.349.563.76.749.918.186.157.726.503 1.198.768.472.266.941.483 1.04.483a.18.18 0 0 0 .181-.18c-.001-.1-.183-.22-.407-.264-.331-.07-.363-.129-.175-.317.188-.19.303-.188.632.007.37.224.467.175 1.262-.633.474-.479.861-.935.859-1.009s-.185-.137-.408-.138c-.225-.002-.753-.207-1.176-.453-.423-.245-1.016-.793-1.32-1.216-.301-.423-.584-1.074-.628-1.447-.041-.372-.142-.677-.221-.677m-150.75-.364c-.406.002-.805.056-.889.122s-.135.453-.117.86c.018.405.208 1.104.423 1.55.215.449.925 1.346 1.58 1.995.652.649 1.594 1.375 2.092 1.614.497.239 1.229.468 1.627.514.536.057.791-.004.994-.24.148-.176.253-.572.23-.881-.024-.308-.223-.926-.441-1.374-.22-.447-.934-1.347-1.586-2-.664-.663-1.624-1.4-2.18-1.673-.594-.291-1.293-.488-1.732-.487m83.081 4.9c-.109-.038-.033.206.169.544.202.337.473.65.599.692.134.045.064-.185-.168-.543-.218-.34-.49-.652-.6-.692m65.93-1.653a.28.28 0 0 1 .317-.12c.11.037.23.223.263.414.03.192-.072.41-.227.484-.2.095-.313.028-.376-.227-.05-.198-.039-.445.023-.55m3.417-3.788c-.469 0-.682.104-.837.408-.154.303-.156.578-.004 1.084.11.372.466.973.79 1.334.323.362.893.809 1.265.995.373.186.865.337 1.094.338.228 0 .516-.101.637-.226s.218-.45.217-.724-.136-.761-.295-1.085a5.7 5.7 0 0 0-.769-1.1c-.262-.282-.702-.628-.974-.769-.273-.139-.779-.255-1.124-.255m-2.449 2.893c.101 0 .233.102.294.227.06.124.058.388-.005.586-.108.34-.134.344-.426.055-.188-.188-.26-.418-.179-.588.07-.153.213-.28.316-.28m.633-.903c.051.001.178.224.28.497.116.312.121.564.014.677-.11.117-.244.023-.381-.271-.117-.248-.166-.553-.11-.678.056-.124.145-.225.197-.225M15.682 2.535c.205 0 1.45.539 2.768 1.197s3.353 1.716 4.52 2.35 2.181 1.253 2.257 1.38c.074.124.687 1.446 1.363 2.938.835 1.845 1.428 3.49 1.856 5.152.345 1.342.628 2.582.628 2.757-.002.174-.783 1.761-1.739 3.525-.954 1.765-1.87 3.349-2.034 3.52s-2.047 1.29-4.184 2.486c-2.353 1.32-4.08 2.176-4.384 2.177-.273-.002-1.29-.402-2.26-.89-.968-.486-2.918-1.523-6.893-3.721l-2.183-4.43c-1.202-2.435-2.182-4.573-2.18-4.746 0-.176.447-1.518.991-2.983a134 134 0 0 1 2.355-5.89l1.627-.994c.895-.548 2.865-1.633 4.375-2.412 1.508-.778 2.913-1.415 3.118-1.416m205.222-.005c.593-.004.989.126 1.524.505.397.28.922.833 1.165 1.227.278.448.445.998.451 1.48.011.753-.038.816-5.774 6.53l.345.51c.19.28.497.957.682 1.505.184.545.332 1.258.332 1.581a3.8 3.8 0 0 1-.243 1.175c-.132.324-.439.718-.679.875a3.5 3.5 0 0 1-1.024.408c-.346.07-1.017.003-1.628-.162-.572-.153-1.488-.528-3.028-1.382l-2.446 2.503a5981 5981 0 0 0-6.192 6.346c-3.563 3.654-3.779 3.842-4.424 3.842-.373-.002-.942-.164-1.266-.361a1.78 1.78 0 0 1-.786-1.04c-.11-.373-.143-.883-.074-1.13.067-.25.497-.859.954-1.356.458-.497 3.217-3.365 11.432-11.841l-.55-.86c-.3-.472-.667-1.266-.814-1.763-.148-.497-.265-1.229-.261-1.627.002-.397.104-.924.225-1.168.123-.244.509-.638.858-.875.52-.355.791-.417 1.536-.344.497.047 1.392.332 3.073 1.183l2.905-2.878c2.866-2.84 2.916-2.878 3.707-2.883m-153.91-.705c.372-.094 1.165-.125 1.762-.07.596.055 1.572.274 2.169.488.596.211 1.571.67 2.166 1.017s1.741 1.282 2.546 2.077c1.142 1.13 1.63 1.783 2.23 2.984.582 1.167.79 1.819.864 2.712.055.645.008 1.52-.102 1.943-.141.539-.512 1.086-1.24 1.829-.705.721-1.273 1.128-1.763 1.266-.398.11-1.13.2-1.627.2a9 9 0 0 1-1.809-.235c-.896-.23-.907-.228-1.355.3-.25.292-.676.641-.95.777-.334.166-.535.44-.613.835-.063.323-.245.785-.406 1.025-.159.24-.555.546-.879.678s-.587.363-.588.511c0 .149-.243.415-.54.588-.321.188-.54.465-.537.678.004.199-.18.6-.408.89-.226.292-.676.637-1 .77-.466.189-.585.342-.582.736.004.287-.186.706-.452.994-.251.273-.662.539-.91.588-.32.063-.502.262-.621.677-.094.324-.461.852-.814 1.175-.354.324-.826.626-1.05.671-.225.047-.814.122-1.311.165-.497.045-1.698.313-2.67.595-1.564.455-1.792.482-2.026.242-.22-.226-.232-.554-.08-1.99.099-.945.131-2.165.068-2.711-.08-.701-.029-1.207.17-1.717.155-.398.528-.907.828-1.13.416-.31.544-.549.54-.995-.003-.345.163-.806.407-1.117.226-.291.677-.637 1-.769.479-.195.588-.337.588-.78 0-.354.182-.73.527-1.085.291-.298.637-.54.769-.539.14.002.298-.305.376-.723.098-.526.311-.865.772-1.224.35-.273.68-.702.734-.95.056-.249.217-.634.36-.858s.544-.53.89-.678c.38-.162.633-.398.632-.587 0-.174.194-.601.864-1.583l-.342-.858c-.217-.548-.338-1.3-.336-2.08.004-.787.122-1.476.335-1.942.18-.398.565-.998.855-1.336.287-.336.83-.763 1.202-.95a8 8 0 0 1 1.356-.504m50.123 2.713c.944-.009 2.408.102 3.254.247.844.144 2.147.478 2.894.744.744.264 1.999.859 2.787 1.32.786.46 1.971 1.368 2.631 2.014s1.494 1.705 1.854 2.35c.36.646.781 1.663.937 2.26.179.689.28 1.875.28 3.254 0 1.4-.101 2.553-.285 3.255a13.3 13.3 0 0 1-.837 2.169c-.302.596-1.047 1.605-1.654 2.242-.606.636-1.674 1.533-2.37 1.996-.696.46-1.977 1.099-2.846 1.419-.87.318-2.335.712-3.255.873-1.226.213-2.274.264-3.932.19-1.376-.061-2.862-.25-3.797-.485-.846-.21-2.147-.667-2.892-1.016-.747-.348-1.844-.981-2.441-1.406a14 14 0 0 1-1.945-1.75 13.6 13.6 0 0 1-1.486-2.153c-.344-.646-.747-1.746-.899-2.442-.15-.696-.276-1.955-.278-2.801s.083-2.025.191-2.621c.107-.597.469-1.655.803-2.351.333-.696 1.04-1.746 1.567-2.332.53-.588 1.451-1.416 2.047-1.839a20 20 0 0 1 2.35-1.393c.696-.344 1.673-.757 2.17-.921.497-.163 1.473-.41 2.169-.55s2.038-.262 2.983-.273m93.655 9.93c-.075 0-2.408 2.34-5.188 5.197-2.778 2.858-5.516 5.705-6.082 6.328-.567.621-1.03 1.293-1.03 1.492s.204.566.452.813c.249.25.656.451.903.451.349 0 1.222-.791 3.84-3.48 1.862-1.914 4.608-4.718 6.102-6.232l2.713-2.75c-1.221-1.409-1.637-1.82-1.71-1.82M27.442 19.71c-.09 0-.207.082-.261.181-.055.1-1.056.74-2.224 1.419-1.168.681-2.572 1.48-3.118 1.775-.922.497-1.11.722-2.563 3.056-.86 1.38-1.528 2.531-1.49 2.563.04.026.625-.25 1.296-.609.671-.36 2.22-1.235 3.441-1.943l2.223-1.29a826 826 0 0 1 2.623-4.744c.128-.224.16-.408.072-.408m144.24-15.418a2.7 2.7 0 0 1 1.48-.246c.447.042 1.139.241 1.537.442a9 9 0 0 1 1.447.987c.397.34.999 1.141 1.339 1.777.438.823.642 1.474.703 2.243.047.597-.003 1.37-.112 1.718-.146.465-1.148 1.548-3.776 4.077a1037 1037 0 0 1-7.023 6.689 501 501 0 0 1-5.288 4.918c-1.26 1.142-2.03 1.706-2.431 1.78-.333.063-1.018-.014-1.582-.177-.548-.157-1.33-.553-1.741-.877a10 10 0 0 1-1.329-1.314 10.3 10.3 0 0 1-.991-1.536c-.226-.449-.46-1.12-.523-1.492a3.9 3.9 0 0 1 .055-1.356c.138-.542.802-1.296 3.3-3.753 1.721-1.692 5.635-5.434 8.697-8.316 3.065-2.884 5.87-5.386 6.238-5.564M8.008 8.776c-.2-.042-.584.002-.859.095-.437.15-.629.514-1.603 3.018-1.081 2.784-1.105 2.88-1.032 4.294.068 1.397.128 1.566 1.782 4.977l1.712 3.529c1.961 1.146 3.65 2.06 5.017 2.768 1.864.969 2.61 1.27 2.983 1.203.275-.05.714-.314.978-.588.264-.276.977-1.292 1.582-2.262 1.054-1.686 1.101-1.811 1.101-2.938 0-1.034-.163-1.59-1.363-4.655-.767-1.955-1.655-3.903-2.033-4.45-.37-.53-.997-1.156-1.395-1.386s-2.025-1.12-3.615-1.974C9.672 9.55 8.207 8.815 8.008 8.776M55.685 26.11c-.356-.454-.413-.476-.408-.163.002.198-.055.79-.13 1.312-.122.878-.106.951.228.939.199-.008.809-.153 1.356-.323l.995-.31c-1.262-.723-1.813-1.168-2.041-1.455m48.242-6.175c-.006.074.183.562.418 1.085s.804 1.457 1.265 2.079 1.388 1.542 2.059 2.047c.671.504 1.748 1.168 2.395 1.473.646.306 1.948.749 2.893.986s2.531.48 3.525.542c1.324.081 2.318.027 3.706-.204 1.044-.174 2.387-.494 2.984-.71s1.654-.708 2.35-1.093c.778-.432 1.788-1.23 2.622-2.073.932-.946 1.538-1.754 1.943-2.595.323-.67.59-1.322.594-1.446.003-.125-.209.1-.469.497s-.976 1.235-1.587 1.86c-.613.627-1.725 1.494-2.47 1.928-.746.432-1.926.99-2.622 1.24s-1.998.59-2.892.76c-1.244.238-2.204.288-4.068.216-1.878-.073-2.837-.204-4.158-.575-.945-.264-2.328-.8-3.073-1.19-.747-.39-1.824-1.077-2.396-1.525-.571-.449-1.345-1.205-1.717-1.682a36 36 0 0 1-.986-1.31c-.167-.244-.31-.383-.316-.31M-34.225 1.633c.161.002.658.113 1.105.248.448.134 1.18.428 1.627.653s1.425.834 2.17 1.353c1.182.823 1.53 1.207 2.73 3.005 1.263 1.894 1.42 2.237 1.948 4.23.503 1.9.543 2.215.323 2.532a24 24 0 0 1-.928 1.175c-.372.447-1.136 1.198-1.698 1.666-.56.47-1.12.858-1.245.86-.125.004-.49.334-.814.735s-.71.769-.86.818c-.148.046-.903-.16-3.072-1.005l-1.04.932c-.57.514-2.214 1.998-3.65 3.3a1760 1760 0 0 1-4.339 3.921c-.95.855-1.911 1.647-2.135 1.763-.225.114-.794.206-1.265.204-.472-.002-1.205-.165-1.628-.361-.423-.198-1.226-.785-1.782-1.307-.582-.544-1.24-1.393-1.537-1.99-.288-.57-.573-1.345-.634-1.717a4.9 4.9 0 0 1 0-1.356c.087-.52.394-.96 1.334-1.898.67-.671 3.05-2.84 5.288-4.821a842 842 0 0 1 4.305-3.797c.197-.161.182-.357-.385-2.003l1.253-3.797 1.254-.956c.69-.526 1.734-1.28 2.32-1.673.585-.394 1.194-.716 1.355-.714m189.59 19.704c-.352 0-.752.138-.927.317-.232.238-.288.537-.23 1.22.043.497.254 1.27.469 1.717.213.448.779 1.209 1.255 1.69.477.482 1.173 1.03 1.546 1.22a3.9 3.9 0 0 0 1.446.354c.504.005.862-.098 1.039-.3.152-.172.267-.633.262-1.047-.006-.445-.224-1.166-.542-1.803-.293-.582-.901-1.402-1.347-1.822-.448-.42-1.159-.938-1.582-1.153s-1.047-.393-1.389-.393M-48.579 20.26c-.398.002-.851.084-1.01.186-.158.1-.382.503-.498.897-.115.396-.158.942-.095 1.215.066.273.31.884.543 1.355.235.472.772 1.232 1.195 1.686.423.456 1.175 1.024 1.672 1.267.498.244 1.172.44 1.5.439.395 0 .746-.153 1.039-.453.323-.327.445-.652.445-1.176 0-.398-.16-1.15-.353-1.672s-.701-1.347-1.13-1.833c-.428-.488-1.184-1.117-1.681-1.401-.586-.333-1.159-.512-1.627-.51M56.216 21.7c-.085 0-.284.143-.44.316s-.366.52-.464.768c-.122.31-.112.706.033 1.257.137.528.477 1.076.98 1.582.422.429 1.236.993 1.808 1.255.795.365 1.21.452 1.762.372.494-.07.88-.278 1.22-.658.273-.304.497-.635.497-.734-.001-.1-.387-.262-.858-.362-.472-.097-1.366-.504-1.988-.904-.622-.398-1.378-1.068-1.68-1.491s-.586-.912-.633-1.085c-.045-.173-.152-.316-.237-.316M169.315 7.28c-1.41 1.317-4.313 4.056-6.454 6.089a744 744 0 0 0-5.566 5.333c-.919.902-1.673 1.7-1.673 1.776.002.074.186.135.41.137.224 0 .815.235 1.312.521s1.291.935 1.762 1.444c.472.51 1.059 1.353 1.305 1.875.246.523.47 1.255.497 1.627.027.37.071.674.096.678.025 0 2.137-1.972 4.693-4.384 2.558-2.411 6.158-5.83 8-7.598 1.844-1.768 3.452-3.396 3.572-3.617.121-.22.223-.747.225-1.17.004-.423-.137-1.155-.312-1.626-.178-.472-.604-1.217-.95-1.655-.345-.437-1.036-1.026-1.533-1.308-.678-.385-1.144-.514-1.862-.516l-.958-.002zm-51.294-1.94c-.845-.04-2.147.011-2.892.11-.747.102-2.089.42-2.983.708-.895.289-2.239.887-2.984 1.328-.746.443-1.798 1.197-2.339 1.677s-1.298 1.36-1.681 1.956c-.384.597-.859 1.616-1.054 2.261a9.3 9.3 0 0 0-.353 2.396c.002.844.142 1.598.453 2.44.247.673.755 1.662 1.129 2.198.375.537 1.047 1.3 1.496 1.698a18 18 0 0 0 1.716 1.311c.497.324 1.514.837 2.261 1.14.745.303 1.964.691 2.711.863.978.226 2.112.31 4.068.304 2.177-.01 2.996-.087 4.159-.398.795-.211 2.218-.769 3.164-1.235 1.381-.683 2.003-1.133 3.183-2.303 1.105-1.095 1.611-1.765 2.058-2.72.325-.695.676-1.712.777-2.26.13-.699.124-1.368-.018-2.259-.125-.783-.463-1.781-.888-2.616-.403-.8-1.09-1.765-1.678-2.36a16 16 0 0 0-2.169-1.77c-.647-.419-1.807-1.004-2.577-1.3s-1.99-.666-2.711-.818-2.003-.31-2.848-.35M-47.224 19.084c-.455-.085-.71-.037-.909.165-.246.252-.246.28 0 .283.152.002.703.204 1.226.452.522.247 1.341.836 1.822 1.308.48.472 1.1 1.307 1.376 1.853.275.548.553 1.376.618 1.843.094.695.16.81.364.632.171-.15.224-.517.171-1.21-.04-.546-.27-1.401-.51-1.898-.238-.497-.845-1.302-1.346-1.786-.503-.486-1.199-1.027-1.546-1.202a5.7 5.7 0 0 0-1.266-.44m105.398-.09c-.048.005-.358.145-.689.311-.513.26-.547.313-.226.355.318.043.376.177.376.864 0 .448-.081.813-.18.813-.1 0-.243-.246-.317-.546s-.197-.543-.27-.542c-.075.002-.134.146-.133.32.002.173.165.662.362 1.085s.703 1.11 1.126 1.527c.423.418 1.215.962 1.762 1.21.58.262 1.348.455 1.84.46.663.01.945-.084 1.314-.44.26-.248.469-.594.465-.768-.002-.197-.19-.357-.5-.422a14 14 0 0 1-1.04-.278c-.298-.096-.868-.362-1.265-.591-.398-.232-1.024-.776-1.389-1.214-.367-.437-.775-1.1-.907-1.473-.134-.372-.28-.674-.33-.67m-104.61-1.088c-.21-.002-.476.12-.586.267-.167.226-.055.319.657.55.472.154 1.286.602 1.808.994.534.403 1.268 1.212 1.678 1.847.427.66.82 1.556.95 2.154.12.564.28.992.355.95s.138-.503.14-1.025-.11-1.233-.254-1.582c-.14-.347-.57-1.054-.953-1.57-.383-.515-.982-1.155-1.329-1.42a9 9 0 0 0-1.355-.822c-.398-.186-.897-.34-1.11-.343m222.701-7.685c.104.062.18.227.17.37-.01.144-1.216 1.38-2.68 2.746-.731.684-1.621 1.519-2.466 2.314l-4.387 4.142c-.844.795-1.735 1.63-2.466 2.313-1.682 1.569-2.763 2.453-2.935 2.395-.148-.049-.274-.151-.278-.225-.006-.074 1.317-1.4 2.937-2.946 1.62-1.545 4.965-4.702 7.431-7.014 2.466-2.31 4.568-4.152 4.674-4.095M9.049 13.377c.555-.265.982-.342 1.537-.271.423.052 1.074.25 1.446.44.373.187 1.074.695 1.559 1.13.486.431 1.198 1.274 1.587 1.87.386.597.867 1.614 1.064 2.26.199.645.36 1.643.359 2.215s-.113 1.304-.244 1.628c-.135.323-.52.82-.859 1.106-.56.47-.722.511-1.724.451-.939-.056-1.268-.177-2.158-.79-.578-.397-1.401-1.17-1.828-1.716-.426-.546-.975-1.402-1.22-1.899-.244-.497-.582-1.434-.749-2.079-.177-.687-.265-1.514-.213-1.99.051-.445.223-1.076.383-1.4.183-.368.577-.725 1.06-.955M-45.43 17c-.256 0-.523.06-.59.134s.428.39 1.1.703c.88.409 1.498.87 2.216 1.65.546.597 1.19 1.482 1.43 1.965.239.484.483 1.18.543 1.546.086.546.151.63.352.453.18-.158.213-.458.123-1.12-.067-.497-.342-1.305-.607-1.796-.266-.492-.892-1.298-1.389-1.795s-1.31-1.09-1.808-1.32c-.496-.23-1.113-.418-1.37-.42m54.574-2.894c-.073 0-.248.183-.39.407s-.312.732-.38 1.13c-.079.46-.015 1.148.173 1.898.164.646.537 1.622.828 2.17.293.545.884 1.4 1.313 1.898.442.513 1.204 1.12 1.762 1.403.54.275 1.227.497 1.526.493.297-.002.643-.064.766-.136.141-.084-.16-.302-.813-.584-.593-.256-1.492-.875-2.096-1.446-.772-.726-1.262-1.408-1.808-2.52-.708-1.435-.75-1.613-.75-3.116 0-.878-.06-1.595-.131-1.597m15.56-5.562c-.134-.023-.814.27-1.51.654-.696.385-2.281 1.304-3.525 2.047-1.78 1.063-2.272 1.442-2.32 1.789-.034.24.398 1.618.96 3.06a304 304 0 0 0 1.825 4.564c.44 1.07.862 1.944.936 1.947.077.001 1.276-.66 2.667-1.472 1.392-.812 2.98-1.772 3.526-2.134.883-.585.986-.717.93-1.194-.036-.295-.372-1.595-.748-2.888s-1.093-3.245-1.591-4.338c-.5-1.094-1.018-2.01-1.15-2.035m-68.706 7.496c-.405-.06-.793-.007-.994.136-.298.213-.271.244.304.34.349.06 1.157.455 1.797.882.64.426 1.468 1.182 1.84 1.68.374.497.845 1.27 1.05 1.717.202.448.37 1.038.371 1.31.002.274.085.498.185.498s.221-.122.27-.272c.05-.148.093-.535.095-.858.002-.324-.235-1.075-.526-1.672-.291-.596-.883-1.456-1.315-1.908-.43-.452-1.15-1.033-1.598-1.29-.447-.256-1.112-.508-1.479-.563m54.384-2.295c-.128 0-.3.054-.384.119-.083.068-.14.699-.123 1.401.014.705.178 1.729.36 2.276.183.546.582 1.36.886 1.808.306.447.91 1.162 1.344 1.589.434.425 1.113.928 1.51 1.116.398.188.925.369 1.173.4.283.037.467-.04.505-.213.04-.18-.233-.39-.807-.62-.487-.197-1.275-.754-1.788-1.265-.595-.593-1.163-1.428-1.61-2.363-.571-1.2-.7-1.687-.76-2.847-.051-.987-.142-1.401-.306-1.402m48.803 3.264c-.373.282-.494.523-.48.951.011.317.178.9.367 1.298.192.398.76 1.11 1.264 1.582.503.472 1.262 1.02 1.684 1.217s1.174.364 1.671.37c.615.006 1.031-.094 1.302-.314.217-.177.421-.48.452-.672.044-.275-.092-.382-.624-.497-.372-.082-1.062-.345-1.536-.583-.472-.237-1.257-.786-1.743-1.22-.488-.432-1.105-1.174-1.372-1.65l-.486-.86zm-101.71-2.132c-.556-.061-.882-.011-1.032.159-.177.2-.045.319.725.648.519.22 1.419.832 2.001 1.356a6.8 6.8 0 0 1 1.676 2.218c.341.696.667 1.551.725 1.899.078.473.145.563.262.36.089-.148.161-.576.163-.948.002-.373-.08-.902-.18-1.175-.102-.273-.144-.537-.095-.588.05-.049.166.115.257.362.092.25.273.696.4.994l.236.542c.089-.968-.081-1.54-.43-2.214a10 10 0 0 0-1.356-1.899c-.45-.472-1.204-1.03-1.678-1.24-.471-.212-1.225-.423-1.673-.474m53.988-.78c-.09.007-.115.55-.056 1.23.074.835.278 1.56.653 2.304.3.597.813 1.406 1.14 1.798a7 7 0 0 0 1.408 1.222c.448.28.915.509 1.04.508s.226-.165.226-.364c0-.213-.204-.464-.497-.612-.273-.138-.859-.646-1.302-1.13a9.4 9.4 0 0 1-1.31-1.964c-.279-.596-.559-1.41-.622-1.807-.064-.398-.207-.831-.317-.96-.11-.127-.273-.228-.363-.225m105.744-3.412c.298-.01 1.031.072 1.627.182a10 10 0 0 1 2.079.675c.548.262 1.258.743 1.582 1.069s.75.916.949 1.314c.226.454.36 1.077.359 1.672-.002.537-.15 1.264-.34 1.673-.186.398-.651 1.023-1.036 1.389s-1.147.886-1.695 1.155c-.546.27-1.522.575-2.169.677-.862.136-1.512.127-2.441-.036-.719-.126-1.727-.471-2.334-.8-.585-.317-1.342-.902-1.681-1.3-.343-.405-.736-1.161-.893-1.718-.177-.623-.233-1.231-.153-1.627.068-.349.271-.917.446-1.265.177-.35.617-.898.976-1.221a8.2 8.2 0 0 1 1.425-.984c.423-.218 1.217-.497 1.763-.618.547-.12 1.238-.228 1.536-.237m-56.305 4.143c-.11 0-.3.207-.422.459-.18.368-.174.607.028 1.22.157.482.622 1.132 1.265 1.77.57.564 1.47 1.218 2.054 1.49s1.358.485 1.763.485c.398 0 .764-.08.813-.18.05-.1-.336-.297-.858-.44-.52-.14-1.373-.568-1.888-.95-.517-.379-1.275-1.136-1.681-1.684-.409-.547-.772-1.258-.808-1.582-.038-.323-.157-.587-.266-.588m-102.228-1.083c-.49 0-.889.106-1.04.278-.214.244-.184.277.25.27.274-.003.72.091.994.21.275.12.973.548 1.555.95.581.402 1.245.976 1.473 1.274.23.298.627.991.884 1.537.258.548.466 1.198.463 1.446-.005.41.022.427.295.181.215-.195.277-.474.22-.994-.043-.398-.273-1.13-.51-1.627-.236-.497-.8-1.3-1.252-1.783-.452-.485-1.208-1.074-1.682-1.31-.513-.26-1.175-.432-1.65-.432m159.076.057c-1.236-.054-1.846.008-2.54.252-.501.177-1.194.513-1.537.746-.344.233-.862.762-1.153 1.176l-.53.752c.541.98 1.105 1.532 1.602 1.863s1.31.717 1.807.86 1.432.263 2.08.263c.647 0 1.581-.119 2.079-.263a6.7 6.7 0 0 0 1.672-.816c.423-.304.971-.837 1.22-1.184.416-.583.432-.675.197-1.13-.141-.275-.486-.713-.768-.977-.282-.262-.962-.7-1.508-.976-.81-.404-1.294-.51-2.621-.566M13.634 15.824c-.698-.741-.83-.823-.734-.453.066.248.314.899.551 1.447.239.546.798 1.36 1.244 1.808.444.446.845.77.89.723.043-.052-.187-.66-.51-1.355-.323-.697-.973-1.673-1.441-2.17m49.335-2.62c-.1.005-.403.21-.678.455-.316.286-.496.628-.494.944.004.273.156.823.342 1.22.184.398.69 1.063 1.126 1.477a9 9 0 0 0 1.692 1.226c.645.334 1.177.468 1.854.465.704-.002 1.043-.098 1.31-.366.199-.198.361-.483.361-.633 0-.236-.04-.234-.316.011-.22.2-.37.227-.497.091q-.18-.192.049-.418c.126-.125.228-.287.226-.361s-.226-.176-.5-.225-.986-.399-1.583-.778c-.596-.382-1.32-.972-1.607-1.314a7.4 7.4 0 0 1-.814-1.212c-.158-.325-.372-.588-.471-.582m-103.232-.72c-.199.003-.517.089-.709.19-.189.101-.332.261-.316.356.018.094.235.171.482.172.25 0 .912.224 1.472.497.591.287 1.41.915 1.951 1.492.58.62 1.083 1.386 1.33 2.033.22.57.4 1.202.4 1.401 0 .201.102.335.226.302.129-.033.248-.407.275-.858.034-.546-.087-1.085-.378-1.703-.237-.498-.828-1.346-1.315-1.884-.574-.633-1.27-1.159-1.971-1.49-.597-.281-1.247-.51-1.447-.508m2.32-6.604c-.4-.083-.608-.047-.678.12-.054.133-.306.83-.556 1.55-.426 1.237-.435 1.346-.17 1.899l.285.588c.612-.595.972-.859 1.196-.971s.712-.205 1.085-.207c.372 0 1.085.197 1.582.441s1.363.917 1.926 1.493c.56.579 1.232 1.5 1.49 2.045.261.548.525 1.444.589 1.99.106.928.075 1.039-.454 1.671-.312.374-.527.758-.478.859s.477.304.95.456c.471.15.94.274 1.04.276.099.001.415-.427.704-.951.456-.831.508-1.074.404-1.86-.084-.622-.495-1.579-1.319-3.074-.66-1.193-1.573-2.562-2.032-3.043-.457-.48-1.32-1.12-1.916-1.421a40 40 0 0 1-2.079-1.145c-.548-.329-1.253-.65-1.57-.716m-1.09 5.693c-.417 0-.8.063-.852.137-.05.074.372.313.94.53.567.216 1.439.756 1.936 1.2s1.19 1.284 1.537 1.866.764 1.467.929 1.964c.246.743.322.84.434.542.074-.2.083-.87.02-1.491-.065-.621-.177-1.127-.253-1.128-.074.001-.27-.224-.432-.498-.165-.275-.631-.844-1.04-1.267a10.4 10.4 0 0 0-1.602-1.312c-.607-.387-1.08-.545-1.617-.543m250.431-3.645c-.298-.049-.721-.055-.94-.018s-.545.235-.724.439c-.224.255-.325.664-.325 1.31 0 .726.161 1.26.712 2.374.526 1.067 1.063 1.791 2.079 2.805.982.982 1.751 1.557 2.724 2.04.936.462 1.594.67 2.124.666.423-.002.901-.064 1.064-.14.165-.075.416-.38.561-.68.179-.368.222-.77.136-1.264-.071-.398-.303-1.112-.514-1.59-.213-.474-.427-.856-.479-.851-.049.007-.436.336-.859.73-.421.394-.85.716-.949.716-.1 0-.485-.125-.859-.278-.372-.156-.993-.582-1.378-.95-.383-.368-.849-.995-1.034-1.393-.186-.397-.339-.925-.342-1.175-.006-.28.229-.69.621-1.085.346-.347.591-.692.546-.768-.047-.075-.431-.284-.853-.468-.421-.183-1.012-.371-1.311-.42m-248.181 1.66c-.222.002-.508.063-.631.135-.141.083.158.3.809.584.567.25 1.4.787 1.851 1.195.45.409 1.05 1.06 1.334 1.447.316.431.473.825.406 1.02-.06.175-.168.32-.244.321-.074.003-.237-.201-.361-.452-.123-.251-.571-.832-.994-1.29-.421-.46-1.094-1.027-1.492-1.262s-1.007-.508-1.356-.608c-.347-.1-.815-.142-1.039-.094-.222.047-.408.146-.411.22-.002.076.243.197.543.271.3.077.974.409 1.495.74.522.332 1.254.942 1.627 1.356.374.414.922 1.282 1.22 1.927.299.647.542 1.338.543 1.537 0 .202.1.334.225.3.149-.04.229-.432.23-1.13.004-.871.062-1.075.317-1.113.233-.033.342.129.425.633.1.6.133.635.292.316.1-.199.13-.606.067-.904-.061-.299-.32-.99-.573-1.537s-.842-1.387-1.309-1.868c-.468-.48-1.235-1.07-1.709-1.31-.471-.24-1.041-.436-1.265-.434m100.827 1.124c-.175.237-.29.715-.278 1.174.009.425.17 1.077.358 1.45.186.373.694 1.03 1.13 1.46.434.432 1.236.997 1.782 1.257.557.266 1.327.477 1.748.482.57.008.868-.1 1.217-.442.253-.248.423-.512.376-.588-.048-.074-.554-.379-1.126-.675s-1.522-.968-2.111-1.49a22 22 0 0 1-1.935-1.991l-.864-1.038zm-91.917 4.882c-.33-.206-.362-.18-.364.318-.004.498.027.526.36.318.199-.125.361-.268.363-.319 0-.05-.161-.193-.359-.317m91.849-8.632c-.008.454.197 1.163.547 1.899.306.647.954 1.663 1.438 2.26s1.433 1.504 2.107 2.016c.677.51 1.637 1.131 2.134 1.379.497.25 1.35.584 1.899.745.546.16 1.44.285 1.988.275l.994-.02c-2.382-.5-3.562-.864-4.158-1.132s-1.573-.835-2.17-1.262c-.596-.426-1.532-1.261-2.078-1.856-.548-.595-1.256-1.52-1.576-2.06-.319-.537-.7-1.425-.847-1.972l-.266-.994zm54.045 4.576c-.545-.047-1.36-.028-1.808.042a8 8 0 0 0-1.627.48c-.448.195-1.099.6-1.446.9s-.776.844-.95 1.207-.319.803-.323.979c-.005.23.212.11.814-.452.452-.423 1.208-.939 1.679-1.143.472-.206 1.387-.436 2.034-.512.647-.075 1.663-.068 2.259.013.597.083 1.574.388 2.17.675.597.29 1.348.817 1.672 1.175.354.39.588.542.588.38 0-.15-.108-.538-.24-.86-.134-.323-.642-.938-1.13-1.366-.49-.427-1.297-.924-1.794-1.104a9 9 0 0 0-1.898-.414m-146.159-5.53c-.024-.026-.442.267-.928.652-.49.387-1.105.9-1.368 1.138-.415.376-.466.537-.39 1.243.047.449.292 1.22.543 1.718.251.497.843 1.555 1.317 2.35s1.054 1.584 1.291 1.75c.418.297.454.283 1.566-.632.627-.515 1.135-1.018 1.128-1.117-.005-.101-.223-.996-.485-1.99-.39-1.487-.665-2.093-1.553-3.434a248 248 0 0 0-1.12-1.678m96.17-3.464c-.596.004-1.367.107-1.714.232-.345.123-.833.492-1.085.817-.39.508-.455.78-.455 1.901 0 1.143.085 1.483.678 2.7.515 1.06 1.035 1.748 2.17 2.883.82.821 1.94 1.755 2.485 2.076.546.321 1.483.761 2.08.978.728.266 1.531.401 2.44.41 1.049.013 1.498-.064 1.976-.344.342-.2.79-.648.995-.995.267-.452.374-.947.374-1.73 0-.934-.12-1.338-.8-2.712-.628-1.267-1.093-1.906-2.172-2.97-.911-.9-1.826-1.595-2.725-2.065-.744-.39-1.76-.815-2.257-.947-.498-.13-1.393-.236-1.99-.234M215.92 7.742l-2.839 2.838c.3.998.767 1.63 1.293 2.124.528.496 1.084.859 1.319.86.29.003 1.187-.809 3.119-2.818 2.14-2.226 2.654-2.855 2.441-2.982-.15-.088-.312-.159-.361-.157-.051.001-.411-.306-.801-.682s-.85-.984-1.022-1.352l-.311-.667zM62.815 12.298c-.134 0-.392.148-.575.33-.182.18-.316.385-.299.452s.277.001.576-.149c.298-.148.541-.353.542-.452 0-.1-.11-.18-.244-.18M15.649 3.264c-.027.004-1.267.638-2.757 1.413-1.492.774-3.265 1.727-3.942 2.12-.96.552-1.178.755-.994.91.129.113 1.374.813 2.766 1.559s3.201 1.692 4.022 2.104c.82.41 1.614.747 1.763.748.148 0 1.837-.932 3.752-2.07a1259 1259 0 0 1 3.75-2.228c.201-.118-.267-.442-1.807-1.255a247 247 0 0 0-4.294-2.202c-1.217-.607-2.233-1.102-2.26-1.099m54.67 1.983c.086.001.561.368 1.058.814.855.77.926.798 1.31.54.224-.15.528-.27.678-.266s.416.147.593.319c.177.17.318.433.314.582s-.23.443-.997 1.034l1.347 1.768-.911.904-.716-.859c-.392-.471-.835-.857-.985-.858-.15 0-.56.143-1.552.633l-.88-1.085 1.347-1.145-.678-.875c-.634-.817-.66-.893-.38-1.19.163-.173.367-.315.452-.316m1.103 2.186c.211.522.192.588-.316 1.027-.35.305-.414.417-.181.32.199-.085.626-.18.949-.215.374-.04.588-.163.588-.334 0-.148.224-.436.497-.635.273-.2.423-.41.334-.467-.09-.055-.359.046-.597.228-.422.323-.446.322-.966-.075l-.534-.408zM-34.16 2.548c-.293.007-.942.343-1.582.82-.596.445-1.166.882-1.266.971-.117.105-.045.372.206.762.243.374.885.87 1.718 1.321.732.398 1.656.86 2.054 1.029.397.17.865.31 1.039.316.173.005.67-.253 1.1-.576.428-.324 1.079-.852 1.446-1.176.364-.323.661-.648.66-.723s-.714-.597-1.582-1.159c-.868-.564-1.966-1.153-2.438-1.31-.471-.16-1.082-.282-1.355-.275m254.129 2.79c-.287-.497-.522-.783-.525-.634s.226.637.51 1.085c.304.48.824.98 1.269 1.221.414.224.75.345.747.27s-.338-.34-.743-.586c-.445-.273-.944-.81-1.258-1.357m.85-2.08c-.137 0-.361.13-.497.286-.198.231-.203.41-.026.95.119.365.486.932.813 1.261.454.455.767.606 1.318.633.703.033.725.018.774-.599.036-.43-.086-.835-.375-1.265-.233-.35-.725-.776-1.09-.95s-.778-.316-.917-.316"/></g></svg>