<svg xmlns="http://www.w3.org/2000/svg" fill="none" viewBox="0 0 32 32"><mask id="a" width="32" height="32" x="0" y="0" maskUnits="userSpaceOnUse" style="mask-type:alpha"><path fill="#d9d9d9" d="M0 0h32v32H0z"/></mask><g mask="url(#a)"><path fill="#e31e24" d="M-38.737 96.509c2.23-.009 3.631.088 4.488.313.684.18 1.755.585 2.38.903.623.316 1.601 1.022 3.206 2.558l-.009-1.46c-.006-1.248.057-1.49.427-1.676.239-.12 1.115-.216 1.947-.216 1.164 0 1.595.088 1.86.378.269.292.33.705.262 1.785-.047.774-.132 1.552-.186 1.73-.072.238.106.345.66.399.415.039.883.185 1.036.324.214.193.279 1.482.274 5.551-.004 3.862-.078 5.373-.27 5.571-.145.149-.584.27-.976.27-.393 0-.773.123-.845.27-.072.149-.022.368.112.487.145.13.24.978.236 4.002l-.811.349c-.51.22-1.22.32-1.912.27-.604-.041-1.265-.223-1.47-.402-.254-.223-.367-.643-.36-1.353.006-.563-.04-1.026-.098-1.027-.06 0-.427.301-.812.666-.387.364-1.092.896-1.568 1.18-.476.285-1.45.716-2.163.958-1.077.363-1.911.445-4.868.473-3.002.029-3.76-.032-4.764-.378-.657-.226-1.765-.751-2.464-1.168s-1.721-1.292-2.275-1.948c-.554-.653-1.368-1.918-1.807-2.811-.506-1.028-.891-2.216-1.053-3.245-.193-1.244-.192-2.026.004-3.354a12 12 0 0 1 1.032-3.353 11.7 11.7 0 0 1 1.995-2.888c.67-.697 1.657-1.52 2.193-1.83.535-.31 1.508-.734 2.163-.94.898-.283 1.985-.377 4.436-.388m-.654.878c-2.18.02-3.056.1-3.353.19-.299.091-1.077.44-1.73.773-.656.335-1.702 1.126-2.327 1.762-.685.699-1.434 1.779-1.888 2.724a11.3 11.3 0 0 0-.98 3.191c-.125.894-.167 2.062-.096 2.596.072.536.316 1.558.541 2.272s.784 1.881 1.24 2.595c.46.714 1.314 1.727 1.9 2.248.589.522 1.556 1.167 2.15 1.433.595.266 1.592.592 2.217.726.625.135 1.378.245 1.677.245.296 0 .538-.072.534-.163-.003-.088-.415-.355-.919-.59-.502-.234-1.497-.98-2.21-1.653-.715-.675-1.613-1.748-1.998-2.386-.383-.637-.895-1.936-1.137-2.888-.243-.952-.437-2.266-.435-2.921.004-.653.155-1.821.339-2.596.184-.772.645-1.985 1.025-2.697.379-.709 1.18-1.781 1.779-2.38.599-.597 1.67-1.402 2.38-1.785zm1.514.43c-.238-.001-1.114.327-1.946.73a9.3 9.3 0 0 0-2.616 1.889c-.606.636-1.35 1.643-1.653 2.238s-.71 1.618-.902 2.271c-.193.656-.35 1.824-.349 2.596 0 .774.148 1.967.328 2.65.177.686.56 1.707.847 2.272.288.567 1.04 1.599 1.677 2.296.807.884 1.608 1.488 2.668 2.005.833.406 1.685.737 1.892.735.208-.005.94-.266 1.622-.586.74-.344 1.782-1.112 2.565-1.893.727-.722 1.577-1.824 1.892-2.449.316-.623.664-1.549.777-2.055.112-.504.257-1.38.324-1.947.108-.921.072-1.045-.365-1.212-.338-.129-.58-.51-.792-1.244-.188-.657-.263-1.594-.198-2.466.095-1.269.049-1.477-.468-2.163-.314-.415-.965-1.097-1.446-1.514-.48-.416-1.447-1.072-2.148-1.453-.703-.382-1.47-.697-1.709-.7m8.072 15.241c-.986-.699-1.004-.684-1.744.621-.458.813-1.243 1.742-2.024 2.397-.7.588-1.341 1.124-1.422 1.19-.082.064.357.086.974.047.616-.036 1.412-.175 1.77-.305.356-.13 1.08-.586 1.61-1.012.528-.426 1.232-1.214 1.563-1.748.329-.536.538-1.071.467-1.19-.074-.123-.212-.051-.318.163-.13.266-.442.378-1.051.378-.476 0-.865-.097-.866-.216 0-.119.234-.24.52-.271zm1.772 2.488c0 .713.097 1.345.216 1.406.132.065.216-.362.216-1.082 0-.654.098-1.188.216-1.189.12 0 .24.495.27 1.098l.055 1.102 2.272.18v-2.813h-3.245zm-3.189.025c.089-.019.162.109.163.288 0 .24-.254.325-.974.325-.536 0-.973-.097-.974-.216.001-.119.367-.249.812-.288s.885-.089.973-.109m.837-.865c.073-.019.115.085.091.233-.024.156-.424.295-.945.326-.495.03-.9-.044-.902-.162.001-.119.366-.25.811-.289s.871-.088.945-.108m-.133-.686c.533.001.972.099.973.217 0 .119-.44.216-.973.216-.536 0-.973-.097-.974-.216.001-.119.438-.217.974-.217m4.107-1.07c-.913 0-1.19.076-1.19.324 0 .253.245.312 1.119.271.674-.033 1.146-.162 1.19-.324.052-.193-.274-.271-1.12-.271m3.137-10.817c-3.939.034-5.423.127-5.841.231-.415.102-.83.265-.921.358-.09.093-.005.605.192 1.141.234.638.366 1.719.381 3.138.018 1.574-.08 2.457-.361 3.244-.212.595-.333 1.253-.27 1.461.077.259.335.378.817.378h.703c-.089-7.824-.03-9.519.108-9.519.139.003.216 1.734.216 4.76v4.759h4.976zm-7.77 1.224c-.079-.099-.212-.075-.297.054-.084.13-.097.699-.028 1.264.071.564.165 1.173.208 1.352.043.178.28.398.523.487.361.131.442.073.444-.325.002-.268-.158-.973-.353-1.568-.197-.595-.42-1.164-.498-1.264m-3.804-5.103.649.465c.357.257 1.074.91 1.59 1.454.52.543 1.086 1.279 1.26 1.636l.318.648c.676-.789 1.079-.973 1.483-.973.357 0 .65-.097.65-.216-.001-.12-.561-.7-1.244-1.288-1.238-1.066-1.249-1.07-2.382-.919-.848.113-1.138.082-1.136-.119.002-.164.298-.27.759-.27.432 0 .712-.094.65-.217-.06-.119-.67-.212-1.352-.21zm8.38 2.408c-.881-.052-1.11.002-1.122.271-.008.263.245.335 1.205.335.878 0 1.188-.076 1.119-.271-.057-.156-.567-.298-1.203-.335m-4.091-.019c.378.023.787.095.906.162.118.067-.223.184-.757.259-.537.076-.998.102-1.028.056-.03-.044 0-.177.067-.298.068-.121.433-.201.811-.179m2.752-2.91c-.229.08-.302.424-.27 1.283.033.878.124 1.169.368 1.17.25-.001.324-.288.324-1.298 0-.713-.023-1.287-.053-1.28zm.864 1.146-.008 1.307 1.946-.108v-2.38l-1.93-.126zm-4.768.686c.52.04.973.19 1.013.34.045.172-.18.274-.632.279-.387.006-.842-.148-1.013-.338-.28-.316-.22-.341.632-.28M-74.54 49.89c.534.06 1.354.327 1.82.59.465.264 1.146.853 1.514 1.309.66.822.669.864.733 3.678.046 2-.017 3.035-.216 3.476-.156.344-.648.953-1.093 1.353-.448.398-.958.722-1.136.723-.18 0-.365.073-.417.162-.05.09.097.844.326 1.676.23.833.416 1.685.416 1.893 0 .21-.442 1.036-.98 1.839-.876 1.304-1.24 1.62-5.835 4.443l-1.19-.235c-1.03-.206-1.252-.188-1.64.13-.246.203-.956.952-1.574 1.666-.619.713-1.122 1.37-1.119 1.46.002.09-.14.162-.318.162-.18 0-.324.098-.324.217-.001.12-.514.757-1.136 1.414-1.073 1.129-1.194 1.197-2.163 1.19-.567-.004-1.346-.143-1.731-.308-.388-.164-1.064-.675-1.501-1.135-.44-.46-.902-1.103-1.028-1.432a4.1 4.1 0 0 1-.23-1.244c0-.48.427-1.19 1.664-2.759.915-1.16 1.98-2.448 2.367-2.866.476-.51.737-1.036.807-1.622.078-.664-.045-1.154-1.16-3.354l.582-.811c.321-.446 1.171-1.54 1.89-2.434.72-.891 1.552-2.11 2.396-3.786l1.297-.107c1.19-.098 1.304-.152 1.36-.65.035-.296.198-.93.367-1.406.236-.657.505-.952 1.13-1.235.453-.206 1.796-.764 2.985-1.242 1.77-.711 2.339-.848 3.137-.755m-56.288-.266c1.244-1.171 1.352-1.16 2.204-1.058.535.065 2.036.436 5.693 1.528l.935 1.298c.513.713 1.567 2.297 3.756 5.732l-1.101 2.759c-.603 1.518-1.163 2.854-1.244 2.974-.078.12-3.211 3.257-13.772 13.725l-1.081.008c-.595.004-1.861-.104-2.813-.242-1.728-.25-1.733-.251-3.206-1.677a43 43 0 0 1-2.704-2.925c-1.025-1.248-1.233-1.644-1.255-2.379-.013-.487-.093-1.809-.329-4.995l6.235-6.207c3.429-3.416 7.061-6.999 8.074-7.964zm249.881-1.153c.486 0 .828.184 1.218.65.296.356.661 1.042.81 1.52.147.478.368.872.487.874.12.002.362-.15.541-.34.178-.188.617-.341.974-.34.519.005.98.34 2.315 1.687 1.174 1.184 1.667 1.842 1.671 2.223.002.299-.188.762-.423 1.027-.234.269-.379.585-.319.704.059.119.472.326.92.46.446.135.993.394 1.216.576.272.222.398.584.379 1.107-.026.725-.617 1.368-8.52 9.27-5.496 5.496-8.641 8.49-8.922 8.492-.237.002-.652-.146-.918-.325-.269-.18-.635-.619-.812-.976-.179-.357-.324-.843-.324-1.081s-.098-.48-.217-.541c-.119-.058-.485.134-.812.43-.328.295-.839.536-1.135.539-.392.002-1.038-.494-2.327-1.78-1.276-1.274-1.788-1.938-1.792-2.326-.003-.296.24-.783.537-1.082.298-.296.494-.612.438-.703-.057-.089-.541-.357-1.075-.595-.536-.238-1.144-.685-1.352-.995-.289-.432-.328-.681-.162-1.064.121-.276 3.978-4.304 8.572-8.954 7.452-7.54 8.43-8.457 9.032-8.457M75.92 46.637c.504-.188 1.18-.273 1.623-.202.415.068 1.05.288 1.406.489.357.203.868.805 1.136 1.337.27.532.487 1.309.484 1.724-.002.418-.223 1.184-.489 1.705s-.774 1.126-1.13 1.345c-.358.219-1.065.403-1.57.405-.84.007-1.019.115-2.055 1.249-.625.683-1.816 1.95-2.65 2.818-1.28 1.332-1.624 1.577-2.92 1.564v5.409c0 4.375-.063 5.533-.324 6.057-.18.357-.644.833-1.029 1.056a8.6 8.6 0 0 1-1.46.642c-.6.189-.791.383-.923.946-.091.391-.163 1.124-.163 1.629.003.845-.056.947-.752 1.244-.418.18-1.002.324-1.298.324-.299 0-.883-.144-2.056-.648v-3.246l-.81-.123c-.448-.069-1.228-.361-1.732-.65-.506-.287-1.06-.791-1.228-1.12-.251-.483-.314-2.172-.335-8.924-.022-7.182.021-8.394.31-8.815.184-.267.845-.73 1.47-1.026.623-.296 1.818-.646 2.65-.778a9.5 9.5 0 0 1 2.92-.035c.772.114 1.965.465 2.65.779.736.34 1.398.824 1.623 1.188.222.363.51.572.703.516.178-.055 1.03-.794 1.895-1.642 1.168-1.148 1.604-1.737 1.705-2.301.074-.415.257-1 .409-1.298.149-.297.452-.71.672-.918s.792-.52 1.268-.7M-91.383 71.413c-.1 0-.411.225-.69.502-.323.314-.496.716-.47 1.082.022.318.187.872.366 1.229.178.356.64.89 1.028 1.185.387.294 1.069.636 1.514.757.558.153.996.152 1.407-.006.47-.181.527-.267.27-.41-.18-.099-.252-.287-.163-.421.089-.132.358-.24.596-.24s.48-.097.54-.216c.059-.119-.137-.217-.433-.217-.299 0-.906-.181-1.351-.404-.446-.223-1.11-.734-1.476-1.136-.363-.402-.73-.95-.812-1.218-.08-.265-.228-.486-.326-.487m-93.706-20.534c.653-.01 1.302.052 1.441.139.14.086.383.618.541 1.182.196.699.426 1.058.722 1.132.238.06.578.114.757.121.178.006.591-.381.92-.861.534-.787.664-.863 1.298-.759.385.065 1.385.448 2.218.852.863.42 1.955 1.182 3.58 2.817l-.835 1.947.465.58c.406.503.549.551 1.116.376.357-.108.915-.199 1.244-.199.471 0 .703.19 1.125.919.292.506.684 1.36.872 1.894.188.536.435 1.534.552 2.217.199 1.188.174 1.313-.548 2.758-.629 1.259-.718 1.599-.523 2.001.203.424.03.82-1.352 3.064-.871 1.415-1.731 2.62-1.91 2.684-.18.06-.959.526-1.732 1.034-1.317.865-1.516.931-4.843 1.06l-.446-.821c-.402-.742-.543-.832-1.47-.92-.961-.091-1.054-.051-1.407.556-.225.383-.558.649-.811.649-.238-.002-1.043-.297-1.785-.654-.744-.356-1.425-.793-1.514-.975-.091-.18-.091-.374 0-.433.091-.055.795.187 1.568.543.772.357 1.503.602 1.622.541.12-.059.62-.814 1.113-1.676.491-.862 1.027-1.738 1.189-1.948.266-.341.165-.442-1.057-1.053a35 35 0 0 1-2.759-1.588c-.775-.502-1.724-1.219-2.812-2.28l-.801 1.243c-.439.686-1.07 1.61-1.406 2.056-.333.448-.558.908-.498 1.028.059.118.79.752 1.623 1.406.832.655 1.481 1.312 1.441 1.46-.039.149-.21.298-.378.333-.169.034-1.067-.647-1.997-1.514-.931-.868-1.646-1.675-1.59-1.794.055-.12-.079-.752-.299-1.406-.359-1.062-.496-1.222-1.28-1.514-.485-.177-.981-.47-1.1-.65-.127-.184-.197-1.384-.162-2.812.03-1.367-.011-2.585-.093-2.704s.442-1.385 1.164-2.812c.723-1.428 1.424-2.722 1.56-2.875.134-.154.465-.275.733-.27.379.005.623-.265 1.112-1.236.346-.684.954-1.48 1.352-1.77.4-.29 1.214-.644 1.809-.787s1.616-.27 2.271-.281m41.911 12.322c-.03.005-.419.32-.865.703l-.811.695c.332 3.517.38 4.687.32 4.867-.069.199.629 1.16 1.808 2.488 1.056 1.19 2.152 2.375 2.438 2.635.337.307 1.156.597 2.356.835 1.034.207 2.17.307 2.596.23.415-.076.883-.258 1.036-.405.154-.145.277-.485.271-.753-.004-.266.225-1.143.512-1.947l.52-1.46c-2.354-3.185-3.319-4.621-3.661-5.246-.344-.623-.698-1.09-.787-1.034-.09.053-1.405-.288-2.921-.757-1.509-.47-2.769-.851-2.812-.85m262.533-13.804c-.39-.252-1.117.424-8.79 8.166-5.449 5.499-8.346 8.573-8.312 8.82.031.217.539.608 1.189.92.626.296 1.234.685 1.351.865.117.177.214.446.214.596.002.147-.234.536-.525.865l-.529.595 3.395 3.46c.839-.992 1.224-1.198 1.611-1.196.372.005.716.189.922.493.179.267.324.754.324 1.083-.002.343.203.779.485 1.032.267.24.583.435.703.438.122-.001 3.944-3.772 8.496-8.387 7.595-7.699 8.26-8.43 8.058-8.877-.134-.296-.414-.486-.708-.488-.268 0-.802-.195-1.189-.432-.513-.314-.706-.593-.71-1.026-.004-.329.19-.79.431-1.028l.437-.433c-3.344-3.346-3.352-3.35-3.782-2.925-.238.236-.627.43-.865.43s-.55-.07-.695-.159c-.143-.087-.447-.695-.675-1.348-.227-.655-.603-1.313-.836-1.464m-56.47 24.745c-.431-.154-.477-.106-.432.438.035.43.208.67.591.808.296.106.907.132 1.353.058.726-.123.81-.206.81-.788 0-.573-.056-.63-.486-.497a3.7 3.7 0 0 1-.92.151 3.3 3.3 0 0 1-.915-.17m-87.452-24.367c.178-.004.835.137 1.46.319.735.212 1.488.648 2.143 1.243.554.506 1.286 1.36 1.625 1.893.504.797.617 1.212.612 2.272-.002.872-.127 1.484-.38 1.858-.21.309-4.077 4.375-8.597 9.038-6.269 6.466-8.403 8.537-8.978 8.72-.418.129-1.147.192-1.623.138-.475-.056-1.34-.336-1.919-.623-.58-.29-1.402-.916-1.826-1.392s-.945-1.254-1.159-1.73c-.212-.476-.39-1.28-.391-1.785-.003-.504.101-1.185.229-1.514.13-.327 2.248-2.681 4.705-5.232 2.46-2.55 6.224-6.416 8.365-8.59 2.278-2.31 4.208-4.086 4.652-4.277.415-.18.902-.331 1.082-.338m-153.17 19.042c-.061.009-.683 1.058-1.379 2.334l-1.272 2.318c.627 1.09.858 1.407.919 1.408.06-.004.614-.806 1.23-1.787.616-.982 1.187-1.98 1.269-2.218.091-.262-.01-.755-.255-1.25-.222-.448-.453-.808-.512-.805m6.07.666c-.067.009-.608.31-1.203.67-.753.451-1.445.676-2.272.739-.655.047-1.259.16-1.341.25s-.642.968-1.243 1.948l-1.093 1.785c1.748 0 2.267-.198 3.515-.968 1.361-.841 1.712-1.196 2.663-2.704.6-.953 1.036-1.724.974-1.72m186.581-21.54c.57-.218 1.346-.305 2.272-.25.772.045 2.087.306 2.92.585.832.277 2.34 1.054 3.353 1.725 1.01.673 2.401 1.843 3.089 2.604.705.777 1.66 2.185 2.186 3.22.512 1.012 1.006 2.325 1.092 2.92.091.632.06 1.467-.076 2.001-.13.506-.707 1.53-1.285 2.272-.6.774-1.41 1.533-1.893 1.776-.527.266-1.408.45-3.87.566l-1.731 1.993a475 475 0 0 0-3.785 4.433c-1.131 1.339-2.3 2.523-2.597 2.63a10 10 0 0 1-1.243.32c-.387.07-1.264.022-1.947-.108-.686-.13-1.824-.543-2.534-.92-.707-.375-1.809-1.22-2.447-1.875-.636-.653-1.415-1.724-1.728-2.38-.316-.653-.615-1.627-.666-2.163-.05-.534-.031-1.336.044-1.784.107-.632.674-1.42 2.57-3.57 1.338-1.517 2.988-3.44 3.668-4.273 1.222-1.497 1.233-1.523 1.004-2.38-.126-.476-.195-1.405-.152-2.067.065-1.004.245-1.455 1.082-2.705.554-.824 1.185-1.666 1.406-1.87.22-.2.792-.516 1.268-.7m-41.208 4.355c-.132-.6-.265-.487-4.346 3.69a1863 1863 0 0 0-8.05 8.297c-3.361 3.493-3.857 4.1-3.976 4.857-.08.508-.017 1.222.15 1.73.155.476.631 1.242 1.055 1.703.424.46 1.233 1.068 1.798 1.352.565.283 1.295.515 1.622.517.489.004 1.381-.792 5.03-4.489a1575 1575 0 0 0 7.842-8.007c1.873-1.934 3.455-3.514 3.516-3.514.058 0 .042.12-.035.27-.08.146.12.026.437-.27.32-.298.579-.614.577-.704-.004-.09-.42-.257-.925-.372-.53-.12-1.445-.625-2.164-1.19-.826-.651-1.436-1.36-1.819-2.115-.318-.625-.638-1.415-.712-1.755m-93.804 6.648c-.015-.032-2.755 2.686-6.091 6.04-5.947 5.981-6.077 6.131-6.529 7.51-.251.773-.459 1.478-.457 1.568.001.09 2.703-2.538 5.999-5.841l5.999-6.004c.853-2.482 1.091-3.235 1.079-3.273M-90.27 69.9a.73.73 0 0 0-.392.145c-.1.08-.165.373-.145.65.02.276.173.772.34 1.098.168.329.532.802.81 1.058.28.253.825.619 1.212.811s.995.349 1.352.349.794-.048.974-.109c.177-.058.324-.205.324-.324s-.245-.217-.54-.217c-.3 0-.907-.184-1.352-.409s-1.087-.685-1.42-1.027c-.333-.34-.686-.934-.779-1.322-.095-.384-.268-.701-.384-.703M63.8 72.711c-1.355 0-1.404.02-1.404.54 0 .44.132.568.703.676.387.071.995.04 1.351-.072.426-.134.667-.365.703-.674.05-.44-.037-.47-1.352-.47M11.925 57.138c-.076 0-.24.195-.361.432-.124.238-.188.554-.145.703.043.15-.005.441-.108.649-.117.24-.106.34.03.27.119-.06.216-.01.216.109s-.147.215-.324.216c-.18 0-.322.074-.318.163 0 .09-.486.723-1.082 1.405-.699.798-1.136 1.147-1.22.974-.071-.15.156-.563.508-.92.35-.356.97-1.112 1.374-1.676.405-.565.664-1.075.575-1.136-.088-.058-.478.306-.865.81-.387.502-1.75 2.11-3.028 3.569-2.321 2.646-2.326 2.655-2.33 3.788-.005.826.169 1.489.634 2.434.363.74 1.133 1.772 1.789 2.4.631.605 1.66 1.359 2.286 1.675.625.316 1.6.68 2.164.808.707.157 1.296.162 1.892.01.764-.195 1.22-.647 3.892-3.855 1.666-1.999 3.32-3.898 3.678-4.223.49-.443.571-.61.327-.68-.18-.05-.811-.259-1.406-.464s-1.763-.792-2.596-1.302-2.11-1.547-2.835-2.3c-.725-.755-1.61-1.933-1.962-2.616-.354-.683-.707-1.242-.785-1.243m-152.558 8.854c.239-.002.92.234 1.515.524.595.287 1.414.897 1.821 1.353.407.457.918 1.219 1.132 1.695.214.475.393 1.23.396 1.676.004.634-.15.963-.699 1.5-.612.596-.816.672-1.568.581-.476-.058-1.305-.355-1.839-.66-.573-.327-1.312-1.034-1.792-1.718-.586-.83-.832-1.423-.869-2.07-.026-.498-.024-1.155.009-1.46.037-.357.307-.707.759-.986.387-.236.897-.433 1.135-.435m-39.579 2.468c-.242-.11-.289.01-.216.541.074.526-.13 1.053-.879 2.304-.535.892-.972 1.717-.973 1.838 0 .12.26.194.578.164.478-.044.794-.41 1.823-2.11.686-1.129 1.253-2.177 1.262-2.326.008-.16-.251-.27-.634-.27-.357 0-.79-.063-.961-.141m90.4.726c-.09.076-.15.389-.135.696.017.307.324.973.685 1.477.446.626.95 1.028 1.576 1.257.506.186 1.299.307 1.766.27s.881-.188.92-.337c.039-.151-.048-.214-.2-.143-.148.07-.611.024-1.027-.101-.417-.126-1.147-.503-1.623-.84-.475-.338-1.074-1.018-1.332-1.516-.255-.495-.54-.839-.63-.763m-51.318-2.327c-.095 0-.31.118-.476.26-.167.143-.285.508-.264.81.022.303.152.895.29 1.31.136.416.551 1.082.921 1.48.372.396.967.923 1.324 1.17.614.424.606.402-.134-.398a12.3 12.3 0 0 1-1.347-1.82c-.31-.536-.567-1.094-.57-1.243-.002-.15.07-.273.159-.273.088 0 .276.315.417.703s.627 1.082 1.082 1.54c.454.459 1.142.97 1.529 1.136.387.164.898.3 1.136.3.239 0 .432-.144.432-.323s-.171-.327-.378-.331c-.337-.007-.333-.044.054-.342.43-.333.428-.338-.067-.697a33 33 0 0 1-1.081-.829c-.321-.26-.535-.528-.474-.6.06-.069.378.07.703.308.327.238.595.362.595.273-.003-.09-.252-.455-.557-.812-.348-.41-.585-.547-.646-.377-.052.148-.193.27-.312.27s-.313-.292-.432-.65c-.141-.423-.362-.649-.639-.649-.348 0-.397.105-.287.596.121.547.103.568-.24.27-.206-.18-.416-.495-.47-.703-.052-.207-.173-.378-.268-.379m53.002.572c-.119-.065-.39.058-.603.274-.212.214-.366.625-.34.913.024.288.261.857.525 1.264.264.404.968 1.012 1.563 1.35.595.335 1.421.616 1.839.623.423.006.899-.141 1.08-.334.293-.309.251-.344-.432-.341-.418 0-1.1-.186-1.515-.415-.417-.228-.709-.418-.648-.42.06-.004.596.139 1.19.318.594.177 1.324.317 1.622.309q.542-.014-.865-.54c-.928-.349-1.72-.843-2.33-1.45-.506-.507-.91-1.037-.895-1.18a.42.42 0 0 0-.19-.371m146.58-3.484c.056 4.171.158 5.97.35 6.279.148.237.75.672 1.338.964.83.416 1.495.553 3.013.62 1.337.058 2.32-.023 3.137-.254.684-.193 1.488-.617 1.893-.995l.703-.66c0-9.033-.024-11.672-.054-11.688-.03-.002-.59.235-1.244.53-.656.293-1.823.636-2.596.759a8.9 8.9 0 0 1-2.812.007c-.775-.12-1.947-.483-2.607-.81l-1.2-.594zm62.448-9.86c.248-.004.873.362 1.385.811.716.625.919.948.865 1.36-.047.375-.219.559-.556.595-.268.03-.592.274-.72.541-.169.351-.169.548.002.704.132.119.237.387.235.594-.002.208-.393.67-.869 1.028-.474.356-.936.645-1.027.642-.089-.002-.31-.146-.487-.32-.286-.278-.435-.207-1.25.6-.807.798-.927 1.036-.92 1.836.004.746-.119 1.041-.659 1.569-.546.532-.847.65-1.673.65-.926 0-1.085.084-1.95 1.027-.936 1.023-.94 1.032-.653 1.838.27.757.257.847-.203 1.298-.383.381-.741.487-1.623.487-1.059 0-1.129.033-1.129.54 0 .299-.073.663-.162.812s-.333.269-.541.269c-.208-.003-.842-.538-1.406-1.19-.928-1.073-.995-1.22-.688-1.512.188-.18.48-.324.649-.325.17 0 .407-.195.526-.432.151-.303.136-.594-.055-.97-.233-.463-.212-.597.162-.991.239-.251.774-.655 1.191-.9.642-.376.839-.402 1.298-.18.497.243.603.193 1.351-.62.664-.723.788-.991.676-1.478q-.136-.595.271-1.298c.223-.385.698-.86 1.055-1.055s.917-.316 1.243-.27c.461.064.79-.112 1.478-.784.811-.791.863-.911.63-1.406-.143-.297-.199-.76-.128-1.028s.372-.632.671-.811c.393-.236.66-.266.973-.109a.92.92 0 0 0 .866 0 .72.72 0 0 0 .396-.605v-.322c.015-.204.07-.383.145-.442.1-.08.383-.149.631-.153m.517.629c-.29-.16-.37-.112-.379.236-.006.242-.329.695-.716 1.004-.486.39-.87.528-1.244.45a1.03 1.03 0 0 0-.915.248c-.357.342-.356.392 0 .935.37.564.363.587-.383 1.491-.417.506-1.001 1.092-1.297 1.302-.379.266-.657.323-.92.184-.223-.114-.58-.117-.866-.005-.268.104-.681.403-.919.663-.341.374-.402.64-.286 1.27.137.75.076.868-1.081 2.053-1.163 1.192-1.281 1.257-2.202 1.216-.534-.024-1.094-.031-1.244-.014-.188.02-.234.276-.148.84.085.553.016.965-.215 1.298-.186.268-.608.586-.935.71l-.596.22c1.171 1.17 1.588 1.51 1.677 1.508s.161-.223.156-.491c-.004-.268.167-.652.379-.85.226-.214.831-.394 1.466-.433.813-.052 1.071-.15 1.034-.394-.026-.18-.108-.617-.183-.973-.121-.584 0-.781 1.237-1.984 1.267-1.232 1.432-1.328 2.131-1.218.664.104.833.028 1.374-.61.512-.61.59-.857.475-1.488-.127-.686-.046-.853.849-1.785.744-.776 1.144-1.028 1.633-1.028.354 0 .692.097.753.216.06.119.182.214.27.21.09-.005.382-.2.65-.433.414-.365.447-.487.216-.852-.197-.31-.21-.586-.048-1.028.138-.373.464-.678.866-.808.352-.114.689-.236.75-.27.059-.039-.137-.318-.433-.626-.298-.308-.705-.652-.906-.764m-305.54-2.881c-1.842-.07-2.816.046-3.351.21-.536.162-1.094.45-1.244.638-.225.283-.16.487.378 1.207l.65.866c-.921 1.496-1.287 1.937-1.407 1.944-.119.006-.726-.21-1.351-.48-.624-.27-1.178-.443-1.232-.383-.052.058-.709 1.227-1.46 2.597l-1.365 2.487c.085 3.269.182 4.214.271 4.208.09-.009.716-.908 1.392-2.001 1.112-1.797 1.218-2.07 1.082-2.806-.091-.5-.064-.816.068-.818.119-.001.387.39.594.87.355.815.44.872 1.298.894.506.01 1.136.084 1.4.162.279.08.805.683 1.251 1.438.423.713.767 1.368.763 1.46-.004.089-.372.316-.818.504l-.811.342a17.4 17.4 0 0 0 2.705 2.228c.772.51 1.795 1.124 2.271 1.362.476.235 1.083.49 1.352.566.445.123.487.062.487-.73 0-.475.073-.898.162-.942.09-.04.985.03 1.988.162l1.826.24.891 2.084c1.949-.217 2.869-.535 3.733-1.013.743-.411 1.351-.844 1.351-.963-.001-.12-.487-.559-1.081-.974-.595-.417-1.086-.83-1.091-.919-.006-.09.141-.309.327-.486.186-.18.385-.691.441-1.137l.106-.81 2.656.324c-.253-1.845-.607-2.99-.951-3.731-.417-.909-.749-1.353-1.002-1.353-.207.002-.768.104-1.244.227l-.865.227-2.003-2.293c.965-1.09 1.246-1.456 1.246-1.515-.002-.062-.367-.457-.811-.88-.446-.426-1.396-1.051-2.11-1.393-.713-.34-1.478-.648-1.702-.687-.236-.04-.593.172-.865.516-.379.48-.413.645-.191.92.216.268.216.357 0 .447-.149.063-.709-.034-1.244-.22-.536-.184-1.168-.33-1.406-.328-.337.004-.504-.245-.757-1.132zm100.47 13.828c-.235-.067-.599.286-1.135 1.095-.434.657-.79 1.243-.79 1.303.003.061.757.39 1.677.733.921.342 2.237.78 2.92.973a65 65 0 0 0 1.299.357c.03.005.331-.41.67-.92.34-.51 1.022-1.29 1.515-1.73l.898-.803c-2.278.01-2.344.037-1.948.32.238.169.359.38.269.472-.089.09-.82-.145-1.623-.522-.803-.378-1.898-.798-2.432-.932a59 59 0 0 1-1.32-.346m-2.736 2.934c-.03.002-.054.054-.054.112 0 .06.413.342.92.628.506.287 1.259.581 1.676.657.556.1.324-.067-.865-.634-.89-.42-1.64-.762-1.677-.763m-36.67-17.077c-.031.006-3.073 2.963-6.761 6.572l-6.707 6.563c1.309 1.969 2.129 3.124 2.666 3.838a67 67 0 0 0 1.159 1.514c.117.134 2.698-2.304 6.759-6.382l6.572-6.598a70 70 0 0 0-2.469-3.84c-.638-.917-1.183-1.662-1.219-1.667M18.715 65.665c.108.06.13.234.048.383-.085.15-.742.98-1.46 1.847-.72.867-1.382 1.549-1.472 1.515-.088-.035-.158-.16-.151-.28s.648-.974 1.424-1.897c.776-.925 1.5-1.63 1.61-1.568m1.146.33c.161 0-.35.779-1.137 1.728-.788.951-1.456 1.682-1.487 1.622-.027-.063.485-.838 1.138-1.729.653-.89 1.323-1.62 1.486-1.622m-94.045-.088c-.043-.052-.764.337-1.605.865-.844.53-1.787 1.28-2.095 1.666-.306.387-.556.776-.557.866 0 .09.741-.299 1.645-.865.904-.565 1.879-1.344 2.164-1.731.286-.385.486-.747.448-.8m91.344-.103c.24-.512.406-.662.56-.498.151.162.026.492-.406 1.058a26 26 0 0 1-1.515 1.741c-.488.507-.958.92-1.049.92-.089 0 .34-.563.954-1.247.612-.683 1.268-1.572 1.456-1.974m-.69-1.108c.153 0 .326.074.383.162.053.09-.247.504-.666.92-.422.414-1.102 1.22-1.508 1.784s-.887 1.026-1.065 1.028c-.18 0-.325-.048-.325-.109.005-.063.538-.742 1.19-1.513.654-.774 1.307-1.6 1.45-1.84.143-.237.385-.432.54-.432m-204.592-1.934c-.062.012-.901 1.208-1.867 2.659-1.268 1.905-1.705 2.73-1.569 2.964.119.203.251.244.353.108.091-.12.723-1.067 1.406-2.11.684-1.04 1.366-1.892 1.515-1.895.149-.002.415-.09.595-.199.287-.173.287-.27 0-.87-.18-.37-.374-.667-.433-.657m203.62 1.285c.095 0 .173.074.178.162.002.089-.254.407-.571.703-.316.299-1.048 1.102-1.627 1.785-.58.684-1.104 1.147-1.162 1.028-.06-.12.109-.486.373-.812.266-.327.967-1.106 1.561-1.73.592-.625 1.155-1.136 1.248-1.136m-101.295-4.184c-.134-1.241-.147-1.263-.5-.811-.33.421-.322.54.55 2.287q.122.235.251.49c.519 1.04 1.006 2.111 1.082 2.38.045.16.049.3.022.39-.019.067-.054.108-.105.108-.119 0-.218-.121-.223-.27-.001-.092-.18-.537-.449-1.14-.15-.33-.327-.705-.517-1.089-.401-.806-.748-1.543-.895-1.896l-.187-.39c-1.198 1.444-1.611 1.987-1.692 2.135-.082.149.287 1.27.821 2.488.532 1.22 1.103 2.41 1.266 2.65.283.41.344.367 1.205-.866l.91-1.298c1.743.411 2.266.509 2.29.483.017-.03-.516-.498-1.19-1.04-.764-.613-1.473-1.435-1.866-2.165a7.1 7.1 0 0 1-.773-2.446m-97.13-3.97c1.661.059 1.995.148 3.452.917.887.47 2.086 1.342 2.666 1.937.579.595 1.296 1.568 1.592 2.163.448.896.53 1.331.472 2.53-.063 1.316-.138 1.516-.827 2.227-.511.525-1.146.892-1.946 1.121-.786.227-1.558.296-2.272.207-.595-.076-1.666-.412-2.38-.752-.714-.337-1.835-1.05-2.488-1.58-.656-.532-1.544-1.545-1.977-2.252-.432-.707-.855-1.674-.937-2.15-.08-.476-.045-1.255.078-1.73.123-.479.541-1.176.935-1.556.391-.381.954-.794 1.252-.92.298-.125 1.369-.198 2.38-.161m-9.736 7.97-1.3 2.142c1.761.822 2.276 1.042 2.282 1.018.014-.037.673-1.073 1.469-2.316.8-1.247 1.45-2.34 1.447-2.434-.004-.088-.275-.162-.601-.162-.327.002-.911-.087-1.296-.195l-.7-.194zm207.041-.681c.114 0 .244.121.287.27s-.662 1.022-1.568 1.939c-.904.914-1.72 1.621-1.809 1.568-.088-.055.407-.708 1.102-1.452.694-.744 1.378-1.57 1.518-1.84.143-.267.353-.485.47-.485m-185.372 1.514c-.924-.119-.937-.11-1.132.649-.173.668-.136.818.285 1.142.266.206.559.377.648.38.089 0 .37-.41.627-.916.255-.504.474-.968.487-1.028.008-.059-.402-.162-.915-.227m87.905-8.857c-.767 0-1.034.1-1.28.487-.17.266-.474 1.07-.671 1.784-.292 1.05-.315 1.494-.125 2.327.128.564.368 1.293.532 1.622.165.326.876 1.13 1.581 1.785.706.653 1.764 1.43 2.352 1.724.768.385 1.528.56 2.691.623 1.55.085 1.692.05 3.171-.75l1.547-.84c-.638-1.928-.92-2.44-1.04-2.38-.119.06-.412.498-.65.973-.237.476-.748 1.08-1.135 1.342-.385.262-1.14.516-1.677.569-.558.053-1.434-.055-2.055-.254-.685-.22-1.555-.77-2.38-1.505-.713-.636-1.434-1.49-1.603-1.9-.205-.497-.259-1.094-.166-1.821.1-.766.396-1.447 1.008-2.325.478-.686.87-1.294.87-1.353-.002-.06-.436-.108-.97-.108m-102.326 4.557a6 6 0 0 0-.863.123c-.238.054-.407.188-.379.298.029.11.563.234 1.187.273.634.039 1.663.317 2.327.629.653.307 1.654 1.03 2.223 1.605.571.576 1.203 1.46 1.406 1.967.206.504.446.916.535.919.088 0 .21-.097.27-.216.058-.12.017-.583-.093-1.028-.113-.446-.632-1.298-1.155-1.893-.547-.623-1.449-1.326-2.122-1.659-.645-.316-1.562-.682-2.038-.81-.476-.127-1.06-.221-1.298-.209m.041 1.49c-.512-.002-.575.056-.4.376.112.207.7.841 1.308 1.406s1.714 1.32 2.458 1.677c.744.356 1.472.649 1.622.65.149-.001.271-.05.271-.11-.001-.059-.139-.377-.307-.702-.169-.327-.679-.955-1.136-1.394s-1.365-1.047-2.018-1.35c-.655-.302-1.462-.55-1.798-.553m1.04-2.665c-.595-.067-1.419-.029-1.83.086-.41.114-.726.303-.703.42.026.114.653.192 1.397.169 1.112-.033 1.604.077 2.759.623.85.4 1.865 1.123 2.562 1.826.636.638 1.343 1.527 1.568 1.972.227.446.413 1.006.413 1.245q0 .432.379.376c.237-.036.398-.275.433-.649.03-.327-.105-.909-.297-1.296-.195-.387-.706-1.17-1.136-1.744-.433-.571-1.224-1.322-1.759-1.666-.536-.344-1.363-.763-1.839-.932-.475-.168-1.352-.363-1.947-.43m197.57 2.885a.253.253 0 0 1 .261.264c-.002.15-.556.903-1.226 1.677-.673.773-1.326 1.524-1.455 1.668-.127.145-.361.195-.521.108-.214-.114-.088-.375.496-1.02a33 33 0 0 0 1.478-1.778c.382-.501.817-.914.966-.919m-195.947-5.518q-1.19-.12-2.056.207c-.474.181-.923.409-1.001.509-.075.1.411.136 1.082.082.67-.054 1.705.01 2.299.147.595.134 1.398.44 1.786.675.385.237.676.481.648.545-.03.063-.688-.089-1.46-.34-.774-.25-1.942-.458-2.596-.465-.677-.004-1.493.143-1.893.342-.385.189-.699.37-.703.402 0 .03.755.055 1.676.057 1.426 0 1.889.1 3.083.668.773.368 1.93 1.147 2.571 1.731.685.623 1.42 1.573 1.784 2.304.341.683.627 1.414.637 1.622.013.325.043.316.201-.053.101-.239.19-.726.196-1.083.004-.357-.181-1.062-.417-1.568q-.428-.921-.158-.848c.149.04.489.453.753.92.266.464.488 1.14.493 1.496.011.593.033.613.251.217.132-.238.192-.775.136-1.19-.059-.416-.34-1.232-.625-1.809-.288-.577-1.033-1.525-1.658-2.11-.625-.581-1.743-1.347-2.487-1.7-.744-.352-1.888-.693-2.542-.758m195.154 4.646c.076 0 .128.094.116.206-.016.114-.588.892-1.27 1.73-.683.838-1.363 1.527-1.515 1.534-.149.004.197-.506.77-1.136.571-.63 1.2-1.412 1.397-1.739.2-.326.424-.594.502-.595m-.054-9.431c-.076-.047-.21.279-.298.728-.089.45-.12 1.256-.067 1.792.052.535.454 1.726.893 2.65.617 1.293 1.21 2.088 2.585 3.472 1.287 1.298 2.237 2.032 3.407 2.633.892.46 2.11.965 2.704 1.123.595.156 1.666.28 2.38.277.861-.005 1.554-.146 2.056-.42l.757-.415c-2.012-.007-3.278-.217-4.11-.472-.834-.253-1.955-.681-2.489-.95-.536-.268-1.728-1.086-2.65-1.815-.947-.748-2.092-1.912-2.635-2.676-.526-.744-1.2-1.888-1.497-2.541-.299-.656-.623-1.665-.72-2.245s-.24-1.093-.316-1.141m-94.554 5.821c-.29.385-.714 1.014-.943 1.4-.379.629-.39.783-.123 1.623.183.58.668 1.282 1.297 1.883.552.528 1.492 1.184 2.086 1.456.81.37 1.3.46 1.947.364.475-.072.958-.214 1.071-.318.12-.11-.08-.188-.486-.188-.381 0-1.203-.19-1.828-.42-.623-.232-1.282-.582-1.461-.781-.27-.3-.136-.285.811.095.625.251 1.696.507 2.38.57l1.244.114 1.514-2.105c-1.676-.244-2.553-.492-3.028-.706a11.7 11.7 0 0 1-1.731-1.027c-.476-.348-1.17-1.09-1.545-1.649l-.68-1.014zm-46.871-8.277c-.164 0-2.209 1.871-4.543 4.16-2.336 2.288-5.367 5.25-6.734 6.58l-2.489 2.418c3.353 1.008 4.643 1.356 5.031 1.426.674.12.883-.05 5.191-4.254 2.468-2.408 5.489-5.354 6.711-6.544s2.22-2.213 2.22-2.272c-.005-.06-1.15-.424-2.546-.811-1.399-.385-2.678-.7-2.841-.703M11.842 60.198c.117.035.249.184.29.333s-.606 1.003-1.439 1.894c-.831.892-1.561 1.523-1.622 1.406-.06-.12.442-.875 1.11-1.677.67-.802 1.272-1.585 1.333-1.739.063-.153.211-.251.328-.217m4.904-11.718c-.575 0-1.365.201-1.934.489-.744.376-1.056.707-1.38 1.46-.312.727-.383 1.22-.277 1.947.08.534.471 1.655.871 2.487s1.249 2.134 1.887 2.889c.636.757 1.741 1.815 2.455 2.351.714.535 1.833 1.247 2.489 1.578.653.33 1.774.757 2.488.945s1.687.342 2.163.342c.476-.003 1.278-.195 1.784-.429.506-.236 1.032-.649 1.171-.915.14-.268.329-.829.422-1.244.095-.429.067-1.227-.063-1.839-.127-.595-.572-1.763-.987-2.596-.55-1.105-1.233-1.981-2.526-3.245-1.231-1.2-2.3-2.008-3.492-2.63-.945-.494-2.254-1.054-2.908-1.247-.655-.19-1.628-.346-2.163-.343m-93.836 2.827c-.089.008-.357.104-.594.212-.239.11-.994.396-1.677.636-1.132.396-1.285.53-1.704 1.465-.44.978-.447 1.077-.124 2.108.199.636.733 1.529 1.295 2.165.526.594 1.435 1.343 2.017 1.666s1.545.679 2.14.794c.623.12 1.494.131 2.054.03.745-.139 1.141-.377 1.684-1.011.668-.785.707-.924.703-2.508-.006-1.64-.017-1.673-.493-1.515-.268.088-.829.153-1.244.144-.418-.009-1.22-.277-1.785-.593-.565-.318-1.24-.895-1.5-1.28-.257-.387-.501-1.069-.54-1.515-.04-.447-.143-.804-.232-.798m96.041-.024c.835 0 1.526.18 2.505.649.744.356 1.802 1.112 2.354 1.676.549.565 1.22 1.467 1.486 2.001.268.537.554 1.266.639 1.623.095.413.025.944-.19 1.46-.213.506-.564.9-.935 1.047-.327.128-.985.197-1.461.15s-1.445-.373-2.155-.723-1.804-1.146-2.433-1.771c-.63-.626-1.39-1.623-1.686-2.218-.298-.595-.534-1.43-.523-1.856.01-.542.2-.96.632-1.406.527-.543.779-.632 1.767-.632m39.507 4.381c-.08-.048-.13.385-.108.963.04 1.025.07 1.065 1.123 1.636.619.335 1.778.693 2.704.84 1.373.219 1.888.204 3.352-.1.978-.2 2.086-.59 2.542-.895.738-.49.812-.627.812-1.511 0-.536-.072-.945-.162-.912-.089.037-.746.353-1.46.704-1.199.59-1.48.64-3.678.64s-2.477-.05-3.678-.64a66 66 0 0 1-1.447-.725m-39.435-3.85c-.688-.109-.953-.053-1.284.278-.261.26-.402.671-.379 1.101.022.377.137.686.256.686s.168.145.108.324.17.738.506 1.244c.338.506 1.043 1.277 1.569 1.714s1.488 1.045 2.143 1.35c.656.307 1.459.556 1.786.558s.842-.12 1.142-.268c.432-.214.545-.429.538-1.028-.004-.424-.28-1.233-.627-1.839-.341-.594-1.095-1.514-1.674-2.044-.582-.53-1.543-1.184-2.138-1.45-.595-.268-1.47-.548-1.947-.626M72.342 56.5c-.06.008-.572.373-1.14.812-.57.439-.91.83-.757.874.152.04.667-.326 1.14-.812.473-.488.814-.882.757-.874m-2.165-2.393c-.242 0-.494.13-.559.29-.065.163-.088.961-.05 1.779l.073 1.486 1.462-1.283c-.442-2.052-.574-2.272-.926-2.272m-94.427-3.42c-.642-.064-.965.016-1.246.312-.21.22-.331.572-.27.781.06.208.208.328.327.27.119-.06.31.306.422.811.149.66.502 1.206 1.244 1.935.57.558 1.306 1.117 1.633 1.243.326.125.91.234 1.297.238.387.007.85-.149 1.029-.345.233-.258.279-.561.162-1.091-.09-.405-.478-1.182-.865-1.727-.388-.543-1.19-1.293-1.786-1.665-.594-.37-1.47-.714-1.947-.762m97.893.634c-.06.011-.663.619-1.342 1.348l-1.233 1.328.547 2.164c2.106-2.01 2.808-2.766 2.914-2.974.139-.27.054-.596-.292-1.134-.267-.415-.535-.743-.594-.732m-9.519.513c-.774-.054-1.943.022-2.597.17-.655.148-1.518.461-1.922.697s-.868.625-1.037.863c-.272.388-.242.506.301 1.149.37.439 1.02.857 1.685 1.082.744.25 1.723.357 3.137.34 1.341-.016 2.393-.152 3.029-.39.534-.201 1.194-.577 1.467-.839.27-.261.488-.647.486-.854-.005-.21-.275-.626-.602-.927-.326-.303-1.034-.692-1.568-.87-.537-.176-1.607-.367-2.379-.421M-190 54.36l-.472.935c1.104.54 1.193.522 1.533.067.205-.274.373-.548.376-.607.001-.061-.215-.384-.483-.719l-.484-.612zm115.052-3.715c-.34 0-.796.177-1.012.395-.218.216-.38.484-.361.595.02.108.153.075.298-.072.145-.149.342-.27.437-.27s.123.195.065.433c-.061.238.037.675.216.973.178.297.64.736 1.028.972.387.238.92.432 1.19.433.267.002.64-.219.826-.485l.34-.487c-.11.843-.366 1.186-.68 1.343l-.54.273c.836.015 1.258-.153 1.477-.365.277-.27.36-.565.27-.98-.069-.33-.44-.953-.828-1.387s-1.019-.922-1.406-1.083-.98-.288-1.32-.288M77.459 47.4c-.513 0-.892.176-1.285.595-.307.327-.656.837-.775 1.136-.118.296-.225.393-.236.216-.01-.18.21-.69.49-1.136.28-.447.449-.81.373-.81-.075 0-.471.345-.882.767-.66.683-.745.902-.745 1.932 0 .841.126 1.329.455 1.772.25.337.688.646.973.69.48.073.496.05.195-.32-.313-.388-.304-.387.271-.026.327.207.863.378 1.19.383.326.004.862-.19 1.189-.433.327-.242.704-.805.838-1.251.134-.448.18-1.177.107-1.622-.089-.532-.359-1-.783-1.353-.409-.341-.917-.54-1.375-.54m-1.303 1.064c.23-.317.413-.423.453-.264.036.15-.03.465-.149.703a2.4 2.4 0 0 0-.215.92c0 .269.146.755.325 1.081.286.528.285.595-.003.595-.18 0-.422-.242-.54-.54-.12-.297-.225-.86-.238-1.251-.01-.39.153-.95.367-1.244M111.98 1.096c.901 0 1.017.084 5.908 4.999l1.118.04c.856.033 1.253.167 1.696.583.32.296.716.809.885 1.135.167.327.303.912.301 1.3 0 .611.35 1.053 2.706 3.406 2.271 2.27 2.706 2.808 2.702 3.353-.002.357-.076.763-.164.904-.087.141-2.25 2.383-4.81 4.979-2.557 2.598-5.99 6.109-7.626 7.803-2.782 2.881-3.027 3.08-3.786 3.085-.752.002-1.012-.2-3.623-2.811-2.074-2.074-2.984-2.84-3.462-2.914-.396-.06-.964-.441-1.46-.976-.445-.482-.88-1.144-.965-1.47-.093-.36-1.25-1.666-2.922-3.3-2.088-2.039-2.767-2.835-2.767-3.244 0-.299.36-1.078.796-1.73.437-.654 3.468-3.918 6.736-7.249 3.269-3.331 6.362-6.47 6.873-6.976.805-.796 1.057-.92 1.864-.917m-5.476 24.884c-.071 0-.309.18-.525.399-.219.216-.382.484-.365.595.018.108 1.156 1.293 2.528 2.632 1.37 1.336 2.566 2.432 2.656 2.434.089.002.392-.17.671-.379l.509-.378c-4.136-4.105-5.4-5.3-5.474-5.303m15.01-15.078c-.091-.026-.946.777-1.898 1.783s-4.165 4.315-7.139 7.357l-5.409 5.53c2.514 2.522 3.715 3.66 4.29 4.158l1.045.902c10.86-10.897 14.058-14.207 14.112-14.387.057-.2-.852-1.279-2.369-2.811-1.354-1.364-2.536-2.503-2.632-2.532M-177.95 3.324c1.077.035 1.733.205 2.812.729.877.428 1.924 1.2 2.781 2.055.912.909 1.594 1.84 2.029 2.774.359.774.744 1.99.852 2.704q.2 1.298-.039 2.38c-.132.595-.424 1.373-.649 1.73-.226.358-3.116 3.345-6.423 6.637-5.895 5.865-6.04 5.993-7.312 6.35-.969.272-1.629.322-2.596.199-.751-.095-1.893-.46-2.704-.867-.937-.468-1.837-1.165-2.69-2.076-.748-.802-1.551-1.958-1.931-2.78-.491-1.053-.675-1.81-.742-3.028-.067-1.224.007-1.86.305-2.596.264-.653 1.069-1.65 2.453-3.035a1011 1011 0 0 1 6.498-6.396c3.046-2.972 4.671-4.405 5.193-4.577.415-.136 1.389-.227 2.163-.203m194.214.798c.283.81.528 1.133.973 1.298.541.197.645.147 1.136-.541.348-.487.714-.754 1.027-.75.269.002 1.072.32 3.084 1.4v1.153c0 1.01.073 1.202.594 1.568.483.335.781.385 1.569.253.87-.145 1.03-.104 1.493.379.285.296.774.93 1.088 1.406.313.476.566 1.035.562 1.243s-.244.647-.536.974c-.463.517-.495.651-.249 1.027.156.238.746.578 1.313.758.568.177 1.11.422 1.203.541s.203 1.008.244 1.977c.071 1.693.046 1.8-.63 2.758-.698.991-.7 1.002-.323 1.649.374.646.368.666-.354 2-.402.742-.888 1.527-1.081 1.742-.23.257-.522.35-.838.27-.404-.099-.578.044-1.027.853-.312.562-.84 1.125-1.244 1.33-.675.344-.729.34-1.352-.114-.357-.26-.722-.469-.811-.465s-.48.451-1.569 1.978l-4.11-.133-.344-1.081c-.27-.846-.472-1.117-.92-1.244-.486-.137-.684-.043-1.981 1.386l-1.622-.74c-.892-.404-1.745-.9-1.894-1.097-.13-.174-.2-.394-.178-.526l.036-.114c.038-.192.02-.712-.128-1.884H6.366l-.973-1.46c-.537-.802-.974-1.63-.974-1.839 0-.208.24-.745.534-1.19.318-.485.457-.898.345-1.028-.104-.119-.563-.35-1.022-.514-.456-.162-.955-.407-1.109-.541-.186-.16-.277-.805-.27-1.92.006-1.304.104-1.82.441-2.325.307-.46.395-.854.309-1.352-.091-.526.004-.877.378-1.394.278-.38.892-1.252 1.368-1.94.476-.686 1.387-1.763 2.025-2.393.638-.627 1.296-1.141 1.46-1.141.167 0 .617.195 1.004.432.387.236.753.435.811.439.063.001.423-.484.805-1.08l.695-1.09h3.692zM-119.93.663c.392.002 1.147.22 1.677.486a3.94 3.94 0 0 1 1.573 1.458c.444.714.603 1.249.601 2.001-.002.805-.108 1.112-.488 1.417-.269.212-1.85 1.77-6.544 6.528l.592 1.137c.325.628.68 1.627.786 2.222.112.63.114 1.376.002 1.785-.104.387-.483.946-.84 1.244-.357.297-.917.552-1.243.565-.327.01-.888.004-1.245-.016-.356-.02-1.281-.33-2.055-.69-.772-.358-1.674-.84-2.596-1.482l-.703.572c-.387.316-3.016 2.797-5.841 5.516-3.207 3.089-5.3 4.945-5.571 4.946-.238 0-.651-.11-.919-.243-.268-.134-.708-.452-.981-.703-.359-.337-.486-.692-.475-1.326.013-.841.17-1.018 11.462-12.007l-.447-.703c-.244-.387-.64-1.14-.877-1.677-.238-.536-.522-1.362-.63-1.838-.117-.519-.117-1.168 0-1.623.108-.417.374-.98.589-1.254.216-.273.733-.58 1.148-.68.43-.103 1.177-.097 1.73.017.537.11 1.489.466 3.263 1.376l2.533-2.498c1.393-1.375 3.039-2.957 3.66-3.515.863-.781 1.292-1.017 1.839-1.015m182.97-.78c.26-.27.601-.315 1.628-.21.714.074 1.36.254 1.439.4.077.144.196 2.26.265 4.698.07 2.438.154 4.45.185 4.467.042.02 2.205.39 4.817.826 2.618.437 5.004.912 5.3 1.052.513.245.544.363.665 4.364l-4.498 4.666c-2.473 2.566-5.177 5.417-6.01 6.336-1.352 1.493-1.594 1.67-2.271 1.658-.416-.009-1.194-.117-1.73-.24-.535-.126-2.774-.563-4.976-.972-2.2-.41-4.023-.768-4.044-.796-.025-.034-.123-.86-.392-3.598l-1.406-.26c-.772-.142-1.476-.367-1.564-.499-.088-.13-.16-2.722-.16-11.271l5.285-5.138C60.803.28 60.866.228 61.784.228c.564 0 1.057-.134 1.256-.344m-91.558.148c.625-.01 1.646.09 2.271.225.625.134 1.672.48 2.325.77.656.29 1.712.934 2.348 1.432.638.5 1.523 1.393 1.969 1.988.445.595.984 1.422 1.196 1.84.214.414.518 1.194.68 1.73.16.537.35 1.703.419 2.596.099 1.27.027 2-.331 3.354-.254.952-.79 2.266-1.195 2.92-.402.653-1.25 1.69-1.882 2.3-.631.607-1.585 1.354-2.122 1.657-.534.3-1.363.65-1.839.774-.476.123-1.134.277-1.46.342-.331.066-.537.212-.584.41l-.014.132c-.047.238-.438.787-.914 1.268-.905.918-.95.936-2.436.961-.984.018-1.954-.12-4.026-.813l-3.961 4.11-1.2.072c-1.063.064-1.314-.01-2.246-.65-.72-.493-1.216-1.06-1.58-1.802-.42-.856-.497-1.261-.38-1.947.123-.703.504-1.231 3.925-4.759l-.507-1.082c-.277-.594-.57-1.518-.645-2.054-.078-.537-.033-1.314.097-1.732.132-.417.582-1.123 1-1.568.661-.705.761-.954.761-1.893 0-.595.11-1.592.245-2.217.132-.626.536-1.72.895-2.434.36-.714 1.249-1.915 1.976-2.665.813-.846 1.816-1.614 2.617-2.008.714-.353 1.785-.774 2.38-.938A10.7 10.7 0 0 1-28.517.03M-183.056 7.16c-.035.014-2.306 2.222-5.055 4.922-4.117 4.04-5.075 5.095-5.361 5.896-.253.707-.314 1.356-.216 2.378.086.915.363 1.877.794 2.76.38.778 1.142 1.815 1.797 2.449.626.603 1.623 1.332 2.218 1.622a12 12 0 0 0 2.272.779c1.038.22 1.35.2 2.44-.163 1.161-.387 1.598-.76 6.008-5.175 2.599-2.602 4.726-4.733 4.75-4.759l-1.357-.024c-.882-.013-1.724-.186-2.431-.5-.595-.261-1.603-.884-2.241-1.384-.638-.498-1.542-1.488-2.007-2.202-.468-.714-1.054-1.98-1.305-2.813-.309-1.03-.424-1.88-.359-2.65.051-.624.077-1.134.053-1.136M19.442 25.37c-.143-.121-.555.31-1.136 1.185l-.91 1.376 2.704-.033 1.839-2.347c-1.761.004-2.374-.078-2.497-.182m-95.013-22.53c.326-.009 1.155.158 1.839.37s1.77.723 2.412 1.136 1.532 1.188 1.973 1.724c.442.537 1.076 1.51 1.407 2.163.402.799.635 1.653.707 2.596.056.772-.002 1.747-.132 2.164-.174.56-1.983 2.5-6.957 7.463-3.947 3.94-7.05 6.863-7.527 7.092-.599.283-1.224.367-2.43.322-1.239-.045-1.903-.197-2.812-.642-.653-.323-1.711-1.101-2.347-1.73-.68-.676-1.436-1.727-1.836-2.554-.491-1.019-.7-1.793-.756-2.812-.043-.775.04-1.844.184-2.38.236-.867.992-1.7 6.945-7.626 5.942-5.919 6.793-6.686 7.708-6.961.564-.17 1.295-.316 1.622-.325m93.886 20.768c-.09.003-.515.563-.946 1.245-.707 1.122-.761 1.31-.562 1.996l.219.757c1.82-2.405 1.869-2.54 1.667-3.245-.119-.417-.29-.754-.379-.753m-156.095-3.405c-3.638 3.556-5.579 5.605-5.577 5.887.002.238.175.592.389.787.212.192.58.41.818.479.346.1 1.565-.975 6.057-5.348l5.624-5.474-1.73-1.785zm95.47 2.969c-.118 0-.272.266-.345.595-.091.408.028.895.386 1.568.327.61.838 1.153 1.374 1.456.47.266 1.145.487 1.502.491.356.005.826-.117 1.043-.268.356-.247.304-.303-.541-.576-.54-.173-1.372-.723-1.964-1.298-.567-.548-1.078-1.216-1.136-1.482-.059-.268-.202-.486-.319-.486M70.814 18.63c-3.253 3.367-5.75 5.78-6.058 5.851-.289.07-1.837-.097-3.441-.37a142 142 0 0 1-4.543-.841c-.894-.19-1.793-.39-2.001-.442-.336-.082-.373.068-.326 1.26l.055 1.35c7.537 1.418 9.89 1.808 10.085 1.783.193-.03 1.694-1.462 3.336-3.188a516 516 0 0 1 5.764-5.949l2.78-2.812-.115-2.37zm-156.013-7c-4.367 4.42-5.577 5.766-5.791 6.452-.158.502-.228 1.408-.165 2.163.065.766.331 1.74.651 2.38.299.595.996 1.543 1.545 2.11.552.564 1.513 1.282 2.138 1.596A6.9 6.9 0 0 0-84.39 27c.878.067 1.542-.01 2.055-.234.448-.196 2.956-2.536 6.16-5.75 4.913-4.934 5.343-5.421 4.759-5.42-.355 0-1.179-.153-1.832-.343-.656-.19-1.63-.622-2.164-.957-.537-.335-1.346-1.034-1.798-1.549-.454-.517-1.125-1.522-1.49-2.236-.47-.915-.714-1.768-.824-2.882l-.159-1.586zM23.933 22.955c-.091 0-.344.122-.558.27-.333.23-.36.386-.176 1.028.169.58.147.87-.089 1.244-.272.43-.263.524.072.805.207.173.452.32.54.324.09.002.31-.165.492-.372l.967-1.136.64-.757c-1.331-1.09-1.795-1.405-1.888-1.406m-11.518-.004c-.06.002-.523.538-1.027 1.194-.504.653-.892 1.227-.862 1.272.03.046.565.338 1.19.65.625.31 1.234.516 1.352.457.12-.06.615-.621 1.104-1.244l.885-1.136c-1.958-.927-2.578-1.194-2.642-1.193m52.362 2.156c.12.001.217.343.217.757 0 .433-.093.712-.217.65-.118-.059-.215-.4-.215-.757s.097-.65.215-.65m48.081-1.732c.209.003.671.197 1.028.435.356.237.696.627.757.865.058.238-.005.65-.141.919-.136.268-.354.558-.486.645-.13.089-.483.165-.78.171s-.809-.188-1.135-.43c-.433-.319-.604-.643-.623-1.184-.024-.567.095-.827.487-1.084.283-.186.686-.337.893-.337m-9.368-1.175c-.382-.095-.672-.01-.958.273-.27.268-.396.66-.364 1.148.024.407.165.958.31 1.225.142.268.554.682.911.92s.945.432 1.308.432.779-.121.924-.268c.145-.15.26-.563.258-.92s-.2-.967-.436-1.352c-.238-.387-.65-.843-.919-1.014a4.2 4.2 0 0 0-1.034-.444m-144.514.701c-.204-.445-.446-.746-.541-.667s-.157.394-.138.701c.017.308.281.9.584 1.318.305.415.964.972 1.464 1.233.502.262 1.277.482 1.723.487.445.006.81-.087.81-.205 0-.12-.074-.175-.162-.123-.09.049-.552-.08-1.027-.292a8 8 0 0 1-1.606-1.013c-.407-.346-.906-.993-1.107-1.439m153.7 1.774c-.404 0-.54.097-.486.354.041.197.218.454.397.574a.87.87 0 0 0 .703.078c.298-.11.334-.234.163-.574-.132-.265-.433-.432-.777-.432m-95.768-1.718c-.207-.002-.376.12-.372.269.002.147-.29.683-.65 1.189-.36.504-.63.958-.6 1.006.03.047.243.122.472.163.303.054.647-.254 1.246-1.114.605-.872.755-1.234.556-1.35a1.6 1.6 0 0 0-.652-.163m96.22.874c-.3.009-.332.047-.107.125.177.063.542.371.81.687q.487.577.493.248c.004-.178-.166-.494-.378-.697-.212-.205-.58-.37-.818-.363m-153.3-2.282c-.335-.575-.39-.599-.463-.216-.045.238-.002.724.098 1.081s.397.876.661 1.155c.266.28.775.66 1.132.846s.989.411 1.406.5c.543.117.833.076 1.028-.143.224-.253.153-.32-.433-.402-.441-.06-1.14-.485-1.875-1.136-.645-.569-1.344-1.328-1.554-1.685M12.73 4.927l.137 1.038-1.851.742L8.935 5.1C7.703 6.27 7.293 6.635 7.232 6.662c-.06.03.256.49.7 1.027.797.96.808.998.542 1.866l-.27.886c-2.462-.255-2.49-.246-2.49.284 0 .382-.092.508-.323.432q-.325-.108-.974.974c-.495.826-.65 1.348-.657 2.218l-.007 1.135c1.447-1.821 1.68-2.302 1.6-2.596-.064-.238-.01-.506.122-.595.153-.104.238.013.236.324-.004.418.184.533 1.328.812 1.081.264 1.367.426 1.519.865.101.296.296.736.43.974.206.367.15.503-.379.916-.343.269-.696.488-.785.488-.088 0-.162.1-.162.219.001.12.367.73.812 1.356l.81 1.14c2.129-.314 2.355-.273 2.926.153.618.459.648.553.54 1.623l-.112 1.136c2.012 1.006 2.67 1.26 2.759 1.218.088-.045.307-.39.486-.766.177-.379.422-.681.54-.675.12.007.654.143 1.19.303.887.264 1.013.39 1.407 1.403l.432 1.113h2.921l-.108-2.199 1.839-.614 2.055 1.679 2.163-1.89-2.055-1.952.58-1.839 2.016.109v-2.813c-2.336-.731-2.447-.829-2.832-1.785l-.413-1.027 1.407-1.05c-1.006-1.403-1.42-1.899-1.569-2.005-.158-.11-.654-.108-1.19.007-.872.188-.967.157-1.841-.596-.889-.766-.918-.827-.812-1.82l.11-1.027-2.27-1.134-1.299 1.539c-2.011-.491-2.13-.595-2.483-1.486l-.383-.973-2.693-.132zm95.723 12.33c-.493-.116-.842.152-2.921 2.242-1.893 1.904-2.262 2.373-1.873 2.373.269-.002.844.314 1.279.701.437.387.947 1.065 1.135 1.506l.344.805 4.706-4.636c-.796-1.646-1.271-2.289-1.569-2.49a4 4 0 0 0-1.101-.5M12.1 21.225c-.033 0-.434.454-.888 1.007-.578.708-.811 1.193-.783 1.624l.044.614c1.111-1.425 1.492-2.157 1.561-2.542s.1-.7.066-.703m48.377-5.26c-3.17 3.254-5.714 5.956-5.654 6.004.06.045 1.57.374 3.354.726 1.785.35 3.952.773 4.815.935l1.572.297c8.96-9.18 11.59-11.909 11.627-11.986.03-.071-.36-.201-.866-.29-.509-.086-2.76-.484-5.006-.88l-4.082-.725zm-96.125-3.4c-.085.002-.426.298-.757.657-.333.36-.777.653-.985.65s-.553-.308-.765-.678c-.357-.62-.405-.642-.623-.27-.15.255-.18.839-.08 1.592.086.655.44 1.726.785 2.38s1.287 1.847 2.09 2.65c1.127 1.127 1.916 1.68 3.46 2.427 1.101.532 1.806.967 1.569.97-.238 0-1.115-.33-1.947-.734-.833-.405-2.137-1.303-2.899-1.997-.761-.692-1.646-1.651-1.969-2.127-.322-.476-.793-1.424-1.048-2.11-.255-.683-.468-1.508-.472-1.837-.006-.578-.018-.582-.342-.163-.249.324-.298.703-.192 1.514.078.595.397 1.618.71 2.272.314.655 1.17 1.823 1.898 2.595.948 1.009 1.841 1.68 3.144 2.366 1.579.832 2.034.97 3.442 1.049l1.622.088 1.73-1.778c-1.256.007-1.84-.075-2.109-.175-.268-.101-.553-.32-.637-.487-.087-.177.118-.735.486-1.332.35-.563.637-1.073.639-1.136 0-.058-.22-.11-.488-.113-.268-.002-.876-.182-1.351-.4-.476-.219-1.353-.833-1.948-1.365-.594-.534-1.395-1.45-1.776-2.034-.383-.586-.772-1.382-.865-1.771-.095-.39-.24-.705-.322-.703m-3.585 8.119c-.197-.588-.234-.61-.387-.217-.113.285-.029.69.244 1.19.23.416.902 1.078 1.497 1.467.749.493 1.316.703 1.839.686.69-.024.71-.042.217-.19a8.6 8.6 0 0 1-1.19-.505c-.358-.188-.955-.664-1.327-1.062-.372-.396-.774-1.012-.893-1.37m50.949-.751c-.15.003-.684.587-1.19 1.298-.505.708-.87 1.387-.811 1.507s.23.215.379.21c.15-.002.683-.586 1.19-1.298.505-.71.87-1.388.81-1.507a.44.44 0 0 0-.378-.21m85.475-3.26c-.078.005-.273.305-.433.668l-.292.66c3.681 3.664 4.805 4.73 4.867 4.73.061-.005.276-.224.477-.488.361-.471.327-.522-2.056-3.028-1.332-1.401-2.484-2.545-2.564-2.542m-134.784 4.66c-1.027-1.002-1.08-1.028-.699-.349.227.405.68.941 1.004 1.19.324.25.64.406.698.349.058-.062-.393-.596-1.003-1.19m154.616-1.634c.119-.008.485.184.811.426.402.296.592.632.588 1.034-.002.327-.173.768-.378.98-.203.212-.567.387-.805.387s-.701-.199-1.028-.441c-.346-.255-.592-.642-.59-.926 0-.268.077-.584.168-.705s.358-.338.591-.48c.233-.145.524-.268.643-.275m-107.02.228c-.731 0-.898.119-1.791 1.298l-.984 1.297c1.522.018 1.726-.108 2.472-1.018.467-.568.908-1.159.98-1.307.09-.192-.108-.27-.677-.27m-3.825-1.294-.898 1.29 1.407 2.407c.793-.94 1.304-1.532 1.648-1.919.342-.387.525-.753.406-.811-.12-.062-.542-.594-.94-1.184l-.725-1.077zm55.625.858c.445-.004 1.08.124 1.406.286.326.163.669.479.76.704.103.252.042.592-.163.895-.2.296-.643.538-1.138.62-.446.074-1.103.07-1.46-.01-.357-.078-.822-.307-1.034-.51s-.4-.587-.418-.851c-.022-.33.165-.58.602-.803.348-.177 1-.327 1.445-.33m54.869 1.506c-.275 0-.417.109-.355.27.057.15.258.368.446.487.19.119.424.145.519.056.095-.088.1-.308.011-.487s-.368-.326-.621-.326M64.228.448c-.667 0-1.06.273-3.083 2.14-1.276 1.176-2.66 2.494-3.077 2.925-.417.432-.877.782-1.027.78-.15-.001-.27-.05-.27-.111 0-.06.51-.57 1.135-1.134.626-.565 1.744-1.612 2.486-2.325.742-.716 1.35-1.375 1.352-1.463 0-.089-.132-.139-.299-.109-.164.03-2.548 2.27-5.3 4.977l-5 4.92.109 10.245 2.254.465c.123-9.98.11-10.177-.307-10.389-.238-.123-.463-.415-.5-.648-.039-.247.308-.912.812-1.565.54-.698 1.044-1.135 1.31-1.136.238 0 .428.074.426.163-.004.088-.467.637-1.027 1.22-1.002 1.035-1.013 1.06-.541 1.298.437.219.699.032 2.92-2.093a541 541 0 0 1 5.418-5.083C63.654 2.015 64.99.704 64.993.611c0-.088-.346-.163-.765-.163m-2.324 19.466c-.389 0-.854.148-1.032.325-.237.238-.25.324-.05.325.135 0 .227.093.228.216l-.008.086c.007.157.307.26.87.292.557.032.875-.03.81-.162-.06-.119.087-.217.325-.217.237 0 .432-.097.433-.215 0-.12-.196-.314-.433-.433-.238-.12-.751-.217-1.143-.217M112.04 1.742c-.285.002-2.875 2.486-7.464 7.161L97.55 16.06l5.112 5.05c11.212-11.235 14.463-14.545 14.459-14.603-.008-.065-1.053-1.16-2.325-2.438-1.44-1.446-2.485-2.327-2.756-2.326M-28.466.903c-.417.015-1.196.112-1.73.216-.537.104-1.608.5-2.38.881-.779.383-1.89 1.18-2.494 1.787-.597.604-1.402 1.73-1.787 2.503s-.804 2.04-.93 2.813c-.124.774-.161 1.747-.081 2.163.08.417.236 1.001.344 1.297l.2.541c1.716-1.76 1.925-1.865 2.637-1.802l.81.072c-.008-1.627.19-2.337.604-3.138.378-.733.982-1.464 1.575-1.91.528-.396 1.495-.869 2.15-1.05.974-.273 1.404-.289 2.38-.086.653.137 1.627.529 2.163.87.534.342 1.227.948 1.536 1.346.31.398.745 1.064.963 1.48.288.543.4 1.218.4 2.38 0 1.217-.112 1.838-.45 2.487a10.4 10.4 0 0 1-.982 1.515c-.294.356-1.06.915-1.704 1.237-.642.324-1.534.64-1.98.703-.783.11-.81.143-.766.926.03.57-.145 1.127-.595 1.876l-.64 1.066c3.98-.192 4.534-.309 5.624-.839.714-.346 1.809-1.145 2.434-1.772.68-.684 1.444-1.77 1.902-2.71.44-.896.871-2.218 1.012-3.083.186-1.138.184-1.863-.004-2.921-.138-.772-.61-2.135-1.049-3.028-.506-1.026-1.244-2.067-2.007-2.828-.704-.704-1.792-1.49-2.612-1.891-.774-.379-1.942-.785-2.596-.906s-1.531-.21-1.947-.195m145.651 19.223c-.149.002-.268.078-.264.167s.246.333.54.541c.372.264.537.296.539.108.002-.149-.121-.394-.27-.546-.152-.149-.396-.272-.545-.27M59.81 6.223l-5.446 5.367.135 9.216L65.64 9.318 65.254.855zm-43.924 2.28c1.04.048 1.785.247 2.866.764.802.382 1.957 1.159 2.567 1.723.608.565 1.388 1.588 1.732 2.272.342.683.681 1.61.753 2.055.069.446.021 1.225-.109 1.73-.131.507-.554 1.269-.941 1.695-.493.545-1.058.876-1.893 1.111-1.003.284-1.408.294-2.595.072-.774-.147-1.846-.488-2.38-.761-.537-.273-1.493-.971-2.13-1.549-.717-.653-1.395-1.547-1.786-2.351-.346-.714-.69-1.688-.762-2.164-.078-.504-.012-1.227.154-1.73.158-.477.535-1.15.837-1.498s.94-.814 1.415-1.034c.632-.294 1.245-.385 2.272-.335m97.993 2.771c-.061-.002-1.374 1.263-2.921 2.81-2.221 2.226-2.706 2.812-2.321 2.813.268 0 .882.364 1.367.809.482.448.995 1.13 1.136 1.519l.256.705c4.31-4.315 5.299-5.467 5.293-5.74-.005-.238-.223-.802-.487-1.255a3.4 3.4 0 0 0-1.345-1.239c-.475-.23-.914-.419-.978-.422m-85.98 7.353c-.364 0-.572.152-.665.487-.075.266-.034.584.091.703.154.145.373.075.673-.216.244-.238.441-.557.437-.704-.005-.148-.245-.27-.537-.27m-12.483-7.098c-.556-.097-1.432-.114-1.947-.04-.514.075-1.057.2-1.207.279-.15.077-.27.387-.27.683 0 .299.188 1.051.417 1.676.249.681.878 1.642 1.569 2.401.735.81 1.617 1.496 2.448 1.905 1.032.51 1.62.649 2.875.683 1.193.03 1.63-.037 1.796-.283.12-.178.18-.812.13-1.406-.052-.636-.346-1.563-.714-2.248-.344-.643-.978-1.471-1.41-1.84-.43-.37-1.21-.889-1.732-1.152a8.5 8.5 0 0 0-1.955-.658m-147.583-4.37c-.683 0-1.055.124-1.351.454-.299.33-.401.734-.369 1.461.029.65.312 1.543.801 2.52.418.834 1.162 2.002 1.657 2.596.494.595 1.448 1.55 2.119 2.12.672.572 1.805 1.324 2.519 1.67.809.394 1.664.636 2.272.647.62.009 1.16-.125 1.489-.372.41-.31.512-.586.508-1.36-.003-.537-.167-1.364-.364-1.84-.197-.475-.5-1.086-.671-1.352l-.313-.486c-.921 1.052-1.384 1.436-1.622 1.53s-.823.07-1.299-.053c-.586-.149-1.216-.582-1.951-1.337-.595-.614-1.216-1.503-1.378-1.98-.162-.475-.234-1.132-.16-1.46.076-.328.307-.648.514-.711.208-.065.501-.307.65-.541.246-.39.17-.47-.92-.965-.686-.313-1.588-.54-2.131-.54m252.383 8.43c.251-.092.727-.057 1.077.079.344.134.789.506.988.826.307.489.323.671.096 1.136-.149.305-.524.675-.831.824-.48.232-.677.208-1.352-.162-.649-.355-.803-.57-.85-1.19-.032-.416.05-.89.179-1.051.133-.162.444-.37.693-.461m-152.41-3.984c-.776-.328-.806-.324-.81.095-.003.24-.176.498-.384.572-.207.073-.597.025-.865-.109-.432-.216-.486-.19-.484.242 0 .268.229.974.508 1.569.279.594.934 1.508 1.458 2.027s1.341 1.17 1.817 1.445 1.149.58 1.497.677c.6.169.625.15.474-.363-.117-.39-.052-.647.231-.926.216-.212.565-.383.773-.379.207.004.38-.064.38-.155.002-.09-.281-.6-.63-1.136-.346-.534-.858-1.23-1.137-1.541a10 10 0 0 0-1.263-1.122 9.5 9.5 0 0 0-1.564-.896m97.62 3.992c.242.004.214.086-.108.326-.237.177-.505.32-.594.318s-.162.093-.162.212.144.216.324.216c.192 0 .28.133.216.325-.085.253.085.324.757.324.7 0 .836-.063.704-.329-.128-.257-.057-.304.324-.216.268.063.489.04.491-.05.002-.088-.121-.286-.27-.437-.152-.15-.178-.272-.06-.272.12 0 .34.123.492.272.15.151.273.494.27.762-.002.296-.238.63-.599.85-.409.249-.907.334-1.597.27-.597-.055-1.187-.268-1.467-.525-.255-.238-.475-.604-.488-.814-.01-.22.293-.564.712-.81.402-.236.876-.427 1.056-.422M16.21 9.229c-.798-.075-1.562-.02-1.986.143-.378.147-.734.328-.794.404-.059.076.298.046.796-.066.5-.115 1.22-.128 1.618-.03.393.097.685.272.65.391-.038.12-.313.227-.61.242-.298.013-.929.05-1.404.08-.753.048-.685.08.54.25.83.114 1.973.48 2.79.893a8.6 8.6 0 0 1 2.45 1.888c.601.67 1.248 1.686 1.481 2.326.23.625.427 1.451.436 1.839.017.694.023.69.53-.38.343-.726.47-1.293.389-1.73-.065-.357-.335-1.135-.597-1.73-.264-.595-.97-1.57-1.568-2.164-.602-.595-1.617-1.341-2.257-1.66a8 8 0 0 0-2.464-.696m104.122 7.431c-.084.005-.205.107-.27.226s.052.413.259.655.501.437.65.433.335-.128.413-.277c.079-.153-.083-.438-.379-.658-.287-.214-.59-.385-.673-.379m.65-.865c-.085.004-.195.082-.248.17-.054.09.187.432.531.759.558.53.64.553.767.215.095-.257-.025-.504-.378-.765-.287-.214-.589-.385-.672-.38M7.931 14.74c-.089.005-.478.443-.865.973-.388.53-.77 1.136-.853 1.344-.082.207.186.036.597-.38.41-.416.92-.853 1.137-.972.243-.134.345-.36.269-.596-.067-.207-.197-.373-.285-.369M-177.846 4.232c-.713-.054-1.59.011-1.947.143s-.919.495-1.25.807c-.331.311-.755.958-.941 1.434-.249.63-.31 1.303-.228 2.488.089 1.268.277 1.952.865 3.137a8.7 8.7 0 0 0 1.909 2.574c.638.582 1.646 1.288 2.241 1.563.595.277 1.519.567 2.055.644.535.078 1.339.08 1.785.006.476-.08 1.147-.439 1.623-.865.445-.4.943-1.105 1.105-1.568.19-.537.264-1.426.205-2.462-.067-1.224-.244-1.943-.719-2.92-.349-.718-1.167-1.835-1.829-2.497-.657-.658-1.733-1.464-2.386-1.793a6.9 6.9 0 0 0-2.488-.69M6.119 13.957c-.233-.069-.664.275-1.27 1.012-.503.613-.905 1.202-.89 1.304.012.104.244.232.512.287s.632.155.811.226c.221.089.654-.29 1.353-1.179L7.662 14.3c-.921-.184-1.348-.284-1.543-.342m97.398-.532c.387 0 .844.209 1.174.54.297.298.541.76.543 1.028 0 .268-.145.705-.324.973-.236.35-.539.487-1.084.487-.519 0-.928-.171-1.298-.54-.298-.297-.551-.723-.562-.946-.013-.221.188-.66.445-.974q.47-.568 1.106-.568M-28.357 6.082c-.742.006-1.578.158-1.948.353a7.3 7.3 0 0 0-1.263.91c-.34.314-.8.935-1.028 1.383-.227.445-.415.98-.418 1.19-.004.257.395.545 1.245.901.88.37 1.698.976 2.773 2.056.84.841 1.704 1.922 1.923 2.397.216.476.407.893.42.928.015.035.365-.072.783-.238.415-.165 1.123-.705 1.568-1.198a5.5 5.5 0 0 0 1.162-2.142c.303-1.075.314-1.408.072-2.434-.156-.655-.582-1.58-.947-2.055-.383-.498-1.176-1.123-1.857-1.465-.917-.463-1.482-.595-2.485-.586m131.666 8.424c-.106 0-.301.147-.433.324-.177.24-.171.412.03.658.15.184.489.33.757.325s.535-.106.596-.225-.088-.412-.325-.65c-.238-.237-.519-.432-.625-.432M-75.534 3.903c-1.002.005-1.49.124-2.056.502-.408.273-.866.736-1.02 1.028-.173.33-.253 1.103-.212 2.046.047 1.054.227 1.843.59 2.596.29.595 1.03 1.616 1.646 2.272a8.2 8.2 0 0 0 2.5 1.828c.988.458 1.717.641 2.57.645.854.007 1.419-.128 2-.476.606-.361.903-.744 1.173-1.51a4.24 4.24 0 0 0 .216-2.11c-.078-.594-.378-1.568-.668-2.162-.292-.595-.95-1.557-1.463-2.134-.61-.684-1.46-1.307-2.449-1.79-1.226-.598-1.765-.739-2.827-.735m179.252 9.952c-.201.002-.078.201.324.526.413.333.679.43.731.27.043-.138-.101-.377-.324-.528-.224-.15-.554-.27-.731-.268m-281.159-7.14c.869-.003 1.337.14 2.139.65.565.357 1.365 1.114 1.779 1.679.41.564.861 1.513 1.002 2.108.188.811.19 1.286.006 1.894a2.25 2.25 0 0 1-.948 1.257c-.527.333-.971.424-1.784.368-.746-.052-1.379-.274-2.045-.715-.528-.353-1.266-1.029-1.638-1.505-.376-.48-.802-1.396-.96-2.056-.164-.692-.216-1.462-.123-1.838.089-.357.454-.918.811-1.245.53-.486.853-.594 1.761-.596M69.461 11.91c.41 0 .675.093.616.216-.06.119-.302.216-.54.217-.238 0-.58.05-.758.108-.179.06-.323.206-.324.324 0 .12.219.225.487.234.267.008.365.059.216.108-.149.05-.27.189-.27.308 0 .118.34.215.757.216.527 0 .757-.098.757-.325q.003-.322.378-.195c.31.104.35.043.217-.324-.127-.359-.082-.444.216-.399.257.037.397.283.434.758.047.625-.036.738-.758 1.045-.532.225-1.071.294-1.569.201-.417-.08-.975-.283-1.244-.452-.268-.17-.495-.498-.508-.727-.01-.23.25-.62.576-.866s.92-.447 1.317-.447m49.454-5.066c-.411-.13-.822.175-2.65 1.972l-2.163 2.13c1.254.523 1.83.96 2.088 1.31.257.348.573.902.703 1.231l.235.595c3.394-3.491 4.104-4.387 4.106-4.705.003-.268-.143-.779-.32-1.136-.179-.357-.593-.783-.92-.947a9 9 0 0 0-1.079-.45M-124.646 5.6c-1.298 1.28-2.945 2.844-3.659 3.476l-1.297 1.149c.395 1.224.882 1.975 1.336 2.456s1.168.99 1.583 1.135l.757.26 7.012-7.03c-1.41-.851-2.074-1.436-2.386-1.847-.311-.413-.662-1.014-.777-1.339l-.209-.589zm-53.702 2.632c-.336 0-.693.065-.794.145-.099.078-.163.225-.144.324.019.1.255.183.523.185.269.002.876.233 1.352.514.476.28 1.118.838 1.428 1.238.309.402.725 1.047.92 1.434s.356.948.356 1.244c0 .299.079.54.174.54s.292-.12.436-.27c.145-.149.26-.465.258-.702-.004-.239-.234-.92-.511-1.515-.279-.595-.911-1.447-1.404-1.892-.495-.446-1.144-.91-1.44-1.029a3.7 3.7 0 0 0-1.154-.216m-.415 1.291c-.267.005-.486.104-.487.223 0 .119.412.435.911.703.502.268 1.14.827 1.419 1.244.277.418.564 1.002.636 1.298.071.299.236.613.366.7.132.088.312.161.4.161.089.002.163-.19.163-.428-.001-.239-.22-.89-.488-1.444-.294-.613-.871-1.3-1.46-1.738-.536-.398-1.191-.722-1.46-.719m234.974.915c.328.048.47.246.513.714.034.368-.13.955-.38 1.353-.257.413-.616.703-.87.703-.336 0-.432-.146-.432-.65 0-.357.16-.995.358-1.416.267-.573.474-.753.811-.703m-234.338.819c-.393-.227-.708-.32-.703-.206.006.117.441.672.965 1.237.523.564 1.01.954 1.082.866.07-.09-.042-.46-.249-.822-.208-.363-.701-.846-1.095-1.075m103.314-5.608c.387-.006 1.069.139 1.514.323s1.23.744 1.738 1.244c.551.54 1.098 1.369 1.351 2.044.234.625.427 1.38.427 1.677s-.122.786-.27 1.09c-.15.3-.614.7-1.029.889q-.757.339-1.514.192c-.417-.082-1.147-.372-1.623-.644-.476-.273-1.144-.824-1.486-1.227a9.5 9.5 0 0 1-1.027-1.545c-.225-.445-.407-1.224-.41-1.73 0-.506.157-1.145.347-1.422.193-.277.559-.586.814-.69.255-.101.78-.192 1.168-.2m182.641 4.314c.238 0 .675.245.974.54.296.299.538.712.534.92-.002.207-.174.552-.379.764-.203.211-.64.383-.967.378-.326-.004-.789-.201-1.027-.439s-.433-.627-.433-.865c.001-.238.195-.628.433-.865.238-.238.627-.433.865-.433m-284.969-2.599c-.324 0-.592.053-.594.11 0 .059.463.34 1.027.622.564.28 1.343.865 1.731 1.298.387.432.897 1.175 1.135 1.65.238.476.431 1.036.429 1.244-.002.303.052.325.27.108.223-.218.219-.448-.012-1.189a8.5 8.5 0 0 0-.812-1.73c-.287-.446-.986-1.106-1.551-1.463-.564-.36-1.296-.652-1.623-.65m101.592-.101c-.49-.106-.688-.067-.708.14-.015.158.34.498.79.753.448.256 1.136.793 1.528 1.19.389.399.888 1.212 1.109 1.806.29.786.524 1.097.857 1.136.376.045.458-.06.458-.595 0-.357-.16-.964-.356-1.351-.2-.387-.563-.981-.812-1.32-.25-.338-.843-.84-1.319-1.115-.476-.274-1.172-.564-1.547-.644m-.413 1.618c-.283 0-.294.076-.07.487.148.269.715.952 1.258 1.523.543.569 1.11 1.032 1.258 1.028.193-.007.156-.241-.133-.82-.223-.446-.76-1.128-1.19-1.515-.433-.387-.936-.702-1.123-.703m183.557 2.159c-.069.002-.191.079-.271.167-.078.089-.022.288.127.441.147.156.39.277.539.27.149-.003.272-.082.275-.17.001-.089-.122-.286-.271-.437-.151-.149-.329-.272-.399-.271M-74.584 6.353c-.717-.093-.986-.059-.92.116.052.136.266.247.474.247.208-.002.818.273 1.352.61.537.338 1.262.995 1.615 1.462.352.467.8 1.288.995 1.824.257.71.4.884.523.649.093-.178.108-.617.034-.974-.071-.357-.426-1.112-.783-1.677-.359-.564-1.02-1.273-1.465-1.576s-1.267-.61-1.825-.681m133.661 1.23c.16 0 .352.22.428.487.084.3-.024.777-.283 1.243-.255.463-.582.758-.84.758-.35 0-.41-.134-.365-.815.03-.45.214-1.01.41-1.244.196-.236.488-.429.65-.429m-51.886.096c-.342-.448-.353-.444-.898.432-.305.487-.487.954-.402 1.036.082.085.539.22 1.014.3.779.133.882.096 1.051-.369.132-.365.1-.575-.119-.728-.167-.12-.458-.423-.646-.671m103.806-2.042c.16 0 .34.097.401.216.058.118-.039.216-.216.216-.18 0-.327.074-.331.162-.002.09.264.305.594.478.331.173.747.32.924.325.175.005.346.18.379.387.03.207-.189.623-.485.92-.409.408-.686.51-1.136.417-.327-.07-.815-.338-1.088-.595-.27-.26-.497-.732-.506-1.052-.01-.389.18-.724.579-1.027.327-.246.725-.447.885-.447m-.292 1.29c-.142.005-.328.13-.413.278-.09.16.061.426.368.65.422.31.575.332.796.109.224-.22.203-.346-.108-.657-.21-.212-.5-.383-.643-.38M61.831 4.832c.134.046.273.414.312.822.043.47-.074.931-.325 1.262-.265.35-.517.473-.772.378-.231-.087-.387-.385-.4-.764-.013-.35.186-.87.46-1.198.267-.32.593-.545.725-.5m-182.904-1.138c-.219-.417-.402-.635-.406-.486-.007.15.123.539.288.865.162.327.625.894 1.027 1.257.4.366.973.735 1.27.826.298.089.582.106.631.04.05-.068-.074-.122-.27-.122-.199 0-.762-.366-1.253-.811-.489-.446-1.071-1.153-1.287-1.569m1.303-2.163c-.303 0-.688.117-.855.26-.166.143-.284.459-.258.703.024.245.262.8.531 1.237.266.437.729.992 1.025 1.232.298.24.863.514 1.259.61.544.133.763.099.915-.147.11-.18.201-.617.201-.974.002-.357-.19-.965-.428-1.352s-.748-.898-1.136-1.136-.952-.433-1.254-.433M64.183 2.614c.207-.004.425.189.486.426.058.238-.026.7-.19 1.027-.165.327-.456.717-.649.867-.242.185-.45.202-.675.053s-.282-.398-.182-.811c.078-.327.297-.812.487-1.075.188-.264.515-.482.723-.487m-189.998-49.85c.43-.303.829-.357 1.947-.268a7.3 7.3 0 0 1 2.704.757c.887.44 1.811 1.184 2.921 2.35.893.938 1.938 2.236 2.323 2.883.385.65.911 2.006 1.171 3.018.422 1.65.439 1.915.164 2.583-.175.426-1.225 1.598-2.469 2.756-1.799 1.676-2.308 2.034-3.028 2.133-.476.065-1.352-.015-3.028-.474l-2.921 2.68a5484 5484 0 0 0-6.021 5.533c-1.706 1.568-3.361 3.023-3.677 3.23-.321.21-.989.378-1.497.378-.507.002-1.285-.151-1.731-.34a8 8 0 0 1-1.568-.941c-.416-.329-1.067-1.075-1.446-1.66-.378-.581-.805-1.546-.948-2.14-.205-.855-.203-1.265.014-1.948.197-.625.755-1.315 2.013-2.487.959-.891 2.062-1.915 2.454-2.272.391-.357 1.311-1.183 2.043-1.839s1.879-1.688 2.547-2.296a556 556 0 0 1 3.815-3.422l-.08-1.847c-.059-1.333.011-2.025.242-2.494.178-.357 1.041-1.29 1.919-2.074.878-.78 1.84-1.592 2.137-1.8m-50.298-.279c.778.035 1.687.242 2.271.52.537.256 1.746 1.13 2.692 1.94.978.84 2.157 2.126 2.743 2.99.603.886 1.305 2.32 1.694 3.46.366 1.07.663 2.165.661 2.434 0 .268-.135.755-.298 1.082s-1.259 1.506-2.433 2.62-2.332 2.164-2.57 2.336c-.351.253-.659.268-1.623.08-.654-.125-1.482-.376-1.839-.553-.608-.305-.684-.295-1.19.164-.296.27-.835.783-1.194 1.14s-1.764 1.67-3.122 2.921c-1.359 1.25-3.206 2.946-4.108 3.77-.899.825-1.928 1.776-2.285 2.116s-.941.673-1.298.74-.988.054-1.406-.028c-.415-.082-.999-.277-1.298-.43-.296-.155-1.069-.803-1.716-1.44-.685-.677-1.395-1.655-1.707-2.349-.408-.91-.512-1.456-.447-2.323.08-1.064.167-1.214 1.387-2.38.718-.686 2.118-1.977 3.113-2.868.995-.894 2.127-1.915 2.514-2.272s1.274-1.155 1.971-1.776c.696-.619 1.735-1.545 3.342-2.983l-.254-1.19c-.138-.656-.192-1.653-.116-2.218q.135-1.028.837-1.933a14 14 0 0 1 1.445-1.569 18 18 0 0 1 1.578-1.222c.458-.307.953-.623 1.096-.697.146-.075.846-.112 1.56-.082m202.004 1.023c.582-.005 1.426.176 1.947.416.506.234 1.389.891 1.962 1.46.664.66 1.194 1.45 1.46 2.172.229.625.42 1.403.42 1.73.002.327-.17 1.078-.38 1.668-.339.956-1.364 2.041-9.422 9.952-6.571 6.455-9.26 8.956-9.844 9.166-.452.162-1.27.242-1.882.188-.594-.054-1.47-.294-1.947-.532-.476-.24-1.261-.86-1.746-1.378-.484-.52-1.014-1.335-1.177-1.811-.162-.476-.291-1.352-.287-1.947.007-.6.184-1.42.398-1.84.217-.42 4.391-4.785 9.28-9.705 4.89-4.924 9.184-9.082 9.54-9.24.358-.16 1.113-.295 1.678-.3M64.56-45.4c.417-.01 1.39.086 2.163.212.774.125 2.138.472 3.029.768.894.296 2.256.913 3.028 1.37a25 25 0 0 1 2.676 1.88c.697.577 1.785 1.684 2.417 2.456.63.772 1.543 2.233 2.027 3.245.487 1.013.99 2.424 1.123 3.138.131.714.197 1.979.145 2.811-.054.833-.288 1.952-.523 2.489-.234.534-.98 1.729-1.658 2.65-.677.922-1.694 2.012-2.258 2.423-.565.409-1.71.965-2.542 1.233-1.17.377-1.982.483-3.57.463-1.276-.015-2.67-.186-3.677-.45-.892-.234-2.255-.742-3.03-1.127a25 25 0 0 1-2.704-1.616c-.714-.502-1.958-1.636-2.764-2.517-.835-.913-1.821-2.297-2.297-3.222-.459-.894-1.013-2.16-1.234-2.813-.277-.822-.398-1.791-.39-3.137.01-1.696.096-2.129.663-3.353.359-.772.995-1.942 1.415-2.596s1.19-1.573 1.71-2.043c.524-.47 1.39-1.04 1.923-1.271.537-.232 1.56-.548 2.273-.7.714-.153 1.64-.285 2.055-.293m-256.229 17.244c-.484-.091-.79.029-1.358.528-.567.5-.731.813-.727 1.382.004.402.214 1.147.467 1.653.255.506.822 1.358 1.264 1.893.45.547 1.311 1.235 1.97 1.57.645.329 1.368.601 1.606.604.238.002.701-.193 1.027-.435.506-.374.595-.595.591-1.469-.004-.755-.197-1.37-.73-2.326-.398-.713-1.102-1.593-1.563-1.957a20 20 0 0 0-1.381-.993 4 4 0 0 0-1.166-.45m198.273.913c-.126 0-.338.188-.47.42-.134.23-.234.91-.223 1.513.011.615.201 1.45.433 1.907.227.445.74 1.123 1.136 1.504.398.38 1.088.843 1.534 1.027s1.224.335 1.73.335c.571 0 1.208-.182 1.677-.476l.757-.473c-1.845-.282-2.77-.591-3.245-.87-.476-.277-1.181-.86-1.569-1.29-.387-.432-.839-1.053-1.006-1.38-.166-.326-.354-.96-.415-1.406-.062-.445-.214-.81-.34-.811m-147.068-.865a.48.48 0 0 0-.379.215c-.065.12.124.217.422.217.297 0 .809.136 1.136.303.327.164 1.105.846 1.73 1.515.625.665 1.136 1.331 1.136 1.481.002.15-.46-.258-1.027-.902-.565-.645-1.417-1.35-1.893-1.564s-1.201-.392-1.612-.396c-.439-.002-.837.134-.967.33-.121.185-.199.722-.173 1.191s.243 1.244.481 1.72.797 1.27 1.243 1.765c.445.493 1.201 1.075 1.677 1.293.475.217 1.231.397 1.676.399.528.002.963-.148 1.245-.429.348-.348.406-.61.304-1.351-.071-.507-.361-1.407-.644-2.002-.286-.595-.933-1.486-1.441-1.979-.508-.495-1.313-1.104-1.789-1.352-.475-.251-.982-.454-1.125-.454m58.672-18.578c.714-.017 2.856.11 4.76.284 1.904.173 3.671.392 3.927.487.255.094 1.118.9 1.918 1.793a73 73 0 0 1 2.804 3.353c.74.952 1.605 2.12 2.496 3.461l-.233 3.03c-.13 1.665-.3 3.92-.38 5.007-.118 1.56-.243 2.089-.596 2.489-.249.279-1.259 1.434-2.25 2.563a349 349 0 0 0-1.931 2.215c-.072.089-1.201.307-2.51.483-1.309.177-3.72.398-8.33.656l-8.871-8.87.02-4.002c.01-2.203.084-4.457.164-5.013.132-.937.374-1.253 3.325-4.368 2.336-2.464 3.344-3.382 3.786-3.447.333-.05 1.187-.103 1.901-.12M55.4-36.115c-.083.654-.055 1.725.06 2.38s.296 1.483.402 1.84.462 1.183.79 1.838c.33.653.867 1.579 1.2 2.055s1.271 1.508 2.087 2.293 2.068 1.8 2.782 2.257c.714.454 2.029 1.092 2.92 1.417.893.324 2.378.696 3.3.826 1.13.16 2.152.17 3.136.03.805-.114 1.9-.363 2.434-.553.536-.19 1.291-.535 1.677-.766.387-.232.68-.47.649-.528-.029-.06-.445.048-.92.24s-1.45.433-2.163.535c-.764.11-2.075.099-3.191-.024-1.147-.128-2.638-.487-3.788-.914-1.043-.387-2.469-1.044-3.17-1.46-.698-.417-1.972-1.438-2.827-2.27-.856-.834-1.98-2.15-2.497-2.922-.517-.774-1.181-1.942-1.475-2.596s-.697-2.018-.896-3.028l-.361-1.839zM120.807-48c.179-.007.666.078 1.082.188s1.267.598 1.892 1.082c.641.496 1.337 1.28 1.599 1.798.255.506.467 1.26.472 1.676.004.441-.201 1.074-.993 2.272L126-38.28l-.448.594c-.389.517-.417.71-.223 1.46.178.682.16.959-.082 1.298-.171.238-1.263 1.444-4.547 4.924l-4.976.167-1.569 1.512c-.861.829-1.565 1.555-1.568 1.618 0 .06-.608.72-1.352 1.467s-1.86 1.94-2.481 2.65c-1.103 1.261-1.158 1.294-2.38 1.376-.986.067-1.502-.028-2.44-.445-.656-.292-1.608-.964-2.12-1.491-.656-.68-1.025-1.31-1.261-2.15-.199-.715-.271-1.45-.18-1.84.085-.357.766-1.33 1.517-2.163.748-.833 2.297-2.488 3.441-3.678s2.382-2.553 3.427-3.894l-.93-3.353.746-.92c.412-.506 1.385-1.577 2.163-2.38.779-.802 1.491-1.411 1.579-1.355.089.058.674-.479 1.299-1.19.625-.712 1.306-1.294 1.514-1.294s.89.194 1.515.432 1.307.435 1.514.44c.208.002.608-.256.887-.573.281-.318.718-.655.974-.748.255-.096.611-.178.789-.185m-149.11.206c.507-.002 1.43.106 2.056.24.625.135 1.817.584 2.65 1.001 1.057.53 2.005 1.258 3.141 2.406.895.907 1.888 2.135 2.21 2.73.321.595.728 1.764.905 2.597.232 1.096.264 1.782.12 2.487-.12.571-.549 1.422-1.04 2.056-.46.594-1.167 1.228-1.572 1.406-.426.188-1.283.311-2.033.292-.714-.017-1.688-.174-2.164-.347-.828-.3-.9-.29-1.702.25-.461.308-.974.83-1.136 1.156-.165.327-.641.766-1.06.974s-.759.476-.758.595c.003.119-.945 1.142-2.104 2.271s-2.28 2.324-2.488 2.65-.647.689-.974.803c-.327.113-.766.454-.974.757s-.693.708-1.08.9c-.388.195-1.289.375-2.002.401-.715.026-2.069.134-4.722.439l.173-1.407c.095-.772.187-2.087.205-2.92.024-1.06.154-1.709.437-2.163.223-.357.536-.723.697-.811.16-.09.44-.529.627-.974.183-.446.55-1.032.811-1.305.26-.27.571-.487.69-.48.12.006.461-.352.757-.8.299-.448.844-1.01 1.214-1.25.37-.241.775-.68.902-.978.126-.297.521-.736.878-.974.36-.238.95-.846 1.316-1.352s.91-1.016 1.207-1.135c.439-.175.565-.408.662-1.244.07-.574.013-1.314-.128-1.677-.136-.357-.255-1.184-.264-1.84-.008-.672.13-1.472.319-1.838.184-.357.612-.982.954-1.389.342-.406 1.01-.917 1.486-1.131s1.278-.394 1.784-.396M-68.339-26.81c-1.709.054-2.546.102-2.962.141-.418.039-1.973.177-3.457.305l-2.699.234c-1.177 1.402-2.005 2.321-2.603 2.946-.596.627-1.003 1.211-.907 1.298.098.089 1.704.03 3.57-.128s3.854-.378 4.42-.486c.843-.162 1.213-.4 2.07-1.335a65 65 0 0 0 1.806-2.056zm172.324-3.439c-.09.015-.77.695-1.513 1.514-.974 1.075-1.353 1.66-1.351 2.087 0 .327.227 1.082.504 1.677.275.595.836 1.365 1.242 1.71s1.056.758 1.444.918 1.166.293 1.73.295c.991.002 1.077-.053 2.397-1.46l1.367-1.463c-1.283-.188-1.997-.423-2.412-.646-.418-.223-1.186-.849-1.711-1.394-.524-.543-1.084-1.304-1.244-1.691s-.29-.898-.29-1.136c-.001-.238-.074-.422-.163-.411m-189.566-3.912c-.06.01-1.01.985-2.11 2.17-1.098 1.183-1.995 2.224-1.992 2.315.008.092 1.249 1.41 2.76 2.929 1.511 1.523 3.261 3.204 3.884 3.732l1.136.965 3.678-4.327c-4.442-4.612-6.073-6.367-6.49-6.875-.416-.51-.805-.92-.866-.91m93.708 5.188c-.102 0-.363.178-.58.396-.241.242-.38.664-.356 1.082.021.376.19 1.051.378 1.497.187.446.653 1.2 1.04 1.676.388.476 1.234 1.134 1.88 1.463.768.391 1.513.596 2.149.596.534 0 1.191-.146 1.46-.326s.487-.4.485-.49c-.001-.088-.44-.185-.973-.215-.535-.03-1.435-.284-2-.567-.564-.282-1.343-.866-1.73-1.298a9 9 0 0 1-1.136-1.65c-.238-.476-.432-1.158-.432-1.515s-.083-.648-.185-.649m-146.742.026c-.441-.102-.945-.1-1.136.005-.272.147-.108.31.78.78.619.326 1.597 1.082 2.172 1.677.576.594 1.288 1.568 1.582 2.163s.535 1.3.532 1.569c-.002.285.111.456.269.415.149-.04.359-.307.469-.595.143-.378.084-.824-.21-1.605-.223-.595-.775-1.545-1.227-2.11-.45-.564-1.183-1.271-1.629-1.57s-1.167-.628-1.602-.73m-52.174-.242c-.279 0-.571.05-.649.108-.08.06.344.377.941.703.597.327 1.497.997 2.001 1.488s1.228 1.465 1.611 2.163c.383.699.699 1.489.703 1.757.003.268.104.486.223.487.119 0 .315-.195.434-.433.118-.238.152-.701.077-1.027-.078-.327-.359-1.032-.625-1.569-.266-.534-.982-1.436-1.592-2-.608-.565-1.448-1.174-1.863-1.353-.418-.178-.984-.324-1.261-.325m149.644 5.408c-.638-.645-.749-.692-.745-.325.003.238-.043.652-.1.92-.094.433-.02.487.652.487.416 0 .799-.074.85-.162.052-.09-.245-.503-.657-.92m.17-4.76c-.1.001-.342.293-.54.65-.202.356-.364.893-.364 1.19 0 .298.14.809.308 1.136.169.326.68.952 1.136 1.386.454.437 1.217.913 1.693 1.06.71.22.997.214 1.597-.034.402-.167.813-.4.913-.52.112-.134-.2-.34-.825-.54-.553-.178-1.44-.714-1.97-1.19s-1.145-1.231-1.367-1.677-.403-.956-.403-1.136c0-.177-.08-.324-.178-.324M65.643-44.403a12.7 12.7 0 0 0-2.38.069c-.655.093-1.629.33-2.163.527-.537.197-1.316.62-1.732.938-.417.318-.932.774-1.148 1.014-.217.243-.63.926-.922 1.521-.29.595-.59 1.616-.666 2.272-.078.661-.024 1.814.121 2.595.15.805.694 2.283 1.276 3.453.736 1.484 1.433 2.49 2.53 3.655.833.884 2.098 2.003 2.812 2.485.714.48 2.003 1.196 2.866 1.59.954.435 2.395.857 3.678 1.075 1.726.294 2.403.319 3.731.126.892-.13 2.086-.44 2.65-.686.566-.247 1.431-.814 1.92-1.26.49-.445 1.135-1.297 1.431-1.892.357-.716.578-1.595.652-2.597.082-1.13-.008-1.979-.357-3.352a11.9 11.9 0 0 0-1.41-3.354c-.518-.832-1.463-2.087-2.103-2.788-.638-.7-1.743-1.688-2.457-2.192a24 24 0 0 0-2.65-1.592c-.745-.372-2.058-.86-2.922-1.09-.863-.229-2.104-.461-2.757-.517M-137.95-30.06c-.426.003-.842.078-.92.166-.08.09.343.382.937.65s1.623.997 2.285 1.622 1.442 1.623 1.732 2.218c.292.594.526 1.325.52 1.622-.011.486.021.508.331.216.188-.177.337-.616.329-.973-.007-.357-.188-1.039-.403-1.515-.212-.476-.77-1.288-1.237-1.805-.469-.517-1.292-1.227-1.826-1.574-.623-.404-1.253-.629-1.748-.627m-51.61-.424c-.253-.002-.571.143-.703.32-.188.253-.157.35.139.443.208.067.807.336 1.33.596.524.262 1.439 1.012 2.034 1.665.595.655 1.261 1.603 1.482 2.11.22.506.4 1.114.4 1.352s.098.433.217.433.264-.146.324-.325c.059-.177.108-.593.106-.92-.003-.326-.232-1.082-.513-1.676-.284-.595-.987-1.556-1.568-2.135-.58-.58-1.443-1.235-1.919-1.456s-1.073-.403-1.329-.407m198.939.058c-.379.38-.492.716-.457 1.357.026.47.221 1.241.435 1.717.215.476.723 1.208 1.131 1.625.41.418 1.18.976 1.716 1.242a4.95 4.95 0 0 0 2.056.485c.612.002 1.294-.137 1.568-.32.268-.18.486-.4.486-.49 0-.088-.364-.184-.811-.21-.446-.026-1.176-.197-1.622-.379-.446-.181-1.212-.695-1.698-1.141-.49-.446-1.067-1.103-1.287-1.46s-.537-1.163-.708-1.79l-.307-1.142zm-146.193-.712c-.338 0-.695.066-.794.144-.1.08-.164.227-.145.324.02.1.182.182.361.182.178 0 .641.16 1.028.359.387.197 1.272.902 1.969 1.568.696.665 1.416 1.502 1.6 1.859s.442 1.005.571 1.442c.241.79.243.793.593.325.327-.436.32-.552-.099-1.66-.288-.759-.885-1.65-1.651-2.462-.659-.698-1.564-1.452-2.01-1.675s-1.088-.406-1.423-.406m-51.352-.22c-.441.002-.855.101-.92.22-.065.12.077.217.315.217s.992.425 1.675.942c.684.519 1.634 1.466 2.11 2.106s1.026 1.653 1.218 2.25c.334 1.014.37 1.054.595.598.134-.269.242-.682.242-.92s-.158-.749-.35-1.136c-.193-.387-.709-1.19-1.149-1.785s-1.283-1.4-1.869-1.79c-.731-.484-1.32-.707-1.867-.702m149.136.437c-.1 0-.41.225-.69.5-.386.379-.502.712-.474 1.352.023.523.29 1.248.692 1.88.357.564 1.04 1.27 1.517 1.568.476.296 1.23.628 1.675.736.639.154.95.114 1.461-.182.357-.206.795-.544.974-.745.296-.336.272-.37-.27-.36-.327.006-1.05-.208-1.604-.477-.554-.268-1.285-.802-1.622-1.189a9 9 0 0 1-1.047-1.568c-.238-.476-.433-1.013-.433-1.19 0-.18-.08-.324-.18-.325m50.64-1.725c-.09.005-.334.247-.542.542-.207.294-.376.85-.374 1.237s.18 1.092.394 1.568c.212.476.733 1.256 1.157 1.732.426.476 1.247 1.1 1.826 1.392.647.322 1.447.532 2.075.541.782.009 1.135-.102 1.507-.474l.488-.487a6.4 6.4 0 0 1-2.042-.313c-.537-.175-1.461-.742-2.056-1.261-.606-.528-1.346-1.46-1.679-2.118-.328-.647-.597-1.443-.594-1.77 0-.326-.072-.592-.16-.589m93.065 1.656c-.093.078-.153.44-.134.806.017.368.304 1.106.64 1.643.333.534.943 1.228 1.354 1.542s1.089.74 1.506.95c.415.21 1.129.38 1.581.381.454-.002.937-.113 1.071-.249.184-.182.084-.244-.391-.242-.351.002-1.125-.234-1.72-.524s-1.465-.95-1.935-1.465c-.467-.514-1.066-1.395-1.328-1.958-.263-.561-.553-.96-.644-.884m-240.462-1.225c-.307-.002-.639.061-.739.139-.1.08-.165.227-.146.324.02.1.182.182.361.182.178 0 .691.188 1.136.42.446.231 1.225.79 1.729 1.244.504.452 1.259 1.408 1.678 2.122.42.713.758 1.492.751 1.73-.01.387.024.399.331.109.189-.18.338-.57.332-.866-.005-.298-.293-1.028-.639-1.623-.344-.595-1.05-1.514-1.567-2.042-.517-.525-1.327-1.133-1.803-1.345-.476-.215-1.117-.392-1.424-.394m-50.77-.184c-.713-.157-.984-.136-1.196.095-.22.242-.218.301.002.301.154 0 .732.268 1.287.595.556.326 1.456 1.082 2.001 1.68.545.596 1.21 1.522 1.476 2.054.266.534.48 1.213.476 1.512-.006.487.028.509.337.217.188-.18.34-.64.333-1.028-.004-.387-.142-1.019-.304-1.406-.165-.387-.612-1.092-.999-1.568a11.5 11.5 0 0 0-1.597-1.556c-.491-.38-1.309-.783-1.816-.896m52.192-.752c-.357-.067-.79-.072-.963-.01-.171.061-.294.202-.271.31.024.108.215.204.422.208.21.005.691.175 1.072.378.38.204 1.196.858 1.814 1.453.617.594 1.4 1.568 1.739 2.163s.615 1.323.611 1.622c-.007.484.028.508.335.216.19-.18.339-.569.333-.865-.007-.298-.24-1.028-.519-1.623s-.982-1.527-1.566-2.072c-.582-.545-1.352-1.142-1.709-1.326a5.6 5.6 0 0 0-1.298-.454m96.79.619c-.396.426-.508.763-.467 1.41.03.467.188 1.116.35 1.445.163.327.773 1.012 1.352 1.525.582.51 1.398 1.02 1.814 1.133s.928.207 1.135.207c.21 0 .671-.243 1.028-.54s.65-.614.653-.703c.002-.09-.362-.234-.811-.318-.448-.087-1.253-.43-1.79-.768-.534-.335-1.21-.947-1.504-1.358a9 9 0 0 1-.888-1.67l-.353-.924zm143.56.096c-.226 0-.324.229-.324.758 0 .416.182 1.123.404 1.569s.76 1.126 1.191 1.513c.433.387 1.151.886 1.597 1.11.445.223 1.103.47 1.46.55s.917.043 1.244-.083c.326-.123.596-.298.598-.386s-.363-.232-.81-.317-1.401-.528-2.114-.984l-.084-.057c-.144-.044-.449-.233-.775-.486-.345-.27-.696-.644-.863-.911a4 4 0 0 1-.288-.341c-.392-.528-.756-1.179-.811-1.447-.054-.268-.247-.487-.425-.488M-81.077-45.633c-1.51-.002-2.785.073-2.836.166s-.242 1.578-.433 3.3a214 214 0 0 0-.488 4.969c-.117 1.477-.078 1.977.205 2.542.193.387 1.885 2.271 3.758 4.188l3.407 3.488c2.012-.208 4.202-.377 6.166-.51 2.191-.146 3.625-.334 3.712-.486.08-.134.201-.974.27-1.867l.344-4.38.217-2.758c-1.735-2.432-2.668-3.672-3.193-4.328a44 44 0 0 0-2.207-2.487l-1.255-1.299c-3.812-.417-6.157-.538-7.667-.538m-104.738 12.117c-.396 0-.785.072-.866.163-.08.088.366.408.991.708.625.301 1.575 1.022 2.109 1.597.537.578 1.209 1.403 1.497 1.833.286.43.578 1.142.65 1.581.101.64.181.747.406.541a.97.97 0 0 0 .27-.637c-.006-.21-.16-.744-.343-1.189-.187-.448-.661-1.153-1.054-1.568-.396-.418-.805-.918-.911-1.113s-.604-.705-1.11-1.135c-.655-.558-1.125-.78-1.639-.78m198.691-.396c-.411.424-.468.654-.357 1.475.071.535.417 1.485.772 2.11s.96 1.367 1.348 1.65c.387.284 1.043.686 1.46.896.464.231 1.178.366 1.84.346.696-.021 1.218-.167 1.466-.409.212-.205.383-.424.378-.482-.005-.06-.372-.136-.817-.171-.446-.035-1.2-.234-1.677-.444-.476-.21-1.279-.789-1.785-1.289s-1.114-1.298-1.352-1.774c-.237-.476-.513-1.214-.61-1.638l-.178-.774zm-145.227-1.125c-.44.002-.853.102-.918.22-.065.12.099.215.367.212.268-.002.682.141.92.319.237.177.334.322.215.322-.119.002-.605-.086-1.081-.192-.568-.13-1.015-.117-1.298.034-.387.205-.32.271.649.617.699.251 1.521.813 2.325 1.594.684.662 1.487 1.692 1.785 2.287s.541 1.276.541 1.515c.001.24.122.399.271.36s.303-.307.344-.595c.038-.288-.228-1.229-.595-2.092-.368-.863-.621-1.568-.561-1.568.059.001.401.511.755 1.136.355.625.643 1.428.641 1.785-.009.584.026.616.335.324.188-.18.339-.64.333-1.027-.005-.387-.167-1.02-.362-1.406-.192-.388-.661-1.093-1.041-1.569-.383-.476-1.173-1.184-1.759-1.573-.729-.484-1.318-.707-1.866-.703m-52.329 1.088c-.14 0-.162.117-.054.295.099.162.667.715 1.261 1.23.595.515 1.491 1.478 1.991 2.14.499.66.986 1.514 1.082 1.895.138.556.229.643.454.433.153-.143.274-.48.27-.746a2.7 2.7 0 0 0-.258-.974c-.136-.268-.744-1.11-1.352-1.869-.725-.908-1.458-1.56-2.133-1.893-.564-.281-1.13-.51-1.261-.511m292.229 1.459c-.448-.852-.58-.971-.781-.703-.171.229-.177.58-.026 1.191.119.476.495 1.181.837 1.568l.05.054c.145.104.362.287.656.557.174.16.332.317.469.457q.15.117.285.209c.463.316 1.353.681 1.976.811.679.143 1.332.163 1.622.05.452-.173.434-.2-.271-.35-.415-.091-1.194-.388-1.73-.66-.534-.273-1.326-.87-1.759-1.326a9.8 9.8 0 0 1-1.328-1.858m-291.669-2.532c-.407-.002-.848.197-1.181.535-.387.387-.443.536-.206.536.18 0 .44-.121.578-.27.199-.214.49-.153 1.396.294.629.31 1.611 1.04 2.182 1.622s1.227 1.447 1.458 1.923.416 1.108.412 1.406c-.007.49.028.511.35.217.266-.242.325-.534.228-1.136a6.3 6.3 0 0 0-.457-1.46c-.18-.357-.69-1.049-1.136-1.536-.446-.486-1.298-1.166-1.893-1.508-.594-.341-1.374-.622-1.731-.623m249.438-3.584c.55-.208 1.262-.29 1.948-.223.6.06 1.756.435 2.595.844.943.46 1.828 1.094 2.345 1.682.456.52 1.065 1.406 1.353 1.97.35.69.523 1.404.527 2.165.004.923-.117 1.307-.648 2.055-.448.629-.912.997-1.467 1.166-.467.14-1.361.19-2.11.114a7.9 7.9 0 0 1-2.488-.729c-.655-.328-1.629-1.04-2.163-1.579-.536-.538-1.241-1.515-1.57-2.166-.34-.672-.597-1.54-.595-1.999 0-.445.134-1.126.296-1.513s.478-.873.703-1.08.799-.526 1.274-.707M-34.943-35.25c-.11 0-.413.256-.67.57a2.03 2.03 0 0 0-.448 1.297c.013.4.206 1.095.428 1.54.223.446.783 1.145 1.243 1.552s1.156.87 1.543 1.027c.388.158 1.02.29 1.407.292.5.005.889-.184 1.351-.653.625-.634.632-.658.163-.653-.268.002-.95-.228-1.514-.511-.565-.281-1.394-.915-1.84-1.406-.445-.491-.957-1.183-1.135-1.54-.18-.357-.324-.844-.324-1.082s-.092-.433-.204-.433m50.034-.858c-.1.004-.353.246-.56.54s-.377.753-.375 1.021.124.87.27 1.339c.146.47.705 1.337 1.241 1.93.54.599 1.453 1.299 2.055 1.58.608.28 1.508.505 2.055.51.66.006 1.094-.115 1.345-.377.205-.211.376-.434.381-.493.002-.06-.311-.138-.698-.173s-1.093-.238-1.569-.448c-.475-.212-1.241-.718-1.7-1.127a10 10 0 0 1-1.459-1.714c-.344-.536-.666-1.338-.716-1.784s-.17-.808-.27-.804m93.222 1.29c-.145 0-.325.269-.399.595-.097.426.041.929.483 1.77.465.882.954 1.406 1.97 2.11.744.514 1.669.995 2.056 1.069s.971.073 1.298 0c.326-.074.594-.232.594-.351s-.218-.216-.486-.214-1.017-.267-1.662-.596c-.651-.33-1.6-1.08-2.126-1.678-.521-.595-1.064-1.447-1.207-1.893-.14-.445-.376-.81-.521-.811m-291.314-1.297c-.397 0-.802.064-.902.144-.1.078-.164.226-.145.325.02.098.256.177.524.175s.923.28 1.46.628c.534.349 1.386 1.081 1.892 1.626.506.547 1.115 1.386 1.353 1.861s.432 1.06.432 1.298.074.433.162.433.284-.195.433-.433c.199-.318.212-.619.05-1.135-.123-.388-.463-1.117-.757-1.623-.296-.507-.902-1.27-1.348-1.699-.445-.428-1.177-.964-1.623-1.19s-1.135-.41-1.531-.41m248.968-.416c-.357.013-.978.137-1.378.273-.714.242-.727.27-.605 1.222.077.601.416 1.406.89 2.11.422.624 1.214 1.45 1.759 1.838.545.387 1.398.867 1.893 1.068.496.204 1.366.373 1.93.38.564.006 1.171-.035 1.352-.095.22-.074.325-.402.323-1.029-.002-.506-.23-1.406-.505-2-.3-.645-.975-1.504-1.674-2.125-.763-.679-1.55-1.15-2.255-1.354-.594-.171-1.373-.301-1.73-.288m-197.21.204c-.307-.002-.64.06-.739.14-.1.078-.167.2-.148.27.018.07.351.243.74.386.388.143 1.143.589 1.679.989.534.4 1.391 1.353 1.901 2.12.511.765.972 1.706 1.028 2.094.084.601.147.664.432.432.184-.149.329-.563.321-.92-.007-.357-.206-1.062-.442-1.568s-.891-1.421-1.456-2.033c-.564-.612-1.416-1.291-1.892-1.51-.476-.216-1.117-.398-1.424-.4m240.41.753c-.121-.076-.227.13-.244.473-.015.36.224.964.59 1.474.339.476.976 1.181 1.413 1.568s1.062.837 1.389 1.001a6.2 6.2 0 0 0 1.352.444l.757.143a98 98 0 0 1-2.811-2.248l-1.894-1.568c-.208-.173-.368-.502-.358-.734.013-.23-.075-.48-.194-.553m-194.194-8.714c-.026-.03-1.108 1.073-2.406 2.453-1.3 1.378-2.422 2.767-2.499 3.085-.075.319-.148 2.28-.166 4.363l-.028 3.786 4.299-4.543c.385-4.86.575-6.906.67-7.68s.153-1.431.13-1.464m7.996 1.557c.601.04 1.586.325 2.218.638.625.312 1.581.98 2.129 1.486.545.507 1.267 1.359 1.605 1.893.335.536.776 1.558.98 2.272.248.873.322 1.616.225 2.271-.08.536-.338 1.316-.576 1.732-.238.417-.787 1.001-1.22 1.297-.668.461-1.032.541-2.425.541s-1.828-.098-2.912-.649c-.72-.368-1.754-1.164-2.384-1.839-.61-.653-1.372-1.724-1.692-2.38-.32-.653-.644-1.676-.72-2.271s-.033-1.495.099-2.001c.143-.552.563-1.248 1.05-1.743.454-.461 1.192-.933 1.676-1.072.477-.136 1.352-.215 1.947-.175m200.703 7.949c-.091.021-.914.093-1.832.162-1.648.125-1.681.14-2.775 1.209-.608.595-1.415 1.462-1.792 1.928l-.686.845c3.766-.22 3.927-.268 4.407-.852a54 54 0 0 1 1.677-1.867c.64-.684 1.163-1.293 1.163-1.352s-.074-.093-.162-.073m-305.564-2.41c-.319-.003-.628.07-.687.158-.055.089.397.404 1.004.702.61.296 1.551.937 2.094 1.422.543.482 1.257 1.408 1.586 2.054.326.645.594 1.394.594 1.663-.002.268.074.486.169.486s.292-.122.437-.27c.145-.15.262-.418.258-.595-.003-.18-.249-.835-.545-1.46s-1-1.638-1.567-2.25c-.564-.613-1.417-1.291-1.893-1.51-.476-.216-1.127-.398-1.45-.4m295.83-1.301c-.089 0-.916.829-1.839 1.839-.92 1.008-1.648 1.865-1.623 1.908.03.041.833.7 1.785 1.469.952.765 2.072 1.653 2.487 1.971l.758.575c2.366-2.577 3.119-3.448 3.203-3.6.093-.166-.238-.627-.85-1.19a37 37 0 0 0-2.379-1.947c-.758-.563-1.449-1.025-1.542-1.025m-243.654 1.169c-.555-.095-.847-.037-1.081.224-.285.316-.275.352.112.346.239-.004.92.275 1.515.62.595.343 1.39.95 1.767 1.349.378.398.939 1.212 1.251 1.806.309.595.559 1.35.557 1.677-.004.433.083.564.319.486.179-.06.384-.376.456-.703.08-.361-.024-.98-.262-1.568-.219-.537-.763-1.437-1.213-2-.45-.566-1.233-1.27-1.739-1.567-.504-.297-1.262-.599-1.682-.67m-50.821-6.581c-.115 0-.46.316-.768.703-.521.651-.554.818-.444 2.271.065.863.217 1.617.336 1.677s.337-.044.486-.225c.15-.184.513-.33.812-.32.296.006.93.188 1.406.398.476.212 1.285.723 1.8 1.131.515.411 1.272 1.233 1.685 1.828.416.595.891 1.617 1.062 2.272.288 1.11.28 1.237-.118 1.893-.234.387-.402.745-.372.798.03.051.637.244 1.351.428 1.205.31 1.326.307 1.69-.04.214-.207.495-.715.623-1.133.201-.655.155-.93-.353-2.054-.322-.714-1.032-2.03-1.579-2.921-.547-.894-1.391-2.042-1.878-2.555-.484-.513-1.224-1.138-1.639-1.387-.418-.248-1.465-.9-2.332-1.447-.866-.545-1.571-1.066-1.569-1.155.004-.089-.087-.162-.199-.162m196.99 6.419c-.511.534-.568.726-.44 1.48.08.475.363 1.302.627 1.838.264.534.859 1.28 1.322 1.657a10 10 0 0 0 1.815 1.131c.537.247 1.339.45 1.785.452a2.06 2.06 0 0 0 1.406-.506l.595-.51c-1.677-.225-2.553-.52-3.029-.801-.476-.28-1.279-.959-1.785-1.508-.504-.547-1.03-1.265-1.166-1.592-.138-.326-.315-.97-.397-1.426l-.148-.83zm-49.464.289c-.119 0-.411.316-.647.703-.238.387-.43.849-.428 1.028 0 .178.227.812.501 1.406.277.595.836 1.363 1.242 1.71.407.345 1.059.758 1.444.918.387.16 1.068.295 1.513.297.59.005.961-.145 1.353-.546l.54-.551c-.752.008-1.434-.208-1.996-.476-.565-.268-1.343-.802-1.73-1.19a8.3 8.3 0 0 1-1.177-1.56c-.26-.472-.455-1.056-.433-1.298.021-.242-.06-.44-.182-.441m-44.129-4.702a3.66 3.66 0 0 0-1.838.332c-.476.222-1.01.57-1.19.774-.29.329-.285.366.054.357.207-.004.378.09.379.208 0 .12-.195.264-.433.325-.238.06-.53.303-.65.54-.202.407-.16.424.704.299.601-.09 1.37-.005 2.218.242 1.04.302 1.54.619 2.52 1.596.67.669 1.423 1.655 1.67 2.19.279.601.446 1.387.438 2.055l-.016 1.081c-.586-1.844-.967-2.792-1.225-3.298-.257-.506-.832-1.275-1.278-1.707s-1.2-.96-1.677-1.172a8.5 8.5 0 0 0-1.722-.527c-.473-.075-1.077-.036-1.352.091-.272.127-.495.305-.499.394 0 .089.46.24 1.027.334.57.095 1.324.311 1.681.484s.99.591 1.406.933c.416.34 1.067 1.191 1.448 1.894.378.701.767 1.692.865 2.2.151.796.249.922.716.916.296-.005.649-.078.78-.166.133-.088.414-.499.624-.915.274-.547.344-1.014.247-1.677-.076-.506-.382-1.407-.678-2.001-.298-.595-.82-1.398-1.159-1.785s-1.192-1.017-1.893-1.4c-.7-.383-1.493-.698-1.761-.703-.268-.004-.536-.104-.595-.223-.06-.119.037-.264.217-.325.18-.06.542-.106.81-.101.269.004 1.063.32 1.766.703.7.383 1.612 1.086 2.019 1.562s.997 1.352 1.306 1.947c.437.839.564 1.409.575 2.54.007.801.06 1.463.121 1.468.06.003.291-.362.511-.811.311-.633.373-1.086.269-2.007-.074-.656-.36-1.677-.637-2.272-.275-.594-.98-1.573-1.565-2.174-.585-.6-1.552-1.324-2.147-1.61-.595-.283-1.521-.55-2.056-.59m144.297 3.931c-.533-.039-1.167-.017-1.406.05a3.5 3.5 0 0 0-.865.422c-.387.268-.288.3.973.295.774-.005 1.845.146 2.38.337.534.188 1.321.603 1.747.923.427.319 1.108.965 1.515 1.437s.947 1.396 1.198 2.056c.281.73.507 1.072.578.874.063-.178.021-.765-.095-1.3-.117-.533-.392-1.264-.61-1.621-.22-.357-.87-1.082-1.445-1.611-.578-.53-1.49-1.15-2.023-1.376-.534-.23-1.412-.447-1.947-.486m-147.379.99c-.207-.003-.378.116-.379.265s.204.66.453 1.136.859 1.287 1.354 1.804c.493.517 1.385 1.223 1.98 1.567.594.346 1.155.629 1.244.629s.1-.314.027-.7c-.076-.388-.356-1.14-.629-1.677-.272-.534-.77-1.236-1.11-1.556-.338-.32-1.054-.781-1.588-1.023-.536-.242-1.143-.443-1.352-.446m-100.331-1.186c-.415-.08-.844-.073-.953.015-.108.087-.181.24-.16.34.02.097.255.182.521.184.268.004.967.32 1.551.703.584.385 1.363 1.05 1.731 1.478a10 10 0 0 1 1.136 1.73c.259.524.56 1.195.668 1.493l.202.54c.445-.867.43-1.209.174-2.054-.22-.738-.683-1.47-1.46-2.3-.623-.669-1.476-1.389-1.893-1.6a7 7 0 0 0-1.517-.53m56.569-8.497c-1.032-.102-1.15-.059-2.164.798-.591.5-1.538 1.363-2.105 1.919l-1.032 1.012c.006 2.432.107 3.185.225 3.245s.29 0 .378-.134c.102-.152.442-.186.92-.091.416.082 1.147.375 1.622.65.476.276 1.329.999 1.894 1.607s1.269 1.616 1.565 2.24c.297.626.539 1.405.541 1.731s-.095.79-.213 1.028c-.191.383-.122.457.594.636.446.113 1.14.136 1.54.054.403-.082.827-.344.949-.582.121-.238.177-.872.123-1.406-.063-.651-.478-1.655-1.25-3.028-.634-1.13-1.504-2.432-1.935-2.891-.428-.46-1.558-1.352-2.51-1.981-.951-.63-2.021-1.39-2.379-1.688-.357-.296-.576-.6-.487-.669.09-.068.868.294 1.731.806.862.512 2.078 1.145 2.704 1.405.624.26 1.256.474 1.406.475.15 0 .855-.536 1.568-1.19l1.299-1.188c-1.51-1.391-2.386-1.988-2.921-2.224-.536-.236-1.464-.476-2.063-.534m-4.905 8.386c-.438-.002-.854.094-.92.212-.064.12.053.217.26.217.21-.002.769.204 1.244.452.476.252 1.287.86 1.802 1.355.515.493 1.164 1.287 1.439 1.763.276.475.562 1.18.633 1.568.076.413.241.673.399.632.149-.04.303-.355.34-.703.036-.349-.102-1.072-.31-1.606-.21-.536-.824-1.449-1.367-2.033-.543-.582-1.379-1.237-1.855-1.456-.475-.216-1.223-.398-1.665-.4m-47.548-8.448c-.745.003-1.23.176-2.056.734-.595.402-1.255.913-1.467 1.135-.37.392-.361.423.217.828a29 29 0 0 0 1.791 1.096c.653.372 1.774.892 2.488 1.154 1.244.456 1.32.46 1.839.101.523-.365.534-.363.355.047-.104.236-.236.574-.296.751-.059.177.153.91.473 1.623.321.714 1.108 2.077 1.75 3.028s1.316 1.95 1.497 2.218.281.584.223.703c-.063.125-.292.058-.547-.162-.422-.363-.439-.361-.431.054.007.238.093.58.195.757.147.257.504.013 1.739-1.19.855-.833 1.599-1.686 1.65-1.893.054-.209-.062-.987-.258-1.73-.197-.745-.583-1.84-.86-2.434-.274-.595-.99-1.69-1.59-2.434-.995-1.235-1.12-1.324-1.466-1.034-.208.177-.476.326-.595.333-.119.006-.022-.193.216-.444l.432-.454c-1.341-1.144-2.314-1.771-3.028-2.132-.88-.446-1.612-.657-2.271-.655m194.602 7.489c-.181.287-.333.863-.333 1.278 0 .417.127 1.075.285 1.46.156.387.669 1.129 1.136 1.65s1.313 1.178 1.878 1.461c.564.284 1.441.575 1.947.649.777.114 1.02.052 1.569-.403l.649-.538c-1.592-.214-2.445-.472-2.92-.71-.477-.238-1.266-.846-1.755-1.352-.489-.504-1.04-1.212-1.224-1.569a11 11 0 0 1-.618-1.548l-.278-.9zm-50.079 1c-.14.51-.202 1.17-.135 1.467.067.299.37.93.675 1.407.303.476.863 1.086 1.244 1.352.38.268 1.106.633 1.61.81.594.21 1.16.27 1.594.164.372-.089.761-.284.865-.433.132-.186.007-.362-.404-.567-.326-.163-1.178-.777-1.892-1.365-.714-.587-1.749-1.675-2.298-2.414l-1.002-1.348zm-96.12-.899c-.342.009-.165.157.595.5.595.267 1.508.871 2.029 1.341.519.467 1.196 1.289 1.503 1.823.307.537.628 1.266.71 1.623l.149.649c.035-.921-.166-1.603-.424-2.109-.257-.504-.915-1.392-1.461-1.971-.545-.578-1.355-1.235-1.803-1.46-.446-.225-1.03-.402-1.298-.396m-51.278.283c-.448-.136-.857-.186-.912-.108-.054.076.362.353.924.62.563.263 1.402.797 1.867 1.189.465.389 1.14 1.146 1.499 1.68.36.537.784 1.316.942 1.732.264.69.279.697.164.107-.069-.357-.339-1.073-.597-1.594-.259-.521-1.058-1.495-1.774-2.164-.731-.683-1.657-1.323-2.113-1.462m147.658-3c-.35-.92-.457-1.078-.368-.542.069.418.406 1.342.748 2.056s1.082 1.833 1.644 2.488c.56.656 1.467 1.56 2.012 2.012.547.454 1.675 1.15 2.508 1.549.832.398 1.95.78 2.487.848l.974.123c-1.846-.6-3.011-1.11-3.782-1.519-.772-.407-2.07-1.375-2.885-2.147-.816-.773-1.79-1.894-2.166-2.489s-.902-1.666-1.172-2.38m-86.799-1.407c-.117 0-.796.56-1.51 1.244l-1.301 1.244c.6 1.677 1.249 2.942 1.829 3.894.577.952 1.179 1.878 1.333 2.056.155.177.282.445.285.594.004.15-.14.223-.318.162q-.324-.108-.325.326c0 .237.089.408.197.378.109-.032.741-.565 1.407-1.19.664-.625 1.3-1.307 1.413-1.514.129-.245.1-.875-.083-1.785-.156-.772-.551-1.94-.88-2.596-.327-.656-.874-1.556-1.216-2.001-.342-.446-.716-.811-.831-.812m90.206-3.68c-.536 0-1.3.172-1.701.381-.4.208-.917.72-1.149 1.136-.324.58-.396 1.01-.307 1.839.067.632.454 1.75.932 2.69.548 1.077 1.32 2.115 2.335 3.136 1.058 1.069 2.035 1.8 3.245 2.425.949.493 2.238 1.004 2.864 1.136.783.166 1.405.173 2.002.024.517-.13 1.084-.479 1.406-.866.296-.357.606-1.015.684-1.46.09-.51.005-1.336-.224-2.218-.203-.772-.68-1.923-1.062-2.555-.383-.63-1.235-1.7-1.895-2.38-.66-.676-1.78-1.537-2.487-1.912-.71-.376-1.826-.838-2.48-1.029-.655-.192-1.628-.349-2.163-.347m48.675 5.627c-.085 0-.331.179-.547.397-.26.26-.383.668-.358 1.19.022.436.168 1.11.326 1.496.156.388.668 1.13 1.136 1.649.467.521 1.336 1.192 1.931 1.488.649.327 1.49.554 2.103.57.757.019 1.135-.088 1.46-.408l.439-.432c-1.76-.256-2.66-.558-3.137-.837-.476-.277-1.217-.935-1.65-1.456-.43-.524-.941-1.268-1.136-1.656-.192-.387-.365-.994-.383-1.351-.017-.357-.1-.65-.184-.65m94.736-5.194c-.069 0-.362.315-.649.697-.286.38-.641.892-.783 1.136a2.4 2.4 0 0 0-.277.982c-.006.298.179 1.172.415 1.947.234.772.723 1.819 1.086 2.325s1.365 1.45 2.229 2.099c.863.646 2.005 1.334 2.542 1.527.761.272 1.395.318 2.92.206l1.947-.145c-.113-1.222-.035-1.82.099-2.118.195-.432.165-.733-.158-1.514l-.4-.974c-1.425 2.011-2.053 2.714-2.313 2.857-.261.145-.789.269-1.176.27-.388.005-1.045-.137-1.46-.315-.418-.177-1.259-.787-1.871-1.352s-1.292-1.417-1.508-1.893c-.219-.475-.4-1.23-.403-1.676-.004-.645.195-1.056.969-2.001.534-.655.973-1.236.974-1.298-.001-.06-.464-.255-1.028-.435-.563-.179-1.082-.326-1.155-.325m-2.951 2.815c-.115 0-.939.803-1.83 1.785l-1.625 1.785c.809 3.017 1.112 4.023 1.192 4.182.105.2.637-.229 1.743-1.407 1.582-1.68 1.595-1.703 1.478-2.668a28 28 0 0 0-.435-2.325c-.175-.744-.41-1.352-.523-1.352m-90 .439c-.089.004-.333.247-.541.541s-.379.876-.379 1.291c0 .417.154 1.123.342 1.568s.65 1.186 1.028 1.645c.387.471 1.25 1.108 1.984 1.465.742.361 1.646.629 2.109.627.554-.002 1-.173 1.406-.538l.595-.536c-1.425-.01-2.18-.16-2.596-.337-.417-.177-1.248-.787-1.85-1.352-.6-.565-1.282-1.44-1.514-1.946s-.422-1.26-.422-1.677c0-.415-.073-.755-.162-.751m3.57-2.389c-.874.002-1.156.12-1.893.785-.749.675-.866.905-.862 1.677.003.491.183 1.283.397 1.759s.724 1.244 1.13 1.705c.407.46 1.178 1.062 1.715 1.335.534.273 1.363.519 1.838.549.476.028 1.084-.013 1.352-.093.268-.078.584-.337.703-.575.18-.361.154-.415-.162-.322-.208.058-.736.131-1.173.162-.437.028-.876-.025-.973-.117-.099-.093.186-.165.631-.163.446.005 1.104-.14 1.461-.317s.707-.543.777-.812c.071-.268.053-.876-.037-1.352-.094-.476-.474-1.305-.848-1.839-.385-.55-1.195-1.28-1.856-1.679-.89-.534-1.422-.705-2.2-.703m91.78 5.917c.415.454 1.049.98 1.406 1.166s.917.422 1.244.524c.374.117.595.104.595-.032 0-.12-.147-.216-.325-.216s-.738-.206-1.244-.457a9 9 0 0 1-1.676-1.136l-.757-.68zm-143.545-4.313c.386-.279.5-.23 1.299.575.813.824.932.877 1.79.76.787-.106.967-.054 1.253.363.315.459.298.517-.982 1.568l.643.866c.354.475.65.962.659 1.082.008.119-.141.363-.331.54-.31.292-.44.216-1.277-.757-.884-1.027-.96-1.069-1.503-.812-.313.15-.717.27-.895.27-.18 0-.447-.248-.596-.55-.246-.507-.215-.596 1.029-1.545l-.758-1.028c-.737-.999-.746-1.034-.331-1.332m144.131-1.097c-.06-.56-.072-.566-.417-.162a4.2 4.2 0 0 0-.586 1.01c-.128.326-.169.864-.091 1.19.078.327.268.79.426 1.028q.285.432.076.703c-.147.19-.002.5.493 1.045.387.426 1.092.96 1.568 1.185.476.227 1.205.415 1.622.42.599.003.834-.122 1.119-.594.199-.328.565-.815.811-1.083l.45-.487c-1.434-.312-2.338-.785-2.974-1.28-.625-.485-1.331-1.224-1.569-1.64-.237-.415-.529-.757-.648-.758-.119 0-.245-.259-.28-.577m-142.312 2.986c-.262-.253-.313-.215-.357.269a3.4 3.4 0 0 1-.266 1c-.119.237-.166.432-.108.433.059 0 .377-.1.703-.223.445-.166.64-.154.777.054q.184.275.054-.102c-.082-.242.028-.476.304-.65.24-.149.436-.343.434-.432s-.279-.137-.62-.107c-.339.03-.754-.08-.921-.242m142.596-1.489c.004-.244.167-.11.459.378.251.418.802 1.05 1.228 1.406.424.357 1.264.816 1.865 1.022.634.214.888.373.608.378-.269.004-.95-.225-1.514-.508-.564-.281-1.393-.915-1.839-1.406-.445-.489-.809-1.062-.807-1.27m-94.848-.27c.136-.246.212-.166.31.324.073.357.297.99.499 1.406.203.417.372.806.377.865.002.06-.152-.037-.342-.216-.19-.178-.5-.714-.686-1.19-.2-.519-.266-.994-.158-1.19m92.797.787c-.104.082-.171.403-.15.71s.124.705.228.883c.104.176.298.25.43.162.132-.09.235-.334.231-.541-.002-.208-.129-.602-.278-.872-.149-.273-.357-.426-.461-.342m4.409-4.032c-.246 0-.734.291-1.082.648-.571.586-.61.719-.409 1.352.123.388.338.848.476 1.028.141.18.502.602.805.94s.917.8 1.362 1.027 1.128.415 1.515.42c.398.004.865-.16 1.075-.38.206-.211.377-.7.379-1.087.004-.387-.132-.971-.299-1.298-.168-.327-.631-.907-1.027-1.288-.398-.38-1.089-.844-1.534-1.028-.445-.183-1.012-.334-1.261-.334"/></g></svg>