<svg xmlns="http://www.w3.org/2000/svg" fill="none" viewBox="0 0 32 32"><mask id="a" width="32" height="32" x="0" y="0" maskUnits="userSpaceOnUse" style="mask-type:alpha"><path fill="#d9d9d9" d="M0 0h32v32H0z"/></mask><g mask="url(#a)"><path fill="#e31e24" d="M-88.3 52.647c.52-.09 2.17-.124 3.66-.074 1.492.049 3.2.21 3.797.356s1.483.484 1.971.754c.487.267 1.24.792 2.46 1.842l-.009-1.04c-.003-.834.072-1.11.384-1.4.33-.31.637-.362 2.077-.362 1.381 0 1.75.06 2.014.322.271.271.317.59.275 1.988-.025.916-.129 1.748-.228 1.848a.66.66 0 0 0-.179.407c.002.148.36.24 2.083.317l.04 5.875c.033 4.441-.013 5.931-.181 6.109-.124.13-.602.23-1.08.225-.473-.003-.9.075-.949.174-.05.1.035.283.189.407.222.18.277.628.27 2.17-.007 1.905-.018 1.95-.504 2.31-.396.293-.766.368-1.807.362-1.211-.005-1.353-.047-1.854-.548-.47-.468-.53-.64-.452-1.265.049-.398.049-.724 0-.724-.052.002-.6.41-1.22.908-.621.5-1.7 1.145-2.395 1.434-.696.29-1.796.613-2.442.718-.647.106-2.111.191-3.254.191-1.243-.002-2.552-.114-3.253-.282-.648-.154-1.706-.557-2.351-.897a13.4 13.4 0 0 1-2.17-1.492c-.548-.48-1.37-1.438-1.829-2.129-.46-.688-1.041-1.783-1.296-2.428-.253-.648-.55-1.664-.658-2.26a15 15 0 0 1-.195-2.215c0-.622.13-1.76.289-2.53.157-.77.551-1.971.875-2.667a15.7 15.7 0 0 1 1.412-2.35c.452-.597 1.137-1.337 1.518-1.644a19 19 0 0 1 1.466-1.04 13 13 0 0 1 1.673-.842c.497-.199 1.33-.435 1.853-.528m10.43 16.714c-.247-.227-.342-.139-.806.772-.317.622-1.101 1.605-1.98 2.482-.808.808-1.937 1.716-2.539 2.047q-1.083.593-.542.462a31 31 0 0 1 1.266-.26c.397-.072.58-.14.407-.153-.176-.013-.277-.104-.227-.203s.558-.179 1.13-.179c.6.002 1.192-.103 1.401-.25.335-.233.306-.25-.36-.227-.398.012-.746-.058-.773-.158-.026-.099.3-.204.723-.233.43-.028.73.018.847.129l.078.103c.11.092.358-.02.864-.38.434-.31 1.055-.859 1.378-1.22.322-.362.584-.842.58-1.066-.001-.224.16-.569.359-.767.2-.199.325-.423.278-.497-.05-.074-.474-.138-.945-.142-.484-.002-.981-.115-1.139-.26m-9.257-15.988c-.522.01-1.275.095-1.672.19-.398.095-1.253.43-1.898.749-.685.338-1.704 1.081-2.441 1.78-.895.849-1.488 1.617-2.02 2.622-.416.78-.898 1.95-1.073 2.596q-.319 1.174-.312 3.074c.006 1.502.1 2.18.446 3.254.242.744.813 1.965 1.268 2.712.457.744 1.268 1.744 1.803 2.221s1.582 1.177 2.329 1.557c.924.47 1.728.734 2.53.83.646.076 1.42.083 1.718.015.54-.123.539-.125-.452-.579-.548-.249-1.43-.794-1.963-1.21s-1.278-1.162-1.658-1.659-.974-1.474-1.322-2.17c-.347-.696-.76-1.854-.918-2.576-.158-.721-.285-1.86-.284-2.531.002-.67.123-1.79.268-2.485.145-.696.633-2.019 1.081-2.939.622-1.27 1.112-1.966 2.04-2.9.722-.726 1.679-1.462 2.35-1.808.618-.319 1.127-.62 1.13-.67-.002-.05-.43-.084-.95-.073m2.667.624c-.316-.056-.883.039-1.356.227-.448.179-1.297.645-1.888 1.037-.59.394-1.362 1.063-1.717 1.488-.354.425-.95 1.278-1.322 1.898s-.855 1.777-1.072 2.573c-.286 1.045-.392 1.924-.381 3.164.01 1.318.121 2.054.476 3.164.254.795.779 1.935 1.164 2.531s1.224 1.575 1.862 2.173c.85.799 1.535 1.245 2.562 1.672l1.4.584c1.785-.928 2.796-1.705 3.537-2.44.898-.892 1.477-1.667 1.952-2.622.564-1.131.711-1.676.894-3.285l.217-1.93c-.854-.644-1.047-1.01-1.175-1.655-.1-.497-.181-1.393-.181-1.99 0-.596.1-1.284.226-1.528.198-.394.164-.534-.304-1.221-.291-.427-.942-1.182-1.446-1.68-.505-.498-1.366-1.165-1.912-1.483-.547-.318-1.237-.623-1.536-.677m12.023 16.896c-2.335 0-3.082.054-3.164.119-.083.067-.138.718-.121 1.446.025 1.131.075 1.327.346 1.327.275 0 .31-.163.272-1.266-.038-1.024.005-1.265.225-1.265s.263.24.227 1.265l-.045 1.266h2.26zm-6.779 1.626c.562 0 .795.07.754.226-.032.125-.396.246-.813.272-.569.034-.754-.022-.754-.226 0-.2.212-.272.813-.272m1.32-.649c.13.01.233.098.23.197-.007.1-.416.202-.915.227-.512.025-.905-.033-.906-.136 0-.1.305-.208.678-.242.372-.034.784-.055.913-.046m.669-.89c.1.017.18.147.18.288 0 .186-.238.257-.858.257-.47 0-.86-.081-.864-.18-.004-.1.302-.23.678-.29.375-.06.764-.094.864-.076m.11-.992c.505 0 .703.076.703.272 0 .206-.23.273-.949.278-.842.007-.922-.024-.703-.271.143-.161.543-.279.95-.279m3.211-.325c-.543-.029-1.057.005-1.145.075-.087.07-.145.198-.13.28.018.083.56.15 1.207.15.849 0 1.158-.062 1.115-.225-.037-.137-.449-.247-1.047-.28m3.276-11.245c-5.75 0-6.707.061-6.86.226-.118.124-.172.47-.12.768.05.298.226 1.112.389 1.808.211.905.27 1.752.206 2.983-.051.944-.224 2.205-.387 2.802-.163.596-.251 1.268-.197 1.492.097.403.122.406 3.535.406h3.434zm-5.344.236c.13.044.193 1.672.193 5.02 0 4.579-.023 4.957-.316 5.002-.295.043-.318-.303-.347-4.894-.016-2.715.04-4.993.124-5.066a.41.41 0 0 1 .346-.062m-2.592.928c-.09-.056-.165.371-.167.95-.002.576.09 1.415.208 1.862.148.569.318.833.573.883.336.067.352.013.216-.811a21 21 0 0 0-.407-1.834c-.143-.522-.335-.993-.423-1.05m-4.99-6.148c.198.158.42.286.497.285.074-.002.521.259.995.577.472.32 1.25.95 1.731 1.4.481.452 1.127 1.23 1.436 1.727l.622.995c.033.048.181-.095.327-.316.211-.324.436-.408 1.081-.408.447 0 .854-.08.904-.18.048-.1-.48-.751-1.175-1.447s-1.347-1.265-1.447-1.265c-.099 0-.14.081-.09.18.05.1-.094.23-.316.29-.224.06-.672.06-.994 0-.324-.06-.588-.19-.588-.29.001-.099.385-.177.858-.173.774.007.832-.02.588-.275-.186-.191-.669-.294-1.522-.323-.818-.027-1.272-.121-1.31-.268-.037-.137.137-.236.437-.255.273-.014.009-.081-.588-.148s-1.248-.185-1.446-.259l-.362-.137zm9.48 3.538c-1.22 0-1.266.016-1.084.361.163.305.35.354 1.23.316.827-.036 1.046-.108 1.084-.36.04-.277-.118-.317-1.23-.317m-3.534-.143c.511.029.93.15.978.278.057.163-.202.226-.935.226-.559 0-1.054-.062-1.103-.136-.047-.074-.03-.2.038-.278.07-.08.529-.12 1.022-.09m5.173-3.293c-2.334 0-3.082.054-3.164.12s-.138.678-.121 1.356c.016.679.09 1.27.166 1.314.074.044.217.023.316-.046.1-.067.18-.631.18-1.253 0-.633.08-1.128.181-1.128.102 0 .182.515.182 1.176v1.173h2.26zm-6.077 2.208c.511.029.931.15.978.278.058.163-.202.226-.935.226-.559 0-1.054-.062-1.103-.136-.047-.074-.03-.2.038-.278.07-.08.529-.12 1.022-.09m5.536-2.027c.1 0 .18.483.18 1.085 0 .601-.08 1.084-.18 1.085-.101-.001-.18-.484-.18-1.085 0-.602.079-1.084.18-1.085m-8.09-51.887c.174 0 .724.203 2.124.904V13.22l.542.271c.298.148.695.577.88.95.3.6.608.806 2.667 1.793a133 133 0 0 0 4.047 1.867v2.713l-.769.622c-.423.341-2.03 1.665-3.57 2.939a4981 4981 0 0 0-7.097 5.889c-2.36 1.961-4.437 3.568-4.61 3.572-.177.002-2.068-.988-4.203-2.2l-6.328-3.591.02-12.798 3.74-3.162c2.06-1.74 5.654-4.758 7.992-6.71 2.335-1.948 4.391-3.545 4.565-3.545m9.49 17.361c-.027.007-.656.52-1.402 1.145-.745.626-3.104 2.584-5.242 4.352s-4.882 4.039-6.097 5.047c-2.037 1.69-2.211 1.884-2.224 2.466-.01.586.011.613.304.361.175-.15 2.516-2.103 5.205-4.34 2.69-2.238 5.931-4.923 7.202-5.966 2.112-1.73 2.313-1.948 2.306-2.485-.004-.321-.028-.583-.053-.58m-20.656 9.816c-.1-.018-.405.063-.678.18-.484.208-.428.252 2.35 1.84 1.565.895 2.949 1.648 3.074 1.673.143.029.223-.168.222-.542-.004-.57-.082-.63-2.396-1.853-1.315-.696-2.472-1.28-2.572-1.298m15.096-12.89c-.05.01-.342.275-.647.592-.305.318-.787.782-1.07 1.03-.281.249-.803.679-1.16.957s-.892.709-1.19.958c-.299.25-1.52 1.264-2.713 2.256-1.193.993-2.535 2.121-2.983 2.508-.447.389-1.22 1.042-1.717 1.452a87 87 0 0 0-1.56 1.325c-.362.318-.85.705-1.085.863-.427.283-.419.291 1.199 1.157.894.479 1.951 1.06 2.35 1.294l.723.423c4.064-3.397 6.496-5.41 8.027-6.664 1.532-1.255 3.748-3.074 4.926-4.044l2.143-1.763c-1.752-.806-2.91-1.336-3.706-1.7s-1.487-.652-1.537-.645M20.49 1.935a6.2 6.2 0 0 1 2.125-.194c.62.049 1.33.17 1.58.269.248.1.514.306.588.458.1.2-.394.805-1.811 2.215-1.811 1.803-1.938 1.976-1.826 2.48.065.298.186.704.265.903.082.2.294.547.471.773.192.238.736.52 2.314.938l1.898-1.909c1.327-1.332 2.004-1.889 2.248-1.848.25.042.42.32.596.961.144.534.215 1.424.17 2.17a6.5 6.5 0 0 1-.595 2.42 6.2 6.2 0 0 1-1.47 2.033c-.522.485-1.336 1.06-1.807 1.279-.671.313-1.273.412-4.656.522l-2.35 2.647a3802 3802 0 0 1-3.893 4.375c-.848.953-2.682 3.071-4.08 4.713-1.994 2.343-2.7 3.052-3.294 3.3-.415.173-.938.316-1.162.314-.224 0-.713-.081-1.085-.18s-.936-.404-1.25-.677c-.317-.273-.722-.823-.901-1.22a4.5 4.5 0 0 1-.326-1.537c0-.449.141-1.114.313-1.48.172-.37 2.434-2.972 5.025-5.786 2.593-2.815 5.44-5.92 6.328-6.9.888-.977 1.68-1.953 1.76-2.168.08-.214.064-.837-.037-1.383a6.8 6.8 0 0 1-.032-1.99c.081-.545.306-1.359.497-1.807.19-.448.709-1.206 1.151-1.687.443-.48 1.131-1.065 1.529-1.298s1.169-.551 1.717-.706m104.045.57c.199-.052.606-.053.904-.001.298.05.786.213 1.085.361s.814.526 1.146.837c.331.313.771.893.976 1.291.206.398.381 1.065.39 1.483.015.636-.086.871-.63 1.446-.639.674-.647.7-.421 1.41.126.398.237 1.008.246 1.356.014.497-.12.77-.622 1.266-.351.347-.636.795-.631.994.003.221-.58.94-2.986 3.309l-1.536.146c-1.448.138-1.571.183-2.123.786-.321.352-.585.72-.586.82 0 .1-.657.833-1.46 1.629-.802.795-2.859 2.935-4.567 4.756-3.059 3.26-3.117 3.31-3.789 3.254-.649-.052-.751.018-3.517 3.017l-.972-.013c-.537-.007-1.239-.147-1.563-.315-.324-.167-.934-.65-1.359-1.072s-.963-1.176-1.196-1.673c-.319-.68-.406-1.137-.357-1.848.063-.914.113-.99 1.646-2.531 1.335-1.341 1.582-1.678 1.582-2.175.002-.519.488-1.097 4.195-4.972 2.307-2.411 4.748-4.914 6.653-6.734l.002-2.35 1.671-1.672c1.227-1.23 1.79-1.671 2.124-1.67.248.002.777-.238 1.175-.537.398-.298.845-.545.995-.55.149-.005.659.195 1.988.903l.588-.428c.324-.237.751-.472.949-.522m-57.322.5.216.813c.117.448.256 1.016.31 1.266.08.376.287.506 2.378 1.097l.874-.819c.478-.451.965-.816 1.084-.815.115.003.924.533 1.793 1.175.87.643 1.58 1.23 1.582 1.305 0 .076-.214.626-.95 2.305l1.222 1.935 1.31-.109c1.133-.094 1.333-.065 1.474.208.089.174.363 1.05.61 1.943.436 1.58.44 1.646.132 2.26-.231.465-.56.742-1.24 1.04-.896.393-.93.433-.93 1.13 0 .687.052.755 1.082 1.4.65.407 1.085.806 1.085.996.002.174-.19.825-.424 1.446a29 29 0 0 1-.996 2.26c-.374.744-.675 1.128-.883 1.126-.174-.002-.805-.127-1.402-.277-.97-.245-1.126-.243-1.49.004-.225.152-.409.377-.41.502 0 .125.123.592.275 1.04.235.69.243.924.042 1.536-.222.682-.35.778-4.202 2.65l-.417-.42a8.6 8.6 0 0 1-.814-1.007c-.378-.56-.45-.588-2.746-.597l-.542 1.09c-.299.6-.624 1.123-.724 1.163-.102.037-1.077-.218-2.169-.566-1.094-.35-2.098-.729-2.23-.84-.164-.144-.203-.433-.123-.93.061-.397.15-.928.198-1.175.072-.378-.07-.566-1.822-1.864l-1.266.404c-.696.222-1.366.355-1.491.3-.125-.059-.715-.858-1.313-1.778-.596-.92-1.084-1.793-1.083-1.943s.125-.597.275-.994c.164-.432.491-.85.813-1.04.499-.293.532-.373.427-1.085-.06-.423-.13-.81-.155-.859-.027-.05-.558-.295-1.18-.542-.62-.249-1.176-.533-1.234-.633-.055-.1-.085-.547-.063-.995s.139-1.538.262-2.423c.173-1.262.3-1.66.584-1.84.2-.126.882-.223 1.537-.216 1.079.009 1.187-.024 1.33-.421.12-.338.034-.628-.4-1.336-.486-.792-.54-1.004-.426-1.707.115-.72.277-.927 1.575-2.04.795-.678 1.546-1.233 1.672-1.23.124.003.673.33 1.22.728.752.546 1.116.7 1.492.638.273-.047.583-.19.69-.317.109-.127.3-.597.427-1.045a15 15 0 0 1 .481-1.406l.251-.593zm-95.477.157c.341-.15.866-.212 1.297-.154.397.054 1.169.32 1.716.59.588.29 1.548 1.045 2.35 1.847.745.745 1.539 1.72 1.762 2.17.222.447.457 1.096.524 1.446.07.372.03.857-.102 1.175-.123.299-.583.848-1.022 1.22-.573.486-.966.676-1.387.673-.323-.004-1.036-.165-1.582-.357-.547-.191-1.055-.351-1.13-.355-.075-.002-1.989 2.172-4.253 4.83-2.266 2.66-5.39 6.342-9.767 11.525l-2.368 1.312c-1.304.721-2.45 1.268-2.55 1.22-.1-.05-.18-.212-.18-.362s.46-1.432 2.04-5.424l2.378-2.801c1.31-1.54 4.05-4.796 6.091-7.233 2.043-2.437 4.073-4.877 5.31-6.418l-.35-.722a5.2 5.2 0 0 1-.42-1.537c-.062-.689.016-.935.498-1.604.315-.435.83-.903 1.145-1.04M103 23.874c-1.234 1.249-1.397 1.488-1.365 2.024.02.335.182.934.361 1.332.179.397.625 1.028.992 1.4.365.375.889.79 1.162.928.273.137.782.307 1.13.378.605.122.68.075 1.781-1.109l1.149-1.236c-1.08-.31-1.637-.522-1.935-.674s-.849-.611-1.221-1.022c-.372-.408-.676-.846-.674-.971.003-.124.21-.429.461-.678l.459-.452-.896-1.338zM22.206 2.559c-.831.009-1.607.146-2.26.399-.629.244-1.335.723-1.92 1.302-.65.642-1.047 1.239-1.33 2-.355.954-.389 1.29-.286 2.802.07.985.044 1.91-.055 2.17-.096.25-.894 1.227-1.773 2.176-.879.948-3.223 3.509-5.212 5.693a551 551 0 0 1-4.903 5.326c-1.068 1.126-1.312 1.497-1.426 2.172-.114.672-.063.967.293 1.695.239.484.676 1.03.974 1.215.31.19.89.335 1.356.339.474.001 1.016-.13 1.3-.312.268-.174 1.854-1.895 3.525-3.822 1.67-1.929 3.405-3.933 3.853-4.454.447-.523 1.891-2.179 3.21-3.68 1.317-1.503 2.578-2.788 2.802-2.856.225-.067 1.179-.132 2.124-.145 1.468-.018 1.847-.089 2.62-.488.498-.259 1.278-.864 1.731-1.347.52-.551.957-1.251 1.172-1.875.213-.61.347-1.493.349-2.288.002-.712-.06-1.363-.138-1.446s-.933.642-1.898 1.61c-1.313 1.314-1.871 1.76-2.21 1.75-.249-.005-.867-.146-1.373-.314-.588-.194-1.123-.536-1.472-.939-.3-.347-.638-.958-.748-1.355-.11-.398-.201-.906-.203-1.13 0-.27.577-.999 1.716-2.17.945-.969 1.656-1.825 1.582-1.903-.075-.076-.704-.134-1.4-.125m38.93 25.663c-.065.002-.168.125-.226.275-.057.148-.045.305.03.347s.828.29 1.674.554c1.227.384 1.562.431 1.669.242a1.3 1.3 0 0 0 .138-.33c.003-.05-.706-.317-1.578-.591-.873-.275-1.64-.497-1.707-.497M163.768 3.839c.696-.013 1.956.096 2.802.244.844.146 2.106.465 2.802.705.696.242 2.161.84 3.254 1.332 1.094.49 2.212.948 2.487 1.013.273.067.825.426 1.23.799.403.372.87 1.043 1.04 1.492.217.577.302 1.338.293 2.62-.011 1.295-.129 2.22-.422 3.255-.224.795-.786 2.18-1.249 3.074-.578 1.119-1.212 2.001-2.021 2.827-.949.967-1.37 1.26-2.171 1.502-.754.228-1.148.259-1.627.123-.349-.098-1.326-.484-2.17-.862-1.231-.55-1.754-.684-2.621-.683-.75.002-1.307.12-1.808.383-.397.21-.899.572-1.11.805-.213.233-.651.952-.975 1.6-.322.645-.804 1.5-1.072 1.898-.266.397-.58.967-.695 1.265-.116.299-.437.761-.711 1.03a4.5 4.5 0 0 1-1.177.77 4.6 4.6 0 0 1-1.446.278c-.423-.002-1.176-.113-1.673-.245s-1.434-.502-2.079-.824a15.5 15.5 0 0 1-2.152-1.338 14 14 0 0 1-1.741-1.659 17 17 0 0 1-1.313-1.808 10 10 0 0 1-.858-1.989c-.206-.726-.269-1.352-.189-1.898.067-.465.475-1.434.952-2.26.461-.795 1.034-1.977 1.278-2.622.243-.647.648-1.582.901-2.08.253-.496.804-1.391 1.225-1.987.423-.597 1.376-1.655 2.119-2.351.745-.696 1.994-1.643 2.779-2.105a21 21 0 0 1 3.01-1.402c.87-.309 2.09-.633 2.712-.72.62-.086 1.7-.168 2.396-.182m-91.03 24.225c-.15.002-.756.212-1.347.467-.593.255-1.06.533-1.04.62s.096.153.172.15c.074-.006.663-.285 1.31-.623.646-.34 1.053-.615.905-.614m-4.167-1.431c-.046.018-.534.063-1.085.1-.622.041-1.12.182-1.313.373-.171.168-.31.366-.31.442.004.074.595.131 1.315.128l1.312-.007c.84 1.141 1.143 1.47 1.22 1.468.073-.006.175-.13.226-.279.048-.15-.22-.72-.597-1.265-.377-.547-.724-.979-.768-.96M-79.353 13.948c-.224.004-.539.09-.7.195s-.383.388-.496.628c-.116.248-.36.438-.567.438-.198 0-.357.101-.353.226.003.124.146.329.316.456.249.184.214.184-.178 0-.414-.196-.555-.184-.949.085-.254.174-.462.398-.463.498 0 .099.082.22.18.271.1.049.182.172.182.272 0 .102-.214.133-.498.07-.373-.083-.632.004-1.039.348l-.542.459c.77.3 1.033.47 1.084.569.05.1-.187.038-.527-.136-.596-.304-.64-.303-1.13.031-.289.197-.414.374-.286.407.125.032.226.12.227.195 0 .074-.238.136-.529.136-.318 0-.712.179-.992.452l-.465.452c1.116.91 1.442 1.256 1.443 1.355 0 .1-.264-.02-.587-.265-.324-.246-.833-.452-1.131-.46-.304-.004-.777.173-1.077.402l-.534.414c.663.14.904.298.962.44.087.214-.025.238-.616.132-.526-.096-.835-.056-1.13.146-.365.248-.38.31-.141.593.148.173.27.378.271.452.003.074-.24.053-.537-.046-.432-.145-.633-.115-.99.136-.245.173-.447.378-.451.452s.177.306.401.512c.37.343.375.365.046.248a9 9 0 0 0-.724-.216c-.199-.049-.544.002-.768.114-.224.11-.449.384-.5.608-.048.213-.234.41-.478.515l-.217.078c-.264.106-.6.316-.8.504a1.33 1.33 0 0 0-.406.982c.004.323.087.75.187.949s.424.442.723.542q.541.18.994 0c.247-.1.676-.466.949-.814s.618-.63.768-.626c.149.003.413-.14.582-.317.172-.177.315-.423.317-.548.004-.125.29-.349.639-.497.347-.15.722-.454.83-.679.11-.224.149-.61.087-.858l-.113-.452.708.904c.728-.7.974-1.026 1.018-1.175.042-.15.324-.333.626-.407.33-.081.676-.35.866-.676.174-.298.46-.543.633-.543.173-.002.504-.226.733-.499.23-.273.577-.583.769-.692.193-.107.493-.452.667-.769.173-.314.356-.49.407-.391q.09.18.452 0c.199-.1.443-.385.542-.633.109-.27.325-.452.542-.452.199 0 .525-.205.724-.452.198-.25.401-.452.452-.452.049 0 .253-.205.452-.453s.462-.45.587-.446.367-.14.537-.316c.172-.178.315-.586.316-.91q.004-.587-.446-1.04c-.25-.249-.635-.45-.86-.446m85.259 11.38c.555-.003.853.105 1.135.406.21.228.429.617.487.865.057.249-.013.715-.156 1.039-.142.323-.423.669-.622.768-.199.1-.606.18-.904.18q-.542 0-1.084-.541c-.334-.335-.55-.745-.564-1.07-.013-.338.155-.731.467-1.085.396-.452.63-.557 1.24-.563M-28.688 8.91c-.083-.034-.217.071-.3.232a.42.42 0 0 0 .078.513c.127.12.227.32.226.445 0 .125-.126.226-.274.226-.15 0-.332-.125-.406-.278-.103-.21-.512.174-1.684 1.582-.854 1.023-2.679 3.201-4.056 4.843-1.378 1.64-3.562 4.244-4.85 5.786-2.332 2.783-2.345 2.806-2.138 3.39.152.43.154.623.007.722-.112.074-.269.013-.352-.136s-.18-.23-.219-.18c-.036.048-.285.599-.55 1.22-.268.622-.487 1.19-.489 1.266-.002.074.262-.118.587-.427.325-.307.734-.612.908-.677.174-.064.314-.218.313-.342s.099-.322.225-.438c.175-.162.377-.146.862.067l.633.277c.841-1.061 2.26-2.76 3.695-4.46a1221 1221 0 0 1 5.242-6.148 805 805 0 0 0 3.674-4.293l1.04-1.232c-1.568-1.471-2.09-1.925-2.172-1.958m179.18 8.51c-1.088-.037-1.51.028-2.048.317-.373.2-.789.586-.924.859a6 6 0 0 0-.358.949c-.063.25.011.94.164 1.536.152.596.49 1.452.75 1.898.261.449 1.01 1.37 1.665 2.047.654.676 1.677 1.548 2.274 1.937.597.387 1.572.878 2.169 1.092.596.213 1.533.394 2.079.401.682.009 1.179-.096 1.578-.335.322-.193.762-.675.979-1.073.323-.595.372-.897.278-1.718-.067-.568-.394-1.573-.767-2.35-.481-.998-.994-1.692-1.949-2.63-.962-.948-1.71-1.483-2.907-2.08-1.424-.708-1.775-.81-2.983-.85M63.336 6.17c-1.05.434-1.732.7-2.19.868l-.832.307c-1.37-1.178-1.85-1.523-1.954-1.53-.102-.003-.692.4-1.312.897l-1.124.904 1.486 2.26-1.33 2.531-2.777.18c-.356 2.364-.357 2.749-.205 2.85.112.076.733.3 1.38.5l1.175.36c.462 1.89.647 2.58.705 2.755.074.215-.081.486-.479.842a29 29 0 0 1-1.006.859l-.417.332 1.85 2.712 2.42-1.032 2.983 2.208c-.197 1.33-.256 1.91-.261 2.147-.01.381.15.475 1.436.858.795.237 1.548.431 1.673.431s.401-.47.616-1.04c.213-.572.438-1.092.497-1.155.06-.062.82-.164 1.689-.226l1.582-.112c1.19 1.69 1.637 2.18 1.762 2.177s.755-.252 1.402-.55c.645-.298 1.176-.604 1.176-.678.002-.076-.163-.624-.363-1.22l-.368-1.084 2.267-2.3c1.958.575 2.54.726 2.556.709.014-.023.277-.628.587-1.348.53-1.233.545-1.324.246-1.558a15 15 0 0 0-1.085-.723l-.767-.476.09-2.967c1.675-.695 2.19-.902 2.223-.909.03-.005-.114-.681-.316-1.502l-.37-1.492h-2.712l-1.67-2.44c.619-1.401.832-1.93.874-2.08.047-.17-.34-.573-1.043-1.084-.615-.447-1.204-.841-1.312-.875s-.578.33-1.045.813l-.854.875c-1.621-.61-2.316-.834-2.589-.89-.442-.092-.518-.22-.688-1.143-.105-.571-.228-1.14-.272-1.266-.056-.157-.568-.226-1.707-.226h-1.627zM-41.316 27.32c-.184 0-.455.141-.604.317-.15.173-.323.418-.388.543-.065.122.206.041.603-.181.396-.224.721-.469.723-.543 0-.076-.15-.136-.334-.136m-55.346-5.473-.012 5.745c.817.403.826.385.96-.971.075-.76.139-3.31.144-5.668l.006-4.29-1.085-.56zM5.964 26.057a1.18 1.18 0 0 0-.735.316.76.76 0 0 0-.207.723c.056.222.264.488.463.588.198.099.524.138.723.09.199-.051.443-.253.542-.452.132-.264.107-.486-.09-.813-.166-.279-.436-.452-.696-.452m108.368-9.036c-.242.09-.417.25-.392.357.027.107-1.139 1.45-2.589 2.988-2.601 2.759-2.636 2.807-2.591 3.56.043.729.084.78.859 1.063.448.166.813.412.814.548 0 .136-.164.27-.362.297-.2.029-.727-.135-1.175-.362-.665-.337-.83-.52-.904-1.007l-.09-.597-1.99 1.97c.841.51 1.411.718 1.809.79.398.075 1.149.139 1.672.142l.949.007a336 336 0 0 1 5.283-5.513l2.311-2.35c-1.472-.614-2.163-1.082-2.486-1.434-.324-.355-.608-.64-.633-.633-.026.005-.243.085-.485.173m37.009 2.166c.533.002 1.212.172 1.805.453.522.247 1.404.877 1.963 1.399.557.522 1.204 1.275 1.437 1.673.232.398.479 1.049.55 1.446.083.477.041.925-.127 1.32-.161.38-.484.702-.886.882a2.8 2.8 0 0 1-1.355.206c-.398-.043-1.211-.316-1.808-.607-.596-.291-1.45-.899-1.898-1.349s-1.016-1.224-1.264-1.72c-.293-.585-.452-1.207-.452-1.775-.002-.759.076-.944.589-1.401.477-.427.754-.528 1.446-.526m-92.84 4.521c-.077 0-.543.188-1.04.417s-.965.553-1.04.722-.076.306 0 .308c.074.002.543-.167 1.04-.379l.904-.381c1.4 1.037 1.949 1.412 2.124 1.5.24.123.336.076.407-.2.07-.286-.162-.536-1.085-1.175-.647-.449-1.237-.814-1.31-.812m91.518-3.315c-.078.065-.128.37-.11.675.019.308.212.924.429 1.372.219.447.767 1.186 1.219 1.642s1.146.996 1.544 1.202c.397.206 1.008.432 1.355.503.349.072.858.08 1.131.018s.497-.192.497-.291c0-.1-.102-.137-.226-.083-.126.053-.673-.069-1.22-.273a9.3 9.3 0 0 1-1.854-1.004c-.471-.347-1.058-.895-1.306-1.216-.246-.324-.644-1.056-.883-1.625-.24-.572-.498-.985-.576-.92m13.566-15.828c-.397.011-1.211.092-1.807.18-.597.086-1.533.29-2.079.446-.548.16-1.606.571-2.351.916-.747.346-1.844.979-2.44 1.406-.597.424-1.615 1.344-2.26 2.044-.647.697-1.44 1.707-1.762 2.24-.322.535-.873 1.663-1.226 2.508-.352.845-.744 1.74-.871 1.988l-.229.452c2.332-.12 3.022-.046 3.725.178.546.173 1.523.607 2.17.963.649.358 1.743 1.217 2.448 1.924.699.7 1.551 1.762 1.891 2.359.34.596.75 1.573.911 2.17l.293 1.084c1.329-2.672 1.841-3.418 2.322-3.823.397-.337 1.088-.735 1.537-.883.446-.148 1.138-.265 1.536-.262.398.006 1.17.163 1.718.35.543.188 1.009.327 1.039.312.025-.018-.068-.317-.209-.666-.141-.347-.313-1.12-.382-1.717-.072-.623-.031-1.7.094-2.53.121-.796.423-2.017.672-2.713.248-.696.707-1.75 1.02-2.343.313-.592.982-1.527 1.486-2.079.505-.551 1.279-1.18 1.718-1.401l.799-.401c-1.962-.868-3.224-1.366-4.068-1.663-.847-.298-2.311-.66-3.254-.8-.946-.143-2.043-.25-2.441-.239m-48.541 6.342c-.119-.41-.125-.407-.73.19-.457.45-.602.738-.572 1.137.024.293.205.899.406 1.347.198.446.358.934.354 1.085-.005.148-.232.498-.503.772-.271.277-.636.5-.809.497-.174-.001-.413.18-.529.404s-1.235 1.489-2.485 2.81c-1.764 1.861-2.365 2.389-2.678 2.349-.345-.045-.405.033-.407.535-.004.438-.235.867-.907 1.673-.497.596-.904 1.166-.904 1.266 0 .099.061.183.135.187s1.825-1.705 3.888-3.797 3.872-4.047 4.022-4.345c.201-.402.472-.595 1.04-.745.423-.113.89-.29 1.04-.393.2-.137.412-.09.813.188.298.208.907.544 1.356.748.446.206.955.376 1.129.378s.541-.185.814-.417l.498-.421a11.7 11.7 0 0 1-2.367-1.906c-.604-.625-1.41-1.588-1.791-2.134-.382-.547-.748-1.18-.813-1.408M-79.804 4.016c-.075.007-1.235.946-2.577 2.085a2353 2353 0 0 1-7.447 6.267l-5.006 4.196c-.018 7.043.044 8.588.16 8.588.1 0 .567-.33 1.039-.73.471-.402 1.712-1.441 2.756-2.31 1.043-.87 2.183-1.78 2.532-2.02.347-.242.843-.646 1.1-.899.256-.253 1.091-.947 1.854-1.544.764-.596 1.755-1.43 2.2-1.853.447-.423 1.037-.878 1.31-1.016.272-.135.624-.44.782-.678.157-.236.546-.552.866-.702l.58-.27c-.01-7.066-.075-9.117-.15-9.114M151.15 19.729c-.062 0-.155.081-.209.18-.054.1-.022.486.072.86.094.372.461 1.062.813 1.536.353.471.988 1.092 1.411 1.38.423.285 1.093.652 1.491.817.397.163.947.295 1.221.293.272-.002.476-.096.452-.208-.026-.112-.413-.298-.86-.412-.446-.116-1.18-.46-1.627-.766-.446-.304-1.05-.832-1.339-1.168-.29-.338-.704-1.043-.92-1.563-.217-.523-.444-.95-.505-.95m-97.124 2.168c-.049 0-.089.06-.085.134.003.076.268.614.588 1.196.32.583.726 1.193.903 1.356.275.253.322.256.318.024-.005-.15-.372-.82-.82-1.49-.447-.672-.854-1.22-.904-1.22m21.15 1.15c-.1-.037-.285.095-.408.294-.21.343-.159.377.864.59.599.124 1.13.185 1.18.136.051-.05.09-.179.086-.289-.004-.108-.353-.3-.774-.428-.42-.127-.847-.262-.949-.302m77.303-2.964c-.242-.128-.354-.128-.362 0-.005.103.133.485.306.848.174.361.684.99 1.13 1.392.447.401 1.159.879 1.582 1.058.422.178.809.303.86.28.051-.025.031-.2-.045-.386-.076-.188-.381-.437-.679-.554s-.9-.536-1.335-.926c-.436-.39-.863-.895-.949-1.117-.087-.224-.315-.492-.508-.595m-41.238-5.903a230 230 0 0 1-4.001 4.238c-1.833 1.89-2.322 2.5-2.322 2.893 0 .272.163.76.362 1.084.198.323.423.591.498.595.074.005.226-.096.336-.226.11-.129.191-.49.18-.803-.012-.342.123-.721.342-.954.199-.212.524-.387.723-.387.226 0 1.136-.814 2.441-2.186 1.143-1.204 2.222-2.42 2.396-2.707.173-.285.459-.517.632-.513.174.003.46-.16.633-.362.257-.297.276-.443.109-.773a10 10 0 0 1-.431-1.074l-.221-.667zm63.462-6.255a2.4 2.4 0 0 0-.939.045 5.5 5.5 0 0 0-.995.412c-.279.154-.911.714-1.404 1.247-.557.602-1.188 1.588-1.664 2.597-.421.894-.889 2.154-1.043 2.801-.151.646-.278 1.866-.282 2.712-.002.873.11 1.888.26 2.35.146.447.514 1.079.815 1.402.456.486.684.588 1.321.584a3.2 3.2 0 0 0 1.491-.427c.398-.233 1.11-.862 1.582-1.397.472-.537 1.117-1.463 1.432-2.06a19 19 0 0 0 .994-2.35c.231-.695.51-1.876.619-2.621.143-.987.14-1.65-.008-2.44-.11-.597-.342-1.32-.512-1.61a3.3 3.3 0 0 0-.762-.84c-.25-.174-.657-.356-.905-.405m-108.88 2.417c.125-.008.654.078 1.176.188a9.2 9.2 0 0 1 1.808.633c.472.237 1.19.775 1.595 1.198s.891 1.094 1.083 1.491c.191.398.422 1.172.512 1.718.102.602.102 1.335.002 1.854-.09.472-.358 1.245-.593 1.717s-.744 1.138-1.13 1.48a7.5 7.5 0 0 1-1.514.991c-.618.282-1.185.373-2.35.374-1.288.002-1.698-.074-2.532-.473-.546-.26-1.348-.788-1.782-1.175-.443-.392-1.02-1.175-1.316-1.784-.291-.597-.577-1.533-.637-2.08a5.3 5.3 0 0 1 .172-1.989c.153-.546.555-1.359.893-1.807.337-.449 1.01-1.058 1.495-1.357a7.2 7.2 0 0 1 1.887-.754 18 18 0 0 1 1.231-.225m-.044 2.768c-.507-.038-1.263.05-1.718.2a7 7 0 0 0-1.513.767c-.385.275-.892.824-1.126 1.222-.235.397-.426.967-.427 1.265 0 .299.168.909.374 1.357.205.446.63 1.126.944 1.51.347.423 1.037.921 1.748 1.261.947.454 1.403.563 2.35.56.859 0 1.438-.122 2.152-.445.537-.246 1.249-.751 1.582-1.123.457-.514.605-.845.607-1.357.002-.374-.116-1.084-.258-1.58-.161-.563-.563-1.25-1.056-1.81-.515-.585-1.143-1.055-1.776-1.332-.538-.235-1.386-.457-1.883-.495m107.977-2.783c.412 0 .749.162 1.13.543.394.394.557.745.595 1.281.029.407.02 1.2-.02 1.763s-.269 1.553-.512 2.198c-.242.646-.721 1.563-1.065 2.035-.343.471-.889 1.021-1.213 1.22-.323.197-.851.36-1.175.361-.363 0-.75-.155-1.012-.407-.235-.224-.519-.732-.633-1.13a6.3 6.3 0 0 1-.204-1.446c.002-.398.123-1.23.269-1.852.149-.622.432-1.456.631-1.854a7.8 7.8 0 0 1 .949-1.387c.324-.363.832-.811 1.13-.992.298-.182.807-.331 1.13-.333m.165.726c-.085-.002-.085.18 0 .404.083.223.143 1.017.132 1.764-.014 1.051-.136 1.635-.543 2.617-.309.748-.871 1.649-1.381 2.215-.786.873-.824.953-.437.953.24 0 .69-.268 1.039-.618.339-.34.837-1.053 1.106-1.582.268-.53.615-1.453.769-2.05s.282-1.39.282-1.762c-.002-.374-.089-.902-.197-1.175-.107-.274-.289-.556-.407-.63a.9.9 0 0 0-.363-.136m-.843.178c-.099 0-.192.06-.203.136-.012.075-.003.543.019 1.04.023.496-.096 1.392-.268 1.989-.17.596-.472 1.41-.671 1.807a6.4 6.4 0 0 1-.93 1.31c-.383.396-.508.65-.387.777.123.126.438-.092.985-.68.443-.476 1.006-1.313 1.252-1.859.284-.633.478-1.457.533-2.26.046-.696.031-1.49-.034-1.762-.063-.275-.196-.497-.296-.498m-57.153 5.422c-.11 0-.166.103-.123.226.043.125.481.448.971.72.49.27 1.156.495 1.479.497.324.001.587-.056.587-.132 0-.074-.244-.155-.542-.18s-.868-.21-1.265-.408c-.398-.199-.763-.443-.814-.542a.36.36 0 0 0-.293-.18M53.9 16.5c-1.008-.302-1.12-.305-1.093-.045.018.172.474.474 1.121.741.6.25 1.153.393 1.228.319.074-.073.074-.258 0-.408-.076-.15-.64-.423-1.256-.607m118.238-4.363c-.07 0-.161.06-.202.136-.044.075-.136.542-.206 1.038a8.3 8.3 0 0 1-.521 1.785c-.215.486-.495.974-.624 1.085-.13.112-.228.407-.22.656l.014.452a8.4 8.4 0 0 0 1.22-1.898c.249-.548.503-1.503.56-2.124.058-.62.048-1.13-.021-1.13m-106.36-.896c-.596.01-1.41.138-1.807.286-.398.15-.96.449-1.251.665s-.743.722-1.009 1.12l-.481.723c1.422-.929 2.244-1.316 2.741-1.46s1.29-.261 1.763-.26c.471 0 1.285.16 1.807.351.53.195 1.377.736 1.915 1.22.532.48 1.183 1.3 1.447 1.823.262.521.493.926.511.904.017-.025-.045-.434-.135-.906-.093-.474-.32-1.165-.505-1.537-.187-.374-.776-1.068-1.31-1.545-.536-.476-1.339-.985-1.787-1.132s-1.302-.259-1.898-.252m-145.626 3.797c.15 0 .415.141.592.313.178.17.318.473.3 1.034l-.198-.362a2.8 2.8 0 0 0-.582-.674c-.28-.228-.31-.31-.112-.31m-.733-12.24c-.51-.193-.606-.16-1.312.467-.418.37-3.041 2.58-5.826 4.908a3465 3465 0 0 1-6.815 5.68c-.959.795-1.751 1.487-1.764 1.538-.008.05.23.192.532.316.543.224.575.203 3.03-1.898 1.368-1.168 4.763-4.024 7.549-6.343 2.786-2.321 5.088-4.274 5.113-4.34.024-.066-.204-.215-.507-.328m197.473 3.406-1.09 1.14-.164 3.256c1.43 2.071 2.354 3.149 2.976 3.731.621.583 1.23 1.06 1.355 1.062.125.001.633-.406 1.13-.907.497-.499 1.047-.907 1.221-.905.173.002.318.063.32.137s-.425.524-.949 1c-.524.475-.886.921-.805.994s.772.031 1.536-.09c1.278-.204 1.463-.291 2.319-1.085.511-.475.938-.926.949-1 .008-.074-.695-.131-1.563-.128l-1.582.007a64 64 0 0 0-2.424-3.321c-1.03-1.33-1.451-1.746-1.688-1.672-.174.054-.358.016-.407-.083-.051-.1-.014-.324.076-.497.097-.183.106-.834.023-1.548l-.142-1.232zm3.177-2.32-.848.568c-.02 3.03.022 3.222.478 3.844a68 68 0 0 0 1.491 1.918c.631.784 1.29 1.387 1.807 1.647.447.228 1.26.515 1.808.64l.995.229c1.676-1.714 1.722-1.812 1.619-2.492-.059-.397-.142-.785-.185-.86-.044-.072-.527.315-1.073.86-.547.548-1.136.994-1.31.994s-.805-.23-1.401-.51c-.639-.3-1.329-.802-1.678-1.22a8.8 8.8 0 0 1-.946-1.434c-.195-.397-.357-1.048-.361-1.446-.007-.656.087-.808 1.035-1.65l1.045-.93c-1.19-.593-1.556-.756-1.582-.745a37 37 0 0 0-.894.588m-148.43 7.092c.188-.217.304-.228.589-.053.197.117.356.319.354.443 0 .125-.103.26-.227.298-.125.04-.39-.04-.588-.173-.3-.206-.321-.291-.128-.515m-.77-5.078c.06.398.32 1.09.577 1.538.256.446.671 1.057.92 1.355.25.298.826.85 1.282 1.225a7.7 7.7 0 0 0 1.824 1.05c.546.202 1.157.344 1.356.313.231-.036-.027-.2-.723-.461-.597-.222-1.533-.76-2.08-1.195a13 13 0 0 1-1.756-1.765c-.421-.537-.932-1.38-1.138-1.878l-.372-.904zm152.536-1.716c-.082 0-.621.468-1.2 1.039-1.019 1.008-1.046 1.061-.922 1.762.071.398.311 1.01.536 1.357.224.349.562.76.749.918.186.157.726.503 1.198.768.471.266.938.482 1.039.483a.183.183 0 0 0 .182-.18c-.001-.1-.184-.22-.408-.264-.33-.07-.362-.129-.174-.317.187-.19.303-.188.631.007.371.224.468.175 1.263-.633.474-.479.86-.935.859-1.009-.003-.074-.185-.137-.409-.138s-.752-.207-1.175-.453c-.423-.245-1.016-.793-1.32-1.216-.302-.423-.584-1.074-.628-1.447-.041-.372-.142-.677-.221-.677m-150.75-.364c-.406.002-.805.056-.89.122-.082.066-.134.453-.116.86.018.405.207 1.104.423 1.55.215.449.925 1.346 1.58 1.995.652.649 1.594 1.375 2.092 1.614.497.239 1.229.468 1.626.514.537.058.792-.004.994-.24.149-.176.253-.572.23-.881-.024-.308-.222-.926-.44-1.374-.22-.447-.934-1.347-1.586-2-.664-.663-1.624-1.4-2.181-1.673-.593-.291-1.292-.488-1.731-.487m83.08 4.9c-.109-.038-.032.206.17.544.202.337.473.65.6.692.133.045.063-.185-.169-.543-.218-.34-.49-.652-.6-.692m65.931-1.653a.28.28 0 0 1 .317-.12c.11.037.23.223.262.414.031.192-.071.41-.226.484-.201.095-.313.028-.376-.227-.051-.198-.04-.445.023-.55m3.416-3.788c-.468 0-.681.104-.837.408-.153.303-.155.578-.003 1.084.11.372.466.973.79 1.335.323.361.893.807 1.265.994.373.186.864.338 1.094.338.227 0 .514-.102.636-.226.121-.125.219-.45.217-.724-.001-.273-.135-.761-.294-1.085a5.7 5.7 0 0 0-.769-1.1c-.262-.282-.702-.628-.975-.769-.273-.139-.779-.255-1.124-.255m-2.448 2.893c.101 0 .233.102.294.226s.058.389-.005.587c-.108.34-.134.344-.427.055-.188-.188-.26-.418-.178-.588.07-.153.213-.28.316-.28m.633-.903c.051 0 .177.224.28.497.116.312.12.564.014.677-.11.117-.244.023-.381-.271-.117-.248-.166-.553-.11-.678.056-.124.144-.225.197-.225m-155.94-48.452c.205 0 1.45.538 2.768 1.196s3.353 1.716 4.52 2.35c1.168.635 2.183 1.255 2.256 1.38.075.126.688 1.447 1.364 2.938.835 1.845 1.428 3.49 1.856 5.152.345 1.342.627 2.58.628 2.757-.002.173-.783 1.761-1.74 3.525-.954 1.764-1.869 3.348-2.033 3.52-.163.17-2.047 1.29-4.184 2.487-2.353 1.32-4.08 2.175-4.384 2.176-.273-.002-1.292-.4-2.26-.889-.97-.486-2.919-1.524-6.894-3.722l-2.182-4.43c-1.202-2.435-2.182-4.573-2.18-4.746 0-.177.447-1.518.99-2.983a134 134 0 0 1 2.356-5.89l1.627-.994c.895-.548 2.865-1.633 4.374-2.413 1.51-.777 2.914-1.414 3.118-1.415m205.222-.006c.593-.004.989.127 1.524.506.397.28.921.832 1.164 1.226.278.448.446.998.452 1.48.011.753-.038.816-5.775 6.53l.346.51c.19.28.497.957.682 1.504.184.546.332 1.259.332 1.582a3.8 3.8 0 0 1-.244 1.176c-.133.324-.438.718-.678.875a3.5 3.5 0 0 1-1.025.407c-.345.07-1.016.003-1.628-.162-.571-.153-1.488-.528-3.028-1.383l-2.445 2.505a6871 6871 0 0 0-6.193 6.345c-3.563 3.654-3.778 3.842-4.423 3.842-.373-.002-.942-.164-1.266-.361a1.78 1.78 0 0 1-.786-1.04c-.11-.373-.143-.883-.074-1.13.067-.25.497-.859.954-1.356s3.217-3.365 11.431-11.842l-.549-.858c-.3-.472-.667-1.266-.814-1.763-.148-.497-.265-1.23-.262-1.628.002-.397.105-.924.226-1.168.123-.244.509-.638.857-.875.521-.355.792-.416 1.537-.344.497.047 1.392.332 3.073 1.183l2.905-2.878c2.865-2.84 2.915-2.878 3.707-2.883m-153.911-.706c.372-.093 1.166-.124 1.763-.07a10.8 10.8 0 0 1 2.169.489c.596.211 1.57.67 2.166 1.017.594.347 1.741 1.282 2.546 2.077 1.142 1.13 1.63 1.783 2.23 2.984.582 1.167.79 1.819.864 2.712.054.645.008 1.52-.102 1.943-.141.539-.512 1.087-1.24 1.83-.706.721-1.273 1.128-1.763 1.266-.398.11-1.13.2-1.627.2a9 9 0 0 1-1.809-.236c-.896-.23-.907-.228-1.355.3-.25.292-.676.641-.95.777-.334.166-.535.44-.613.835-.063.323-.245.784-.406 1.025-.159.24-.555.546-.879.678s-.587.363-.588.511c0 .149-.243.415-.54.588-.322.188-.54.465-.537.678.004.199-.18.6-.408.892-.226.29-.677.635-1 .767-.466.19-.586.343-.582.737.003.287-.187.706-.452.994-.252.273-.662.539-.91.588-.32.063-.502.262-.622.677-.094.324-.46.851-.813 1.175-.354.324-.827.626-1.05.671-.225.047-.814.122-1.311.165-.498.045-1.698.313-2.67.595-1.564.455-1.792.482-2.026.242-.22-.226-.233-.554-.08-1.99.099-.945.13-2.165.068-2.711-.08-.701-.03-1.207.17-1.717.155-.398.528-.906.828-1.13.415-.309.544-.549.54-.995-.003-.345.163-.806.407-1.117.226-.291.676-.636 1-.768.479-.195.588-.338.588-.781 0-.354.182-.73.527-1.085.291-.298.637-.54.769-.539.139.002.298-.305.376-.723.097-.526.31-.865.771-1.224.349-.273.68-.7.735-.949a3.2 3.2 0 0 1 .36-.859c.143-.224.544-.53.89-.678.38-.162.633-.398.631-.588 0-.173.195-.6.865-1.582l-.342-.858c-.217-.548-.338-1.3-.336-2.08.004-.787.12-1.476.334-1.942a6.8 6.8 0 0 1 .855-1.336c.288-.337.83-.763 1.203-.95a8 8 0 0 1 1.356-.505m50.124 2.714c.944-.009 2.408.102 3.254.246.844.145 2.146.48 2.892.746.745.264 2 .858 2.789 1.319.786.46 1.97 1.368 2.63 2.014s1.495 1.705 1.855 2.35.78 1.663.936 2.26c.18.689.28 1.876.28 3.255 0 1.4-.1 2.552-.284 3.254a13 13 0 0 1-.838 2.169c-.302.596-1.046 1.606-1.654 2.242-.605.636-1.673 1.533-2.369 1.996-.696.46-1.977 1.099-2.847 1.419-.87.318-2.334.712-3.254.873-1.226.213-2.274.265-3.932.19-1.376-.061-2.862-.249-3.797-.484-.846-.21-2.148-.668-2.892-1.017-.747-.349-1.844-.981-2.44-1.406a14 14 0 0 1-1.946-1.75 13.7 13.7 0 0 1-1.487-2.153c-.343-.645-.746-1.745-.898-2.44-.15-.697-.276-1.957-.278-2.803s.083-2.025.191-2.621c.107-.597.468-1.655.803-2.351.333-.696 1.04-1.746 1.567-2.332.53-.588 1.45-1.416 2.047-1.839a20 20 0 0 1 2.35-1.394c.696-.343 1.672-.756 2.17-.92.497-.163 1.473-.41 2.169-.55.696-.138 2.038-.262 2.983-.273m93.655 9.93c-.075 0-2.408 2.34-5.188 5.197s-5.516 5.705-6.082 6.327c-.568.622-1.03 1.294-1.03 1.493s.204.566.452.813c.249.25.655.451.903.451.349 0 1.222-.791 3.84-3.48 1.862-1.914 4.608-4.718 6.101-6.232l2.714-2.75c-1.221-1.409-1.637-1.82-1.71-1.82m-183.33 5.242c-.09 0-.207.082-.261.18-.055.1-1.056.74-2.224 1.42-1.168.681-2.572 1.48-3.118 1.775-.922.497-1.111.722-2.563 3.056-.86 1.381-1.529 2.532-1.491 2.563.042.026.625-.25 1.296-.609.67-.36 2.22-1.235 3.442-1.943l2.223-1.29a851 851 0 0 1 2.623-4.745c.128-.224.16-.407.072-.407M123.325-41.43c.447-.217.937-.297 1.481-.245a5.2 5.2 0 0 1 1.537.44 9 9 0 0 1 1.446.988c.398.34 1 1.14 1.34 1.777.438.823.642 1.474.703 2.243.047.597-.004 1.37-.112 1.718-.146.465-1.148 1.548-3.776 4.077a1038 1038 0 0 1-7.023 6.69 509 509 0 0 1-5.288 4.917c-1.26 1.142-2.03 1.707-2.432 1.781-.332.063-1.018-.015-1.582-.178-.547-.157-1.33-.553-1.74-.877a10 10 0 0 1-1.329-1.314 10.3 10.3 0 0 1-.991-1.536c-.226-.448-.461-1.119-.525-1.491a4 4 0 0 1 .057-1.357c.138-.542.801-1.297 3.299-3.753 1.721-1.692 5.636-5.434 8.698-8.316 3.065-2.884 5.87-5.386 6.237-5.564m-163.673 4.484c-.2-.042-.584.002-.859.095-.437.15-.629.514-1.603 3.018-1.081 2.784-1.105 2.88-1.033 4.294.07 1.397.129 1.566 1.783 4.978l1.712 3.528c1.961 1.146 3.65 2.06 5.017 2.768 1.863.969 2.61 1.27 2.983 1.203.274-.05.714-.314.978-.588.264-.276.977-1.292 1.582-2.262 1.054-1.686 1.1-1.812 1.1-2.938 0-1.034-.162-1.59-1.362-4.655-.767-1.956-1.656-3.903-2.034-4.45-.369-.53-.997-1.156-1.394-1.386-.398-.23-2.025-1.12-3.616-1.974-1.59-.857-3.055-1.592-3.254-1.631M7.329-19.611c-.356-.454-.412-.476-.407-.163.002.198-.056.79-.13 1.312-.123.878-.106.951.228.939.199-.008.808-.153 1.356-.323l.994-.31c-1.26-.723-1.813-1.168-2.04-1.455m48.243-6.175c-.006.074.183.562.417 1.085.236.522.805 1.457 1.266 2.079s1.388 1.542 2.059 2.047c.67.504 1.748 1.168 2.395 1.473.646.306 1.947.749 2.893.986.944.237 2.53.48 3.525.542 1.324.081 2.318.027 3.706-.204 1.043-.174 2.387-.494 2.984-.71.596-.216 1.654-.708 2.35-1.093.778-.432 1.788-1.23 2.621-2.073.933-.946 1.539-1.754 1.944-2.595.323-.67.59-1.322.594-1.446.003-.125-.21.1-.47.497s-.975 1.235-1.586 1.86c-.613.627-1.725 1.494-2.47 1.928-.747.432-1.926.99-2.622 1.24-.696.249-1.998.59-2.893.76-1.243.238-2.203.288-4.067.216-1.878-.073-2.837-.205-4.158-.576-.946-.264-2.329-.799-3.073-1.189-.747-.39-1.825-1.077-2.396-1.525-.571-.449-1.345-1.205-1.718-1.682a37 37 0 0 1-.985-1.31c-.168-.244-.31-.383-.316-.31M-82.58-44.09c.161.002.658.113 1.105.248.448.134 1.18.428 1.627.653s1.425.835 2.17 1.354c1.182.822 1.53 1.206 2.73 3.005 1.263 1.894 1.42 2.236 1.948 4.23.503 1.9.542 2.214.322 2.53-.138.2-.555.728-.927 1.176-.373.447-1.136 1.2-1.698 1.667-.56.47-1.12.857-1.246.859-.124.004-.49.334-.813.735-.324.402-.71.769-.86.818-.148.046-.903-.16-3.073-1.005l-1.039.932c-.571.514-2.215 1.998-3.65 3.3a1764 1764 0 0 1-4.339 3.921c-.95.855-1.911 1.647-2.136 1.763-.224.113-.794.206-1.265.204-.472-.002-1.204-.165-1.627-.362s-1.226-.784-1.782-1.306c-.583-.544-1.24-1.393-1.538-1.99-.287-.57-.572-1.344-.633-1.716a4.9 4.9 0 0 1 0-1.357c.087-.52.394-.96 1.334-1.898.67-.671 3.05-2.84 5.288-4.821a837 837 0 0 1 4.304-3.797c.197-.161.182-.357-.385-2.003l1.253-3.797 1.254-.956c.691-.526 1.734-1.28 2.32-1.673.585-.394 1.195-.716 1.356-.714m189.59 19.704c-.352 0-.752.138-.928.317-.231.238-.287.537-.229 1.22.043.497.254 1.27.469 1.717.213.448.779 1.209 1.254 1.69.477.482 1.173 1.03 1.545 1.22.373.19 1.025.348 1.448.354.504.005.862-.098 1.039-.3.152-.172.267-.633.261-1.047-.005-.445-.223-1.166-.542-1.803-.292-.582-.9-1.402-1.346-1.822-.449-.42-1.159-.938-1.582-1.153s-1.047-.393-1.389-.393m-203.944-1.077c-.398.002-.852.084-1.011.186-.157.099-.381.503-.497.897-.116.396-.158.942-.095 1.215.065.273.31.884.543 1.355.235.472.772 1.232 1.195 1.686.423.456 1.175 1.024 1.672 1.267.498.244 1.172.44 1.5.439.395 0 .746-.153 1.038-.453.324-.327.446-.652.446-1.176 0-.398-.16-1.15-.353-1.672s-.702-1.346-1.13-1.833c-.43-.488-1.184-1.117-1.681-1.401-.586-.333-1.16-.512-1.627-.51M7.86-24.023c-.085 0-.284.143-.44.316s-.366.52-.464.768c-.123.31-.112.706.033 1.257.137.528.477 1.076.979 1.582.423.429 1.237.993 1.809 1.255.795.365 1.21.452 1.762.372.494-.07.88-.278 1.22-.658.273-.304.497-.635.497-.734-.001-.1-.387-.262-.858-.362-.472-.097-1.367-.504-1.989-.904-.621-.398-1.377-1.068-1.68-1.491-.301-.423-.585-.912-.632-1.085-.045-.173-.152-.316-.237-.316M120.96-38.441c-1.41 1.317-4.313 4.056-6.454 6.088a757 757 0 0 0-5.567 5.334c-.919.901-1.672 1.7-1.672 1.776.002.074.186.135.41.136.224 0 .813.236 1.311.522.497.286 1.29.935 1.762 1.444.472.51 1.06 1.353 1.306 1.875.246.523.47 1.255.497 1.627.027.37.07.675.096.678.025 0 2.137-1.972 4.693-4.384 2.558-2.411 6.158-5.83 8-7.598 1.844-1.768 3.452-3.396 3.571-3.617.121-.22.224-.747.226-1.17s-.137-1.155-.313-1.626c-.177-.472-.603-1.217-.949-1.655-.345-.437-1.036-1.026-1.533-1.308-.678-.385-1.145-.514-1.862-.516l-.958-.002zm-51.294-1.94c-.846-.04-2.147.011-2.892.11-.747.102-2.089.42-2.984.708-.895.289-2.238.887-2.983 1.328-.747.443-1.798 1.197-2.339 1.677s-1.298 1.36-1.682 1.956c-.383.597-.858 1.616-1.053 2.261a9.2 9.2 0 0 0-.353 2.396c.002.844.142 1.598.452 2.44.248.673.756 1.661 1.13 2.198s1.047 1.3 1.495 1.698c.447.396 1.22.986 1.717 1.311s1.514.837 2.26 1.14a22 22 0 0 0 2.712.863c.978.226 2.112.31 4.068.304 2.177-.01 2.996-.088 4.158-.399.796-.211 2.219-.768 3.164-1.234 1.381-.683 2.004-1.134 3.184-2.304 1.104-1.095 1.611-1.764 2.058-2.718.325-.697.676-1.713.777-2.26.13-.7.124-1.369-.019-2.26-.124-.783-.463-1.781-.887-2.616-.403-.8-1.09-1.765-1.678-2.36a16 16 0 0 0-2.169-1.77c-.647-.419-1.807-1.004-2.577-1.3s-1.99-.666-2.712-.818c-.721-.152-2.003-.31-2.847-.35M-95.579-26.638c-.455-.085-.71-.037-.909.165-.246.252-.246.28 0 .282.152.002.703.204 1.226.452.522.247 1.34.837 1.822 1.31.48.471 1.1 1.306 1.376 1.852.275.548.553 1.376.618 1.843.094.695.16.81.363.632.172-.15.225-.517.172-1.21-.04-.546-.27-1.401-.51-1.898-.238-.497-.846-1.302-1.346-1.786-.503-.486-1.2-1.027-1.546-1.202a5.7 5.7 0 0 0-1.266-.44m105.398-.09c-.048.004-.359.145-.689.311-.513.26-.548.313-.226.355.318.043.376.177.376.864 0 .448-.082.813-.181.813-.1 0-.242-.246-.316-.546s-.197-.543-.271-.542-.134.146-.132.32c.002.173.164.662.361 1.085s.704 1.11 1.126 1.527c.423.418 1.215.962 1.763 1.21.58.262 1.347.455 1.839.46.664.01.946-.084 1.315-.44.26-.248.468-.594.465-.768-.002-.197-.19-.357-.5-.422a14 14 0 0 1-1.04-.278c-.298-.096-.868-.362-1.265-.591-.398-.232-1.024-.777-1.389-1.214-.367-.437-.775-1.1-.907-1.473-.134-.372-.28-.674-.33-.67m-104.61-1.088c-.21-.002-.476.12-.587.267-.166.226-.054.319.658.55.471.154 1.286.602 1.808.994.534.403 1.268 1.212 1.678 1.847.426.66.82 1.556.95 2.154.12.564.28.992.355.95s.137-.503.14-1.025-.111-1.233-.254-1.582c-.14-.347-.57-1.054-.953-1.57-.383-.515-.982-1.155-1.329-1.42a9 9 0 0 0-1.355-.822c-.398-.186-.897-.34-1.11-.343m222.7-7.685c.105.062.181.227.17.37-.01.144-1.216 1.38-2.679 2.746-.732.684-1.622 1.519-2.466 2.314l-4.387 4.142c-.845.795-1.735 1.63-2.467 2.313-1.681 1.569-2.762 2.453-2.934 2.395-.148-.049-.274-.151-.279-.225s1.318-1.4 2.938-2.946c1.62-1.545 4.965-4.702 7.431-7.014s4.569-4.153 4.673-4.095m-167.215 3.156c.555-.266.982-.342 1.537-.271.423.052 1.074.25 1.446.44.373.187 1.074.695 1.559 1.13.486.431 1.198 1.274 1.587 1.87.386.597.867 1.614 1.064 2.26.199.645.36 1.643.358 2.215-.001.571-.112 1.304-.244 1.628-.134.323-.518.82-.858 1.106-.56.47-.722.511-1.725.451-.938-.056-1.267-.177-2.157-.79-.579-.397-1.402-1.17-1.828-1.716s-.976-1.402-1.22-1.899-.583-1.434-.749-2.079c-.177-.687-.265-1.514-.213-1.99.05-.446.222-1.076.383-1.4.183-.368.577-.725 1.06-.955m-54.479 3.623c-.257 0-.523.06-.59.134s.428.39 1.1.703c.88.409 1.498.87 2.216 1.65.546.597 1.19 1.482 1.43 1.965.239.484.483 1.18.542 1.546.087.546.152.63.353.453.18-.158.213-.458.123-1.12-.067-.497-.342-1.305-.608-1.797-.265-.491-.891-1.297-1.388-1.794-.497-.496-1.31-1.09-1.808-1.32-.497-.23-1.113-.418-1.37-.42m54.573-2.894c-.072 0-.247.183-.388.407-.143.223-.313.732-.382 1.13-.078.46-.014 1.148.174 1.898.164.646.537 1.622.828 2.17.293.545.884 1.4 1.312 1.898.443.513 1.204 1.12 1.763 1.403.54.275 1.227.497 1.525.493.299-.002.644-.065.767-.138.14-.083-.16-.3-.813-.581-.593-.257-1.492-.876-2.096-1.447-.772-.726-1.262-1.408-1.808-2.52-.709-1.435-.75-1.613-.75-3.117 0-.877-.06-1.594-.132-1.596m15.56-5.562c-.133-.023-.813.27-1.509.654-.696.385-2.282 1.305-3.525 2.047-1.78 1.063-2.272 1.441-2.32 1.788-.034.24.398 1.618.96 3.06a305 305 0 0 0 1.825 4.565c.44 1.07.862 1.945.936 1.947.077.001 1.276-.66 2.667-1.472 1.392-.812 2.98-1.772 3.525-2.134.884-.585.987-.717.931-1.194-.036-.295-.372-1.595-.748-2.888s-1.093-3.245-1.592-4.339c-.499-1.093-1.017-2.009-1.15-2.034m-68.705 7.496c-.405-.06-.794-.007-.994.136-.299.213-.271.244.303.34.35.06 1.157.455 1.797.882.64.426 1.469 1.182 1.841 1.68.374.496.844 1.27 1.048 1.717.202.448.371 1.038.373 1.31.002.274.085.498.185.498s.221-.122.27-.272c.05-.148.093-.535.095-.858.001-.324-.236-1.076-.527-1.672-.29-.596-.882-1.456-1.314-1.908-.43-.452-1.15-1.032-1.599-1.29-.446-.256-1.111-.509-1.478-.563m54.384-2.296c-.129 0-.301.055-.384.12-.083.068-.14.699-.123 1.4.014.706.178 1.73.36 2.277.183.546.582 1.36.886 1.808s.91 1.162 1.344 1.589c.434.425 1.113.928 1.51 1.116.398.188.925.369 1.172.4.284.037.468-.04.506-.212.04-.181-.233-.391-.808-.62-.486-.198-1.274-.755-1.788-1.266-.594-.593-1.162-1.428-1.609-2.363-.571-1.2-.701-1.687-.76-2.847-.051-.987-.142-1.401-.306-1.402m48.802 3.265c-.372.282-.494.523-.48.951.012.317.178.9.368 1.298.192.398.76 1.11 1.264 1.582.502.472 1.262 1.02 1.683 1.217.423.197 1.175.364 1.672.37.615.006 1.03-.094 1.302-.314.217-.177.421-.48.452-.672.043-.275-.093-.382-.624-.497-.372-.082-1.063-.345-1.536-.583-.472-.237-1.257-.786-1.743-1.22-.488-.432-1.105-1.174-1.372-1.65l-.487-.86zM-90.88-30.845c-.556-.061-.882-.012-1.032.157-.177.201-.045.32.725.65.519.22 1.419.832 2 1.356a6.8 6.8 0 0 1 1.677 2.218c.341.696.667 1.551.725 1.898.078.474.144.564.262.362.088-.149.161-.577.163-.95.002-.372-.08-.901-.18-1.174-.102-.273-.144-.537-.095-.588.05-.049.166.115.256.362.093.25.273.696.402.994l.235.542c.089-.968-.082-1.54-.43-2.214a10 10 0 0 0-1.356-1.899c-.45-.472-1.204-1.03-1.678-1.24-.471-.212-1.225-.423-1.674-.474m53.988-.78c-.09.006-.116.55-.056 1.23.074.834.278 1.56.652 2.304.3.597.814 1.406 1.141 1.798s.96.941 1.408 1.222c.448.28.915.509 1.04.508.125-.003.226-.165.226-.364 0-.213-.204-.465-.497-.613-.273-.138-.86-.646-1.302-1.13a9.4 9.4 0 0 1-1.31-1.963c-.279-.596-.56-1.41-.623-1.808-.063-.397-.206-.83-.316-.958-.11-.129-.273-.23-.363-.226m105.744-3.412c.298-.01 1.03.072 1.627.182a10 10 0 0 1 2.079.675c.548.262 1.258.743 1.582 1.069.323.325.75.916.95 1.314.225.454.36 1.077.358 1.672-.002.537-.15 1.264-.34 1.673-.187.398-.651 1.023-1.036 1.389-.386.366-1.147.886-1.695 1.155-.546.269-1.522.574-2.169.678-.862.135-1.512.126-2.441-.037-.72-.126-1.727-.471-2.334-.8-.586-.317-1.343-.902-1.68-1.3-.344-.405-.737-1.161-.894-1.718-.177-.623-.233-1.231-.154-1.627a6 6 0 0 1 .447-1.266c.177-.348.617-.897.976-1.22a8.2 8.2 0 0 1 1.425-.984c.423-.218 1.217-.497 1.763-.618.547-.12 1.237-.228 1.536-.237m-56.305 4.143c-.11 0-.3.207-.422.458-.18.369-.175.608.028 1.22.157.483.622 1.133 1.265 1.77.57.565 1.47 1.219 2.054 1.492.584.271 1.358.484 1.763.484.397 0 .764-.081.813-.18.05-.1-.336-.297-.858-.44-.52-.14-1.373-.568-1.888-.95-.517-.379-1.275-1.136-1.682-1.684-.408-.547-.771-1.258-.807-1.582-.038-.323-.158-.587-.266-.588M-89.68-31.978c-.49 0-.89.107-1.04.279-.215.244-.184.277.25.27.274-.003.72.091.994.21.275.12.972.548 1.554.95s1.246.975 1.474 1.274c.23.298.627.991.884 1.537.258.548.466 1.198.463 1.446-.006.41.022.427.295.18.215-.194.276-.473.22-.993-.043-.398-.273-1.13-.51-1.627-.236-.497-.8-1.3-1.252-1.783-.452-.485-1.208-1.074-1.682-1.31-.513-.26-1.175-.433-1.65-.433m159.076.058c-1.237-.054-1.846.008-2.54.252-.501.177-1.194.513-1.537.746-.344.233-.863.762-1.154 1.176l-.529.752c.54.98 1.105 1.532 1.602 1.863s1.31.717 1.807.86 1.432.263 2.08.263c.646 0 1.581-.119 2.078-.264a6.7 6.7 0 0 0 1.673-.815c.423-.304.97-.837 1.22-1.184.416-.583.432-.675.197-1.13-.14-.275-.486-.713-.768-.977-.282-.262-.962-.7-1.508-.976-.81-.404-1.294-.51-2.621-.566m-104.116 2.022c-.698-.742-.83-.823-.734-.453.065.248.314.899.551 1.447.239.546.798 1.36 1.244 1.808.444.446.845.77.89.723.043-.051-.187-.66-.51-1.355-.324-.697-.973-1.673-1.441-2.17m49.335-2.62c-.1.005-.403.21-.678.456-.316.285-.496.626-.494.943.003.273.155.823.341 1.22.185.398.691 1.063 1.127 1.477a9 9 0 0 0 1.692 1.226c.645.334 1.177.468 1.853.465.705-.002 1.043-.098 1.31-.366.2-.199.362-.482.362-.633 0-.236-.04-.234-.316.011-.22.2-.37.227-.497.091q-.18-.192.049-.418c.126-.125.228-.287.226-.361s-.226-.176-.5-.225-.986-.399-1.583-.778c-.596-.382-1.32-.972-1.607-1.314a7.4 7.4 0 0 1-.814-1.212c-.159-.326-.372-.588-.471-.583m-103.232-.72c-.199.003-.517.089-.709.19-.19.101-.332.262-.316.356.018.094.235.171.482.172.25 0 .912.224 1.472.497.591.287 1.41.915 1.951 1.492.58.62 1.082 1.386 1.33 2.033.22.57.4 1.202.4 1.401 0 .201.101.335.226.302.128-.033.247-.407.275-.858.034-.546-.087-1.085-.378-1.704-.237-.497-.829-1.345-1.315-1.883-.575-.633-1.27-1.159-1.972-1.49-.596-.281-1.246-.51-1.446-.508m2.32-6.604c-.4-.083-.608-.047-.678.12-.055.133-.306.83-.556 1.55-.427 1.236-.436 1.346-.17 1.898l.284.588c.613-.594.972-.86 1.197-.971.224-.112.712-.205 1.085-.206.372 0 1.084.197 1.582.441.497.244 1.363.917 1.925 1.493.56.579 1.233 1.5 1.492 2.045.26.548.524 1.443.588 1.99.106.928.075 1.039-.455 1.671-.312.374-.526.758-.477.859s.477.304.95.456c.47.15.94.274 1.04.276.099.001.415-.427.704-.951.456-.831.508-1.074.404-1.86-.084-.622-.495-1.579-1.319-3.074-.66-1.193-1.573-2.562-2.032-3.043-.458-.48-1.32-1.12-1.916-1.422a40 40 0 0 1-2.08-1.144c-.547-.329-1.252-.65-1.569-.716m-1.091 5.693c-.417 0-.8.063-.85.137-.052.074.371.313.939.53.567.216 1.439.756 1.936 1.2s1.19 1.284 1.537 1.866.764 1.467.929 1.964c.246.743.321.84.433.542.075-.2.084-.87.021-1.491-.065-.621-.177-1.126-.253-1.128-.074.001-.27-.224-.433-.498-.164-.275-.63-.844-1.039-1.267a10.4 10.4 0 0 0-1.602-1.312c-.608-.387-1.082-.545-1.618-.543m250.431-3.645c-.298-.049-.721-.056-.939-.018-.219.037-.545.235-.724.439-.224.255-.325.664-.325 1.31 0 .726.161 1.26.712 2.375.526 1.066 1.063 1.79 2.079 2.804.982.982 1.751 1.557 2.724 2.04.936.462 1.594.67 2.124.666.422-.002.901-.064 1.064-.14.165-.074.416-.38.561-.68.178-.368.222-.77.135-1.264-.07-.398-.302-1.112-.513-1.59-.213-.473-.427-.856-.479-.851-.049.007-.436.336-.859.73-.421.394-.85.716-.949.716-.1 0-.485-.125-.859-.278-.372-.156-.993-.582-1.378-.95-.383-.368-.85-.995-1.034-1.393-.186-.398-.339-.925-.343-1.175-.005-.28.229-.69.621-1.085.348-.347.592-.692.546-.768-.048-.075-.43-.284-.852-.468-.421-.183-1.013-.371-1.312-.42m-248.18 1.66c-.223.002-.508.063-.631.135-.141.083.158.3.808.584.568.25 1.4.787 1.85 1.195s1.052 1.06 1.336 1.447c.316.431.473.826.406 1.02-.06.174-.168.32-.244.321-.074.003-.237-.201-.361-.452-.123-.251-.572-.832-.995-1.29-.42-.46-1.093-1.027-1.49-1.263-.398-.235-1.008-.508-1.357-.607-.347-.1-.815-.142-1.04-.094-.22.047-.407.146-.41.22-.002.076.243.197.543.271.3.076.974.409 1.495.74.522.332 1.254.942 1.627 1.356.374.414.922 1.282 1.22 1.927.299.647.542 1.338.542 1.537 0 .202.101.334.226.3.148-.04.228-.432.23-1.13.003-.87.061-1.075.316-1.113.233-.033.342.128.426.633.099.6.133.635.292.316.099-.199.13-.606.067-.904-.062-.299-.32-.99-.573-1.538-.253-.545-.843-1.386-1.309-1.867-.468-.48-1.235-1.07-1.709-1.31-.472-.24-1.041-.436-1.265-.434M15.689-35.01c-.175.237-.29.715-.279 1.174.01.425.171 1.077.359 1.45.186.373.694 1.03 1.13 1.46.434.432 1.236.997 1.782 1.257.557.266 1.327.477 1.748.483.57.007.868-.102 1.217-.444.253-.248.423-.51.376-.587-.048-.074-.554-.379-1.126-.675s-1.522-.968-2.111-1.49a22 22 0 0 1-1.935-1.991l-.864-1.038zm-91.917 4.882c-.33-.206-.363-.18-.365.317-.003.5.028.527.36.319.2-.125.362-.268.364-.319 0-.05-.161-.193-.36-.317M15.62-38.76c-.007.454.198 1.163.548 1.899.306.647.953 1.663 1.438 2.26.484.596 1.433 1.504 2.107 2.016.676.51 1.637 1.131 2.134 1.379.497.25 1.35.584 1.898.745.546.16 1.441.285 1.989.274l.994-.02c-2.383-.5-3.562-.863-4.158-1.13-.597-.268-1.573-.836-2.17-1.263-.596-.426-1.532-1.261-2.078-1.856-.548-.595-1.258-1.52-1.578-2.06-.318-.537-.699-1.425-.845-1.972l-.266-.994zm54.046 4.576c-.546-.047-1.36-.028-1.808.042a8 8 0 0 0-1.627.48c-.449.195-1.1.6-1.447.9s-.775.844-.949 1.207-.32.803-.323.979c-.005.23.212.11.814-.452.451-.423 1.207-.939 1.68-1.143.471-.206 1.385-.436 2.032-.512.647-.075 1.663-.068 2.26.013.597.083 1.573.387 2.17.675.596.29 1.348.817 1.672 1.175.354.39.587.541.588.38 0-.15-.108-.538-.24-.86-.134-.323-.642-.938-1.13-1.366-.49-.427-1.297-.924-1.794-1.105a9 9 0 0 0-1.898-.413m-146.159-5.53c-.024-.027-.442.267-.929.652a33 33 0 0 0-1.367 1.138c-.415.376-.466.537-.39 1.243.047.449.291 1.22.543 1.718.25.497.843 1.555 1.317 2.35s1.054 1.584 1.291 1.75c.418.297.454.282 1.565-.632.627-.515 1.135-1.018 1.128-1.117-.005-.101-.222-.996-.484-1.99-.39-1.487-.665-2.093-1.553-3.434-.594-.895-1.1-1.649-1.12-1.678m96.17-3.464c-.596.004-1.367.107-1.714.232-.345.123-.834.492-1.085.817-.39.508-.455.78-.455 1.901 0 1.143.085 1.483.678 2.7.515 1.059 1.035 1.748 2.17 2.883.82.821 1.939 1.755 2.485 2.076s1.483.761 2.08.978c.728.266 1.531.401 2.44.41 1.049.013 1.497-.065 1.976-.345.342-.2.79-.647.994-.994.268-.452.374-.948.374-1.73 0-.934-.119-1.338-.798-2.712-.63-1.267-1.094-1.906-2.173-2.97-.911-.9-1.826-1.595-2.725-2.065-.744-.39-1.76-.815-2.258-.947-.497-.13-1.392-.236-1.989-.234m147.888 5.197-2.839 2.84c.3.997.767 1.628 1.293 2.123.528.496 1.084.859 1.319.86.289.003 1.187-.809 3.119-2.818 2.14-2.226 2.653-2.855 2.441-2.982-.15-.088-.312-.159-.362-.157-.05.001-.41-.306-.8-.682s-.85-.984-1.022-1.352l-.311-.667zM14.459-33.423c-.133 0-.392.148-.574.33-.182.18-.316.385-.299.452s.277.001.575-.149c.299-.148.542-.353.542-.452s-.11-.18-.244-.18m-47.166-9.034c-.026.004-1.266.638-2.757 1.413-1.49.774-3.265 1.727-3.941 2.12-.96.552-1.178.755-.994.91.129.113 1.374.813 2.766 1.559 1.391.747 3.201 1.692 4.022 2.104.82.41 1.614.746 1.763.746s1.837-.93 3.752-2.069 3.602-2.142 3.75-2.227c.201-.118-.267-.442-1.807-1.255a246 246 0 0 0-4.294-2.202c-1.217-.607-2.232-1.102-2.26-1.099m54.671 1.983c.086.001.561.368 1.058.814.855.77.926.798 1.31.54.224-.15.528-.27.678-.266s.416.147.593.319c.177.17.318.433.314.582s-.23.443-.997 1.034l1.347 1.768-.911.904-.716-.859c-.392-.471-.835-.857-.985-.858-.15 0-.56.143-1.552.633l-.88-1.085 1.347-1.145-.678-.875c-.634-.817-.66-.893-.38-1.19.163-.173.367-.315.452-.316m1.103 2.186c.211.522.191.588-.317 1.027-.35.305-.413.417-.18.32.198-.085.625-.18.949-.215.374-.04.587-.163.588-.334 0-.148.224-.436.497-.635.273-.2.422-.41.334-.467-.091-.055-.359.045-.597.228-.423.323-.446.322-.967-.075l-.533-.408zm-105.581-4.885c-.293.007-.943.343-1.582.82-.596.445-1.166.882-1.266.971-.118.105-.045.372.206.762.243.374.885.87 1.718 1.321.732.398 1.656.86 2.053 1.028.398.17.866.311 1.04.317.173.005.669-.253 1.1-.576.428-.324 1.079-.852 1.446-1.176.364-.323.66-.648.659-.723s-.713-.597-1.581-1.159c-.868-.564-1.966-1.153-2.438-1.31-.471-.16-1.082-.282-1.355-.275m254.128 2.79c-.288-.497-.522-.783-.524-.634s.226.637.51 1.085c.304.48.824.98 1.268 1.221.414.224.751.345.748.27s-.338-.34-.744-.586c-.444-.273-.944-.81-1.258-1.357m.851-2.08c-.137 0-.362.13-.497.286-.198.231-.203.41-.026.95.119.365.486.932.813 1.261.454.456.766.606 1.318.633.703.033.725.018.774-.599.036-.43-.086-.835-.375-1.265-.233-.35-.725-.776-1.09-.95s-.778-.316-.917-.316"/></g></svg>